<?xml version="1.0" encoding="UTF-8"?>
<svg xmlns="http://www.w3.org/2000/svg" xmlns:xlink="http://www.w3.org/1999/xlink" width="152px" height="114px" viewBox="0 0 152 114" version="1.1">
<g id="surface1">
<path style=" stroke:none;fill-rule:nonzero;fill:rgb(100%,75.686275%,0%);fill-opacity:1;" d="M 81.191406 55.277344 C 78.988281 54.265625 77.796875 53.605469 76.457031 52.644531 L 75.238281 51.78125 L 76.277344 50.769531 C 80.078125 47.09375 82.28125 42.179688 82.964844 35.972656 C 83.066406 35.0625 83.269531 34.175781 83.398438 34.023438 C 83.601562 33.769531 85.425781 33.691406 90.972656 33.691406 L 98.292969 33.691406 L 98.597656 34.300781 C 99.003906 35.214844 98.445312 39.113281 97.507812 41.902344 C 96.164062 45.953125 93.402344 49.855469 90.136719 52.390625 C 88.667969 53.53125 84.460938 55.683594 83.398438 55.859375 C 82.992188 55.9375 82.078125 55.683594 81.191406 55.277344 Z M 81.191406 55.277344 "/>
<path style=" stroke:none;fill-rule:nonzero;fill:rgb(15.686275%,15.294118%,34.117647%);fill-opacity:1;" d="M 53.226562 81.09375 C 52.820312 80.355469 53.277344 79.546875 54.113281 79.546875 C 54.492188 79.546875 55.074219 79.242188 55.503906 78.8125 L 56.238281 78.078125 L 56.238281 74 C 56.238281 70.65625 56.316406 69.894531 56.644531 69.566406 C 56.847656 69.335938 57.175781 69.160156 57.355469 69.160156 C 58.191406 69.160156 58.292969 69.84375 58.214844 74.453125 C 58.140625 78.585938 58.089844 79.066406 57.609375 79.699219 C 56.796875 80.8125 55.886719 81.371094 54.644531 81.496094 C 53.65625 81.625 53.453125 81.546875 53.226562 81.09375 Z M 53.226562 81.09375 "/>
<path style=" stroke:none;fill-rule:nonzero;fill:rgb(15.686275%,15.294118%,34.117647%);fill-opacity:1;" d="M 63.207031 78.558594 C 62.191406 78.304688 61.535156 77.875 60.925781 77.0625 C 60.46875 76.457031 60.421875 75.925781 60.34375 71.644531 C 60.269531 67.082031 60.292969 66.90625 60.773438 66.625 C 61.15625 66.425781 61.457031 66.425781 61.8125 66.625 C 62.292969 66.878906 62.320312 67.160156 62.320312 71.1875 C 62.320312 75.164062 62.371094 75.542969 62.828125 76 C 63.105469 76.277344 63.664062 76.507812 64.09375 76.507812 L 64.851562 76.507812 L 64.851562 66.878906 L 65.488281 66.574219 C 66.625 66.070312 66.878906 66.601562 66.878906 69.566406 C 66.878906 71.007812 66.957031 72.199219 67.03125 72.199219 C 67.109375 72.199219 67.539062 71.894531 67.996094 71.515625 C 69.386719 70.351562 71.667969 69.414062 73.1875 69.414062 C 76.023438 69.414062 77.976562 71.515625 77.699219 74.300781 C 77.648438 75.039062 77.496094 75.824219 77.394531 76.074219 C 77.242188 76.429688 77.34375 76.507812 77.949219 76.507812 C 78.988281 76.507812 79.722656 75.746094 81.191406 73.113281 C 81.902344 71.871094 82.816406 70.605469 83.21875 70.300781 C 85.5 68.601562 88.3125 68.984375 89.90625 71.1875 C 90.820312 72.453125 91.046875 73.820312 90.59375 75.339844 L 90.238281 76.507812 L 91.074219 76.507812 C 91.679688 76.507812 92.0625 76.328125 92.441406 75.847656 C 92.921875 75.214844 92.972656 74.835938 92.972656 71.058594 C 92.972656 66.652344 93.125 66.144531 94.214844 66.5 C 94.976562 66.726562 95.050781 67.3125 94.949219 72.023438 C 94.875 75.796875 94.824219 76.277344 94.339844 76.910156 C 93.253906 78.382812 92.71875 78.585938 89.628906 78.734375 C 85.753906 78.886719 84.105469 78.535156 82.839844 77.265625 L 81.878906 76.304688 L 81.21875 77.011719 C 79.800781 78.632812 79.648438 78.660156 71.441406 78.710938 C 67.335938 78.734375 63.636719 78.660156 63.207031 78.558594 Z M 74.808594 75.898438 C 76 74.808594 76.023438 73.214844 74.859375 72.046875 C 73.414062 70.605469 69.667969 72.046875 67.84375 74.785156 C 66.675781 76.507812 66.703125 76.507812 70.65625 76.507812 C 74 76.507812 74.175781 76.480469 74.808594 75.898438 Z M 87.933594 75.773438 C 88.515625 75.1875 88.667969 74.808594 88.667969 73.972656 C 88.667969 71.667969 85.980469 70.554688 84.335938 72.175781 C 82.714844 73.820312 83.828125 76.507812 86.132812 76.507812 C 86.96875 76.507812 87.347656 76.355469 87.933594 75.773438 Z M 87.933594 75.773438 "/>
<path style=" stroke:none;fill-rule:nonzero;fill:rgb(15.686275%,15.294118%,34.117647%);fill-opacity:1;" d="M 97.027344 78.027344 C 96.847656 77.671875 96.773438 75.695312 96.824219 72.175781 C 96.875 67.792969 96.976562 66.828125 97.28125 66.625 C 97.835938 66.273438 98.191406 66.324219 98.648438 66.777344 C 99.003906 67.109375 99.054688 67.96875 99.054688 72.351562 C 99.054688 75.46875 98.953125 77.746094 98.800781 78.050781 C 98.445312 78.683594 97.382812 78.683594 97.027344 78.027344 Z M 97.027344 78.027344 "/>
<path style=" stroke:none;fill-rule:nonzero;fill:rgb(100%,28.627451%,41.568627%);fill-opacity:1;" d="M 65.082031 55.125 C 60.496094 53.125 56.492188 49.476562 54.390625 45.371094 C 53.730469 44.078125 53.199219 42.839844 53.199219 42.585938 C 53.199219 41.597656 53.554688 41.546875 60.925781 41.546875 C 68.882812 41.546875 68.527344 41.46875 69.132812 43.320312 C 69.640625 44.964844 71.691406 48.109375 73.339844 49.882812 C 74.253906 50.84375 74.988281 51.679688 74.988281 51.78125 C 74.988281 52.339844 68.199219 55.988281 67.210938 55.988281 C 67.109375 55.988281 66.144531 55.605469 65.082031 55.125 Z M 65.082031 55.125 "/>
<path style=" stroke:none;fill-rule:nonzero;fill:rgb(41.176471%,31.764706%,84.313725%);fill-opacity:1;" d="M 72.960938 57.101562 C 71.085938 56.875 68.855469 56.46875 68.222656 56.214844 C 67.5625 55.960938 67.613281 55.9375 69.566406 55.101562 C 70.65625 54.617188 72.378906 53.65625 73.390625 52.972656 L 75.214844 51.730469 L 76.050781 52.363281 C 77.367188 53.351562 79.546875 54.566406 81.144531 55.226562 C 81.929688 55.554688 82.585938 55.910156 82.585938 55.988281 C 82.585938 56.542969 75.316406 57.378906 72.960938 57.101562 Z M 72.960938 57.101562 "/>
</g>
</svg>
