<?xml version="1.0" encoding="UTF-8"?>
<svg xmlns="http://www.w3.org/2000/svg" xmlns:xlink="http://www.w3.org/1999/xlink" width="152px" height="114px" viewBox="0 0 152 152" version="1.1">
<g id="surface1">
<path style=" stroke:none;fill-rule:nonzero;fill:rgb(79.215686%,14.509804%,38.431373%);fill-opacity:1;" d="M 0 76 L 0 0 L 152 0 L 152 152 L 0 152 Z M 30.039062 85.328125 C 30.703125 84.644531 30.722656 84.550781 30.113281 83.902344 C 29.5625 83.296875 29.144531 83.277344 28.558594 83.828125 C 27.988281 84.359375 28.007812 84.835938 28.613281 85.40625 C 29.261719 86.011719 29.355469 85.992188 30.039062 85.328125 Z M 35.453125 84.816406 C 35.585938 84.304688 35.167969 83.695312 34.542969 83.484375 C 34.085938 83.351562 33.25 84.074219 33.25 84.589844 C 33.25 84.796875 33.476562 85.15625 33.742188 85.40625 C 34.21875 85.84375 34.277344 85.84375 34.789062 85.574219 C 35.09375 85.425781 35.398438 85.082031 35.453125 84.816406 Z M 87.457031 85.234375 C 88.710938 84.625 89.488281 83.542969 89.488281 82.402344 C 89.488281 82.023438 89.566406 81.679688 89.640625 81.625 C 89.738281 81.566406 90.441406 81.394531 91.199219 81.242188 C 93.082031 80.84375 93.878906 80.292969 94.601562 78.832031 L 95.191406 77.652344 L 95.191406 60.058594 L 95.644531 59.527344 C 96.082031 59.03125 96.214844 58.996094 97.507812 58.996094 C 98.535156 58.996094 99.046875 59.089844 99.425781 59.335938 L 99.941406 59.660156 L 99.941406 68.476562 C 99.941406 78.355469 99.960938 78.566406 101.214844 79.839844 C 102.105469 80.75 103.683594 81.378906 104.671875 81.207031 C 105.527344 81.054688 106.171875 80.730469 106.949219 80.066406 C 107.976562 79.210938 108.167969 78.507812 108.261719 75.277344 L 108.339844 72.390625 L 108.925781 71.894531 C 109.476562 71.441406 109.628906 71.402344 110.847656 71.496094 C 111.984375 71.574219 112.234375 71.648438 112.613281 72.085938 C 113.03125 72.578125 113.050781 72.769531 113.050781 75.296875 C 113.050781 78.28125 113.277344 79.136719 114.324219 80.105469 C 115.539062 81.226562 115.9375 81.320312 119.945312 81.320312 C 123.9375 81.320312 124.695312 81.1875 125.894531 80.273438 C 126.21875 80.027344 126.691406 79.421875 126.921875 78.945312 C 127.320312 78.128906 127.339844 77.824219 127.339844 73.644531 C 127.339844 68.816406 127.242188 68.304688 126.199219 67.183594 C 125.53125 66.480469 123.957031 65.738281 123.121094 65.738281 C 122.285156 65.738281 120.707031 66.480469 120.042969 67.183594 C 118.996094 68.285156 118.921875 68.800781 118.824219 74.175781 C 118.769531 76.910156 118.691406 79.25 118.636719 79.382812 C 118.523438 79.722656 115.730469 79.496094 115.328125 79.117188 C 115.101562 78.90625 115.027344 78.164062 114.949219 75.828125 C 114.855469 72.902344 114.835938 72.808594 114.285156 71.894531 C 113.523438 70.699219 112.234375 69.882812 110.882812 69.769531 C 109.136719 69.636719 107.464844 70.757812 106.683594 72.636719 C 106.476562 73.148438 106.398438 74.023438 106.398438 75.980469 C 106.398438 79.363281 106.246094 79.570312 103.722656 79.382812 C 101.726562 79.230469 101.839844 79.839844 101.839844 69.636719 C 101.839844 64.066406 101.765625 60.628906 101.632812 60.171875 C 101.363281 59.203125 100.242188 57.988281 99.199219 57.511719 C 97.148438 56.601562 94.773438 57.550781 93.785156 59.660156 C 93.402344 60.476562 93.386719 60.855469 93.289062 69.597656 L 93.195312 78.699219 L 92.777344 79.039062 C 92.320312 79.402344 90.496094 79.703125 89.90625 79.535156 C 89.566406 79.421875 89.546875 79.117188 89.566406 74.234375 C 89.585938 69.273438 89.566406 69.027344 89.167969 68.304688 C 88.351562 66.785156 86.792969 65.738281 85.328125 65.738281 C 84.398438 65.738281 82.839844 66.5 82.214844 67.261719 C 81.148438 68.496094 81.109375 68.835938 81.167969 73.929688 L 81.226562 78.621094 L 81.8125 79.457031 C 82.6875 80.675781 83.675781 81.148438 85.671875 81.300781 C 86.582031 81.378906 87.4375 81.511719 87.550781 81.585938 C 87.855469 81.777344 87.835938 83.066406 87.53125 83.484375 C 87.324219 83.769531 86.925781 83.847656 85.480469 83.921875 C 83.21875 84.019531 82.914062 84.09375 82.441406 84.570312 L 82.042969 84.96875 L 82.496094 85.441406 C 82.914062 85.898438 83.011719 85.917969 84.664062 85.84375 C 86.050781 85.785156 86.582031 85.671875 87.457031 85.234375 Z M 108.925781 85.347656 C 109.363281 84.949219 109.324219 84.265625 108.832031 83.789062 C 108.300781 83.296875 108.054688 83.316406 107.425781 83.847656 C 107.007812 84.207031 106.933594 84.398438 107.046875 84.796875 C 107.160156 85.308594 108.054688 85.9375 108.394531 85.746094 C 108.488281 85.671875 108.738281 85.5 108.925781 85.347656 Z M 114.191406 85.007812 C 114.683594 84.09375 113.390625 83.03125 112.632812 83.714844 C 111.890625 84.398438 111.871094 84.664062 112.480469 85.289062 C 112.992188 85.785156 113.125 85.84375 113.507812 85.671875 C 113.753906 85.558594 114.058594 85.253906 114.191406 85.007812 Z M 33.953125 80.636719 C 34.578125 80.257812 35.035156 79.78125 35.378906 79.136719 L 35.910156 78.183594 L 35.910156 73.699219 C 35.910156 68.648438 36.003906 68.113281 36.972656 67.714844 C 38.246094 67.183594 40.203125 67.546875 40.640625 68.363281 C 40.773438 68.609375 40.851562 70.375 40.851562 73.1875 C 40.851562 75.789062 40.945312 77.917969 41.058594 78.375 C 41.191406 78.867188 41.589844 79.457031 42.179688 80.027344 C 43.625 81.433594 45.199219 81.679688 46.949219 80.808594 C 48.144531 80.179688 48.980469 79.117188 49.230469 77.882812 C 49.304688 77.425781 49.382812 75.105469 49.398438 72.75 L 49.398438 68.457031 L 49.894531 68 C 50.3125 67.601562 50.558594 67.546875 51.699219 67.546875 C 52.859375 67.546875 53.066406 67.601562 53.503906 68.058594 L 54.015625 68.570312 L 54.09375 73.472656 C 54.167969 78.28125 54.1875 78.394531 54.644531 79.171875 C 56.03125 81.566406 58.957031 82.003906 61.085938 80.140625 C 62.394531 78.984375 62.511719 78.414062 62.511719 73.148438 C 62.511719 68.933594 62.527344 68.609375 62.890625 68.152344 C 63.554688 67.316406 65.777344 67.242188 66.726562 68.019531 C 67.164062 68.363281 67.164062 68.457031 67.261719 73.492188 L 67.355469 78.621094 L 67.925781 79.457031 C 68.628906 80.464844 70.203125 81.320312 71.324219 81.320312 C 72.390625 81.320312 73.910156 80.558594 74.613281 79.703125 C 75.429688 78.71875 75.621094 77.765625 75.621094 74.765625 L 75.621094 72.160156 L 76.378906 71.421875 C 77.160156 70.660156 77.195312 70.261719 76.570312 69.921875 C 76.09375 69.671875 74.992188 70.488281 74.347656 71.59375 C 73.835938 72.445312 73.816406 72.617188 73.71875 75.675781 C 73.605469 79.515625 73.664062 79.421875 71.363281 79.421875 C 69.066406 79.421875 69.160156 79.648438 69.160156 74.5 C 69.160156 69.785156 69.007812 68.742188 68.132812 67.488281 C 67.222656 66.15625 65.226562 65.4375 63.78125 65.910156 C 62.644531 66.289062 61.558594 67.222656 61.121094 68.171875 C 60.742188 68.988281 60.703125 69.464844 60.609375 73.96875 C 60.496094 79.761719 60.648438 79.421875 58.253906 79.421875 C 57.398438 79.421875 56.621094 79.34375 56.507812 79.269531 C 55.9375 78.886719 55.859375 78.222656 55.859375 73.777344 C 55.859375 69.425781 55.839844 69.21875 55.402344 68.304688 C 55.15625 67.792969 54.757812 67.164062 54.511719 66.9375 C 53.847656 66.328125 52.441406 65.738281 51.621094 65.738281 C 50.367188 65.738281 48.601562 66.859375 47.917969 68.113281 C 47.652344 68.589844 47.574219 69.503906 47.5 73.644531 C 47.386719 79.6875 47.5 79.421875 45.105469 79.421875 C 42.675781 79.421875 42.789062 79.667969 42.710938 73.738281 L 42.65625 68.875 L 42.140625 68.019531 C 40.71875 65.589844 37.808594 65.035156 35.757812 66.804688 C 34.3125 68.039062 34.3125 68.078125 34.199219 73.644531 C 34.085938 79.742188 34.21875 79.421875 31.636719 79.421875 C 30.230469 79.421875 29.828125 79.363281 29.621094 79.097656 C 29.429688 78.886719 29.335938 77.898438 29.261719 75.542969 C 29.164062 72.902344 29.089844 72.160156 28.804688 71.628906 C 28.367188 70.773438 27.605469 69.957031 26.941406 69.617188 C 26.46875 69.367188 26.390625 69.367188 26.03125 69.730469 C 25.726562 70.035156 25.6875 70.203125 25.839844 70.488281 C 25.953125 70.699219 26.105469 70.871094 26.199219 70.871094 C 26.296875 70.871094 26.582031 71.097656 26.867188 71.363281 C 27.359375 71.878906 27.359375 71.894531 27.359375 74.765625 C 27.359375 78.109375 27.570312 79.003906 28.652344 80.046875 C 30.078125 81.453125 32.242188 81.679688 33.953125 80.636719 Z M 49.875 62.984375 C 50.503906 62.378906 50.464844 62.074219 49.761719 61.484375 C 49.113281 60.933594 48.679688 61.027344 48.144531 61.84375 C 47.824219 62.339844 47.992188 62.910156 48.601562 63.25 C 49.113281 63.554688 49.382812 63.496094 49.875 62.984375 Z M 54.683594 63.15625 C 55.402344 62.660156 55.519531 62.226562 55.101562 61.691406 C 54.550781 61.007812 54.054688 60.953125 53.484375 61.503906 C 52.894531 62.109375 52.894531 62.394531 53.484375 62.984375 C 54.015625 63.535156 54.113281 63.554688 54.683594 63.15625 Z M 69.617188 63.0625 C 70.261719 62.546875 70.261719 61.863281 69.617188 61.445312 C 68.96875 61.007812 68.191406 61.273438 67.945312 61.996094 C 67.792969 62.414062 67.828125 62.585938 68.210938 62.984375 C 68.761719 63.554688 68.96875 63.574219 69.617188 63.0625 Z M 74.480469 63.269531 C 75.390625 62.777344 75.390625 61.75 74.5 61.273438 C 74.023438 61.046875 73.910156 61.046875 73.566406 61.292969 C 72.789062 61.824219 72.714844 62.226562 73.265625 62.871094 C 73.796875 63.515625 73.949219 63.554688 74.480469 63.269531 Z M 52.382812 59.050781 C 52.953125 58.519531 52.933594 58.121094 52.34375 57.570312 C 51.945312 57.191406 51.773438 57.152344 51.355469 57.304688 C 50.636719 57.550781 50.367188 58.328125 50.804688 58.976562 C 51.1875 59.585938 51.792969 59.601562 52.382812 59.050781 Z M 123.9375 58.863281 L 124.335938 58.328125 L 123.9375 57.816406 C 123.460938 57.171875 123.042969 57.074219 122.472656 57.457031 C 121.847656 57.855469 121.753906 58.425781 122.207031 58.996094 C 122.703125 59.621094 123.425781 59.566406 123.9375 58.863281 Z M 123.9375 58.863281 "/>
<path style=" stroke:none;fill-rule:nonzero;fill:rgb(79.215686%,14.509804%,38.431373%);fill-opacity:1;" d="M 83.296875 79.019531 C 82.953125 78.640625 82.933594 78.335938 82.992188 73.566406 L 83.03125 68.496094 L 83.601562 67.980469 C 84.074219 67.546875 84.359375 67.449219 85.121094 67.449219 C 85.652344 67.449219 86.375 67.5625 86.734375 67.714844 C 87.722656 68.132812 87.800781 68.703125 87.742188 74.386719 L 87.683594 79.324219 L 85.671875 79.382812 C 83.828125 79.421875 83.636719 79.402344 83.296875 79.019531 Z M 83.296875 79.019531 "/>
<path style=" stroke:none;fill-rule:nonzero;fill:rgb(79.215686%,14.509804%,38.431373%);fill-opacity:1;" d="M 120.765625 79.117188 C 120.59375 78.660156 120.648438 69.9375 120.820312 68.988281 C 120.914062 68.515625 121.144531 68.019531 121.335938 67.886719 C 122.152344 67.296875 124.261719 67.355469 125.058594 68.019531 C 125.496094 68.363281 125.496094 68.382812 125.496094 73.492188 C 125.496094 79.820312 125.664062 79.421875 122.835938 79.421875 C 121.21875 79.421875 120.859375 79.363281 120.765625 79.117188 Z M 120.765625 79.117188 "/>
<path style=" stroke:none;fill-rule:nonzero;fill:rgb(100%,99.607843%,100%);fill-opacity:1;" d="M 84.132812 95.988281 C 83.941406 95.949219 83.789062 95.816406 83.789062 95.703125 C 83.789062 95.550781 84.035156 95.492188 84.53125 95.53125 C 85.101562 95.589844 85.367188 95.511719 85.671875 95.210938 C 86.144531 94.734375 86.261719 94.714844 86.261719 95.074219 C 86.261719 95.609375 84.949219 96.179688 84.132812 95.988281 Z M 84.132812 95.988281 "/>
<path style=" stroke:none;fill-rule:nonzero;fill:rgb(100%,99.607843%,100%);fill-opacity:1;" d="M 72.199219 95.476562 C 72.199219 95.171875 72.3125 95 72.484375 95 C 72.636719 95 72.769531 95.132812 72.769531 95.285156 C 72.769531 95.4375 72.863281 95.570312 72.960938 95.570312 C 73.074219 95.570312 73.148438 95.664062 73.148438 95.761719 C 73.148438 95.875 72.941406 95.949219 72.675781 95.949219 C 72.296875 95.949219 72.199219 95.855469 72.199219 95.476562 Z M 72.199219 95.476562 "/>
<path style=" stroke:none;fill-rule:nonzero;fill:rgb(100%,99.607843%,100%);fill-opacity:1;" d="M 77.613281 95.777344 C 77.046875 95.53125 76.589844 94.941406 76.457031 94.277344 C 76.359375 93.804688 76.398438 93.671875 76.628906 93.671875 C 76.796875 93.671875 76.949219 93.917969 77.027344 94.316406 C 77.234375 95.417969 78.601562 95.949219 79.570312 95.265625 C 79.953125 95.019531 79.988281 95.019531 79.988281 95.265625 C 79.988281 95.855469 78.566406 96.160156 77.613281 95.777344 Z M 77.613281 95.777344 "/>
<path style=" stroke:none;fill-rule:nonzero;fill:rgb(100%,99.607843%,100%);fill-opacity:1;" d="M 87.96875 94.429688 C 87.96875 93.59375 88.007812 92.910156 88.066406 92.910156 C 88.121094 92.910156 88.351562 93.101562 88.558594 93.308594 C 88.9375 93.6875 88.9375 93.746094 88.652344 93.898438 C 88.253906 94.125 88.234375 95.34375 88.636719 95.492188 C 89.089844 95.664062 88.957031 95.949219 88.445312 95.949219 C 87.96875 95.949219 87.96875 95.929688 87.96875 94.429688 Z M 87.96875 94.429688 "/>
<path style=" stroke:none;fill-rule:nonzero;fill:rgb(100%,99.607843%,100%);fill-opacity:1;" d="M 80.332031 93.574219 C 80.199219 92.53125 79.78125 92.015625 78.925781 91.847656 C 78.164062 91.714844 78.070312 91.390625 78.773438 91.390625 C 79.953125 91.390625 81.074219 92.699219 80.902344 93.898438 C 80.789062 94.675781 80.425781 94.46875 80.332031 93.574219 Z M 80.332031 93.574219 "/>
<path style=" stroke:none;fill-rule:nonzero;fill:rgb(100%,99.607843%,100%);fill-opacity:1;" d="M 76.761719 92.339844 C 76.761719 92.054688 77.976562 91.351562 78.050781 91.578125 C 78.128906 91.808594 77.347656 92.511719 77.007812 92.53125 C 76.875 92.53125 76.761719 92.433594 76.761719 92.339844 Z M 76.761719 92.339844 "/>
<path style=" stroke:none;fill-rule:nonzero;fill:rgb(100%,99.607843%,100%);fill-opacity:1;" d="M 67.449219 91.863281 C 67.449219 91.410156 67.488281 91.390625 68.683594 91.390625 C 69.652344 91.390625 69.921875 91.445312 69.921875 91.675781 C 69.921875 91.902344 69.671875 91.960938 68.875 91.960938 C 68.304688 91.960938 67.828125 92.054688 67.828125 92.148438 C 67.828125 92.265625 67.753906 92.339844 67.640625 92.339844 C 67.546875 92.339844 67.449219 92.132812 67.449219 91.863281 Z M 67.449219 91.863281 "/>
<path style=" stroke:none;fill-rule:nonzero;fill:rgb(100%,99.607843%,100%);fill-opacity:1;" d="M 88.007812 91.921875 C 88.066406 91.523438 88.179688 91.484375 89.375 91.429688 C 90.097656 91.390625 90.820312 91.429688 90.992188 91.484375 C 91.578125 91.714844 90.761719 91.960938 89.605469 91.921875 C 88.863281 91.902344 88.445312 91.980469 88.386719 92.113281 C 88.253906 92.511719 87.949219 92.359375 88.007812 91.921875 Z M 88.007812 91.921875 "/>
<path style=" stroke:none;fill-rule:nonzero;fill:rgb(100%,99.607843%,100%);fill-opacity:1;" d="M 83.410156 91.863281 C 83.410156 91.617188 83.980469 91.390625 84.605469 91.390625 C 85.214844 91.390625 84.929688 91.714844 84.171875 91.921875 C 83.582031 92.074219 83.410156 92.054688 83.410156 91.863281 Z M 83.410156 91.863281 "/>
<path style=" stroke:none;fill-rule:nonzero;fill:rgb(100%,99.607843%,100%);fill-opacity:1;" d="M 108.660156 86.277344 C 108.621094 86.164062 108.167969 86.050781 107.652344 86.03125 C 106.816406 86.011719 106.703125 85.957031 106.496094 85.425781 C 106.324219 85.023438 106.304688 84.796875 106.4375 84.722656 C 106.550781 84.644531 106.609375 84.378906 106.550781 84.09375 C 106.4375 83.542969 106.761719 83.164062 107.597656 82.859375 C 107.921875 82.726562 108.109375 82.726562 108.109375 82.839844 C 108.109375 82.953125 108.300781 82.992188 108.546875 82.933594 C 109.496094 82.6875 110.3125 84.339844 109.78125 85.425781 C 109.496094 86.011719 108.757812 86.582031 108.660156 86.277344 Z M 108.660156 86.277344 "/>
<path style=" stroke:none;fill-rule:nonzero;fill:rgb(100%,99.607843%,100%);fill-opacity:1;" d="M 111.929688 85.859375 C 111.167969 85.121094 111.132812 84.246094 111.816406 83.449219 C 112.707031 82.382812 114.210938 82.554688 114.855469 83.789062 C 115.214844 84.472656 115.214844 84.625 114.855469 85.40625 C 114.285156 86.582031 112.859375 86.8125 111.929688 85.859375 Z M 111.929688 85.859375 "/>
<path style=" stroke:none;fill-rule:nonzero;fill:rgb(100%,99.607843%,100%);fill-opacity:1;" d="M 33.039062 85.859375 C 32.488281 85.308594 32.375 84.226562 32.8125 83.636719 C 33.609375 82.574219 34.65625 82.421875 35.625 83.277344 C 36.328125 83.886719 36.402344 84.703125 35.851562 85.386719 C 35.265625 86.128906 33.574219 86.394531 33.039062 85.859375 Z M 33.039062 85.859375 "/>
<path style=" stroke:none;fill-rule:nonzero;fill:rgb(100%,99.607843%,100%);fill-opacity:1;" d="M 84.035156 85.9375 C 83.316406 85.878906 83.03125 85.785156 83.03125 85.574219 C 83.03125 85.441406 82.953125 85.308594 82.839844 85.308594 C 82.746094 85.308594 82.648438 85.0625 82.648438 84.738281 C 82.648438 84.359375 82.554688 84.171875 82.363281 84.171875 C 82.214844 84.171875 82.078125 84.09375 82.078125 83.980469 C 82.078125 83.617188 82.839844 83.410156 84.113281 83.410156 C 85.976562 83.410156 86.8125 83.238281 87.039062 82.800781 C 87.285156 82.328125 87.113281 82.136719 86.261719 81.984375 C 85.898438 81.929688 85.5 81.757812 85.386719 81.605469 C 85.273438 81.453125 85.082031 81.320312 84.96875 81.320312 C 84.835938 81.320312 84.757812 80.863281 84.757812 80.085938 L 84.777344 78.867188 L 85.9375 78.8125 L 87.113281 78.753906 L 87.152344 74.289062 C 87.210938 69.21875 87.113281 68.683594 86.144531 68.285156 C 85.234375 67.90625 84.816406 67.964844 84.171875 68.53125 L 83.601562 69.066406 L 83.582031 73.683594 L 83.542969 78.28125 L 83.105469 78.28125 C 82.726562 78.28125 82.648438 78.375 82.648438 78.867188 C 82.648438 79.535156 82.023438 80.238281 81.527344 80.140625 C 81.359375 80.105469 81.074219 79.78125 80.902344 79.421875 C 80.597656 78.832031 80.558594 78.128906 80.558594 73.699219 C 80.558594 68.152344 80.597656 67.867188 81.699219 66.632812 C 82.933594 65.207031 85.574219 64.695312 87.398438 65.492188 C 88.160156 65.835938 89.660156 67.222656 89.679688 67.601562 C 89.699219 67.679688 89.738281 69.730469 89.792969 72.160156 C 89.90625 77.121094 89.8125 77.710938 88.902344 77.710938 C 88.40625 77.710938 88.160156 77.996094 88.160156 78.585938 C 88.160156 78.945312 88.996094 78.925781 89.300781 78.566406 C 89.605469 78.203125 90.058594 78.203125 90.058594 78.546875 C 90.058594 78.925781 90.382812 79.003906 91.257812 78.832031 C 92.699219 78.585938 92.605469 79.136719 92.71875 69.007812 C 92.816406 60.171875 92.835938 59.925781 93.234375 59.050781 C 93.613281 58.214844 93.707031 58.140625 94.316406 58.140625 C 94.773438 58.140625 95 58.234375 95 58.40625 C 95 58.785156 95.476562 58.917969 95.875 58.613281 C 96.140625 58.445312 96.214844 58.160156 96.179688 57.609375 L 96.121094 56.847656 L 97.546875 56.714844 C 98.742188 56.621094 99.085938 56.65625 99.789062 56.960938 C 100.871094 57.457031 101.746094 58.40625 102.085938 59.46875 C 102.449219 60.628906 102.542969 71.175781 102.199219 73.816406 C 101.972656 75.773438 102.144531 77.292969 102.753906 78.222656 C 103.207031 78.964844 104.859375 79.039062 105.527344 78.355469 C 105.773438 78.128906 105.828125 77.558594 105.828125 75.410156 C 105.828125 72.5625 105.964844 71.933594 106.894531 70.738281 C 107.578125 69.824219 108.546875 69.425781 110.3125 69.273438 C 111.816406 69.140625 111.871094 69.140625 111.984375 69.578125 C 112.042969 69.824219 112.101562 70.242188 112.101562 70.507812 C 112.101562 71.289062 112.839844 71.667969 114 71.515625 L 114.949219 71.382812 L 115.234375 72.066406 C 115.445312 72.578125 115.519531 73.472656 115.519531 75.410156 C 115.519531 78.546875 115.632812 78.792969 117.078125 78.867188 C 117.570312 78.90625 118.007812 78.886719 118.066406 78.832031 C 118.105469 78.792969 118.179688 76.492188 118.21875 73.71875 C 118.292969 69.464844 118.351562 68.570312 118.636719 67.925781 C 119.660156 65.550781 122.664062 64.46875 125.152344 65.550781 C 126.292969 66.042969 127.355469 67.109375 127.640625 68.039062 C 127.925781 68.949219 128.058594 73.949219 127.90625 76.835938 L 127.757812 79.285156 L 127.054688 79.839844 C 126.671875 80.160156 126.40625 80.484375 126.464844 80.597656 C 126.617188 80.84375 126.027344 81.261719 124.945312 81.625 C 123.574219 82.078125 116.070312 82.078125 115.160156 81.625 C 114.761719 81.414062 114.570312 81.1875 114.644531 81.015625 C 114.703125 80.863281 114.664062 80.75 114.570312 80.75 C 114.457031 80.75 114.378906 80.445312 114.378906 80.085938 C 114.378906 79.496094 114.324219 79.421875 113.90625 79.421875 C 113.640625 79.421875 113.429688 79.515625 113.429688 79.609375 C 113.429688 80.046875 113.011719 79.761719 112.746094 79.136719 C 112.554688 78.679688 112.480469 77.710938 112.480469 75.828125 C 112.480469 73.339844 112.460938 73.132812 112.0625 72.695312 C 111.777344 72.390625 111.339844 72.160156 110.847656 72.085938 C 110.199219 71.992188 109.992188 72.046875 109.496094 72.464844 L 108.90625 72.960938 L 108.851562 75.867188 C 108.773438 79.058594 108.585938 79.628906 107.578125 80.007812 C 106.53125 80.390625 106.476562 80.425781 106.933594 80.503906 C 108.070312 80.710938 106.628906 81.511719 105.109375 81.511719 C 104.367188 81.511719 103.929688 81.585938 103.890625 81.738281 C 103.816406 81.929688 103.550781 81.890625 102.695312 81.625 C 101.175781 81.148438 99.941406 79.875 99.941406 78.792969 C 99.941406 78.527344 99.808594 78.28125 99.65625 78.203125 C 99.40625 78.109375 99.371094 76.929688 99.371094 69.179688 L 99.371094 60.230469 L 98.855469 59.90625 C 98.554688 59.71875 97.984375 59.566406 97.507812 59.566406 C 96.824219 59.566406 96.597656 59.660156 96.214844 60.097656 L 95.761719 60.628906 L 95.761719 78.148438 L 95.171875 79.363281 C 94.410156 80.921875 93.519531 81.566406 91.828125 81.777344 C 90.460938 81.945312 89.773438 82.402344 89.640625 83.238281 C 89.585938 83.675781 89.507812 83.695312 88.425781 83.65625 L 87.246094 83.636719 L 87.152344 84.304688 C 87.097656 84.664062 86.925781 85.214844 86.792969 85.519531 C 86.527344 86.109375 86.582031 86.109375 84.035156 85.9375 Z M 124.527344 78.488281 C 124.792969 78.183594 124.867188 77.632812 124.925781 75.296875 C 124.964844 73.28125 125.078125 72.257812 125.285156 71.742188 C 125.53125 71.15625 125.53125 71.023438 125.324219 70.945312 C 125.171875 70.890625 125 70.414062 124.925781 69.863281 C 124.753906 68.664062 124.601562 68.457031 123.691406 68.210938 C 122.855469 67.980469 121.886719 68.246094 121.601562 68.78125 C 121.085938 69.75 120.933594 76.550781 121.371094 78.71875 C 121.390625 78.792969 122.035156 78.851562 122.796875 78.851562 C 123.9375 78.851562 124.261719 78.773438 124.527344 78.488281 Z M 124.527344 78.488281 "/>
<path style=" stroke:none;fill-rule:nonzero;fill:rgb(100%,99.607843%,100%);fill-opacity:1;" d="M 57.285156 81.871094 C 56.164062 81.605469 55.480469 81.261719 55.480469 80.960938 C 55.480469 80.824219 55.367188 80.75 55.195312 80.824219 C 54.929688 80.921875 54.265625 80.21875 53.789062 79.269531 C 53.636719 79.003906 53.542969 77.160156 53.484375 73.96875 C 53.410156 69.101562 53.410156 69.085938 52.953125 68.628906 C 52.34375 68.019531 50.21875 67.792969 49.742188 68.285156 C 49.570312 68.457031 49.285156 68.589844 49.132812 68.589844 C 48.601562 68.589844 48.8125 68.96875 49.417969 69.101562 L 50.007812 69.21875 L 49.933594 73.984375 L 49.875 78.753906 L 49.363281 79.628906 C 48.8125 80.558594 48.261719 81.128906 48.261719 80.769531 C 48.261719 80.371094 47.691406 80.558594 47.59375 80.996094 C 47.460938 81.492188 46.589844 81.890625 45.636719 81.890625 C 45.050781 81.890625 45.03125 81.851562 45.03125 81.128906 C 45.03125 80.710938 44.953125 80.371094 44.839844 80.371094 C 44.746094 80.371094 44.648438 80.675781 44.648438 81.035156 C 44.648438 81.644531 44.59375 81.699219 44.097656 81.699219 C 43.8125 81.699219 43.300781 81.605469 42.976562 81.492188 C 42.503906 81.339844 42.371094 81.148438 42.273438 80.597656 C 42.160156 79.894531 41.972656 79.742188 40.832031 79.363281 C 40.355469 79.210938 40.28125 78.394531 40.28125 73.644531 C 40.28125 68.742188 40.242188 68.609375 39.046875 68.210938 C 38.53125 68.039062 38.210938 68.039062 37.695312 68.210938 C 36.574219 68.589844 36.480469 69.046875 36.480469 74.234375 L 36.480469 78.753906 L 35.949219 79.703125 C 35.167969 81.109375 33.992188 81.777344 32.089844 81.871094 C 30.210938 81.945312 29.011719 81.566406 28.0625 80.597656 C 27 79.496094 26.789062 78.679688 26.789062 75.335938 C 26.789062 72.445312 26.789062 72.429688 26.296875 71.992188 C 26.03125 71.742188 25.632812 71.382812 25.441406 71.210938 C 24.945312 70.757812 24.964844 70.109375 25.460938 70.109375 C 25.707031 70.109375 25.839844 69.976562 25.839844 69.730469 C 25.839844 69.3125 25.933594 69.253906 26.941406 69.085938 C 27.4375 69.007812 27.664062 69.085938 28.175781 69.539062 C 28.5 69.84375 28.671875 70.109375 28.558594 70.109375 C 28.425781 70.109375 28.308594 70.242188 28.308594 70.414062 C 28.308594 70.621094 28.425781 70.660156 28.671875 70.585938 C 28.957031 70.488281 29.128906 70.621094 29.394531 71.097656 C 29.660156 71.59375 29.734375 72.371094 29.828125 74.972656 C 29.90625 77.328125 30 78.316406 30.191406 78.527344 C 30.382812 78.773438 30.761719 78.851562 31.636719 78.851562 C 33.574219 78.851562 33.535156 78.964844 33.574219 73.246094 C 33.609375 67.792969 33.667969 67.527344 35.1875 66.234375 C 36.117188 65.417969 36.917969 65.171875 38.492188 65.171875 C 40.261719 65.171875 41.800781 65.949219 42.597656 67.222656 C 42.976562 67.828125 42.976562 67.847656 42.636719 68.113281 C 42.425781 68.265625 42.199219 68.398438 42.085938 68.417969 C 41.988281 68.4375 42.199219 68.496094 42.558594 68.570312 L 43.226562 68.683594 L 43.320312 73.339844 C 43.378906 76.304688 43.492188 78.128906 43.625 78.355469 C 43.777344 78.601562 44.15625 78.773438 44.859375 78.867188 C 45.789062 78.984375 45.921875 78.964844 46.359375 78.546875 L 46.835938 78.089844 L 46.929688 73.09375 C 47.007812 68.933594 47.082031 68.019531 47.347656 67.546875 C 48.03125 66.289062 49.550781 65.320312 51.167969 65.09375 C 51.945312 64.980469 52.136719 65.019531 52.363281 65.304688 C 52.554688 65.550781 52.667969 65.589844 52.78125 65.417969 C 52.878906 65.246094 53.144531 65.285156 53.769531 65.570312 C 54.910156 66.082031 55.441406 66.59375 55.972656 67.734375 C 56.410156 68.648438 56.429688 68.855469 56.429688 73.207031 C 56.429688 78.753906 56.46875 78.851562 58.253906 78.851562 C 59.984375 78.851562 59.925781 79.019531 60.039062 73.398438 C 60.136719 68.894531 60.171875 68.417969 60.554688 67.601562 C 60.988281 66.652344 62.074219 65.722656 63.214844 65.339844 C 64.105469 65.054688 66.425781 65.207031 67.222656 65.625 C 67.925781 65.988281 68.019531 66.308594 67.410156 66.308594 C 66.785156 66.308594 66.558594 66.519531 66.40625 67.222656 C 66.308594 67.714844 66.195312 67.828125 65.777344 67.828125 C 64.980469 67.828125 63.800781 68.324219 63.421875 68.78125 C 63.117188 69.160156 63.078125 69.652344 63.078125 73.664062 C 63.078125 76.378906 63.003906 78.414062 62.871094 78.832031 C 62.71875 79.34375 62.433594 79.6875 61.84375 80.066406 C 61.371094 80.351562 61.046875 80.691406 61.105469 80.824219 C 61.238281 81.1875 60.800781 81.472656 59.566406 81.796875 C 58.3125 82.117188 58.347656 82.117188 57.285156 81.871094 Z M 57.285156 81.871094 "/>
<path style=" stroke:none;fill-rule:nonzero;fill:rgb(100%,99.607843%,100%);fill-opacity:1;" d="M 70.070312 81.433594 C 69.84375 81.261719 69.730469 80.921875 69.730469 80.390625 L 69.730469 79.609375 L 70.488281 79.609375 C 70.90625 79.609375 71.25 79.703125 71.25 79.800781 C 71.25 79.914062 71.496094 79.988281 71.800781 79.988281 C 72.105469 79.988281 72.410156 80.105469 72.445312 80.238281 C 72.523438 80.40625 72.5625 80.40625 72.5625 80.21875 C 72.578125 80.085938 72.410156 79.839844 72.199219 79.667969 C 71.6875 79.230469 71.726562 78.90625 72.296875 78.773438 C 72.996094 78.601562 73.132812 78.03125 73.148438 75.011719 C 73.167969 72.523438 73.226562 72.21875 73.664062 71.289062 C 74.6875 69.101562 77.007812 68.417969 77.691406 70.089844 C 77.976562 70.757812 77.785156 71.210938 76.835938 72.125 L 76.191406 72.714844 L 76.191406 75.316406 C 76.191406 76.761719 76.09375 78.300781 75.980469 78.753906 C 75.773438 79.554688 74.5 81.300781 74.480469 80.808594 C 74.480469 80.40625 74.101562 80.523438 74.101562 80.902344 C 74.101562 81.109375 73.890625 81.359375 73.625 81.472656 C 72.941406 81.777344 70.488281 81.757812 70.070312 81.433594 Z M 70.070312 81.433594 "/>
<path style=" stroke:none;fill-rule:nonzero;fill:rgb(100%,99.607843%,100%);fill-opacity:1;" d="M 66.976562 79.34375 C 66.824219 78.984375 66.691406 78.242188 66.691406 77.710938 C 66.691406 76.777344 66.710938 76.761719 67.261719 76.761719 C 67.8125 76.761719 67.828125 76.796875 67.828125 77.613281 C 67.828125 78.089844 67.925781 78.46875 68.019531 78.46875 C 68.132812 78.46875 68.210938 78.773438 68.210938 79.136719 C 68.210938 79.496094 68.132812 79.800781 68.039062 79.800781 C 67.945312 79.800781 67.714844 79.855469 67.5625 79.914062 C 67.335938 79.988281 67.183594 79.839844 66.976562 79.34375 Z M 66.976562 79.34375 "/>
<path style=" stroke:none;fill-rule:nonzero;fill:rgb(100%,99.607843%,100%);fill-opacity:1;" d="M 66.652344 70.984375 C 66.59375 69.445312 66.519531 68.914062 66.253906 68.648438 C 65.777344 68.097656 65.855469 67.980469 66.652344 68.058594 C 67.261719 68.113281 67.355469 68.191406 67.410156 68.648438 C 67.449219 68.933594 67.5625 69.160156 67.660156 69.160156 C 67.753906 69.160156 67.828125 70.015625 67.828125 71.058594 L 67.828125 72.960938 L 66.726562 72.960938 Z M 66.652344 70.984375 "/>
<path style=" stroke:none;fill-rule:nonzero;fill:rgb(100%,99.607843%,100%);fill-opacity:1;" d="M 67.640625 67.734375 C 67.640625 67.109375 67.679688 67.070312 68.304688 67.070312 C 68.933594 67.070312 68.96875 67.109375 68.96875 67.734375 C 68.96875 68.363281 68.933594 68.398438 68.304688 68.398438 C 67.679688 68.398438 67.640625 68.363281 67.640625 67.734375 Z M 67.640625 67.734375 "/>
<path style=" stroke:none;fill-rule:nonzero;fill:rgb(100%,99.607843%,100%);fill-opacity:1;" d="M 68.398438 64.085938 C 66.917969 63.535156 66.691406 61.390625 68.039062 60.703125 C 68.761719 60.324219 69.332031 60.34375 70.054688 60.800781 C 71.097656 61.425781 71.117188 63.042969 70.070312 63.726562 C 69.539062 64.066406 68.78125 64.238281 68.398438 64.085938 Z M 68.398438 64.085938 "/>
<path style=" stroke:none;fill-rule:nonzero;fill:rgb(100%,99.607843%,100%);fill-opacity:1;" d="M 73.585938 64.085938 C 72.921875 63.953125 72.199219 62.964844 72.199219 62.1875 C 72.199219 61.3125 73.054688 60.421875 73.910156 60.421875 C 74.6875 60.421875 75.621094 60.914062 75.621094 61.332031 C 75.621094 61.523438 75.714844 61.769531 75.828125 61.882812 C 75.980469 62.035156 75.980469 62.28125 75.808594 62.777344 C 75.507812 63.746094 74.574219 64.277344 73.585938 64.085938 Z M 73.585938 64.085938 "/>
<path style=" stroke:none;fill-rule:nonzero;fill:rgb(100%,99.607843%,100%);fill-opacity:1;" d="M 53.863281 63.574219 L 52.726562 63.363281 L 52.667969 62.28125 C 52.609375 61.371094 52.667969 61.140625 53.046875 60.800781 C 53.675781 60.210938 55.003906 60.363281 55.632812 61.105469 C 55.917969 61.425781 56.011719 61.675781 55.878906 61.710938 C 55.613281 61.808594 55.59375 62.644531 55.878906 62.738281 C 56.089844 62.8125 55.367188 63.859375 55.136719 63.820312 C 55.0625 63.800781 54.492188 63.707031 53.863281 63.574219 Z M 53.863281 63.574219 "/>
<path style=" stroke:none;fill-rule:nonzero;fill:rgb(100%,99.607843%,100%);fill-opacity:1;" d="M 123.308594 60.003906 C 123.308594 59.90625 123.007812 59.851562 122.625 59.886719 C 121.484375 59.984375 120.898438 58.824219 121.410156 57.492188 C 121.789062 56.46875 123.574219 56.144531 124.316406 56.960938 C 124.714844 57.398438 125.039062 58.292969 124.828125 58.367188 C 124.734375 58.40625 124.640625 58.652344 124.601562 58.917969 C 124.5625 59.203125 124.429688 59.566406 124.296875 59.71875 C 124.011719 60.058594 123.308594 60.269531 123.308594 60.003906 Z M 123.308594 60.003906 "/>
<path style=" stroke:none;fill-rule:nonzero;fill:rgb(100%,98.039216%,99.607843%);fill-opacity:1;" d="M 62.832031 93.898438 C 61.84375 91.410156 61.824219 91.390625 62.207031 91.390625 C 62.359375 91.390625 62.699219 92.054688 63.0625 93.0625 C 63.78125 95.058594 63.972656 95.398438 64.105469 95 C 64.523438 93.632812 65.265625 91.808594 65.472656 91.597656 C 66.042969 90.992188 65.929688 91.65625 65.152344 93.613281 C 64.335938 95.664062 64.105469 96.140625 63.859375 96.140625 C 63.78125 96.140625 63.308594 95.132812 62.832031 93.898438 Z M 62.832031 93.898438 "/>
<path style=" stroke:none;fill-rule:nonzero;fill:rgb(100%,98.039216%,99.607843%);fill-opacity:1;" d="M 83.886719 95.910156 C 83.050781 95.609375 82.667969 95.226562 82.441406 94.390625 C 82.0625 92.96875 82.914062 91.636719 84.304688 91.445312 C 85.15625 91.332031 86.261719 91.789062 86.261719 92.246094 C 86.261719 92.625 86.089844 92.605469 85.632812 92.207031 C 85.214844 91.828125 83.941406 91.789062 83.523438 92.148438 C 83.371094 92.265625 83.144531 92.664062 83.03125 93.023438 C 82.765625 93.820312 83.066406 94.886719 83.65625 95.265625 C 84.113281 95.550781 85.558594 95.816406 85.441406 95.609375 C 85.40625 95.53125 85.519531 95.324219 85.710938 95.152344 C 85.992188 94.886719 86.050781 94.886719 86.144531 95.113281 C 86.296875 95.53125 85.441406 95.988281 84.835938 95.835938 C 84.453125 95.742188 84.339844 95.761719 84.4375 95.929688 C 84.511719 96.046875 84.550781 96.140625 84.511719 96.121094 C 84.472656 96.121094 84.207031 96.027344 83.886719 95.910156 Z M 83.886719 95.910156 "/>
<path style=" stroke:none;fill-rule:nonzero;fill:rgb(100%,98.039216%,99.607843%);fill-opacity:1;" d="M 67.375 95.777344 C 67.203125 95.53125 67.261719 91.863281 67.429688 91.597656 C 67.601562 91.3125 70.394531 91.390625 70.394531 91.675781 C 70.394531 91.789062 69.804688 91.882812 69.101562 91.921875 L 67.8125 91.980469 L 67.867188 92.683594 L 67.925781 93.386719 L 68.855469 93.402344 C 70.167969 93.421875 70.222656 93.820312 68.933594 93.898438 L 67.925781 93.953125 L 67.925781 94.714844 C 67.925781 95.550781 67.792969 95.492188 69.785156 95.550781 C 70.339844 95.570312 70.660156 95.644531 70.585938 95.761719 C 70.433594 95.988281 67.507812 96.007812 67.375 95.777344 Z M 67.375 95.777344 "/>
<path style=" stroke:none;fill-rule:nonzero;fill:rgb(100%,98.039216%,99.607843%);fill-opacity:1;" d="M 72.238281 93.765625 C 72.3125 90.933594 72.65625 90.761719 72.730469 93.535156 L 72.789062 95.609375 L 73.53125 95.476562 C 74.328125 95.34375 75.050781 95.476562 75.050781 95.777344 C 75.050781 95.875 74.402344 95.949219 73.625 95.949219 L 72.179688 95.949219 Z M 72.238281 93.765625 "/>
<path style=" stroke:none;fill-rule:nonzero;fill:rgb(100%,98.039216%,99.607843%);fill-opacity:1;" d="M 78.015625 95.722656 C 78.089844 95.609375 78.433594 95.570312 78.8125 95.628906 C 79.171875 95.703125 79.421875 95.703125 79.363281 95.644531 C 79.324219 95.589844 79.535156 95.304688 79.839844 94.980469 C 80.351562 94.46875 80.40625 94.316406 80.3125 93.554688 C 80.273438 93.082031 80.085938 92.550781 79.914062 92.359375 C 79.742188 92.167969 79.667969 91.960938 79.742188 91.863281 C 79.839844 91.789062 79.6875 91.789062 79.421875 91.847656 C 79.039062 91.960938 79.003906 91.941406 79.230469 91.769531 C 79.457031 91.597656 79.421875 91.578125 79.003906 91.65625 C 77.367188 92.015625 76.855469 92.625 77.007812 93.992188 C 77.0625 94.601562 77.234375 94.960938 77.519531 95.191406 C 77.824219 95.417969 77.882812 95.550781 77.730469 95.664062 C 77.597656 95.742188 77.292969 95.628906 77.027344 95.359375 C 76.570312 94.941406 76.378906 94.488281 76.761719 94.714844 C 76.875 94.773438 76.894531 94.695312 76.835938 94.542969 C 76.777344 94.371094 76.644531 94.296875 76.550781 94.355469 C 76.210938 94.5625 76.378906 92.984375 76.777344 92.359375 C 76.988281 92.015625 77.214844 91.769531 77.273438 91.828125 C 77.328125 91.902344 77.5 91.828125 77.652344 91.675781 C 78.050781 91.277344 79.171875 91.332031 79.914062 91.789062 C 81.207031 92.566406 81.226562 94.789062 79.972656 95.550781 C 79.34375 95.929688 77.804688 96.0625 78.015625 95.722656 Z M 80.558594 92.96875 C 80.351562 92.644531 80.351562 92.644531 80.445312 92.96875 C 80.503906 93.15625 80.578125 93.460938 80.578125 93.632812 C 80.597656 93.917969 80.617188 93.917969 80.691406 93.632812 C 80.730469 93.441406 80.675781 93.15625 80.558594 92.96875 Z M 80.558594 92.96875 "/>
<path style=" stroke:none;fill-rule:nonzero;fill:rgb(100%,98.039216%,99.607843%);fill-opacity:1;" d="M 88.007812 93.726562 L 88.066406 91.484375 L 89.015625 91.464844 C 89.699219 91.445312 89.757812 91.464844 89.261719 91.523438 C 88.503906 91.597656 88.253906 91.996094 88.386719 92.929688 C 88.445312 93.328125 88.558594 93.386719 89.300781 93.421875 C 89.773438 93.441406 90.289062 93.460938 90.441406 93.460938 C 91.105469 93.5 90.269531 93.820312 89.355469 93.898438 C 88.597656 93.9375 88.332031 93.878906 88.273438 93.671875 C 88.234375 93.519531 88.21875 93.839844 88.21875 94.371094 C 88.234375 94.925781 88.351562 95.398438 88.445312 95.417969 C 88.558594 95.417969 89.1875 95.457031 89.851562 95.457031 C 90.648438 95.476562 91.105469 95.550781 91.144531 95.722656 C 91.21875 95.894531 90.820312 95.949219 89.605469 95.949219 L 87.949219 95.949219 Z M 88.007812 93.726562 "/>
<path style=" stroke:none;fill-rule:nonzero;fill:rgb(100%,98.039216%,99.607843%);fill-opacity:1;" d="M 88.976562 91.828125 C 89.148438 91.789062 89.453125 91.789062 89.640625 91.828125 C 89.8125 91.882812 89.660156 91.921875 89.300781 91.921875 C 88.9375 91.921875 88.785156 91.882812 88.976562 91.828125 Z M 88.976562 91.828125 "/>
<path style=" stroke:none;fill-rule:nonzero;fill:rgb(100%,98.039216%,99.607843%);fill-opacity:1;" d="M 28.195312 86.109375 C 26.921875 85.082031 27.285156 83.21875 28.84375 82.746094 C 29.449219 82.574219 30.496094 82.972656 30.855469 83.503906 C 31.671875 84.757812 30.78125 86.449219 29.316406 86.449219 C 28.917969 86.449219 28.40625 86.296875 28.195312 86.109375 Z M 28.195312 86.109375 "/>
<path style=" stroke:none;fill-rule:nonzero;fill:rgb(100%,98.039216%,99.607843%);fill-opacity:1;" d="M 33.441406 86.203125 C 32.925781 85.824219 32.488281 85.0625 32.488281 84.605469 C 32.488281 83.867188 33.25 84.132812 33.382812 84.910156 C 33.496094 85.726562 34.863281 85.613281 35.339844 84.738281 C 35.566406 84.320312 35.414062 83.789062 35.054688 83.789062 C 34.941406 83.789062 34.675781 83.617188 34.484375 83.410156 C 34.277344 83.183594 34.238281 83.03125 34.371094 83.03125 C 34.503906 83.03125 34.542969 82.953125 34.484375 82.839844 C 34.277344 82.515625 34.65625 82.632812 35.359375 83.125 C 36.953125 84.1875 36.195312 86.46875 34.257812 86.449219 C 33.972656 86.449219 33.59375 86.335938 33.441406 86.203125 Z M 33.441406 86.203125 "/>
<path style=" stroke:none;fill-rule:nonzero;fill:rgb(100%,98.039216%,99.607843%);fill-opacity:1;" d="M 81.945312 86.03125 C 81.320312 85.367188 81.300781 84.570312 81.871094 84 C 82.136719 83.734375 82.632812 83.601562 83.734375 83.503906 C 84.550781 83.449219 85.519531 83.351562 85.878906 83.335938 C 86.714844 83.238281 87.96875 82.726562 87.96875 82.480469 C 87.96875 82.363281 88.101562 82.269531 88.253906 82.269531 C 88.425781 82.269531 88.539062 82.460938 88.539062 82.765625 C 88.539062 83.410156 88.996094 83.257812 89.070312 82.59375 C 89.128906 82.175781 89.054688 82.078125 88.75 82.078125 C 88.3125 82.078125 88.199219 81.605469 88.597656 81.453125 C 88.710938 81.394531 88.636719 81.339844 88.386719 81.339844 C 87.722656 81.320312 87.039062 80.558594 87.683594 80.558594 C 87.835938 80.558594 87.96875 80.691406 87.96875 80.863281 C 87.96875 81.167969 88.21875 81.167969 89.394531 80.808594 C 89.738281 80.710938 89.738281 80.730469 89.507812 81.015625 C 89.203125 81.378906 89.242188 81.414062 89.792969 81.585938 C 90.058594 81.660156 90.289062 81.605469 90.441406 81.414062 C 90.609375 81.207031 90.972656 81.128906 91.695312 81.148438 C 92.949219 81.207031 93.554688 80.75 94.429688 79.097656 C 94.773438 78.433594 95.152344 77.898438 95.304688 77.898438 C 95.457031 77.898438 95.570312 77.824219 95.570312 77.710938 C 95.570312 77.613281 95.492188 77.519531 95.378906 77.519531 C 95.285156 77.519531 95.191406 77.179688 95.191406 76.761719 C 95.191406 76.210938 95.265625 76 95.476562 76 C 95.703125 76 95.761719 76.246094 95.761719 77.101562 C 95.761719 78.300781 95.210938 79.667969 94.355469 80.597656 C 93.839844 81.128906 92.054688 81.890625 91.277344 81.890625 C 90.421875 81.890625 90.058594 82.214844 90.058594 82.972656 C 90.058594 84.113281 89.28125 85.195312 88.027344 85.824219 C 87.039062 86.296875 86.695312 86.355469 84.644531 86.410156 C 82.460938 86.488281 82.347656 86.46875 81.945312 86.03125 Z M 86.203125 84.988281 C 86.316406 84.683594 86.46875 84.246094 86.546875 83.980469 C 86.660156 83.523438 86.640625 83.523438 86.375 83.867188 C 86.128906 84.171875 86.011719 84.1875 85.480469 84 C 84.738281 83.734375 83.410156 83.941406 83.257812 84.320312 C 83.199219 84.492188 83.257812 84.664062 83.371094 84.703125 C 83.503906 84.738281 83.601562 84.890625 83.601562 85.042969 C 83.601562 85.253906 83.808594 85.308594 84.453125 85.289062 C 84.910156 85.253906 85.367188 85.289062 85.425781 85.367188 C 85.691406 85.632812 85.976562 85.480469 86.203125 84.988281 Z M 86.203125 84.988281 "/>
<path style=" stroke:none;fill-rule:nonzero;fill:rgb(100%,98.039216%,99.607843%);fill-opacity:1;" d="M 107.140625 86.164062 C 106.515625 85.824219 106.113281 84.644531 106.382812 83.941406 C 106.628906 83.296875 107.921875 82.59375 108.585938 82.765625 C 108.851562 82.820312 109.058594 82.953125 109.058594 83.050781 C 109.058594 83.144531 109.175781 83.21875 109.324219 83.21875 C 109.667969 83.21875 109.820312 83.636719 109.820312 84.664062 C 109.820312 86.144531 108.488281 86.886719 107.140625 86.164062 Z M 108.546875 85.15625 C 108.507812 85.042969 108.605469 84.988281 108.757812 85.042969 C 108.925781 85.101562 109.058594 84.96875 109.136719 84.644531 C 109.289062 84.019531 109.117188 83.695312 108.773438 83.980469 C 108.605469 84.113281 108.472656 84.09375 108.300781 83.886719 C 107.996094 83.523438 107.785156 83.523438 107.40625 83.902344 C 107.007812 84.285156 107.292969 85.234375 107.785156 85.195312 C 107.957031 85.175781 108.054688 85.253906 107.996094 85.347656 C 107.921875 85.460938 108.035156 85.5 108.222656 85.460938 C 108.433594 85.425781 108.566406 85.289062 108.546875 85.15625 Z M 108.546875 85.15625 "/>
<path style=" stroke:none;fill-rule:nonzero;fill:rgb(100%,98.039216%,99.607843%);fill-opacity:1;" d="M 112.859375 86.164062 C 112.859375 86.011719 112.972656 85.878906 113.125 85.878906 C 113.257812 85.878906 113.488281 86.011719 113.621094 86.164062 C 113.828125 86.410156 113.773438 86.449219 113.355469 86.449219 C 113.050781 86.449219 112.859375 86.355469 112.859375 86.164062 Z M 112.859375 86.164062 "/>
<path style=" stroke:none;fill-rule:nonzero;fill:rgb(100%,98.039216%,99.607843%);fill-opacity:1;" d="M 114.683594 85.425781 C 114.742188 85.253906 114.703125 85.121094 114.589844 85.121094 C 114.476562 85.121094 114.378906 85.042969 114.378906 84.929688 C 114.378906 84.835938 114.511719 84.738281 114.664062 84.738281 C 114.816406 84.738281 114.949219 84.605469 114.949219 84.453125 C 114.949219 84.304688 114.816406 84.171875 114.664062 84.171875 C 114.511719 84.171875 114.378906 84.074219 114.378906 83.980469 C 114.378906 83.867188 114.074219 83.601562 113.695312 83.371094 C 113.277344 83.125 113.089844 82.914062 113.203125 82.800781 C 113.523438 82.480469 114.492188 83.125 114.929688 83.941406 C 115.179688 84.398438 115.0625 85.40625 114.742188 85.59375 C 114.644531 85.671875 114.628906 85.574219 114.683594 85.425781 Z M 114.683594 85.425781 "/>
<path style=" stroke:none;fill-rule:nonzero;fill:rgb(100%,98.039216%,99.607843%);fill-opacity:1;" d="M 111.492188 85.367188 C 111.453125 85.273438 111.398438 84.910156 111.398438 84.550781 C 111.378906 84.074219 111.398438 84.019531 111.472656 84.359375 C 111.53125 84.625 111.644531 84.929688 111.738281 85.0625 C 111.871094 85.195312 111.851562 85.308594 111.738281 85.386719 C 111.644531 85.460938 111.53125 85.441406 111.492188 85.367188 Z M 111.492188 85.367188 "/>
<path style=" stroke:none;fill-rule:nonzero;fill:rgb(100%,98.039216%,99.607843%);fill-opacity:1;" d="M 32.890625 83.617188 C 32.945312 83.46875 33.191406 83.21875 33.441406 83.050781 C 33.78125 82.820312 33.859375 82.800781 33.800781 83.011719 C 33.742188 83.164062 33.496094 83.410156 33.25 83.582031 C 32.90625 83.808594 32.832031 83.828125 32.890625 83.617188 Z M 32.890625 83.617188 "/>
<path style=" stroke:none;fill-rule:nonzero;fill:rgb(100%,98.039216%,99.607843%);fill-opacity:1;" d="M 112.101562 83.21875 C 112.367188 83.03125 112.613281 82.898438 112.652344 82.953125 C 112.765625 83.050781 112.0625 83.582031 111.816406 83.582031 C 111.71875 83.601562 111.835938 83.429688 112.101562 83.21875 Z M 112.101562 83.21875 "/>
<path style=" stroke:none;fill-rule:nonzero;fill:rgb(100%,98.039216%,99.607843%);fill-opacity:1;" d="M 57.570312 81.945312 C 55.878906 81.660156 55.003906 81.109375 54.167969 79.855469 C 53.617188 79.039062 53.332031 77.730469 53.769531 77.996094 C 53.863281 78.050781 53.902344 78.222656 53.847656 78.355469 C 53.789062 78.488281 53.882812 78.660156 54.035156 78.71875 C 54.1875 78.773438 54.265625 78.984375 54.226562 79.191406 C 54.132812 79.535156 54.644531 79.855469 55.917969 80.257812 C 56.105469 80.3125 56.222656 80.445312 56.164062 80.539062 C 56.070312 80.675781 56.695312 80.976562 56.867188 80.882812 C 56.90625 80.863281 57.152344 80.996094 57.457031 81.1875 C 57.796875 81.414062 58.046875 81.472656 58.195312 81.359375 C 58.328125 81.261719 58.804688 81.167969 59.242188 81.148438 C 60.25 81.128906 60.421875 81.035156 60.285156 80.578125 C 60.230469 80.332031 60.457031 80.046875 61.179688 79.535156 C 61.710938 79.152344 62.1875 78.71875 62.242188 78.566406 C 62.359375 78.28125 62.890625 78.164062 62.890625 78.433594 C 62.890625 79.152344 62.378906 80.066406 61.617188 80.75 C 61.140625 81.167969 60.703125 81.472656 60.648438 81.414062 C 60.589844 81.359375 60.457031 81.394531 60.34375 81.492188 C 60.136719 81.660156 59.753906 81.757812 58.519531 81.945312 C 58.253906 82.003906 57.835938 82.003906 57.570312 81.945312 Z M 57.570312 81.945312 "/>
<path style=" stroke:none;fill-rule:nonzero;fill:rgb(100%,98.039216%,99.607843%);fill-opacity:1;" d="M 84.816406 81.890625 C 83.21875 81.71875 82.136719 81.207031 81.453125 80.292969 C 80.941406 79.628906 80.808594 79.304688 81.109375 79.496094 C 81.414062 79.6875 82.078125 78.90625 82.078125 78.355469 C 82.078125 77.578125 82.363281 77.234375 82.992188 77.234375 C 83.449219 77.234375 83.5625 77.3125 83.5625 77.671875 C 83.5625 78.375 84.132812 78.851562 85.007812 78.851562 C 85.441406 78.851562 85.710938 78.925781 85.59375 79.003906 C 85.328125 79.191406 85.347656 80.75 85.613281 80.75 C 85.746094 80.75 85.898438 80.882812 85.957031 81.054688 C 86.011719 81.207031 86.144531 81.300781 86.222656 81.242188 C 86.316406 81.1875 86.355469 81.359375 86.296875 81.605469 C 86.261719 81.871094 86.203125 82.0625 86.183594 82.0625 C 86.183594 82.042969 85.558594 81.964844 84.816406 81.890625 Z M 84.816406 81.890625 "/>
<path style=" stroke:none;fill-rule:nonzero;fill:rgb(100%,98.039216%,99.607843%);fill-opacity:1;" d="M 86.640625 81.757812 C 86.640625 81.625 86.773438 81.511719 86.925781 81.511719 C 87.078125 81.511719 87.210938 81.625 87.210938 81.757812 C 87.210938 81.910156 87.078125 82.023438 86.925781 82.023438 C 86.773438 82.023438 86.640625 81.910156 86.640625 81.757812 Z M 86.640625 81.757812 "/>
<path style=" stroke:none;fill-rule:nonzero;fill:rgb(100%,98.039216%,99.607843%);fill-opacity:1;" d="M 117.285156 81.945312 C 117.457031 81.910156 117.609375 81.699219 117.609375 81.492188 C 117.609375 81.207031 117.496094 81.128906 117.003906 81.167969 C 116.660156 81.207031 116.375 81.128906 116.335938 80.996094 C 116.164062 80.523438 117.382812 80.730469 117.894531 81.242188 C 118.464844 81.8125 118.445312 81.890625 117.589844 81.964844 C 117.230469 82.003906 117.097656 81.984375 117.285156 81.945312 Z M 117.285156 81.945312 "/>
<path style=" stroke:none;fill-rule:nonzero;fill:rgb(100%,98.039216%,99.607843%);fill-opacity:1;" d="M 29.546875 81.585938 C 29.144531 81.433594 28.441406 80.941406 28.007812 80.503906 C 27 79.457031 26.789062 78.546875 26.789062 75.105469 C 26.789062 72.3125 26.921875 71.726562 27 74.195312 C 27.074219 76.628906 27.453125 79.210938 27.796875 79.554688 C 28.101562 79.855469 29.164062 80.105469 28.992188 79.820312 C 28.878906 79.648438 29.753906 79.667969 29.945312 79.855469 C 30.019531 79.933594 30.113281 80.160156 30.152344 80.371094 C 30.210938 80.75 30.078125 80.824219 29.316406 80.75 C 29.070312 80.730469 28.878906 80.808594 28.878906 80.921875 C 28.878906 81.035156 28.992188 81.074219 29.128906 81.035156 C 29.488281 80.902344 31.21875 81.394531 31.3125 81.660156 C 31.40625 81.964844 30.496094 81.929688 29.546875 81.585938 Z M 29.546875 81.585938 "/>
<path style=" stroke:none;fill-rule:nonzero;fill:rgb(100%,98.039216%,99.607843%);fill-opacity:1;" d="M 31.785156 81.660156 C 31.824219 81.527344 32.054688 81.414062 32.300781 81.414062 C 32.546875 81.414062 32.773438 81.527344 32.832031 81.660156 C 32.871094 81.8125 32.699219 81.890625 32.300781 81.890625 C 31.902344 81.890625 31.730469 81.8125 31.785156 81.660156 Z M 31.785156 81.660156 "/>
<path style=" stroke:none;fill-rule:nonzero;fill:rgb(100%,98.039216%,99.607843%);fill-opacity:1;" d="M 33.058594 81.660156 C 33.058594 81.414062 34.046875 80.464844 34.257812 80.523438 C 34.332031 80.539062 34.390625 80.464844 34.390625 80.351562 C 34.390625 80.238281 34.523438 80.027344 34.675781 79.875 C 34.828125 79.703125 34.960938 79.667969 34.960938 79.78125 C 34.960938 79.894531 35.09375 79.988281 35.246094 79.988281 C 35.398438 79.988281 35.53125 80.085938 35.53125 80.179688 C 35.53125 80.3125 35.414062 80.3125 35.148438 80.179688 C 34.921875 80.066406 34.769531 80.046875 34.769531 80.160156 C 34.769531 80.257812 34.882812 80.390625 35.015625 80.445312 C 35.167969 80.503906 35.054688 80.710938 34.675781 81.015625 C 33.992188 81.605469 33.058594 81.964844 33.058594 81.660156 Z M 33.058594 81.660156 "/>
<path style=" stroke:none;fill-rule:nonzero;fill:rgb(100%,98.039216%,99.607843%);fill-opacity:1;" d="M 43.226562 81.679688 C 42.503906 81.472656 41.117188 80.3125 40.773438 79.628906 C 40.394531 78.90625 40.183594 77.824219 40.449219 77.976562 C 40.566406 78.050781 40.660156 77.996094 40.660156 77.824219 C 40.660156 77.671875 40.585938 77.480469 40.46875 77.425781 C 40.375 77.367188 40.28125 77.195312 40.300781 77.082031 C 40.300781 76.910156 40.335938 76.929688 40.414062 77.101562 C 40.527344 77.386719 40.851562 77.214844 40.851562 76.835938 C 40.851562 76.683594 40.699219 76.570312 40.527344 76.550781 C 40.316406 76.550781 40.28125 76.492188 40.433594 76.4375 C 40.546875 76.398438 40.660156 76.171875 40.660156 75.980469 C 40.660156 75.773438 40.753906 75.65625 40.851562 75.714844 C 40.964844 75.789062 41.039062 76.417969 41.019531 77.140625 C 40.984375 78.546875 41.078125 78.851562 41.589844 78.851562 C 41.761719 78.851562 41.988281 78.90625 42.105469 79.003906 C 42.199219 79.078125 42.160156 79.003906 41.988281 78.851562 C 41.609375 78.46875 41.722656 77.710938 42.140625 77.710938 C 42.332031 77.710938 42.597656 77.882812 42.730469 78.070312 C 42.882812 78.28125 43.109375 78.394531 43.242188 78.335938 C 43.394531 78.28125 43.644531 78.375 43.796875 78.546875 C 44.230469 78.964844 45.523438 79.019531 46.304688 78.621094 C 46.605469 78.46875 46.757812 78.164062 46.855469 77.578125 C 46.988281 76.664062 47.289062 76.589844 47.574219 77.386719 C 47.785156 77.976562 47.40625 79.34375 46.96875 79.589844 C 46.777344 79.703125 46.722656 79.875 46.835938 80.105469 C 46.929688 80.351562 47.007812 80.390625 47.0625 80.238281 C 47.121094 80.105469 47.40625 79.988281 47.710938 79.988281 C 48.011719 79.988281 48.429688 79.894531 48.640625 79.761719 C 49.210938 79.402344 49.304688 79.703125 48.828125 80.390625 C 48.164062 81.320312 46.722656 81.890625 45.125 81.871094 C 44.402344 81.871094 43.527344 81.777344 43.226562 81.679688 Z M 46.835938 80.902344 C 46.929688 80.976562 46.929688 80.921875 46.855469 80.808594 C 46.664062 80.464844 46.226562 80.503906 46.226562 80.84375 C 46.226562 81.035156 46.304688 81.074219 46.453125 80.941406 C 46.589844 80.84375 46.757812 80.824219 46.835938 80.902344 Z M 43.777344 80.824219 C 43.945312 80.769531 44.078125 80.539062 44.078125 80.332031 C 44.078125 80.121094 44.214844 79.839844 44.363281 79.6875 C 44.800781 79.25 44.707031 79.058594 44.175781 79.285156 C 43.910156 79.421875 43.699219 79.570312 43.699219 79.667969 C 43.699219 79.742188 43.585938 79.800781 43.433594 79.800781 C 43.261719 79.800781 43.207031 79.933594 43.261719 80.179688 C 43.320312 80.425781 43.261719 80.558594 43.109375 80.558594 C 42.902344 80.558594 42.902344 80.597656 43.128906 80.75 C 43.472656 80.976562 43.414062 80.960938 43.777344 80.824219 Z M 43.777344 80.824219 "/>
<path style=" stroke:none;fill-rule:nonzero;fill:rgb(100%,98.039216%,99.607843%);fill-opacity:1;" d="M 69.046875 81.433594 C 67.679688 80.808594 66.539062 79.25 67.410156 79.210938 C 67.601562 79.210938 67.640625 79.152344 67.507812 79.097656 C 67.355469 79.039062 67.261719 78.640625 67.261719 78.128906 C 67.242188 77.425781 67.203125 77.3125 67.050781 77.578125 C 66.957031 77.746094 66.917969 77.996094 66.976562 78.089844 C 67.03125 78.203125 66.992188 78.28125 66.898438 78.28125 C 66.765625 78.28125 66.691406 77.273438 66.691406 75.335938 C 66.691406 72.960938 66.746094 72.390625 66.957031 72.390625 C 67.144531 72.390625 67.222656 72.066406 67.222656 71.058594 C 67.222656 70.320312 67.144531 69.730469 67.070312 69.730469 C 66.976562 69.730469 66.878906 69.503906 66.84375 69.21875 C 66.804688 68.914062 66.710938 68.683594 66.59375 68.683594 C 66.5 68.664062 66.214844 68.570312 66.007812 68.4375 C 65.339844 68.078125 64.296875 68.019531 63.859375 68.324219 C 63.480469 68.609375 63.460938 68.589844 63.667969 68.078125 C 63.765625 67.792969 63.953125 67.449219 64.066406 67.316406 C 64.199219 67.144531 64.199219 67.070312 64.050781 67.070312 C 63.933594 67.070312 63.839844 66.9375 63.839844 66.785156 C 63.839844 66.441406 64.601562 66.558594 65.320312 66.992188 C 65.644531 67.203125 65.738281 67.222656 65.757812 67.03125 C 65.796875 66.386719 65.929688 66.082031 66.328125 65.757812 C 66.746094 65.417969 66.785156 65.417969 67.488281 65.796875 C 67.886719 66.007812 68.4375 66.519531 68.703125 66.917969 C 69.578125 68.171875 69.730469 69.21875 69.730469 73.929688 C 69.730469 78.945312 69.652344 78.753906 71.667969 78.886719 C 72.371094 78.925781 72.847656 78.886719 72.714844 78.8125 C 72.5625 78.71875 72.636719 78.660156 72.921875 78.660156 C 73.28125 78.660156 73.320312 78.71875 73.167969 79.003906 C 73.035156 79.269531 73.09375 79.402344 73.53125 79.648438 C 74.042969 79.953125 74.082031 79.933594 74.59375 79.402344 C 74.878906 79.097656 75.277344 78.851562 75.46875 78.851562 C 75.65625 78.851562 75.808594 78.773438 75.808594 78.660156 C 75.808594 78.566406 75.734375 78.46875 75.621094 78.46875 C 75.507812 78.46875 75.429688 77.824219 75.429688 76.929688 C 75.429688 75.582031 75.46875 75.410156 75.773438 75.46875 C 76.039062 75.523438 76.09375 75.753906 76.09375 76.761719 C 76.113281 78.546875 75.886719 79.363281 75.125 80.273438 C 73.816406 81.890625 71.117188 82.402344 69.046875 81.433594 Z M 71.78125 80.808594 C 71.820312 80.636719 71.648438 80.558594 71.269531 80.558594 C 70.945312 80.558594 70.679688 80.484375 70.679688 80.371094 C 70.679688 80.273438 70.605469 80.179688 70.488281 80.179688 C 70.1875 80.179688 70.261719 80.597656 70.640625 80.863281 C 71.023438 81.167969 71.667969 81.128906 71.78125 80.808594 Z M 71.78125 80.808594 "/>
<path style=" stroke:none;fill-rule:nonzero;fill:rgb(100%,98.039216%,99.607843%);fill-opacity:1;" d="M 102.449219 81.546875 C 101.097656 81.054688 100.015625 79.988281 99.65625 78.773438 C 99.332031 77.671875 99.3125 77.464844 99.539062 77.597656 C 99.636719 77.652344 99.808594 77.445312 99.921875 77.101562 C 100.207031 76.324219 100.1875 76.191406 99.84375 76.304688 C 99.636719 76.398438 99.597656 76.34375 99.675781 76.132812 C 99.730469 75.960938 99.710938 75.714844 99.617188 75.582031 C 99.539062 75.449219 99.445312 74.859375 99.445312 74.289062 C 99.425781 73.511719 99.464844 73.359375 99.578125 73.683594 C 99.675781 73.929688 99.824219 74.082031 99.921875 74.023438 C 100.226562 73.835938 100.699219 74.820312 100.699219 75.621094 C 100.699219 76.039062 100.625 76.378906 100.511719 76.378906 C 100.414062 76.378906 100.320312 76.550781 100.320312 76.761719 C 100.320312 76.96875 100.414062 77.140625 100.527344 77.140625 C 100.644531 77.140625 100.71875 77.480469 100.699219 77.957031 C 100.679688 78.394531 100.679688 78.851562 100.679688 78.984375 C 100.699219 79.117188 101.136719 79.648438 101.648438 80.179688 C 102.601562 81.148438 102.601562 81.148438 103.511719 81.015625 C 104.007812 80.921875 104.652344 80.882812 104.957031 80.902344 C 105.5625 80.941406 106.078125 80.636719 105.90625 80.351562 C 105.847656 80.257812 105.867188 80.066406 105.964844 79.953125 C 106.039062 79.820312 106.113281 79.648438 106.132812 79.570312 C 106.152344 79.476562 106.171875 79.363281 106.191406 79.304688 C 106.191406 79.230469 106.324219 79.269531 106.457031 79.382812 C 106.628906 79.535156 106.949219 79.457031 107.636719 79.117188 C 108.167969 78.867188 108.488281 78.660156 108.375 78.660156 C 108.242188 78.660156 108.109375 78.433594 108.070312 78.148438 C 108.015625 77.691406 108.070312 77.613281 108.433594 77.613281 C 108.832031 77.613281 108.851562 77.671875 108.738281 78.28125 C 108.472656 79.78125 107.976562 80.445312 106.550781 81.300781 C 105.546875 81.890625 103.738281 82.003906 102.449219 81.546875 Z M 102.449219 81.546875 "/>
<path style=" stroke:none;fill-rule:nonzero;fill:rgb(100%,98.039216%,99.607843%);fill-opacity:1;" d="M 115.214844 81.625 C 113.203125 80.539062 112.652344 79.628906 112.535156 77.253906 C 112.5 76.191406 112.535156 75.808594 112.652344 76.019531 C 112.765625 76.191406 112.878906 76.664062 112.898438 77.082031 C 112.9375 77.632812 113.03125 77.824219 113.222656 77.746094 C 113.355469 77.691406 113.5625 77.785156 113.65625 77.957031 C 113.867188 78.355469 114.378906 78.375 114.378906 77.996094 C 114.378906 77.84375 114.492188 77.710938 114.644531 77.710938 C 114.796875 77.710938 115.0625 77.578125 115.214844 77.40625 C 115.5 77.140625 115.519531 77.160156 115.519531 77.691406 C 115.519531 78.433594 115.957031 78.851562 116.8125 78.867188 L 117.515625 78.886719 L 116.945312 79.058594 C 116.640625 79.152344 116.242188 79.171875 116.070312 79.136719 C 115.898438 79.078125 115.613281 79.269531 115.367188 79.609375 C 115.101562 79.953125 115.046875 80.160156 115.179688 80.140625 C 115.3125 80.105469 115.40625 80.238281 115.40625 80.425781 C 115.386719 80.597656 115.445312 80.75 115.519531 80.75 C 115.613281 80.75 115.652344 80.976562 115.597656 81.28125 L 115.519531 81.796875 L 115.785156 81.339844 C 116.03125 80.882812 116.050781 80.882812 116.261719 81.28125 C 116.375 81.492188 116.46875 81.71875 116.46875 81.777344 C 116.46875 81.945312 115.613281 81.832031 115.214844 81.625 Z M 113.640625 78.414062 C 113.390625 78.164062 113.144531 78.355469 113.335938 78.640625 C 113.390625 78.753906 113.542969 78.792969 113.65625 78.734375 C 113.773438 78.660156 113.773438 78.546875 113.640625 78.414062 Z M 113.640625 78.414062 "/>
<path style=" stroke:none;fill-rule:nonzero;fill:rgb(100%,98.039216%,99.607843%);fill-opacity:1;" d="M 123.5 81.699219 C 123.5 81.566406 123.652344 81.511719 123.859375 81.566406 C 124.089844 81.625 124.277344 81.546875 124.335938 81.394531 C 124.394531 81.242188 124.601562 81.128906 124.792969 81.128906 C 125.039062 81.128906 125.210938 80.960938 125.265625 80.617188 C 125.382812 80.160156 125.949219 79.589844 126.902344 79.039062 C 127.070312 78.945312 127.1875 78.449219 127.203125 77.597656 C 127.242188 76.875 127.261719 76.058594 127.28125 75.773438 C 127.300781 75.410156 127.394531 75.238281 127.605469 75.238281 C 127.871094 75.238281 127.890625 75.507812 127.832031 77.214844 C 127.773438 79.058594 127.738281 79.25 127.203125 80.007812 C 126.882812 80.445312 126.253906 80.996094 125.761719 81.261719 C 124.679688 81.8125 123.5 82.042969 123.5 81.699219 Z M 123.5 81.699219 "/>
<path style=" stroke:none;fill-rule:nonzero;fill:rgb(100%,98.039216%,99.607843%);fill-opacity:1;" d="M 88.332031 79.855469 C 88.332031 79.648438 88.273438 79.609375 88.21875 79.761719 C 88.179688 79.875 87.96875 79.988281 87.761719 79.988281 C 87.496094 79.988281 87.398438 79.855469 87.398438 79.4375 C 87.398438 78.964844 87.34375 78.90625 86.980469 78.964844 L 86.546875 79.058594 L 86.980469 78.867188 C 87.417969 78.660156 87.476562 78.566406 87.664062 77.671875 C 87.761719 77.253906 87.894531 77.140625 88.3125 77.140625 C 89.242188 77.140625 89.28125 76.910156 89.109375 70.773438 C 89.015625 67.679688 89.320312 66.691406 89.890625 68.078125 C 90.097656 68.53125 90.15625 69.882812 90.15625 73.777344 C 90.15625 78.851562 90.15625 78.886719 89.738281 79.230469 C 89.488281 79.421875 89.300781 79.703125 89.300781 79.875 C 89.300781 80.3125 88.351562 80.292969 88.332031 79.855469 Z M 88.332031 79.855469 "/>
<path style=" stroke:none;fill-rule:nonzero;fill:rgb(100%,98.039216%,99.607843%);fill-opacity:1;" d="M 29.355469 79.078125 C 29.183594 78.90625 29.242188 78.699219 29.5625 78.375 C 29.847656 78.089844 29.90625 78.109375 30.152344 78.46875 C 30.324219 78.71875 30.628906 78.851562 31.007812 78.851562 C 31.332031 78.851562 31.539062 78.90625 31.484375 78.964844 C 31.332031 79.117188 29.507812 79.210938 29.355469 79.078125 Z M 29.355469 79.078125 "/>
<path style=" stroke:none;fill-rule:nonzero;fill:rgb(100%,98.039216%,99.607843%);fill-opacity:1;" d="M 32.109375 79.039062 C 31.652344 78.886719 31.652344 78.886719 32.242188 78.867188 C 32.566406 78.851562 32.90625 78.773438 32.964844 78.660156 C 33.175781 78.316406 33.402344 78.449219 33.308594 78.851562 C 33.191406 79.25 32.90625 79.285156 32.109375 79.039062 Z M 32.109375 79.039062 "/>
<path style=" stroke:none;fill-rule:nonzero;fill:rgb(100%,98.039216%,99.607843%);fill-opacity:1;" d="M 102.753906 79.003906 C 102.410156 78.71875 102.199219 78.183594 102.351562 78.015625 C 102.410156 77.957031 102.65625 78.128906 102.902344 78.375 C 103.550781 79.078125 105.164062 78.964844 105.679688 78.203125 C 105.753906 78.089844 105.828125 78.222656 105.828125 78.488281 C 105.828125 78.773438 105.695312 79.039062 105.527344 79.117188 C 104.992188 79.324219 103.054688 79.230469 102.753906 79.003906 Z M 102.753906 79.003906 "/>
<path style=" stroke:none;fill-rule:nonzero;fill:rgb(100%,98.039216%,99.607843%);fill-opacity:1;" d="M 122.550781 79.019531 C 122.550781 78.925781 122.910156 78.851562 123.347656 78.851562 C 124.277344 78.851562 124.242188 78.964844 123.273438 79.097656 C 122.871094 79.152344 122.550781 79.117188 122.550781 79.019531 Z M 122.550781 79.019531 "/>
<path style=" stroke:none;fill-rule:nonzero;fill:rgb(100%,98.039216%,99.607843%);fill-opacity:1;" d="M 49.609375 78.8125 C 49.609375 78.621094 49.515625 78.46875 49.398438 78.46875 C 49.304688 78.46875 49.210938 78.335938 49.210938 78.183594 C 49.210938 78.03125 49.34375 77.898438 49.496094 77.898438 C 49.648438 77.898438 49.78125 77.804688 49.78125 77.671875 C 49.78125 77.558594 49.816406 77.5 49.855469 77.539062 C 49.894531 77.578125 49.855469 77.957031 49.78125 78.375 C 49.703125 78.792969 49.628906 78.984375 49.609375 78.8125 Z M 49.609375 78.8125 "/>
<path style=" stroke:none;fill-rule:nonzero;fill:rgb(100%,98.039216%,99.607843%);fill-opacity:1;" d="M 91.371094 78.832031 C 91.847656 78.734375 92.28125 78.566406 92.378906 78.433594 C 92.492188 78.242188 92.53125 78.242188 92.53125 78.414062 C 92.53125 78.753906 91.882812 79.039062 91.160156 79.019531 C 90.59375 79.003906 90.609375 78.984375 91.371094 78.832031 Z M 91.371094 78.832031 "/>
<path style=" stroke:none;fill-rule:nonzero;fill:rgb(100%,98.039216%,99.607843%);fill-opacity:1;" d="M 36.289062 78.46875 C 36.289062 78.261719 36.214844 78.089844 36.101562 78.089844 C 36.003906 78.089844 35.910156 78.015625 35.910156 77.898438 C 35.910156 77.804688 36.042969 77.710938 36.195312 77.710938 C 36.386719 77.710938 36.480469 77.898438 36.480469 78.28125 C 36.480469 78.601562 36.441406 78.851562 36.386719 78.851562 C 36.328125 78.851562 36.289062 78.679688 36.289062 78.46875 Z M 36.289062 78.46875 "/>
<path style=" stroke:none;fill-rule:nonzero;fill:rgb(100%,98.039216%,99.607843%);fill-opacity:1;" d="M 118.257812 76.4375 C 118.238281 74.820312 118.257812 74.785156 118.523438 75.429688 C 118.691406 75.867188 118.75 76.398438 118.65625 77.082031 C 118.464844 78.601562 118.273438 78.28125 118.257812 76.4375 Z M 118.257812 76.4375 "/>
<path style=" stroke:none;fill-rule:nonzero;fill:rgb(100%,98.039216%,99.607843%);fill-opacity:1;" d="M 73.167969 75.144531 C 73.1875 73.566406 73.265625 72.125 73.339844 71.914062 C 73.492188 71.554688 73.511719 71.554688 73.511719 71.953125 C 73.53125 72.179688 73.625 72.429688 73.71875 72.484375 C 73.910156 72.597656 73.835938 75.828125 73.644531 76.152344 C 73.605469 76.226562 73.511719 76.628906 73.453125 77.027344 C 73.226562 78.488281 73.132812 77.9375 73.167969 75.144531 Z M 73.167969 75.144531 "/>
<path style=" stroke:none;fill-rule:nonzero;fill:rgb(100%,98.039216%,99.607843%);fill-opacity:1;" d="M 29.261719 77.519531 C 29.261719 77.425781 29.335938 77.328125 29.429688 77.328125 C 29.527344 77.328125 29.660156 77.140625 29.695312 76.910156 C 29.753906 76.589844 29.792969 76.644531 29.8125 77.101562 C 29.828125 77.519531 29.753906 77.710938 29.546875 77.710938 C 29.394531 77.710938 29.261719 77.632812 29.261719 77.519531 Z M 29.261719 77.519531 "/>
<path style=" stroke:none;fill-rule:nonzero;fill:rgb(100%,98.039216%,99.607843%);fill-opacity:1;" d="M 101.632812 77.195312 C 101.480469 76.761719 101.421875 75.601562 101.480469 73.816406 C 101.496094 72.980469 101.914062 71.628906 102.164062 71.628906 C 102.351562 71.628906 102.410156 72.296875 102.410156 74.671875 C 102.410156 77.273438 102.371094 77.710938 102.125 77.710938 C 101.953125 77.710938 101.746094 77.480469 101.632812 77.195312 Z M 101.632812 77.195312 "/>
<path style=" stroke:none;fill-rule:nonzero;fill:rgb(100%,98.039216%,99.607843%);fill-opacity:1;" d="M 105.886719 75.144531 C 105.886719 72.75 105.90625 72.617188 106.058594 73.816406 C 106.265625 75.65625 106.265625 75.789062 106.058594 76.855469 C 105.90625 77.652344 105.867188 77.386719 105.886719 75.144531 Z M 105.886719 75.144531 "/>
<path style=" stroke:none;fill-rule:nonzero;fill:rgb(100%,98.039216%,99.607843%);fill-opacity:1;" d="M 124.964844 73.453125 C 125 71.25 125.019531 69.332031 125.019531 69.199219 C 125.019531 68.683594 125.398438 69.199219 125.398438 69.730469 C 125.398438 70.128906 125.515625 70.28125 125.875 70.375 C 126.425781 70.507812 126.464844 70.792969 126.066406 71.761719 C 125.894531 72.160156 125.742188 73.28125 125.683594 74.421875 C 125.628906 75.507812 125.515625 76.550781 125.417969 76.742188 C 125.304688 76.929688 125.265625 77.140625 125.324219 77.179688 C 125.382812 77.234375 125.304688 77.328125 125.171875 77.367188 C 124.980469 77.445312 124.925781 76.683594 124.964844 73.453125 Z M 124.964844 73.453125 "/>
<path style=" stroke:none;fill-rule:nonzero;fill:rgb(100%,98.039216%,99.607843%);fill-opacity:1;" d="M 108.679688 77.046875 C 108.679688 76.894531 108.546875 76.761719 108.394531 76.761719 C 108.242188 76.761719 108.109375 76.589844 108.109375 76.378906 C 108.109375 76.171875 108.222656 76 108.375 76 C 108.527344 76 108.679688 75.886719 108.71875 75.773438 C 108.773438 75.640625 108.8125 75.941406 108.832031 76.4375 C 108.851562 76.929688 108.832031 77.328125 108.773438 77.328125 C 108.71875 77.328125 108.679688 77.195312 108.679688 77.046875 Z M 108.679688 77.046875 "/>
<path style=" stroke:none;fill-rule:nonzero;fill:rgb(100%,98.039216%,99.607843%);fill-opacity:1;" d="M 120.480469 75.222656 C 120.421875 71.972656 120.632812 69.921875 121.011719 69.902344 C 121.238281 69.902344 121.21875 69.84375 120.933594 69.710938 L 120.554688 69.539062 L 120.933594 69.597656 C 121.144531 69.617188 121.316406 69.75 121.296875 69.882812 C 121.277344 69.996094 121.257812 71.742188 121.257812 73.71875 C 121.21875 77.121094 121.199219 77.328125 120.859375 77.328125 C 120.535156 77.328125 120.496094 77.160156 120.480469 75.222656 Z M 120.480469 75.222656 "/>
<path style=" stroke:none;fill-rule:nonzero;fill:rgb(100%,98.039216%,99.607843%);fill-opacity:1;" d="M 60.078125 76.378906 C 60.078125 76.019531 60.117188 75.867188 60.171875 76.058594 C 60.210938 76.226562 60.210938 76.53125 60.171875 76.722656 C 60.117188 76.894531 60.078125 76.742188 60.078125 76.378906 Z M 60.078125 76.378906 "/>
<path style=" stroke:none;fill-rule:nonzero;fill:rgb(100%,98.039216%,99.607843%);fill-opacity:1;" d="M 82.574219 76.4375 C 82.515625 76.285156 82.535156 76.019531 82.648438 75.847656 C 82.746094 75.65625 82.839844 75.621094 82.839844 75.773438 C 82.839844 76.058594 83.410156 76.074219 83.410156 75.773438 C 83.410156 75.65625 83.449219 75.601562 83.503906 75.640625 C 83.542969 75.695312 83.542969 75.90625 83.484375 76.132812 C 83.351562 76.628906 82.726562 76.835938 82.574219 76.4375 Z M 82.574219 76.4375 "/>
<path style=" stroke:none;fill-rule:nonzero;fill:rgb(100%,98.039216%,99.607843%);fill-opacity:1;" d="M 35.910156 74.574219 C 35.910156 73.605469 35.96875 73.339844 36.195312 73.339844 C 36.421875 73.339844 36.480469 73.605469 36.480469 74.574219 C 36.480469 75.542969 36.421875 75.808594 36.195312 75.808594 C 35.96875 75.808594 35.910156 75.542969 35.910156 74.574219 Z M 35.910156 74.574219 "/>
<path style=" stroke:none;fill-rule:nonzero;fill:rgb(100%,98.039216%,99.607843%);fill-opacity:1;" d="M 49.171875 74.15625 C 49.152344 73.226562 49.152344 72.085938 49.191406 71.59375 C 49.230469 70.660156 49.019531 70.054688 48.429688 69.484375 C 48.203125 69.273438 48.070312 68.875 48.070312 68.457031 C 48.070312 67.847656 48.109375 67.792969 48.546875 67.867188 C 48.792969 67.925781 48.964844 67.886719 48.90625 67.8125 C 48.847656 67.714844 48.925781 67.640625 49.078125 67.640625 C 49.230469 67.640625 49.476562 67.296875 49.628906 66.898438 C 49.875 66.253906 49.894531 66.121094 49.664062 66.042969 C 49.515625 65.988281 49.265625 65.988281 49.113281 66.042969 C 48.527344 66.273438 48.867188 65.929688 49.589844 65.550781 C 50.785156 64.941406 52.460938 64.980469 53.828125 65.644531 C 54.414062 65.929688 54.910156 66.195312 54.910156 66.253906 C 54.910156 66.289062 54.53125 66.273438 54.054688 66.195312 C 53.257812 66.082031 53.199219 66.101562 53.179688 66.519531 C 53.179688 66.765625 53.125 66.859375 53.066406 66.746094 C 52.953125 66.425781 52.667969 66.441406 52.324219 66.785156 C 52.058594 67.03125 52.058594 67.070312 52.324219 67.070312 C 52.496094 67.070312 52.628906 67.164062 52.628906 67.277344 C 52.628906 67.394531 52.742188 67.449219 52.894531 67.394531 C 53.027344 67.335938 53.371094 67.527344 53.65625 67.8125 C 54.148438 68.324219 54.148438 68.34375 53.882812 69.351562 C 53.730469 69.921875 53.675781 70.507812 53.769531 70.679688 C 53.921875 70.964844 53.828125 75.621094 53.675781 75.789062 C 53.617188 75.828125 53.578125 75.277344 53.5625 74.554688 C 53.503906 69.691406 53.464844 69.21875 53.085938 68.722656 C 52.441406 67.847656 51.070312 67.867188 50.253906 68.78125 C 49.914062 69.160156 49.875 69.484375 49.855469 72.351562 C 49.816406 76.113281 49.855469 75.808594 49.496094 75.808594 C 49.265625 75.808594 49.210938 75.488281 49.171875 74.15625 Z M 50.539062 66.785156 C 50.539062 66.574219 50.769531 66.5 51.300781 66.5 C 51.71875 66.5 52.058594 66.425781 52.058594 66.328125 C 52.058594 66.023438 51.71875 65.910156 51.640625 66.15625 C 51.585938 66.328125 51.472656 66.308594 51.222656 66.0625 C 51.035156 65.890625 50.636719 65.738281 50.292969 65.757812 C 49.703125 65.777344 49.703125 65.777344 50.160156 65.929688 C 50.425781 66.007812 50.558594 66.082031 50.445312 66.101562 C 50.253906 66.121094 49.78125 66.992188 49.78125 67.296875 C 49.78125 67.394531 49.949219 67.375 50.160156 67.261719 C 50.367188 67.144531 50.539062 66.9375 50.539062 66.785156 Z M 50.539062 66.785156 "/>
<path style=" stroke:none;fill-rule:nonzero;fill:rgb(100%,98.039216%,99.607843%);fill-opacity:1;" d="M 62.511719 75.507812 C 62.511719 75.355469 62.644531 75.089844 62.796875 74.9375 C 63.042969 74.671875 63.078125 74.707031 63.078125 75.222656 C 63.078125 75.621094 62.984375 75.808594 62.796875 75.808594 C 62.644531 75.808594 62.511719 75.675781 62.511719 75.507812 Z M 62.511719 75.507812 "/>
<path style=" stroke:none;fill-rule:nonzero;fill:rgb(100%,98.039216%,99.607843%);fill-opacity:1;" d="M 60.097656 74.101562 C 60.097656 73.320312 60.136719 72.996094 60.171875 73.398438 C 60.210938 73.777344 60.210938 74.421875 60.171875 74.820312 C 60.136719 75.203125 60.097656 74.878906 60.097656 74.101562 Z M 60.097656 74.101562 "/>
<path style=" stroke:none;fill-rule:nonzero;fill:rgb(100%,98.039216%,99.607843%);fill-opacity:1;" d="M 75.773438 75.105469 C 75.316406 74.992188 75.335938 74.367188 75.808594 74.234375 C 76.132812 74.15625 76.191406 74.234375 76.191406 74.6875 C 76.191406 74.992188 76.171875 75.222656 76.152344 75.222656 C 76.113281 75.203125 75.941406 75.164062 75.773438 75.105469 Z M 75.773438 75.105469 "/>
<path style=" stroke:none;fill-rule:nonzero;fill:rgb(100%,98.039216%,99.607843%);fill-opacity:1;" d="M 112.480469 73.871094 C 112.421875 73.378906 112.460938 73.054688 112.535156 73.132812 C 112.632812 73.226562 112.671875 73.625 112.632812 74.023438 L 112.574219 74.765625 Z M 112.480469 73.871094 "/>
<path style=" stroke:none;fill-rule:nonzero;fill:rgb(100%,98.039216%,99.607843%);fill-opacity:1;" d="M 95.191406 74.101562 C 95.191406 74.003906 95.324219 73.910156 95.476562 73.910156 C 95.628906 73.910156 95.761719 74.003906 95.761719 74.101562 C 95.761719 74.214844 95.628906 74.289062 95.476562 74.289062 C 95.324219 74.289062 95.191406 74.214844 95.191406 74.101562 Z M 95.191406 74.101562 "/>
<path style=" stroke:none;fill-rule:nonzero;fill:rgb(100%,98.039216%,99.607843%);fill-opacity:1;" d="M 108.546875 73.777344 C 108.203125 73.644531 108.242188 73.148438 108.585938 73.148438 C 108.738281 73.148438 108.871094 73.320312 108.871094 73.53125 C 108.871094 73.738281 108.851562 73.910156 108.832031 73.890625 C 108.792969 73.890625 108.660156 73.835938 108.546875 73.777344 Z M 108.546875 73.777344 "/>
<path style=" stroke:none;fill-rule:nonzero;fill:rgb(100%,98.039216%,99.607843%);fill-opacity:1;" d="M 62.890625 73.054688 C 62.890625 72.789062 62.8125 72.578125 62.699219 72.578125 C 62.605469 72.578125 62.511719 72.277344 62.511719 71.914062 C 62.511719 71.554688 62.605469 71.25 62.699219 71.25 C 62.8125 71.25 62.890625 71.117188 62.890625 70.964844 C 62.890625 70.8125 62.8125 70.679688 62.699219 70.679688 C 62.605469 70.679688 62.511719 70.546875 62.511719 70.394531 C 62.511719 70.242188 62.644531 70.109375 62.796875 70.109375 C 63.023438 70.109375 63.078125 70.433594 63.078125 71.820312 C 63.078125 72.769531 63.042969 73.53125 62.984375 73.53125 C 62.929688 73.53125 62.890625 73.320312 62.890625 73.054688 Z M 62.890625 73.054688 "/>
<path style=" stroke:none;fill-rule:nonzero;fill:rgb(100%,98.039216%,99.607843%);fill-opacity:1;" d="M 35.910156 71.933594 C 35.910156 71.289062 36.003906 70.871094 36.15625 70.8125 C 36.347656 70.738281 36.347656 70.699219 36.15625 70.699219 C 35.796875 70.679688 35.851562 69.730469 36.195312 69.730469 C 36.421875 69.730469 36.480469 70.035156 36.480469 71.34375 C 36.480469 72.65625 36.421875 72.960938 36.195312 72.960938 C 35.984375 72.960938 35.910156 72.714844 35.910156 71.933594 Z M 35.910156 71.933594 "/>
<path style=" stroke:none;fill-rule:nonzero;fill:rgb(100%,98.039216%,99.607843%);fill-opacity:1;" d="M 55.859375 71.628906 C 55.859375 70.738281 55.917969 70.488281 56.144531 70.488281 C 56.371094 70.488281 56.429688 70.738281 56.429688 71.628906 C 56.429688 72.523438 56.371094 72.769531 56.144531 72.769531 C 55.917969 72.769531 55.859375 72.523438 55.859375 71.628906 Z M 55.859375 71.628906 "/>
<path style=" stroke:none;fill-rule:nonzero;fill:rgb(100%,98.039216%,99.607843%);fill-opacity:1;" d="M 108.339844 72.445312 C 108.414062 72.011719 109.441406 71.859375 109.441406 72.257812 C 109.441406 72.542969 109.058594 72.769531 108.546875 72.769531 C 108.394531 72.769531 108.300781 72.636719 108.339844 72.445312 Z M 108.339844 72.445312 "/>
<path style=" stroke:none;fill-rule:nonzero;fill:rgb(100%,98.039216%,99.607843%);fill-opacity:1;" d="M 27.625 71.726562 C 27.570312 71.460938 27.570312 70.945312 27.625 70.585938 C 27.738281 69.996094 27.703125 69.921875 27.285156 69.804688 C 26.695312 69.671875 26.410156 69.824219 26.410156 70.320312 C 26.410156 70.640625 26.199219 70.773438 25.78125 70.699219 C 25.707031 70.699219 25.667969 70.738281 25.667969 70.832031 C 25.6875 70.90625 25.6875 71.078125 25.667969 71.230469 C 25.632812 71.78125 25.097656 70.792969 25.078125 70.167969 C 25.078125 69.351562 25.648438 68.78125 26.484375 68.78125 C 27.664062 68.78125 29.773438 70.8125 29.070312 71.25 C 28.9375 71.324219 28.898438 71.554688 28.976562 71.800781 C 29.089844 72.160156 29.011719 72.199219 28.425781 72.199219 C 27.855469 72.199219 27.722656 72.125 27.625 71.726562 Z M 27.625 71.726562 "/>
<path style=" stroke:none;fill-rule:nonzero;fill:rgb(100%,98.039216%,99.607843%);fill-opacity:1;" d="M 111.28125 72.066406 C 111.1875 71.933594 111.1875 71.742188 111.246094 71.628906 C 111.320312 71.515625 111.132812 71.441406 110.828125 71.460938 C 110.542969 71.460938 110.410156 71.515625 110.542969 71.574219 C 110.941406 71.726562 110.789062 72.011719 110.296875 72.011719 C 110.046875 72.011719 109.761719 71.878906 109.667969 71.707031 C 109.574219 71.535156 109.441406 71.421875 109.382812 71.421875 C 109.058594 71.460938 109.058594 71.421875 109.324219 71.15625 C 109.667969 70.8125 109.953125 70.792969 110.066406 71.117188 C 110.125 71.230469 110.179688 71.15625 110.179688 70.925781 C 110.199219 70.699219 110.296875 70.453125 110.429688 70.375 C 110.578125 70.28125 110.542969 70.1875 110.277344 70.109375 C 110.085938 70.035156 109.859375 70.070312 109.78125 70.1875 C 109.667969 70.339844 109.628906 70.320312 109.628906 70.167969 C 109.628906 69.882812 108.890625 69.84375 108.261719 70.089844 C 107.75 70.300781 106.742188 71.191406 106.4375 71.726562 C 106.324219 71.933594 106.210938 72.011719 106.210938 71.894531 C 106.210938 71.421875 107.445312 70.089844 108.339844 69.636719 C 109.117188 69.234375 109.554688 69.160156 110.65625 69.179688 C 112.707031 69.21875 114.074219 69.9375 114.894531 71.363281 L 115.292969 72.105469 L 113.90625 72.160156 C 112.859375 72.21875 112.386719 72.144531 112.042969 71.914062 C 111.585938 71.628906 111.550781 71.628906 111.492188 71.953125 C 111.453125 72.199219 111.378906 72.238281 111.28125 72.066406 Z M 111.28125 72.066406 "/>
<path style=" stroke:none;fill-rule:nonzero;fill:rgb(100%,98.039216%,99.607843%);fill-opacity:1;" d="M 101.839844 71.058594 C 101.839844 70.851562 101.972656 70.679688 102.125 70.679688 C 102.277344 70.679688 102.410156 70.851562 102.410156 71.058594 C 102.410156 71.269531 102.277344 71.441406 102.125 71.441406 C 101.972656 71.441406 101.839844 71.269531 101.839844 71.058594 Z M 101.839844 71.058594 "/>
<path style=" stroke:none;fill-rule:nonzero;fill:rgb(100%,98.039216%,99.607843%);fill-opacity:1;" d="M 60.097656 69.824219 C 60.097656 69.40625 60.136719 69.253906 60.171875 69.503906 C 60.210938 69.730469 60.210938 70.070312 60.171875 70.261719 C 60.117188 70.433594 60.078125 70.242188 60.097656 69.824219 Z M 60.097656 69.824219 "/>
<path style=" stroke:none;fill-rule:nonzero;fill:rgb(100%,98.039216%,99.607843%);fill-opacity:1;" d="M 43.128906 69.578125 C 43.128906 69.292969 43.015625 69.160156 42.75 69.160156 C 42.539062 69.160156 42.371094 69.253906 42.371094 69.351562 C 42.371094 69.464844 42.199219 69.539062 41.988281 69.539062 C 41.722656 69.539062 41.570312 69.351562 41.421875 68.800781 C 41.230469 68.039062 41.324219 67.449219 41.648438 67.449219 C 41.742188 67.449219 41.761719 67.5625 41.6875 67.695312 C 41.609375 67.8125 41.742188 67.753906 41.972656 67.546875 L 42.40625 67.164062 L 42.75 67.601562 C 43.109375 68.039062 43.472656 69.652344 43.242188 69.863281 C 43.1875 69.9375 43.128906 69.804688 43.128906 69.578125 Z M 43.128906 69.578125 "/>
<path style=" stroke:none;fill-rule:nonzero;fill:rgb(100%,98.039216%,99.607843%);fill-opacity:1;" d="M 55.859375 69.519531 C 55.859375 69.40625 55.992188 69.199219 56.144531 69.046875 C 56.390625 68.78125 56.429688 68.800781 56.429688 69.234375 C 56.429688 69.539062 56.316406 69.730469 56.144531 69.730469 C 55.992188 69.730469 55.859375 69.636719 55.859375 69.519531 Z M 55.859375 69.519531 "/>
<path style=" stroke:none;fill-rule:nonzero;fill:rgb(100%,98.039216%,99.607843%);fill-opacity:1;" d="M 76.191406 69.445312 C 76.191406 69.101562 76.761719 69.066406 77.195312 69.40625 C 77.480469 69.597656 77.445312 69.636719 76.855469 69.671875 C 76.359375 69.710938 76.191406 69.652344 76.191406 69.445312 Z M 76.191406 69.445312 "/>
<path style=" stroke:none;fill-rule:nonzero;fill:rgb(100%,98.039216%,99.607843%);fill-opacity:1;" d="M 86.847656 68.816406 C 86.621094 68.382812 85.460938 67.945312 84.910156 68.078125 C 84.722656 68.132812 84.550781 68.097656 84.550781 68 C 84.550781 67.773438 83.847656 67.773438 83.410156 68.019531 C 82.933594 68.285156 82.707031 67.679688 83.144531 67.277344 C 83.351562 67.089844 83.410156 67.070312 83.316406 67.242188 C 83.199219 67.449219 83.371094 67.46875 84.171875 67.410156 C 84.722656 67.355469 85.539062 67.394531 85.992188 67.488281 C 86.695312 67.640625 86.828125 67.753906 87.019531 68.324219 C 87.265625 69.085938 87.152344 69.386719 86.847656 68.816406 Z M 86.847656 68.816406 "/>
<path style=" stroke:none;fill-rule:nonzero;fill:rgb(100%,98.039216%,99.607843%);fill-opacity:1;" d="M 46.929688 68.800781 C 46.929688 68.4375 47.441406 67.316406 47.671875 67.183594 C 47.785156 67.109375 47.710938 67.46875 47.480469 67.964844 C 47.0625 68.949219 46.929688 69.160156 46.929688 68.800781 Z M 46.929688 68.800781 "/>
<path style=" stroke:none;fill-rule:nonzero;fill:rgb(100%,98.039216%,99.607843%);fill-opacity:1;" d="M 33.628906 68.570312 C 33.628906 68.113281 34.65625 66.652344 35.398438 66.082031 C 35.835938 65.738281 36.117188 65.570312 36.042969 65.703125 C 35.949219 65.835938 35.984375 65.929688 36.175781 65.929688 C 36.671875 65.929688 36.519531 66.480469 35.929688 66.765625 C 35.625 66.9375 35.339844 67.011719 35.28125 66.957031 C 35.226562 66.878906 34.941406 67.277344 34.636719 67.8125 C 34.160156 68.683594 33.628906 69.085938 33.628906 68.570312 Z M 33.628906 68.570312 "/>
<path style=" stroke:none;fill-rule:nonzero;fill:rgb(100%,98.039216%,99.607843%);fill-opacity:1;" d="M 36.5 68.589844 C 36.328125 68.496094 36.441406 68.417969 36.804688 68.34375 C 37.449219 68.230469 37.507812 68.246094 37.070312 68.53125 C 36.878906 68.648438 36.632812 68.683594 36.5 68.589844 Z M 36.5 68.589844 "/>
<path style=" stroke:none;fill-rule:nonzero;fill:rgb(100%,98.039216%,99.607843%);fill-opacity:1;" d="M 39.046875 68.191406 C 38.742188 68.097656 38.324219 68.058594 38.113281 68.097656 C 37.714844 68.191406 37.238281 67.8125 37.238281 67.375 C 37.238281 66.9375 38.113281 66.992188 38.875 67.449219 C 39.253906 67.695312 39.539062 67.773438 39.613281 67.640625 C 39.804688 67.335938 41.039062 67.394531 41.039062 67.714844 C 41.039062 67.847656 40.851562 68.019531 40.621094 68.078125 C 40.375 68.113281 40.050781 68.210938 39.898438 68.265625 C 39.746094 68.324219 39.367188 68.285156 39.046875 68.191406 Z M 39.046875 68.191406 "/>
<path style=" stroke:none;fill-rule:nonzero;fill:rgb(100%,98.039216%,99.607843%);fill-opacity:1;" d="M 55.480469 68.019531 C 55.328125 67.925781 55.269531 67.828125 55.367188 67.828125 C 55.460938 67.828125 55.441406 67.714844 55.328125 67.582031 C 55.214844 67.449219 55.136719 67.144531 55.15625 66.917969 C 55.175781 66.441406 55.253906 66.5 55.839844 67.507812 C 56.277344 68.210938 56.125 68.4375 55.480469 68.019531 Z M 55.480469 68.019531 "/>
<path style=" stroke:none;fill-rule:nonzero;fill:rgb(100%,98.039216%,99.607843%);fill-opacity:1;" d="M 118.558594 68.152344 C 118.558594 67.640625 119.8125 66.175781 120.613281 65.757812 C 120.953125 65.589844 121.03125 65.589844 121.03125 65.796875 C 121.03125 66.121094 120.289062 66.804688 119.757812 66.957031 C 119.527344 67.03125 119.167969 67.355469 118.960938 67.695312 C 118.75 68.039062 118.558594 68.230469 118.558594 68.152344 Z M 118.558594 68.152344 "/>
<path style=" stroke:none;fill-rule:nonzero;fill:rgb(100%,98.039216%,99.607843%);fill-opacity:1;" d="M 126.539062 66.976562 C 126.121094 66.460938 126.445312 66.273438 126.902344 66.765625 C 127.261719 67.144531 127.300781 67.261719 127.070312 67.261719 C 126.902344 67.261719 126.671875 67.128906 126.539062 66.976562 Z M 126.539062 66.976562 "/>
<path style=" stroke:none;fill-rule:nonzero;fill:rgb(100%,98.039216%,99.607843%);fill-opacity:1;" d="M 41.875 66.878906 C 41.78125 66.785156 41.535156 66.671875 41.324219 66.632812 C 40.734375 66.539062 40.355469 66.253906 40.242188 65.796875 C 40.148438 65.4375 40.183594 65.417969 40.660156 65.570312 C 41.191406 65.757812 42.597656 67.070312 42.257812 67.070312 C 42.140625 67.070312 41.988281 66.992188 41.875 66.878906 Z M 41.875 66.878906 "/>
<path style=" stroke:none;fill-rule:nonzero;fill:rgb(100%,98.039216%,99.607843%);fill-opacity:1;" d="M 81.699219 66.613281 C 82.269531 65.988281 83.769531 65.265625 84.871094 65.09375 C 85.425781 65.019531 86.03125 65.09375 86.964844 65.398438 L 88.253906 65.835938 L 87.515625 65.890625 C 87.097656 65.929688 86.582031 65.871094 86.375 65.777344 C 85.765625 65.472656 83.980469 65.339844 83.980469 65.589844 C 83.980469 65.683594 83.847656 65.738281 83.695312 65.664062 C 83.542969 65.605469 83.410156 65.644531 83.410156 65.738281 C 83.410156 65.835938 83.21875 65.96875 82.992188 66.023438 C 82.746094 66.101562 82.382812 66.308594 82.175781 66.5 C 81.511719 67.070312 81.207031 67.144531 81.699219 66.613281 Z M 81.699219 66.613281 "/>
<path style=" stroke:none;fill-rule:nonzero;fill:rgb(100%,98.039216%,99.607843%);fill-opacity:1;" d="M 62.035156 65.929688 C 62.109375 65.816406 62.242188 65.777344 62.339844 65.835938 C 62.433594 65.910156 62.511719 65.871094 62.511719 65.757812 C 62.511719 65.644531 62.660156 65.625 62.832031 65.683594 C 63.117188 65.796875 63.117188 65.816406 62.777344 65.949219 C 62.242188 66.15625 61.902344 66.15625 62.035156 65.929688 Z M 62.035156 65.929688 "/>
<path style=" stroke:none;fill-rule:nonzero;fill:rgb(100%,98.039216%,99.607843%);fill-opacity:1;" d="M 48.296875 63.914062 C 47.15625 63.441406 46.929688 61.921875 47.859375 60.972656 C 48.601562 60.25 49.515625 60.230469 50.332031 60.914062 C 50.824219 61.3125 50.921875 61.539062 50.921875 62.226562 C 50.921875 62.71875 50.785156 63.195312 50.597656 63.441406 C 50.140625 64.011719 49.039062 64.238281 48.296875 63.914062 Z M 48.296875 63.914062 "/>
<path style=" stroke:none;fill-rule:nonzero;fill:rgb(100%,98.039216%,99.607843%);fill-opacity:1;" d="M 53.445312 63.933594 C 52.210938 63.402344 51.964844 61.902344 52.953125 60.914062 C 53.5625 60.285156 54.472656 60.269531 55.214844 60.839844 C 55.953125 61.40625 56.050781 61.558594 56.050781 62.242188 C 56.050781 62.871094 55.5 63.632812 54.777344 64.011719 C 54.265625 64.277344 54.207031 64.257812 53.445312 63.933594 Z M 54.910156 62.796875 C 55.042969 62.644531 55.0625 62.511719 54.949219 62.511719 C 54.851562 62.511719 54.664062 62.644531 54.53125 62.796875 C 54.398438 62.945312 54.378906 63.078125 54.492188 63.078125 C 54.585938 63.078125 54.777344 62.945312 54.910156 62.796875 Z M 54.53125 62.128906 C 54.53125 61.941406 54.585938 61.65625 54.644531 61.484375 C 54.777344 61.121094 54.320312 60.914062 53.714844 61.066406 C 53.332031 61.160156 53.277344 61.273438 53.3125 61.976562 C 53.332031 62.433594 53.351562 62.8125 53.371094 62.832031 C 53.390625 62.851562 53.65625 62.777344 53.960938 62.679688 C 54.320312 62.546875 54.53125 62.339844 54.53125 62.128906 Z M 54.53125 62.128906 "/>
<path style=" stroke:none;fill-rule:nonzero;fill:rgb(100%,98.039216%,99.607843%);fill-opacity:1;" d="M 68.058594 63.839844 C 67.5625 63.535156 67.070312 62.644531 67.070312 62.035156 C 67.070312 61.921875 67.203125 61.65625 67.375 61.445312 C 67.640625 61.105469 67.660156 61.121094 67.582031 61.75 C 67.527344 62.109375 67.621094 62.644531 67.773438 62.945312 C 68.019531 63.460938 68.078125 63.460938 69.3125 63.382812 L 70.585938 63.289062 L 70.128906 63.667969 C 69.882812 63.859375 69.597656 64.03125 69.464844 64.050781 C 69.351562 64.050781 69.121094 64.085938 68.933594 64.125 C 68.761719 64.164062 68.382812 64.03125 68.058594 63.839844 Z M 68.058594 63.839844 "/>
<path style=" stroke:none;fill-rule:nonzero;fill:rgb(100%,98.039216%,99.607843%);fill-opacity:1;" d="M 73.796875 63.992188 C 73.738281 63.898438 73.738281 63.765625 73.796875 63.707031 C 73.851562 63.632812 73.910156 63.6875 73.910156 63.820312 C 73.910156 63.972656 74.003906 63.953125 74.214844 63.765625 C 74.554688 63.402344 75.105469 63.363281 75.011719 63.6875 C 74.898438 63.992188 73.949219 64.238281 73.796875 63.992188 Z M 73.796875 63.992188 "/>
<path style=" stroke:none;fill-rule:nonzero;fill:rgb(100%,98.039216%,99.607843%);fill-opacity:1;" d="M 72.996094 63.800781 C 72.863281 63.667969 72.769531 63.460938 72.769531 63.328125 C 72.769531 63.117188 72.863281 63.117188 73.148438 63.269531 C 73.359375 63.382812 73.53125 63.59375 73.53125 63.746094 C 73.53125 64.085938 73.300781 64.105469 72.996094 63.800781 Z M 72.996094 63.800781 "/>
<path style=" stroke:none;fill-rule:nonzero;fill:rgb(100%,98.039216%,99.607843%);fill-opacity:1;" d="M 101.765625 63.042969 C 101.707031 62.699219 101.632812 61.863281 101.574219 61.179688 C 101.480469 59.851562 101.15625 58.519531 100.929688 58.539062 C 100.511719 58.613281 100.359375 58.464844 100.394531 58.046875 C 100.414062 57.398438 100.71875 57.457031 101.363281 58.179688 C 102.125 59.03125 102.351562 59.851562 102.390625 61.882812 C 102.429688 63.347656 102.371094 63.648438 102.144531 63.648438 C 101.972656 63.648438 101.820312 63.421875 101.765625 63.042969 Z M 101.765625 63.042969 "/>
<path style=" stroke:none;fill-rule:nonzero;fill:rgb(100%,98.039216%,99.607843%);fill-opacity:1;" d="M 75.296875 63.15625 C 75.164062 63.023438 75.050781 62.472656 75.050781 61.941406 C 75.050781 61.007812 75.03125 60.988281 74.480469 60.988281 C 73.699219 60.988281 72.429688 61.523438 72.332031 61.902344 C 72.257812 62.207031 72.238281 62.207031 72.21875 61.921875 C 72.179688 61.351562 73.246094 60.421875 73.910156 60.421875 C 75.335938 60.421875 76.191406 61.523438 75.753906 62.777344 C 75.5625 63.308594 75.488281 63.382812 75.296875 63.15625 Z M 75.296875 63.15625 "/>
<path style=" stroke:none;fill-rule:nonzero;fill:rgb(100%,98.039216%,99.607843%);fill-opacity:1;" d="M 69.824219 61.179688 C 69.597656 60.933594 69.234375 60.800781 68.800781 60.800781 C 68.304688 60.800781 68.191406 60.742188 68.34375 60.589844 C 68.761719 60.171875 70.679688 60.875 70.679688 61.445312 C 70.679688 61.691406 70.148438 61.539062 69.824219 61.179688 Z M 69.824219 61.179688 "/>
<path style=" stroke:none;fill-rule:nonzero;fill:rgb(100%,98.039216%,99.607843%);fill-opacity:1;" d="M 92.777344 61.027344 C 92.738281 60.304688 93.367188 58.632812 93.859375 58.082031 C 94.773438 57.039062 96.027344 56.523438 97.566406 56.542969 C 98.34375 56.542969 99.179688 56.675781 99.558594 56.867188 L 100.226562 57.152344 L 99.257812 57.171875 C 98.648438 57.191406 98.191406 57.285156 98.039062 57.476562 C 97.867188 57.683594 97.71875 57.703125 97.433594 57.550781 C 97.242188 57.4375 96.976562 57.398438 96.84375 57.4375 C 96.710938 57.492188 96.765625 57.589844 96.996094 57.683594 C 97.527344 57.894531 98.421875 58.558594 98.421875 58.746094 C 98.421875 58.824219 98.25 58.898438 98.039062 58.898438 C 97.792969 58.898438 97.699219 58.996094 97.773438 59.183594 C 97.925781 59.566406 97.46875 59.546875 97.183594 59.148438 C 97.050781 58.976562 96.863281 58.898438 96.710938 58.996094 C 96.519531 59.109375 96.539062 59.164062 96.730469 59.300781 C 96.9375 59.449219 96.9375 59.507812 96.671875 59.660156 C 96.5 59.773438 96.234375 59.984375 96.082031 60.136719 C 95.929688 60.285156 95.761719 60.34375 95.683594 60.285156 C 95.628906 60.210938 95.417969 60.152344 95.226562 60.136719 C 94.886719 60.117188 93.898438 59.28125 94.203125 59.28125 C 94.277344 59.28125 94.449219 59.375 94.582031 59.507812 C 94.695312 59.621094 94.847656 59.679688 94.925781 59.621094 C 94.980469 59.546875 94.847656 59.394531 94.621094 59.28125 C 94.070312 58.996094 93.765625 59.261719 93.5 60.304688 C 93.289062 61.140625 92.796875 61.617188 92.777344 61.027344 Z M 92.777344 61.027344 "/>
<path style=" stroke:none;fill-rule:nonzero;fill:rgb(100%,98.039216%,99.607843%);fill-opacity:1;" d="M 50.785156 60.039062 C 50.3125 59.851562 49.78125 58.9375 49.78125 58.328125 C 49.78125 57.703125 50.273438 56.90625 50.824219 56.65625 C 51.605469 56.296875 52.191406 56.390625 52.859375 56.980469 C 54.054688 58.046875 53.464844 59.925781 51.851562 60.136719 C 51.507812 60.191406 51.015625 60.136719 50.785156 60.039062 Z M 50.785156 60.039062 "/>
<path style=" stroke:none;fill-rule:nonzero;fill:rgb(100%,98.039216%,99.607843%);fill-opacity:1;" d="M 99.046875 60.003906 C 98.933594 59.867188 98.800781 59.546875 98.742188 59.28125 L 98.628906 58.804688 L 99.007812 59.261719 C 99.199219 59.507812 99.371094 59.8125 99.371094 59.964844 C 99.371094 60.285156 99.273438 60.304688 99.046875 60.003906 Z M 99.046875 60.003906 "/>
<path style=" stroke:none;fill-rule:nonzero;fill:rgb(100%,98.039216%,99.607843%);fill-opacity:1;" d="M 122.171875 59.984375 C 121.902344 59.851562 121.675781 59.621094 121.636719 59.46875 C 121.601562 59.242188 121.789062 59.203125 122.492188 59.242188 C 123.671875 59.300781 123.898438 59.128906 124.011719 58.0625 C 124.144531 57.019531 124.46875 56.925781 124.792969 57.855469 C 125 58.40625 124.980469 58.597656 124.734375 59.070312 C 124.429688 59.679688 123.574219 60.230469 122.988281 60.230469 C 122.796875 60.230469 122.4375 60.117188 122.171875 59.984375 Z M 122.171875 59.984375 "/>
<path style=" stroke:none;fill-rule:nonzero;fill:rgb(100%,98.039216%,99.607843%);fill-opacity:1;" d="M 122.683594 56.601562 C 122.835938 56.449219 123.042969 56.449219 123.441406 56.582031 C 123.976562 56.773438 123.976562 56.773438 123.234375 56.789062 C 122.683594 56.808594 122.53125 56.753906 122.683594 56.601562 Z M 122.683594 56.601562 "/>
</g>
</svg>
