<?xml version="1.0" encoding="UTF-8"?>
<svg xmlns="http://www.w3.org/2000/svg" xmlns:xlink="http://www.w3.org/1999/xlink" width="152px" height="114px" viewBox="0 0 150 43" version="1.1">
<g id="surface1">
<path style=" stroke:none;fill-rule:nonzero;fill:rgb(1.176471%,33.72549%,26.27451%);fill-opacity:1;" d="M 9.175781 41.976562 C 8.941406 41.601562 6.832031 38.300781 4.488281 34.625 C 2.144531 30.957031 0.234375 27.878906 0.234375 27.773438 C 0.234375 27.5625 0.292969 27.539062 7.652344 24.496094 C 12.410156 22.523438 13.582031 21.992188 13.523438 21.851562 C 13.265625 21.265625 12.996094 19.984375 12.878906 18.878906 C 12.585938 15.941406 13.195312 13.804688 14.976562 11.441406 C 17.554688 8.046875 21.539062 6.226562 26.378906 6.226562 C 28.40625 6.226562 30.5625 6.730469 32.355469 7.636719 C 32.742188 7.835938 33.128906 7.976562 33.210938 7.953125 C 33.28125 7.917969 33.445312 7.601562 33.550781 7.238281 C 33.914062 6.109375 33.316406 6.179688 41.460938 6.285156 C 45.796875 6.332031 48.632812 6.414062 48.714844 6.484375 C 48.808594 6.566406 48.9375 6.542969 49.125 6.414062 C 49.359375 6.25 50.390625 6.226562 58.757812 6.226562 C 68.015625 6.226562 68.132812 6.226562 68.636719 6.472656 C 68.90625 6.601562 69.246094 6.871094 69.375 7.050781 L 69.621094 7.390625 L 70.03125 6.933594 C 70.289062 6.648438 70.628906 6.414062 70.898438 6.34375 C 71.179688 6.273438 73.816406 6.238281 78.1875 6.25 L 85.042969 6.285156 L 83.4375 11.75 L 81.84375 17.210938 L 76.710938 17.328125 L 76.546875 17.859375 C 75.820312 20.3125 74.0625 26.527344 74.0625 26.632812 C 74.0625 26.75 75.222656 26.785156 79.546875 26.785156 L 85.019531 26.785156 L 87.234375 19.421875 C 88.453125 15.355469 89.835938 10.738281 90.328125 9.128906 L 91.207031 6.226562 L 97.054688 6.226562 C 101.460938 6.226562 102.890625 6.261719 102.890625 6.367188 C 102.890625 6.4375 102.386719 8.1875 101.777344 10.246094 C 101.167969 12.300781 100.664062 14.015625 100.664062 14.039062 C 100.664062 14.074219 102.691406 14.097656 105.175781 14.097656 L 109.6875 14.097656 L 109.617188 14.425781 C 109.570312 14.605469 109.488281 14.863281 109.441406 15.015625 C 109.207031 15.648438 109.335938 15.671875 109.957031 15.085938 C 112.898438 12.253906 116.707031 9.808594 120.527344 8.304688 C 123.304688 7.214844 127.886719 6.285156 131.894531 6.003906 C 133.253906 5.910156 136.394531 6.074219 138.011719 6.332031 C 138.421875 6.390625 138.632812 6.378906 138.667969 6.296875 C 138.703125 6.226562 139.207031 4.898438 139.804688 3.347656 C 140.402344 1.796875 140.964844 0.46875 141.058594 0.386719 C 141.152344 0.316406 141.304688 0.28125 141.398438 0.316406 C 141.621094 0.398438 149.707031 15.859375 149.707031 16.214844 C 149.707031 16.402344 149.625 16.542969 149.472656 16.613281 C 149.34375 16.660156 148.347656 17.058594 147.246094 17.492188 L 145.265625 18.269531 L 145.054688 19.5625 C 144.351562 23.839844 142.183594 28.300781 139.59375 30.804688 C 137.929688 32.414062 135.128906 34.421875 133.183594 35.398438 C 131.71875 36.128906 129.199219 36.84375 126.914062 37.171875 C 125.226562 37.40625 100.992188 37.5 100.769531 37.277344 C 100.652344 37.160156 100.652344 36.984375 100.734375 36.527344 C 100.839844 36.066406 100.828125 35.914062 100.710938 35.867188 C 100.488281 35.785156 99.972656 36.105469 99.222656 36.773438 L 98.542969 37.382812 L 93.738281 37.417969 C 88.511719 37.453125 88.511719 37.453125 88.664062 36.820312 C 88.910156 35.867188 88.570312 35.84375 87.621094 36.761719 L 86.871094 37.476562 L 80.53125 37.476562 L 80.144531 38.628906 L 79.746094 39.769531 L 75.210938 39.804688 C 72.703125 39.816406 70.664062 39.792969 70.664062 39.746094 C 70.664062 39.6875 70.816406 39.183594 71.003906 38.59375 L 71.34375 37.535156 L 66.445312 37.476562 C 63.410156 37.441406 61.488281 37.371094 61.417969 37.300781 C 61.359375 37.242188 61.289062 36.925781 61.265625 36.597656 L 61.230469 36.007812 L 60.972656 36.421875 C 60.832031 36.65625 60.492188 36.972656 60.210938 37.125 L 59.707031 37.417969 L 42.304688 37.453125 C 32.730469 37.464844 24.785156 37.453125 24.65625 37.417969 C 24.269531 37.324219 24.246094 37.089844 24.550781 36.1875 C 24.703125 35.738281 24.808594 35.363281 24.785156 35.363281 C 24.773438 35.363281 24.292969 35.644531 23.742188 35.996094 C 23.191406 36.351562 22.324219 36.808594 21.832031 37.007812 C 19.21875 38.101562 15.597656 38.453125 12.515625 37.902344 L 11.601562 37.75 L 11.320312 38.699219 C 11.15625 39.230469 10.863281 40.238281 10.652344 40.945312 C 10.453125 41.660156 10.230469 42.332031 10.171875 42.449219 C 9.972656 42.835938 9.621094 42.671875 9.175781 41.976562 Z M 78.117188 36.007812 C 78.328125 35.304688 78.539062 34.601562 78.574219 34.457031 L 78.632812 34.1875 L 75.058594 34.1875 L 74.71875 35.28125 C 74.53125 35.867188 74.308594 36.585938 74.226562 36.867188 L 74.074219 37.371094 L 75.902344 37.335938 L 77.71875 37.300781 Z M 10.066406 34.339844 C 10.359375 34.363281 11.0625 34.527344 11.625 34.695312 C 14.4375 35.515625 18.175781 35.234375 21.351562 33.953125 C 22.992188 33.296875 24.140625 32.554688 25.253906 31.425781 C 27.667969 29.007812 28.03125 26.210938 26.273438 23.496094 C 25.957031 23.015625 25.195312 22.003906 24.5625 21.265625 C 23.15625 19.585938 22.804688 18.914062 22.746094 17.765625 C 22.699219 16.695312 22.886719 16 23.390625 15.414062 C 24.421875 14.191406 26.835938 14.003906 28.769531 14.992188 C 29.214844 15.203125 29.578125 15.378906 29.589844 15.355469 C 29.601562 15.34375 30.210938 14.355469 30.9375 13.171875 L 32.273438 11.007812 L 31.933594 10.738281 C 31.394531 10.316406 29.53125 9.433594 28.582031 9.164062 C 27.351562 8.8125 25.640625 8.742188 24.257812 8.976562 C 21.902344 9.386719 20.074219 10.269531 18.503906 11.726562 C 16.488281 13.605469 15.46875 15.683594 15.46875 17.941406 C 15.46875 20.101562 16.253906 21.96875 18.046875 24.027344 C 18.433594 24.484375 18.890625 25.128906 19.054688 25.460938 C 19.324219 25.988281 19.359375 26.199219 19.3125 26.929688 C 19.265625 27.949219 19.007812 28.371094 18.175781 28.820312 C 17.425781 29.230469 16.605469 29.371094 15.070312 29.371094 C 13.710938 29.371094 12.914062 29.207031 12.046875 28.773438 C 11.484375 28.492188 11.472656 28.253906 11.953125 26.84375 C 12.140625 26.269531 12.28125 25.789062 12.257812 25.765625 C 12.210938 25.707031 4.019531 28.9375 3.960938 29.03125 C 3.9375 29.078125 5.003906 30.757812 6.328125 32.777344 L 8.71875 36.445312 L 9.128906 35.363281 L 9.527344 34.28125 Z M 40.605469 22.179688 C 42.84375 15.050781 44.707031 9.152344 44.730469 9.082031 C 44.777344 8.964844 43.851562 8.929688 40.335938 8.929688 L 35.882812 8.929688 L 35.753906 9.316406 C 35.695312 9.515625 33.890625 15.34375 31.757812 22.238281 C 29.625 29.148438 27.84375 34.871094 27.808594 34.964844 C 27.761719 35.105469 28.394531 35.128906 32.132812 35.128906 L 36.527344 35.128906 Z M 58.617188 35 C 59.085938 34.894531 59.34375 34.753906 59.660156 34.421875 C 60.164062 33.894531 60.386719 33.226562 64.265625 21.03125 C 68.121094 8.882812 67.886719 9.65625 67.675781 9.328125 C 67.582031 9.175781 67.335938 9.023438 67.125 8.988281 C 66.914062 8.953125 62.683594 8.929688 57.714844 8.953125 L 48.691406 8.988281 L 48.199219 9.246094 C 47.90625 9.410156 47.589844 9.703125 47.414062 10.011719 C 47.25 10.28125 46.078125 13.640625 44.800781 17.457031 L 42.480469 24.414062 L 42.691406 24.835938 C 42.796875 25.070312 43.054688 25.367188 43.265625 25.496094 C 43.640625 25.71875 43.875 25.730469 49.664062 25.730469 C 56.800781 25.730469 56.484375 25.671875 56.484375 27.011719 C 56.484375 27.761719 56.296875 28.289062 55.851562 28.773438 C 55.171875 29.511719 55.382812 29.488281 48.140625 29.488281 C 43.148438 29.488281 41.472656 29.523438 41.25 29.640625 C 41.003906 29.757812 40.828125 30.160156 40.113281 32.308594 C 39.644531 33.695312 39.269531 34.90625 39.257812 34.988281 C 39.257812 35.1875 57.679688 35.199219 58.617188 35 Z M 71.648438 34.046875 C 71.824219 33.449219 72.105469 32.519531 72.269531 31.992188 L 72.5625 31.015625 L 76.230469 31.015625 C 78.234375 31.015625 80.53125 31.050781 81.304688 31.097656 L 82.734375 31.167969 L 82.734375 31.546875 C 82.734375 31.757812 82.535156 32.648438 82.277344 33.53125 L 81.832031 35.128906 L 86.355469 35.128906 L 87.492188 34.246094 C 88.96875 33.085938 89.121094 33.011719 90.128906 33.011719 L 90.972656 33.011719 L 90.890625 34 C 90.820312 34.847656 90.832031 34.988281 90.996094 35.058594 C 91.101562 35.09375 92.730469 35.128906 94.628906 35.128906 C 97.6875 35.128906 98.074219 35.105469 98.214844 34.929688 C 98.496094 34.589844 100.078125 33.367188 100.570312 33.121094 C 100.910156 32.941406 101.203125 32.894531 101.695312 32.917969 L 102.363281 32.953125 L 102.363281 33.847656 C 102.363281 34.433594 102.421875 34.8125 102.527344 34.929688 C 102.667969 35.117188 103.558594 35.128906 113.367188 35.128906 C 124.886719 35.128906 125.285156 35.105469 127.699219 34.492188 C 130.6875 33.730469 133.546875 32.484375 135.234375 31.203125 C 137.214844 29.710938 139.21875 27.375 140.203125 25.414062 C 140.707031 24.402344 141.398438 22.570312 141.785156 21.21875 C 141.984375 20.511719 142.136719 19.925781 142.125 19.914062 C 142.101562 19.890625 140.683594 20.335938 138.960938 20.902344 L 135.820312 21.910156 L 135.269531 22.886719 C 134.4375 24.320312 133.78125 25.164062 132.644531 26.246094 C 131.039062 27.785156 129.035156 28.667969 125.976562 29.207031 C 124.886719 29.40625 124.066406 29.429688 118.828125 29.429688 C 113.074219 29.429688 112.898438 29.417969 112.5 29.183594 C 111.785156 28.761719 111.5625 28.300781 111.5625 27.199219 C 111.5625 26.375 111.609375 26.140625 111.890625 25.589844 C 112.96875 23.4375 117.046875 19.054688 119.449219 17.457031 C 121.582031 16.035156 124.464844 14.851562 127.019531 14.332031 C 129.832031 13.769531 135 13.722656 137.636719 14.25 L 138.339844 14.390625 L 138.375 14.863281 C 138.398438 15.191406 138.257812 15.753906 137.941406 16.660156 C 137.683594 17.386719 137.496094 17.976562 137.542969 17.976562 C 137.578125 17.976562 139.230469 17.398438 141.199219 16.695312 C 143.167969 15.988281 145.066406 15.320312 145.40625 15.203125 C 145.734375 15.085938 146.003906 14.945312 145.992188 14.910156 C 145.78125 14.402344 141.609375 6.730469 141.550781 6.753906 C 141.515625 6.777344 141.257812 7.414062 140.976562 8.164062 C 140.707031 8.917969 140.402344 9.5625 140.308594 9.597656 C 140.214844 9.632812 139.417969 9.527344 138.527344 9.363281 C 136.03125 8.882812 134.71875 8.777344 132.1875 8.847656 C 128.707031 8.953125 126.105469 9.410156 122.988281 10.480469 C 120.304688 11.394531 117.996094 12.488281 115.957031 13.792969 C 112.558594 15.964844 107.730469 20.878906 104.472656 25.472656 C 103.851562 26.351562 103.746094 26.433594 103.394531 26.433594 C 103.054688 26.433594 103.007812 26.398438 103.007812 26.140625 C 103.007812 25.917969 104.941406 19.46875 105.703125 17.128906 L 105.808594 16.800781 L 100.792969 16.800781 L 100.546875 17.597656 C 100.40625 18.035156 99.621094 20.796875 98.777344 23.730469 C 97.945312 26.667969 97.230469 29.171875 97.195312 29.289062 C 97.136719 29.464844 96.9375 29.488281 95.144531 29.488281 L 93.164062 29.488281 L 93.164062 29.183594 C 93.164062 29.019531 94.488281 24.542969 96.09375 19.234375 C 97.710938 13.933594 99.058594 9.46875 99.09375 9.316406 L 99.164062 9.046875 L 93.199219 9.046875 L 92.203125 12.3125 C 91.652344 14.097656 90.269531 18.703125 89.109375 22.535156 L 87.023438 29.488281 L 71.613281 29.488281 L 71.296875 29.21875 C 71.039062 28.996094 70.96875 28.820312 70.921875 28.300781 C 70.875 27.738281 71.097656 26.882812 72.597656 21.558594 C 73.546875 18.199219 74.402344 15.34375 74.496094 15.203125 C 74.777344 14.769531 75.269531 14.6875 77.589844 14.6875 C 78.808594 14.6875 79.804688 14.664062 79.804688 14.640625 C 79.804688 14.617188 80.167969 13.359375 80.625 11.855469 C 81.070312 10.351562 81.421875 9.105469 81.410156 9.09375 C 81.386719 9.070312 79.300781 9.046875 76.757812 9.023438 C 72.503906 8.988281 72.09375 9 71.660156 9.199219 C 71.121094 9.445312 70.59375 9.902344 70.371094 10.339844 C 70.195312 10.679688 63.304688 33.660156 63.269531 34.011719 C 63.234375 34.480469 63.28125 34.660156 63.515625 34.894531 C 63.738281 35.117188 63.902344 35.128906 67.535156 35.128906 L 71.320312 35.128906 Z M 121.40625 26.90625 C 125.613281 26.761719 127.160156 26.480469 129.128906 25.53125 C 130.476562 24.882812 131.25 24.15625 132.304688 22.546875 C 133.441406 20.832031 134.882812 17.730469 134.882812 17.035156 L 134.882812 16.765625 L 132.398438 16.835938 C 125.917969 17.023438 122.589844 18.351562 118.019531 22.59375 C 116.367188 24.121094 114.527344 26.375 114.644531 26.714844 C 114.738281 27 117.023438 27.058594 121.40625 26.90625 Z M 121.40625 26.90625 "/>
<path style=" stroke:none;fill-rule:nonzero;fill:rgb(1.176471%,33.72549%,26.27451%);fill-opacity:1;" d="M 51.011719 19.386719 C 49.980469 19.136719 49.652344 18.574219 49.710938 17.199219 C 49.746094 16.34375 49.792969 16.179688 50.097656 15.71875 C 50.296875 15.449219 50.695312 15.085938 50.976562 14.921875 L 51.503906 14.628906 L 56.34375 14.59375 L 61.171875 14.554688 L 61.160156 14.945312 C 61.160156 15.15625 60.855469 16.261719 60.492188 17.386719 L 59.8125 19.445312 L 55.605469 19.46875 C 53.285156 19.46875 51.210938 19.445312 51.011719 19.386719 Z M 51.011719 19.386719 "/>
<path style=" stroke:none;fill-rule:nonzero;fill:rgb(100%,100%,100%);fill-opacity:1;" d="M 73.59375 37.570312 C 73.59375 37.488281 73.839844 36.621094 74.144531 35.632812 L 74.707031 33.835938 L 76.957031 33.835938 C 78.199219 33.835938 79.21875 33.847656 79.21875 33.871094 C 79.21875 33.882812 78.960938 34.742188 78.644531 35.773438 L 78.070312 37.65625 L 75.832031 37.691406 C 74.097656 37.714844 73.59375 37.691406 73.59375 37.570312 Z M 73.59375 37.570312 "/>
<path style=" stroke:none;fill-rule:nonzero;fill:rgb(100%,100%,100%);fill-opacity:1;" d="M 63.175781 35.257812 C 62.859375 34.941406 62.765625 34.328125 62.90625 33.636719 C 63.011719 33.179688 68.238281 15.660156 69.621094 11.125 C 69.996094 9.925781 70.394531 9.304688 71.027344 8.976562 C 71.765625 8.601562 72.539062 8.554688 77.296875 8.636719 L 81.996094 8.71875 L 81.445312 10.621094 C 81.140625 11.65625 80.71875 13.078125 80.507812 13.78125 L 80.121094 15.039062 L 77.929688 15.039062 C 75.621094 15.039062 75.128906 15.121094 74.847656 15.554688 C 74.753906 15.695312 73.898438 18.550781 72.960938 21.886719 C 71.695312 26.339844 71.25 28.066406 71.308594 28.324219 C 71.355469 28.515625 71.519531 28.773438 71.683594 28.902344 C 71.976562 29.136719 72.152344 29.136719 79.324219 29.136719 L 86.671875 29.136719 L 88.757812 22.179688 C 89.917969 18.351562 91.300781 13.746094 91.851562 11.960938 L 92.847656 8.695312 L 99.726562 8.695312 L 99.65625 8.976562 C 99.621094 9.128906 98.238281 13.710938 96.574219 19.160156 L 93.5625 29.078125 L 95.132812 29.113281 C 96 29.125 96.726562 29.125 96.75 29.101562 C 96.785156 29.078125 97.535156 26.46875 98.4375 23.308594 C 99.339844 20.148438 100.160156 17.316406 100.265625 17 L 100.453125 16.449219 L 103.371094 16.449219 C 105.632812 16.449219 106.289062 16.484375 106.289062 16.601562 C 106.289062 16.671875 105.632812 18.84375 104.835938 21.417969 C 104.039062 23.992188 103.429688 26.058594 103.476562 26 C 103.523438 25.953125 103.839844 25.507812 104.191406 25.023438 C 107.402344 20.5 112.230469 15.601562 115.605469 13.441406 C 118.289062 11.726562 121.910156 10.1875 125.25 9.339844 C 129.375 8.292969 135.140625 8.175781 139.078125 9.035156 L 140.0625 9.246094 L 140.261719 8.765625 C 140.378906 8.496094 140.695312 7.660156 140.976562 6.894531 C 141.257812 6.132812 141.515625 5.558594 141.5625 5.605469 C 141.703125 5.78125 146.601562 15.039062 146.601562 15.144531 C 146.601562 15.203125 145.980469 15.472656 145.230469 15.742188 C 144.46875 16 142.277344 16.789062 140.355469 17.46875 C 138.445312 18.152344 136.851562 18.691406 136.816406 18.65625 C 136.792969 18.632812 137.0625 17.777344 137.425781 16.753906 C 137.847656 15.589844 138.046875 14.875 137.976562 14.804688 C 137.789062 14.617188 135.679688 14.34375 133.792969 14.261719 C 131.660156 14.179688 129.046875 14.34375 127.371094 14.6875 C 124.816406 15.203125 121.933594 16.390625 119.800781 17.8125 C 117.398438 19.410156 113.320312 23.789062 112.242188 25.941406 C 111.632812 27.140625 111.867188 28.253906 112.851562 28.832031 C 113.25 29.066406 113.425781 29.078125 118.828125 29.078125 C 123.726562 29.078125 124.546875 29.054688 125.625 28.855469 C 127.441406 28.539062 128.695312 28.148438 130.054688 27.480469 C 131.941406 26.539062 133.640625 24.8125 134.941406 22.5 L 135.46875 21.546875 L 138.890625 20.453125 C 140.777344 19.84375 142.394531 19.328125 142.488281 19.292969 C 142.980469 19.101562 141.644531 23.589844 140.554688 25.765625 C 139.570312 27.726562 137.566406 30.066406 135.585938 31.558594 C 133.898438 32.835938 131.039062 34.082031 128.050781 34.847656 C 125.625 35.457031 125.261719 35.480469 113.355469 35.480469 L 102.316406 35.480469 L 102.070312 35.164062 C 101.871094 34.90625 101.835938 34.753906 101.894531 34.421875 C 101.941406 34.199219 101.988281 33.859375 102 33.660156 C 102.011719 33.367188 101.964844 33.308594 101.695312 33.273438 C 101.53125 33.25 101.179688 33.34375 100.921875 33.472656 C 100.429688 33.71875 98.847656 34.941406 98.566406 35.28125 C 98.425781 35.457031 98.015625 35.480469 94.558594 35.480469 C 91.113281 35.480469 90.703125 35.457031 90.527344 35.28125 C 90.328125 35.082031 90.328125 34.777344 90.539062 33.753906 L 90.609375 33.367188 L 90.128906 33.367188 C 89.496094 33.367188 89.214844 33.519531 87.84375 34.601562 L 86.707031 35.480469 L 84.023438 35.480469 C 82.535156 35.480469 81.328125 35.445312 81.328125 35.398438 C 81.328125 35.339844 81.5625 34.457031 81.855469 33.4375 C 82.148438 32.402344 82.359375 31.535156 82.324219 31.511719 C 82.289062 31.472656 80.167969 31.414062 77.601562 31.390625 L 72.925781 31.332031 L 72.621094 32.320312 C 72.457031 32.859375 72.175781 33.800781 72 34.398438 L 71.671875 35.480469 L 67.535156 35.480469 C 63.597656 35.480469 63.386719 35.46875 63.175781 35.257812 Z M 63.175781 35.257812 "/>
<path style=" stroke:none;fill-rule:nonzero;fill:rgb(98.039216%,92.941176%,12.941176%);fill-opacity:1;" d="M 5.953125 33.109375 C 3.867188 29.910156 3.210938 28.832031 3.328125 28.761719 C 3.457031 28.691406 7.980469 26.894531 12.972656 24.941406 C 13.042969 24.90625 12.855469 25.636719 12.539062 26.539062 L 11.953125 28.195312 L 12.398438 28.421875 C 13.171875 28.820312 14.074219 29.019531 15.070312 29.019531 C 17.390625 29.019531 18.808594 28.253906 18.960938 26.953125 C 19.03125 26.269531 18.632812 25.472656 17.695312 24.378906 C 16.40625 22.898438 15.5625 21.347656 15.246094 19.878906 C 15.058594 18.972656 15.082031 16.753906 15.292969 15.917969 C 16.054688 12.96875 18.691406 10.234375 21.832031 9.152344 C 23.378906 8.625 24.785156 8.421875 26.542969 8.496094 C 28.183594 8.566406 28.992188 8.742188 30.292969 9.304688 C 30.9375 9.585938 32.648438 10.539062 32.917969 10.761719 C 32.953125 10.796875 29.859375 15.90625 29.695312 16.082031 C 29.671875 16.105469 29.378906 15.929688 29.039062 15.695312 C 26.71875 14.097656 23.789062 14.628906 23.203125 16.742188 C 22.863281 17.964844 23.273438 18.949219 24.914062 20.914062 C 26.953125 23.332031 27.574219 24.554688 27.738281 26.375 C 28.007812 29.6875 25.746094 32.683594 21.714844 34.304688 C 20.179688 34.917969 18.386719 35.328125 16.5 35.492188 C 14.261719 35.679688 12.410156 35.445312 10.066406 34.707031 C 9.914062 34.648438 9.773438 34.929688 9.375 35.996094 C 9.09375 36.75 8.835938 37.359375 8.800781 37.359375 C 8.765625 37.359375 7.476562 35.445312 5.953125 33.109375 Z M 5.953125 33.109375 "/>
<path style=" stroke:none;fill-rule:nonzero;fill:rgb(98.039216%,92.941176%,12.941176%);fill-opacity:1;" d="M 27.304688 35.164062 C 27.363281 34.976562 29.179688 29.101562 31.347656 22.085938 C 33.515625 15.074219 35.34375 9.164062 35.402344 8.964844 L 35.53125 8.578125 L 40.453125 8.578125 C 44.835938 8.578125 45.363281 8.601562 45.304688 8.753906 C 45.269531 8.859375 43.359375 14.910156 41.0625 22.203125 L 36.878906 35.480469 L 27.199219 35.480469 Z M 27.304688 35.164062 "/>
<path style=" stroke:none;fill-rule:nonzero;fill:rgb(98.039216%,92.941176%,12.941176%);fill-opacity:1;" d="M 38.683594 35.339844 C 38.683594 35.257812 39.117188 33.894531 39.644531 32.308594 C 40.464844 29.839844 40.652344 29.40625 40.898438 29.289062 C 41.121094 29.171875 42.785156 29.136719 47.777344 29.136719 C 52.125 29.136719 54.46875 29.089844 54.691406 29.007812 C 55.535156 28.691406 56.273438 27.480469 56.085938 26.738281 C 55.921875 26.09375 55.851562 26.082031 49.335938 26.082031 C 42.726562 26.082031 42.878906 26.09375 42.421875 25.34375 C 41.976562 24.613281 42.046875 24.320312 44.472656 17.035156 C 45.726562 13.265625 46.898438 9.949219 47.0625 9.667969 C 47.238281 9.351562 47.542969 9.058594 47.847656 8.894531 L 48.339844 8.636719 L 67.757812 8.636719 L 67.980469 8.917969 C 68.425781 9.46875 68.648438 8.660156 64.617188 21.382812 C 60.738281 33.578125 60.515625 34.246094 60.011719 34.777344 C 59.695312 35.105469 59.4375 35.246094 58.96875 35.351562 C 58.03125 35.550781 38.671875 35.539062 38.683594 35.339844 Z M 60.128906 17.035156 L 60.785156 14.980469 L 56.578125 14.945312 C 52.253906 14.921875 51.832031 14.957031 51.128906 15.378906 C 49.921875 16.117188 49.675781 18.082031 50.683594 18.75 C 51.210938 19.089844 51.667969 19.125 55.605469 19.113281 L 59.460938 19.089844 Z M 60.128906 17.035156 "/>
</g>
</svg>
