<?xml version="1.0" encoding="UTF-8"?>
<svg xmlns="http://www.w3.org/2000/svg" xmlns:xlink="http://www.w3.org/1999/xlink" width="152px" height="114px" viewBox="0 0 151 121" version="1.1">
<g id="surface1">
<path style=" stroke:none;fill-rule:nonzero;fill:rgb(9.803922%,18.039216%,34.117647%);fill-opacity:1;" d="M 0 102.421875 L 0 102.207031 L 0.246094 102.179688 C 0.695312 102.125 0.980469 101.90625 1.113281 101.5 C 1.175781 101.3125 1.183594 100.324219 1.171875 90.882812 L 1.160156 80.46875 L 1.0625 80.261719 C 0.9375 79.984375 0.703125 79.835938 0.304688 79.773438 L 0 79.726562 L 0 79.300781 L 6.40625 79.316406 C 12.148438 79.332031 12.855469 79.339844 13.257812 79.40625 C 15.84375 79.828125 17.847656 80.820312 19.644531 82.574219 C 20.378906 83.289062 20.863281 83.855469 21.371094 84.617188 C 22.714844 86.628906 23.34375 89.046875 23.199219 91.652344 C 23.136719 92.828125 22.976562 93.703125 22.628906 94.75 C 22.109375 96.316406 21.238281 97.726562 20.007812 99.003906 C 18.09375 100.988281 16.046875 102.074219 13.375 102.515625 C 12.816406 102.609375 12.710938 102.609375 6.40625 102.621094 L 0 102.640625 Z M 12.367188 101.09375 C 13.921875 100.902344 15.105469 100.167969 15.648438 99.066406 C 15.761719 98.84375 15.90625 98.460938 15.972656 98.21875 L 16.089844 97.78125 L 16.089844 84.160156 L 15.96875 83.71875 C 15.773438 83.015625 15.503906 82.511719 15.082031 82.089844 C 14.496094 81.496094 13.816406 81.140625 12.839844 80.925781 C 12.4375 80.839844 12.265625 80.828125 10.1875 80.8125 L 7.96875 80.789062 L 7.976562 90.605469 L 7.988281 100.414062 L 8.082031 100.613281 C 8.1875 100.835938 8.398438 101.039062 8.574219 101.078125 C 8.636719 101.09375 8.710938 101.109375 8.734375 101.117188 C 8.851562 101.160156 12.023438 101.136719 12.367188 101.09375 Z M 12.367188 101.09375 "/>
<path style=" stroke:none;fill-rule:nonzero;fill:rgb(9.803922%,18.039216%,34.117647%);fill-opacity:1;" d="M 36.578125 102.605469 C 33.246094 102.304688 30.386719 100.675781 28.25 97.859375 C 27.074219 96.308594 26.351562 94.488281 26.085938 92.417969 C 26 91.765625 26.015625 90.042969 26.105469 89.367188 C 26.285156 88.074219 26.609375 87.003906 27.164062 85.875 C 27.742188 84.695312 28.4375 83.730469 29.390625 82.761719 C 31.273438 80.867188 33.347656 79.804688 35.929688 79.40625 C 36.628906 79.300781 38.535156 79.300781 39.25 79.40625 C 40.691406 79.621094 41.980469 80.050781 43.175781 80.714844 C 46.355469 82.472656 48.535156 85.605469 49.082031 89.207031 C 49.210938 90.03125 49.242188 91.433594 49.148438 92.273438 C 48.863281 94.953125 47.777344 97.238281 45.851562 99.1875 C 43.894531 101.171875 41.621094 102.289062 38.96875 102.570312 C 38.433594 102.625 37.050781 102.648438 36.578125 102.605469 Z M 38.636719 100.941406 C 39.246094 100.851562 39.667969 100.726562 40.082031 100.527344 C 41.113281 100.011719 41.832031 98.960938 42.050781 97.640625 C 42.113281 97.253906 42.121094 96.515625 42.109375 90.683594 L 42.09375 84.160156 L 41.976562 83.71875 C 41.660156 82.558594 41.027344 81.792969 39.96875 81.285156 C 38.832031 80.742188 37.082031 80.648438 35.808594 81.066406 C 34.65625 81.445312 33.824219 82.214844 33.449219 83.253906 C 33.152344 84.066406 33.164062 83.730469 33.164062 90.902344 C 33.164062 97.878906 33.15625 97.636719 33.390625 98.394531 C 33.703125 99.386719 34.285156 100.050781 35.261719 100.527344 C 35.964844 100.867188 36.59375 100.996094 37.585938 101.003906 C 37.933594 101.003906 38.390625 100.976562 38.636719 100.941406 Z M 38.636719 100.941406 "/>
<path style=" stroke:none;fill-rule:nonzero;fill:rgb(9.803922%,18.039216%,34.117647%);fill-opacity:1;" d="M 50.875 102.417969 L 50.875 102.207031 L 51.101562 102.183594 C 51.222656 102.164062 51.417969 102.109375 51.527344 102.054688 C 51.691406 101.972656 51.75 101.90625 51.859375 101.691406 L 51.988281 101.425781 L 52.003906 91.078125 C 52.007812 83.847656 52 80.664062 51.96875 80.503906 C 51.875 80.058594 51.59375 79.8125 51.128906 79.761719 L 50.875 79.730469 L 50.875 79.304688 L 59.671875 79.304688 L 59.671875 79.523438 C 59.671875 79.734375 59.667969 79.742188 59.550781 79.742188 C 59.300781 79.742188 58.957031 79.878906 58.792969 80.046875 C 58.507812 80.328125 58.515625 80.253906 58.503906 83.542969 C 58.496094 85.1875 58.496094 86.855469 58.5 87.257812 L 58.511719 87.980469 L 58.675781 87.71875 C 59.15625 86.925781 60.066406 86.175781 61.402344 85.464844 C 61.71875 85.300781 64.328125 83.863281 67.207031 82.277344 C 70.085938 80.691406 72.476562 79.382812 72.515625 79.367188 C 72.585938 79.339844 72.589844 79.414062 72.589844 80.222656 L 72.589844 81.105469 L 72.371094 81.105469 C 72.152344 81.105469 72.152344 81.105469 72.152344 80.960938 C 72.152344 80.816406 72.050781 80.621094 71.972656 80.621094 C 71.941406 80.621094 63.933594 86.285156 63.789062 86.410156 C 63.777344 86.421875 63.765625 86.660156 63.769531 86.941406 C 63.769531 87.347656 63.789062 87.507812 63.863281 87.699219 C 63.933594 87.898438 70.089844 98.5 71.628906 101.078125 C 72.03125 101.757812 72.289062 102.023438 72.636719 102.125 C 72.765625 102.164062 72.902344 102.195312 72.949219 102.195312 C 73.011719 102.195312 73.027344 102.230469 73.027344 102.414062 L 73.027344 102.632812 L 63.527344 102.632812 L 63.527344 102.214844 L 63.828125 102.167969 C 64.496094 102.058594 64.648438 101.667969 64.273438 100.988281 C 64.207031 100.867188 63.277344 99.285156 62.207031 97.472656 C 61.136719 95.660156 59.875 93.527344 59.410156 92.726562 C 58.945312 91.933594 58.546875 91.257812 58.527344 91.234375 C 58.503906 91.210938 58.496094 93.386719 58.5 96.285156 L 58.511719 101.382812 L 58.636719 101.636719 C 58.792969 101.957031 58.996094 102.09375 59.382812 102.164062 L 59.671875 102.214844 L 59.671875 102.632812 L 50.875 102.632812 Z M 50.875 102.417969 "/>
<path style=" stroke:none;fill-rule:nonzero;fill:rgb(9.803922%,18.039216%,34.117647%);fill-opacity:1;" d="M 74.691406 102.417969 L 74.691406 102.207031 L 74.90625 102.179688 C 75.449219 102.109375 75.6875 101.855469 75.78125 101.269531 C 75.8125 101.078125 75.828125 98.066406 75.828125 92.253906 L 75.828125 83.519531 L 75.992188 83.421875 C 76.082031 83.367188 77.804688 82.425781 79.8125 81.320312 L 83.46875 79.3125 L 83.480469 79.515625 C 83.5 79.734375 83.503906 79.726562 83.160156 79.933594 C 83.046875 80 82.960938 80.066406 82.96875 80.074219 C 82.976562 80.082031 83.214844 80.007812 83.488281 79.914062 C 84.589844 79.53125 85.5625 79.355469 86.796875 79.316406 C 89.484375 79.234375 91.726562 79.917969 93.777344 81.449219 C 94.441406 81.941406 95.609375 83.113281 96.109375 83.785156 C 97.152344 85.199219 97.820312 86.660156 98.160156 88.296875 C 98.402344 89.449219 98.386719 89.164062 98.417969 95.472656 C 98.441406 100.953125 98.449219 101.351562 98.519531 101.539062 C 98.664062 101.914062 98.945312 102.121094 99.386719 102.179688 L 99.601562 102.207031 L 99.601562 102.632812 L 90.84375 102.632812 L 90.84375 102.207031 L 91.085938 102.183594 C 91.628906 102.125 91.859375 101.851562 91.945312 101.179688 C 91.96875 100.933594 91.984375 98.179688 91.96875 92.992188 C 91.957031 86.007812 91.949219 85.125 91.882812 84.773438 C 91.660156 83.535156 91.300781 82.757812 90.640625 82.097656 C 90.097656 81.554688 89.351562 81.136719 88.550781 80.929688 C 87.707031 80.714844 86.515625 80.71875 85.621094 80.949219 C 84.632812 81.203125 83.703125 81.820312 83.179688 82.585938 C 82.847656 83.070312 82.542969 83.84375 82.433594 84.511719 L 82.375 84.863281 L 82.351562 84.355469 C 82.308594 83.296875 82.253906 90.285156 82.273438 95.671875 C 82.285156 100.832031 82.292969 101.3125 82.363281 101.519531 C 82.5 101.933594 82.746094 102.125 83.199219 102.179688 L 83.445312 102.207031 L 83.445312 102.632812 L 74.691406 102.632812 Z M 74.691406 102.417969 "/>
<path style=" stroke:none;fill-rule:nonzero;fill:rgb(9.803922%,18.039216%,34.117647%);fill-opacity:1;" d="M 111.664062 102.585938 C 108.996094 102.332031 106.59375 101.167969 104.597656 99.160156 C 102.734375 97.289062 101.675781 95.15625 101.328125 92.574219 C 101.234375 91.902344 101.222656 90.21875 101.304688 89.5625 C 101.375 88.988281 101.539062 88.171875 101.679688 87.675781 C 102.261719 85.644531 103.46875 83.753906 105.109375 82.277344 C 106.925781 80.652344 108.761719 79.777344 111.160156 79.40625 C 111.847656 79.300781 113.804688 79.300781 114.5 79.40625 C 116.46875 79.707031 118.199219 80.429688 119.675781 81.5625 C 119.933594 81.757812 120.1875 81.945312 120.238281 81.980469 C 120.332031 82.039062 120.484375 81.960938 122.722656 80.734375 C 124.03125 80.015625 125.148438 79.398438 125.203125 79.367188 C 125.300781 79.304688 125.300781 79.304688 125.300781 79.519531 L 125.300781 79.738281 L 125.027344 79.925781 C 124.46875 80.296875 124.289062 80.539062 124.207031 81.023438 C 124.171875 81.21875 124.164062 84.242188 124.171875 91.34375 C 124.183594 100.949219 124.1875 101.390625 124.261719 101.589844 C 124.40625 101.953125 124.785156 102.195312 125.214844 102.195312 C 125.289062 102.195312 125.300781 102.226562 125.300781 102.414062 L 125.300781 102.632812 L 118.679688 102.628906 C 115.039062 102.625 111.882812 102.605469 111.664062 102.585938 Z M 116.835938 100.855469 C 117.105469 100.777344 117.300781 100.574219 117.386719 100.296875 C 117.46875 100.019531 117.46875 83.921875 117.386719 83.566406 C 117.140625 82.511719 116.097656 81.585938 114.605469 81.085938 C 113.914062 80.855469 113.441406 80.785156 112.558594 80.785156 C 111.722656 80.785156 111.28125 80.832031 110.636719 81 C 109.25 81.359375 108.273438 82.339844 107.925781 83.71875 C 107.746094 84.433594 107.738281 84.761719 107.753906 91.210938 C 107.769531 97.292969 107.769531 97.390625 107.863281 97.78125 C 108.046875 98.574219 108.328125 99.128906 108.765625 99.578125 C 109.476562 100.300781 110.480469 100.726562 111.839844 100.890625 C 111.914062 100.898438 113.015625 100.914062 114.292969 100.917969 C 116.25 100.921875 116.648438 100.914062 116.835938 100.855469 Z M 116.835938 100.855469 "/>
<path style=" stroke:none;fill-rule:nonzero;fill:rgb(9.803922%,18.039216%,34.117647%);fill-opacity:1;" d="M 126.964844 102.414062 C 126.964844 102.226562 126.976562 102.195312 127.050781 102.195312 C 127.5 102.195312 127.867188 101.949219 128 101.566406 C 128.078125 101.347656 128.082031 100.859375 128.082031 90.925781 L 128.082031 80.511719 L 127.949219 80.25 C 127.839844 80.035156 127.78125 79.96875 127.617188 79.882812 C 127.507812 79.832031 127.316406 79.773438 127.191406 79.757812 L 126.964844 79.730469 L 126.964844 79.304688 L 135.765625 79.304688 L 135.765625 79.730469 L 135.523438 79.761719 C 135.097656 79.808594 134.859375 79.960938 134.710938 80.257812 C 134.605469 80.464844 134.605469 80.496094 134.589844 81.910156 C 134.582031 82.699219 134.585938 83.347656 134.601562 83.347656 C 134.613281 83.347656 134.765625 83.296875 134.941406 83.242188 C 136.683594 82.652344 138.671875 82.511719 140.589844 82.835938 C 142.8125 83.21875 144.769531 84.25 146.425781 85.917969 C 147.363281 86.855469 148.066406 87.835938 148.632812 88.976562 C 149.230469 90.183594 149.527344 91.167969 149.761719 92.746094 C 149.816406 93.132812 149.835938 93.894531 149.855469 97.320312 L 149.882812 101.425781 L 150.015625 101.691406 C 150.167969 101.996094 150.371094 102.125 150.761719 102.179688 L 151 102.203125 L 151 102.632812 L 142.199219 102.632812 L 142.199219 102.207031 L 142.449219 102.183594 C 142.84375 102.144531 143.070312 101.996094 143.230469 101.691406 L 143.359375 101.429688 L 143.359375 87.015625 L 143.265625 86.707031 C 142.886719 85.5 141.386719 84.476562 139.59375 84.199219 C 139 84.101562 137.75 84.136719 137.164062 84.265625 C 136.335938 84.445312 135.804688 84.683594 135.316406 85.089844 C 135.042969 85.320312 134.589844 85.863281 134.554688 86.003906 C 134.546875 86.054688 134.542969 89.511719 134.546875 93.695312 C 134.558594 100.574219 134.570312 101.3125 134.628906 101.5 C 134.785156 101.9375 134.976562 102.089844 135.457031 102.171875 L 135.742188 102.222656 L 135.742188 102.613281 L 131.355469 102.625 L 126.964844 102.632812 Z M 126.964844 102.414062 "/>
<path style=" stroke:none;fill-rule:nonzero;fill:rgb(24.705882%,34.901961%,50.980392%);fill-opacity:1;" d="M 43.328125 67.882812 C 40.089844 67.585938 37.320312 66.0625 35.179688 63.398438 C 33.9375 61.859375 33.175781 60.089844 32.847656 57.996094 C 32.734375 57.269531 32.738281 55.351562 32.847656 54.546875 C 32.945312 53.867188 33.203125 52.820312 33.425781 52.214844 C 33.804688 51.179688 34.476562 49.984375 35.1875 49.09375 C 36.828125 47.035156 38.976562 45.578125 41.285156 44.972656 C 42.421875 44.675781 42.863281 44.621094 44.285156 44.617188 C 45.132812 44.617188 45.683594 44.632812 45.949219 44.675781 C 48.082031 44.996094 49.882812 45.777344 51.480469 47.070312 L 51.804688 47.328125 L 51.945312 47.261719 C 52.023438 47.222656 53.09375 46.640625 54.316406 45.964844 C 55.539062 45.292969 56.609375 44.703125 56.6875 44.664062 L 56.828125 44.589844 L 56.828125 44.808594 C 56.828125 45.015625 56.824219 45.03125 56.636719 45.140625 C 56.25 45.363281 55.964844 45.640625 55.832031 45.898438 L 55.710938 46.15625 L 55.699219 56.097656 L 55.6875 66.035156 L 58.742188 66.027344 L 61.792969 66.015625 L 62.019531 65.671875 C 62.414062 65.085938 62.671875 64.324219 62.777344 63.464844 C 62.808594 63.207031 62.824219 61.808594 62.824219 59.441406 C 62.824219 56.039062 62.828125 55.808594 62.902344 55.746094 C 62.984375 55.675781 70.375 51.625 70.417969 51.625 C 70.429688 51.625 70.441406 51.71875 70.441406 51.835938 C 70.4375 52.039062 70.433594 52.046875 70.207031 52.183594 C 69.882812 52.378906 69.535156 52.703125 69.4375 52.898438 C 69.386719 52.992188 69.335938 53.179688 69.308594 53.320312 C 69.257812 53.671875 69.296875 62.847656 69.351562 63.417969 C 69.445312 64.289062 69.691406 65.011719 70.113281 65.667969 L 70.355469 66.035156 L 76.007812 66.035156 C 80.96875 66.035156 81.65625 66.027344 81.632812 65.96875 C 81.621094 65.933594 80.824219 64.578125 79.863281 62.953125 C 78.902344 61.324219 77.675781 59.242188 77.140625 58.324219 C 76.601562 57.40625 76.085938 56.535156 75.996094 56.390625 C 75.609375 55.785156 75.425781 55.011719 75.511719 54.335938 C 75.632812 53.398438 76.070312 52.679688 76.890625 52.050781 C 77.804688 51.351562 81.832031 49.070312 88.296875 45.589844 C 89.628906 44.871094 90.746094 44.273438 90.78125 44.257812 C 90.835938 44.238281 90.84375 44.363281 90.84375 45.117188 L 90.84375 46 L 90.421875 46 L 90.390625 45.835938 C 90.375 45.742188 90.324219 45.628906 90.28125 45.589844 C 90.195312 45.507812 90.074219 45.59375 85.671875 48.738281 L 81.148438 51.964844 L 81.15625 52.222656 C 81.160156 52.511719 81.292969 52.921875 81.445312 53.160156 C 81.503906 53.246094 83.171875 56.09375 85.152344 59.488281 C 89.164062 66.367188 89.414062 66.789062 89.570312 66.992188 C 89.742188 67.210938 90.039062 67.390625 90.324219 67.445312 L 90.582031 67.5 L 90.582031 67.925781 L 82.101562 67.925781 C 76.738281 67.925781 73.425781 67.90625 73.09375 67.882812 C 70.523438 67.660156 68.484375 66.753906 66.515625 64.945312 L 66.066406 64.539062 L 65.5625 65 C 63.789062 66.621094 62.054688 67.449219 59.628906 67.828125 C 59.21875 67.890625 58.339844 67.898438 51.441406 67.90625 C 47.191406 67.910156 43.542969 67.898438 43.328125 67.882812 Z M 48.507812 65.898438 C 48.773438 65.839844 48.980469 65.671875 49.097656 65.425781 L 49.1875 65.222656 L 49.1875 48.703125 L 49.082031 48.378906 C 48.675781 47.140625 47.128906 46.09375 45.292969 45.820312 C 44.796875 45.75 43.671875 45.757812 43.144531 45.847656 C 42.101562 46.015625 41.371094 46.328125 40.808594 46.863281 C 40.109375 47.519531 39.714844 48.34375 39.582031 49.40625 C 39.515625 49.960938 39.515625 61.769531 39.582031 62.324219 C 39.746094 63.636719 40.226562 64.476562 41.1875 65.105469 C 41.804688 65.507812 42.523438 65.757812 43.417969 65.882812 C 43.957031 65.953125 48.207031 65.96875 48.507812 65.898438 Z M 48.507812 65.898438 "/>
<path style=" stroke:none;fill-rule:nonzero;fill:rgb(24.705882%,34.901961%,50.980392%);fill-opacity:1;" d="M 95.179688 67.683594 L 95.179688 67.441406 L 95.324219 67.441406 C 95.582031 67.441406 95.914062 67.316406 96.074219 67.15625 C 96.371094 66.859375 96.382812 66.761719 96.382812 64.738281 C 96.382812 62.773438 96.367188 62.570312 96.148438 62.265625 C 96 62.058594 95.765625 61.945312 95.441406 61.910156 L 95.203125 61.882812 L 95.1875 61.65625 L 95.175781 61.421875 L 104.203125 61.421875 L 104.191406 61.65625 L 104.175781 61.882812 L 103.9375 61.910156 C 103.472656 61.957031 103.207031 62.160156 103.078125 62.578125 C 103.015625 62.761719 103 63.046875 102.980469 64.09375 C 102.964844 65.515625 102.976562 65.636719 103.226562 65.875 L 103.347656 65.992188 L 106.523438 65.984375 L 109.691406 65.96875 L 109.957031 65.847656 C 110.890625 65.40625 111.519531 64.453125 111.804688 63.023438 C 111.875 62.660156 111.882812 62.148438 111.894531 56.347656 C 111.902344 51.9375 111.894531 49.902344 111.859375 49.523438 C 111.671875 47.464844 110.722656 46.195312 108.921875 45.605469 C 108.113281 45.335938 107.917969 45.320312 105.707031 45.320312 L 103.695312 45.320312 L 103.488281 45.421875 C 103.277344 45.527344 103.140625 45.699219 103.050781 45.964844 C 103.019531 46.050781 102.988281 46.671875 102.976562 47.445312 L 102.949219 48.78125 L 99.710938 50.554688 C 97.929688 51.527344 96.457031 52.328125 96.441406 52.328125 C 96.417969 52.328125 96.40625 50.859375 96.40625 49.066406 C 96.40625 47.027344 96.386719 45.699219 96.363281 45.523438 C 96.265625 44.949219 96.03125 44.710938 95.484375 44.625 L 95.179688 44.578125 L 95.179688 44.152344 L 101.757812 44.167969 C 107.734375 44.183594 108.375 44.191406 108.765625 44.257812 C 110.953125 44.640625 112.761719 45.433594 114.289062 46.683594 C 116.816406 48.742188 118.296875 51.320312 118.71875 54.394531 C 118.8125 55.078125 118.824219 56.792969 118.742188 57.46875 C 118.476562 59.628906 117.765625 61.394531 116.484375 63.113281 C 116.042969 63.707031 114.894531 64.886719 114.3125 65.351562 C 112.929688 66.457031 111.195312 67.289062 109.550781 67.636719 C 108.277344 67.902344 108.570312 67.894531 101.585938 67.910156 L 95.179688 67.929688 Z M 95.179688 67.683594 "/>
<path style=" stroke:none;fill-rule:nonzero;fill:rgb(24.705882%,34.901961%,50.980392%);fill-opacity:1;" d="M 65.242188 50.964844 C 64.683594 50.816406 64.257812 50.5625 63.789062 50.085938 C 63.097656 49.394531 62.851562 48.816406 62.851562 47.847656 C 62.847656 47.253906 62.929688 46.886719 63.164062 46.417969 C 63.550781 45.644531 64.285156 45.007812 65.085938 44.746094 C 65.445312 44.625 65.523438 44.617188 66.109375 44.617188 C 66.679688 44.621094 66.777344 44.632812 67.097656 44.738281 C 67.566406 44.898438 68.03125 45.207031 68.40625 45.613281 C 68.765625 46.003906 68.964844 46.320312 69.109375 46.734375 C 69.660156 48.324219 69 49.996094 67.515625 50.742188 C 66.898438 51.058594 65.945312 51.152344 65.242188 50.964844 Z M 65.242188 50.964844 "/>
<path style=" stroke:none;fill-rule:nonzero;fill:rgb(76.470588%,70.980392%,63.529412%);fill-opacity:1;" d="M 35.078125 120.605469 C 34.15625 120.355469 33.492188 119.683594 33.175781 118.671875 C 33.089844 118.382812 33.078125 118.253906 33.078125 117.617188 C 33.078125 116.980469 33.089844 116.851562 33.175781 116.5625 C 33.566406 115.324219 34.457031 114.589844 35.679688 114.511719 C 36.492188 114.457031 37.160156 114.699219 37.699219 115.238281 C 38.242188 115.785156 38.503906 116.453125 38.558594 117.433594 L 38.585938 117.925781 L 34.019531 117.925781 L 34.035156 118.027344 C 34.132812 118.496094 34.179688 118.644531 34.316406 118.902344 C 34.546875 119.351562 34.933594 119.652344 35.425781 119.769531 C 35.742188 119.839844 36.214844 119.824219 36.539062 119.722656 C 36.796875 119.640625 36.875 119.589844 37.148438 119.316406 C 37.324219 119.140625 37.484375 118.960938 37.511719 118.917969 C 37.550781 118.832031 37.578125 118.84375 37.898438 119.066406 C 38.089844 119.195312 38.25 119.308594 38.261719 119.316406 C 38.300781 119.34375 37.945312 119.8125 37.746094 120.003906 C 37.492188 120.234375 37.203125 120.410156 36.824219 120.550781 C 36.414062 120.707031 35.542969 120.730469 35.078125 120.605469 Z M 37.625 116.972656 C 37.527344 116.433594 37.289062 115.96875 36.984375 115.726562 C 36.484375 115.332031 35.632812 115.265625 35.023438 115.578125 C 34.808594 115.6875 34.476562 116.011719 34.335938 116.253906 C 34.246094 116.410156 34.0625 116.957031 34.0625 117.070312 C 34.0625 117.125 34.351562 117.132812 35.855469 117.132812 L 37.65625 117.132812 Z M 37.625 116.972656 "/>
<path style=" stroke:none;fill-rule:nonzero;fill:rgb(76.470588%,70.980392%,63.529412%);fill-opacity:1;" d="M 54.390625 120.625 C 53.671875 120.429688 53.101562 119.898438 52.8125 119.171875 L 52.691406 118.867188 L 52.675781 116.75 L 52.664062 114.628906 L 53.671875 114.628906 L 53.683594 116.621094 L 53.695312 118.605469 L 53.824219 118.878906 C 54.292969 119.902344 55.703125 120.109375 56.472656 119.265625 C 56.871094 118.820312 56.871094 118.832031 56.871094 116.585938 L 56.871094 114.628906 L 57.921875 114.628906 L 57.921875 120.605469 L 56.972656 120.605469 L 56.945312 120.226562 C 56.9375 120.019531 56.914062 119.839844 56.898438 119.828125 C 56.882812 119.8125 56.824219 119.863281 56.761719 119.9375 C 56.601562 120.128906 56.101562 120.460938 55.796875 120.570312 C 55.460938 120.691406 54.726562 120.722656 54.390625 120.625 Z M 54.390625 120.625 "/>
<path style=" stroke:none;fill-rule:nonzero;fill:rgb(76.470588%,70.980392%,63.529412%);fill-opacity:1;" d="M 74.582031 120.621094 C 73.832031 120.433594 73.195312 119.921875 72.859375 119.238281 C 72.574219 118.660156 72.523438 118.402344 72.523438 117.617188 C 72.523438 117.035156 72.535156 116.882812 72.625 116.585938 C 72.976562 115.355469 73.890625 114.597656 75.125 114.511719 C 75.933594 114.453125 76.601562 114.695312 77.144531 115.238281 C 77.6875 115.789062 77.957031 116.457031 78.003906 117.433594 L 78.03125 117.925781 L 73.46875 117.925781 L 73.492188 118.070312 C 73.683594 119.167969 74.261719 119.746094 75.21875 119.804688 C 75.71875 119.832031 76.09375 119.738281 76.398438 119.511719 C 76.589844 119.359375 76.875 119.058594 76.960938 118.898438 C 76.996094 118.839844 77.054688 118.863281 77.34375 119.066406 C 77.535156 119.195312 77.699219 119.308594 77.707031 119.316406 C 77.746094 119.34375 77.390625 119.8125 77.195312 120.003906 C 76.941406 120.234375 76.652344 120.410156 76.269531 120.550781 C 75.898438 120.691406 74.996094 120.726562 74.582031 120.621094 Z M 77.070312 116.949219 C 76.910156 115.921875 76.199219 115.324219 75.214844 115.390625 C 74.40625 115.4375 73.828125 115.929688 73.578125 116.777344 C 73.539062 116.910156 73.507812 117.046875 73.507812 117.078125 C 73.507812 117.125 73.84375 117.132812 75.304688 117.132812 L 77.097656 117.132812 Z M 77.070312 116.949219 "/>
<path style=" stroke:none;fill-rule:nonzero;fill:rgb(76.470588%,70.980392%,63.529412%);fill-opacity:1;" d="M 87.253906 120.625 C 86.023438 120.292969 85.171875 119.109375 85.253906 117.851562 C 85.285156 117.417969 85.445312 116.914062 85.660156 116.570312 C 85.75 116.433594 85.988281 116.148438 86.195312 115.9375 L 86.570312 115.554688 L 86.289062 115.257812 C 85.953125 114.910156 85.839844 114.734375 85.722656 114.382812 C 85.289062 113.117188 86.097656 111.777344 87.433594 111.554688 C 88.617188 111.351562 89.777344 112.222656 89.921875 113.414062 L 89.953125 113.664062 L 89.007812 113.664062 L 89.007812 113.523438 C 89.003906 113.195312 88.6875 112.746094 88.328125 112.550781 C 88.070312 112.410156 87.488281 112.414062 87.210938 112.554688 C 86.925781 112.703125 86.75 112.890625 86.621094 113.1875 C 86.519531 113.414062 86.503906 113.5 86.519531 113.746094 C 86.527344 113.925781 86.570312 114.109375 86.632812 114.234375 C 86.699219 114.375 87.265625 114.972656 88.570312 116.277344 L 90.40625 118.121094 L 91.019531 117.507812 L 91.632812 116.890625 L 91.949219 117.210938 L 92.269531 117.527344 L 91.664062 118.136719 L 91.0625 118.738281 L 91.675781 119.351562 L 92.289062 119.96875 L 91.632812 120.625 L 90.410156 119.402344 L 90.046875 119.753906 C 89.339844 120.445312 88.871094 120.65625 88.019531 120.679688 C 87.65625 120.6875 87.421875 120.671875 87.253906 120.625 Z M 88.316406 119.765625 C 88.664062 119.691406 88.988281 119.492188 89.402344 119.101562 L 89.773438 118.746094 L 88.480469 117.476562 L 87.191406 116.203125 L 86.824219 116.578125 C 86.566406 116.847656 86.417969 117.046875 86.324219 117.257812 C 86.191406 117.527344 86.183594 117.585938 86.183594 118.011719 C 86.183594 118.421875 86.195312 118.5 86.300781 118.726562 C 86.527344 119.210938 87.03125 119.628906 87.539062 119.753906 C 87.824219 119.824219 88.03125 119.828125 88.316406 119.765625 Z M 88.316406 119.765625 "/>
<path style=" stroke:none;fill-rule:nonzero;fill:rgb(76.470588%,70.980392%,63.529412%);fill-opacity:1;" d="M 102.621094 120.667969 C 101.625 120.476562 100.871094 120.082031 100.230469 119.410156 C 99.660156 118.808594 99.308594 118.175781 99.085938 117.363281 C 98.980469 116.972656 98.972656 116.867188 98.972656 116.101562 C 98.972656 115.332031 98.980469 115.230469 99.089844 114.828125 C 99.460938 113.441406 100.421875 112.316406 101.644531 111.820312 C 102.21875 111.589844 102.539062 111.53125 103.300781 111.53125 C 103.890625 111.53125 104.058594 111.550781 104.375 111.632812 C 106.679688 112.261719 108.019531 114.570312 107.542969 117.105469 C 107.222656 118.78125 105.992188 120.140625 104.394531 120.566406 C 104.128906 120.636719 103.886719 120.660156 103.386719 120.671875 C 103.03125 120.679688 102.683594 120.675781 102.621094 120.667969 Z M 104.386719 119.519531 C 104.90625 119.335938 105.210938 119.144531 105.597656 118.757812 C 107.214844 117.15625 106.910156 114.121094 105.007812 112.964844 C 104.875 112.886719 104.597656 112.757812 104.386719 112.683594 C 103.882812 112.507812 103.089844 112.46875 102.550781 112.585938 C 101.300781 112.859375 100.355469 113.820312 100.035156 115.132812 C 99.898438 115.6875 99.898438 116.515625 100.035156 117.066406 C 100.339844 118.34375 101.246094 119.289062 102.4375 119.59375 C 102.714844 119.664062 102.890625 119.675781 103.386719 119.667969 C 103.941406 119.65625 104.039062 119.636719 104.386719 119.519531 Z M 104.386719 119.519531 "/>
<path style=" stroke:none;fill-rule:nonzero;fill:rgb(76.470588%,70.980392%,63.529412%);fill-opacity:1;" d="M 112.136719 120.625 C 111.425781 120.433594 110.832031 119.878906 110.550781 119.160156 L 110.4375 118.867188 L 110.425781 116.75 L 110.410156 114.628906 L 111.421875 114.628906 L 111.421875 116.53125 C 111.421875 118.582031 111.433594 118.703125 111.660156 119.0625 C 112.203125 119.921875 113.496094 120.039062 114.199219 119.285156 C 114.609375 118.847656 114.597656 118.929688 114.609375 116.640625 L 114.621094 114.628906 L 115.667969 114.628906 L 115.667969 120.605469 L 114.71875 120.605469 L 114.691406 120.226562 C 114.683594 120.019531 114.660156 119.84375 114.652344 119.835938 C 114.644531 119.824219 114.523438 119.921875 114.382812 120.050781 C 114.105469 120.308594 113.710938 120.53125 113.347656 120.625 C 113.046875 120.707031 112.4375 120.707031 112.136719 120.625 Z M 112.136719 120.625 "/>
<path style=" stroke:none;fill-rule:nonzero;fill:rgb(76.470588%,70.980392%,63.529412%);fill-opacity:1;" d="M 120.214844 120.585938 C 119.769531 120.457031 119.441406 120.25 119.109375 119.902344 C 118.785156 119.554688 118.515625 119.050781 118.378906 118.539062 C 118.242188 118.03125 118.242188 117.1875 118.378906 116.671875 C 118.746094 115.269531 119.820312 114.429688 121.140625 114.511719 C 121.746094 114.550781 122.300781 114.792969 122.730469 115.203125 C 122.851562 115.324219 122.957031 115.421875 122.96875 115.421875 C 122.976562 115.421875 122.980469 114.570312 122.980469 113.53125 L 122.980469 111.640625 L 123.988281 111.640625 L 123.988281 120.605469 L 123.082031 120.605469 L 123.050781 120.402344 C 123.039062 120.289062 123.023438 120.089844 123.023438 119.957031 L 123.023438 119.71875 L 122.714844 120.007812 C 122.386719 120.316406 122.015625 120.519531 121.625 120.625 C 121.253906 120.722656 120.617188 120.707031 120.214844 120.585938 Z M 121.6875 119.703125 C 122.140625 119.578125 122.5625 119.195312 122.816406 118.675781 L 122.957031 118.386719 L 122.957031 116.804688 L 122.8125 116.503906 C 122.53125 115.925781 121.988281 115.503906 121.425781 115.429688 C 120.441406 115.300781 119.671875 115.832031 119.363281 116.847656 C 119.253906 117.207031 119.253906 117.980469 119.363281 118.34375 C 119.699219 119.464844 120.605469 120 121.6875 119.703125 Z M 121.6875 119.703125 "/>
<path style=" stroke:none;fill-rule:nonzero;fill:rgb(76.470588%,70.980392%,63.529412%);fill-opacity:1;" d="M 25.832031 116.125 L 25.832031 111.640625 L 27.660156 111.640625 C 29.691406 111.640625 29.761719 111.652344 30.296875 111.929688 C 30.8125 112.203125 31.28125 112.753906 31.476562 113.324219 C 31.609375 113.703125 31.640625 114.296875 31.546875 114.691406 C 31.386719 115.371094 30.914062 115.992188 30.3125 116.308594 C 29.785156 116.589844 29.648438 116.605469 28.1875 116.605469 L 26.882812 116.605469 L 26.882812 120.605469 L 25.832031 120.605469 Z M 29.742188 115.609375 C 30.046875 115.464844 30.351562 115.15625 30.496094 114.835938 C 30.613281 114.59375 30.625 114.515625 30.625 114.144531 C 30.625 113.785156 30.605469 113.695312 30.507812 113.476562 C 30.359375 113.15625 30.054688 112.855469 29.734375 112.703125 L 29.488281 112.585938 L 28.1875 112.574219 L 26.882812 112.558594 L 26.882812 115.730469 L 28.207031 115.71875 C 29.464844 115.707031 29.539062 115.703125 29.742188 115.609375 Z M 29.742188 115.609375 "/>
<path style=" stroke:none;fill-rule:nonzero;fill:rgb(76.470588%,70.980392%,63.529412%);fill-opacity:1;" d="M 41.152344 117.617188 L 41.152344 114.628906 L 42.117188 114.628906 L 42.117188 114.933594 C 42.117188 115.097656 42.128906 115.292969 42.144531 115.367188 L 42.167969 115.5 L 42.484375 115.1875 C 43.070312 114.59375 43.691406 114.394531 44.503906 114.546875 C 44.777344 114.597656 45.183594 114.777344 45.183594 114.847656 C 45.183594 114.875 45.078125 115.046875 44.953125 115.234375 L 44.722656 115.574219 L 44.503906 115.5 C 44.339844 115.441406 44.175781 115.425781 43.867188 115.429688 C 43.507812 115.441406 43.417969 115.460938 43.191406 115.570312 C 42.84375 115.742188 42.558594 116.035156 42.375 116.410156 L 42.226562 116.714844 L 42.214844 118.660156 L 42.199219 120.605469 L 41.152344 120.605469 Z M 41.152344 117.617188 "/>
<path style=" stroke:none;fill-rule:nonzero;fill:rgb(76.470588%,70.980392%,63.529412%);fill-opacity:1;" d="M 47.722656 118.011719 L 47.722656 115.421875 L 46.714844 115.421875 L 46.714844 114.628906 L 47.710938 114.628906 L 47.730469 113.742188 L 47.742188 112.851562 L 47.882812 112.554688 C 48.0625 112.171875 48.363281 111.871094 48.753906 111.679688 C 49.042969 111.535156 49.074219 111.53125 49.558594 111.53125 C 50.019531 111.53125 50.085938 111.546875 50.304688 111.652344 C 50.433594 111.714844 50.621094 111.847656 50.710938 111.941406 L 50.878906 112.113281 L 50.597656 112.414062 L 50.316406 112.71875 L 50.160156 112.578125 C 49.972656 112.414062 49.695312 112.328125 49.464844 112.359375 C 49.195312 112.394531 49.007812 112.542969 48.871094 112.820312 C 48.753906 113.0625 48.75 113.085938 48.75 113.839844 L 48.75 114.605469 L 49.527344 114.621094 L 50.304688 114.628906 L 50.304688 115.421875 L 48.726562 115.421875 L 48.726562 120.605469 L 47.722656 120.605469 Z M 47.722656 118.011719 "/>
<path style=" stroke:none;fill-rule:nonzero;fill:rgb(76.470588%,70.980392%,63.529412%);fill-opacity:1;" d="M 60.941406 117.617188 L 60.941406 114.628906 L 61.847656 114.628906 L 61.878906 114.796875 C 61.894531 114.882812 61.90625 115.042969 61.90625 115.148438 C 61.90625 115.25 61.917969 115.332031 61.933594 115.332031 C 61.949219 115.332031 62.074219 115.226562 62.207031 115.105469 C 62.753906 114.59375 63.53125 114.390625 64.265625 114.5625 C 64.796875 114.691406 65.253906 114.988281 65.507812 115.375 L 65.644531 115.585938 L 65.957031 115.269531 C 66.425781 114.792969 66.914062 114.5625 67.574219 114.515625 C 68.652344 114.4375 69.582031 115.09375 69.851562 116.128906 C 69.90625 116.316406 69.917969 116.785156 69.917969 118.488281 L 69.917969 120.605469 L 68.914062 120.605469 L 68.902344 118.554688 L 68.890625 116.496094 L 68.773438 116.253906 C 68.550781 115.777344 68.183594 115.496094 67.703125 115.429688 C 66.832031 115.316406 66.136719 115.808594 65.976562 116.644531 C 65.953125 116.78125 65.933594 117.667969 65.933594 118.742188 L 65.933594 120.605469 L 64.929688 120.605469 L 64.917969 118.554688 L 64.90625 116.496094 L 64.792969 116.253906 C 64.566406 115.777344 64.195312 115.492188 63.714844 115.429688 C 63.003906 115.335938 62.378906 115.671875 62.089844 116.289062 L 61.972656 116.539062 L 61.957031 118.574219 L 61.945312 120.605469 L 60.941406 120.605469 Z M 60.941406 117.617188 "/>
<path style=" stroke:none;fill-rule:nonzero;fill:rgb(76.470588%,70.980392%,63.529412%);fill-opacity:1;" d="M 63.574219 38.816406 C 61.59375 37.308594 59.925781 35.707031 58.328125 33.785156 C 57.5625 32.863281 56.441406 31.269531 55.769531 30.140625 C 55.285156 29.335938 54.453125 27.847656 54.476562 27.828125 C 54.515625 27.789062 57.863281 27.8125 58.511719 27.855469 C 61.171875 28.035156 63.753906 28.550781 66.1875 29.367188 C 66.664062 29.53125 66.765625 29.550781 66.75 29.488281 C 66.714844 29.375 66.515625 27.847656 66.464844 27.285156 C 66.246094 24.957031 66.304688 22.523438 66.640625 20.167969 C 66.722656 19.566406 67.152344 17.125 67.175781 17.105469 C 67.199219 17.082031 68.765625 18.386719 69.4375 18.980469 C 70.171875 19.628906 71.648438 21.121094 72.222656 21.792969 C 73.339844 23.101562 74.5625 24.785156 75.304688 26.046875 C 75.402344 26.214844 75.492188 26.363281 75.5 26.363281 C 75.503906 26.363281 75.621094 26.171875 75.757812 25.945312 C 76.613281 24.511719 77.898438 22.777344 79.136719 21.398438 C 79.746094 20.714844 81.070312 19.40625 81.738281 18.820312 C 82.339844 18.296875 83.804688 17.085938 83.824219 17.101562 C 83.839844 17.121094 84.234375 19.304688 84.320312 19.882812 C 84.765625 22.832031 84.777344 25.816406 84.359375 28.777344 C 84.3125 29.128906 84.265625 29.449219 84.25 29.488281 C 84.234375 29.550781 84.316406 29.535156 84.746094 29.390625 C 87.136719 28.574219 89.867188 28.035156 92.53125 27.855469 C 93.1875 27.8125 96.484375 27.789062 96.523438 27.828125 C 96.550781 27.855469 95.324219 30.007812 94.882812 30.710938 C 92.980469 33.734375 90.609375 36.34375 87.691406 38.609375 C 87.367188 38.867188 87.058594 39.097656 87.011719 39.132812 C 86.925781 39.1875 86.839844 39.171875 86.222656 38.992188 C 84.320312 38.441406 82.742188 38.148438 80.472656 37.9375 C 79.839844 37.878906 79.308594 37.820312 79.300781 37.8125 C 79.285156 37.800781 79.332031 37.695312 79.386719 37.578125 C 80.046875 36.269531 81.261719 33.257812 81.128906 33.257812 C 81.074219 33.257812 79.742188 34.03125 79.1875 34.398438 C 78.894531 34.585938 78.28125 35 77.820312 35.320312 C 77.363281 35.636719 76.984375 35.882812 76.980469 35.863281 C 76.976562 35.847656 76.871094 35.457031 76.746094 34.996094 C 76.363281 33.550781 75.898438 32.101562 75.597656 31.40625 L 75.496094 31.175781 L 75.308594 31.65625 C 74.921875 32.65625 74.632812 33.582031 74.15625 35.359375 L 74.007812 35.898438 L 73.179688 35.320312 C 72.71875 35 72.105469 34.585938 71.8125 34.398438 C 71.253906 34.03125 69.925781 33.257812 69.871094 33.257812 C 69.820312 33.257812 70.171875 34.269531 70.496094 35.082031 C 70.640625 35.441406 70.972656 36.203125 71.234375 36.769531 C 71.5 37.335938 71.703125 37.808594 71.695312 37.816406 C 71.6875 37.824219 71.25 37.867188 70.722656 37.917969 C 68.242188 38.144531 66.550781 38.457031 64.492188 39.082031 C 64.289062 39.144531 64.109375 39.191406 64.089844 39.191406 C 64.078125 39.191406 63.839844 39.023438 63.574219 38.816406 Z M 65.320312 36.648438 C 66.160156 36.4375 67.332031 36.195312 68.046875 36.089844 C 68.328125 36.046875 68.5625 35.996094 68.5625 35.976562 C 68.5625 35.957031 68.480469 35.738281 68.382812 35.492188 C 68.144531 34.898438 67.601562 33.25 67.421875 32.570312 L 67.277344 32.03125 L 66.8125 31.847656 C 64.808594 31.070312 62.710938 30.523438 60.550781 30.210938 C 59.691406 30.085938 58.238281 29.941406 58.203125 29.976562 C 58.140625 30.039062 59.328125 31.664062 60.183594 32.691406 C 60.863281 33.511719 62.140625 34.832031 62.972656 35.578125 C 63.789062 36.304688 64.492188 36.871094 64.5625 36.84375 C 64.589844 36.832031 64.929688 36.742188 65.320312 36.648438 Z M 87.023438 36.441406 C 88.789062 34.992188 90.277344 33.453125 91.636719 31.679688 C 92.167969 30.988281 92.832031 30.011719 92.800781 29.976562 C 92.761719 29.941406 91.316406 30.082031 90.449219 30.210938 C 88.398438 30.503906 86.0625 31.117188 84.1875 31.847656 L 83.722656 32.03125 L 83.597656 32.503906 C 83.421875 33.195312 83.085938 34.226562 82.738281 35.160156 C 82.566406 35.613281 82.433594 35.992188 82.445312 36 C 82.453125 36.003906 82.796875 36.066406 83.207031 36.132812 C 84.003906 36.261719 85.464844 36.574219 86.074219 36.75 C 86.277344 36.804688 86.457031 36.859375 86.476562 36.859375 C 86.492188 36.863281 86.738281 36.671875 87.023438 36.441406 Z M 72.960938 31.917969 C 73.238281 31.117188 73.578125 30.25 73.953125 29.402344 L 74.3125 28.59375 L 74.164062 28.324219 C 73.148438 26.4375 71.867188 24.589844 70.460938 23 C 70.019531 22.496094 68.734375 21.175781 68.6875 21.175781 C 68.519531 21.175781 68.402344 24.835938 68.515625 26.40625 C 68.617188 27.757812 68.863281 29.539062 69.074219 30.398438 C 69.09375 30.484375 69.21875 30.558594 69.679688 30.78125 C 70.421875 31.132812 71.441406 31.683594 72.171875 32.121094 C 72.488281 32.3125 72.753906 32.453125 72.769531 32.433594 C 72.78125 32.417969 72.867188 32.1875 72.960938 31.917969 Z M 79.351562 31.820312 C 79.785156 31.566406 80.539062 31.167969 81.03125 30.925781 C 81.515625 30.683594 81.914062 30.484375 81.914062 30.472656 C 81.914062 30.464844 81.960938 30.214844 82.023438 29.917969 C 82.414062 27.992188 82.589844 25.734375 82.519531 23.449219 C 82.488281 22.429688 82.390625 21.246094 82.335938 21.191406 C 82.269531 21.121094 80.691406 22.785156 79.871094 23.792969 C 78.746094 25.171875 77.597656 26.882812 76.835938 28.324219 L 76.691406 28.601562 L 77 29.292969 C 77.445312 30.292969 77.757812 31.097656 78.214844 32.417969 C 78.230469 32.464844 78.277344 32.457031 78.402344 32.375 C 78.488281 32.320312 78.917969 32.074219 79.351562 31.820312 Z M 79.351562 31.820312 "/>
</g>
</svg>
