<?xml version="1.0" encoding="UTF-8"?>
<svg xmlns="http://www.w3.org/2000/svg" xmlns:xlink="http://www.w3.org/1999/xlink" width="152px" height="114px" viewBox="0 0 152 152" version="1.1">
<g id="surface1">
<path style=" stroke:none;fill-rule:nonzero;fill:rgb(100%,100%,100%);fill-opacity:1;" d="M 0 76 L 0 0 L 152 0 L 152 152 L 0 152 Z M 46.445312 85.863281 C 48.472656 84.851562 49.652344 83.667969 50.667969 81.640625 L 51.679688 79.613281 L 51.679688 73.636719 C 51.679688 68.128906 51.613281 67.589844 51.003906 66.777344 C 50.058594 65.597656 49.113281 65.359375 48.097656 66.035156 C 46.546875 67.050781 46.277344 68.367188 46.277344 74.613281 C 46.277344 81.335938 46.242188 81.40625 42.863281 81.40625 C 41.175781 81.40625 40.835938 81.304688 40.230469 80.527344 C 39.585938 79.683594 39.519531 79.175781 39.519531 73.839844 C 39.519531 68.738281 39.453125 67.925781 38.878906 66.980469 C 38.066406 65.699219 37.019531 65.292969 35.90625 65.902344 C 34.351562 66.710938 34.117188 67.757812 34.117188 73.398438 C 34.117188 79.109375 34.488281 81 35.941406 82.925781 C 38.574219 86.335938 43.03125 87.585938 46.445312 85.863281 Z M 61.710938 84.445312 C 61.949219 83.800781 62.117188 81.707031 62.117188 79.816406 L 62.152344 76.335938 L 63.265625 76.371094 C 64.246094 76.371094 64.582031 76.710938 66.710938 79.613281 C 70.121094 84.277344 72.183594 86.472656 73.164062 86.472656 C 73.636719 86.472656 74.378906 86.097656 74.816406 85.625 L 75.664062 84.816406 L 75.664062 67.488281 L 74.683594 66.507812 C 73.398438 65.257812 72.554688 65.257812 71.472656 66.574219 C 70.664062 67.554688 70.59375 67.824219 70.59375 71.269531 C 70.59375 73.296875 70.496094 75.15625 70.394531 75.460938 C 70.257812 75.796875 69.785156 76 69.109375 76 C 68.128906 76 67.792969 75.628906 64.851562 71.574219 C 61.679688 67.183594 60.160156 65.527344 59.28125 65.527344 C 59.042969 65.527344 58.367188 65.933594 57.792969 66.40625 L 56.746094 67.285156 L 56.746094 75.730469 C 56.746094 84.78125 56.882812 85.625 58.570312 86.402344 C 59.617188 86.875 61.207031 85.863281 61.710938 84.445312 Z M 106.90625 85.324219 C 107.515625 84.476562 107.582031 83.800781 107.683594 76.910156 C 107.75 72.792969 107.71875 68.941406 107.582031 68.367188 C 107.347656 67.117188 105.894531 65.527344 104.980469 65.527344 C 104.609375 65.527344 103.867188 65.96875 103.328125 66.542969 L 102.3125 67.523438 L 102.414062 76.203125 L 102.515625 84.851562 L 103.597656 85.828125 C 104.878906 86.945312 105.792969 86.808594 106.90625 85.324219 Z M 19.929688 86.097656 C 24.117188 85.425781 26.921875 83.566406 28.609375 80.257812 C 31.074219 75.425781 28.980469 69.75 23.8125 67.183594 C 21.785156 66.203125 21.179688 66.070312 17.867188 65.933594 C 13.613281 65.765625 12.496094 66.070312 11.484375 67.757812 C 10.808594 68.804688 10.773438 69.277344 10.875 76.472656 C 10.976562 83.972656 10.976562 84.074219 11.789062 84.917969 C 13.207031 86.4375 15.742188 86.773438 19.929688 86.097656 Z M 85.253906 85.425781 C 86.03125 84.546875 86.132812 84.074219 86.132812 82.046875 L 86.132812 79.714844 L 87.417969 79.714844 C 88.566406 79.75 88.800781 79.917969 90.355469 81.945312 C 91.300781 83.128906 92.617188 84.679688 93.292969 85.355469 C 94.410156 86.472656 94.679688 86.574219 95.488281 86.269531 C 95.996094 86.097656 96.671875 85.492188 97.042969 84.882812 C 97.820312 83.53125 97.683594 83.261719 94.578125 79.78125 C 91.367188 76.238281 91.367188 75.796875 94.746094 71.84375 C 96.132812 70.191406 97.28125 68.636719 97.28125 68.332031 C 97.28125 68.0625 96.738281 67.285156 96.097656 66.644531 C 94.984375 65.527344 94.914062 65.527344 93.96875 66 C 93.464844 66.273438 92.042969 67.792969 90.828125 69.378906 C 88.835938 72.046875 88.566406 72.25 87.449219 72.285156 L 86.199219 72.285156 L 86.066406 69.71875 C 85.964844 67.386719 85.863281 67.050781 85.019531 66.339844 C 83.800781 65.292969 83.328125 65.328125 82.011719 66.507812 L 80.898438 67.488281 L 80.796875 74.683594 C 80.660156 82.992188 80.796875 84.546875 81.910156 85.660156 C 83.027344 86.773438 84.207031 86.707031 85.253906 85.425781 Z M 117.242188 85.59375 C 117.984375 84.78125 118.054688 84.445312 118.15625 80.527344 L 118.289062 76.335938 L 119.40625 76.335938 C 120.25 76.335938 120.652344 76.574219 121.09375 77.285156 C 121.9375 78.601562 126.261719 84.074219 127.476562 85.390625 C 128.726562 86.742188 129.941406 86.808594 131.089844 85.59375 L 131.902344 84.714844 L 131.902344 76.371094 C 131.902344 67.453125 131.800781 66.710938 130.214844 65.867188 C 129.167969 65.292969 128.085938 65.730469 127.308594 66.980469 C 126.769531 67.894531 126.667969 68.703125 126.667969 72.046875 L 126.667969 76 L 125.316406 76 C 124.574219 76 123.964844 75.863281 123.964844 75.730469 C 123.964844 75.257812 117.34375 66.507812 116.566406 65.96875 C 115.519531 65.257812 114.269531 65.664062 113.460938 66.980469 C 112.851562 67.996094 112.816406 68.570312 112.886719 76.40625 C 112.988281 84.679688 112.988281 84.75 113.796875 85.59375 C 114.878906 86.742188 116.160156 86.742188 117.242188 85.59375 Z M 139.46875 72.386719 C 140.582031 71 141.359375 67.996094 140.851562 67.050781 C 140.246094 65.902344 139.0625 65.359375 138.183594 65.832031 C 136.023438 67.015625 135.886719 71.609375 137.949219 73.027344 C 138.523438 73.433594 138.726562 73.367188 139.46875 72.386719 Z M 139.46875 72.386719 "/>
<path style=" stroke:none;fill-rule:nonzero;fill:rgb(100%,100%,100%);fill-opacity:1;" d="M 16.214844 76.203125 L 16.214844 70.933594 L 18.746094 70.933594 C 22.933594 70.933594 24.421875 72.183594 24.457031 75.832031 C 24.523438 79.75 23.40625 80.863281 19.015625 81.234375 L 16.214844 81.472656 Z M 16.214844 76.203125 "/>
<path style=" stroke:none;fill-rule:nonzero;fill:rgb(95.294118%,39.607843%,8.235294%);fill-opacity:1;" d="M 39.789062 87.382812 C 36.917969 86.574219 34.453125 84.105469 33.574219 81.203125 C 32.96875 79.207031 32.898438 67.554688 33.472656 66.441406 C 34.117188 65.15625 35.230469 64.515625 36.75 64.515625 C 40.09375 64.515625 40.535156 65.496094 40.535156 72.890625 C 40.535156 78.160156 40.601562 78.667969 41.242188 79.511719 C 42.054688 80.527344 43.371094 80.660156 44.519531 79.851562 C 45.226562 79.34375 45.261719 79.140625 45.261719 73.601562 C 45.261719 67.421875 45.53125 66.101562 46.984375 65.054688 C 47.425781 64.753906 48.4375 64.515625 49.246094 64.515625 C 50.429688 64.515625 50.902344 64.71875 51.714844 65.496094 L 52.691406 66.476562 L 52.691406 80.628906 L 51.679688 82.652344 C 50.667969 84.679688 49.519531 85.828125 47.390625 86.945312 C 45.902344 87.6875 41.78125 87.921875 39.789062 87.382812 Z M 39.789062 87.382812 "/>
<path style=" stroke:none;fill-rule:nonzero;fill:rgb(95.294118%,39.607843%,8.235294%);fill-opacity:1;" d="M 57.558594 87.449219 C 55.835938 86.605469 55.734375 85.898438 55.734375 75.730469 L 55.734375 66.273438 L 56.78125 65.394531 C 58.164062 64.210938 60.359375 64.179688 61.710938 65.328125 C 62.21875 65.765625 64.109375 68.097656 65.867188 70.527344 C 67.925781 73.398438 69.144531 74.816406 69.3125 74.546875 C 69.445312 74.3125 69.582031 72.417969 69.582031 70.359375 C 69.582031 66.675781 69.617188 66.507812 70.527344 65.5625 C 71.914062 64.042969 74.210938 64.007812 75.695312 65.496094 L 76.675781 66.476562 L 76.675781 76.066406 C 76.675781 86.539062 76.640625 86.640625 74.683594 87.484375 C 72.21875 88.496094 70.730469 87.382812 65.902344 80.964844 L 63.164062 77.351562 L 63.164062 80.628906 C 63.164062 82.453125 62.996094 84.511719 62.792969 85.222656 C 62.21875 87.316406 59.617188 88.429688 57.558594 87.449219 Z M 57.558594 87.449219 "/>
<path style=" stroke:none;fill-rule:nonzero;fill:rgb(95.294118%,39.607843%,8.235294%);fill-opacity:1;" d="M 81.503906 87.179688 C 79.816406 86.132812 79.648438 84.882812 79.78125 75.089844 L 79.882812 66.476562 L 81 65.496094 C 82.453125 64.210938 84.613281 64.109375 86.03125 65.328125 C 86.875 66.035156 86.976562 66.375 87.078125 68.703125 C 87.148438 70.121094 87.316406 71.269531 87.449219 71.269531 C 87.550781 71.238281 88.632812 69.953125 89.816406 68.367188 C 91.03125 66.777344 92.414062 65.257812 92.921875 64.988281 C 94.542969 64.179688 95.863281 64.378906 97.144531 65.664062 C 98.125 66.644531 98.292969 67.050781 98.292969 68.367188 C 98.292969 69.988281 98.496094 69.648438 93.632812 75.390625 C 93.191406 75.933594 93.328125 76.203125 95.117188 78.230469 C 97.988281 81.4375 98.632812 82.417969 98.632812 83.703125 C 98.632812 85.964844 96.808594 87.820312 94.578125 87.820312 C 93.699219 87.820312 91.503906 85.796875 89.34375 82.957031 C 88.429688 81.742188 87.550781 80.761719 87.417969 80.730469 C 87.246094 80.730469 87.148438 81.777344 87.148438 83.09375 C 87.148438 85.1875 87.046875 85.558594 86.234375 86.472656 C 84.984375 87.855469 83.058594 88.160156 81.503906 87.179688 Z M 81.503906 87.179688 "/>
<path style=" stroke:none;fill-rule:nonzero;fill:rgb(95.294118%,39.607843%,8.235294%);fill-opacity:1;" d="M 102.617188 86.84375 L 101.503906 85.863281 L 101.402344 76.203125 L 101.300781 66.507812 L 102.3125 65.527344 C 103.15625 64.683594 103.5625 64.515625 104.949219 64.515625 C 106.773438 64.515625 107.851562 65.226562 108.460938 66.777344 C 108.628906 67.21875 108.765625 71.441406 108.765625 76.101562 C 108.765625 83.53125 108.695312 84.75 108.15625 85.796875 C 107.042969 88.023438 104.476562 88.496094 102.617188 86.84375 Z M 102.617188 86.84375 "/>
<path style=" stroke:none;fill-rule:nonzero;fill:rgb(95.294118%,39.607843%,8.235294%);fill-opacity:1;" d="M 114 87.519531 C 113.628906 87.347656 113.019531 86.875 112.648438 86.472656 C 112.007812 85.761719 111.972656 85.1875 111.871094 76.472656 C 111.769531 66.542969 111.871094 65.699219 113.5625 64.820312 C 114.539062 64.277344 116.734375 64.378906 117.582031 64.988281 C 118.355469 65.496094 124.976562 74.242188 124.976562 74.714844 C 124.976562 74.851562 125.148438 74.988281 125.316406 74.988281 C 125.519531 74.988281 125.652344 73.464844 125.652344 71.101562 C 125.652344 65.664062 126.328125 64.515625 129.46875 64.515625 C 131.394531 64.515625 132.613281 65.628906 132.914062 67.65625 C 133.050781 68.433594 133.085938 72.824219 133.015625 77.417969 L 132.914062 85.796875 L 131.96875 86.707031 C 131.226562 87.484375 130.753906 87.652344 129.402344 87.652344 C 128.21875 87.652344 127.542969 87.449219 127.003906 86.976562 C 126.195312 86.234375 121.058594 79.78125 120.046875 78.195312 L 119.40625 77.214844 L 119.234375 81.503906 C 119.066406 85.558594 119.03125 85.828125 118.1875 86.671875 C 117.242188 87.621094 115.183594 88.023438 114 87.519531 Z M 114 87.519531 "/>
<path style=" stroke:none;fill-rule:nonzero;fill:rgb(95.294118%,39.607843%,8.235294%);fill-opacity:1;" d="M 12.632812 87.113281 C 12.09375 86.945312 11.246094 86.4375 10.773438 85.929688 C 9.964844 85.050781 9.964844 85.050781 9.863281 76.472656 C 9.761719 68.265625 9.796875 67.792969 10.472656 66.746094 C 11.519531 65.023438 12.53125 64.753906 17.835938 64.921875 C 22.328125 65.023438 22.597656 65.089844 24.757812 66.136719 C 28.980469 68.230469 30.941406 71.777344 30.671875 76.8125 C 30.332031 82.554688 26.953125 86.132812 20.941406 87.113281 C 18.339844 87.550781 14.085938 87.550781 12.632812 87.113281 Z M 21.515625 79.480469 C 22.734375 78.90625 23.441406 77.484375 23.375 75.796875 C 23.273438 73.464844 21.484375 71.945312 18.746094 71.945312 L 17.226562 71.945312 L 17.226562 80.324219 L 18.847656 80.15625 C 19.726562 80.085938 20.910156 79.78125 21.515625 79.480469 Z M 21.515625 79.480469 "/>
<path style=" stroke:none;fill-rule:nonzero;fill:rgb(92.156863%,17.647059%,56.862745%);fill-opacity:1;" d="M 136.933594 74.039062 C 135.886719 73.296875 135.449219 72.046875 135.449219 69.648438 C 135.449219 65.867188 136.394531 64.515625 139.097656 64.515625 C 141.867188 64.515625 142.878906 66.914062 141.699219 70.832031 C 140.953125 73.332031 140.078125 74.3125 138.554688 74.3125 C 137.882812 74.3125 137.136719 74.175781 136.933594 74.039062 Z M 136.933594 74.039062 "/>
</g>
</svg>
