<?xml version="1.0" encoding="UTF-8"?>
<svg xmlns="http://www.w3.org/2000/svg" xmlns:xlink="http://www.w3.org/1999/xlink" width="152px" height="114px" viewBox="0 0 152 152" version="1.1">
<g id="surface1">
<path style=" stroke:none;fill-rule:nonzero;fill:rgb(100%,100%,100%);fill-opacity:1;" d="M 0 76 L 0 0 L 152 0 L 152 152 L 0 152 Z M 92.890625 141.867188 C 104.644531 138.691406 118.628906 130.316406 126.394531 121.734375 C 136.058594 110.925781 141.800781 99.238281 144.296875 85.050781 C 146.933594 70.054688 143.015625 53.367188 133.558594 38.980469 C 128.625 31.546875 124.03125 26.550781 117.410156 21.617188 C 97.550781 6.621094 73.636719 3.445312 51.140625 12.835938 C 40.667969 17.160156 28.777344 26.617188 21.753906 36.140625 C 12.902344 48.097656 7.296875 66.609375 8.511719 79.714844 C 9.523438 91.265625 14.660156 105.25 21.210938 114.4375 C 27.089844 122.679688 37.628906 131.867188 46.277344 136.257812 C 51.542969 138.960938 57.960938 141.257812 64.179688 142.609375 C 71.878906 144.296875 85.050781 143.960938 92.890625 141.867188 Z M 92.890625 141.867188 "/>
<path style=" stroke:none;fill-rule:nonzero;fill:rgb(100%,98.431373%,83.529412%);fill-opacity:1;" d="M 63.773438 121.601562 C 59.515625 120.652344 54.789062 116.128906 53.367188 111.738281 C 52.558594 109.371094 52.761719 101.0625 53.640625 98.292969 C 54.113281 97.011719 53.839844 96.941406 47.828125 96.941406 C 42.222656 96.941406 41.207031 96.738281 38.507812 95.117188 C 33.238281 92.078125 31.074219 87.820312 31.074219 80.796875 C 31.074219 78.5 31.414062 75.460938 31.820312 73.972656 C 32.832031 70.394531 37.359375 66 41.34375 64.851562 L 44.316406 63.976562 L 41.816406 61.679688 C 38.101562 58.367188 36.886719 54.652344 37.289062 47.964844 C 37.5625 43.304688 37.898438 42.085938 39.585938 39.65625 C 40.734375 38.101562 42.964844 36.074219 44.585938 35.128906 C 47.425781 33.574219 48.234375 33.441406 57.085938 33.441406 L 66.542969 33.441406 L 66.746094 39.722656 L 66.949219 45.9375 L 57.085938 45.9375 L 55.394531 43.234375 C 54.449219 41.75 53.503906 40.535156 53.300781 40.535156 C 52.289062 40.535156 50.464844 44.316406 50.53125 46.207031 C 50.597656 47.761719 51.34375 48.976562 53.300781 50.800781 C 56.882812 54.179688 58.839844 54.179688 62.285156 50.667969 C 64.246094 48.773438 65.597656 47.964844 66.949219 47.964844 C 68.839844 47.964844 68.90625 48.097656 68.90625 51.273438 C 68.90625 53.097656 68.636719 55.394531 68.230469 56.339844 L 67.625 58.03125 L 76 58.234375 C 84.375 58.4375 84.445312 58.4375 84.445312 56.949219 C 84.445312 55.464844 84.242188 55.394531 77.417969 55.394531 L 70.460938 55.394531 L 70.796875 43.304688 C 71 34.722656 70.933594 31.144531 70.324219 30.804688 C 69.921875 30.535156 69.582031 29.25 69.582031 27.96875 L 69.582031 25.671875 L 85.929688 25.671875 L 85.457031 28.574219 C 85.253906 30.128906 84.851562 33.914062 84.714844 36.953125 L 84.375 42.558594 L 98.632812 42.558594 L 98.632812 44.789062 C 98.632812 46.074219 97.753906 48.707031 96.605469 50.734375 C 95.523438 52.761719 94.578125 54.652344 94.578125 54.921875 C 94.578125 55.261719 96.605469 55.261719 99.035156 54.988281 L 103.5625 54.515625 L 103.226562 58.097656 C 102.886719 61.40625 103.089844 62.082031 105.320312 65.664062 L 107.820312 69.582031 L 109.441406 67.421875 L 110.992188 65.257812 L 109.574219 62.757812 C 108.695312 61.207031 108.089844 59.042969 108.089844 57.355469 L 108.089844 54.515625 L 111.667969 54.988281 C 113.5625 55.191406 117.074219 55.394531 119.4375 55.394531 L 123.625 55.394531 L 123.625 57.625 C 123.625 59.246094 122.679688 61.273438 120.382812 64.582031 C 118.628906 67.148438 114.574219 73.027344 111.332031 77.6875 L 105.523438 86.132812 L 109.507812 85.929688 L 113.492188 85.660156 L 113.492188 101.332031 L 108.222656 101.332031 C 103.902344 101.332031 102.683594 101.605469 101.804688 102.550781 C 100.386719 104.101562 100.320312 109.371094 101.671875 111.195312 C 102.210938 111.871094 102.683594 113.628906 102.683594 115.046875 L 102.683594 117.546875 L 85.121094 117.546875 L 85.121094 115.859375 C 85.121094 114.304688 84.917969 114.371094 82.351562 117.207031 C 78.296875 121.667969 71 123.355469 63.773438 121.601562 Z M 87.148438 104.101562 C 87.148438 98.359375 86.945312 97.347656 85.796875 96.265625 C 84.984375 95.523438 84.445312 94.171875 84.445312 92.753906 C 84.445312 90.863281 84.175781 90.523438 82.957031 90.523438 C 82.078125 90.523438 80.457031 89.917969 79.308594 89.242188 C 77.757812 88.296875 76.945312 88.160156 76.40625 88.699219 C 75.863281 89.242188 76.609375 89.917969 78.972656 91.265625 C 83.09375 93.632812 85.121094 96.402344 85.121094 99.578125 L 85.121094 102.007812 L 75.664062 102.007812 C 70.054688 102.007812 66.203125 102.277344 66.203125 102.683594 C 66.203125 104.035156 70.460938 108.019531 72.691406 108.765625 C 74.785156 109.441406 75.324219 109.371094 77.960938 107.820312 C 79.582031 106.871094 81.066406 105.65625 81.335938 105.050781 C 81.539062 104.375 82.554688 104.035156 84.175781 104.035156 L 86.605469 104.035156 L 86.335938 107.75 C 86.132812 109.777344 86.269531 111.265625 86.605469 111.0625 C 86.875 110.859375 87.148438 107.75 87.148438 104.101562 Z M 103.292969 87.347656 C 103.425781 87.214844 102.953125 87.148438 102.144531 87.148438 C 101.199219 87.148438 100.65625 87.550781 100.65625 88.226562 C 100.65625 89.171875 100.859375 89.242188 101.875 88.429688 C 102.480469 87.957031 103.15625 87.417969 103.292969 87.347656 Z M 97.414062 85.863281 L 99.847656 85.457031 L 95.050781 77.351562 L 90.1875 69.3125 L 89.984375 76 C 89.847656 81.40625 90.050781 83.160156 90.996094 84.917969 C 91.941406 86.671875 92.484375 87.011719 93.5625 86.671875 C 94.308594 86.402344 95.996094 86.066406 97.414062 85.863281 Z M 54.921875 83.5 C 57.085938 82.621094 60.800781 78.90625 60.800781 77.621094 C 60.800781 77.285156 57.21875 77.011719 52.691406 77.011719 C 48.167969 77.011719 44.585938 77.285156 44.585938 77.621094 C 44.585938 78.835938 48.234375 82.621094 50.328125 83.5 C 52.828125 84.578125 52.355469 84.578125 54.921875 83.5 Z M 68.164062 71.136719 C 68.296875 71 67.21875 70.933594 65.664062 70.933594 C 63.097656 70.933594 62.828125 71.070312 62.828125 72.621094 L 62.828125 74.242188 L 65.394531 72.824219 C 66.746094 72.015625 68.027344 71.269531 68.164062 71.136719 Z M 61.746094 64.3125 C 61.679688 64.179688 60.460938 64.378906 59.109375 64.851562 L 56.613281 65.664062 L 58.503906 66.949219 L 60.394531 68.164062 L 61.207031 66.339844 C 61.609375 65.328125 61.882812 64.378906 61.746094 64.3125 Z M 61.746094 64.3125 "/>
<path style=" stroke:none;fill-rule:nonzero;fill:rgb(40.392157%,21.568627%,17.647059%);fill-opacity:1;" d="M 62.152344 144.636719 C 48.234375 141.527344 36.816406 135.3125 26.753906 125.246094 C 20.671875 119.167969 16.890625 113.695312 13.105469 105.792969 C 3.648438 85.863281 4.054688 63.433594 14.117188 43.371094 C 22.902344 26.007812 39.722656 12.566406 59.3125 7.296875 C 66 5.539062 81.269531 4.863281 88.09375 6.078125 C 103.5625 8.78125 118.761719 16.890625 128.421875 27.5625 C 139.976562 40.332031 146.324219 55.597656 147.070312 72.621094 C 148.351562 101.128906 132.882812 126.9375 107.074219 139.230469 C 96.808594 144.164062 91.539062 145.3125 78.703125 145.648438 C 69.921875 145.851562 66.8125 145.648438 62.152344 144.636719 Z M 74.109375 119.234375 C 78.296875 117.953125 82.621094 113.5625 83.769531 109.441406 C 84.511719 106.671875 84.242188 104.777344 83.363281 107.007812 C 83.160156 107.617188 81.605469 108.898438 79.917969 109.84375 C 73.367188 113.695312 64.921875 109.914062 63.703125 102.480469 L 63.300781 99.980469 L 73.230469 99.980469 C 78.632812 99.980469 83.09375 99.78125 83.09375 99.507812 C 83.09375 98.160156 79.242188 94.441406 76.203125 92.957031 C 71.742188 90.726562 67.691406 90.660156 63.097656 92.820312 C 54.449219 96.808594 52.019531 108.019531 58.300781 114.710938 C 63.03125 119.777344 67.757812 121.128906 74.109375 119.234375 Z M 100.65625 115.046875 C 100.65625 114.710938 100.183594 113.898438 99.644531 113.222656 C 98.96875 112.34375 98.632812 110.25 98.632812 106.804688 C 98.632812 99.914062 99.238281 99.308594 106.199219 99.308594 L 111.464844 99.308594 L 111.464844 87.621094 L 109.035156 88.023438 C 105.996094 88.496094 102.277344 91.335938 100.386719 94.511719 L 98.96875 96.941406 L 98.765625 92.347656 C 98.5625 88.296875 98.429688 87.753906 97.414062 88.09375 C 93.226562 89.644531 86.742188 92.144531 86.539062 92.347656 C 86.335938 92.484375 86.875 93.226562 87.6875 94.105469 C 89.039062 95.523438 89.171875 96.402344 89.171875 104.171875 C 89.171875 110.859375 88.96875 112.816406 88.160156 113.492188 C 86.199219 115.113281 87.214844 115.519531 93.902344 115.519531 C 97.617188 115.519531 100.65625 115.316406 100.65625 115.046875 Z M 51.679688 94.511719 C 53.167969 94.105469 55.261719 93.160156 56.273438 92.414062 C 59.042969 90.457031 62.152344 85.929688 62.152344 83.835938 C 62.21875 82.148438 62.285156 82.214844 63.503906 84.511719 C 66 89.242188 71.8125 89.714844 75.59375 85.390625 C 76.742188 84.105469 77.6875 82.753906 77.6875 82.417969 C 77.6875 82.011719 78.027344 81.742188 78.5 81.742188 C 78.90625 81.742188 79.109375 81.945312 78.835938 82.148438 C 78.027344 82.957031 79.984375 86.539062 81.808594 87.484375 C 82.824219 88.023438 85.121094 88.496094 86.875 88.496094 L 89.984375 88.496094 L 88.902344 86.808594 C 88.023438 85.457031 87.820312 83.226562 87.820312 75.121094 C 87.820312 66 87.6875 64.851562 86.402344 63.300781 C 84.511719 60.800781 81.066406 59.988281 73.703125 60.257812 L 67.351562 60.460938 L 64.988281 64.71875 L 62.691406 68.90625 L 73.636719 68.90625 L 73.636719 65.527344 C 73.636719 62.828125 73.839844 62.152344 74.785156 62.152344 C 76.539062 62.152344 78.363281 64.246094 78.363281 66.273438 C 78.363281 68.367188 75.730469 70.527344 69.246094 73.839844 C 65.527344 75.664062 63.230469 77.890625 62.554688 80.1875 C 61.882812 82.351562 57.761719 85.660156 55.058594 86.199219 C 48.640625 87.347656 41.882812 82.554688 41.882812 76.675781 L 41.882812 74.988281 L 51.34375 74.988281 C 57.761719 74.988281 60.800781 74.714844 60.800781 74.242188 C 60.800781 72.554688 57.894531 69.582031 54.585938 67.960938 C 44.519531 62.960938 33.101562 69.785156 33.101562 80.796875 C 33.101562 87.078125 37.898438 93.089844 44.179688 94.578125 C 47.289062 95.320312 48.640625 95.320312 51.679688 94.511719 Z M 116.058594 57.421875 C 112.953125 57.21875 110.316406 57.289062 110.25 57.625 C 110.117188 57.894531 110.925781 59.652344 112.074219 61.476562 C 113.222656 63.367188 114.167969 65.054688 114.167969 65.257812 C 114.167969 66.136719 107.953125 74.3125 107.480469 73.972656 C 106.671875 73.5 99.308594 61.136719 99.308594 60.328125 C 99.308594 59.921875 99.78125 59.246094 100.320312 58.773438 C 100.859375 58.300781 101.332031 57.761719 101.332031 57.488281 C 101.332031 57.289062 97.957031 57.085938 93.902344 57.085938 C 89.242188 57.085938 86.539062 57.355469 86.605469 57.761719 C 86.742188 58.164062 90.390625 64.449219 94.847656 71.742188 L 102.820312 85.050781 L 112.277344 71.40625 L 121.667969 57.761719 Z M 59.855469 61.679688 C 63.03125 60.058594 66.070312 55.9375 66.675781 52.492188 L 67.082031 49.992188 L 64.378906 52.691406 C 61.8125 55.191406 61.339844 55.394531 57.828125 55.394531 C 54.316406 55.394531 53.773438 55.191406 51.34375 52.894531 C 49.179688 50.871094 48.574219 49.722656 48.234375 47.222656 C 47.695312 43.371094 49.316406 39.585938 52.289062 37.761719 L 54.316406 36.546875 L 56.746094 40.195312 C 58.976562 43.707031 59.246094 43.910156 62.015625 43.910156 L 64.921875 43.910156 L 64.71875 39.722656 L 64.515625 35.464844 L 57.085938 35.464844 C 50.464844 35.535156 49.316406 35.667969 46.613281 37.15625 C 38.710938 41.613281 36.816406 51.816406 42.761719 58.570312 C 47.085938 63.503906 53.910156 64.785156 59.855469 61.679688 Z M 94.238281 49.519531 C 95.320312 47.355469 96.335938 45.398438 96.46875 45.128906 C 96.605469 44.789062 94.238281 44.585938 91.265625 44.585938 L 85.796875 44.585938 L 85.796875 47.898438 C 85.796875 50.597656 85.523438 51.273438 84.511719 51.542969 C 83.769531 51.746094 83.027344 51.679688 82.824219 51.476562 C 82.078125 50.800781 82.417969 30.332031 83.09375 28.980469 C 83.769531 27.765625 83.566406 27.699219 77.621094 27.699219 C 72.351562 27.699219 71.542969 27.832031 72.21875 28.644531 C 72.824219 29.320312 72.960938 33.035156 72.824219 41.480469 L 72.621094 53.367188 L 92.28125 53.367188 Z M 94.238281 49.519531 "/>
<path style=" stroke:none;fill-rule:nonzero;fill:rgb(40.392157%,21.568627%,17.647059%);fill-opacity:1;" d="M 64.851562 96.605469 C 65.800781 94.847656 68.636719 92.957031 69.582031 93.5625 C 69.921875 93.765625 70.730469 94.847656 71.269531 95.996094 L 72.351562 97.957031 L 68.230469 97.957031 C 64.3125 97.957031 64.179688 97.886719 64.851562 96.605469 Z M 64.851562 96.605469 "/>
<path style=" stroke:none;fill-rule:nonzero;fill:rgb(40.392157%,21.568627%,17.647059%);fill-opacity:1;" d="M 74.445312 79.582031 C 73.027344 78.160156 73.566406 75.863281 75.863281 73.566406 L 78.027344 71.339844 L 78.230469 75.324219 C 78.363281 78.027344 78.160156 79.445312 77.554688 79.78125 C 76.335938 80.59375 75.390625 80.527344 74.445312 79.582031 Z M 74.445312 79.582031 "/>
<path style=" stroke:none;fill-rule:nonzero;fill:rgb(40.392157%,21.568627%,17.647059%);fill-opacity:1;" d="M 42.558594 72.351562 C 42.558594 71.609375 46.476562 68.230469 47.289062 68.230469 C 48.097656 68.230469 49.992188 71 49.992188 72.082031 C 49.992188 72.691406 48.84375 72.960938 46.277344 72.960938 C 44.25 72.960938 42.558594 72.691406 42.558594 72.351562 Z M 42.558594 72.351562 "/>
</g>
</svg>
