<?xml version="1.0" encoding="UTF-8"?>
<svg xmlns="http://www.w3.org/2000/svg" xmlns:xlink="http://www.w3.org/1999/xlink" width="152px" height="114px" viewBox="0 0 152 152" version="1.1">
<g id="surface1">
<path style=" stroke:none;fill-rule:nonzero;fill:rgb(89.803922%,9.411765%,31.764706%);fill-opacity:1;" d="M 74.140625 141.867188 C 71.644531 141.597656 64.71875 140.246094 56.746094 138.488281 C 54.988281 138.117188 51.714844 137.40625 49.484375 136.933594 C 47.253906 136.460938 44.6875 135.855469 43.742188 135.515625 C 41.546875 134.773438 37.59375 132.339844 33.40625 129.097656 C 31.515625 127.679688 29.25 125.921875 28.339844 125.214844 C 25.570312 123.085938 17.160156 114.507812 15.03125 111.703125 C 11.449219 106.871094 10.335938 104.035156 9.324219 97.042969 C 8.75 93.191406 8.613281 92.890625 5.945312 88.902344 L 4.054688 86.097656 L 4.054688 80.425781 C 4.054688 75.1875 4.121094 74.414062 5.234375 69.546875 C 6.855469 62.554688 7.160156 61.609375 9.523438 56.882812 C 11.550781 52.828125 11.550781 52.828125 11.789062 48.945312 C 11.921875 46.578125 12.226562 44.6875 12.566406 44.046875 C 13.410156 42.324219 19.660156 34.453125 21.652344 32.5625 C 24.757812 29.65625 26.753906 28.675781 35.164062 26.078125 C 41.109375 24.21875 45.734375 22.023438 54.28125 17.023438 C 56.003906 16.011719 57.457031 15.199219 57.589844 15.199219 C 57.691406 15.199219 58.335938 14.828125 59.042969 14.390625 C 59.71875 13.984375 61.441406 13.003906 62.828125 12.261719 C 64.210938 11.519531 66.574219 10.234375 68.0625 9.390625 C 71.777344 7.296875 72.859375 6.992188 76.304688 7.160156 C 78.769531 7.261719 79.613281 7.464844 81.574219 8.445312 C 84.375 9.796875 88.871094 11.011719 92.855469 11.519531 C 97.683594 12.09375 102.683594 13.140625 105.691406 14.1875 C 110.183594 15.742188 112.613281 17.597656 119.910156 24.996094 C 126.464844 31.648438 128.523438 33.472656 132.070312 35.738281 C 134.367188 37.1875 137.273438 40.160156 138.21875 41.984375 C 139.875 45.226562 140.953125 49.519531 142.574219 59.109375 C 143.859375 66.710938 144.398438 74.480469 144.398438 84.613281 C 144.398438 91.671875 144.296875 93.160156 143.65625 96.097656 C 141.628906 105.285156 136.800781 115.621094 131.226562 122.613281 C 128.625 125.855469 124.503906 129.640625 121.261719 131.765625 C 117.511719 134.234375 108.191406 139.03125 105.960938 139.636719 C 104.980469 139.941406 102.753906 140.3125 100.996094 140.480469 C 99.238281 140.683594 96.199219 141.089844 94.238281 141.359375 C 90.050781 142 77.992188 142.273438 74.140625 141.867188 Z M 50.328125 92.382812 C 50.328125 91.742188 50.160156 91.539062 49.652344 91.539062 C 48.976562 91.539062 48.976562 91.570312 49.550781 92.382812 C 50.296875 93.394531 50.328125 93.394531 50.328125 92.382812 Z M 61.035156 87.585938 C 60.933594 87.246094 60.867188 87.519531 60.867188 88.160156 C 60.867188 88.800781 60.933594 89.070312 61.035156 88.769531 C 61.105469 88.429688 61.105469 87.890625 61.035156 87.585938 Z M 50.226562 84.714844 C 50.160156 84.105469 50.09375 84.578125 50.09375 85.796875 C 50.09375 87.011719 50.160156 87.484375 50.226562 86.910156 C 50.296875 86.300781 50.296875 85.289062 50.226562 84.714844 Z M 42.222656 84.816406 C 42.222656 84.648438 41.984375 84.34375 41.714844 84.105469 C 41.277344 83.769531 41.207031 83.800781 41.207031 84.410156 C 41.207031 84.816406 41.410156 85.121094 41.714844 85.121094 C 41.984375 85.121094 42.222656 84.984375 42.222656 84.816406 Z M 112.816406 84.882812 C 112.816406 84.714844 112.515625 84.242188 112.140625 83.769531 L 111.464844 82.925781 L 111.464844 84.039062 C 111.464844 84.882812 111.601562 85.121094 112.140625 85.121094 C 112.515625 85.121094 112.816406 85.019531 112.816406 84.882812 Z M 120.417969 83.5 C 120.316406 83.363281 120.078125 83.5 119.910156 83.769531 C 119.707031 84.074219 119.742188 84.34375 120.011719 84.511719 C 120.453125 84.78125 120.824219 83.871094 120.417969 83.5 Z M 86.472656 69.921875 C 86.472656 69.75 86.03125 69.582031 85.457031 69.582031 C 84.917969 69.582031 84.445312 69.75 84.445312 69.921875 C 84.445312 70.121094 84.917969 70.257812 85.457031 70.257812 C 86.03125 70.257812 86.472656 70.121094 86.472656 69.921875 Z M 39.417969 67.148438 C 39.351562 66.710938 39.285156 66.980469 39.285156 67.722656 C 39.25 68.46875 39.316406 68.804688 39.417969 68.5 C 39.484375 68.164062 39.484375 67.554688 39.417969 67.148438 Z M 39.417969 67.148438 "/>
<path style=" stroke:none;fill-rule:nonzero;fill:rgb(99.607843%,99.215686%,99.607843%);fill-opacity:1;" d="M 70.765625 151.664062 C 70.664062 151.492188 69.683594 151.324219 68.601562 151.324219 C 67.523438 151.324219 64.921875 151.019531 62.828125 150.648438 C 47.121094 147.8125 33.84375 140.886719 22.632812 129.707031 C 17.96875 125.078125 14.929688 121.328125 11.890625 116.5 C 5.4375 106.265625 2.535156 97.820312 0.371094 83.160156 C -0.84375 75.054688 1.011719 59.550781 4.222656 51.070312 C 5.980469 46.375 6.722656 44.652344 8.511719 41.140625 C 19.828125 18.882812 41.511719 3.78125 66.878906 0.507812 C 71.269531 -0.0664062 80.796875 -0.167969 83.902344 0.304688 C 85.050781 0.507812 87.179688 0.8125 88.667969 1.011719 C 92.011719 1.484375 99.035156 3.378906 102.953125 4.863281 C 122.511719 12.328125 138.421875 27.765625 146.15625 46.78125 C 148.824219 53.300781 151.324219 63.03125 151.324219 66.878906 C 151.324219 67.792969 151.492188 68.636719 151.664062 68.738281 C 151.863281 68.871094 152 71.609375 152 75.832031 C 152 80.054688 151.863281 82.789062 151.664062 82.925781 C 151.492188 83.027344 151.324219 83.769531 151.324219 84.546875 C 151.324219 85.324219 151.089844 87.28125 150.816406 88.9375 C 148.722656 100.792969 144.097656 111.535156 136.699219 121.566406 C 133.152344 126.394531 125.382812 133.960938 120.078125 137.710938 C 109.710938 145.109375 95.488281 150.480469 84.511719 151.222656 C 82.789062 151.324219 81.304688 151.5625 81.203125 151.695312 C 80.964844 152.136719 71.035156 152.066406 70.765625 151.664062 Z M 93.226562 140.347656 C 95.1875 140.078125 98.226562 139.671875 99.980469 139.46875 C 101.738281 139.300781 103.96875 138.929688 104.949219 138.625 C 107.175781 138.015625 116.5 133.21875 120.25 130.753906 C 123.492188 128.625 127.613281 124.84375 130.214844 121.601562 C 135.785156 114.609375 140.617188 104.273438 142.609375 95.085938 C 144.027344 88.632812 143.523438 71.742188 141.5625 60.125 C 139.941406 50.53125 138.859375 46.242188 137.207031 43 C 136.257812 41.175781 133.355469 38.203125 131.058594 36.75 C 127.511719 34.488281 125.449219 32.664062 118.898438 26.007812 C 111.601562 18.613281 109.167969 16.753906 104.675781 15.199219 C 101.671875 14.152344 96.671875 13.105469 91.839844 12.53125 C 87.890625 12.023438 83.398438 10.808594 80.660156 9.492188 C 78.027344 8.207031 75.089844 7.800781 73.09375 8.445312 C 72.386719 8.679688 70.5625 9.558594 69.074219 10.402344 C 67.589844 11.246094 65.226562 12.53125 63.839844 13.273438 C 62.457031 14.019531 60.734375 14.996094 60.058594 15.402344 C 59.347656 15.839844 58.707031 16.214844 58.605469 16.214844 C 58.46875 16.214844 57.015625 17.023438 55.292969 18.039062 C 46.75 23.035156 42.121094 25.230469 36.175781 27.089844 C 27.765625 29.691406 25.773438 30.671875 22.664062 33.574219 C 20.671875 35.464844 14.421875 43.335938 13.578125 45.058594 C 13.242188 45.703125 12.9375 47.59375 12.800781 49.957031 C 12.566406 53.839844 12.566406 53.839844 10.539062 57.894531 C 8.175781 62.625 7.871094 63.570312 6.25 70.5625 C 5.203125 75.1875 5.066406 76.335938 5.066406 80.425781 L 5.066406 85.085938 L 6.957031 87.890625 C 9.625 91.875 9.761719 92.179688 10.335938 96.03125 C 11.347656 103.023438 12.464844 105.859375 16.042969 110.691406 C 18.171875 113.492188 26.582031 122.074219 29.351562 124.199219 C 30.265625 124.910156 32.527344 126.667969 34.417969 128.085938 C 38.609375 131.328125 42.558594 133.761719 44.753906 134.503906 C 45.703125 134.839844 48.269531 135.449219 50.496094 135.921875 C 52.726562 136.394531 56.003906 137.105469 57.761719 137.476562 C 65.730469 139.230469 72.65625 140.582031 75.15625 140.851562 C 78.835938 141.257812 88.902344 140.988281 93.226562 140.347656 Z M 93.226562 140.347656 "/>
<path style=" stroke:none;fill-rule:nonzero;fill:rgb(99.607843%,99.215686%,99.607843%);fill-opacity:1;" d="M 85.050781 89.613281 C 84.984375 86.84375 85.019531 84.074219 85.121094 83.429688 L 85.289062 82.25 L 91.707031 82.25 L 91.808594 83.328125 L 91.910156 84.410156 L 89.445312 84.34375 L 86.976562 84.277344 L 86.976562 88.667969 L 89.445312 88.769531 C 91.605469 88.871094 91.875 88.9375 91.875 89.511719 C 91.875 90.117188 91.640625 90.1875 89.542969 90.1875 C 87.113281 90.1875 86.808594 90.390625 86.808594 91.910156 C 86.808594 92.484375 87.078125 92.550781 89.34375 92.550781 L 91.875 92.550781 L 91.875 94.578125 L 85.152344 94.578125 Z M 85.050781 89.613281 "/>
<path style=" stroke:none;fill-rule:nonzero;fill:rgb(99.607843%,99.215686%,99.607843%);fill-opacity:1;" d="M 40.195312 88.496094 L 40.195312 82.753906 L 41.34375 82.753906 C 42.257812 82.753906 42.660156 82.992188 43.4375 84.039062 C 43.945312 84.714844 44.554688 85.457031 44.753906 85.625 C 44.957031 85.828125 45.9375 86.976562 46.949219 88.261719 C 47.929688 89.511719 48.84375 90.523438 48.976562 90.523438 C 49.113281 90.523438 49.179688 88.734375 49.179688 86.574219 L 49.148438 82.585938 L 50.261719 82.484375 L 51.34375 82.382812 L 51.34375 94.238281 L 50.261719 94.207031 C 49.28125 94.207031 48.773438 93.765625 45.769531 90.152344 L 42.390625 86.097656 L 42.1875 87.214844 C 42.085938 87.820312 42.019531 89.445312 42.085938 90.828125 C 42.15625 93.867188 42.054688 94.238281 41.007812 94.238281 L 40.195312 94.238281 Z M 40.195312 88.496094 "/>
<path style=" stroke:none;fill-rule:nonzero;fill:rgb(99.607843%,99.215686%,99.607843%);fill-opacity:1;" d="M 63.503906 93.835938 C 61.105469 93.160156 59.785156 91.132812 59.785156 88.160156 C 59.785156 84.917969 61.238281 82.992188 64.210938 82.214844 C 66.203125 81.707031 66.542969 81.808594 66.542969 82.925781 C 66.542969 83.566406 66.238281 83.800781 65.125 84.175781 C 61.207031 85.492188 61.136719 90.929688 65.023438 91.910156 C 66.375 92.246094 66.542969 92.382812 66.542969 93.261719 C 66.542969 94.105469 66.40625 94.238281 65.628906 94.207031 C 65.089844 94.207031 64.144531 94.039062 63.503906 93.835938 Z M 63.503906 93.835938 "/>
<path style=" stroke:none;fill-rule:nonzero;fill:rgb(99.607843%,99.215686%,99.607843%);fill-opacity:1;" d="M 72.117188 93.835938 C 72.015625 93.5625 71.980469 90.792969 72.015625 87.652344 L 72.117188 81.910156 L 73.636719 81.808594 C 77.214844 81.539062 79.039062 83.128906 79.039062 86.503906 C 79.039062 87.921875 78.835938 88.632812 78.160156 89.613281 C 77.316406 90.863281 77.316406 90.894531 77.960938 91.808594 C 78.332031 92.316406 78.769531 93.058594 79.007812 93.496094 C 79.378906 94.207031 79.34375 94.238281 78.261719 94.238281 C 77.285156 94.238281 77.082031 94.070312 76.40625 92.71875 C 75.832031 91.539062 75.492188 91.199219 74.851562 91.199219 C 74.109375 91.199219 74.007812 91.367188 73.90625 92.652344 C 73.839844 93.835938 73.667969 94.105469 73.027344 94.171875 C 72.621094 94.238281 72.21875 94.070312 72.117188 93.835938 Z M 76.40625 89.375 C 77.25 88.734375 77.992188 86.808594 77.789062 85.726562 C 77.554688 84.546875 76.40625 83.5 75.054688 83.226562 L 73.972656 83.027344 L 73.972656 89.847656 L 74.917969 89.847656 C 75.425781 89.847656 76.101562 89.613281 76.40625 89.375 Z M 76.40625 89.375 "/>
<path style=" stroke:none;fill-rule:nonzero;fill:rgb(99.607843%,99.215686%,99.607843%);fill-opacity:1;" d="M 95.253906 93.699219 C 95.253906 93.160156 95.589844 92.316406 98.160156 86.472656 C 98.765625 85.085938 99.40625 83.53125 99.609375 83.027344 C 99.882812 82.351562 100.183594 82.078125 100.792969 82.078125 C 101.503906 82.078125 101.773438 82.453125 102.617188 84.546875 C 103.191406 85.863281 104.339844 88.496094 105.183594 90.355469 C 106.027344 92.214844 106.570312 93.867188 106.433594 94.003906 C 105.824219 94.613281 104.542969 94.070312 104.070312 92.988281 L 103.5625 91.875 L 100.589844 91.875 C 97.886719 91.875 97.617188 91.941406 97.617188 92.515625 C 97.617188 93.765625 97.210938 94.238281 96.234375 94.238281 C 95.558594 94.238281 95.253906 94.070312 95.253906 93.699219 Z M 102.683594 89.714844 C 102.683594 89.308594 100.894531 85.457031 100.691406 85.457031 C 100.523438 85.457031 99.476562 87.652344 98.699219 89.578125 C 98.632812 89.714844 99.507812 89.847656 100.625 89.847656 C 101.773438 89.847656 102.683594 89.78125 102.683594 89.714844 Z M 102.683594 89.714844 "/>
<path style=" stroke:none;fill-rule:nonzero;fill:rgb(99.607843%,99.215686%,99.607843%);fill-opacity:1;" d="M 110.890625 93.664062 C 110.554688 93.5625 110.453125 92.042969 110.453125 87.789062 L 110.453125 82.078125 L 111.566406 82.078125 C 112.582031 82.078125 112.851562 82.316406 114.203125 84.277344 C 115.011719 85.457031 115.859375 86.472656 116.027344 86.472656 C 116.230469 86.472656 117.039062 85.457031 117.851562 84.242188 C 119.234375 82.25 119.472656 82.046875 120.382812 82.148438 L 121.429688 82.25 L 121.429688 93.699219 L 119.742188 93.699219 L 119.640625 89.847656 C 119.605469 87.722656 119.40625 85.828125 119.234375 85.660156 C 119 85.425781 118.898438 85.457031 118.898438 85.726562 C 118.898438 86.335938 116.464844 89.511719 115.992188 89.511719 C 115.757812 89.511719 114.910156 88.734375 114.101562 87.753906 L 112.648438 86 L 112.480469 89.847656 C 112.3125 93.800781 112.140625 94.207031 110.890625 93.664062 Z M 110.890625 93.664062 "/>
<path style=" stroke:none;fill-rule:nonzero;fill:rgb(99.607843%,99.215686%,99.607843%);fill-opacity:1;" d="M 55.734375 84.277344 C 55.734375 81.640625 55.867188 81.4375 57.21875 81.945312 C 57.625 82.113281 57.761719 82.652344 57.761719 84.476562 L 57.761719 86.808594 L 55.734375 86.808594 Z M 55.734375 84.277344 "/>
<path style=" stroke:none;fill-rule:nonzero;fill:rgb(99.607843%,99.215686%,99.607843%);fill-opacity:1;" d="M 53.605469 73.464844 C 51.070312 72.589844 49.652344 70.496094 49.652344 67.554688 C 49.652344 64.953125 50.734375 63.300781 53.335938 61.980469 C 55.597656 60.832031 59.210938 61.949219 60.699219 64.246094 C 62.050781 66.238281 62.117188 68.433594 60.96875 70.5625 C 60.429688 71.507812 59.550781 72.554688 58.976562 72.890625 C 57.488281 73.769531 55.160156 74.007812 53.605469 73.464844 Z M 57.792969 71.441406 C 59.921875 70.324219 60.734375 67.386719 59.484375 65.328125 C 57.726562 62.421875 53.097656 62.691406 51.816406 65.765625 C 51.171875 67.25 51.207031 68.027344 51.984375 69.546875 C 53.097656 71.675781 55.664062 72.519531 57.792969 71.441406 Z M 57.792969 71.441406 "/>
<path style=" stroke:none;fill-rule:nonzero;fill:rgb(99.607843%,99.215686%,99.607843%);fill-opacity:1;" d="M 70.933594 73.566406 C 68.332031 72.824219 66.542969 70.394531 66.542969 67.589844 C 66.542969 63.738281 70.425781 60.765625 74.210938 61.78125 C 79.816406 63.300781 80.257812 71.238281 74.816406 73.5 C 73.5 74.039062 72.621094 74.074219 70.933594 73.566406 Z M 75.121094 71.238281 C 77.789062 69.144531 77.554688 65.328125 74.613281 63.839844 C 72.792969 62.894531 71.203125 63.164062 69.683594 64.683594 C 68.703125 65.664062 68.570312 66.035156 68.570312 67.488281 C 68.570312 70.15625 70.292969 71.878906 72.992188 71.914062 C 73.738281 71.945312 74.546875 71.675781 75.121094 71.238281 Z M 75.121094 71.238281 "/>
<path style=" stroke:none;fill-rule:nonzero;fill:rgb(99.607843%,99.215686%,99.607843%);fill-opacity:1;" d="M 83.328125 73.5 C 83.261719 73.296875 83.261719 70.496094 83.363281 67.285156 L 83.53125 61.441406 L 84.410156 61.542969 C 85.289062 61.644531 85.289062 61.679688 85.457031 65.089844 L 85.625 68.535156 L 87.113281 66.101562 C 89.375 62.386719 90.152344 61.476562 90.964844 61.476562 C 92.382812 61.476562 92.585938 61.914062 91.742188 63.164062 C 91.300781 63.804688 90.1875 65.597656 89.207031 67.148438 L 87.484375 69.953125 L 88.226562 70.695312 C 88.667969 71.101562 89.542969 71.878906 90.1875 72.386719 C 91.167969 73.128906 91.265625 73.367188 90.863281 73.636719 C 89.917969 74.242188 88.902344 73.972656 87.28125 72.621094 L 85.625 71.238281 L 85.457031 72.351562 C 85.324219 73.164062 85.085938 73.464844 84.375 73.667969 C 83.800781 73.804688 83.429688 73.769531 83.328125 73.5 Z M 83.328125 73.5 "/>
<path style=" stroke:none;fill-rule:nonzero;fill:rgb(99.607843%,99.215686%,99.607843%);fill-opacity:1;" d="M 97.484375 72.554688 C 97.246094 70.730469 97.246094 64.042969 97.515625 62.554688 C 97.683594 61.578125 97.820312 61.441406 98.597656 61.542969 L 99.476562 61.644531 L 99.476562 73.804688 L 98.597656 73.90625 C 97.785156 74.007812 97.683594 73.871094 97.484375 72.554688 Z M 97.484375 72.554688 "/>
<path style=" stroke:none;fill-rule:nonzero;fill:rgb(99.607843%,99.215686%,99.607843%);fill-opacity:1;" d="M 104.949219 73.769531 C 104.8125 73.636719 104.710938 70.796875 104.710938 67.488281 L 104.710938 61.441406 L 108.019531 61.542969 L 111.296875 61.644531 L 111.398438 62.589844 L 111.5 63.503906 L 109.167969 63.503906 C 107.886719 63.503906 106.773438 63.570312 106.703125 63.636719 C 106.636719 63.703125 106.636719 64.785156 106.671875 66 L 106.804688 68.230469 L 109.136719 68.230469 C 111.230469 68.230469 111.464844 68.296875 111.464844 68.90625 C 111.464844 69.515625 111.230469 69.582031 109.136719 69.582031 C 106.941406 69.582031 106.804688 69.617188 106.601562 70.425781 C 106.46875 70.898438 106.46875 71.441406 106.570312 71.609375 C 106.703125 71.8125 107.851562 71.945312 109.136719 71.945312 L 111.5 71.945312 L 111.398438 72.890625 C 111.296875 73.804688 111.296875 73.804688 108.257812 73.90625 C 106.570312 73.972656 105.082031 73.90625 104.949219 73.769531 Z M 104.949219 73.769531 "/>
<path style=" stroke:none;fill-rule:nonzero;fill:rgb(99.607843%,99.215686%,99.607843%);fill-opacity:1;" d="M 40.871094 72.992188 C 39.011719 72.015625 38.371094 70.898438 38.238281 68.265625 C 38.066406 65.5625 38.574219 64.347656 40.398438 62.960938 C 41.78125 61.882812 45.261719 61.339844 45.261719 62.183594 C 45.261719 62.929688 44.855469 63.300781 43.335938 63.976562 C 41.445312 64.820312 40.90625 65.460938 40.667969 67.25 C 40.398438 69.445312 41.308594 70.933594 43.335938 71.574219 C 44.824219 72.046875 45.464844 72.691406 45.058594 73.332031 C 44.753906 73.871094 42.085938 73.667969 40.871094 72.992188 Z M 40.871094 72.992188 "/>
<path style=" stroke:none;fill-rule:nonzero;fill:rgb(99.607843%,99.215686%,99.607843%);fill-opacity:1;" d="M 115.453125 73.09375 C 114.371094 72.519531 114.371094 72.589844 114.910156 71.441406 C 115.351562 70.496094 115.757812 70.394531 116.667969 71.101562 C 117.480469 71.710938 118.964844 71.742188 119.503906 71.203125 C 120.519531 70.191406 119.304688 68.570312 117.511719 68.570312 C 116.09375 68.570312 114.84375 66.878906 114.84375 64.953125 C 114.84375 62.015625 117.480469 60.632812 120.6875 61.882812 C 121.703125 62.285156 121.835938 62.726562 121.128906 63.671875 C 120.722656 64.210938 120.554688 64.246094 119.640625 63.875 C 118.390625 63.367188 117.308594 63.636719 117.039062 64.550781 C 116.769531 65.394531 117.308594 66.070312 118.492188 66.304688 C 121.902344 66.980469 123.289062 70.496094 121.027344 72.757812 C 120.28125 73.5 119.84375 73.636719 118.257812 73.636719 C 117.207031 73.601562 115.960938 73.367188 115.453125 73.09375 Z M 115.453125 73.09375 "/>
</g>
</svg>
