<?xml version="1.0" encoding="UTF-8"?>
<svg xmlns="http://www.w3.org/2000/svg" xmlns:xlink="http://www.w3.org/1999/xlink" width="152px" height="114px" viewBox="0 0 152 152" version="1.1">
<g id="surface1">
<path style=" stroke:none;fill-rule:nonzero;fill:rgb(100%,78.039216%,78.039216%);fill-opacity:1;" d="M 0 76 L 0 0 L 152 0 L 152 152 L 0 152 Z M 77.25 107.785156 C 77.316406 107.480469 77.6875 106.601562 78.058594 105.824219 C 78.667969 104.40625 78.734375 104.375 80.257812 104.375 C 81.472656 104.375 81.84375 104.507812 81.980469 104.980469 C 82.148438 105.722656 86.234375 106.570312 87.179688 106.027344 C 88.023438 105.589844 89.949219 105.65625 91.199219 106.199219 C 92.113281 106.570312 92.449219 106.570312 93.125 106.230469 C 94.339844 105.589844 94.914062 104.675781 94.542969 103.933594 C 94.339844 103.597656 94.238281 102.753906 94.308594 102.078125 C 94.410156 100.996094 94.542969 100.792969 95.421875 100.625 C 97.144531 100.253906 102.3125 100.285156 103.902344 100.691406 C 105.285156 101.0625 105.386719 101.128906 105.386719 102.246094 C 105.386719 102.921875 105.183594 103.460938 104.914062 103.5625 C 104.101562 103.867188 104.070312 104.949219 104.847656 105.691406 C 105.757812 106.535156 106.636719 106.601562 107.480469 105.824219 C 107.988281 105.386719 109.101562 105.183594 112.242188 105.015625 C 114.507812 104.847656 116.734375 104.644531 117.207031 104.507812 C 118.1875 104.238281 119.910156 103.054688 121.53125 101.535156 C 122.546875 100.554688 122.882812 100.488281 125.585938 100.320312 L 128.492188 100.152344 L 129.03125 98.429688 C 129.671875 96.300781 130.078125 95.761719 132.136719 94.613281 C 134.097656 93.496094 134.941406 92.449219 135.246094 90.761719 C 135.414062 89.847656 135.753906 89.308594 136.394531 88.9375 C 137.507812 88.296875 139.636719 85.761719 140.753906 83.734375 C 141.226562 82.925781 141.765625 82.148438 141.933594 82.046875 C 142.441406 81.742188 142.476562 72.21875 141.96875 71.238281 C 141.765625 70.796875 141.125 69.445312 140.550781 68.230469 C 139.875 66.746094 138.929688 65.425781 137.542969 64.109375 C 135.957031 62.625 135.484375 61.914062 135.28125 60.867188 C 135.011719 59.28125 133.929688 58.164062 131.496094 56.914062 C 130.414062 56.375 129.671875 55.765625 129.539062 55.292969 C 128.558594 51.542969 128.1875 51.242188 125.417969 51.542969 C 123.492188 51.78125 121.9375 51.273438 121.703125 50.328125 C 121.601562 49.957031 121.398438 49.652344 121.261719 49.652344 C 121.09375 49.652344 120.214844 49.148438 119.269531 48.539062 C 117.277344 47.1875 113.324219 46.308594 112.175781 46.917969 C 111.804688 47.121094 110.859375 47.289062 110.082031 47.289062 C 108.933594 47.289062 108.425781 47.085938 107.546875 46.242188 C 106.738281 45.464844 106.296875 45.261719 105.625 45.429688 C 104.746094 45.667969 104.710938 45.800781 104.171875 49.382812 C 104.070312 50.09375 103.765625 50.800781 103.527344 51.003906 C 103.257812 51.242188 101.535156 51.34375 98.933594 51.273438 L 94.746094 51.171875 L 94.578125 49.148438 C 94.339844 46.375 93.765625 45.601562 91.976562 45.601562 C 91.199219 45.601562 90.457031 45.769531 90.320312 45.972656 C 90.1875 46.207031 89.578125 46.242188 88.699219 46.105469 C 87.957031 46.003906 86.300781 45.800781 85.050781 45.734375 C 83.09375 45.566406 82.753906 45.632812 82.753906 46.074219 C 82.753906 46.816406 80.898438 46.78125 80.085938 46.003906 C 79.582031 45.53125 79.410156 44.824219 79.308594 42.289062 C 79.207031 39.285156 79.175781 39.082031 78.296875 38.4375 C 77.757812 38.066406 77.351562 37.492188 77.351562 37.15625 C 77.351562 36.785156 77.183594 36.140625 76.980469 35.667969 C 76.640625 34.960938 76.472656 34.890625 75.964844 35.164062 C 75.5625 35.367188 75.324219 35.871094 75.324219 36.480469 C 75.324219 37.121094 74.953125 37.832031 74.277344 38.539062 L 73.230469 39.621094 L 73.464844 43.640625 L 73.703125 47.625 L 72.488281 47.625 C 71.8125 47.625 71.269531 47.492188 71.269531 47.324219 C 71.269531 46.714844 67.589844 45.5 66.476562 45.769531 C 64.042969 46.277344 62.117188 46.34375 61.644531 45.9375 C 61.238281 45.601562 61.136719 45.632812 61.136719 46.242188 C 61.136719 46.851562 60.933594 46.949219 59.617188 46.949219 C 57.996094 46.949219 57.625 47.492188 58.605469 48.300781 C 58.875 48.539062 59.109375 49.246094 59.109375 49.855469 C 59.109375 51.308594 58.707031 51.410156 54.042969 51.273438 L 50.496094 51.171875 L 50.296875 49.921875 C 50.058594 48.472656 49.148438 46.949219 48.503906 46.949219 C 48.234375 46.949219 47.964844 46.648438 47.863281 46.277344 C 47.492188 44.890625 45.296875 44.992188 44.652344 46.445312 C 44.316406 47.1875 44.046875 47.289062 42.660156 47.289062 C 41.75 47.289062 40.363281 47.121094 39.554688 46.917969 C 38.335938 46.648438 37.695312 46.714844 35.839844 47.324219 C 32.59375 48.402344 31.988281 48.773438 30.941406 50.363281 L 29.996094 51.78125 L 27.359375 51.578125 L 24.726562 51.375 L 23.882812 52.660156 C 23.40625 53.367188 22.96875 54.382812 22.902344 54.921875 C 22.832031 55.699219 22.460938 56.070312 21.210938 56.746094 C 18.914062 57.996094 17.902344 59.078125 17.464844 60.765625 C 17.226562 61.578125 16.820312 62.320312 16.550781 62.421875 C 15.808594 62.625 12.871094 66.339844 11.789062 68.367188 C 11.316406 69.347656 10.707031 70.933594 10.503906 71.914062 C 9.726562 75.492188 10.234375 80.695312 11.621094 83.261719 C 11.921875 83.835938 12.160156 84.445312 12.160156 84.648438 C 12.160156 84.851562 13.308594 86.097656 14.691406 87.382812 C 16.820312 89.375 17.226562 89.949219 17.226562 90.828125 C 17.226562 91.640625 17.597656 92.246094 18.746094 93.429688 C 19.589844 94.273438 20.738281 95.117188 21.3125 95.320312 C 22.089844 95.589844 22.53125 96.132812 23.339844 97.886719 C 23.882812 99.136719 24.488281 100.21875 24.691406 100.355469 C 24.894531 100.457031 26.144531 100.488281 27.460938 100.421875 L 29.894531 100.285156 L 31.820312 102.109375 C 34.417969 104.574219 36.378906 105.183594 40.734375 104.847656 C 43.910156 104.609375 43.945312 104.609375 44.925781 105.554688 L 45.902344 106.5 L 47.796875 105.925781 C 48.808594 105.589844 49.753906 105.183594 49.855469 105.015625 C 50.160156 104.476562 49.316406 103.699219 48.4375 103.699219 C 47.726562 103.699219 47.625 103.527344 47.625 102.378906 C 47.625 101.0625 47.625 101.03125 49.113281 100.828125 C 51.273438 100.488281 56.238281 100.488281 58.535156 100.792969 C 60.394531 101.03125 60.460938 101.097656 60.460938 102.042969 C 60.460938 102.921875 60.5625 103.023438 61.476562 103.023438 C 62.421875 103.023438 62.488281 103.125 62.488281 104.203125 C 62.488281 105.320312 62.421875 105.386719 61.308594 105.386719 C 60.226562 105.386719 60.125 105.320312 60.125 104.339844 C 60.125 103.425781 60.023438 103.328125 59.382812 103.5625 C 57.558594 104.101562 57.457031 105.050781 59.144531 105.894531 C 60.257812 106.5 61.679688 106.535156 61.980469 106.027344 C 62.152344 105.792969 63.300781 105.757812 65.496094 105.894531 C 68.636719 106.097656 68.773438 106.097656 69.886719 105.25 C 71.167969 104.273438 72.824219 104.101562 74.074219 104.8125 C 75.121094 105.386719 75.324219 105.722656 75.324219 107.109375 C 75.324219 107.785156 75.425781 108.394531 75.527344 108.496094 C 75.863281 108.832031 77.082031 108.359375 77.25 107.785156 Z M 77.25 107.785156 "/>
<path style=" stroke:none;fill-rule:nonzero;fill:rgb(100%,78.039216%,78.039216%);fill-opacity:1;" d="M 90.085938 105.148438 C 89.949219 105.050781 89.847656 104.203125 89.847656 103.292969 L 89.847656 101.671875 L 92.550781 101.671875 L 92.550781 105.386719 L 91.4375 105.386719 C 90.792969 105.386719 90.1875 105.285156 90.085938 105.148438 Z M 90.085938 105.148438 "/>
<path style=" stroke:none;fill-rule:nonzero;fill:rgb(100%,78.039216%,78.039216%);fill-opacity:1;" d="M 30.0625 95.152344 C 29.21875 94.949219 28.476562 94.679688 28.375 94.578125 C 28.273438 94.441406 27.664062 94.238281 27.023438 94.136719 C 23.441406 93.53125 23.578125 93.632812 23.710938 92.011719 C 23.78125 90.828125 23.710938 90.523438 23.171875 90.390625 C 22.597656 90.253906 22.5625 90.019531 22.800781 87.921875 C 23.070312 85.355469 23.746094 83.769531 24.65625 83.53125 C 24.996094 83.429688 25.332031 83.09375 25.433594 82.722656 C 25.535156 82.382812 26.144531 81.84375 26.820312 81.503906 C 27.496094 81.203125 28.035156 80.832031 28.035156 80.660156 C 28.035156 80.527344 28.574219 80.390625 29.21875 80.390625 C 30.332031 80.390625 30.398438 80.457031 30.398438 81.574219 C 30.398438 82.519531 30.535156 82.753906 31.074219 82.753906 C 31.445312 82.753906 31.75 82.621094 31.75 82.417969 C 31.75 82.25 31.617188 82.078125 31.414062 82.078125 C 31.210938 82.078125 31.074219 78.804688 31.074219 72.960938 L 31.074219 63.839844 L 33.441406 63.839844 L 33.441406 71.945312 C 33.441406 77.113281 33.574219 80.054688 33.777344 80.054688 C 33.980469 80.054688 34.117188 79.917969 34.117188 79.714844 C 34.117188 79.546875 34.691406 78.128906 35.433594 76.609375 C 36.140625 75.054688 37.089844 72.890625 37.492188 71.777344 C 37.933594 70.664062 38.371094 69.683594 38.472656 69.582031 C 38.609375 69.480469 38.878906 68.804688 39.148438 68.0625 C 39.417969 67.320312 39.890625 66.070312 40.230469 65.292969 C 40.835938 63.875 40.90625 63.839844 42.390625 63.839844 C 43.707031 63.839844 43.910156 63.941406 43.910156 64.550781 C 43.910156 65.292969 44.652344 66.203125 45.226562 66.203125 C 45.429688 66.203125 45.601562 65.902344 45.601562 65.527344 C 45.601562 64.988281 45.835938 64.851562 46.75 64.851562 L 47.898438 64.851562 L 48.132812 66.949219 C 48.300781 68.398438 48.269531 69.074219 48 69.175781 C 47.796875 69.246094 47.625 69.515625 47.625 69.785156 C 47.625 70.054688 47.390625 70.257812 47.121094 70.257812 C 46.78125 70.257812 46.613281 70.628906 46.613281 71.441406 C 46.613281 72.25 46.78125 72.621094 47.121094 72.621094 C 47.425781 72.621094 47.625 72.925781 47.625 73.433594 C 47.625 73.871094 47.761719 74.3125 47.898438 74.378906 C 48.03125 74.445312 48.640625 75.628906 49.28125 77.011719 C 50.328125 79.410156 51.679688 81.539062 51.679688 80.832031 C 51.679688 80.628906 51.984375 80.390625 52.355469 80.289062 C 52.964844 80.121094 53.03125 79.816406 53.03125 77.554688 L 53.03125 74.988281 L 55.363281 74.988281 L 55.496094 78.128906 C 55.53125 79.816406 55.632812 77.789062 55.664062 73.566406 C 55.699219 69.378906 55.835938 65.699219 55.9375 65.394531 C 56.105469 64.988281 56.644531 64.851562 58.300781 64.851562 C 60.058594 64.851562 60.460938 64.753906 60.460938 64.3125 C 60.460938 63.839844 60.800781 63.773438 62.589844 63.90625 C 65.054688 64.042969 67.894531 65.292969 68.398438 66.476562 C 68.570312 66.878906 68.839844 67.21875 68.972656 67.21875 C 69.144531 67.21875 69.246094 67.453125 69.246094 67.722656 C 69.246094 67.996094 69.414062 68.230469 69.582031 68.230469 C 69.785156 68.230469 69.921875 68.027344 69.921875 67.757812 C 69.921875 67.488281 69.785156 67.148438 69.582031 67.050781 C 69.414062 66.949219 69.246094 66.171875 69.246094 65.328125 L 69.246094 63.839844 L 83.53125 63.941406 C 91.367188 64.007812 98.394531 64.210938 99.136719 64.347656 C 99.882812 64.480469 100.757812 64.921875 101.097656 65.292969 C 101.671875 65.96875 101.671875 65.96875 101.671875 65.257812 C 101.671875 64.652344 101.875 64.515625 102.785156 64.515625 C 104.035156 64.515625 104.710938 65.023438 104.710938 65.933594 C 104.710938 66.273438 104.949219 66.542969 105.21875 66.542969 C 105.554688 66.542969 105.722656 66.878906 105.722656 67.523438 C 105.722656 68.367188 105.859375 68.535156 106.671875 68.636719 C 107.3125 68.703125 107.617188 68.941406 107.683594 69.515625 C 107.75 69.921875 108.019531 70.257812 108.292969 70.257812 C 108.5625 70.257812 108.898438 70.527344 109 70.832031 C 109.136719 71.167969 109.644531 71.777344 110.148438 72.21875 C 110.65625 72.621094 111.164062 73.332031 111.230469 73.738281 C 111.296875 74.140625 111.398438 72.859375 111.433594 70.867188 C 111.464844 66.710938 111.332031 66.203125 110.25 66.203125 C 109.542969 66.203125 109.441406 66.035156 109.441406 65.023438 L 109.441406 63.839844 L 117.546875 63.839844 L 117.546875 65.023438 C 117.546875 66.101562 117.480469 66.203125 116.535156 66.203125 C 115.65625 66.203125 115.484375 66.375 115.285156 67.21875 C 115.148438 67.925781 114.910156 68.230469 114.472656 68.230469 C 113.933594 68.230469 113.832031 68.5 113.832031 70.257812 C 113.832031 72.046875 113.898438 72.285156 114.507812 72.285156 C 115.113281 72.285156 115.183594 72.519531 115.183594 74.140625 C 115.183594 75.761719 115.113281 76 114.507812 76 C 113.964844 76 113.832031 76.238281 113.832031 77.214844 L 113.832031 78.433594 L 112.3125 78.296875 C 111.0625 78.195312 110.792969 78.296875 110.792969 78.769531 C 110.792969 79.277344 111.09375 79.34375 113.15625 79.277344 L 115.519531 79.207031 L 116.261719 77.453125 C 116.703125 76.472656 117.207031 75.664062 117.410156 75.664062 C 117.613281 75.664062 117.882812 75.054688 117.984375 74.277344 C 118.085938 73.535156 118.59375 71.945312 119.101562 70.730469 C 119.808594 69.042969 120.179688 68.570312 120.722656 68.570312 C 121.363281 68.570312 121.429688 68.398438 121.328125 67.421875 C 121.261719 66.777344 121.363281 65.699219 121.601562 65.023438 C 122.003906 63.839844 122.039062 63.804688 123.523438 63.90625 L 125.046875 64.007812 L 125.992188 66.203125 C 126.53125 67.421875 127.375 69.480469 127.882812 70.765625 L 128.828125 73.164062 L 131.394531 73.128906 C 134.773438 73.128906 135.921875 73.667969 136.058594 75.425781 C 136.125 76.238281 136.328125 76.675781 136.664062 76.675781 C 136.96875 76.675781 137.136719 77.046875 137.136719 77.859375 C 137.136719 79.039062 137.136719 79.039062 135.617188 79.039062 C 134.265625 79.039062 134.097656 78.9375 133.894531 78.128906 C 133.488281 76.507812 132.003906 75.628906 130.988281 76.40625 C 130.484375 76.8125 130.484375 76.980469 130.957031 78.398438 C 131.363281 79.648438 131.664062 80.019531 132.578125 80.355469 C 133.21875 80.558594 133.792969 81.03125 133.863281 81.335938 C 133.960938 81.675781 134.03125 81.539062 134.0625 81 C 134.097656 80.121094 134.199219 80.054688 135.617188 80.054688 C 137.136719 80.054688 137.136719 80.054688 137.136719 81.203125 C 137.136719 81.84375 136.902344 82.585938 136.632812 82.890625 C 136.359375 83.160156 136.125 83.53125 136.125 83.703125 C 136.125 83.871094 135.820312 84.105469 135.449219 84.207031 C 135.078125 84.308594 134.773438 84.613281 134.773438 84.917969 C 134.773438 85.253906 134.402344 85.558594 133.761719 85.695312 C 133.1875 85.796875 132.746094 86 132.746094 86.167969 C 132.746094 86.335938 132.207031 86.472656 131.5625 86.472656 C 130.382812 86.472656 130.382812 86.472656 130.382812 84.949219 C 130.382812 84.105469 130.246094 83.429688 130.042969 83.429688 C 129.875 83.429688 129.707031 84.140625 129.707031 84.984375 L 129.707031 86.574219 L 128.117188 86.371094 C 127.242188 86.269531 126.464844 86.03125 126.394531 85.828125 C 126.328125 85.625 125.921875 85.457031 125.519531 85.457031 C 124.605469 85.457031 123.289062 84.546875 123.289062 83.902344 C 123.289062 83.632812 123.152344 83.429688 122.949219 83.429688 C 122.78125 83.429688 122.613281 82.890625 122.613281 82.25 C 122.613281 81.605469 122.78125 81.066406 122.949219 81.066406 C 123.152344 81.066406 123.289062 80.832031 123.289062 80.527344 C 123.289062 80.085938 123.558594 80.019531 124.605469 80.121094 L 125.890625 80.222656 L 125.722656 78.804688 C 125.550781 77.386719 125.585938 77.351562 126.632812 77.351562 C 127.511719 77.351562 127.679688 77.214844 127.679688 76.507812 C 127.679688 75.964844 127.476562 75.664062 127.171875 75.664062 C 126.902344 75.664062 126.667969 75.832031 126.667969 76 C 126.667969 76.203125 126.226562 76.335938 125.652344 76.335938 C 124.707031 76.335938 124.640625 76.4375 124.640625 77.519531 C 124.640625 78.632812 124.574219 78.703125 123.457031 78.703125 C 122.816406 78.703125 122.277344 78.566406 122.277344 78.363281 C 122.277344 78.195312 121.972656 78.027344 121.601562 78.027344 C 121.226562 78.027344 120.925781 77.824219 120.925781 77.621094 C 120.925781 77.386719 120.6875 77.621094 120.417969 78.160156 C 119.707031 79.480469 119.777344 80.289062 120.585938 80.558594 C 121.09375 80.730469 121.261719 81.066406 121.261719 81.980469 L 121.261719 83.195312 L 119.742188 83.027344 C 118.898438 82.925781 118.222656 82.957031 118.222656 83.128906 C 118.222656 83.296875 117.613281 83.429688 116.871094 83.429688 C 115.824219 83.429688 115.519531 83.296875 115.484375 82.855469 C 115.484375 82.382812 115.417969 82.351562 115.285156 82.753906 C 114.980469 83.5 114.472656 83.769531 113.324219 83.769531 C 112.785156 83.769531 112.140625 83.632812 111.972656 83.5 C 111.230469 82.992188 110.453125 81.371094 110.453125 80.390625 C 110.453125 79.480469 110.351562 79.378906 109.441406 79.378906 C 108.765625 79.378906 108.324219 79.175781 108.191406 78.804688 C 108.054688 78.464844 107.75 77.992188 107.515625 77.757812 C 107.277344 77.519531 107.074219 76.777344 107.074219 76.136719 C 107.074219 75.1875 107.210938 74.988281 107.820312 74.988281 C 108.460938 74.988281 108.496094 74.917969 108.019531 74.414062 C 107.71875 74.074219 107.414062 73.566406 107.3125 73.296875 C 107.210938 73.027344 107.109375 73.195312 107.109375 73.738281 C 107.074219 74.613281 107.007812 74.683594 105.824219 74.582031 C 104.710938 74.480469 104.542969 74.34375 104.441406 73.566406 C 104.375 72.925781 104.101562 72.621094 103.597656 72.554688 C 103.054688 72.488281 102.820312 72.183594 102.753906 71.542969 C 102.683594 71 102.480469 70.59375 102.3125 70.59375 C 102.144531 70.59375 102.007812 71.8125 102.007812 73.296875 L 102.007812 76 L 99.644531 76 L 99.644531 72.285156 C 99.644531 68.636719 99.308594 67.082031 98.429688 66.746094 C 98.089844 66.609375 97.957031 66.847656 97.957031 67.488281 C 97.957031 69.414062 97.617188 69.921875 96.4375 69.921875 C 95.457031 69.921875 95.21875 69.75 94.679688 68.671875 C 94.070312 67.386719 94.070312 67.386719 91.808594 67.285156 L 89.511719 67.183594 L 89.542969 69.820312 C 89.578125 71.269531 89.644531 72.183594 89.746094 71.878906 C 89.847656 71.40625 90.253906 71.269531 91.539062 71.269531 C 93.9375 71.269531 94.238281 71.472656 94.238281 72.992188 C 94.238281 74.109375 94.105469 74.378906 93.363281 74.648438 C 92.890625 74.851562 92.042969 74.988281 91.503906 74.988281 C 90.726562 74.988281 90.523438 74.816406 90.492188 74.242188 C 90.457031 73.667969 90.421875 73.601562 90.289062 74.074219 C 90.21875 74.378906 89.984375 74.648438 89.816406 74.648438 C 89.644531 74.648438 89.511719 75.898438 89.511719 77.386719 L 89.511719 80.121094 L 91.875 79.984375 C 93.835938 79.882812 94.339844 79.75 94.78125 79.109375 C 95.050781 78.703125 95.488281 78.363281 95.761719 78.363281 C 95.996094 78.363281 96.265625 77.960938 96.335938 77.453125 C 96.4375 76.609375 96.605469 76.507812 97.753906 76.40625 L 99.070312 76.304688 L 98.832031 78.332031 L 98.597656 80.390625 L 99.609375 80.390625 C 100.152344 80.390625 100.691406 80.59375 100.757812 80.832031 C 100.859375 81.03125 100.960938 80.832031 100.960938 80.324219 C 100.996094 79.511719 101.128906 79.378906 102.007812 79.378906 C 102.582031 79.378906 103.328125 79.683594 103.699219 80.054688 C 104.070312 80.425781 104.675781 80.730469 105.082031 80.730469 C 105.65625 80.730469 105.757812 80.898438 105.65625 82.011719 C 105.554688 83.195312 105.488281 83.261719 104.238281 83.363281 C 103.425781 83.429688 102.820312 83.296875 102.617188 83.027344 C 102.347656 82.6875 102.246094 82.6875 102.109375 83.027344 C 102.007812 83.296875 100.859375 83.429688 98.125 83.429688 C 94.410156 83.429688 94.273438 83.398438 94.136719 82.6875 L 94.003906 81.910156 L 93.9375 82.6875 C 93.902344 83.398438 93.765625 83.429688 90.726562 83.429688 L 87.585938 83.429688 L 87.347656 82.382812 C 87.246094 81.808594 87.113281 77.890625 87.078125 73.667969 C 87.078125 69.480469 86.976562 66.542969 86.910156 67.148438 C 86.773438 68.128906 86.671875 68.230469 85.59375 68.230469 C 84.578125 68.230469 84.445312 68.128906 84.445312 67.386719 C 84.445312 66.847656 84.242188 66.542969 83.9375 66.542969 C 83.566406 66.542969 83.429688 66.949219 83.429688 68.230469 L 83.429688 69.921875 L 81.910156 69.921875 C 80.492188 69.921875 80.425781 69.886719 80.1875 68.738281 C 79.984375 67.625 79.882812 67.554688 78.332031 67.351562 C 77.25 67.21875 76.675781 66.980469 76.675781 66.675781 C 76.675781 66.40625 76.335938 66.203125 75.832031 66.203125 L 74.988281 66.203125 L 74.988281 80.054688 L 77.285156 80.054688 C 79.511719 80.019531 80.730469 79.582031 80.730469 78.734375 C 80.730469 78.535156 80.863281 78.363281 81.03125 78.363281 C 81.203125 78.363281 81.4375 77.992188 81.539062 77.519531 C 81.777344 76.609375 82.078125 76.539062 85.050781 76.878906 L 86.808594 77.113281 L 86.808594 79.410156 C 86.808594 82.046875 86.371094 82.753906 84.613281 82.753906 C 83.972656 82.753906 83.363281 82.925781 83.261719 83.09375 C 83.128906 83.296875 80.121094 83.429688 75.289062 83.429688 L 67.554688 83.429688 L 67.554688 82.148438 C 67.554688 81 67.65625 80.832031 68.738281 80.425781 C 69.71875 80.085938 69.921875 79.851562 69.921875 79.007812 C 69.921875 78.464844 69.785156 78.027344 69.582031 78.027344 C 69.414062 78.027344 69.246094 78.398438 69.246094 78.871094 C 69.246094 79.613281 69.109375 79.714844 68.0625 79.714844 C 67.050781 79.714844 66.878906 79.582031 66.878906 78.972656 C 66.847656 78.230469 66.847656 78.230469 66.476562 78.835938 C 66.203125 79.34375 66.203125 79.546875 66.476562 79.648438 C 66.710938 79.714844 66.878906 80.289062 66.878906 80.898438 C 66.878906 81.878906 66.710938 82.078125 65.5625 82.519531 C 64.851562 82.824219 63.332031 83.160156 62.183594 83.296875 L 60.125 83.53125 L 60.125 84.75 C 60.125 85.425781 59.785156 86.574219 59.347656 87.316406 C 58.707031 88.464844 58.402344 88.667969 57.320312 88.769531 C 56.171875 88.871094 56.070312 88.96875 56.070312 89.882812 C 56.070312 90.792969 55.96875 90.863281 54.890625 90.863281 C 54.113281 90.863281 53.707031 91.03125 53.707031 91.335938 C 53.707031 91.773438 52.320312 92.214844 50.800781 92.214844 C 50.09375 92.214844 49.992188 92.042969 49.992188 91.03125 C 49.992188 89.917969 49.921875 89.847656 48.808594 89.847656 C 47.660156 89.847656 47.625 89.882812 47.625 91.066406 L 47.625 92.316406 L 46.140625 92.144531 C 44.621094 91.976562 41.378906 90.625 40.535156 89.816406 C 39.722656 89.039062 38.035156 88.394531 37.898438 88.800781 C 37.832031 89.003906 37.59375 89.171875 37.390625 89.171875 C 37.15625 89.171875 36.816406 89.714844 36.613281 90.355469 C 36.34375 91.265625 36.34375 91.539062 36.714844 91.671875 C 36.953125 91.773438 37.15625 92.347656 37.15625 93.058594 C 37.15625 94.171875 37.089844 94.238281 35.972656 94.238281 C 35.195312 94.238281 34.792969 94.410156 34.792969 94.710938 C 34.792969 95.625 32.898438 95.828125 30.0625 95.152344 Z M 32.765625 90.1875 C 32.765625 89.070312 32.867188 88.835938 33.441406 88.835938 C 33.980469 88.835938 34.117188 88.597656 34.117188 87.652344 C 34.117188 86.742188 33.914062 86.335938 33.203125 85.898438 C 32.121094 85.1875 29.015625 85.050781 28.8125 85.726562 C 28.710938 85.929688 28.375 86.132812 28.035156 86.132812 C 27.699219 86.132812 27.359375 86.402344 27.226562 86.742188 C 27.125 87.046875 26.617188 87.855469 26.144531 88.496094 L 25.300781 89.679688 L 26.078125 89.882812 C 26.652344 90.019531 26.886719 89.882812 26.953125 89.445312 C 27.054688 89.003906 27.359375 88.835938 28.238281 88.835938 C 29.320312 88.835938 29.386719 88.902344 29.421875 90.117188 C 29.453125 90.792969 29.523438 91.097656 29.625 90.792969 C 29.722656 90.355469 30.128906 90.1875 30.941406 90.1875 C 31.851562 90.1875 32.089844 90.320312 32.089844 90.863281 C 32.089844 91.234375 32.257812 91.539062 32.425781 91.539062 C 32.628906 91.539062 32.765625 90.929688 32.765625 90.1875 Z M 48.335938 87.316406 C 50.296875 87.519531 51.039062 87.417969 52.863281 86.773438 C 54.078125 86.371094 55.058594 85.898438 55.058594 85.726562 C 55.058594 85.59375 55.496094 85.457031 56.039062 85.457031 C 56.847656 85.457031 57.015625 85.289062 57.152344 84.445312 C 57.289062 83.464844 57.253906 83.429688 56.003906 83.429688 C 55.023438 83.429688 54.71875 83.296875 54.6875 82.855469 C 54.652344 82.28125 54.617188 82.28125 54.484375 82.855469 C 54.347656 83.328125 53.941406 83.429688 52.152344 83.429688 C 50.96875 83.429688 49.992188 83.296875 49.992188 83.128906 C 49.992188 82.957031 49.6875 82.753906 49.316406 82.652344 C 48.945312 82.554688 48.335938 81.84375 47.964844 81 L 47.289062 79.546875 L 47.289062 81.167969 C 47.289062 82.351562 47.152344 82.753906 46.78125 82.753906 C 46.511719 82.753906 46.277344 82.925781 46.277344 83.09375 C 46.277344 83.296875 45.734375 83.429688 45.09375 83.429688 C 44.011719 83.429688 43.910156 83.363281 43.910156 82.382812 C 43.910156 81.808594 44.113281 81.132812 44.382812 80.898438 C 44.789062 80.492188 44.6875 80.054688 43.808594 77.859375 C 43.066406 76.035156 42.59375 75.324219 42.15625 75.324219 C 41.816406 75.324219 41.546875 75.492188 41.546875 75.664062 C 41.546875 75.863281 41.109375 76 40.535156 76 C 39.6875 76 39.519531 76.136719 39.519531 76.84375 C 39.519531 77.351562 39.285156 78.195312 38.980469 78.769531 C 38.4375 79.78125 38.4375 79.882812 39.148438 80.425781 C 39.621094 80.832031 39.859375 81.40625 39.859375 82.214844 C 39.859375 83.296875 40.027344 83.5 41.039062 84.003906 C 41.683594 84.308594 42.222656 84.679688 42.222656 84.851562 C 42.222656 84.984375 42.59375 85.121094 43.066406 85.121094 C 43.539062 85.121094 43.910156 85.253906 43.910156 85.425781 C 43.910156 85.59375 44.28125 85.828125 44.753906 85.929688 C 45.464844 86.097656 45.601562 86.335938 45.601562 87.316406 C 45.601562 88.328125 45.464844 88.496094 44.855469 88.496094 C 44.078125 88.53125 44.078125 88.53125 44.925781 89.003906 C 45.734375 89.445312 45.769531 89.445312 45.871094 88.261719 L 45.972656 87.078125 Z M 61.308594 79.480469 C 61.78125 79.242188 62.488281 78.871094 62.929688 78.632812 C 63.875 78.160156 65.191406 75.222656 65.191406 73.535156 C 65.191406 70.257812 62.253906 67.21875 59.109375 67.21875 L 58.097656 67.21875 L 58.097656 80.054688 L 59.109375 80.054688 C 59.820312 80.054688 60.125 80.222656 60.160156 80.660156 C 60.191406 81.101562 60.257812 81.101562 60.359375 80.558594 C 60.429688 80.1875 60.867188 79.683594 61.308594 79.480469 Z M 72.519531 69.851562 C 72.488281 67.757812 72.417969 69.445312 72.417969 73.636719 C 72.417969 77.824219 72.488281 79.511719 72.519531 77.453125 C 72.589844 75.359375 72.589844 71.914062 72.519531 69.851562 Z M 68.027344 75.796875 C 68.332031 73.566406 68.230469 71.945312 67.757812 70.628906 C 67.421875 69.648438 67.351562 69.953125 67.386719 73.433594 C 67.386719 77.519531 67.65625 78.464844 68.027344 75.796875 Z M 124.300781 76.066406 C 124.300781 75.898438 124.066406 75.492188 123.796875 75.121094 C 123.324219 74.515625 123.324219 74.515625 123.289062 75.425781 C 123.289062 76 123.457031 76.335938 123.796875 76.335938 C 124.066406 76.335938 124.300781 76.203125 124.300781 76.066406 Z M 106.398438 71.609375 C 106.398438 71.441406 106.164062 71.269531 105.894531 71.269531 C 105.625 71.269531 105.386719 71.441406 105.386719 71.609375 C 105.386719 71.8125 105.625 71.945312 105.894531 71.945312 C 106.164062 71.945312 106.398438 71.8125 106.398438 71.609375 Z M 105.050781 69.414062 C 105.050781 69.144531 104.746094 68.90625 104.375 68.90625 C 104 68.90625 103.699219 69.144531 103.699219 69.414062 C 103.699219 69.683594 104 69.921875 104.375 69.921875 C 104.746094 69.921875 105.050781 69.683594 105.050781 69.414062 Z M 102.683594 67.453125 C 101.773438 66.949219 101.46875 66.980469 101.839844 67.523438 C 101.941406 67.722656 102.378906 67.894531 102.785156 67.894531 C 103.496094 67.894531 103.496094 67.859375 102.683594 67.453125 Z M 102.683594 67.453125 "/>
<path style=" stroke:none;fill-rule:nonzero;fill:rgb(100%,78.039216%,78.039216%);fill-opacity:1;" d="M 99.644531 77.519531 C 99.644531 76.40625 99.710938 76.335938 100.828125 76.335938 C 101.941406 76.335938 102.007812 76.40625 102.007812 77.519531 C 102.007812 78.632812 101.941406 78.703125 100.828125 78.703125 C 99.710938 78.703125 99.644531 78.632812 99.644531 77.519531 Z M 99.644531 77.519531 "/>
<path style=" stroke:none;fill-rule:nonzero;fill:rgb(100%,78.039216%,78.039216%);fill-opacity:1;" d="M 76.335938 72.453125 C 76.335938 71.304688 76.371094 71.269531 77.6875 71.269531 C 79.007812 71.269531 79.039062 71.304688 79.039062 72.453125 C 79.039062 73.601562 79.007812 73.636719 77.6875 73.636719 C 76.371094 73.636719 76.335938 73.601562 76.335938 72.453125 Z M 76.335938 72.453125 "/>
<path style=" stroke:none;fill-rule:nonzero;fill:rgb(100%,78.039216%,78.039216%);fill-opacity:1;" d="M 52.964844 69.175781 L 52.863281 66.710938 L 51.78125 66.609375 C 50.734375 66.507812 50.667969 66.40625 50.667969 65.15625 L 50.667969 63.839844 L 52.1875 63.839844 C 53.03125 63.839844 53.707031 64.007812 53.707031 64.179688 C 53.707031 64.378906 53.976562 64.515625 54.347656 64.515625 C 55.160156 64.515625 55.394531 65.394531 55.394531 68.839844 L 55.394531 71.609375 L 53.066406 71.609375 Z M 52.964844 69.175781 "/>
<path style=" stroke:none;fill-rule:nonzero;fill:rgb(100%,78.039216%,78.039216%);fill-opacity:1;" d="M 27.699219 64.347656 C 27.699219 63.976562 27.359375 63.90625 26.007812 64.078125 L 24.320312 64.277344 L 24.320312 63.03125 C 24.320312 62.355469 24.488281 61.8125 24.65625 61.8125 C 24.859375 61.8125 24.996094 61.507812 24.996094 61.136719 C 24.996094 60.53125 25.230469 60.460938 27.328125 60.460938 L 29.625 60.460938 L 29.859375 61.746094 C 29.960938 62.421875 30.0625 63.402344 30.0625 63.941406 C 30.0625 64.753906 29.960938 64.851562 28.878906 64.851562 C 28.070312 64.851562 27.699219 64.683594 27.699219 64.347656 Z M 27.699219 64.347656 "/>
<path style=" stroke:none;fill-rule:nonzero;fill:rgb(100%,78.039216%,78.039216%);fill-opacity:1;" d="M 33.441406 63.199219 C 33.441406 62.996094 32.832031 62.828125 32.089844 62.828125 C 30.773438 62.828125 30.738281 62.792969 30.738281 61.644531 L 30.738281 60.429688 L 33.710938 60.53125 L 36.648438 60.632812 L 36.648438 63.332031 L 35.0625 63.433594 C 34.082031 63.503906 33.441406 63.402344 33.441406 63.199219 Z M 33.441406 63.199219 "/>
<path style=" stroke:none;fill-rule:nonzero;fill:rgb(100%,78.039216%,78.039216%);fill-opacity:1;" d="M 74.851562 46.75 C 74.582031 46.039062 74.582031 44.078125 74.886719 43.777344 C 75.019531 43.675781 75.089844 42.796875 75.019531 41.882812 L 74.953125 40.195312 L 76.304688 40.195312 C 77.453125 40.195312 77.6875 40.296875 77.6875 40.871094 C 77.6875 41.242188 77.859375 41.546875 78.058594 41.546875 C 78.433594 41.546875 78.398438 42.121094 77.824219 45.871094 C 77.621094 47.253906 77.585938 47.289062 76.335938 47.289062 C 75.492188 47.289062 74.988281 47.121094 74.851562 46.75 Z M 74.851562 46.75 "/>
<path style=" stroke:none;fill-rule:nonzero;fill:rgb(100%,100%,100%);fill-opacity:1;" d="M 59.785156 107.414062 C 59.109375 107.3125 58.402344 107.074219 58.164062 106.941406 C 57.691406 106.636719 57.625 105.050781 58.097656 105.050781 C 58.300781 105.050781 58.4375 104.441406 58.4375 103.699219 C 58.4375 102.652344 58.570312 102.347656 59.042969 102.3125 C 60.800781 102.210938 56.78125 101.671875 54.144531 101.671875 C 50.734375 101.636719 48.640625 101.90625 48.640625 102.378906 C 48.640625 102.550781 48.4375 102.683594 48.167969 102.683594 C 47.324219 102.683594 45.601562 104.574219 45.601562 105.523438 C 45.601562 106.265625 45.464844 106.398438 44.621094 106.398438 C 44.046875 106.398438 43.503906 106.265625 43.40625 106.0625 C 43.304688 105.859375 41.953125 105.824219 39.992188 105.960938 C 35.566406 106.230469 33.441406 105.589844 30.804688 103.125 L 28.878906 101.332031 L 26.820312 101.535156 C 25.671875 101.636719 24.421875 101.636719 24.050781 101.535156 C 23.644531 101.402344 23.003906 100.421875 22.359375 99.003906 C 21.515625 97.144531 21.109375 96.605469 20.300781 96.335938 C 19.726562 96.132812 18.578125 95.289062 17.734375 94.441406 C 16.585938 93.261719 16.214844 92.652344 16.214844 91.839844 C 16.214844 90.964844 15.808594 90.390625 13.679688 88.394531 C 12.296875 87.113281 11.148438 85.863281 11.148438 85.660156 C 11.148438 85.457031 10.910156 84.851562 10.605469 84.277344 C 9.660156 82.519531 9.152344 79.648438 9.121094 76.101562 C 9.121094 72.015625 9.558594 69.75 10.773438 67.351562 C 11.855469 65.328125 14.792969 61.609375 15.539062 61.40625 C 15.808594 61.308594 16.214844 60.5625 16.449219 59.753906 C 16.890625 58.0625 17.902344 56.984375 20.199219 55.734375 C 21.449219 55.058594 21.820312 54.6875 21.886719 53.910156 C 21.957031 53.367188 22.394531 52.320312 22.902344 51.578125 L 23.78125 50.226562 L 26.414062 50.429688 L 29.050781 50.632812 L 29.960938 49.28125 C 30.972656 47.761719 31.582031 47.355469 34.925781 46.277344 C 36.851562 45.632812 37.59375 45.566406 39.316406 45.769531 C 41.613281 46.074219 43.269531 46.207031 44.6875 46.242188 C 45.328125 46.277344 45.601562 46.445312 45.601562 46.882812 C 45.601562 48.503906 49.148438 49.992188 53.640625 50.261719 C 56.171875 50.394531 57.015625 50.296875 58.0625 49.820312 C 59.246094 49.316406 59.414062 49.078125 59.617188 47.761719 C 59.71875 46.949219 59.957031 46.277344 60.160156 46.277344 C 60.328125 46.277344 60.460938 45.902344 60.460938 45.429688 C 60.460938 44.753906 60.632812 44.585938 61.308594 44.585938 C 61.78125 44.585938 62.457031 44.753906 62.792969 44.992188 C 63.300781 45.296875 63.636719 45.296875 64.347656 44.992188 C 65.730469 44.351562 68.601562 44.519531 70.5625 45.296875 C 71.507812 45.703125 72.285156 46.207031 72.285156 46.410156 C 72.285156 46.613281 72.519531 46.410156 72.824219 46.003906 C 73.433594 45.128906 75.5625 44.957031 75.863281 45.769531 C 76.136719 46.410156 76.675781 46.410156 76.675781 45.769531 C 76.675781 45.195312 79.207031 45.027344 79.546875 45.601562 C 79.683594 45.835938 79.984375 45.835938 80.425781 45.601562 C 80.796875 45.398438 81.269531 45.328125 81.472656 45.464844 C 81.675781 45.601562 81.742188 45.566406 81.640625 45.363281 C 81.269531 44.789062 83.835938 44.316406 86.132812 44.554688 C 87.347656 44.652344 89.039062 45.09375 89.882812 45.53125 C 90.726562 45.9375 91.742188 46.277344 92.144531 46.277344 C 92.585938 46.277344 92.890625 46.476562 92.890625 46.78125 C 92.890625 47.121094 93.261719 47.289062 94.070312 47.289062 C 95.1875 47.289062 95.253906 47.355469 95.253906 48.472656 C 95.253906 49.179688 95.085938 49.652344 94.847656 49.6875 C 94.613281 49.722656 94.78125 49.855469 95.253906 49.992188 C 96.4375 50.363281 101.90625 50.394531 102.617188 50.023438 C 102.921875 49.855469 103.699219 49.519531 104.339844 49.28125 C 105.757812 48.742188 107.074219 47.355469 107.074219 46.375 C 107.074219 45.769531 107.277344 45.601562 107.921875 45.601562 C 108.394531 45.601562 109.070312 45.769531 109.40625 46.003906 C 109.914062 46.308594 110.25 46.308594 110.960938 46.003906 C 112.953125 45.09375 117.953125 45.902344 120.382812 47.59375 C 121.261719 48.167969 122.105469 48.640625 122.308594 48.640625 C 122.476562 48.640625 122.613281 48.84375 122.613281 49.113281 C 122.613281 50.058594 123.660156 50.464844 125.820312 50.394531 C 129.265625 50.261719 129.539062 50.464844 130.550781 54.28125 C 130.6875 54.753906 131.429688 55.363281 132.511719 55.902344 C 134.941406 57.152344 136.023438 58.265625 136.292969 59.855469 C 136.496094 60.902344 136.96875 61.609375 138.554688 63.097656 C 139.941406 64.414062 140.886719 65.730469 141.5625 67.21875 C 142.136719 68.433594 142.777344 69.785156 142.980469 70.222656 C 143.25 70.765625 143.386719 72.960938 143.351562 76.640625 C 143.320312 81.503906 143.25 82.417969 142.710938 83.226562 C 142.375 83.734375 141.832031 84.613281 141.527344 85.1875 C 140.71875 86.707031 138.421875 89.34375 137.40625 89.949219 C 136.765625 90.320312 136.429688 90.863281 136.257812 91.773438 C 135.957031 93.464844 135.109375 94.511719 133.152344 95.625 C 131.089844 96.773438 130.585938 97.414062 130.042969 99.40625 C 129.808594 100.285156 129.4375 101.128906 129.234375 101.230469 C 129.03125 101.367188 127.746094 101.433594 126.429688 101.402344 C 124.066406 101.332031 123.929688 101.367188 122.714844 102.449219 C 119.980469 104.878906 119.132812 105.320312 116.363281 105.824219 C 112.140625 106.570312 107.851562 105.925781 106.738281 104.375 C 106.367188 103.867188 105.625 103.257812 105.050781 103.023438 C 104.507812 102.785156 104.101562 102.480469 104.203125 102.347656 C 104.542969 101.804688 100.894531 101.230469 98.496094 101.433594 C 96.164062 101.636719 94.949219 101.941406 92.652344 102.886719 C 92.011719 103.15625 91.539062 103.226562 91.539062 103.023438 C 91.539062 102.820312 91.402344 102.683594 91.199219 102.683594 C 91.03125 102.683594 90.863281 103.425781 90.863281 104.304688 C 90.863281 105.691406 90.726562 105.996094 90.117188 106.296875 C 87.957031 107.3125 87.078125 107.480469 85.1875 107.246094 C 84.140625 107.109375 82.890625 106.941406 82.417969 106.90625 C 81.132812 106.773438 81.167969 106.773438 80.964844 106.0625 C 80.761719 105.285156 79.78125 105.148438 79.511719 105.894531 C 79.378906 106.164062 79.039062 106.398438 78.703125 106.398438 C 78.332031 106.398438 77.960938 106.570312 77.859375 106.738281 C 77.484375 107.347656 75.460938 107.074219 73.804688 106.230469 L 72.183594 105.351562 L 70.933594 106.230469 C 69.617188 107.144531 68.367188 107.277344 63.773438 107.074219 C 62.691406 107.007812 61.644531 107.109375 61.40625 107.3125 C 61.171875 107.480469 60.429688 107.546875 59.785156 107.414062 Z M 33.101562 93.5625 C 33.101562 93.394531 32.832031 93.226562 32.527344 93.226562 C 32.019531 93.226562 31.988281 93.160156 32.425781 92.890625 C 32.695312 92.71875 32.765625 92.550781 32.5625 92.550781 C 31.953125 92.550781 31.75 92.988281 32.121094 93.464844 C 32.5625 93.96875 33.101562 94.039062 33.101562 93.5625 Z M 36.140625 93.089844 C 36.140625 93.023438 35.769531 92.71875 35.332031 92.414062 C 34.722656 92.042969 34.417969 91.976562 34.25 92.28125 C 34.117188 92.484375 34.148438 92.550781 34.351562 92.449219 C 34.554688 92.316406 34.890625 92.449219 35.128906 92.71875 C 35.5 93.191406 36.140625 93.429688 36.140625 93.089844 Z M 35.804688 88.429688 C 35.804688 87.890625 35.667969 87.484375 35.464844 87.484375 C 35.296875 87.484375 35.128906 88.125 35.128906 88.9375 C 35.128906 89.984375 35.230469 90.21875 35.464844 89.847656 C 35.636719 89.578125 35.804688 88.9375 35.804688 88.429688 Z M 48.808594 89.847656 C 47.898438 89.714844 46.679688 89.476562 46.105469 89.375 C 45.160156 89.171875 45.195312 89.207031 46.277344 89.644531 C 46.917969 89.917969 48.132812 90.117188 48.976562 90.117188 L 50.496094 90.117188 Z M 59.109375 84.476562 C 59.109375 84.105469 59.011719 84.105469 58.605469 84.445312 C 58.335938 84.679688 58.097656 85.253906 58.097656 85.761719 L 58.132812 86.640625 L 58.605469 85.796875 C 58.875 85.324219 59.078125 84.75 59.109375 84.476562 Z M 39.351562 84.648438 C 39.011719 84.410156 38.40625 84.277344 38.035156 84.375 C 37.359375 84.578125 37.359375 84.578125 38.167969 84.816406 C 39.621094 85.222656 40.058594 85.152344 39.351562 84.648438 Z M 31.515625 83.871094 C 31.074219 83.800781 30.332031 83.800781 29.824219 83.871094 C 29.285156 83.9375 29.65625 84.003906 30.570312 84.003906 C 31.515625 84.003906 31.921875 83.9375 31.515625 83.871094 Z M 31.414062 72.792969 L 31.414062 62.488281 L 29.894531 62.488281 L 29.996094 72.792969 C 30.0625 82.789062 30.097656 83.09375 30.738281 83.09375 C 31.378906 83.09375 31.414062 82.824219 31.414062 72.792969 Z M 113.492188 82.417969 C 113.492188 82.25 113.1875 81.945312 112.816406 81.742188 C 112.007812 81.304688 111.941406 81.503906 112.683594 82.214844 C 113.289062 82.824219 113.492188 82.890625 113.492188 82.417969 Z M 37.59375 82.179688 C 37.15625 82.113281 36.480469 82.113281 36.074219 82.179688 C 35.636719 82.25 35.972656 82.316406 36.816406 82.316406 C 37.664062 82.316406 38 82.25 37.59375 82.179688 Z M 61.070312 82.179688 C 60.734375 82.113281 60.191406 82.113281 59.886719 82.179688 C 59.550781 82.28125 59.820312 82.351562 60.460938 82.351562 C 61.105469 82.351562 61.375 82.28125 61.070312 82.179688 Z M 78.296875 82.179688 C 76.878906 82.113281 74.445312 82.113281 72.890625 82.179688 C 71.339844 82.214844 72.519531 82.28125 75.492188 82.28125 C 78.464844 82.28125 79.714844 82.214844 78.296875 82.179688 Z M 92.484375 82.179688 C 92.144531 82.113281 91.605469 82.113281 91.300781 82.179688 C 90.964844 82.28125 91.234375 82.351562 91.875 82.351562 C 92.515625 82.351562 92.789062 82.28125 92.484375 82.179688 Z M 130.988281 82.179688 C 130.652344 82.113281 130.113281 82.113281 129.808594 82.179688 C 129.46875 82.28125 129.742188 82.351562 130.382812 82.351562 C 131.023438 82.351562 131.292969 82.28125 130.988281 82.179688 Z M 48.03125 80.832031 C 47.863281 80.492188 47.625 79.984375 47.523438 79.714844 C 47.425781 79.445312 47.324219 79.714844 47.324219 80.324219 C 47.289062 81.066406 47.457031 81.40625 47.796875 81.40625 C 48.199219 81.40625 48.234375 81.234375 48.03125 80.832031 Z M 54.316406 78.332031 L 54.214844 75.832031 L 54.042969 78.601562 C 53.941406 80.121094 54.011719 81.234375 54.144531 81.101562 C 54.28125 80.964844 54.382812 79.714844 54.316406 78.332031 Z M 56.003906 73.535156 C 56.070312 67.523438 56.003906 65.867188 55.664062 65.867188 C 55.328125 65.867188 55.226562 67.625 55.191406 73.667969 C 55.160156 79.34375 55.226562 81.40625 55.53125 81.304688 C 55.800781 81.203125 55.9375 78.871094 56.003906 73.535156 Z M 58.199219 81.167969 L 57.085938 81.03125 L 57.015625 75.5625 L 56.949219 70.089844 L 56.847656 75.324219 C 56.78125 78.195312 56.8125 80.730469 56.882812 80.964844 C 56.984375 81.234375 57.523438 81.371094 58.164062 81.335938 L 59.28125 81.304688 Z M 72.824219 73.636719 C 72.792969 67.65625 72.691406 65.867188 72.386719 65.867188 C 72.046875 65.867188 71.945312 67.285156 71.945312 71.878906 C 71.945312 75.15625 72.046875 78.667969 72.148438 79.648438 C 72.621094 83.398438 72.890625 81.066406 72.824219 73.636719 Z M 78.296875 81.167969 C 77.757812 81.101562 76.945312 81.101562 76.4375 81.167969 C 75.898438 81.234375 76.335938 81.304688 77.351562 81.304688 C 78.363281 81.304688 78.804688 81.234375 78.296875 81.167969 Z M 87.417969 73.636719 C 87.382812 68.230469 87.28125 65.867188 87.011719 65.867188 C 86.742188 65.867188 86.640625 68.199219 86.640625 73.636719 C 86.640625 79.582031 86.742188 81.40625 87.046875 81.40625 C 87.382812 81.40625 87.449219 79.613281 87.417969 73.636719 Z M 92.484375 81.167969 C 92.144531 81.101562 91.539062 81.101562 91.132812 81.167969 C 90.691406 81.234375 90.964844 81.304688 91.707031 81.304688 C 92.449219 81.335938 92.789062 81.269531 92.484375 81.167969 Z M 129.199219 81.03125 C 129.066406 80.832031 128.828125 80.257812 128.691406 79.78125 C 128.421875 78.9375 128.421875 78.972656 128.390625 80.15625 C 128.355469 81.066406 128.492188 81.40625 128.894531 81.40625 C 129.167969 81.40625 129.300781 81.234375 129.199219 81.03125 Z M 32.324219 68.839844 C 32.292969 66.542969 32.222656 68.398438 32.222656 72.960938 C 32.222656 77.519531 32.292969 79.378906 32.324219 77.113281 C 32.394531 74.816406 32.394531 71.101562 32.324219 68.839844 Z M 73.871094 76.945312 C 73.804688 76.136719 73.738281 76.777344 73.738281 78.363281 C 73.738281 79.953125 73.804688 80.59375 73.871094 79.816406 C 73.941406 79.007812 73.941406 77.722656 73.871094 76.945312 Z M 88.9375 73.535156 C 89.242188 73.332031 89.207031 73.296875 88.835938 73.398438 C 88.429688 73.5 88.328125 74.242188 88.296875 77.386719 L 88.296875 81.234375 L 88.394531 77.519531 C 88.496094 75.121094 88.667969 73.738281 88.9375 73.535156 Z M 85.695312 78.632812 C 85.625 78.195312 85.558594 78.535156 85.558594 79.378906 C 85.558594 80.222656 85.625 80.558594 85.695312 80.15625 C 85.761719 79.714844 85.761719 79.039062 85.695312 78.632812 Z M 71.167969 74.242188 C 71.101562 73.0625 71.070312 73.941406 71.070312 76.167969 C 71.070312 78.398438 71.101562 79.34375 71.167969 78.296875 C 71.238281 77.214844 71.238281 75.390625 71.167969 74.242188 Z M 112.816406 78.871094 C 112.816406 78.230469 112.648438 78.027344 112.140625 78.027344 C 111.464844 78.027344 111.464844 78.058594 112.039062 78.871094 C 112.785156 79.882812 112.816406 79.882812 112.816406 78.871094 Z M 112.75 74.582031 L 112.683594 71.777344 L 112.582031 74.414062 C 112.480469 76.238281 112.34375 76.980469 112.074219 76.8125 C 111.839844 76.675781 111.804688 76.710938 111.941406 76.945312 C 112.546875 77.925781 112.816406 77.148438 112.75 74.582031 Z M 68.367188 73.464844 C 68.367188 71.84375 68.199219 71.101562 67.589844 70.222656 C 67.148438 69.582031 66.914062 69.347656 67.015625 69.683594 C 67.117188 70.019531 67.21875 71.84375 67.21875 73.738281 C 67.21875 77.046875 67.25 77.148438 67.792969 76.335938 C 68.164062 75.796875 68.367188 74.851562 68.367188 73.464844 Z M 66.441406 73.230469 C 66.375 72.792969 66.304688 73.0625 66.304688 73.804688 C 66.273438 74.546875 66.339844 74.886719 66.441406 74.582031 C 66.507812 74.242188 66.507812 73.636719 66.441406 73.230469 Z M 100.894531 71.710938 C 100.828125 71 100.757812 71.507812 100.757812 72.792969 C 100.757812 74.109375 100.828125 74.648438 100.894531 74.074219 C 100.960938 73.464844 100.960938 72.386719 100.894531 71.710938 Z M 123.1875 73.367188 C 123.558594 73.636719 123.59375 73.601562 123.425781 73.164062 C 123.152344 72.453125 122.816406 72.488281 122.242188 73.230469 C 121.871094 73.703125 121.871094 73.738281 122.277344 73.398438 C 122.613281 73.09375 122.851562 73.0625 123.1875 73.367188 Z M 44.25 70.933594 C 44.25 70.394531 44.113281 69.921875 43.980469 69.921875 C 43.808594 69.921875 43.742188 70.394531 43.84375 70.933594 C 43.910156 71.507812 44.046875 71.945312 44.113281 71.945312 C 44.179688 71.945312 44.25 71.507812 44.25 70.933594 Z M 112.714844 68.332031 C 112.648438 67.625 112.582031 68.128906 112.582031 69.414062 C 112.582031 70.730469 112.648438 71.269531 112.714844 70.695312 C 112.785156 70.089844 112.785156 69.007812 112.714844 68.332031 Z M 70.796875 65.96875 C 70.496094 65.730469 70.425781 65.699219 70.59375 65.933594 C 70.796875 66.171875 70.96875 67.488281 71 68.871094 L 71.070312 71.441406 L 71.167969 68.941406 C 71.269531 66.980469 71.167969 66.339844 70.796875 65.96875 Z M 88.394531 67.65625 C 88.328125 66.949219 88.261719 67.523438 88.261719 68.90625 C 88.261719 70.292969 88.328125 70.867188 88.394531 70.191406 C 88.464844 69.480469 88.464844 68.332031 88.394531 67.65625 Z M 54.28125 69.007812 C 54.179688 68.671875 54.113281 68.941406 54.113281 69.582031 C 54.113281 70.222656 54.179688 70.496094 54.28125 70.191406 C 54.347656 69.851562 54.347656 69.3125 54.28125 69.007812 Z M 73.871094 66.8125 C 73.804688 66.203125 73.738281 66.609375 73.738281 67.722656 C 73.738281 68.839844 73.804688 69.347656 73.871094 68.839844 C 73.941406 68.332031 73.941406 67.421875 73.871094 66.8125 Z M 123.929688 68.164062 C 123.625 67.625 123.457031 67.523438 123.355469 67.859375 C 123.289062 68.097656 123.425781 68.433594 123.660156 68.601562 C 124.335938 69.042969 124.371094 68.972656 123.929688 68.164062 Z M 56.984375 66.980469 C 56.882812 66.644531 56.8125 66.914062 56.8125 67.554688 C 56.8125 68.199219 56.882812 68.46875 56.984375 68.164062 C 57.050781 67.824219 57.050781 67.285156 56.984375 66.980469 Z M 102.683594 67.589844 C 102.144531 66.507812 101.671875 66.441406 101.671875 67.351562 C 101.671875 67.996094 101.839844 68.230469 102.347656 68.230469 C 102.921875 68.230469 102.988281 68.128906 102.683594 67.589844 Z M 60.058594 65.96875 C 59.550781 65.902344 58.636719 65.902344 58.03125 65.96875 C 57.421875 66.035156 57.828125 66.101562 58.941406 66.101562 C 60.058594 66.101562 60.5625 66.035156 60.058594 65.96875 Z M 92.042969 65.832031 C 90.152344 65.460938 88.496094 65.460938 88.496094 65.867188 C 88.496094 66.070312 89.511719 66.203125 90.964844 66.171875 C 93.160156 66.136719 93.261719 66.101562 92.042969 65.832031 Z M 96.941406 65.191406 C 96.671875 65.023438 95.996094 64.886719 95.421875 64.886719 C 94.410156 64.953125 94.410156 64.953125 95.589844 65.191406 C 97.3125 65.5625 97.515625 65.5625 96.941406 65.191406 Z M 79.109375 64.953125 C 77.386719 64.886719 74.648438 64.886719 73.027344 64.953125 C 71.40625 64.988281 72.824219 65.054688 76.167969 65.054688 C 79.511719 65.054688 80.832031 64.988281 79.109375 64.953125 Z M 87.078125 64.953125 C 86.742188 64.886719 86.132812 64.886719 85.726562 64.953125 C 85.289062 65.023438 85.558594 65.089844 86.300781 65.089844 C 87.046875 65.125 87.382812 65.054688 87.078125 64.953125 Z M 92.144531 64.953125 C 91.4375 64.886719 90.289062 64.886719 89.613281 64.953125 C 88.902344 65.023438 89.476562 65.089844 90.863281 65.089844 C 92.246094 65.089844 92.820312 65.023438 92.144531 64.953125 Z M 28.375 62.488281 C 28.101562 62.320312 27.496094 62.183594 27.023438 62.183594 L 26.179688 62.21875 L 27.023438 62.488281 C 27.496094 62.625 28.101562 62.757812 28.375 62.792969 C 28.8125 62.828125 28.8125 62.792969 28.375 62.488281 Z M 35.5 61.980469 C 35.464844 61.8125 34.621094 61.644531 33.609375 61.609375 L 31.75 61.578125 L 33.675781 61.746094 C 35.195312 61.847656 35.464844 61.949219 34.960938 62.183594 C 34.386719 62.421875 34.386719 62.457031 34.890625 62.386719 C 35.230469 62.355469 35.5 62.183594 35.5 61.980469 Z M 35.5 61.980469 "/>
<path style=" stroke:none;fill-rule:nonzero;fill:rgb(94.509804%,70.588235%,69.019608%);fill-opacity:1;" d="M 78.464844 110.117188 C 77.992188 109.609375 77.621094 109.507812 76.4375 109.675781 C 74.582031 109.914062 73.90625 109.40625 74.140625 107.953125 C 74.34375 106.773438 74.175781 106.433594 73.027344 105.792969 C 72.316406 105.386719 72.082031 105.421875 71 106.164062 C 69.480469 107.210938 67.148438 107.546875 65.054688 107.074219 C 63.773438 106.804688 63.332031 106.839844 62.691406 107.246094 C 61.105469 108.292969 57.253906 107.109375 56.882812 105.453125 C 56.78125 104.949219 56.542969 104.203125 56.375 103.765625 C 56.171875 103.191406 56.171875 103.023438 56.511719 103.054688 C 56.710938 103.089844 57.355469 102.953125 57.863281 102.753906 C 58.402344 102.515625 59.011719 102.347656 59.210938 102.3125 C 59.449219 102.277344 59.078125 102.144531 58.4375 101.976562 C 57.015625 101.636719 51.511719 101.535156 49.820312 101.875 C 48.472656 102.109375 48.234375 102.683594 49.449219 102.683594 C 49.921875 102.683594 50.394531 102.851562 50.496094 103.054688 C 50.632812 103.257812 50.9375 103.328125 51.207031 103.226562 C 51.445312 103.125 51.746094 103.191406 51.847656 103.359375 C 51.984375 103.5625 51.816406 103.699219 51.542969 103.699219 C 51.207031 103.699219 51.003906 104.101562 50.9375 104.949219 C 50.835938 106.199219 50.800781 106.230469 48.167969 107.144531 L 45.464844 108.089844 L 44.28125 106.941406 L 43.066406 105.757812 L 39.925781 105.960938 C 35.566406 106.230469 33.40625 105.589844 30.804688 103.125 L 28.878906 101.332031 L 26.820312 101.535156 C 25.671875 101.636719 24.421875 101.636719 24.050781 101.535156 C 23.644531 101.402344 23.003906 100.421875 22.359375 99.003906 C 21.515625 97.144531 21.109375 96.605469 20.300781 96.335938 C 19.726562 96.132812 18.578125 95.289062 17.734375 94.441406 C 16.585938 93.261719 16.214844 92.652344 16.214844 91.839844 C 16.214844 90.964844 15.808594 90.390625 13.679688 88.394531 C 12.296875 87.113281 11.148438 85.863281 11.148438 85.660156 C 11.148438 85.457031 10.910156 84.851562 10.605469 84.277344 C 9.660156 82.519531 9.152344 79.648438 9.121094 76.101562 C 9.121094 72.015625 9.558594 69.75 10.773438 67.351562 C 11.855469 65.328125 14.792969 61.609375 15.539062 61.40625 C 15.808594 61.308594 16.214844 60.5625 16.449219 59.753906 C 16.890625 58.0625 17.902344 56.984375 20.199219 55.734375 C 21.449219 55.058594 21.820312 54.6875 21.886719 53.910156 C 21.957031 53.367188 22.394531 52.355469 22.867188 51.644531 C 23.644531 50.496094 23.914062 50.328125 25.128906 50.296875 C 25.875 50.261719 26.683594 50.296875 26.851562 50.328125 C 28.710938 50.835938 28.980469 50.734375 30.027344 49.214844 C 30.871094 48 31.480469 47.523438 33 46.949219 C 36.75 45.566406 37.59375 45.429688 40.433594 45.902344 C 42.863281 46.308594 43.066406 46.308594 43.472656 45.703125 C 44.28125 44.484375 44.554688 44.351562 45.9375 44.113281 C 47.492188 43.878906 48.976562 44.519531 48.976562 45.429688 C 48.976562 45.703125 49.214844 45.9375 49.484375 45.9375 C 50.160156 45.9375 51.070312 47.425781 51.308594 48.910156 L 51.511719 50.160156 L 54.042969 50.261719 C 55.429688 50.328125 56.914062 50.261719 57.355469 50.160156 L 58.132812 49.957031 L 57.421875 49.078125 C 56.375 47.761719 56.542969 46.578125 57.960938 45.261719 C 59.042969 44.28125 59.347656 44.179688 60.664062 44.351562 C 61.507812 44.417969 62.457031 44.753906 62.828125 45.09375 C 63.402344 45.632812 63.535156 45.632812 64.246094 45.128906 C 65.359375 44.351562 68.46875 44.417969 70.460938 45.296875 C 71.371094 45.667969 72.183594 46.140625 72.316406 46.308594 C 72.417969 46.511719 72.453125 44.855469 72.351562 42.660156 L 72.183594 38.609375 L 73.265625 37.527344 C 73.972656 36.816406 74.3125 36.109375 74.3125 35.433594 C 74.3125 34.621094 74.515625 34.351562 75.59375 33.84375 C 76.269531 33.542969 76.910156 33.167969 76.945312 33.035156 C 77.011719 32.867188 77.214844 32.765625 77.386719 32.765625 C 77.585938 32.765625 77.621094 32.898438 77.519531 33.101562 C 77.417969 33.269531 77.554688 33.878906 77.859375 34.417969 C 78.128906 34.992188 78.363281 35.738281 78.363281 36.109375 C 78.363281 36.515625 78.667969 36.988281 79.074219 37.222656 C 80.222656 37.964844 80.730469 39.585938 80.492188 42.15625 C 80.257812 44.855469 80.457031 45.09375 82.316406 44.621094 C 83.429688 44.351562 87.316406 44.519531 88.835938 44.957031 C 89.207031 45.058594 89.308594 44.855469 89.242188 44.28125 C 89.171875 43.605469 89.242188 43.539062 89.714844 43.910156 C 90.019531 44.179688 90.996094 44.351562 92.042969 44.316406 C 93.734375 44.28125 93.96875 44.351562 95.085938 45.53125 C 95.828125 46.34375 96.199219 46.949219 96.03125 47.289062 C 95.894531 47.558594 95.792969 48.335938 95.792969 48.976562 L 95.761719 50.160156 L 98.933594 50.261719 C 102.277344 50.363281 103.191406 50.058594 102.851562 48.945312 C 102.753906 48.605469 102.886719 47.863281 103.15625 47.324219 C 103.460938 46.75 103.699219 45.9375 103.699219 45.429688 C 103.699219 44.890625 103.902344 44.585938 104.203125 44.585938 C 104.476562 44.585938 104.710938 44.417969 104.710938 44.25 C 104.710938 43.503906 107.582031 44.316406 108.695312 45.363281 C 109.710938 46.34375 109.84375 46.375 110.890625 46.003906 C 113.289062 45.128906 117.917969 45.902344 120.382812 47.59375 C 121.261719 48.167969 122.105469 48.640625 122.242188 48.640625 C 122.410156 48.640625 122.613281 48.945312 122.714844 49.316406 C 122.949219 50.261719 124.335938 50.699219 125.753906 50.296875 C 126.566406 50.09375 127.273438 50.125 128.1875 50.429688 C 129.46875 50.871094 130.011719 51.714844 130.515625 54.113281 C 130.6875 54.789062 131.191406 55.261719 132.511719 55.902344 C 134.941406 57.152344 136.023438 58.265625 136.292969 59.855469 C 136.496094 60.902344 136.96875 61.609375 138.554688 63.097656 C 139.941406 64.414062 140.886719 65.699219 141.5625 67.21875 C 142.136719 68.433594 142.746094 69.71875 142.980469 70.089844 C 143.523438 71.035156 143.554688 83.5 143.015625 83.296875 C 142.777344 83.195312 142.273438 83.800781 141.867188 84.613281 C 140.886719 86.503906 138.589844 89.242188 137.40625 89.949219 C 136.765625 90.320312 136.429688 90.863281 136.257812 91.773438 C 135.957031 93.464844 135.109375 94.511719 133.152344 95.625 C 131.089844 96.773438 130.585938 97.414062 130.042969 99.40625 C 129.808594 100.285156 129.4375 101.128906 129.234375 101.230469 C 129.03125 101.367188 127.746094 101.433594 126.429688 101.402344 C 124.066406 101.332031 123.929688 101.367188 122.714844 102.449219 C 119.269531 105.488281 117.511719 106.097656 112.109375 106.199219 C 109.84375 106.230469 109.035156 106.367188 108.527344 106.804688 C 108.15625 107.144531 107.175781 107.515625 106.367188 107.617188 C 104.949219 107.820312 104.777344 107.75 103.765625 106.601562 C 103.15625 105.925781 102.683594 105.148438 102.683594 104.878906 C 102.683594 104.238281 103.394531 102.988281 104 102.480469 C 104.375 102.179688 104.136719 102.007812 102.683594 101.671875 C 100.757812 101.199219 96.0625 101.402344 95.523438 101.941406 C 95.320312 102.144531 95.421875 102.683594 95.761719 103.394531 C 96.335938 104.441406 96.335938 104.574219 95.761719 105.625 C 95.085938 106.839844 93.597656 107.75 92.347656 107.75 C 91.910156 107.75 90.964844 107.515625 90.253906 107.246094 C 89.140625 106.773438 88.800781 106.773438 87.855469 107.175781 C 86.945312 107.582031 86.371094 107.582031 84.75 107.246094 C 83.667969 107.007812 82.417969 106.90625 81.945312 106.972656 C 81.269531 107.109375 81.101562 106.972656 81 106.367188 C 80.832031 105.117188 79.851562 105.183594 79.175781 106.433594 C 78.871094 107.042969 78.5 107.988281 78.332031 108.496094 C 78.09375 109.339844 78.195312 109.507812 78.90625 109.84375 C 79.34375 110.046875 79.714844 110.351562 79.714844 110.519531 C 79.714844 111.027344 79.039062 110.824219 78.464844 110.117188 Z M 60.292969 106.398438 C 60.429688 106.199219 60.089844 106.0625 59.550781 106.0625 C 58.808594 106.0625 58.707031 106.128906 59.109375 106.398438 C 59.753906 106.804688 60.023438 106.804688 60.292969 106.398438 Z M 70.496094 105.523438 C 72.015625 104.644531 73.128906 104.476562 73.5 105.082031 C 73.601562 105.285156 74.074219 105.351562 74.546875 105.21875 C 75.15625 105.082031 75.527344 105.183594 75.832031 105.625 C 76.203125 106.128906 76.335938 106.164062 76.84375 105.722656 C 77.183594 105.453125 77.722656 105.25 78.027344 105.320312 C 78.332031 105.351562 78.804688 105.183594 79.039062 104.878906 C 79.445312 104.40625 79.410156 103.867188 78.835938 102.042969 C 78.632812 101.367188 78.703125 101.300781 79.308594 101.503906 C 79.75 101.636719 80.324219 101.503906 80.796875 101.199219 C 81.203125 100.894531 81.910156 100.65625 82.316406 100.65625 C 82.753906 100.65625 83.09375 100.523438 83.09375 100.320312 C 83.09375 99.746094 80.457031 99.914062 80.121094 100.523438 C 79.882812 100.929688 79.75 100.960938 79.546875 100.65625 C 79.074219 99.882812 80.054688 99.476562 82.28125 99.507812 C 83.835938 99.542969 84.648438 99.710938 85.019531 100.082031 C 85.523438 100.589844 85.492188 100.65625 84.648438 100.996094 C 84.140625 101.164062 83.363281 101.332031 82.925781 101.332031 C 79.714844 101.332031 79.445312 104.339844 82.519531 105.757812 C 84.445312 106.636719 86.875 106.601562 88.53125 105.65625 C 89.644531 105.050781 89.847656 104.746094 89.847656 103.800781 C 89.847656 102.851562 90.050781 102.617188 91.132812 102.042969 C 92.988281 101.097656 97.179688 100.523438 100.589844 100.757812 C 103.96875 100.960938 106.941406 102.042969 107.820312 103.394531 C 108.59375 104.644531 112.007812 105.523438 115.011719 105.285156 C 118.1875 105.050781 119.472656 104.476562 121.703125 102.210938 L 123.59375 100.355469 L 125.820312 100.554688 C 128.355469 100.792969 129.167969 100.355469 129.503906 98.53125 C 129.808594 96.941406 130.515625 96.0625 132.273438 95.1875 C 134.132812 94.273438 135.449219 92.820312 135.449219 91.671875 C 135.449219 91.097656 136.191406 90.019531 137.847656 88.296875 C 140.753906 85.222656 142.070312 82.585938 142.542969 78.871094 C 143.488281 71.644531 141.359375 65.832031 136.597656 62.488281 C 136.160156 62.183594 135.785156 61.441406 135.617188 60.53125 C 135.3125 58.707031 134.773438 58.097656 132.070312 56.476562 C 130.179688 55.328125 129.839844 54.988281 129.640625 53.910156 C 129.097656 51.308594 128.964844 51.207031 125.855469 51.445312 L 123.085938 51.644531 L 122.445312 50.632812 C 121.464844 49.148438 118.898438 47.355469 117.175781 46.984375 C 114.777344 46.410156 111.332031 46.546875 110.117188 47.222656 C 109.101562 47.761719 109.035156 47.761719 108.59375 47.152344 C 108.089844 46.511719 108.089844 46.511719 108.089844 47.324219 C 108.054688 48.269531 107.246094 49.347656 106.0625 49.992188 C 103.664062 51.273438 97.382812 51.714844 93.765625 50.871094 C 91.265625 50.261719 90.050781 49.382812 89.847656 48 C 89.476562 45.703125 85.492188 44.722656 82.351562 46.175781 C 81 46.78125 80.730469 47.085938 80.527344 48.132812 C 80.222656 49.789062 80.832031 50.363281 83.261719 50.699219 C 85.523438 51.003906 85.863281 51.242188 84.984375 51.882812 C 84.546875 52.1875 83.464844 52.355469 81.910156 52.355469 C 79.648438 52.355469 79.445312 52.289062 79.039062 51.511719 C 78.667969 50.800781 78.632812 50.363281 78.972656 49.078125 C 79.34375 47.726562 79.34375 47.457031 78.835938 46.917969 C 78.5 46.546875 77.890625 46.277344 77.453125 46.277344 C 76.8125 46.277344 76.675781 46.105469 76.675781 45.226562 C 76.675781 44.652344 76.84375 43.878906 77.046875 43.472656 C 77.351562 42.929688 77.351562 42.730469 77.046875 42.628906 C 76.84375 42.558594 76.675781 42.222656 76.675781 41.851562 C 76.675781 41.511719 76.539062 41.207031 76.335938 41.207031 C 76.136719 41.207031 76.101562 41.816406 76.238281 42.730469 C 76.335938 43.675781 76.269531 44.417969 76.035156 44.722656 C 75.832031 44.957031 75.730469 45.429688 75.863281 45.734375 C 76.035156 46.140625 75.863281 46.277344 75.257812 46.277344 C 74.785156 46.277344 74.140625 46.578125 73.804688 46.949219 C 73.230469 47.59375 73.230469 48 73.804688 50.394531 C 74.007812 51.105469 73.871094 51.375 73.128906 51.882812 C 72.046875 52.59375 69.515625 52.59375 67.859375 51.917969 L 66.710938 51.410156 L 67.65625 51.039062 C 68.199219 50.835938 69.109375 50.667969 69.683594 50.667969 C 71.203125 50.667969 72.285156 49.820312 72.285156 48.671875 C 72.285156 46.003906 66.441406 44.28125 64.144531 46.308594 C 63.738281 46.648438 63.265625 46.851562 63.128906 46.75 C 62.960938 46.648438 62.828125 47.121094 62.828125 47.761719 C 62.828125 49.246094 61.746094 50.09375 58.941406 50.699219 C 56.003906 51.34375 50.226562 51.242188 48.066406 50.53125 C 45.902344 49.820312 44.585938 48.808594 44.585938 47.898438 C 44.585938 47.457031 44.417969 47.289062 44.113281 47.390625 C 43.878906 47.492188 43.066406 47.355469 42.355469 47.121094 C 40.566406 46.476562 37.15625 46.511719 34.859375 47.152344 C 33.339844 47.59375 32.5625 48.097656 31.109375 49.621094 L 29.25 51.511719 L 23.8125 51.511719 L 23.136719 53.503906 C 22.53125 55.261719 22.292969 55.597656 20.875 56.375 C 18.476562 57.691406 17.632812 58.605469 17.191406 60.257812 C 16.921875 61.40625 16.347656 62.21875 14.625 63.804688 C 10.945312 67.320312 9.523438 71.574219 9.929688 77.722656 C 10.269531 82.382812 12.363281 86.707031 15.335938 88.835938 C 16.214844 89.445312 16.652344 90.117188 17.058594 91.402344 C 17.664062 93.464844 18.78125 94.679688 20.773438 95.457031 C 21.785156 95.828125 22.359375 96.265625 22.5625 96.910156 C 22.734375 97.382812 23.105469 98.394531 23.375 99.136719 C 23.8125 100.386719 23.949219 100.488281 25.265625 100.589844 C 26.042969 100.65625 27.191406 100.554688 27.832031 100.386719 C 28.949219 100.082031 29.050781 100.117188 30.941406 102.042969 C 32.460938 103.5625 33.339844 104.171875 34.925781 104.710938 C 37.289062 105.488281 40.433594 105.589844 42.355469 104.878906 C 43.574219 104.476562 43.742188 104.476562 44.113281 104.980469 C 44.519531 105.488281 44.554688 105.453125 44.585938 104.609375 C 44.585938 103.394531 46.074219 101.941406 47.863281 101.402344 C 51.511719 100.320312 58.03125 100.589844 61.273438 102.007812 C 62.691406 102.617188 62.828125 102.753906 62.828125 103.832031 C 62.828125 104.476562 62.691406 105.117188 62.488281 105.21875 C 62.320312 105.320312 62.152344 105.589844 62.152344 105.824219 C 62.152344 106.097656 62.253906 106.097656 62.554688 105.792969 C 63.097656 105.25 64.007812 105.285156 64.515625 105.859375 C 65.394531 106.941406 68.296875 106.773438 70.496094 105.523438 Z M 91.539062 103.527344 C 91.539062 103.054688 91.402344 102.683594 91.199219 102.683594 C 90.828125 102.683594 90.726562 103.800781 91.097656 104.136719 C 91.46875 104.507812 91.539062 104.40625 91.539062 103.527344 Z M 73.128906 51.308594 C 73.433594 51.003906 73.5 50.667969 73.332031 50.363281 C 73.09375 49.992188 72.890625 50.023438 72.25 50.429688 C 71.8125 50.734375 70.796875 51.070312 69.988281 51.207031 C 68.941406 51.375 68.636719 51.542969 68.972656 51.746094 C 69.617188 52.1875 72.589844 51.847656 73.128906 51.308594 Z M 83.09375 51.679688 C 83.09375 51.511719 82.824219 51.34375 82.453125 51.34375 C 82.113281 51.34375 81.304688 50.96875 80.628906 50.53125 C 79.277344 49.621094 78.703125 50.023438 79.582031 51.308594 C 79.984375 51.847656 80.457031 52.019531 81.605469 52.019531 C 82.417969 52.019531 83.09375 51.882812 83.09375 51.679688 Z M 61.644531 48.976562 C 61.746094 48.808594 61.542969 48.640625 61.171875 48.640625 C 60.765625 48.640625 60.460938 48.808594 60.460938 48.976562 C 60.460938 49.179688 60.664062 49.316406 60.933594 49.316406 C 61.207031 49.316406 61.542969 49.179688 61.644531 48.976562 Z M 61.8125 47.625 C 61.8125 47.457031 61.578125 47.289062 61.308594 47.289062 C 61.035156 47.289062 60.800781 47.457031 60.800781 47.625 C 60.800781 47.828125 61.035156 47.964844 61.308594 47.964844 C 61.578125 47.964844 61.8125 47.828125 61.8125 47.625 Z M 61.8125 47.625 "/>
<path style=" stroke:none;fill-rule:nonzero;fill:rgb(94.509804%,70.588235%,69.019608%);fill-opacity:1;" d="M 72.488281 103.425781 C 72.351562 103.023438 72.316406 102.550781 72.453125 102.378906 C 72.65625 102.042969 71.101562 101.503906 68.839844 101.164062 C 67.453125 100.960938 66.878906 100.386719 67.554688 99.980469 C 68.265625 99.542969 70.898438 99.238281 71.945312 99.476562 C 73.296875 99.78125 73.972656 101.738281 73.195312 103.191406 C 72.722656 104.136719 72.691406 104.136719 72.488281 103.425781 Z M 72.554688 100.757812 C 72.488281 100.285156 72.046875 100.117188 70.832031 100.050781 C 69.886719 99.980469 69.246094 100.082031 69.246094 100.285156 C 69.246094 100.488281 69.582031 100.65625 70.019531 100.65625 C 70.425781 100.65625 71 100.828125 71.269531 100.996094 C 72.082031 101.503906 72.691406 101.402344 72.554688 100.757812 Z M 72.554688 100.757812 "/>
<path style=" stroke:none;fill-rule:nonzero;fill:rgb(94.509804%,70.588235%,69.019608%);fill-opacity:1;" d="M 29.554688 93.902344 C 29.65625 93.734375 30.0625 93.5625 30.433594 93.5625 C 30.773438 93.5625 31.074219 93.734375 31.074219 93.902344 C 31.074219 94.105469 30.671875 94.238281 30.199219 94.238281 C 29.722656 94.238281 29.421875 94.105469 29.554688 93.902344 Z M 29.554688 93.902344 "/>
<path style=" stroke:none;fill-rule:nonzero;fill:rgb(94.509804%,70.588235%,69.019608%);fill-opacity:1;" d="M 32.425781 92.890625 C 32.695312 92.71875 33.269531 92.550781 33.675781 92.550781 C 34.21875 92.550781 34.351562 92.382812 34.25 91.808594 C 34.183594 91.367188 34.21875 91.265625 34.316406 91.539062 C 34.453125 91.808594 34.757812 92.316406 35.0625 92.652344 C 35.535156 93.191406 35.464844 93.226562 33.742188 93.226562 C 32.425781 93.226562 32.054688 93.125 32.425781 92.890625 Z M 32.425781 92.890625 "/>
<path style=" stroke:none;fill-rule:nonzero;fill:rgb(94.509804%,70.588235%,69.019608%);fill-opacity:1;" d="M 26.042969 92.585938 C 24.960938 92.28125 24.859375 91.875 25.671875 90.863281 L 26.347656 90.019531 L 26.347656 90.894531 C 26.347656 92.585938 27.96875 92.921875 29.996094 91.671875 C 30.636719 91.234375 30.738281 91.234375 30.738281 91.671875 C 30.738281 92.550781 27.867188 93.089844 26.042969 92.585938 Z M 26.042969 92.585938 "/>
<path style=" stroke:none;fill-rule:nonzero;fill:rgb(94.509804%,70.588235%,69.019608%);fill-opacity:1;" d="M 35.566406 90.863281 C 35.566406 90.019531 35.636719 89.679688 35.703125 90.117188 C 35.769531 90.523438 35.769531 91.199219 35.703125 91.640625 C 35.636719 92.042969 35.566406 91.707031 35.566406 90.863281 Z M 35.566406 90.863281 "/>
<path style=" stroke:none;fill-rule:nonzero;fill:rgb(94.509804%,70.588235%,69.019608%);fill-opacity:1;" d="M 45.53125 90.691406 C 44.824219 90.457031 42.324219 89.140625 39.992188 87.789062 C 32.765625 83.667969 30.5 83.027344 28.070312 84.511719 C 26.210938 85.625 25.300781 86.503906 24.589844 87.992188 L 23.949219 89.34375 L 24.152344 87.820312 C 24.421875 85.898438 25.433594 84.34375 27.292969 83.09375 C 28.101562 82.554688 28.878906 82.078125 28.980469 82.011719 C 29.117188 81.945312 29.148438 77.621094 29.050781 72.351562 C 28.878906 62.082031 28.878906 62.183594 27.125 62.152344 C 26.683594 62.152344 26.347656 62.015625 26.347656 61.847656 C 26.347656 61.578125 29.554688 61.542969 33.945312 61.78125 L 35.636719 61.882812 L 34.386719 62.285156 C 33.710938 62.488281 32.933594 62.859375 32.695312 63.097656 C 32.121094 63.671875 31.851562 80.085938 32.394531 81.539062 L 32.765625 82.484375 L 33.878906 81.675781 C 34.925781 80.863281 37.054688 77.316406 37.832031 74.988281 C 38.710938 72.417969 41.648438 65.664062 42.085938 65.226562 C 42.457031 64.820312 42.628906 64.953125 43.234375 66.339844 C 43.605469 67.21875 43.910156 68.0625 43.910156 68.230469 C 43.910156 68.367188 44.113281 68.671875 44.382812 68.871094 C 44.753906 69.210938 45.027344 69.007812 45.667969 67.859375 C 46.578125 66.203125 47.289062 65.800781 47.289062 66.878906 C 47.289062 67.757812 46.140625 69.785156 45.398438 70.191406 C 44.925781 70.460938 44.890625 70.425781 48.199219 78.195312 C 49.621094 81.539062 49.789062 81.742188 51.542969 81.742188 C 54.484375 81.742188 54.382812 81.980469 54.382812 74.039062 C 54.382812 70.191406 54.28125 66.710938 54.179688 66.304688 C 54.011719 65.765625 53.707031 65.527344 53.097656 65.527344 C 52.457031 65.527344 52.320312 65.425781 52.59375 65.15625 C 52.863281 64.886719 54.550781 64.820312 58.164062 64.921875 C 62.386719 65.054688 63.605469 65.191406 64.851562 65.765625 C 66.542969 66.507812 68.0625 68.097656 68.839844 69.921875 C 69.445312 71.441406 69.445312 75.492188 68.839844 77.011719 C 67.824219 79.410156 65.664062 81.234375 63.097656 81.878906 C 61.476562 82.25 45.464844 82.453125 44.925781 82.078125 C 44.519531 81.808594 44.621094 81.742188 45.363281 81.742188 C 46.648438 81.742188 46.578125 80.863281 44.925781 76.710938 C 44.179688 74.851562 43.574219 73.164062 43.574219 72.960938 C 43.574219 72.519531 43 72.519531 42.695312 72.992188 C 42.59375 73.195312 41.648438 73.871094 40.632812 74.546875 C 39.113281 75.492188 38.609375 76.101562 37.796875 77.789062 C 36.582031 80.390625 36.582031 80.761719 37.761719 81.472656 L 38.675781 82.046875 L 37.628906 82.078125 C 35.738281 82.078125 33.441406 82.484375 33.644531 82.789062 C 33.742188 82.957031 34.148438 83.09375 34.589844 83.09375 C 34.992188 83.09375 36.074219 83.328125 36.988281 83.667969 C 38.304688 84.105469 38.507812 84.277344 38 84.445312 C 37.492188 84.613281 37.628906 84.75 38.675781 84.917969 C 39.417969 85.050781 41.410156 85.828125 43.066406 86.640625 C 44.753906 87.449219 46.78125 88.261719 47.625 88.496094 C 50.363281 89.242188 54.382812 88.226562 56.710938 86.269531 C 58.097656 85.085938 58.097656 85.085938 58.097656 85.898438 C 58.097656 86.976562 54.820312 90.019531 53.097656 90.558594 C 51.039062 91.167969 46.949219 91.265625 45.53125 90.691406 Z M 60.394531 81.066406 C 64.3125 80.527344 66.339844 78.058594 66.339844 73.804688 C 66.339844 70.730469 65.800781 69.210938 64.179688 67.757812 C 62.726562 66.441406 61.070312 65.867188 58.707031 65.867188 C 57.488281 65.867188 57.085938 66 56.984375 66.476562 C 56.746094 67.386719 56.679688 80.695312 56.914062 81.066406 C 57.1875 81.472656 57.660156 81.472656 60.394531 81.066406 Z M 41.140625 73.667969 C 42.964844 72.316406 43.03125 72.148438 42.324219 70.425781 C 41.714844 68.941406 41.207031 68.46875 41.207031 69.378906 C 41.207031 69.617188 40.769531 70.898438 40.230469 72.25 C 39.65625 73.566406 39.351562 74.648438 39.484375 74.648438 C 39.621094 74.648438 40.363281 74.210938 41.140625 73.667969 Z M 41.140625 73.667969 "/>
<path style=" stroke:none;fill-rule:nonzero;fill:rgb(94.509804%,70.588235%,69.019608%);fill-opacity:1;" d="M 60.800781 74.3125 C 60.429688 74.074219 60.460938 73.941406 60.902344 73.5 C 61.578125 72.824219 62.015625 72.824219 62.285156 73.464844 C 62.523438 74.074219 61.441406 74.714844 60.800781 74.3125 Z M 60.800781 74.3125 "/>
<path style=" stroke:none;fill-rule:nonzero;fill:rgb(94.509804%,70.588235%,69.019608%);fill-opacity:1;" d="M 127.105469 84.75 C 125.347656 84.074219 123.625 82.484375 123.625 81.539062 C 123.625 80.964844 123.761719 80.964844 124.910156 81.539062 C 125.820312 82.011719 127.039062 81.808594 127.476562 81.132812 C 127.578125 80.964844 127.445312 80.121094 127.140625 79.242188 C 126.632812 77.757812 126.566406 77.6875 125.246094 77.6875 C 123.796875 77.6875 122.105469 77.011719 120.992188 76 C 120.484375 75.527344 120.214844 75.460938 120.011719 75.761719 C 119.503906 76.40625 118.660156 78.433594 118.289062 79.816406 C 117.917969 81.101562 117.953125 81.132812 119.101562 81.605469 C 119.742188 81.878906 120.25 82.179688 120.25 82.28125 C 120.25 82.351562 118.695312 82.382812 116.804688 82.316406 L 113.324219 82.179688 L 111.703125 80.527344 C 110.824219 79.613281 109.609375 78.160156 109 77.316406 C 107.851562 75.664062 102.414062 69.144531 102.042969 68.972656 C 101.804688 68.90625 101.941406 79.511719 102.179688 80.660156 C 102.3125 81.167969 102.683594 81.503906 103.394531 81.640625 C 105.117188 81.980469 103.800781 82.382812 101.097656 82.382812 C 98.460938 82.351562 98.023438 82.113281 99.644531 81.503906 C 100.554688 81.167969 100.65625 81 100.691406 79.480469 C 100.691406 78.601562 100.757812 75.898438 100.828125 73.464844 C 100.996094 67.082031 100.488281 65.527344 98.328125 65.527344 C 97.753906 65.527344 97.28125 65.394531 97.28125 65.191406 C 97.28125 64.988281 98.328125 64.851562 99.746094 64.851562 C 102.144531 64.851562 102.179688 64.886719 103.226562 66.136719 C 107.921875 71.8125 110.046875 74.613281 109.84375 74.851562 C 109.710938 74.988281 109.777344 74.988281 109.980469 74.886719 C 110.21875 74.75 110.792969 75.257812 111.296875 76 C 111.804688 76.742188 112.378906 77.351562 112.515625 77.351562 C 112.851562 77.351562 112.886719 68.773438 112.582031 66.8125 C 112.414062 65.597656 112.3125 65.527344 111.195312 65.527344 C 108.898438 65.527344 110.386719 65.15625 113.289062 64.988281 C 115.113281 64.921875 116.195312 64.988281 116.195312 65.191406 C 116.195312 65.359375 115.757812 65.527344 115.214844 65.527344 C 114.507812 65.527344 114.203125 65.730469 114.035156 66.304688 C 113.695312 67.554688 113.796875 81.742188 114.136719 81.742188 C 115.453125 81.742188 116.296875 80.929688 117.242188 78.804688 C 118.898438 75.15625 119.132812 74.648438 120.417969 71.441406 C 121.128906 69.785156 121.871094 68.027344 122.105469 67.554688 C 122.34375 67.082031 122.714844 66.273438 122.917969 65.730469 C 123.253906 64.886719 123.390625 64.820312 123.796875 65.226562 C 124.066406 65.496094 124.875 67.21875 125.621094 69.074219 C 126.363281 70.933594 127.273438 73.164062 127.644531 74.039062 L 128.320312 75.664062 L 129.539062 74.953125 C 131.96875 73.5 135.042969 74.683594 135.785156 77.316406 C 136.664062 80.492188 135.484375 83.328125 132.679688 84.714844 C 130.820312 85.625 129.402344 85.625 127.105469 84.75 Z M 132.710938 84.074219 C 135.347656 82.585938 136.226562 79.511719 134.773438 76.675781 C 133.894531 74.953125 132.070312 74.34375 130.214844 75.121094 C 128.726562 75.761719 128.457031 76.40625 129.132812 77.789062 C 129.402344 78.398438 129.808594 79.277344 130.011719 79.816406 C 130.214844 80.324219 130.855469 81.03125 131.464844 81.40625 C 132.070312 81.777344 132.511719 82.078125 132.410156 82.113281 C 132.308594 82.113281 130.890625 82.179688 129.234375 82.28125 C 127.542969 82.382812 126.125 82.519531 126.023438 82.585938 C 125.789062 82.824219 127.070312 84.140625 127.847656 84.476562 C 129.132812 84.984375 131.429688 84.816406 132.710938 84.074219 Z M 125.992188 76.675781 C 125.992188 76.269531 123.289062 69.851562 122.984375 69.480469 C 122.78125 69.277344 121.363281 72.015625 120.824219 73.636719 C 120.554688 74.515625 121.195312 75.628906 122.34375 76.335938 C 123.492188 77.046875 125.992188 77.285156 125.992188 76.675781 Z M 125.992188 76.675781 "/>
<path style=" stroke:none;fill-rule:nonzero;fill:rgb(94.509804%,70.588235%,69.019608%);fill-opacity:1;" d="M 122.140625 74.414062 C 122.003906 74.109375 122.105469 73.667969 122.34375 73.433594 C 122.679688 73.09375 122.917969 73.09375 123.425781 73.464844 C 123.964844 73.871094 124 74.039062 123.625 74.480469 C 123.085938 75.15625 122.410156 75.121094 122.140625 74.414062 Z M 122.140625 74.414062 "/>
<path style=" stroke:none;fill-rule:nonzero;fill:rgb(94.509804%,70.588235%,69.019608%);fill-opacity:1;" d="M 68.90625 82.011719 C 68.90625 81.84375 69.175781 81.742188 69.515625 81.742188 C 69.820312 81.742188 70.359375 81.503906 70.664062 81.269531 C 71.203125 80.863281 71.269531 80.085938 71.238281 73.601562 C 71.238281 69.109375 71.070312 66.203125 70.867188 65.96875 C 70.664062 65.730469 70.15625 65.527344 69.71875 65.527344 C 69.277344 65.527344 68.90625 65.425781 68.90625 65.292969 C 68.90625 65.089844 81.777344 65.089844 81.945312 65.292969 C 81.980469 65.328125 82.078125 66.070312 82.113281 66.949219 C 82.28125 68.871094 81.707031 69.246094 81.269531 67.523438 C 80.964844 66.339844 80.898438 66.273438 79.242188 66.070312 C 78.296875 65.96875 76.640625 65.867188 75.59375 65.867188 L 73.636719 65.867188 L 73.636719 72.621094 L 76 72.621094 C 77.859375 72.621094 78.363281 72.722656 78.363281 73.128906 C 78.363281 73.5 77.824219 73.636719 76.101562 73.703125 L 73.804688 73.804688 L 73.703125 77.386719 L 73.601562 81 L 75.492188 81.234375 C 76.507812 81.335938 78.195312 81.335938 79.207031 81.234375 C 80.929688 81 81.101562 80.898438 81.980469 79.511719 C 82.519531 78.703125 83.027344 78.027344 83.195312 78.027344 C 83.53125 78.027344 83.128906 79.582031 82.453125 81 L 81.910156 82.148438 L 75.390625 82.179688 C 71.84375 82.214844 68.90625 82.148438 68.90625 82.011719 Z M 68.90625 82.011719 "/>
<path style=" stroke:none;fill-rule:nonzero;fill:rgb(94.509804%,70.588235%,69.019608%);fill-opacity:1;" d="M 83.261719 82.113281 C 83.363281 81.910156 83.769531 81.742188 84.105469 81.742188 C 85.660156 81.742188 85.796875 81.101562 85.796875 74.039062 C 85.796875 70.394531 85.695312 67.050781 85.59375 66.609375 C 85.457031 66.101562 85.019531 65.765625 84.410156 65.628906 C 83.871094 65.527344 83.429688 65.359375 83.429688 65.226562 C 83.429688 65.023438 96.199219 65.023438 96.402344 65.226562 C 96.46875 65.292969 96.605469 66.171875 96.707031 67.148438 C 96.875 68.636719 96.839844 68.90625 96.46875 68.601562 C 96.199219 68.398438 95.929688 67.792969 95.828125 67.25 C 95.625 66.339844 95.558594 66.304688 92.246094 65.867188 C 90.355469 65.628906 88.734375 65.527344 88.566406 65.664062 C 88.429688 65.800781 88.328125 67.386719 88.328125 69.175781 L 88.328125 72.453125 L 90.625 72.554688 C 92.246094 72.621094 92.890625 72.792969 92.789062 73.0625 C 92.71875 73.332031 91.875 73.464844 90.492188 73.464844 L 88.328125 73.5 L 88.226562 77.214844 L 88.125 80.964844 L 90.019531 81.203125 C 92.214844 81.4375 94.441406 81.167969 95.488281 80.457031 C 95.929688 80.1875 96.605469 79.445312 97.011719 78.769531 C 97.957031 77.25 98.191406 77.890625 97.449219 79.851562 C 97.109375 80.695312 96.976562 81.503906 97.109375 81.707031 C 97.382812 82.179688 98.257812 82.113281 90.085938 82.28125 C 85.1875 82.417969 83.09375 82.351562 83.261719 82.113281 Z M 83.261719 82.113281 "/>
<path style=" stroke:none;fill-rule:nonzero;fill:rgb(94.509804%,70.588235%,69.019608%);fill-opacity:1;" d="M 25.230469 63.941406 C 24.828125 63.570312 24.960938 63.164062 25.503906 63.164062 C 25.773438 63.164062 26.007812 63.402344 26.007812 63.671875 C 26.007812 64.210938 25.605469 64.347656 25.230469 63.941406 Z M 25.230469 63.941406 "/>
<path style=" stroke:none;fill-rule:nonzero;fill:rgb(94.509804%,70.588235%,69.019608%);fill-opacity:1;" d="M 24.050781 61.710938 C 23.710938 61.339844 23.746094 61.136719 24.152344 60.800781 C 24.960938 60.125 25.671875 60.933594 24.960938 61.679688 C 24.488281 62.117188 24.386719 62.117188 24.050781 61.710938 Z M 24.050781 61.710938 "/>
<path style=" stroke:none;fill-rule:nonzero;fill:rgb(94.509804%,70.588235%,69.019608%);fill-opacity:1;" d="M 30.199219 107.246094 C 29.859375 106.972656 29.722656 106.773438 29.894531 106.773438 C 30.097656 106.773438 30.535156 106.972656 30.871094 107.246094 C 31.246094 107.515625 31.378906 107.75 31.210938 107.75 C 31.007812 107.75 30.570312 107.515625 30.199219 107.246094 Z M 30.199219 107.246094 "/>
<path style=" stroke:none;fill-rule:nonzero;fill:rgb(97.647059%,68.627451%,66.666667%);fill-opacity:1;" d="M 45.363281 90.1875 C 43.335938 89.613281 40.296875 87.820312 39.757812 86.910156 C 39.621094 86.671875 39.148438 86.472656 38.742188 86.472656 C 38.335938 86.4375 37.324219 86.066406 36.480469 85.59375 C 35.636719 85.121094 35.265625 84.851562 35.636719 84.984375 C 36.007812 85.121094 36.785156 85.1875 37.390625 85.152344 C 37.964844 85.121094 38.539062 85.253906 38.675781 85.457031 C 38.777344 85.660156 39.046875 85.726562 39.214844 85.625 C 39.386719 85.492188 41.140625 86.199219 43.132812 87.148438 C 46.277344 88.667969 47.085938 88.9375 49.316406 89.070312 C 50.699219 89.140625 52.050781 89.273438 52.289062 89.34375 C 53.03125 89.578125 52.726562 90.117188 51.644531 90.492188 C 50.125 91.03125 47.796875 90.894531 45.363281 90.1875 Z M 45.363281 90.1875 "/>
<path style=" stroke:none;fill-rule:nonzero;fill:rgb(97.647059%,68.627451%,66.666667%);fill-opacity:1;" d="M 32.628906 83.871094 C 32.527344 83.734375 32.425781 83.464844 32.425781 83.195312 C 32.425781 82.722656 33.304688 82.585938 33.542969 83.027344 C 33.742188 83.328125 32.898438 84.140625 32.628906 83.871094 Z M 32.628906 83.871094 "/>
<path style=" stroke:none;fill-rule:nonzero;fill:rgb(97.647059%,68.627451%,66.666667%);fill-opacity:1;" d="M 28.710938 82.789062 C 28.710938 82.621094 28.914062 82.417969 29.148438 82.351562 C 29.691406 82.148438 29.925781 63.332031 29.386719 62.996094 C 29.21875 62.894531 29.050781 62.554688 29.050781 62.285156 C 29.050781 61.882812 29.421875 61.8125 30.773438 61.847656 C 32.425781 61.949219 32.460938 61.949219 32.257812 62.792969 C 32.121094 63.265625 31.953125 67.453125 31.851562 72.082031 C 31.71875 78.632812 31.582031 80.695312 31.210938 81.269531 C 30.773438 81.910156 30.773438 82.078125 31.246094 82.554688 C 31.75 83.058594 31.683594 83.09375 30.265625 83.09375 C 29.421875 83.09375 28.710938 82.957031 28.710938 82.789062 Z M 28.710938 82.789062 "/>
<path style=" stroke:none;fill-rule:nonzero;fill:rgb(97.647059%,68.627451%,66.666667%);fill-opacity:1;" d="M 47.050781 80.929688 C 46.75 79.984375 46.78125 79.714844 47.152344 79.582031 C 48.066406 79.242188 48.640625 79.75 48.640625 80.929688 C 48.640625 82.554688 47.523438 82.554688 47.050781 80.929688 Z M 47.050781 80.929688 "/>
<path style=" stroke:none;fill-rule:nonzero;fill:rgb(97.647059%,68.627451%,66.666667%);fill-opacity:1;" d="M 71.269531 81.472656 C 71.269531 81.335938 71.40625 81.066406 71.574219 80.898438 C 71.980469 80.492188 72.015625 77.453125 71.675781 71.777344 C 71.371094 66.070312 71.441406 65.191406 72.453125 65.191406 C 73.195312 65.191406 73.195312 65.257812 73.164062 68.839844 C 73.128906 70.832031 73.230469 72.65625 73.398438 72.890625 C 73.601562 73.128906 73.601562 73.464844 73.367188 73.738281 C 73.195312 73.941406 73.027344 75.730469 72.992188 77.6875 C 72.925781 81.167969 72.757812 81.707031 71.710938 81.742188 C 71.472656 81.742188 71.269531 81.605469 71.269531 81.472656 Z M 71.269531 81.472656 "/>
<path style=" stroke:none;fill-rule:nonzero;fill:rgb(97.647059%,68.627451%,66.666667%);fill-opacity:1;" d="M 86.269531 80.898438 C 86.03125 79.953125 86.269531 75.761719 86.574219 75.460938 C 86.671875 75.359375 86.910156 75.359375 87.113281 75.492188 C 87.519531 75.730469 87.621094 80.289062 87.28125 81.203125 C 86.976562 82.011719 86.503906 81.84375 86.269531 80.898438 Z M 86.269531 80.898438 "/>
<path style=" stroke:none;fill-rule:nonzero;fill:rgb(97.647059%,68.627451%,66.666667%);fill-opacity:1;" d="M 55.496094 80.730469 C 55.53125 80.355469 55.664062 80.054688 55.800781 80.054688 C 55.9375 80.054688 55.96875 79.78125 55.835938 79.480469 C 55.734375 79.074219 55.835938 79.140625 56.238281 79.648438 C 56.847656 80.492188 56.710938 81.40625 55.9375 81.40625 C 55.632812 81.40625 55.464844 81.132812 55.496094 80.730469 Z M 55.496094 80.730469 "/>
<path style=" stroke:none;fill-rule:nonzero;fill:rgb(97.647059%,68.627451%,66.666667%);fill-opacity:1;" d="M 65.125 80.492188 C 65.328125 80.425781 65.527344 80.121094 65.527344 79.851562 C 65.527344 79.546875 65.394531 79.445312 65.191406 79.546875 C 64.988281 79.683594 64.953125 79.511719 65.089844 79.140625 C 65.460938 78.160156 66.273438 77.011719 66.507812 77.148438 C 66.878906 77.386719 66.949219 71.644531 66.574219 70.496094 C 66.339844 69.851562 65.730469 68.90625 65.191406 68.398438 C 63.90625 67.148438 63.90625 66.878906 65.292969 66.878906 C 66.644531 66.878906 67.523438 67.894531 68.570312 70.664062 C 69.347656 72.691406 69.445312 74.851562 68.839844 76.238281 C 68.164062 77.789062 66.847656 79.378906 66.40625 79.140625 C 66.203125 79.039062 66.136719 79.074219 66.304688 79.207031 C 66.574219 79.546875 65.597656 80.730469 65.054688 80.695312 C 64.851562 80.695312 64.851562 80.59375 65.125 80.492188 Z M 65.125 80.492188 "/>
<path style=" stroke:none;fill-rule:nonzero;fill:rgb(97.647059%,68.627451%,66.666667%);fill-opacity:1;" d="M 127.917969 80.492188 C 127.78125 80.390625 127.679688 79.851562 127.679688 79.308594 C 127.679688 78.535156 127.816406 78.363281 128.523438 78.363281 C 129.132812 78.363281 129.402344 78.601562 129.570312 79.207031 C 129.707031 79.683594 129.742188 80.121094 129.671875 80.1875 C 129.335938 80.492188 128.117188 80.695312 127.917969 80.492188 Z M 127.917969 80.492188 "/>
<path style=" stroke:none;fill-rule:nonzero;fill:rgb(97.647059%,68.627451%,66.666667%);fill-opacity:1;" d="M 110.21875 78.632812 C 109.609375 77.925781 108.96875 76.675781 109.238281 76.675781 C 109.304688 76.675781 109.742188 77.285156 110.25 78.027344 C 111.265625 79.546875 111.230469 79.75 110.21875 78.632812 Z M 110.21875 78.632812 "/>
<path style=" stroke:none;fill-rule:nonzero;fill:rgb(97.647059%,68.627451%,66.666667%);fill-opacity:1;" d="M 55.429688 74.480469 C 55.464844 71.070312 55.53125 70.257812 55.9375 70.257812 C 56.273438 70.257812 56.410156 70.765625 56.441406 72.046875 C 56.511719 74.480469 56.511719 74.988281 56.308594 76.335938 C 56.207031 76.980469 56.136719 77.789062 56.105469 78.128906 C 56.105469 78.433594 55.9375 78.703125 55.734375 78.703125 C 55.5625 78.703125 55.429688 76.945312 55.429688 74.480469 Z M 55.429688 74.480469 "/>
<path style=" stroke:none;fill-rule:nonzero;fill:rgb(97.647059%,68.627451%,66.666667%);fill-opacity:1;" d="M 108.257812 75.289062 C 108.121094 74.886719 107.71875 74.210938 107.347656 73.839844 C 107.007812 73.433594 106.871094 73.09375 107.074219 73.027344 C 107.246094 72.960938 107.347656 72.757812 107.210938 72.589844 C 107.109375 72.417969 107.246094 72.285156 107.480469 72.285156 C 107.71875 72.285156 108.089844 72.554688 108.257812 72.925781 C 108.460938 73.265625 108.867188 74.074219 109.238281 74.683594 C 109.574219 75.324219 109.742188 75.730469 109.609375 75.59375 C 109.441406 75.460938 109.136719 75.492188 108.898438 75.695312 C 108.59375 75.933594 108.425781 75.832031 108.257812 75.289062 Z M 108.257812 75.289062 "/>
<path style=" stroke:none;fill-rule:nonzero;fill:rgb(97.647059%,68.627451%,66.666667%);fill-opacity:1;" d="M 86.503906 74.546875 C 86.03125 73.941406 86.234375 71.472656 86.808594 70.730469 C 87.148438 70.359375 87.148438 70.257812 86.84375 70.257812 C 86.605469 70.257812 86.503906 70.121094 86.640625 69.953125 C 86.742188 69.785156 86.707031 69.546875 86.539062 69.445312 C 86.402344 69.378906 86.335938 68.738281 86.402344 68.097656 C 86.574219 66.675781 87.484375 66.375 87.484375 67.722656 C 87.484375 68.199219 87.347656 68.570312 87.214844 68.570312 C 87.046875 68.570312 87.078125 69.3125 87.28125 70.222656 C 87.449219 71.167969 87.722656 71.84375 87.890625 71.742188 C 88.023438 71.644531 88.160156 72.046875 88.160156 72.589844 C 88.160156 73.164062 87.992188 73.636719 87.820312 73.636719 C 87.621094 73.636719 87.347656 73.941406 87.214844 74.34375 C 86.976562 74.953125 86.875 74.988281 86.503906 74.546875 Z M 86.503906 74.546875 "/>
<path style=" stroke:none;fill-rule:nonzero;fill:rgb(97.647059%,68.627451%,66.666667%);fill-opacity:1;" d="M 124.300781 71.980469 C 123.898438 71.167969 123.863281 70.832031 124.269531 71.070312 C 124.574219 71.269531 125.011719 72.621094 124.773438 72.621094 C 124.707031 72.621094 124.503906 72.316406 124.300781 71.980469 Z M 124.300781 71.980469 "/>
<path style=" stroke:none;fill-rule:nonzero;fill:rgb(97.647059%,68.627451%,66.666667%);fill-opacity:1;" d="M 103.902344 70.5625 C 103.832031 70.292969 103.664062 69.683594 103.5625 69.175781 C 103.425781 68.636719 103.191406 68.230469 102.988281 68.230469 C 102.785156 68.230469 102.71875 68.367188 102.851562 68.535156 C 102.953125 68.703125 102.886719 68.941406 102.71875 69.042969 C 102.550781 69.144531 102.347656 69.007812 102.210938 68.738281 C 102.109375 68.46875 102.179688 68.230469 102.347656 68.230469 C 102.550781 68.230469 102.683594 67.996094 102.683594 67.722656 C 102.683594 67.453125 102.820312 67.21875 102.988281 67.21875 C 103.425781 67.21875 105.488281 69.445312 105.792969 70.257812 C 105.996094 70.867188 105.960938 70.898438 105.421875 70.628906 C 105.015625 70.394531 104.675781 70.425781 104.441406 70.664062 C 104.171875 70.933594 104 70.933594 103.902344 70.5625 Z M 103.902344 70.5625 "/>
<path style=" stroke:none;fill-rule:nonzero;fill:rgb(97.647059%,68.627451%,66.666667%);fill-opacity:1;" d="M 55.765625 68.941406 C 55.429688 68.738281 55.429688 68.601562 55.734375 68.398438 C 56.171875 68.128906 56.542969 68.367188 56.375 68.871094 C 56.273438 69.074219 56.039062 69.109375 55.765625 68.941406 Z M 55.765625 68.941406 "/>
<path style=" stroke:none;fill-rule:nonzero;fill:rgb(97.647059%,68.627451%,66.666667%);fill-opacity:1;" d="M 100.859375 67.65625 C 100.523438 65.597656 100.589844 65.191406 101.300781 65.191406 C 101.671875 65.191406 102.007812 65.394531 102.109375 65.628906 C 102.3125 66.304688 101.976562 67.183594 101.535156 67.015625 C 101.230469 66.914062 101.164062 67.148438 101.265625 67.894531 C 101.46875 69.378906 101.128906 69.144531 100.859375 67.65625 Z M 100.859375 67.65625 "/>
<path style=" stroke:none;fill-rule:nonzero;fill:rgb(97.647059%,68.627451%,66.666667%);fill-opacity:1;" d="M 55.328125 66.878906 C 54.6875 66.476562 54.890625 65.328125 55.664062 65.023438 C 56.375 64.753906 56.8125 65.292969 56.679688 66.238281 C 56.542969 67.117188 56.136719 67.320312 55.328125 66.878906 Z M 55.328125 66.878906 "/>
<path style=" stroke:none;fill-rule:nonzero;fill:rgb(97.647059%,68.627451%,66.666667%);fill-opacity:1;" d="M 112.816406 65.699219 C 112.816406 65.425781 113.054688 65.191406 113.359375 65.191406 C 113.832031 65.191406 113.832031 65.292969 113.492188 65.699219 C 113.257812 65.96875 113.019531 66.203125 112.953125 66.203125 C 112.886719 66.203125 112.816406 65.96875 112.816406 65.699219 Z M 112.816406 65.699219 "/>
<path style=" stroke:none;fill-rule:nonzero;fill:rgb(97.647059%,68.627451%,66.666667%);fill-opacity:1;" d="M 86.402344 65.292969 C 86.808594 65.226562 87.484375 65.226562 87.921875 65.292969 C 88.328125 65.359375 87.992188 65.425781 87.148438 65.425781 C 86.300781 65.425781 85.964844 65.359375 86.402344 65.292969 Z M 86.402344 65.292969 "/>
</g>
</svg>
