<?xml version="1.0" encoding="UTF-8"?>
<svg xmlns="http://www.w3.org/2000/svg" xmlns:xlink="http://www.w3.org/1999/xlink" width="152px" height="114px" viewBox="0 0 152 114" version="1.1">
<g id="surface1">
<path style=" stroke:none;fill-rule:nonzero;fill:rgb(0%,0%,0%);fill-opacity:1;" d="M 69.542969 101.929688 C 69.488281 101.886719 69.445312 100.632812 69.445312 99.179688 L 69.445312 96.515625 L 68.132812 96.414062 C 62.691406 96.015625 58.5 94.890625 54.039062 92.609375 C 47.898438 89.488281 42.613281 84.359375 39.347656 78.402344 C 39.179688 78.074219 38.976562 77.949219 38.566406 77.875 C 37.082031 77.621094 33.277344 76.722656 31.851562 76.292969 C 30.957031 76.023438 29.03125 75.355469 27.5625 74.8125 C 23.929688 73.472656 24.214844 73.515625 23.773438 74.269531 C 23.574219 74.597656 22.476562 76.492188 21.335938 78.445312 C 20.195312 80.414062 19.199219 82.066406 19.128906 82.136719 C 19.058594 82.222656 19 81.9375 19 81.410156 C 19 80.554688 19.027344 80.5 21.023438 77.078125 C 22.121094 75.167969 23.601562 72.605469 24.316406 71.390625 C 25.011719 70.179688 25.8125 68.941406 26.097656 68.65625 C 27.121094 67.585938 28.535156 67.429688 30.613281 68.171875 C 38.75 71.050781 42 71.71875 49.75 72.121094 C 54.808594 72.390625 59.710938 71.960938 64.101562 70.878906 C 69.175781 69.625 73.363281 67.574219 77.667969 64.238281 C 79.976562 62.457031 79.734375 63.140625 80.402344 56.5 C 81.015625 50.558594 81.1875 49.605469 82.085938 47.167969 C 83.152344 44.289062 84.664062 41.667969 86.628906 39.328125 C 88.484375 37.121094 89.878906 35.953125 94.382812 32.816406 C 103.089844 26.746094 108.804688 22.773438 112.265625 20.347656 C 114.390625 18.882812 116.753906 17.15625 117.554688 16.53125 C 119.277344 15.160156 121.484375 12.980469 122.96875 11.1875 C 124.152344 9.746094 124.535156 9.476562 125.089844 9.691406 C 125.761719 9.945312 125.703125 10.34375 124.449219 14.164062 C 123.183594 17.984375 122.328125 19.894531 121.1875 21.402344 C 119.261719 23.925781 115.957031 26.335938 107.5625 31.277344 C 101.363281 34.941406 95.453125 39.058594 90.433594 43.21875 C 87.457031 45.683594 86.089844 47.324219 84.863281 49.902344 L 84.335938 51 L 82.984375 51.015625 L 81.613281 51.015625 L 80.746094 59.535156 L 79.875 68.042969 L 78.964844 68.882812 C 76.925781 70.78125 73.449219 73.101562 70.65625 74.457031 C 66.238281 76.59375 62.777344 77.605469 57.6875 78.234375 C 52.003906 78.929688 47.527344 78.972656 41.972656 78.359375 C 41.160156 78.273438 40.476562 78.234375 40.433594 78.261719 C 40.332031 78.359375 41.855469 80.726562 42.984375 82.222656 C 44.207031 83.859375 47.273438 86.953125 48.925781 88.234375 C 54.554688 92.582031 61.082031 95.0625 67.761719 95.433594 L 69.445312 95.519531 L 69.445312 92.96875 C 69.445312 91.570312 69.503906 90.332031 69.558594 90.230469 C 69.660156 90.089844 73.792969 90.058594 89.765625 90.089844 L 109.84375 90.132812 L 109.84375 101.957031 L 89.738281 102 C 78.679688 102.015625 69.585938 101.988281 69.542969 101.929688 Z M 108.988281 96.046875 L 108.988281 90.984375 L 89.722656 90.945312 L 70.441406 90.914062 L 70.441406 101.175781 L 89.722656 101.148438 L 108.988281 101.105469 Z M 108.988281 96.046875 "/>
<path style=" stroke:none;fill-rule:nonzero;fill:rgb(0%,0%,0%);fill-opacity:1;" d="M 75.574219 98.753906 C 75.574219 98.566406 75.671875 98.46875 75.859375 98.46875 C 76.128906 98.46875 76.140625 98.367188 76.140625 96.34375 C 76.140625 94.335938 76.128906 94.207031 75.859375 94.121094 C 75.699219 94.078125 75.574219 93.9375 75.574219 93.820312 C 75.574219 93.496094 78.621094 93.535156 79.277344 93.894531 C 80.316406 94.449219 80.746094 96.246094 80.148438 97.542969 C 79.632812 98.667969 78.863281 99.023438 76.898438 99.039062 C 75.671875 99.039062 75.574219 99.023438 75.574219 98.753906 Z M 78.878906 98.039062 C 79.546875 97.527344 79.734375 96.015625 79.25 94.976562 C 79.019531 94.476562 78.4375 94.191406 77.640625 94.191406 L 76.996094 94.191406 L 76.996094 98.324219 L 77.765625 98.324219 C 78.308594 98.324219 78.636719 98.238281 78.878906 98.039062 Z M 78.878906 98.039062 "/>
<path style=" stroke:none;fill-rule:nonzero;fill:rgb(0%,0%,0%);fill-opacity:1;" d="M 84.734375 98.753906 C 84.050781 98.339844 83.695312 97.527344 83.695312 96.386719 C 83.695312 94.519531 84.550781 93.550781 86.21875 93.550781 C 87.242188 93.550781 87.714844 93.820312 88.210938 94.707031 C 88.570312 95.316406 88.652344 96.714844 88.382812 97.425781 C 88.199219 97.910156 87.597656 98.566406 87.085938 98.839844 C 86.515625 99.136719 85.277344 99.09375 84.734375 98.753906 Z M 86.617188 98.269531 C 87.230469 98.011719 87.527344 97.542969 87.628906 96.671875 C 87.800781 95.21875 87.1875 94.191406 86.132812 94.191406 C 85.132812 94.191406 84.535156 94.992188 84.5625 96.289062 C 84.5625 97.339844 84.835938 97.925781 85.40625 98.210938 C 86.003906 98.523438 86.003906 98.523438 86.617188 98.269531 Z M 86.617188 98.269531 "/>
<path style=" stroke:none;fill-rule:nonzero;fill:rgb(0%,0%,0%);fill-opacity:1;" d="M 91.773438 98.953125 C 91.589844 98.765625 91.675781 98.609375 92.03125 98.46875 L 92.386719 98.324219 L 92.386719 96.328125 C 92.386719 94.335938 92.386719 94.335938 92.03125 94.164062 C 91.832031 94.078125 91.675781 93.921875 91.675781 93.808594 C 91.675781 93.664062 91.960938 93.621094 92.816406 93.621094 C 93.726562 93.621094 93.953125 93.664062 93.953125 93.835938 C 93.953125 93.949219 93.796875 94.078125 93.613281 94.136719 C 93.34375 94.207031 93.269531 94.335938 93.199219 94.875 C 93.113281 95.6875 93.199219 95.929688 93.570312 95.875 C 93.871094 95.832031 94.097656 95.546875 94.839844 94.277344 C 95.210938 93.652344 95.265625 93.621094 95.878906 93.621094 C 96.363281 93.621094 96.519531 93.679688 96.519531 93.835938 C 96.519531 93.964844 96.347656 94.09375 96.136719 94.136719 C 95.835938 94.191406 95.609375 94.433594 95.195312 95.132812 C 94.894531 95.644531 94.683594 96.160156 94.722656 96.273438 C 94.925781 96.800781 96.164062 98.351562 96.464844 98.480469 C 96.648438 98.539062 96.804688 98.710938 96.804688 98.824219 C 96.804688 99.007812 96.632812 99.039062 95.707031 99.007812 C 94.554688 98.964844 94.195312 98.722656 94.882812 98.46875 L 95.25 98.324219 L 94.640625 97.511719 C 94.3125 97.058594 94.039062 96.671875 94.027344 96.65625 C 94.027344 96.644531 93.855469 96.601562 93.628906 96.542969 L 93.242188 96.445312 L 93.242188 97.382812 C 93.242188 98.269531 93.269531 98.339844 93.613281 98.46875 C 94.269531 98.722656 93.925781 98.964844 92.871094 99.007812 C 92.316406 99.023438 91.832031 99.007812 91.773438 98.953125 Z M 91.773438 98.953125 "/>
<path style=" stroke:none;fill-rule:nonzero;fill:rgb(0%,0%,0%);fill-opacity:1;" d="M 98.898438 98.953125 C 98.714844 98.765625 98.800781 98.625 99.183594 98.4375 C 99.511719 98.28125 99.699219 97.898438 100.425781 95.929688 L 101.265625 93.609375 L 101.691406 93.652344 C 102.105469 93.695312 102.148438 93.765625 102.761719 95.476562 C 103.101562 96.457031 103.460938 97.484375 103.558594 97.753906 C 103.660156 98.027344 103.902344 98.324219 104.085938 98.425781 C 104.769531 98.78125 104.5 98.964844 103.289062 98.964844 C 102.375 98.964844 102.148438 98.921875 102.148438 98.753906 C 102.148438 98.636719 102.292969 98.523438 102.476562 98.496094 C 102.804688 98.4375 102.890625 98.125 102.648438 97.753906 C 102.476562 97.484375 100.679688 97.484375 100.496094 97.769531 C 100.269531 98.125 100.351562 98.4375 100.695312 98.496094 C 100.867188 98.523438 101.007812 98.636719 101.007812 98.753906 C 101.007812 98.921875 100.78125 98.980469 100.011719 99.007812 C 99.457031 99.023438 98.957031 99.007812 98.898438 98.953125 Z M 102.320312 96.730469 C 102.292969 96.628906 102.132812 96.171875 101.992188 95.730469 C 101.847656 95.277344 101.691406 94.90625 101.636719 94.90625 C 101.507812 94.90625 100.9375 96.371094 100.9375 96.6875 C 100.9375 96.84375 101.121094 96.898438 101.664062 96.898438 C 102.191406 96.898438 102.375 96.84375 102.320312 96.730469 Z M 102.320312 96.730469 "/>
<path style=" stroke:none;fill-rule:nonzero;fill:rgb(0%,0%,0%);fill-opacity:1;" d="M 79.632812 83.363281 C 79.503906 83.148438 79.691406 83.007812 86.046875 78.546875 C 90.222656 75.609375 91.945312 74.328125 92.089844 74.027344 C 92.375 73.445312 92.359375 71.949219 92.074219 71.507812 C 91.859375 71.179688 91.730469 71.148438 89.792969 71.023438 C 87.355469 70.851562 86.617188 70.582031 86.003906 69.640625 C 85.417969 68.769531 85.390625 67.359375 85.902344 66.035156 C 86.703125 64.039062 89.9375 57.796875 90.449219 57.269531 C 91.832031 55.859375 93.742188 55.875 95.976562 57.3125 C 98.257812 58.765625 99.226562 60.421875 99.226562 62.855469 C 99.226562 64.4375 98.628906 67.386719 97.730469 70.222656 C 97.375 71.335938 97.375 71.335938 96.277344 72.121094 C 86.445312 79.101562 80.117188 83.503906 79.917969 83.503906 C 79.804688 83.503906 79.675781 83.433594 79.632812 83.363281 Z M 79.632812 83.363281 "/>
<path style=" stroke:none;fill-rule:nonzero;fill:rgb(0%,0%,0%);fill-opacity:1;" d="M 98.570312 79.929688 C 98.527344 79.84375 98.570312 79.6875 98.671875 79.585938 C 98.785156 79.488281 100.867188 78.003906 103.289062 76.308594 C 109.515625 71.949219 110.128906 71.292969 109.429688 69.625 C 109.1875 69.042969 107.507812 66.574219 106.421875 65.195312 C 105.199219 63.640625 104.882812 62.898438 104.957031 61.746094 C 105 60.917969 105.167969 60.421875 106.097656 58.339844 C 106.695312 57 107.292969 55.644531 107.433594 55.320312 C 107.75 54.519531 108.234375 54.148438 108.972656 54.148438 C 109.53125 54.148438 109.628906 54.222656 110.871094 55.488281 C 113.121094 57.796875 114.617188 60.078125 115.273438 62.203125 C 115.472656 62.828125 115.53125 63.484375 115.53125 64.695312 C 115.515625 66.691406 115.246094 67.84375 114.035156 70.9375 L 113.164062 73.101562 L 108.960938 73.101562 L 104 76.59375 C 101.28125 78.515625 98.957031 80.085938 98.855469 80.085938 C 98.757812 80.085938 98.628906 80.015625 98.570312 79.929688 Z M 98.570312 79.929688 "/>
<path style=" stroke:none;fill-rule:nonzero;fill:rgb(0%,0%,0%);fill-opacity:1;" d="M 36.15625 59.566406 C 34.917969 58.152344 33.863281 57 33.820312 57 C 33.777344 57 32.59375 57.996094 31.183594 59.222656 C 28.605469 61.460938 28.035156 61.84375 27.308594 61.84375 C 26.59375 61.84375 26.011719 61.375 24.128906 59.308594 C 22.136719 57.113281 22.035156 56.898438 22.546875 56.074219 C 22.945312 55.433594 23.558594 54.835938 25.171875 53.550781 C 27.363281 51.796875 28.40625 51.429688 29.644531 51.941406 C 29.945312 52.070312 30.96875 52.980469 32.125 54.121094 L 34.078125 56.074219 L 34.320312 55.617188 C 34.460938 55.375 34.859375 54.863281 35.230469 54.476562 C 35.773438 53.9375 35.957031 53.609375 36.15625 52.867188 C 37.597656 47.550781 40.105469 42.851562 43.796875 38.546875 C 48.996094 32.488281 56.691406 28.300781 65.027344 26.976562 C 67.335938 26.617188 73.277344 26.617188 75.429688 26.976562 C 80.773438 27.886719 85.832031 29.953125 89.421875 32.730469 C 90.265625 33.375 90.390625 33.671875 89.949219 33.957031 C 89.765625 34.070312 89.464844 33.914062 88.527344 33.246094 C 84.535156 30.394531 80.03125 28.640625 74.71875 27.832031 C 72.707031 27.53125 68.148438 27.503906 66.167969 27.773438 C 59.457031 28.683594 53.441406 31.25 48.425781 35.339844 C 47.058594 36.453125 44.578125 39.003906 43.425781 40.46875 C 40.875 43.703125 38.75 47.652344 37.609375 51.273438 C 37.410156 51.925781 37.238281 52.511719 37.238281 52.582031 C 37.238281 52.667969 37.652344 52.46875 38.152344 52.167969 C 38.652344 51.855469 39.390625 51.484375 39.789062 51.355469 C 40.503906 51.101562 40.53125 51.101562 41.042969 51.371094 C 41.828125 51.785156 45.460938 55.417969 45.578125 55.902344 C 45.632812 56.128906 45.632812 56.429688 45.5625 56.574219 C 45.492188 56.714844 44.039062 58.027344 42.339844 59.480469 C 39.820312 61.644531 39.179688 62.128906 38.835938 62.128906 C 38.453125 62.128906 38.125 61.816406 36.15625 59.566406 Z M 36.15625 59.566406 "/>
<path style=" stroke:none;fill-rule:nonzero;fill:rgb(0%,0%,0%);fill-opacity:1;" d="M 102.933594 51.371094 C 102.933594 51.101562 103.347656 50.730469 104.640625 49.816406 C 105.925781 48.90625 107.507812 47.507812 107.394531 47.394531 C 107.335938 47.351562 107.164062 47.308594 106.992188 47.308594 C 106.296875 47.308594 105.898438 46.296875 106.265625 45.429688 C 106.722656 44.359375 108.191406 43.035156 108.933594 43.035156 C 109.144531 43.035156 109.53125 43.207031 109.773438 43.417969 C 110.214844 43.789062 110.226562 43.832031 110.15625 44.601562 C 110.070312 45.558594 109.714844 46.328125 108.761719 47.59375 C 107.921875 48.691406 106.808594 49.648438 105.042969 50.773438 C 103.746094 51.585938 102.933594 51.8125 102.933594 51.371094 Z M 108.789062 45.871094 C 109.046875 45.386719 108.746094 44.886719 108.203125 44.886719 C 107.878906 44.886719 107.761719 44.957031 107.691406 45.242188 C 107.507812 45.96875 108.445312 46.496094 108.789062 45.871094 Z M 108.789062 45.871094 "/>
</g>
</svg>
