<?xml version="1.0" encoding="UTF-8"?>
<svg xmlns="http://www.w3.org/2000/svg" xmlns:xlink="http://www.w3.org/1999/xlink" width="152px" height="114px" viewBox="0 0 152 152" version="1.1">
<g id="surface1">
<path style=" stroke:none;fill-rule:nonzero;fill:rgb(25.882353%,25.882353%,25.882353%);fill-opacity:1;" d="M 0 76 L 0 0 L 152 0 L 152 152 L 0 152 Z M 49.046875 91.367188 C 50.394531 90.828125 52.253906 88.871094 52.558594 87.652344 C 52.863281 86.503906 52.152344 84.714844 51.003906 83.601562 C 49.722656 82.351562 49.6875 80.898438 50.871094 78.835938 C 52.1875 76.609375 51.613281 75.15625 48.640625 73.195312 C 47.695312 72.519531 44.585938 72.417969 43 72.960938 C 41.378906 73.535156 41.207031 74.34375 41.207031 82.113281 C 41.207031 89.242188 41.277344 89.714844 42.527344 91.300781 C 43.132812 92.042969 47.324219 92.113281 49.046875 91.367188 Z M 58.503906 86.402344 C 58.636719 81.371094 58.636719 76.539062 58.503906 73.703125 C 58.4375 72.691406 58.335938 72.589844 57.523438 72.691406 L 56.578125 72.792969 L 56.476562 82.351562 L 56.410156 91.875 L 58.335938 91.875 Z M 70.765625 91.234375 C 72.453125 90.492188 73.839844 88.902344 74.34375 87.148438 C 74.886719 85.390625 74.277344 83.296875 72.925781 82.113281 C 72.21875 81.503906 71.945312 80.929688 71.945312 80.15625 C 71.945312 79.109375 72.015625 79.039062 73.164062 79.039062 C 74.007812 79.039062 74.613281 79.308594 75.289062 79.984375 L 76.238281 80.898438 L 76.8125 80.15625 C 77.113281 79.714844 77.65625 79.378906 77.992188 79.378906 C 78.332031 79.378906 78.703125 79.074219 78.804688 78.703125 C 78.9375 78.160156 79.277344 78.027344 80.355469 78.027344 C 81.707031 78.027344 81.742188 78.058594 81.742188 79.207031 C 81.742188 80.257812 81.640625 80.425781 80.730469 80.628906 C 80.1875 80.730469 79.714844 80.964844 79.714844 81.132812 C 79.714844 81.304688 79.410156 81.84375 79.007812 82.382812 C 77.859375 83.9375 77.386719 85.726562 77.789062 87.011719 C 78.601562 89.679688 82.011719 92.179688 84.207031 91.742188 C 86.808594 91.199219 89.511719 88.125 89.511719 85.660156 C 89.511719 84.34375 88.125 82.078125 86.640625 80.929688 C 85.253906 79.882812 85.1875 79.34375 85.964844 75.15625 C 86.234375 73.667969 86.4375 71.675781 86.472656 70.695312 C 86.472656 67.925781 86.84375 67.351562 88.902344 66.746094 C 89.917969 66.476562 91.066406 65.867188 91.503906 65.394531 L 92.246094 64.582031 L 90.964844 64.277344 C 89.410156 63.90625 89.003906 63.199219 88.496094 59.886719 L 88.09375 57.421875 L 85.289062 57.421875 C 82.214844 57.421875 81.40625 57.253906 81.40625 56.542969 C 81.40625 55.96875 79.445312 54.484375 78.296875 54.214844 C 77.519531 54.011719 77.316406 54.113281 76.980469 54.820312 C 76.4375 56.039062 76.878906 57.355469 78.261719 58.636719 C 79.410156 59.71875 79.445312 59.820312 79.242188 61.441406 C 79.007812 63.128906 79.007812 63.164062 80.863281 65.15625 C 81.878906 66.273438 82.957031 67.625 83.226562 68.199219 C 84.308594 70.292969 83.601562 74.613281 81.910156 76 C 81.234375 76.574219 78.261719 76.640625 73.296875 76.203125 C 70.664062 75.964844 70.292969 76.035156 68.738281 76.8125 C 67.824219 77.25 67.320312 77.65625 67.65625 77.65625 C 68.535156 77.6875 68.5 80.054688 67.625 80.054688 C 66.375 80.054688 64.144531 82.046875 63.265625 83.972656 C 62.523438 85.59375 62.488281 85.929688 62.828125 87.011719 C 63.332031 88.53125 65.292969 90.761719 66.675781 91.367188 C 68.128906 92.011719 69.175781 91.976562 70.765625 91.234375 Z M 95.589844 88.09375 C 95.589844 84.003906 95.960938 81.945312 96.808594 81.472656 C 97.28125 81.203125 97.28125 81.132812 96.839844 80.964844 C 96.097656 80.695312 94.914062 81.675781 94.207031 83.226562 C 93.734375 84.308594 93.5625 85.425781 93.5625 88.261719 L 93.5625 91.875 L 95.589844 91.875 Z M 103.628906 89.171875 C 103.730469 86.640625 103.292969 85.121094 102.480469 85.121094 C 101.90625 85.121094 101.671875 86.269531 101.671875 89.273438 L 101.671875 91.910156 L 102.617188 91.808594 C 103.496094 91.707031 103.527344 91.671875 103.628906 89.171875 Z M 111.464844 87.652344 L 111.464844 83.429688 L 110.25 82.078125 C 108.5625 80.222656 107.3125 80.222656 108.765625 82.078125 C 109.339844 82.824219 109.441406 83.464844 109.441406 87.417969 L 109.441406 91.875 L 111.464844 91.875 Z M 99.980469 79.613281 C 99.980469 79.546875 99.679688 79.207031 99.339844 78.90625 C 98.699219 78.332031 98.699219 78.332031 98.867188 79.007812 C 98.96875 79.410156 99.273438 79.714844 99.507812 79.714844 C 99.78125 79.714844 99.980469 79.648438 99.980469 79.613281 Z M 106.398438 79.039062 C 106.398438 78.667969 106.332031 78.363281 106.296875 78.363281 C 106.230469 78.363281 105.894531 78.667969 105.554688 79.039062 C 104.949219 79.683594 104.980469 79.714844 105.65625 79.714844 C 106.164062 79.714844 106.398438 79.511719 106.398438 79.039062 Z M 106.398438 79.039062 "/>
<path style=" stroke:none;fill-rule:nonzero;fill:rgb(25.882353%,25.882353%,25.882353%);fill-opacity:1;" d="M 43.40625 89.140625 C 43.269531 88.769531 43.269531 87.179688 43.40625 85.59375 L 43.640625 82.753906 L 46.410156 82.753906 C 47.898438 82.753906 49.316406 82.890625 49.519531 83.027344 C 49.722656 83.160156 50.160156 83.769531 50.496094 84.410156 C 51.171875 85.726562 51.039062 87.722656 50.195312 89.003906 C 49.6875 89.78125 49.449219 89.847656 46.613281 89.847656 C 43.878906 89.847656 43.605469 89.78125 43.40625 89.140625 Z M 43.40625 89.140625 "/>
<path style=" stroke:none;fill-rule:nonzero;fill:rgb(25.882353%,25.882353%,25.882353%);fill-opacity:1;" d="M 43.40625 80.390625 C 43.269531 80.1875 43.304688 78.835938 43.4375 77.351562 L 43.675781 74.648438 L 46.105469 74.648438 C 48.335938 74.648438 48.605469 74.714844 49.113281 75.492188 C 49.789062 76.539062 49.820312 79.007812 49.113281 79.984375 C 48.671875 80.628906 48.300781 80.730469 46.105469 80.730469 C 44.722656 80.730469 43.503906 80.558594 43.40625 80.390625 Z M 43.40625 80.390625 "/>
<path style=" stroke:none;fill-rule:nonzero;fill:rgb(25.882353%,25.882353%,25.882353%);fill-opacity:1;" d="M 66.542969 89.746094 C 65.054688 89.242188 64.515625 88.160156 64.515625 85.695312 C 64.515625 83.9375 64.617188 83.601562 65.527344 82.6875 C 66.507812 81.707031 66.675781 81.675781 68.941406 81.808594 C 72.015625 81.980469 72.589844 82.585938 72.621094 85.726562 C 72.621094 88.296875 72.25 89.070312 70.765625 89.714844 C 69.378906 90.289062 68.128906 90.289062 66.542969 89.746094 Z M 66.542969 89.746094 "/>
<path style=" stroke:none;fill-rule:nonzero;fill:rgb(25.882353%,25.882353%,25.882353%);fill-opacity:1;" d="M 80.492188 89.039062 C 79.613281 88.296875 79.546875 88.023438 79.546875 85.796875 C 79.546875 83.566406 79.613281 83.296875 80.492188 82.554688 C 81.269531 81.878906 81.808594 81.742188 83.464844 81.742188 C 84.578125 81.742188 85.796875 81.910156 86.167969 82.078125 C 88.09375 83.128906 88.429688 87.550781 86.671875 89.070312 C 85.929688 89.714844 85.355469 89.847656 83.601562 89.847656 C 81.808594 89.847656 81.269531 89.714844 80.492188 89.039062 Z M 80.492188 89.039062 "/>
<path style=" stroke:none;fill-rule:nonzero;fill:rgb(96.470588%,68.627451%,54.117647%);fill-opacity:1;" d="M 80.457031 92.179688 C 78.128906 90.996094 76.335938 88.261719 76.335938 85.929688 C 76.335938 84.75 77.011719 82.855469 77.890625 81.539062 C 78.535156 80.59375 78.601562 80.390625 78.128906 80.832031 C 77.082031 81.742188 75.664062 84.949219 75.664062 86.371094 C 75.628906 88.09375 74.648438 90.1875 73.332031 91.300781 C 71.542969 92.789062 71.339844 92.515625 71.945312 89.511719 C 72.148438 88.464844 72.117188 87.921875 71.84375 87.753906 C 71.644531 87.621094 71.507812 86.875 71.542969 86.066406 C 71.644531 84.140625 70.832031 83.09375 69.042969 82.855469 C 67.925781 82.722656 67.523438 82.824219 66.609375 83.601562 L 65.527344 84.511719 L 65.527344 82.957031 C 65.527344 81.539062 65.460938 81.40625 64.683594 81.40625 C 63.503906 81.40625 63.636719 80.59375 64.953125 79.75 C 65.699219 79.277344 65.832031 79.039062 65.460938 79.039062 C 64.785156 79.039062 64.71875 78.90625 65.15625 78.058594 C 65.425781 77.621094 65.328125 77.484375 64.785156 77.453125 C 64.414062 77.417969 64.078125 77.351562 64.042969 77.285156 C 63.0625 75.898438 61.8125 73.871094 61.882812 73.804688 C 62.050781 73.636719 62.929688 73.566406 63.941406 73.601562 C 65.054688 73.636719 66.339844 75.460938 65.867188 76.335938 C 65.664062 76.742188 66.070312 76.640625 67.488281 75.898438 C 69.378906 74.953125 69.480469 74.917969 73.296875 75.15625 C 80.929688 75.628906 81 75.59375 82.113281 73.128906 C 83.027344 71.167969 82.890625 70.222656 81.574219 68.230469 C 80.929688 67.25 80.390625 66.40625 80.390625 66.339844 C 80.390625 66.273438 81 66.203125 81.742188 66.203125 C 82.722656 66.203125 83.09375 66.339844 83.09375 66.710938 C 83.09375 67.050781 83.429688 67.21875 84.105469 67.21875 C 85.050781 67.21875 85.121094 67.285156 85.121094 68.535156 C 85.121094 69.277344 84.949219 69.953125 84.714844 70.019531 C 84.410156 70.15625 84.511719 70.394531 85.019531 70.832031 C 85.425781 71.167969 85.863281 71.878906 86 72.386719 C 86.097656 72.925781 86.4375 73.433594 86.671875 73.535156 C 87.214844 73.738281 87.28125 75.222656 86.773438 77.316406 C 86.4375 78.804688 86.4375 78.804688 87.921875 80.1875 C 88.734375 80.964844 89.714844 82.113281 90.050781 82.753906 C 91.503906 85.59375 90.320312 89.816406 87.484375 91.707031 C 85.457031 93.058594 82.554688 93.261719 80.457031 92.179688 Z M 85.558594 88.160156 C 86.707031 87.246094 87.011719 85.796875 86.335938 84.476562 C 85.324219 82.585938 83.128906 82.148438 81.503906 83.566406 C 79.445312 85.355469 80.796875 88.835938 83.566406 88.835938 C 84.175781 88.835938 85.085938 88.53125 85.558594 88.160156 Z M 75.089844 82.046875 C 74.75 81.4375 74.109375 80.730469 73.636719 80.457031 C 72.960938 80.054688 73.027344 80.15625 73.871094 80.964844 C 74.480469 81.539062 75.054688 82.453125 75.1875 82.957031 C 75.324219 83.5 75.492188 83.734375 75.59375 83.5 C 75.664062 83.261719 75.425781 82.621094 75.089844 82.046875 Z M 75.089844 82.046875 "/>
<path style=" stroke:none;fill-rule:nonzero;fill:rgb(96.470588%,68.627451%,54.117647%);fill-opacity:1;" d="M 92.550781 88.328125 C 92.550781 82.890625 92.957031 81.503906 95.050781 79.984375 L 96.4375 78.972656 L 96.535156 79.851562 C 96.636719 80.527344 96.839844 80.730469 97.484375 80.730469 C 98.597656 80.730469 99.308594 81.472656 99.308594 82.554688 C 99.308594 83.566406 99.035156 83.667969 98.460938 82.855469 C 98.226562 82.554688 97.886719 82.417969 97.683594 82.554688 C 97.078125 82.925781 96.535156 85.425781 96.636719 87.449219 C 96.671875 88.496094 96.671875 90.152344 96.671875 91.132812 L 96.605469 92.890625 L 92.550781 92.890625 Z M 92.550781 88.328125 "/>
<path style=" stroke:none;fill-rule:nonzero;fill:rgb(96.470588%,68.627451%,54.117647%);fill-opacity:1;" d="M 100.65625 91.03125 C 100.65625 89.410156 100.726562 89.171875 101.332031 89.171875 C 101.703125 89.171875 102.007812 89.375 102.007812 89.613281 C 102.007812 89.917969 102.414062 89.984375 103.394531 89.917969 L 104.746094 89.78125 L 104.644531 91.234375 L 104.542969 92.71875 L 102.617188 92.820312 L 100.65625 92.921875 Z M 100.65625 91.03125 "/>
<path style=" stroke:none;fill-rule:nonzero;fill:rgb(96.470588%,68.627451%,54.117647%);fill-opacity:1;" d="M 58.4375 77.6875 C 58.4375 77.519531 58.199219 77.351562 57.929688 77.351562 C 57.589844 77.351562 57.421875 77.011719 57.421875 76.4375 C 57.421875 75.898438 57.253906 75.257812 57.085938 74.988281 C 56.8125 74.582031 56.746094 74.613281 56.746094 75.257812 C 56.746094 75.761719 56.542969 76 56.070312 76 C 55.429688 76 55.363281 75.832031 55.464844 73.90625 L 55.5625 71.777344 L 59.617188 71.574219 L 59.71875 74.816406 C 59.820312 77.859375 59.785156 78.027344 59.144531 78.027344 C 58.738281 78.027344 58.4375 77.890625 58.4375 77.6875 Z M 58.4375 77.6875 "/>
<path style=" stroke:none;fill-rule:nonzero;fill:rgb(90.196078%,63.921569%,51.372549%);fill-opacity:1;" d="M 65.800781 92.414062 C 63.433594 91.367188 61.507812 88.464844 61.476562 85.964844 C 61.476562 84.445312 62.726562 81.539062 63.703125 80.695312 C 65.054688 79.582031 67.148438 80.257812 66.644531 81.640625 C 66.542969 81.878906 66.710938 82.179688 67.015625 82.28125 C 67.65625 82.519531 67.722656 83.09375 67.117188 83.09375 C 66.304688 83.09375 65.394531 85.222656 65.664062 86.539062 C 65.902344 87.921875 66.375 88.394531 67.792969 88.800781 C 69.109375 89.171875 70.796875 88.464844 71.339844 87.316406 C 71.644531 86.640625 71.914062 86.472656 72.417969 86.605469 C 72.824219 86.707031 73.332031 86.808594 73.566406 86.808594 C 74.140625 86.808594 74.074219 87.652344 73.433594 88.902344 C 72.992188 89.746094 72.992188 89.984375 73.332031 90.21875 C 73.566406 90.355469 73.941406 90.390625 74.140625 90.289062 C 74.3125 90.1875 74.039062 90.523438 73.464844 91.03125 C 72.925781 91.539062 71.980469 92.179688 71.371094 92.414062 C 70.054688 92.988281 67.050781 92.988281 65.800781 92.414062 Z M 65.800781 92.414062 "/>
<path style=" stroke:none;fill-rule:nonzero;fill:rgb(90.196078%,63.921569%,51.372549%);fill-opacity:1;" d="M 84.445312 92.550781 C 84.445312 92.382812 84.679688 92.214844 84.949219 92.214844 C 85.222656 92.214844 85.457031 92.382812 85.457031 92.550781 C 85.457031 92.753906 85.222656 92.890625 84.949219 92.890625 C 84.679688 92.890625 84.445312 92.753906 84.445312 92.550781 Z M 84.445312 92.550781 "/>
<path style=" stroke:none;fill-rule:nonzero;fill:rgb(90.196078%,63.921569%,51.372549%);fill-opacity:1;" d="M 100.65625 92.382812 C 100.65625 91.976562 101.0625 91.875 102.515625 91.875 C 103.933594 91.875 104.375 91.773438 104.375 91.367188 C 104.375 91.097656 104.136719 90.863281 103.867188 90.863281 C 103.597656 90.863281 103.359375 91.03125 103.359375 91.199219 C 103.359375 91.402344 102.886719 91.539062 102.347656 91.539062 C 100.996094 91.539062 100.589844 90.457031 100.726562 87.246094 C 100.792969 85.929688 100.757812 84.882812 100.691406 84.949219 C 100.183594 85.492188 98.023438 82.789062 98.429688 82.113281 C 98.632812 81.808594 97.71875 81.707031 96.941406 81.945312 C 96.570312 82.078125 96.535156 82.179688 96.875 82.382812 C 97.210938 82.585938 97.246094 82.925781 97.011719 83.800781 C 96.808594 84.445312 96.636719 84.75 96.636719 84.511719 C 96.605469 84.277344 96.300781 83.734375 95.894531 83.328125 C 95.320312 82.722656 95.21875 82.316406 95.386719 81.101562 C 95.625 79.480469 96.0625 78.9375 97.042969 79.175781 C 97.753906 79.34375 97.753906 79.34375 96.910156 77.890625 C 96.265625 76.8125 96.265625 76.640625 96.738281 76.472656 C 97.753906 76.066406 99.003906 76.710938 100.859375 78.5 C 102.582031 80.222656 102.988281 81 102.449219 81.539062 C 102.3125 81.640625 102.042969 82.316406 101.804688 83.027344 L 101.367188 84.277344 L 102.007812 83.429688 L 102.683594 82.585938 L 103.359375 83.429688 L 104.035156 84.277344 L 103.699219 83.296875 C 103.226562 82.046875 103.527344 81.777344 104.339844 82.6875 C 104.675781 83.09375 105.285156 83.429688 105.691406 83.429688 C 106.601562 83.429688 106.601562 83.9375 105.65625 84.578125 C 105.082031 84.984375 104.8125 85.019531 104.40625 84.679688 C 103.933594 84.34375 103.933594 84.34375 104.304688 84.851562 C 104.644531 85.253906 104.746094 86.402344 104.644531 89.070312 L 104.542969 92.71875 L 102.617188 92.820312 C 101.03125 92.890625 100.65625 92.820312 100.65625 92.382812 Z M 99.8125 81.066406 C 100.421875 80.796875 100.386719 80.761719 99.578125 80.761719 C 99.035156 80.730469 98.632812 80.898438 98.632812 81.066406 C 98.632812 81.472656 98.902344 81.472656 99.8125 81.066406 Z M 99.8125 81.066406 "/>
<path style=" stroke:none;fill-rule:nonzero;fill:rgb(90.196078%,63.921569%,51.372549%);fill-opacity:1;" d="M 108.425781 90.1875 C 108.425781 87.519531 108.425781 87.484375 109.269531 87.484375 C 109.914062 87.484375 110.316406 87.789062 110.722656 88.566406 C 111.027344 89.140625 111.566406 89.882812 111.90625 90.253906 C 112.210938 90.59375 112.480469 91.335938 112.480469 91.875 L 112.480469 92.890625 L 108.425781 92.890625 Z M 108.425781 90.1875 "/>
<path style=" stroke:none;fill-rule:nonzero;fill:rgb(90.196078%,63.921569%,51.372549%);fill-opacity:1;" d="M 58.0625 86.574219 C 57.726562 86.503906 57.421875 86.167969 57.320312 85.828125 C 57.21875 85.355469 56.949219 85.253906 56.273438 85.355469 L 55.363281 85.523438 L 55.394531 79.917969 C 55.464844 74.140625 55.699219 72.792969 56.847656 72.488281 C 57.488281 72.316406 58.4375 74.109375 58.4375 75.527344 C 58.4375 76.101562 58.636719 76.335938 59.042969 76.335938 C 59.617188 76.335938 59.652344 76.742188 59.652344 81.472656 C 59.617188 86.910156 59.585938 87.011719 58.0625 86.574219 Z M 58.0625 86.574219 "/>
<path style=" stroke:none;fill-rule:nonzero;fill:rgb(90.196078%,63.921569%,51.372549%);fill-opacity:1;" d="M 71.644531 85.457031 C 71.644531 84.949219 71.441406 84.410156 71.203125 84.175781 C 70.898438 83.871094 70.898438 83.769531 71.203125 83.769531 C 71.742188 83.769531 72.046875 84.546875 71.84375 85.523438 C 71.710938 86.269531 71.710938 86.269531 71.644531 85.457031 Z M 71.644531 85.457031 "/>
<path style=" stroke:none;fill-rule:nonzero;fill:rgb(90.196078%,63.921569%,51.372549%);fill-opacity:1;" d="M 51.003906 83.601562 C 51.003906 82.148438 51.679688 82.046875 52.660156 83.296875 C 53.640625 84.546875 53.539062 84.78125 52.1875 84.78125 C 51.070312 84.78125 51.003906 84.714844 51.003906 83.601562 Z M 51.003906 83.601562 "/>
<path style=" stroke:none;fill-rule:nonzero;fill:rgb(90.196078%,63.921569%,51.372549%);fill-opacity:1;" d="M 75.257812 84.511719 C 74.414062 84.34375 74.515625 83.871094 75.390625 83.667969 C 76.304688 83.429688 76.507812 83.566406 76.101562 84.175781 C 75.964844 84.445312 75.5625 84.578125 75.257812 84.511719 Z M 75.257812 84.511719 "/>
<path style=" stroke:none;fill-rule:nonzero;fill:rgb(90.196078%,63.921569%,51.372549%);fill-opacity:1;" d="M 70.121094 83.09375 C 69.617188 82.925781 69.582031 82.789062 69.886719 82.621094 C 70.121094 82.453125 70.496094 82.519531 70.695312 82.722656 C 71.167969 83.195312 70.898438 83.398438 70.121094 83.09375 Z M 70.121094 83.09375 "/>
<path style=" stroke:none;fill-rule:nonzero;fill:rgb(90.196078%,63.921569%,51.372549%);fill-opacity:1;" d="M 74.3125 83.128906 C 74.3125 82.957031 74.613281 82.753906 74.953125 82.652344 C 75.425781 82.554688 75.5625 82.621094 75.425781 82.957031 C 75.222656 83.464844 74.3125 83.601562 74.3125 83.128906 Z M 74.3125 83.128906 "/>
<path style=" stroke:none;fill-rule:nonzero;fill:rgb(90.196078%,63.921569%,51.372549%);fill-opacity:1;" d="M 67.894531 82.25 C 67.894531 81.980469 68.0625 81.742188 68.230469 81.742188 C 68.433594 81.742188 68.570312 81.980469 68.570312 82.25 C 68.570312 82.519531 68.433594 82.753906 68.230469 82.753906 C 68.0625 82.753906 67.894531 82.519531 67.894531 82.25 Z M 67.894531 82.25 "/>
<path style=" stroke:none;fill-rule:nonzero;fill:rgb(90.196078%,63.921569%,51.372549%);fill-opacity:1;" d="M 82.753906 82.25 C 82.753906 81.980469 82.925781 81.742188 83.09375 81.742188 C 83.296875 81.742188 83.429688 81.980469 83.429688 82.25 C 83.429688 82.519531 83.296875 82.753906 83.09375 82.753906 C 82.925781 82.753906 82.753906 82.519531 82.753906 82.25 Z M 82.753906 82.25 "/>
<path style=" stroke:none;fill-rule:nonzero;fill:rgb(90.196078%,63.921569%,51.372549%);fill-opacity:1;" d="M 93.261719 81.945312 C 93.496094 81.4375 93.765625 81.167969 93.835938 81.40625 C 93.9375 81.640625 93.734375 82.046875 93.394531 82.351562 C 92.890625 82.890625 92.855469 82.855469 93.261719 81.945312 Z M 93.261719 81.945312 "/>
<path style=" stroke:none;fill-rule:nonzero;fill:rgb(90.196078%,63.921569%,51.372549%);fill-opacity:1;" d="M 50.429688 80.558594 C 50.195312 80.289062 49.992188 79.410156 49.992188 78.566406 C 49.992188 77.316406 49.890625 77.082031 49.449219 77.25 C 48.808594 77.484375 46.949219 75.5625 46.613281 74.3125 C 46.476562 73.804688 46.105469 73.433594 45.667969 73.367188 C 45.128906 73.296875 44.925781 73.027344 44.925781 72.417969 C 44.925781 71.644531 45.027344 71.609375 46.917969 71.609375 C 48.671875 71.609375 49.113281 71.742188 50.394531 72.722656 C 52.863281 74.613281 53.4375 77.113281 51.984375 79.683594 C 51.140625 81.203125 51.039062 81.269531 50.429688 80.558594 Z M 50.429688 80.558594 "/>
<path style=" stroke:none;fill-rule:nonzero;fill:rgb(90.196078%,63.921569%,51.372549%);fill-opacity:1;" d="M 69.648438 80.761719 C 69.71875 80.527344 69.886719 80.355469 70.019531 80.355469 C 70.425781 80.390625 70.324219 80.863281 69.921875 81.03125 C 69.683594 81.101562 69.546875 80.964844 69.648438 80.761719 Z M 69.648438 80.761719 "/>
<path style=" stroke:none;fill-rule:nonzero;fill:rgb(90.196078%,63.921569%,51.372549%);fill-opacity:1;" d="M 65.765625 79.140625 C 65.664062 78.972656 65.699219 78.632812 65.832031 78.398438 C 66.136719 77.925781 67.894531 78.230469 67.894531 78.769531 C 67.894531 78.9375 67.554688 78.972656 67.183594 78.871094 C 66.746094 78.734375 66.339844 78.804688 66.203125 79.039062 C 66.070312 79.277344 65.867188 79.308594 65.765625 79.140625 Z M 65.765625 79.140625 "/>
<path style=" stroke:none;fill-rule:nonzero;fill:rgb(90.196078%,63.921569%,51.372549%);fill-opacity:1;" d="M 63.839844 76.84375 C 63.839844 76.539062 64.144531 76.335938 64.683594 76.335938 C 65.226562 76.335938 65.527344 76.539062 65.527344 76.84375 C 65.527344 77.148438 65.226562 77.351562 64.683594 77.351562 C 64.144531 77.351562 63.839844 77.148438 63.839844 76.84375 Z M 63.839844 76.84375 "/>
<path style=" stroke:none;fill-rule:nonzero;fill:rgb(90.196078%,63.921569%,51.372549%);fill-opacity:1;" d="M 86.84375 75.761719 C 86.84375 75.359375 86.503906 74.953125 86.097656 74.816406 C 85.492188 74.613281 84.75 73.433594 84.613281 72.453125 C 84.613281 72.285156 84.410156 72.148438 84.207031 72.183594 C 83.972656 72.25 83.703125 71.980469 83.601562 71.609375 C 83.464844 71.238281 83.226562 71 83.058594 71.101562 C 82.890625 71.238281 82.753906 71.035156 82.753906 70.695312 C 82.753906 70.359375 82.453125 69.582031 82.078125 68.972656 C 81.675781 68.332031 81.539062 67.925781 81.742188 68.0625 C 81.910156 68.164062 82.078125 68.027344 82.078125 67.722656 C 82.078125 67.351562 81.910156 67.21875 81.605469 67.320312 C 80.929688 67.589844 78.160156 64.550781 77.890625 63.265625 C 77.757812 62.726562 77.824219 61.847656 77.992188 61.375 C 78.296875 60.597656 78.230469 60.394531 77.484375 59.921875 C 76.40625 59.210938 75.664062 57.761719 75.664062 56.410156 C 75.664062 55.5625 75.796875 55.394531 76.507812 55.394531 C 77.417969 55.394531 79.851562 57.421875 80.558594 58.808594 C 80.832031 59.3125 81.742188 60.160156 82.554688 60.664062 C 83.398438 61.207031 84.277344 62.050781 84.476562 62.589844 C 84.714844 63.097656 85.324219 63.773438 85.828125 64.042969 C 86.402344 64.3125 86.808594 64.820312 86.808594 65.191406 C 86.808594 65.699219 87.046875 65.867188 87.652344 65.867188 C 88.125 65.867188 88.496094 66.035156 88.496094 66.203125 C 88.496094 66.40625 88.734375 66.542969 89.003906 66.542969 C 89.78125 66.542969 89.613281 67.824219 88.800781 68.0625 C 87.921875 68.367188 87.484375 69.515625 87.449219 71.710938 C 87.417969 73.601562 86.910156 77.011719 86.84375 75.761719 Z M 86.84375 75.761719 "/>
<path style=" stroke:none;fill-rule:nonzero;fill:rgb(90.196078%,63.921569%,51.372549%);fill-opacity:1;" d="M 64.71875 75.019531 C 63.671875 74.816406 63.097656 73.972656 63.976562 73.972656 C 64.277344 73.972656 64.617188 73.941406 64.71875 73.90625 C 64.851562 73.839844 65.15625 74.140625 65.460938 74.582031 C 65.730469 74.988281 65.902344 75.289062 65.832031 75.289062 C 65.765625 75.257812 65.257812 75.15625 64.71875 75.019531 Z M 64.71875 75.019531 "/>
<path style=" stroke:none;fill-rule:nonzero;fill:rgb(90.196078%,63.921569%,51.372549%);fill-opacity:1;" d="M 40.734375 72.824219 C 40.9375 72.25 42.628906 71.609375 43.777344 71.609375 C 44.417969 71.609375 44.585938 71.777344 44.585938 72.453125 C 44.585938 73.265625 44.484375 73.296875 42.558594 73.296875 C 40.972656 73.296875 40.601562 73.195312 40.734375 72.824219 Z M 40.734375 72.824219 "/>
<path style=" stroke:none;fill-rule:nonzero;fill:rgb(90.196078%,63.921569%,51.372549%);fill-opacity:1;" d="M 55.699219 71.84375 C 55.867188 71.675781 56.410156 71.609375 56.949219 71.675781 C 57.863281 71.777344 57.828125 71.8125 56.679688 71.980469 C 55.9375 72.082031 55.53125 72.015625 55.699219 71.84375 Z M 55.699219 71.84375 "/>
<path style=" stroke:none;fill-rule:nonzero;fill:rgb(83.921569%,57.647059%,46.27451%);fill-opacity:1;" d="M 55.464844 86.976562 C 55.496094 83.703125 55.597656 81.203125 55.699219 81.4375 C 55.765625 81.707031 55.902344 81.707031 56.070312 81.371094 C 56.273438 81.101562 56.476562 81.40625 56.710938 82.28125 C 56.914062 82.992188 57.386719 83.800781 57.761719 84.039062 C 58.132812 84.277344 58.4375 84.679688 58.4375 84.949219 C 58.4375 85.863281 59.414062 85.492188 59.515625 84.546875 C 59.617188 83.734375 59.585938 89.882812 59.484375 92.144531 C 59.449219 92.820312 59.28125 92.890625 57.386719 92.890625 L 55.363281 92.890625 Z M 55.464844 86.976562 "/>
<path style=" stroke:none;fill-rule:nonzero;fill:rgb(83.921569%,57.647059%,46.27451%);fill-opacity:1;" d="M 111.464844 92.382812 C 111.464844 92.113281 111.703125 91.875 111.972656 91.875 C 112.242188 91.875 112.480469 92.113281 112.480469 92.382812 C 112.480469 92.652344 112.242188 92.890625 111.972656 92.890625 C 111.703125 92.890625 111.464844 92.652344 111.464844 92.382812 Z M 111.464844 92.382812 "/>
<path style=" stroke:none;fill-rule:nonzero;fill:rgb(83.921569%,57.647059%,46.27451%);fill-opacity:1;" d="M 65.054688 90.726562 C 64.753906 89.644531 64.820312 89.511719 65.460938 89.511719 C 66.339844 89.511719 66.914062 90.019531 66.710938 90.59375 C 66.375 91.46875 65.292969 91.570312 65.054688 90.726562 Z M 65.054688 90.726562 "/>
<path style=" stroke:none;fill-rule:nonzero;fill:rgb(83.921569%,57.647059%,46.27451%);fill-opacity:1;" d="M 110.25 90.457031 C 109.371094 88.699219 109.035156 88.394531 108.730469 88.902344 C 108.5625 89.140625 108.425781 88.195312 108.425781 86.640625 C 108.425781 84.578125 108.257812 83.734375 107.820312 83.160156 L 107.210938 82.382812 L 106.738281 83.261719 C 105.894531 84.851562 103.902344 85.253906 103.800781 83.871094 C 103.699219 82.722656 103.023438 81.335938 102.582031 81.472656 C 101.90625 81.707031 101.875 83.027344 102.550781 82.957031 C 102.851562 82.957031 103.191406 83.128906 103.257812 83.363281 C 103.359375 83.566406 103.257812 83.769531 103.023438 83.769531 C 102.820312 83.769531 102.753906 83.601562 102.886719 83.363281 C 103.054688 83.09375 102.953125 83.058594 102.550781 83.195312 C 102.179688 83.328125 101.90625 83.226562 101.773438 82.890625 C 101.433594 81.980469 100.117188 80.730469 99.507812 80.730469 C 98.664062 80.730469 99.035156 79.917969 99.949219 79.78125 C 100.488281 79.683594 100.757812 79.851562 100.894531 80.355469 C 100.996094 80.730469 101.199219 80.964844 101.402344 80.863281 C 101.570312 80.761719 101.535156 80.492188 101.332031 80.222656 C 101.097656 79.953125 101.0625 79.582031 101.199219 79.34375 C 101.367188 79.039062 101.097656 79.007812 100.253906 79.175781 C 99.136719 79.378906 99.035156 79.308594 98.800781 78.464844 C 98.699219 77.960938 98.359375 77.386719 98.058594 77.183594 C 97.71875 76.910156 97.652344 76.710938 97.855469 76.574219 C 98.292969 76.304688 101.164062 78.464844 101.671875 79.378906 C 102.210938 80.390625 103.089844 80.1875 103.96875 78.871094 C 104.914062 77.386719 105.722656 77.316406 105.722656 78.703125 C 105.722656 79.78125 106.46875 80.390625 107.886719 80.390625 C 108.359375 80.390625 108.765625 80.527344 108.765625 80.660156 C 108.765625 80.964844 110.117188 82.6875 111.566406 84.175781 C 112.414062 85.121094 112.480469 85.355469 112.480469 88.363281 C 112.480469 91.503906 112.480469 91.539062 111.636719 91.539062 C 111.027344 91.539062 110.65625 91.234375 110.25 90.457031 Z M 106.738281 81.40625 C 106.535156 81.03125 106.199219 80.730469 105.996094 80.730469 C 105.792969 80.730469 105.894531 81.03125 106.230469 81.40625 C 106.570312 81.777344 106.90625 82.078125 106.972656 82.078125 C 107.042969 82.078125 106.941406 81.777344 106.738281 81.40625 Z M 106.738281 81.40625 "/>
<path style=" stroke:none;fill-rule:nonzero;fill:rgb(83.921569%,57.647059%,46.27451%);fill-opacity:1;" d="M 51.070312 90.289062 C 50.632812 89.847656 49.820312 89.410156 49.28125 89.273438 C 48.371094 89.105469 48.335938 89.039062 48.773438 88.53125 C 49.722656 87.484375 49.957031 86.371094 49.382812 85.289062 C 48.707031 83.9375 48.402344 83.769531 46.375 83.769531 C 44.621094 83.769531 44.585938 83.734375 44.585938 82.753906 C 44.585938 82.113281 44.351562 81.640625 43.910156 81.40625 C 43.539062 81.203125 43.234375 80.730469 43.234375 80.390625 C 43.234375 80.019531 43 79.714844 42.730469 79.714844 C 42.457031 79.714844 42.222656 79.582031 42.222656 79.378906 C 42.222656 79.207031 41.78125 79.039062 41.207031 79.039062 L 40.195312 79.039062 L 40.195312 76.507812 C 40.195312 73.027344 40.667969 72.117188 42.457031 72.183594 C 42.695312 72.21875 42.796875 72.082031 42.695312 71.914062 C 42.59375 71.742188 43.980469 71.644531 45.835938 71.675781 C 47.660156 71.710938 48.574219 71.777344 47.828125 71.84375 C 46.578125 71.980469 46.546875 72.015625 47.253906 72.488281 C 47.660156 72.792969 47.898438 73.164062 47.761719 73.332031 C 47.660156 73.5 47.761719 73.90625 48 74.175781 C 48.234375 74.445312 48.503906 74.546875 48.605469 74.34375 C 48.707031 74.175781 49.113281 73.972656 49.449219 73.90625 C 49.921875 73.839844 50.160156 74.074219 50.394531 74.851562 C 50.53125 75.425781 50.871094 76.101562 51.140625 76.304688 C 51.511719 76.609375 51.542969 76.945312 51.242188 77.890625 C 50.9375 78.835938 50.96875 79.140625 51.34375 79.378906 C 51.714844 79.613281 51.746094 79.816406 51.375 80.59375 C 51.003906 81.4375 51.070312 81.605469 51.984375 82.554688 C 53.875 84.511719 54.347656 87.214844 53.167969 89.542969 C 52.421875 91.03125 51.949219 91.199219 51.070312 90.289062 Z M 48.300781 78.632812 C 48.707031 77.890625 48.742188 77.554688 48.402344 77.046875 C 48.097656 76.539062 48.097656 76.335938 48.371094 76.269531 C 48.640625 76.167969 48.671875 75.898438 48.472656 75.460938 C 48.269531 74.953125 48.167969 74.917969 48.066406 75.324219 C 47.964844 75.695312 47.558594 75.796875 46.308594 75.730469 L 44.652344 75.59375 L 44.519531 77.417969 C 44.453125 78.398438 44.417969 79.34375 44.519531 79.480469 C 44.585938 79.613281 45.363281 79.714844 46.207031 79.648438 C 47.523438 79.582031 47.863281 79.378906 48.300781 78.632812 Z M 48.300781 78.632812 "/>
<path style=" stroke:none;fill-rule:nonzero;fill:rgb(83.921569%,57.647059%,46.27451%);fill-opacity:1;" d="M 63.230469 89.105469 C 62.625 88.496094 62.726562 88.328125 63.703125 88.226562 C 64.820312 88.125 65.226562 88.394531 64.953125 89.003906 C 64.753906 89.613281 63.804688 89.679688 63.230469 89.105469 Z M 63.230469 89.105469 "/>
<path style=" stroke:none;fill-rule:nonzero;fill:rgb(83.921569%,57.647059%,46.27451%);fill-opacity:1;" d="M 75.425781 84.277344 C 75.089844 83.9375 75.121094 83.769531 75.5625 83.632812 C 76.269531 83.363281 76.472656 83.601562 76.101562 84.207031 C 75.898438 84.613281 75.761719 84.648438 75.425781 84.277344 Z M 75.425781 84.277344 "/>
<path style=" stroke:none;fill-rule:nonzero;fill:rgb(83.921569%,57.647059%,46.27451%);fill-opacity:1;" d="M 77.554688 81.4375 C 77.453125 81.304688 77.65625 80.898438 78.027344 80.558594 C 78.398438 80.222656 78.703125 80.054688 78.703125 80.222656 C 78.703125 80.355469 78.972656 80.257812 79.308594 80.019531 C 79.613281 79.78125 79.445312 80.054688 78.90625 80.660156 C 77.789062 81.878906 77.789062 81.84375 77.554688 81.4375 Z M 77.554688 81.4375 "/>
<path style=" stroke:none;fill-rule:nonzero;fill:rgb(83.921569%,57.647059%,46.27451%);fill-opacity:1;" d="M 88.496094 67.859375 C 88.496094 67.691406 88.296875 67.554688 88.023438 67.554688 C 87.753906 67.554688 87.484375 67.351562 87.382812 67.148438 C 87.246094 66.8125 87.148438 66.8125 86.773438 67.148438 C 85.964844 67.894531 85.457031 67.625 85.660156 66.574219 C 85.828125 65.730469 85.726562 65.496094 84.851562 65.054688 C 84.308594 64.785156 83.667969 64.078125 83.429688 63.535156 C 83.195312 62.960938 82.890625 62.589844 82.722656 62.691406 C 82.554688 62.792969 82.417969 62.726562 82.417969 62.554688 C 82.417969 62.355469 81.945312 61.914062 81.335938 61.542969 C 80.730469 61.171875 79.851562 60.257812 79.34375 59.550781 C 78.871094 58.839844 78.296875 58.300781 78.058594 58.367188 C 77.859375 58.402344 77.6875 58.234375 77.6875 57.960938 C 77.6875 57.691406 77.351562 57.21875 76.945312 56.914062 C 76.203125 56.410156 76.167969 56.441406 75.933594 57.152344 C 75.796875 57.660156 75.730469 57.21875 75.695312 56.039062 C 75.664062 54.617188 75.832031 53.910156 76.304688 53.335938 C 76.910156 52.558594 77.011719 52.558594 78.566406 52.964844 C 80.527344 53.503906 82.25 54.71875 82.554688 55.800781 C 82.652344 56.238281 83.160156 56.847656 83.667969 57.152344 C 85.660156 58.402344 85.964844 58.636719 86.472656 59.28125 C 87.382812 60.496094 88.597656 61.476562 89.207031 61.476562 C 89.984375 61.476562 90.523438 62.457031 90.523438 63.804688 C 90.523438 64.617188 90.660156 64.851562 91.167969 64.851562 C 92.179688 64.851562 92.890625 65.226562 92.890625 65.730469 C 92.890625 66.171875 91.335938 67.523438 90.792969 67.589844 C 90.660156 67.589844 90.085938 67.722656 89.511719 67.894531 C 88.902344 68.0625 88.496094 68.0625 88.496094 67.859375 Z M 88.496094 67.859375 "/>
<path style=" stroke:none;fill-rule:nonzero;fill:rgb(76.862745%,51.372549%,42.745098%);fill-opacity:1;" d="M 41.511719 92.316406 C 40.261719 90.726562 40.195312 90.253906 40.230469 83.53125 C 40.261719 79.851562 40.332031 77.113281 40.433594 77.417969 C 40.566406 77.925781 40.703125 77.890625 41.410156 77.082031 C 41.882812 76.574219 42.1875 76.371094 42.054688 76.609375 C 41.953125 76.8125 42.019531 77.011719 42.222656 77.011719 C 42.425781 77.011719 42.761719 77.386719 42.964844 77.859375 C 43.335938 78.667969 44.25 79.039062 44.25 78.363281 C 44.25 78.195312 44.113281 78.027344 43.910156 78.027344 C 43.371094 78.027344 43.539062 77.113281 44.113281 76.878906 C 44.554688 76.710938 44.621094 76.910156 44.484375 78.363281 C 44.382812 79.34375 44.484375 80.15625 44.6875 80.289062 C 44.890625 80.425781 44.925781 80.324219 44.789062 80.019531 C 44.652344 79.75 44.789062 79.851562 45.058594 80.1875 C 45.363281 80.558594 45.601562 81.269531 45.601562 81.808594 C 45.601562 82.585938 45.734375 82.753906 46.445312 82.753906 C 46.984375 82.753906 47.289062 82.957031 47.289062 83.261719 C 47.289062 83.632812 46.917969 83.769531 45.9375 83.769531 L 44.585938 83.769531 L 44.554688 85.289062 C 44.519531 86.132812 44.519531 87.113281 44.519531 87.484375 C 44.519531 87.855469 44.519531 88.328125 44.554688 88.496094 C 44.585938 88.9375 48.539062 88.9375 48.808594 88.464844 C 49.179688 87.890625 51.105469 88.261719 51.949219 89.070312 C 52.894531 90.019531 52.894531 90.21875 51.78125 91.234375 C 50.261719 92.585938 49.179688 92.890625 45.464844 92.890625 C 42.558594 92.890625 41.917969 92.789062 41.511719 92.316406 Z M 41.511719 92.316406 "/>
<path style=" stroke:none;fill-rule:nonzero;fill:rgb(76.862745%,51.372549%,42.745098%);fill-opacity:1;" d="M 110.621094 85.355469 C 110.082031 84.78125 109.339844 83.902344 109.035156 83.429688 C 108.5625 82.722656 108.460938 82.6875 108.460938 83.195312 C 108.425781 83.53125 108.292969 83.734375 108.121094 83.632812 C 107.953125 83.53125 107.886719 83.160156 107.953125 82.824219 C 108.121094 82.113281 107.617188 81.234375 107.144531 81.539062 C 106.941406 81.640625 106.871094 82.046875 106.972656 82.382812 C 107.074219 82.722656 107.007812 83.09375 106.839844 83.195312 C 106.703125 83.296875 106.570312 82.824219 106.570312 82.148438 C 106.570312 81.4375 106.398438 80.898438 106.097656 80.796875 C 105.824219 80.695312 105.722656 80.796875 105.859375 81.03125 C 106.027344 81.304688 105.824219 81.304688 105.148438 81 C 104.644531 80.761719 104.171875 80.558594 104.101562 80.527344 C 104.035156 80.492188 104.203125 80.121094 104.441406 79.75 C 104.8125 79.140625 104.8125 78.972656 104.40625 78.734375 C 104.070312 78.535156 104.238281 78.230469 105.117188 77.585938 C 106.199219 76.742188 107.785156 76 108.460938 76 C 108.832031 76 108.867188 77.082031 108.496094 77.519531 C 108.324219 77.722656 108.054688 78.332031 107.820312 78.871094 C 107.546875 79.613281 107.515625 79.75 107.820312 79.34375 C 108.15625 78.835938 108.292969 78.835938 109.304688 79.445312 C 109.914062 79.816406 110.890625 80.628906 111.464844 81.269531 C 112.34375 82.28125 112.480469 82.6875 112.480469 84.445312 C 112.480469 86.808594 112.109375 86.976562 110.621094 85.355469 Z M 110.621094 85.355469 "/>
<path style=" stroke:none;fill-rule:nonzero;fill:rgb(76.862745%,51.372549%,42.745098%);fill-opacity:1;" d="M 46.613281 81.910156 C 46.613281 81.640625 46.78125 81.40625 46.949219 81.40625 C 47.152344 81.40625 47.289062 81.640625 47.289062 81.910156 C 47.289062 82.179688 47.152344 82.417969 46.949219 82.417969 C 46.78125 82.417969 46.613281 82.179688 46.613281 81.910156 Z M 46.613281 81.910156 "/>
<path style=" stroke:none;fill-rule:nonzero;fill:rgb(76.862745%,51.372549%,42.745098%);fill-opacity:1;" d="M 74.277344 81.675781 C 74.277344 81.605469 74.210938 81.304688 74.140625 80.964844 C 74.039062 80.457031 74.109375 80.425781 74.515625 80.761719 C 74.75 80.964844 74.886719 81.269531 74.785156 81.4375 C 74.613281 81.742188 74.34375 81.84375 74.277344 81.675781 Z M 74.277344 81.675781 "/>
<path style=" stroke:none;fill-rule:nonzero;fill:rgb(76.862745%,51.372549%,42.745098%);fill-opacity:1;" d="M 77.554688 81.472656 C 77.453125 81.304688 77.65625 80.898438 78.027344 80.558594 C 78.398438 80.222656 78.703125 80.054688 78.703125 80.222656 C 78.703125 80.355469 78.972656 80.257812 79.308594 80.019531 C 79.816406 79.582031 79.851562 79.613281 79.445312 80.121094 C 79.175781 80.457031 78.804688 80.660156 78.601562 80.628906 C 78.398438 80.59375 78.230469 80.730469 78.195312 80.964844 C 78.195312 81.503906 77.789062 81.84375 77.554688 81.472656 Z M 77.554688 81.472656 "/>
<path style=" stroke:none;fill-rule:nonzero;fill:rgb(76.862745%,51.372549%,42.745098%);fill-opacity:1;" d="M 72.417969 80.019531 C 72.148438 79.546875 72.890625 79.378906 73.265625 79.816406 C 73.535156 80.15625 73.5 80.289062 73.09375 80.289062 C 72.824219 80.289062 72.519531 80.15625 72.417969 80.019531 Z M 72.417969 80.019531 "/>
<path style=" stroke:none;fill-rule:nonzero;fill:rgb(76.862745%,51.372549%,42.745098%);fill-opacity:1;" d="M 86.640625 79.378906 C 86.539062 79.207031 85.390625 79.039062 84.105469 79.039062 C 82.824219 79.039062 81.675781 78.90625 81.574219 78.703125 C 81.4375 78.5 82.28125 78.363281 83.835938 78.363281 C 85.929688 78.363281 86.371094 78.464844 86.742188 79.039062 C 86.976562 79.410156 87.078125 79.714844 87.011719 79.714844 C 86.910156 79.714844 86.742188 79.582031 86.640625 79.378906 Z M 86.640625 79.378906 "/>
<path style=" stroke:none;fill-rule:nonzero;fill:rgb(76.862745%,51.372549%,42.745098%);fill-opacity:1;" d="M 67.050781 78.703125 C 66.914062 78.5 67.554688 78.363281 68.738281 78.363281 C 69.921875 78.363281 70.5625 78.5 70.425781 78.703125 C 70.324219 78.90625 69.546875 79.039062 68.738281 79.039062 C 67.925781 79.039062 67.148438 78.90625 67.050781 78.703125 Z M 67.050781 78.703125 "/>
<path style=" stroke:none;fill-rule:nonzero;fill:rgb(76.862745%,51.372549%,42.745098%);fill-opacity:1;" d="M 91.742188 66.8125 C 91.875 66.375 91.707031 66.171875 90.964844 66.035156 C 89.070312 65.597656 89.070312 65.597656 89.273438 64.007812 C 89.410156 63.097656 89.375 62.488281 89.171875 62.488281 C 88.96875 62.488281 88.835938 62.726562 88.835938 62.996094 C 88.835938 63.265625 88.734375 63.503906 88.632812 63.503906 C 88.429688 63.503906 86.066406 61.105469 85.355469 60.191406 C 85.121094 59.886719 84.648438 59.414062 84.277344 59.179688 C 83.902344 58.941406 83.128906 58.46875 82.554688 58.097656 C 81.742188 57.558594 81.539062 57.21875 81.640625 56.578125 C 81.777344 56.003906 81.539062 55.496094 80.898438 54.890625 C 80.425781 54.382812 80.085938 53.875 80.1875 53.808594 C 80.492188 53.503906 82.148438 54.753906 82.316406 55.394531 C 82.554688 56.238281 83.398438 56.542969 83.667969 55.867188 C 83.769531 55.597656 83.667969 54.957031 83.464844 54.484375 C 83.027344 53.503906 83.160156 53.199219 83.9375 53.46875 C 84.242188 53.605469 84.445312 54.078125 84.445312 54.652344 C 84.445312 55.902344 85.121094 56.476562 86.371094 56.339844 C 87.179688 56.238281 87.316406 56.105469 87.347656 55.058594 C 87.417969 52.761719 87.855469 51.308594 88.464844 51.410156 C 88.871094 51.511719 89.003906 51.984375 89.070312 53.707031 C 89.171875 56.984375 89.882812 61.542969 90.390625 62.386719 C 90.691406 62.894531 91.335938 63.199219 92.382812 63.332031 C 94.273438 63.636719 94.339844 64.246094 92.71875 66.070312 C 92.078125 66.777344 91.640625 67.117188 91.742188 66.8125 Z M 91.742188 66.8125 "/>
</g>
</svg>
