<?xml version="1.0" encoding="UTF-8"?>
<svg xmlns="http://www.w3.org/2000/svg" xmlns:xlink="http://www.w3.org/1999/xlink" width="152px" height="114px" viewBox="0 0 151 85" version="1.1">
<g id="surface1">
<path style=" stroke:none;fill-rule:nonzero;fill:rgb(0%,0%,0%);fill-opacity:1;" d="M 69.257812 63.882812 C 69.195312 63.820312 69.195312 62.414062 69.25 62.113281 L 69.300781 61.894531 L 69.921875 61.894531 C 70.570312 61.894531 70.898438 61.992188 70.984375 62.210938 C 71.0625 62.414062 71.027344 62.902344 70.929688 63.09375 C 70.871094 63.203125 70.859375 63.316406 70.894531 63.371094 C 70.929688 63.429688 70.957031 63.574219 70.957031 63.699219 C 70.957031 63.925781 70.957031 63.925781 70.613281 63.925781 C 70.320312 63.925781 70.257812 63.898438 70.144531 63.734375 L 70.019531 63.539062 L 69.976562 63.714844 C 69.941406 63.863281 69.894531 63.890625 69.621094 63.910156 C 69.445312 63.925781 69.285156 63.910156 69.257812 63.882812 Z M 70.144531 62.691406 C 70.285156 62.636719 70.222656 62.523438 70.039062 62.523438 C 69.90625 62.523438 69.867188 62.601562 69.957031 62.6875 C 70.011719 62.742188 70.011719 62.742188 70.144531 62.691406 Z M 70.144531 62.691406 "/>
<path style=" stroke:none;fill-rule:nonzero;fill:rgb(0%,0%,0%);fill-opacity:1;" d="M 71.445312 62.910156 L 71.445312 61.894531 L 72.144531 61.894531 L 72.144531 63.925781 L 71.445312 63.925781 Z M 71.445312 62.910156 "/>
<path style=" stroke:none;fill-rule:nonzero;fill:rgb(0%,0%,0%);fill-opacity:1;" d="M 73.125 63.566406 C 73.125 63.265625 73.082031 63.15625 72.84375 62.824219 C 72.632812 62.53125 72.5625 62.363281 72.5625 62.160156 L 72.5625 61.894531 L 72.898438 61.894531 C 73.199219 61.894531 73.25 61.914062 73.359375 62.113281 L 73.492188 62.328125 L 73.625 62.113281 C 73.753906 61.914062 73.800781 61.894531 74.109375 61.894531 C 74.453125 61.894531 74.453125 61.894531 74.453125 62.125 C 74.453125 62.28125 74.347656 62.503906 74.136719 62.820312 C 73.878906 63.203125 73.820312 63.351562 73.820312 63.609375 L 73.820312 63.925781 L 73.125 63.925781 Z M 73.125 63.566406 "/>
<path style=" stroke:none;fill-rule:nonzero;fill:rgb(0%,0%,0%);fill-opacity:1;" d="M 74.519531 63.6875 C 74.519531 63.554688 74.667969 63.121094 74.863281 62.6875 L 75.207031 61.929688 L 75.941406 61.929688 L 76.234375 62.617188 C 76.394531 62.992188 76.546875 63.324219 76.578125 63.34375 C 76.597656 63.363281 76.617188 63.511719 76.617188 63.660156 L 76.617188 63.925781 L 76.269531 63.925781 C 75.996094 63.925781 75.90625 63.898438 75.847656 63.785156 C 75.800781 63.6875 75.703125 63.644531 75.542969 63.644531 C 75.367188 63.644531 75.296875 63.679688 75.269531 63.785156 C 75.242188 63.902344 75.171875 63.925781 74.878906 63.925781 L 74.519531 63.925781 Z M 74.519531 63.6875 "/>
<path style=" stroke:none;fill-rule:nonzero;fill:rgb(0%,0%,0%);fill-opacity:1;" d="M 77.039062 62.917969 L 77.039062 61.894531 L 77.6875 61.894531 C 78.707031 61.894531 78.960938 62.125 78.910156 63.035156 C 78.890625 63.433594 78.855469 63.53125 78.695312 63.699219 C 78.511719 63.875 78.464844 63.890625 77.773438 63.910156 L 77.039062 63.9375 Z M 78.042969 63.148438 C 78.269531 62.972656 78.269531 62.917969 78.050781 62.699219 C 77.8125 62.453125 77.757812 62.484375 77.722656 62.859375 C 77.675781 63.34375 77.730469 63.394531 78.042969 63.148438 Z M 78.042969 63.148438 "/>
<path style=" stroke:none;fill-rule:nonzero;fill:rgb(0%,0%,0%);fill-opacity:1;" d="M 79.414062 62.917969 L 79.414062 61.894531 L 80.113281 61.894531 L 80.113281 62.210938 C 80.113281 62.511719 80.121094 62.523438 80.324219 62.523438 C 80.527344 62.523438 80.535156 62.511719 80.535156 62.210938 L 80.535156 61.894531 L 81.230469 61.894531 L 81.230469 63.925781 L 80.535156 63.925781 L 80.535156 63.574219 C 80.535156 63.230469 80.527344 63.226562 80.332031 63.226562 C 80.136719 63.226562 80.121094 63.238281 80.101562 63.5625 L 80.078125 63.890625 L 79.75 63.910156 L 79.414062 63.933594 Z M 79.414062 62.917969 "/>
<path style=" stroke:none;fill-rule:nonzero;fill:rgb(0%,0%,0%);fill-opacity:1;" d="M 51.730469 58.191406 C 51.730469 57.960938 51.765625 57.820312 51.851562 57.757812 C 51.914062 57.699219 52.019531 57.53125 52.089844 57.378906 C 52.207031 57.125 52.222656 56.867188 52.222656 54.730469 L 52.222656 52.367188 L 52.046875 52.023438 C 51.949219 51.828125 51.835938 51.671875 51.800781 51.671875 C 51.757812 51.671875 51.730469 51.519531 51.730469 51.320312 L 51.730469 50.972656 L 54.25 50.972656 L 54.25 51.257812 C 54.25 51.46875 54.191406 51.609375 54.015625 51.828125 L 53.792969 52.105469 L 53.773438 54.898438 L 53.75 57.695312 L 54.191406 57.695312 C 54.695312 57.695312 54.847656 57.617188 55.546875 57.019531 C 55.96875 56.671875 56.03125 56.636719 56.296875 56.65625 C 56.667969 56.683594 56.679688 56.761719 56.519531 57.777344 L 56.394531 58.535156 L 51.730469 58.535156 Z M 51.730469 58.191406 "/>
<path style=" stroke:none;fill-rule:nonzero;fill:rgb(0%,0%,0%);fill-opacity:1;" d="M 57.183594 58.21875 C 57.183594 57.964844 57.21875 57.882812 57.351562 57.796875 C 57.570312 57.660156 57.972656 56.867188 58.4375 55.699219 C 58.632812 55.199219 59.148438 53.890625 59.589844 52.792969 L 60.386719 50.796875 L 61.484375 50.796875 L 61.925781 52.09375 C 62.167969 52.804688 62.460938 53.640625 62.566406 53.949219 C 62.679688 54.253906 62.945312 55.027344 63.160156 55.664062 C 63.65625 57.097656 63.851562 57.511719 64.152344 57.75 C 64.351562 57.910156 64.382812 57.980469 64.382812 58.238281 L 64.382812 58.535156 L 61.867188 58.535156 L 61.867188 58.21875 C 61.867188 58.007812 61.902344 57.890625 61.964844 57.863281 C 62.160156 57.785156 62.140625 57.609375 61.832031 56.691406 C 61.660156 56.1875 61.519531 55.761719 61.519531 55.753906 C 61.519531 55.738281 61.113281 55.734375 60.625 55.734375 L 59.722656 55.734375 L 59.625 56 C 59.566406 56.140625 59.414062 56.582031 59.28125 56.972656 L 59.042969 57.6875 L 59.199219 57.855469 C 59.316406 57.980469 59.359375 58.09375 59.335938 58.261719 L 59.316406 58.5 L 58.253906 58.519531 L 57.183594 58.539062 Z M 60.9375 53.976562 C 60.792969 53.511719 60.660156 53.140625 60.644531 53.15625 C 60.625 53.183594 60.15625 54.453125 60.085938 54.667969 C 60.042969 54.824219 60.050781 54.824219 60.628906 54.824219 L 61.21875 54.824219 Z M 60.9375 53.976562 "/>
<path style=" stroke:none;fill-rule:nonzero;fill:rgb(0%,0%,0%);fill-opacity:1;" d="M 66.851562 58.449219 C 66.808594 58.402344 66.347656 57.097656 65.824219 55.558594 C 64.753906 52.429688 64.53125 51.890625 64.238281 51.714844 C 64.0625 51.609375 64.035156 51.554688 64.035156 51.28125 L 64.035156 50.972656 L 66.550781 50.972656 L 66.550781 51.222656 C 66.550781 51.363281 66.488281 51.582031 66.410156 51.707031 L 66.277344 51.925781 L 66.984375 54.039062 C 67.375 55.199219 67.71875 56.132812 67.746094 56.097656 C 67.769531 56.070312 67.832031 55.9375 67.875 55.804688 C 69.203125 51.996094 69.3125 51.601562 69.070312 51.601562 C 69.027344 51.601562 69 51.460938 69 51.285156 L 69 50.964844 L 70.066406 50.984375 L 71.128906 51.007812 L 71.152344 51.253906 C 71.171875 51.460938 71.144531 51.519531 70.949219 51.628906 C 70.621094 51.828125 70.445312 52.226562 68.902344 56.328125 C 68.496094 57.40625 68.132812 58.335938 68.097656 58.394531 C 68.019531 58.535156 66.957031 58.582031 66.851562 58.449219 Z M 66.851562 58.449219 "/>
<path style=" stroke:none;fill-rule:nonzero;fill:rgb(0%,0%,0%);fill-opacity:1;" d="M 71.84375 58.484375 C 71.730469 58.378906 71.792969 57.925781 71.941406 57.792969 C 72.027344 57.722656 72.152344 57.53125 72.222656 57.378906 C 72.339844 57.125 72.355469 56.882812 72.355469 54.789062 C 72.355469 53.472656 72.328125 52.371094 72.285156 52.226562 C 72.25 52.09375 72.125 51.875 72.003906 51.742188 C 71.851562 51.566406 71.792969 51.441406 71.792969 51.238281 L 71.792969 50.972656 L 76.8125 50.972656 L 76.863281 51.769531 C 76.890625 52.210938 76.890625 52.601562 76.871094 52.644531 C 76.84375 52.6875 76.6875 52.722656 76.519531 52.722656 C 76.261719 52.722656 76.171875 52.679688 75.808594 52.351562 C 75.582031 52.140625 75.324219 51.9375 75.242188 51.894531 C 75.15625 51.847656 74.820312 51.8125 74.492188 51.8125 L 73.890625 51.8125 L 73.890625 52.792969 C 73.890625 53.527344 73.914062 53.773438 73.984375 53.78125 C 74.648438 53.84375 75.242188 53.675781 75.5625 53.324219 C 75.695312 53.183594 75.800781 53.140625 76.039062 53.140625 L 76.339844 53.140625 L 76.339844 55.3125 L 76.046875 55.3125 C 75.816406 55.3125 75.703125 55.269531 75.578125 55.132812 C 75.296875 54.835938 74.941406 54.695312 74.410156 54.667969 L 73.925781 54.648438 L 73.90625 56.175781 L 73.890625 57.707031 L 74.648438 57.679688 L 75.410156 57.660156 L 75.808594 57.34375 C 76.714844 56.628906 76.710938 56.636719 76.96875 56.65625 L 77.210938 56.679688 L 77.199219 57.378906 C 77.183594 57.761719 77.15625 58.175781 77.121094 58.289062 L 77.066406 58.5 L 74.480469 58.519531 C 73.054688 58.527344 71.871094 58.511719 71.84375 58.484375 Z M 71.84375 58.484375 "/>
<path style=" stroke:none;fill-rule:nonzero;fill:rgb(0%,0%,0%);fill-opacity:1;" d="M 78.574219 58.234375 C 78.574219 58.035156 78.617188 57.882812 78.703125 57.792969 C 79.105469 57.359375 79.101562 57.421875 79.121094 54.996094 C 79.136719 53.765625 79.128906 52.625 79.101562 52.457031 C 79.074219 52.28125 78.960938 52.035156 78.8125 51.847656 C 78.632812 51.609375 78.574219 51.460938 78.574219 51.246094 L 78.574219 50.964844 L 80.695312 50.984375 L 82.804688 51.007812 L 83.167969 51.195312 C 83.378906 51.308594 83.609375 51.503906 83.714844 51.652344 C 83.867188 51.882812 83.890625 51.988281 83.890625 52.511719 C 83.882812 53.480469 83.558594 53.953125 82.625 54.359375 L 82.164062 54.5625 L 82.449219 55.011719 C 83.792969 57.121094 84.097656 57.511719 84.609375 57.769531 C 84.859375 57.902344 84.875 57.925781 84.855469 58.203125 L 84.832031 58.5 L 83.769531 58.519531 L 82.714844 58.539062 L 81.953125 57.34375 C 81.539062 56.691406 81.066406 55.941406 80.902344 55.683594 L 80.601562 55.214844 L 80.601562 56.011719 C 80.609375 57.019531 80.6875 57.363281 80.996094 57.742188 C 81.183594 57.972656 81.238281 58.09375 81.21875 58.269531 L 81.199219 58.5 L 79.890625 58.519531 L 78.574219 58.535156 Z M 81.253906 53.773438 C 81.679688 53.660156 82.007812 53.351562 82.175781 52.917969 C 82.296875 52.597656 82.296875 52.582031 82.164062 52.359375 C 81.988281 52.042969 81.511719 51.8125 81.050781 51.8125 C 80.785156 51.8125 80.679688 51.839844 80.644531 51.925781 C 80.589844 52.078125 80.589844 53.808594 80.652344 53.863281 C 80.679688 53.890625 80.75 53.898438 80.804688 53.882812 C 80.867188 53.871094 81.070312 53.816406 81.253906 53.773438 Z M 81.253906 53.773438 "/>
<path style=" stroke:none;fill-rule:nonzero;fill:rgb(0%,0%,0%);fill-opacity:1;" d="M 85.683594 58.492188 C 85.574219 58.371094 85.644531 57.953125 85.8125 57.757812 C 85.902344 57.644531 86.015625 57.433594 86.054688 57.289062 C 86.152344 56.917969 86.148438 52.464844 86.042969 52.15625 C 86 52.023438 85.886719 51.828125 85.796875 51.722656 C 85.691406 51.589844 85.636719 51.433594 85.636719 51.246094 L 85.636719 50.972656 L 87.425781 50.972656 L 87.734375 51.308594 C 87.902344 51.488281 88.664062 52.28125 89.425781 53.066406 L 90.808594 54.492188 L 90.808594 53.546875 C 90.808594 52.539062 90.710938 52.035156 90.460938 51.742188 C 90.371094 51.636719 90.320312 51.484375 90.320312 51.273438 L 90.320312 50.972656 L 92.347656 50.972656 L 92.347656 51.253906 C 92.347656 51.449219 92.285156 51.617188 92.125 51.855469 L 91.894531 52.175781 L 91.894531 57.253906 L 92.125 57.617188 C 92.277344 57.867188 92.347656 58.070312 92.347656 58.261719 L 92.347656 58.539062 L 91.355469 58.519531 L 90.355469 58.5 L 90.335938 58.191406 C 90.320312 57.964844 90.347656 57.847656 90.445312 57.734375 C 90.613281 57.558594 90.816406 56.988281 90.753906 56.882812 C 90.726562 56.839844 89.90625 55.984375 88.9375 54.992188 L 87.167969 53.175781 L 87.1875 55.136719 C 87.214844 57.222656 87.25 57.433594 87.601562 57.804688 C 87.707031 57.917969 87.734375 58.03125 87.71875 58.226562 L 87.699219 58.5 L 86.714844 58.519531 C 86.175781 58.527344 85.714844 58.511719 85.683594 58.492188 Z M 85.683594 58.492188 "/>
<path style=" stroke:none;fill-rule:nonzero;fill:rgb(0%,0%,0%);fill-opacity:1;" d="M 93.957031 58.210938 C 93.957031 57.945312 93.996094 57.839844 94.191406 57.609375 C 94.507812 57.238281 94.527344 57.015625 94.5 54.367188 L 94.480469 52.265625 L 94.296875 51.988281 C 94.191406 51.832031 94.058594 51.664062 93.996094 51.609375 C 93.925781 51.554688 93.886719 51.40625 93.886719 51.246094 L 93.886719 50.972656 L 98.988281 50.972656 L 98.988281 52.722656 L 98.660156 52.722656 C 98.394531 52.722656 98.28125 52.679688 98.113281 52.527344 C 97.996094 52.421875 97.773438 52.21875 97.605469 52.078125 L 97.3125 51.8125 L 95.984375 51.8125 L 95.984375 53.773438 L 96.535156 53.773438 C 97.101562 53.773438 97.3125 53.6875 97.746094 53.28125 C 97.847656 53.183594 97.996094 53.140625 98.199219 53.140625 L 98.507812 53.140625 L 98.484375 54.214844 L 98.464844 55.277344 L 98.164062 55.300781 C 97.914062 55.320312 97.835938 55.292969 97.652344 55.109375 C 97.347656 54.792969 97.050781 54.683594 96.507812 54.660156 L 96.019531 54.648438 L 95.996094 56.175781 L 95.984375 57.695312 L 96.683594 57.695312 C 97.5 57.695312 97.570312 57.664062 98.289062 57.0625 C 98.738281 56.691406 98.835938 56.636719 99.050781 56.65625 L 99.304688 56.679688 L 99.289062 57.449219 C 99.28125 57.875 99.253906 58.289062 99.234375 58.378906 L 99.199219 58.535156 L 93.957031 58.535156 Z M 93.957031 58.210938 "/>
<path style=" stroke:none;fill-rule:nonzero;fill:rgb(0%,0%,0%);fill-opacity:1;" d="M 69.375 45.179688 C 68.699219 45.152344 68.664062 45.148438 68.585938 44.980469 C 68.277344 44.304688 68.734375 43.808594 69.902344 43.542969 C 70.496094 43.410156 71.4375 42.578125 72.027344 41.652344 C 72.25 41.300781 72.703125 40.371094 72.703125 40.265625 C 72.703125 40.246094 72.460938 40.253906 72.164062 40.292969 C 71.648438 40.359375 71.605469 40.378906 71.269531 40.707031 C 70.976562 40.988281 70.863281 41.050781 70.605469 41.078125 C 70.171875 41.121094 69.90625 41.015625 69.90625 40.785156 C 69.90625 40.628906 69.878906 40.609375 69.65625 40.609375 C 69.496094 40.609375 69.300781 40.539062 69.097656 40.398438 C 68.832031 40.210938 68.789062 40.148438 68.789062 39.945312 C 68.789062 39.8125 68.851562 39.539062 68.929688 39.335938 C 69.019531 39.082031 69.070312 38.796875 69.070312 38.453125 C 69.070312 38.136719 69.109375 37.863281 69.171875 37.746094 C 69.277344 37.542969 69.878906 36.96875 69.984375 36.96875 C 70.019531 36.96875 70.125 36.84375 70.222656 36.6875 C 70.328125 36.519531 70.496094 36.367188 70.648438 36.304688 C 70.933594 36.183594 71.488281 36.164062 71.550781 36.269531 C 71.621094 36.386719 71.984375 36.34375 72.320312 36.191406 C 72.675781 36.023438 73.171875 35.601562 73.753906 34.996094 C 73.96875 34.769531 74.191406 34.589844 74.253906 34.589844 C 74.464844 34.589844 75.484375 34.019531 75.828125 33.71875 C 76.269531 33.320312 76.582031 32.761719 76.480469 32.558594 C 76.378906 32.375 76.339844 32.382812 75.863281 32.621094 C 75.226562 32.941406 74.535156 33.070312 73.753906 33.011719 C 73.03125 32.957031 72.410156 32.816406 72.160156 32.65625 C 71.933594 32.507812 71.828125 32.613281 71.691406 33.082031 C 71.632812 33.292969 71.5625 33.511719 71.542969 33.574219 C 71.515625 33.648438 71.628906 33.8125 71.894531 34.0625 C 72.222656 34.386719 72.285156 34.484375 72.285156 34.691406 C 72.285156 35.023438 72.117188 35.40625 71.957031 35.449219 C 71.660156 35.539062 70.597656 35.582031 70.515625 35.511719 C 70.464844 35.46875 70.304688 35.429688 70.152344 35.414062 C 69.878906 35.394531 69.867188 35.378906 69.746094 35.007812 C 69.570312 34.476562 69.613281 33.46875 69.835938 32.835938 C 70.019531 32.328125 70.464844 31.453125 70.914062 30.75 C 71.339844 30.070312 71.738281 30.023438 72.585938 30.542969 C 73.457031 31.085938 73.390625 31.117188 73.96875 29.917969 C 74.296875 29.226562 74.542969 28.8125 74.71875 28.652344 C 74.941406 28.433594 74.953125 28.398438 74.851562 28.320312 C 74.785156 28.28125 74.394531 28.152344 73.984375 28.042969 C 72.152344 27.574219 71.101562 26.859375 70.292969 25.527344 C 69.957031 24.976562 69.949219 24.96875 69.894531 24.164062 C 69.84375 23.519531 69.859375 23.289062 69.941406 23 C 70.222656 22.070312 70.664062 21.628906 71.632812 21.3125 C 72.179688 21.136719 72.261719 21.125 73.226562 21.160156 L 74.25 21.195312 L 74.632812 21.460938 C 74.851562 21.605469 75.152344 21.875 75.3125 22.046875 C 75.847656 22.636719 75.96875 22.71875 76.480469 22.894531 C 77.085938 23.105469 77.253906 23.289062 77.304688 23.804688 C 77.367188 24.484375 77.09375 24.6875 76.113281 24.671875 C 75.332031 24.660156 75.207031 24.582031 74.3125 23.558594 C 73.925781 23.121094 73.515625 22.726562 73.382812 22.65625 C 72.957031 22.460938 72.570312 22.511719 72.089844 22.820312 C 71.597656 23.140625 71.472656 23.308594 71.402344 23.714844 C 71.296875 24.371094 72.011719 25.277344 73.011719 25.765625 C 73.324219 25.921875 73.828125 26.109375 74.136719 26.191406 C 74.445312 26.277344 74.886719 26.417969 75.117188 26.5 C 75.347656 26.59375 75.675781 26.710938 75.847656 26.773438 C 76.023438 26.835938 76.351562 27.027344 76.582031 27.203125 C 76.996094 27.507812 77.011719 27.515625 77.546875 27.515625 C 78.546875 27.515625 79.476562 28.054688 80.261719 29.085938 C 80.902344 29.933594 81.820312 31.402344 81.945312 31.773438 C 82.40625 33.167969 82.421875 34.8125 81.980469 35.09375 C 81.929688 35.128906 81.988281 35.148438 82.121094 35.148438 C 82.511719 35.148438 82.589844 35.359375 82.539062 36.289062 C 82.503906 36.976562 82.46875 37.171875 82.210938 37.878906 C 81.378906 40.195312 80.988281 41.085938 80.617188 41.484375 C 80.511719 41.605469 80.316406 41.855469 80.183594 42.042969 C 80.050781 42.242188 79.910156 42.414062 79.871094 42.445312 C 79.835938 42.472656 79.339844 42.5 78.773438 42.5 C 77.785156 42.5 77.738281 42.492188 77.640625 42.347656 C 77.578125 42.253906 77.527344 42.042969 77.527344 41.855469 C 77.527344 41.570312 77.5625 41.492188 77.792969 41.238281 C 77.945312 41.085938 78.113281 40.960938 78.175781 40.960938 C 78.359375 40.960938 78.96875 40.554688 79.148438 40.308594 C 79.511719 39.839844 79.511719 39.71875 79.164062 40.054688 C 78.738281 40.46875 78.085938 40.882812 77.675781 41.007812 C 77.507812 41.058594 77.078125 41.101562 76.730469 41.101562 C 76.191406 41.101562 76.03125 41.070312 75.710938 40.917969 L 75.324219 40.734375 L 74.953125 41.148438 C 74.585938 41.554688 73.820312 42.519531 73.289062 43.242188 C 73.136719 43.460938 72.914062 43.675781 72.792969 43.726562 C 72.4375 43.878906 71.859375 44.304688 71.363281 44.78125 L 70.894531 45.230469 L 70.488281 45.214844 C 70.265625 45.210938 69.769531 45.1875 69.375 45.179688 Z M 69.375 45.179688 "/>
<path style=" stroke:none;fill-rule:nonzero;fill:rgb(100%,100%,100%);fill-opacity:1;" d="M 0 42.5 L 0 0 L 151 0 L 151 85 L 0 85 Z M 69.734375 63.433594 C 69.734375 63.226562 69.761719 63.191406 69.914062 63.167969 C 70.054688 63.15625 70.132812 63.203125 70.292969 63.433594 C 70.402344 63.597656 70.542969 63.714844 70.621094 63.714844 C 70.761719 63.714844 70.753906 63.6875 70.523438 63.351562 C 70.390625 63.160156 70.390625 63.160156 70.566406 63.050781 C 70.746094 62.921875 70.84375 62.65625 70.78125 62.449219 C 70.710938 62.238281 70.375 62.105469 69.90625 62.105469 C 69.558594 62.105469 69.488281 62.125 69.480469 62.230469 C 69.453125 62.621094 69.445312 63.617188 69.472656 63.664062 C 69.488281 63.695312 69.550781 63.714844 69.613281 63.699219 C 69.699219 63.6875 69.734375 63.601562 69.734375 63.433594 Z M 71.933594 62.910156 C 71.933594 62.152344 71.925781 62.105469 71.792969 62.105469 C 71.660156 62.105469 71.65625 62.152344 71.65625 62.910156 C 71.65625 63.664062 71.660156 63.714844 71.792969 63.714844 C 71.925781 63.714844 71.933594 63.664062 71.933594 62.910156 Z M 73.613281 63.394531 C 73.613281 63.140625 73.667969 62.992188 73.878906 62.679688 C 74.269531 62.097656 74.269531 62.105469 74.109375 62.105469 C 74.023438 62.105469 73.898438 62.222656 73.757812 62.453125 C 73.640625 62.652344 73.515625 62.789062 73.480469 62.769531 C 73.445312 62.75 73.324219 62.59375 73.214844 62.417969 C 73.101562 62.246094 72.960938 62.105469 72.898438 62.105469 C 72.71875 62.105469 72.738281 62.175781 73.054688 62.617188 C 73.289062 62.945312 73.332031 63.058594 73.332031 63.359375 C 73.332031 63.664062 73.355469 63.714844 73.472656 63.714844 C 73.589844 63.714844 73.613281 63.664062 73.613281 63.394531 Z M 75.058594 63.582031 C 75.101562 63.414062 75.261719 63.371094 75.675781 63.414062 C 75.890625 63.441406 76.015625 63.496094 76.066406 63.582031 C 76.101562 63.660156 76.199219 63.714844 76.269531 63.714844 C 76.410156 63.714844 76.449219 63.636719 76.367188 63.554688 C 76.339844 63.53125 76.183594 63.203125 76.023438 62.824219 C 75.78125 62.246094 75.710938 62.140625 75.578125 62.140625 C 75.4375 62.140625 75.359375 62.257812 75.074219 62.894531 C 74.886719 63.316406 74.730469 63.671875 74.730469 63.6875 C 74.730469 63.785156 75.03125 63.695312 75.058594 63.582031 Z M 78.476562 63.496094 C 78.582031 63.386719 78.671875 63.210938 78.695312 63.042969 C 78.773438 62.433594 78.414062 62.105469 77.6875 62.105469 L 77.246094 62.105469 L 77.246094 63.730469 L 77.773438 63.699219 C 78.21875 63.679688 78.324219 63.652344 78.476562 63.496094 Z M 79.890625 63.34375 L 79.910156 63.015625 L 80.742188 63.015625 L 80.742188 63.363281 C 80.742188 63.664062 80.765625 63.714844 80.882812 63.714844 C 81.015625 63.714844 81.023438 63.664062 81.023438 62.910156 C 81.023438 62.160156 81.015625 62.105469 80.890625 62.105469 C 80.769531 62.105469 80.75 62.160156 80.730469 62.441406 L 80.707031 62.769531 L 80.394531 62.777344 C 79.945312 62.789062 79.871094 62.726562 79.898438 62.390625 C 79.910156 62.140625 79.898438 62.105469 79.769531 62.105469 C 79.632812 62.105469 79.625 62.140625 79.625 62.917969 C 79.625 63.652344 79.636719 63.722656 79.75 63.699219 C 79.839844 63.6875 79.875 63.597656 79.890625 63.34375 Z M 56.296875 57.644531 C 56.457031 56.691406 56.421875 56.671875 55.757812 57.238281 C 55.011719 57.867188 54.933594 57.902344 54.191406 57.902344 L 53.542969 57.902344 L 53.5625 54.898438 L 53.585938 51.894531 L 53.816406 51.617188 C 53.933594 51.457031 54.039062 51.292969 54.039062 51.257812 C 54.039062 51.210938 53.683594 51.183594 52.988281 51.183594 C 51.988281 51.183594 51.941406 51.1875 51.941406 51.320312 C 51.941406 51.398438 51.96875 51.460938 52.011719 51.460938 C 52.046875 51.460938 52.15625 51.617188 52.253906 51.8125 L 52.429688 52.15625 L 52.429688 54.730469 C 52.429688 57.070312 52.417969 57.335938 52.296875 57.589844 C 52.226562 57.742188 52.121094 57.910156 52.058594 57.964844 C 51.988281 58.015625 51.941406 58.121094 51.941406 58.191406 C 51.941406 58.316406 52.03125 58.324219 54.058594 58.324219 L 56.183594 58.324219 Z M 59.09375 58.28125 C 59.121094 58.253906 59.058594 58.140625 58.96875 58.03125 C 58.867188 57.917969 58.792969 57.777344 58.792969 57.714844 C 58.792969 57.609375 59.167969 56.417969 59.398438 55.824219 L 59.511719 55.523438 L 60.617188 55.523438 C 61.230469 55.523438 61.726562 55.53125 61.726562 55.542969 C 61.726562 55.550781 61.867188 55.976562 62.042969 56.488281 C 62.390625 57.53125 62.425781 57.839844 62.21875 58.023438 C 61.910156 58.289062 62.023438 58.324219 63.125 58.324219 C 64.28125 58.324219 64.355469 58.289062 63.945312 57.960938 C 63.644531 57.722656 63.449219 57.308594 62.953125 55.875 C 62.734375 55.234375 62.46875 54.464844 62.355469 54.15625 C 62.253906 53.851562 61.957031 53.015625 61.714844 52.300781 L 61.273438 51.007812 L 60.597656 51.007812 L 59.796875 53.003906 C 59.359375 54.101562 58.839844 55.410156 58.644531 55.90625 C 58.183594 57.078125 57.777344 57.867188 57.5625 58.007812 C 57.472656 58.066406 57.394531 58.164062 57.394531 58.21875 C 57.394531 58.300781 57.539062 58.324219 58.21875 58.324219 C 58.671875 58.324219 59.070312 58.300781 59.09375 58.28125 Z M 67.886719 58.183594 C 67.921875 58.128906 68.285156 57.195312 68.691406 56.117188 C 70.230469 52.035156 70.390625 51.65625 70.726562 51.433594 C 70.851562 51.34375 70.933594 51.253906 70.90625 51.230469 C 70.886719 51.203125 70.488281 51.183594 70.035156 51.183594 C 69.347656 51.183594 69.207031 51.203125 69.207031 51.285156 C 69.207031 51.34375 69.234375 51.390625 69.269531 51.390625 C 69.363281 51.390625 69.4375 51.65625 69.433594 51.917969 C 69.425781 52.035156 69.136719 52.960938 68.78125 53.984375 C 68.433594 55.003906 68.0625 56.082031 67.964844 56.382812 C 67.859375 56.679688 67.753906 56.917969 67.726562 56.910156 C 67.636719 56.875 66.0625 52.15625 66.0625 51.917969 C 66.0625 51.804688 66.125 51.617188 66.203125 51.496094 C 66.277344 51.386719 66.34375 51.265625 66.34375 51.238281 C 66.34375 51.203125 65.875 51.183594 65.292969 51.183594 C 64.425781 51.183594 64.246094 51.195312 64.246094 51.28125 C 64.246094 51.335938 64.335938 51.441406 64.449219 51.503906 C 64.742188 51.679688 64.964844 52.21875 66.035156 55.347656 C 66.558594 56.886719 67.019531 58.191406 67.0625 58.238281 C 67.160156 58.367188 67.808594 58.324219 67.886719 58.183594 Z M 76.863281 58.253906 C 76.945312 58.113281 77.058594 56.988281 76.988281 56.917969 C 76.917969 56.847656 76.878906 56.882812 76.015625 57.554688 L 75.617188 57.867188 L 74.648438 57.890625 C 73.886719 57.910156 73.683594 57.898438 73.683594 57.820312 C 73.65625 56.910156 73.6875 54.523438 73.722656 54.457031 C 73.757812 54.410156 73.976562 54.394531 74.429688 54.429688 C 75.136719 54.480469 75.484375 54.605469 75.785156 54.921875 C 76.09375 55.25 76.128906 55.179688 76.128906 54.226562 C 76.128906 53.269531 76.085938 53.191406 75.773438 53.535156 C 75.683594 53.632812 75.492188 53.773438 75.359375 53.84375 C 75.101562 53.96875 74.003906 54.09375 73.800781 54.011719 C 73.695312 53.976562 73.683594 53.828125 73.683594 52.785156 L 73.683594 51.601562 L 74.492188 51.601562 C 74.96875 51.601562 75.359375 51.636719 75.449219 51.6875 C 75.535156 51.726562 75.792969 51.929688 76.023438 52.140625 C 76.507812 52.574219 76.660156 52.597656 76.644531 52.210938 C 76.640625 52.070312 76.632812 51.777344 76.625 51.566406 L 76.617188 51.183594 L 74.3125 51.183594 C 73.046875 51.183594 72.003906 51.210938 72.003906 51.238281 C 72.003906 51.273438 72.101562 51.40625 72.214844 51.53125 C 72.332031 51.664062 72.460938 51.882812 72.492188 52.015625 C 72.535156 52.164062 72.5625 53.332031 72.5625 54.773438 C 72.5625 57.492188 72.550781 57.582031 72.164062 57.988281 C 72.066406 58.085938 72.011719 58.203125 72.03125 58.246094 C 72.09375 58.34375 76.800781 58.351562 76.863281 58.253906 Z M 80.972656 58.28125 C 80.996094 58.253906 80.910156 58.105469 80.777344 57.945312 C 80.644531 57.785156 80.503906 57.511719 80.46875 57.34375 C 80.371094 56.910156 80.371094 54.523438 80.46875 54.558594 C 80.511719 54.570312 80.734375 54.886719 80.972656 55.265625 C 81.210938 55.636719 81.75 56.480469 82.164062 57.132812 L 82.925781 58.332031 L 83.761719 58.308594 C 84.699219 58.289062 84.847656 58.210938 84.398438 57.988281 C 83.992188 57.777344 83.644531 57.386719 83.058594 56.488281 C 82.253906 55.257812 81.792969 54.515625 81.792969 54.445312 C 81.785156 54.402344 81.902344 54.339844 82.050781 54.296875 C 82.484375 54.164062 83 53.871094 83.238281 53.617188 C 83.539062 53.308594 83.679688 52.945312 83.679688 52.5 C 83.679688 52.007812 83.457031 51.671875 82.960938 51.40625 L 82.59375 51.21875 L 80.695312 51.195312 C 79.394531 51.183594 78.785156 51.195312 78.785156 51.246094 C 78.785156 51.285156 78.890625 51.460938 79.023438 51.636719 C 79.171875 51.828125 79.28125 52.070312 79.308594 52.246094 C 79.339844 52.414062 79.34375 53.652344 79.332031 54.996094 C 79.308594 57.660156 79.324219 57.566406 78.910156 58 C 78.640625 58.296875 78.714844 58.324219 79.855469 58.324219 C 80.449219 58.324219 80.945312 58.300781 80.972656 58.28125 Z M 87.488281 58.246094 C 87.515625 58.203125 87.476562 58.105469 87.398438 58.023438 C 87.027344 57.628906 87.007812 57.46875 86.980469 55.039062 C 86.964844 53.730469 86.980469 52.75 87.015625 52.714844 C 87.054688 52.671875 87.445312 53.03125 88.011719 53.613281 C 88.523438 54.144531 89.410156 55.054688 89.984375 55.636719 C 90.871094 56.539062 91.019531 56.71875 91.019531 56.910156 C 91.019531 57.210938 90.824219 57.761719 90.65625 57.953125 C 90.375 58.253906 90.515625 58.324219 91.367188 58.324219 C 91.796875 58.324219 92.136719 58.296875 92.136719 58.261719 C 92.136719 58.226562 92.03125 58.03125 91.914062 57.828125 L 91.683594 57.460938 L 91.683594 51.964844 L 91.914062 51.644531 C 92.03125 51.460938 92.136719 51.285156 92.136719 51.253906 C 92.136719 51.210938 91.808594 51.183594 91.335938 51.183594 C 90.460938 51.183594 90.398438 51.21875 90.667969 51.53125 C 90.941406 51.847656 91.019531 52.308594 91.019531 53.714844 C 91.019531 54.4375 91 55.03125 90.96875 55.03125 C 90.921875 55.03125 88.238281 52.296875 87.523438 51.519531 L 87.214844 51.183594 L 86.53125 51.183594 C 86.152344 51.183594 85.847656 51.210938 85.847656 51.246094 C 85.847656 51.28125 85.921875 51.398438 86.007812 51.511719 C 86.328125 51.890625 86.34375 52.050781 86.335938 54.71875 C 86.335938 56.167969 86.300781 57.34375 86.265625 57.496094 C 86.222656 57.636719 86.113281 57.855469 86.015625 57.964844 C 85.917969 58.085938 85.851562 58.210938 85.882812 58.253906 C 85.945312 58.351562 87.433594 58.34375 87.488281 58.246094 Z M 99.015625 58.203125 C 99.09375 57.917969 99.136719 56.9375 99.074219 56.894531 C 99.03125 56.875 98.773438 57.042969 98.492188 57.28125 C 97.75 57.898438 97.738281 57.902344 96.683594 57.902344 L 95.773438 57.902344 L 95.789062 56.175781 L 95.808594 54.4375 L 96.484375 54.445312 C 97.242188 54.457031 97.515625 54.542969 97.871094 54.898438 C 98.226562 55.265625 98.289062 55.160156 98.289062 54.191406 C 98.289062 53.246094 98.269531 53.21875 97.871094 53.570312 C 97.472656 53.914062 97.316406 53.96875 96.648438 53.984375 C 96.304688 53.988281 95.960938 53.996094 95.890625 53.988281 C 95.78125 53.984375 95.773438 53.890625 95.789062 52.785156 L 95.808594 51.589844 L 96.648438 51.59375 C 97.570312 51.609375 97.542969 51.601562 98.148438 52.15625 C 98.722656 52.679688 98.777344 52.652344 98.777344 51.847656 L 98.777344 51.183594 L 96.4375 51.183594 C 95.136719 51.183594 94.09375 51.210938 94.09375 51.246094 C 94.09375 51.28125 94.144531 51.351562 94.207031 51.398438 C 94.269531 51.457031 94.402344 51.625 94.507812 51.777344 L 94.691406 52.058594 L 94.710938 54.367188 C 94.738281 57.246094 94.722656 57.449219 94.402344 57.820312 C 93.957031 58.34375 93.863281 58.324219 96.570312 58.324219 C 98.808594 58.324219 98.980469 58.316406 99.015625 58.203125 Z M 71.152344 44.574219 C 71.648438 44.097656 72.226562 43.667969 72.585938 43.515625 C 72.703125 43.464844 72.925781 43.25 73.082031 43.03125 C 73.71875 42.171875 74.394531 41.316406 74.816406 40.867188 L 75.261719 40.390625 L 75.78125 40.636719 C 76.199219 40.839844 76.378906 40.890625 76.730469 40.890625 C 77.640625 40.890625 78.273438 40.53125 79.371094 39.398438 C 79.785156 38.964844 80.140625 38.648438 80.164062 38.691406 C 80.203125 38.808594 79.667969 40.085938 79.4375 40.421875 C 79.234375 40.714844 78.597656 41.167969 78.394531 41.167969 C 78.242188 41.167969 77.738281 41.703125 77.738281 41.863281 C 77.738281 42.066406 77.976562 42.316406 78.109375 42.269531 C 78.175781 42.242188 78.207031 42.179688 78.183594 42.113281 C 78.121094 41.953125 78.210938 41.679688 78.34375 41.632812 C 78.507812 41.570312 78.605469 41.6875 78.472656 41.800781 C 78.253906 41.980469 78.394531 42.289062 78.695312 42.289062 C 78.863281 42.289062 78.996094 42.109375 78.996094 41.882812 C 78.996094 41.6875 79.183594 41.539062 79.296875 41.652344 C 79.359375 41.722656 79.351562 41.75 79.261719 41.808594 C 79.085938 41.90625 79.101562 42.199219 79.28125 42.253906 C 79.527344 42.332031 79.722656 42.234375 79.902344 41.941406 C 80.003906 41.777344 80.191406 41.519531 80.335938 41.359375 C 80.792969 40.847656 81.164062 40.015625 82 37.667969 C 82.34375 36.695312 82.449219 35.835938 82.253906 35.535156 C 82.167969 35.398438 82.078125 35.359375 81.898438 35.359375 C 81.652344 35.359375 81.492188 35.40625 80.28125 35.871094 C 79.492188 36.171875 79.066406 36.253906 79.066406 36.109375 C 79.066406 35.988281 79.039062 36.003906 80.078125 35.632812 C 80.503906 35.476562 81.070312 35.238281 81.34375 35.113281 C 81.785156 34.894531 81.863281 34.832031 81.964844 34.574219 C 82.167969 34.0625 82.078125 33.027344 81.734375 31.984375 C 81.609375 31.613281 80.695312 30.140625 80.050781 29.292969 C 79.269531 28.265625 78.339844 27.726562 77.339844 27.726562 C 76.800781 27.726562 76.785156 27.71875 76.375 27.410156 C 76.144531 27.238281 75.816406 27.046875 75.640625 26.984375 C 75.464844 26.921875 75.136719 26.800781 74.90625 26.710938 C 74.675781 26.628906 74.234375 26.488281 73.925781 26.402344 C 72.660156 26.058594 71.691406 25.386719 71.320312 24.582031 C 71.171875 24.269531 71.152344 24.132812 71.179688 23.730469 C 71.222656 23.140625 71.332031 22.964844 71.878906 22.609375 C 72.277344 22.355469 72.339844 22.335938 72.828125 22.335938 C 73.164062 22.335938 73.429688 22.378906 73.589844 22.449219 C 73.722656 22.515625 74.136719 22.910156 74.519531 23.351562 C 75.375 24.324219 75.550781 24.441406 76.144531 24.441406 C 76.890625 24.449219 77.199219 24.199219 77.046875 23.714844 C 76.933594 23.386719 76.800781 23.28125 76.246094 23.097656 C 75.773438 22.945312 75.660156 22.859375 75.101562 22.257812 C 74.941406 22.082031 74.640625 21.824219 74.429688 21.675781 C 74.058594 21.417969 74.03125 21.410156 73.234375 21.375 C 72.488281 21.335938 72.382812 21.347656 71.84375 21.523438 C 70.558594 21.941406 70.027344 22.75 70.117188 24.121094 C 70.152344 24.722656 70.171875 24.777344 70.496094 25.3125 C 71.3125 26.640625 72.304688 27.335938 74.09375 27.804688 C 74.820312 28 75.429688 28.28125 75.429688 28.425781 C 75.429688 28.460938 75.277344 28.59375 75.082031 28.734375 C 74.765625 28.957031 74.6875 29.078125 74.214844 30.066406 C 73.921875 30.652344 73.632812 31.164062 73.570312 31.183594 C 73.402344 31.25 72.921875 31.085938 72.492188 30.820312 C 72.285156 30.6875 72.011719 30.535156 71.886719 30.484375 C 71.507812 30.324219 71.304688 30.554688 70.453125 32.136719 C 69.894531 33.171875 69.726562 34.089844 69.957031 34.796875 C 70.054688 35.09375 70.117188 35.191406 70.234375 35.203125 C 70.390625 35.226562 70.496094 35.058594 70.453125 34.859375 C 70.4375 34.804688 70.480469 34.761719 70.535156 34.761719 C 70.605469 34.761719 70.65625 34.855469 70.675781 35.042969 C 70.738281 35.554688 71.1875 35.429688 71.152344 34.910156 C 71.136719 34.691406 71.160156 34.625 71.234375 34.625 C 71.304688 34.625 71.347656 34.714844 71.363281 34.917969 C 71.382812 35.238281 71.542969 35.351562 71.789062 35.226562 C 71.894531 35.167969 72.074219 34.828125 72.074219 34.679688 C 72.074219 34.664062 71.898438 34.488281 71.691406 34.28125 C 71.367188 33.972656 71.304688 33.867188 71.304688 33.671875 C 71.304688 33.40625 71.550781 32.585938 71.667969 32.4375 C 71.753906 32.332031 72.257812 32.3125 72.320312 32.410156 C 72.390625 32.53125 73.019531 32.699219 73.632812 32.769531 C 74.402344 32.859375 75.023438 32.734375 75.800781 32.332031 C 76.367188 32.039062 76.414062 32.039062 76.675781 32.339844 C 76.925781 32.640625 76.605469 33.425781 76.015625 33.949219 C 75.683594 34.246094 74.667969 34.796875 74.464844 34.796875 C 74.402344 34.796875 74.179688 34.980469 73.960938 35.203125 C 73.382812 35.8125 72.886719 36.234375 72.527344 36.402344 C 72.164062 36.570312 71.542969 36.613281 71.328125 36.480469 C 71.117188 36.34375 70.691406 36.535156 70.464844 36.851562 C 70.367188 36.988281 70.167969 37.191406 70.011719 37.304688 C 69.703125 37.523438 69.355469 37.90625 69.335938 38.039062 C 69.328125 38.089844 69.320312 38.347656 69.3125 38.613281 C 69.3125 38.9375 69.257812 39.246094 69.152344 39.511719 C 69.070312 39.734375 69 39.929688 69 39.945312 C 69 39.957031 69.144531 40.070312 69.320312 40.191406 C 69.578125 40.371094 69.683594 40.40625 69.871094 40.371094 C 70 40.34375 70.136719 40.28125 70.1875 40.222656 C 70.300781 40.089844 70.746094 40.085938 70.746094 40.21875 C 70.746094 40.300781 70.613281 40.371094 70.242188 40.496094 C 70.054688 40.554688 70.089844 40.742188 70.300781 40.828125 C 70.558594 40.917969 70.667969 40.867188 71.066406 40.484375 C 71.402344 40.160156 71.425781 40.15625 72.074219 40.0625 C 72.90625 39.957031 73.683594 39.953125 73.941406 40.0625 C 74.121094 40.140625 74.101562 40.148438 73.632812 40.191406 C 73.3125 40.210938 73.09375 40.265625 73.03125 40.328125 C 72.976562 40.386719 72.835938 40.664062 72.710938 40.953125 C 72.429688 41.597656 72.09375 42.128906 71.628906 42.660156 C 71.222656 43.128906 70.515625 43.664062 70.214844 43.726562 C 69.601562 43.867188 69.144531 44.0625 68.929688 44.285156 C 68.710938 44.507812 68.703125 44.539062 68.789062 44.742188 C 68.894531 45 69.003906 44.984375 69.082031 44.699219 C 69.136719 44.488281 69.382812 44.195312 69.453125 44.265625 C 69.472656 44.285156 69.445312 44.390625 69.390625 44.496094 C 69.3125 44.640625 69.304688 44.734375 69.355469 44.824219 C 69.4375 44.980469 69.691406 44.972656 69.769531 44.808594 C 69.96875 44.371094 70.035156 44.285156 70.171875 44.265625 C 70.363281 44.238281 70.367188 44.277344 70.1875 44.460938 C 70.019531 44.628906 70.011719 44.761719 70.160156 44.910156 C 70.390625 45.140625 70.65625 45.046875 71.152344 44.574219 Z M 71.152344 44.574219 "/>
<path style=" stroke:none;fill-rule:nonzero;fill:rgb(100%,100%,100%);fill-opacity:1;" d="M 69.746094 62.894531 C 69.71875 62.875 69.699219 62.726562 69.699219 62.582031 L 69.699219 62.316406 L 70.035156 62.316406 C 70.214844 62.316406 70.402344 62.351562 70.453125 62.398438 C 70.578125 62.523438 70.550781 62.789062 70.402344 62.875 C 70.25 62.953125 69.816406 62.972656 69.746094 62.894531 Z M 69.746094 62.894531 "/>
<path style=" stroke:none;fill-rule:nonzero;fill:rgb(100%,100%,100%);fill-opacity:1;" d="M 75.289062 63.09375 C 75.289062 62.972656 75.5 62.523438 75.554688 62.523438 C 75.617188 62.523438 75.847656 62.972656 75.847656 63.085938 C 75.847656 63.125 75.722656 63.15625 75.570312 63.15625 C 75.417969 63.15625 75.289062 63.125 75.289062 63.09375 Z M 75.289062 63.09375 "/>
<path style=" stroke:none;fill-rule:nonzero;fill:rgb(100%,100%,100%);fill-opacity:1;" d="M 77.5625 63.476562 C 77.484375 63.421875 77.464844 63.28125 77.476562 62.875 L 77.492188 62.351562 L 77.75 62.328125 C 78.074219 62.300781 78.261719 62.398438 78.402344 62.664062 C 78.527344 62.902344 78.484375 63.160156 78.296875 63.328125 C 78.113281 63.492188 77.703125 63.582031 77.5625 63.476562 Z M 77.5625 63.476562 "/>
<path style=" stroke:none;fill-rule:nonzero;fill:rgb(100%,100%,100%);fill-opacity:1;" d="M 59.699219 54.996094 C 59.699219 54.964844 60.050781 53.953125 60.394531 53.003906 C 60.511719 52.671875 60.609375 52.394531 60.609375 52.378906 C 60.609375 52.359375 60.636719 52.371094 60.671875 52.414062 C 60.734375 52.476562 61.519531 54.84375 61.519531 54.96875 C 61.519531 55.003906 61.121094 55.03125 60.609375 55.03125 C 60.113281 55.03125 59.699219 55.019531 59.699219 54.996094 Z M 59.699219 54.996094 "/>
<path style=" stroke:none;fill-rule:nonzero;fill:rgb(100%,100%,100%);fill-opacity:1;" d="M 80.421875 54.023438 C 80.402344 53.976562 80.394531 53.402344 80.40625 52.75 L 80.429688 51.566406 L 81.023438 51.59375 C 82.015625 51.628906 82.492188 51.960938 82.492188 52.617188 C 82.492188 52.988281 82.210938 53.578125 81.945312 53.757812 C 81.546875 54.046875 80.5 54.226562 80.421875 54.023438 Z M 80.421875 54.023438 "/>
<path style=" stroke:none;fill-rule:nonzero;fill:rgb(100%,100%,100%);fill-opacity:1;" d="M 76.347656 39.628906 C 76.296875 39.601562 76.269531 39.515625 76.28125 39.449219 C 76.3125 39.285156 76.640625 39.265625 76.675781 39.417969 C 76.695312 39.550781 76.457031 39.707031 76.347656 39.628906 Z M 76.347656 39.628906 "/>
<path style=" stroke:none;fill-rule:nonzero;fill:rgb(100%,100%,100%);fill-opacity:1;" d="M 77.511719 39.414062 C 77.289062 39.285156 77.414062 38.804688 77.679688 38.789062 C 77.773438 38.789062 77.945312 39.011719 77.945312 39.140625 C 77.945312 39.265625 77.773438 39.488281 77.679688 39.488281 C 77.652344 39.488281 77.578125 39.453125 77.511719 39.414062 Z M 77.511719 39.414062 "/>
<path style=" stroke:none;fill-rule:nonzero;fill:rgb(100%,100%,100%);fill-opacity:1;" d="M 75.085938 38.921875 C 74.988281 38.640625 74.984375 38.671875 75.179688 38.542969 C 75.515625 38.328125 75.785156 38.691406 75.542969 39.019531 C 75.386719 39.214844 75.171875 39.167969 75.085938 38.921875 Z M 75.085938 38.921875 "/>
<path style=" stroke:none;fill-rule:nonzero;fill:rgb(100%,100%,100%);fill-opacity:1;" d="M 73.890625 38.804688 C 73.890625 38.550781 73.949219 38.496094 74.117188 38.585938 C 74.296875 38.683594 74.253906 38.957031 74.054688 38.984375 C 73.921875 39.007812 73.890625 38.976562 73.890625 38.804688 Z M 73.890625 38.804688 "/>
<path style=" stroke:none;fill-rule:nonzero;fill:rgb(100%,100%,100%);fill-opacity:1;" d="M 76.484375 38.585938 C 76.375 38.375 76.394531 38.242188 76.546875 38.195312 C 76.773438 38.125 76.980469 38.277344 76.953125 38.496094 C 76.925781 38.738281 76.597656 38.804688 76.484375 38.585938 Z M 76.484375 38.585938 "/>
<path style=" stroke:none;fill-rule:nonzero;fill:rgb(100%,100%,100%);fill-opacity:1;" d="M 72.003906 38.207031 C 72.117188 37.996094 72.214844 37.753906 72.214844 37.648438 C 72.214844 37.289062 71.851562 37.136719 71.527344 37.359375 C 71.277344 37.535156 71.332031 37.296875 71.59375 37.082031 C 71.871094 36.84375 72.039062 36.851562 72.292969 37.101562 C 72.445312 37.253906 72.492188 37.375 72.492188 37.578125 C 72.488281 38.0625 72.164062 38.578125 71.871094 38.578125 C 71.828125 38.578125 71.886719 38.410156 72.003906 38.207031 Z M 72.003906 38.207031 "/>
<path style=" stroke:none;fill-rule:nonzero;fill:rgb(100%,100%,100%);fill-opacity:1;" d="M 78.207031 38.382812 C 77.933594 38.089844 78.148438 37.800781 78.527344 37.941406 C 78.714844 38.011719 78.839844 38.292969 78.75 38.433594 C 78.679688 38.550781 78.332031 38.523438 78.207031 38.382812 Z M 78.207031 38.382812 "/>
<path style=" stroke:none;fill-rule:nonzero;fill:rgb(100%,100%,100%);fill-opacity:1;" d="M 74.472656 38.003906 C 74.382812 37.964844 74.3125 37.871094 74.3125 37.800781 C 74.3125 37.527344 74.886719 37.4375 75.039062 37.691406 C 75.101562 37.792969 75.085938 37.84375 74.949219 37.957031 C 74.765625 38.101562 74.695312 38.109375 74.472656 38.003906 Z M 74.472656 38.003906 "/>
<path style=" stroke:none;fill-rule:nonzero;fill:rgb(100%,100%,100%);fill-opacity:1;" d="M 79.359375 38.003906 C 79.136719 37.78125 79.414062 37.445312 79.695312 37.597656 C 79.839844 37.675781 79.871094 37.789062 79.777344 37.921875 C 79.703125 38.046875 79.449219 38.097656 79.359375 38.003906 Z M 79.359375 38.003906 "/>
<path style=" stroke:none;fill-rule:nonzero;fill:rgb(100%,100%,100%);fill-opacity:1;" d="M 76.011719 37.59375 C 75.917969 37.558594 75.847656 37.488281 75.847656 37.4375 C 75.847656 37.15625 76.359375 37.085938 76.394531 37.367188 C 76.421875 37.558594 76.21875 37.675781 76.011719 37.59375 Z M 76.011719 37.59375 "/>
<path style=" stroke:none;fill-rule:nonzero;fill:rgb(100%,100%,100%);fill-opacity:1;" d="M 77.269531 37.621094 C 77.144531 37.578125 77.15625 37.144531 77.28125 37.039062 C 77.511719 36.851562 77.75 37.136719 77.597656 37.421875 C 77.5 37.605469 77.402344 37.660156 77.269531 37.621094 Z M 77.269531 37.621094 "/>
<path style=" stroke:none;fill-rule:nonzero;fill:rgb(100%,100%,100%);fill-opacity:1;" d="M 78.695312 37.347656 C 78.667969 37.320312 78.644531 37.222656 78.644531 37.128906 C 78.644531 36.988281 78.679688 36.960938 78.804688 36.984375 C 78.917969 36.996094 78.960938 37.050781 78.960938 37.179688 C 78.960938 37.347656 78.800781 37.453125 78.695312 37.347656 Z M 78.695312 37.347656 "/>
<path style=" stroke:none;fill-rule:nonzero;fill:rgb(100%,100%,100%);fill-opacity:1;" d="M 73.640625 37.074219 C 73.578125 36.925781 73.660156 36.757812 73.789062 36.757812 C 73.933594 36.757812 73.996094 36.949219 73.890625 37.074219 C 73.78125 37.207031 73.6875 37.207031 73.640625 37.074219 Z M 73.640625 37.074219 "/>
<path style=" stroke:none;fill-rule:nonzero;fill:rgb(100%,100%,100%);fill-opacity:1;" d="M 74.554688 36.757812 C 74.429688 36.617188 74.429688 36.613281 74.589844 36.445312 C 74.871094 36.140625 75.183594 36.269531 75.136719 36.667969 C 75.121094 36.828125 75.082031 36.871094 74.898438 36.882812 C 74.757812 36.898438 74.648438 36.855469 74.554688 36.757812 Z M 74.554688 36.757812 "/>
<path style=" stroke:none;fill-rule:nonzero;fill:rgb(100%,100%,100%);fill-opacity:1;" d="M 77.917969 36.527344 C 77.652344 36.332031 78.078125 35.839844 78.386719 36.003906 C 78.5625 36.09375 78.535156 36.304688 78.324219 36.472656 C 78.109375 36.648438 78.078125 36.648438 77.917969 36.527344 Z M 77.917969 36.527344 "/>
<path style=" stroke:none;fill-rule:nonzero;fill:rgb(100%,100%,100%);fill-opacity:1;" d="M 75.882812 36.457031 C 75.640625 36.277344 75.878906 35.855469 76.164062 35.960938 C 76.289062 36.007812 76.304688 36.34375 76.183594 36.464844 C 76.082031 36.570312 76.046875 36.570312 75.882812 36.457031 Z M 75.882812 36.457031 "/>
<path style=" stroke:none;fill-rule:nonzero;fill:rgb(100%,100%,100%);fill-opacity:1;" d="M 76.925781 36.191406 C 76.773438 36.023438 76.855469 35.828125 77.101562 35.792969 C 77.402344 35.742188 77.554688 36.015625 77.34375 36.226562 C 77.199219 36.375 77.085938 36.367188 76.925781 36.191406 Z M 76.925781 36.191406 "/>
<path style=" stroke:none;fill-rule:nonzero;fill:rgb(100%,100%,100%);fill-opacity:1;" d="M 74.417969 35.707031 C 74.355469 35.503906 74.472656 35.398438 74.695312 35.457031 C 74.835938 35.492188 74.878906 35.539062 74.855469 35.660156 C 74.828125 35.882812 74.480469 35.917969 74.417969 35.707031 Z M 74.417969 35.707031 "/>
<path style=" stroke:none;fill-rule:nonzero;fill:rgb(100%,100%,100%);fill-opacity:1;" d="M 77.875 35.253906 C 77.800781 35.113281 77.800781 35.0625 77.875 34.972656 C 78.007812 34.8125 78.21875 34.847656 78.308594 35.050781 C 78.386719 35.203125 78.378906 35.246094 78.261719 35.332031 C 78.074219 35.46875 77.980469 35.449219 77.875 35.253906 Z M 77.875 35.253906 "/>
<path style=" stroke:none;fill-rule:nonzero;fill:rgb(100%,100%,100%);fill-opacity:1;" d="M 75.589844 35.105469 C 75.570312 35.050781 75.582031 34.964844 75.625 34.925781 C 75.738281 34.8125 75.953125 34.890625 75.976562 35.0625 C 75.996094 35.191406 75.96875 35.21875 75.816406 35.21875 C 75.714844 35.21875 75.617188 35.167969 75.589844 35.105469 Z M 75.589844 35.105469 "/>
<path style=" stroke:none;fill-rule:nonzero;fill:rgb(100%,100%,100%);fill-opacity:1;" d="M 78.925781 35.070312 C 78.828125 34.890625 78.945312 34.726562 79.175781 34.726562 C 79.40625 34.726562 79.519531 34.960938 79.351562 35.105469 C 79.183594 35.261719 79.015625 35.246094 78.925781 35.070312 Z M 78.925781 35.070312 "/>
<path style=" stroke:none;fill-rule:nonzero;fill:rgb(100%,100%,100%);fill-opacity:1;" d="M 76.6875 34.761719 C 76.554688 34.601562 76.632812 34.414062 76.84375 34.390625 C 77.046875 34.371094 77.21875 34.582031 77.148438 34.769531 C 77.101562 34.894531 76.800781 34.894531 76.6875 34.761719 Z M 76.6875 34.761719 "/>
<path style=" stroke:none;fill-rule:nonzero;fill:rgb(100%,100%,100%);fill-opacity:1;" d="M 77.597656 34.273438 C 77.5 34.152344 77.554688 33.851562 77.679688 33.796875 C 77.855469 33.734375 78.085938 33.882812 78.085938 34.050781 C 78.085938 34.351562 77.777344 34.488281 77.597656 34.273438 Z M 77.597656 34.273438 "/>
<path style=" stroke:none;fill-rule:nonzero;fill:rgb(100%,100%,100%);fill-opacity:1;" d="M 78.96875 34.195312 C 78.8125 34.050781 78.828125 33.980469 79.03125 33.847656 C 79.191406 33.742188 79.21875 33.742188 79.386719 33.851562 L 79.570312 33.972656 L 79.40625 34.140625 C 79.226562 34.335938 79.113281 34.351562 78.96875 34.195312 Z M 78.96875 34.195312 "/>
<path style=" stroke:none;fill-rule:nonzero;fill:rgb(100%,100%,100%);fill-opacity:1;" d="M 80.234375 34.257812 C 80.203125 34.238281 80.183594 34.140625 80.183594 34.050781 C 80.183594 33.914062 80.21875 33.886719 80.386719 33.886719 C 80.609375 33.886719 80.6875 34 80.589844 34.1875 C 80.527344 34.308594 80.316406 34.351562 80.234375 34.257812 Z M 80.234375 34.257812 "/>
<path style=" stroke:none;fill-rule:nonzero;fill:rgb(100%,100%,100%);fill-opacity:1;" d="M 81.210938 33.914062 C 81.105469 33.8125 81.167969 33.621094 81.316406 33.578125 C 81.503906 33.53125 81.601562 33.613281 81.566406 33.789062 C 81.546875 33.921875 81.300781 34.007812 81.210938 33.914062 Z M 81.210938 33.914062 "/>
<path style=" stroke:none;fill-rule:nonzero;fill:rgb(100%,100%,100%);fill-opacity:1;" d="M 78.273438 33.347656 C 78.183594 33.265625 78.226562 32.992188 78.339844 32.949219 C 78.546875 32.871094 78.855469 33.160156 78.742188 33.335938 C 78.703125 33.40625 78.34375 33.417969 78.273438 33.347656 Z M 78.273438 33.347656 "/>
<path style=" stroke:none;fill-rule:nonzero;fill:rgb(100%,100%,100%);fill-opacity:1;" d="M 79.636719 33.3125 C 79.4375 33.109375 79.707031 32.835938 79.972656 32.976562 C 80.140625 33.070312 80.148438 33.140625 80.003906 33.285156 C 79.871094 33.417969 79.75 33.425781 79.636719 33.3125 Z M 79.636719 33.3125 "/>
<path style=" stroke:none;fill-rule:nonzero;fill:rgb(100%,100%,100%);fill-opacity:1;" d="M 77.414062 32.871094 C 77.386719 32.808594 77.402344 32.726562 77.445312 32.683594 C 77.554688 32.570312 77.773438 32.648438 77.773438 32.800781 C 77.773438 32.984375 77.476562 33.039062 77.414062 32.871094 Z M 77.414062 32.871094 "/>
<path style=" stroke:none;fill-rule:nonzero;fill:rgb(100%,100%,100%);fill-opacity:1;" d="M 80.601562 32.878906 C 80.476562 32.726562 80.636719 32.542969 80.875 32.570312 C 81.015625 32.585938 81.058594 32.632812 81.058594 32.769531 C 81.058594 32.902344 81.015625 32.949219 80.875 32.964844 C 80.777344 32.976562 80.660156 32.9375 80.601562 32.878906 Z M 80.601562 32.878906 "/>
<path style=" stroke:none;fill-rule:nonzero;fill:rgb(100%,100%,100%);fill-opacity:1;" d="M 79.003906 32.535156 C 78.9375 32.453125 78.9375 32.390625 79.007812 32.25 C 79.101562 32.039062 79.316406 32.027344 79.441406 32.230469 C 79.605469 32.480469 79.199219 32.761719 79.003906 32.535156 Z M 79.003906 32.535156 "/>
<path style=" stroke:none;fill-rule:nonzero;fill:rgb(100%,100%,100%);fill-opacity:1;" d="M 80.101562 32.058594 C 79.835938 31.90625 80.066406 31.507812 80.351562 31.621094 C 80.484375 31.667969 80.5 31.933594 80.378906 32.054688 C 80.28125 32.152344 80.253906 32.152344 80.101562 32.058594 Z M 80.101562 32.058594 "/>
<path style=" stroke:none;fill-rule:nonzero;fill:rgb(100%,100%,100%);fill-opacity:1;" d="M 81.140625 32.09375 C 81.042969 31.992188 81.097656 31.859375 81.238281 31.859375 C 81.335938 31.859375 81.371094 31.890625 81.359375 31.976562 C 81.335938 32.101562 81.21875 32.164062 81.140625 32.09375 Z M 81.140625 32.09375 "/>
<path style=" stroke:none;fill-rule:nonzero;fill:rgb(100%,100%,100%);fill-opacity:1;" d="M 78.316406 31.957031 C 78.253906 31.789062 78.386719 31.613281 78.605469 31.589844 C 78.757812 31.570312 78.785156 31.597656 78.785156 31.730469 C 78.785156 32.03125 78.414062 32.207031 78.316406 31.957031 Z M 78.316406 31.957031 "/>
<path style=" stroke:none;fill-rule:nonzero;fill:rgb(100%,100%,100%);fill-opacity:1;" d="M 77.296875 31.757812 C 77.277344 31.703125 77.296875 31.621094 77.351562 31.578125 C 77.476562 31.472656 77.75 31.605469 77.695312 31.753906 C 77.640625 31.886719 77.34375 31.890625 77.296875 31.757812 Z M 77.296875 31.757812 "/>
<path style=" stroke:none;fill-rule:nonzero;fill:rgb(100%,100%,100%);fill-opacity:1;" d="M 74.828125 31.691406 C 74.78125 31.5625 74.914062 31.296875 75.03125 31.296875 C 75.199219 31.296875 75.304688 31.421875 75.277344 31.585938 C 75.261719 31.710938 75.207031 31.757812 75.058594 31.773438 C 74.941406 31.789062 74.855469 31.757812 74.828125 31.691406 Z M 74.828125 31.691406 "/>
<path style=" stroke:none;fill-rule:nonzero;fill:rgb(100%,100%,100%);fill-opacity:1;" d="M 73.800781 31.550781 C 73.753906 31.421875 73.808594 31.367188 73.996094 31.367188 C 74.082031 31.367188 74.164062 31.386719 74.191406 31.410156 C 74.277344 31.492188 74.152344 31.648438 73.996094 31.648438 C 73.90625 31.648438 73.820312 31.605469 73.800781 31.550781 Z M 73.800781 31.550781 "/>
<path style=" stroke:none;fill-rule:nonzero;fill:rgb(100%,100%,100%);fill-opacity:1;" d="M 75.714844 31.375 C 75.507812 31.242188 75.84375 30.820312 76.085938 30.917969 C 76.242188 30.980469 76.226562 31.277344 76.066406 31.367188 C 75.898438 31.453125 75.84375 31.453125 75.714844 31.375 Z M 75.714844 31.375 "/>
<path style=" stroke:none;fill-rule:nonzero;fill:rgb(100%,100%,100%);fill-opacity:1;" d="M 79.414062 31.332031 C 79.289062 31.183594 79.386719 30.878906 79.554688 30.878906 C 79.667969 30.878906 79.835938 31.058594 79.835938 31.183594 C 79.835938 31.242188 79.617188 31.4375 79.5625 31.4375 C 79.527344 31.4375 79.464844 31.386719 79.414062 31.332031 Z M 79.414062 31.332031 "/>
<path style=" stroke:none;fill-rule:nonzero;fill:rgb(100%,100%,100%);fill-opacity:1;" d="M 76.597656 31.179688 C 76.519531 31.109375 76.542969 30.75 76.617188 30.703125 C 76.738281 30.625 76.96875 30.738281 76.96875 30.871094 C 76.96875 30.941406 76.914062 31.046875 76.84375 31.109375 C 76.703125 31.242188 76.660156 31.25 76.597656 31.179688 Z M 76.597656 31.179688 "/>
<path style=" stroke:none;fill-rule:nonzero;fill:rgb(100%,100%,100%);fill-opacity:1;" d="M 80.636719 31.15625 C 80.609375 31.109375 80.617188 31.046875 80.660156 31.003906 C 80.757812 30.90625 80.972656 30.988281 80.9375 31.109375 C 80.898438 31.21875 80.699219 31.253906 80.636719 31.15625 Z M 80.636719 31.15625 "/>
<path style=" stroke:none;fill-rule:nonzero;fill:rgb(100%,100%,100%);fill-opacity:1;" d="M 77.414062 30.847656 C 77.351562 30.6875 77.410156 30.511719 77.546875 30.429688 C 77.652344 30.367188 77.703125 30.378906 77.808594 30.511719 C 77.917969 30.644531 77.925781 30.703125 77.855469 30.8125 C 77.757812 30.96875 77.472656 30.988281 77.414062 30.847656 Z M 77.414062 30.847656 "/>
<path style=" stroke:none;fill-rule:nonzero;fill:rgb(100%,100%,100%);fill-opacity:1;" d="M 78.527344 30.898438 C 78.414062 30.855469 78.40625 30.652344 78.519531 30.542969 C 78.640625 30.421875 78.890625 30.4375 79.003906 30.570312 C 79.078125 30.667969 79.074219 30.703125 78.933594 30.8125 C 78.773438 30.949219 78.6875 30.96875 78.527344 30.898438 Z M 78.527344 30.898438 "/>
<path style=" stroke:none;fill-rule:nonzero;fill:rgb(100%,100%,100%);fill-opacity:1;" d="M 80.03125 30.589844 C 79.847656 30.484375 79.875 30.324219 80.078125 30.273438 C 80.414062 30.191406 80.5625 30.34375 80.351562 30.554688 C 80.226562 30.6875 80.191406 30.6875 80.03125 30.589844 Z M 80.03125 30.589844 "/>
<path style=" stroke:none;fill-rule:nonzero;fill:rgb(100%,100%,100%);fill-opacity:1;" d="M 74.554688 30.464844 C 74.492188 30.351562 74.578125 30.246094 74.738281 30.246094 C 74.835938 30.246094 74.871094 30.289062 74.855469 30.367188 C 74.828125 30.507812 74.625 30.570312 74.554688 30.464844 Z M 74.554688 30.464844 "/>
<path style=" stroke:none;fill-rule:nonzero;fill:rgb(100%,100%,100%);fill-opacity:1;" d="M 75.429688 30.421875 C 75.296875 30.261719 75.402344 30.105469 75.632812 30.105469 C 75.84375 30.105469 75.949219 30.238281 75.878906 30.421875 C 75.820312 30.554688 75.542969 30.554688 75.429688 30.421875 Z M 75.429688 30.421875 "/>
<path style=" stroke:none;fill-rule:nonzero;fill:rgb(100%,100%,100%);fill-opacity:1;" d="M 76.429688 30.207031 C 76.375 30.050781 76.492188 29.867188 76.679688 29.839844 C 76.863281 29.8125 76.941406 29.972656 76.828125 30.171875 C 76.738281 30.34375 76.492188 30.367188 76.429688 30.207031 Z M 76.429688 30.207031 "/>
<path style=" stroke:none;fill-rule:nonzero;fill:rgb(100%,100%,100%);fill-opacity:1;" d="M 79.09375 30.015625 C 78.898438 29.910156 78.898438 29.910156 78.996094 29.792969 C 79.042969 29.734375 79.15625 29.6875 79.246094 29.6875 C 79.378906 29.6875 79.414062 29.722656 79.414062 29.855469 C 79.414062 30.050781 79.28125 30.121094 79.09375 30.015625 Z M 79.09375 30.015625 "/>
<path style=" stroke:none;fill-rule:nonzero;fill:rgb(100%,100%,100%);fill-opacity:1;" d="M 77.332031 29.882812 C 77.085938 29.636719 77.410156 29.308594 77.710938 29.511719 C 77.90625 29.636719 77.917969 29.707031 77.765625 29.855469 C 77.640625 29.988281 77.449219 30.003906 77.332031 29.882812 Z M 77.332031 29.882812 "/>
<path style=" stroke:none;fill-rule:nonzero;fill:rgb(100%,100%,100%);fill-opacity:1;" d="M 78.242188 29.671875 C 78.042969 29.476562 78.183594 29.097656 78.441406 29.140625 C 78.570312 29.15625 78.617188 29.210938 78.632812 29.359375 C 78.667969 29.679688 78.4375 29.867188 78.242188 29.671875 Z M 78.242188 29.671875 "/>
<path style=" stroke:none;fill-rule:nonzero;fill:rgb(100%,100%,100%);fill-opacity:1;" d="M 75.535156 29.433594 C 75.402344 29.300781 75.402344 29.238281 75.535156 29.125 C 75.683594 29.007812 75.847656 29.09375 75.847656 29.292969 C 75.847656 29.496094 75.683594 29.574219 75.535156 29.433594 Z M 75.535156 29.433594 "/>
<path style=" stroke:none;fill-rule:nonzero;fill:rgb(100%,100%,100%);fill-opacity:1;" d="M 76.480469 29.160156 C 76.375 29.035156 76.410156 28.847656 76.5625 28.75 C 76.660156 28.691406 76.714844 28.707031 76.835938 28.820312 C 76.953125 28.945312 76.96875 28.992188 76.90625 29.121094 C 76.8125 29.289062 76.605469 29.316406 76.480469 29.160156 Z M 76.480469 29.160156 "/>
<path style=" stroke:none;fill-rule:nonzero;fill:rgb(100%,100%,100%);fill-opacity:1;" d="M 78.898438 29.023438 C 78.839844 28.867188 78.925781 28.691406 79.042969 28.734375 C 79.101562 28.753906 79.164062 28.777344 79.175781 28.777344 C 79.191406 28.777344 79.207031 28.855469 79.207031 28.953125 C 79.207031 29.078125 79.171875 29.125 79.074219 29.125 C 79.003906 29.125 78.925781 29.078125 78.898438 29.023438 Z M 78.898438 29.023438 "/>
<path style=" stroke:none;fill-rule:nonzero;fill:rgb(100%,100%,100%);fill-opacity:1;" d="M 77.386719 28.742188 C 77.207031 28.519531 77.511719 28.300781 77.722656 28.511719 C 77.785156 28.574219 77.777344 28.621094 77.6875 28.722656 C 77.546875 28.875 77.5 28.875 77.386719 28.742188 Z M 77.386719 28.742188 "/>
<path style=" stroke:none;fill-rule:nonzero;fill:rgb(100%,100%,100%);fill-opacity:1;" d="M 78.09375 28.414062 C 78.015625 28.214844 78.050781 28.148438 78.226562 28.148438 C 78.367188 28.148438 78.449219 28.300781 78.394531 28.460938 C 78.332031 28.617188 78.164062 28.585938 78.09375 28.414062 Z M 78.09375 28.414062 "/>
<path style=" stroke:none;fill-rule:nonzero;fill:rgb(100%,100%,100%);fill-opacity:1;" d="M 76.730469 28.292969 C 76.675781 28.210938 76.878906 28.054688 76.96875 28.113281 C 77.085938 28.1875 77.046875 28.355469 76.90625 28.355469 C 76.828125 28.355469 76.75 28.328125 76.730469 28.292969 Z M 76.730469 28.292969 "/>
</g>
</svg>
