<?xml version="1.0" encoding="UTF-8"?>
<svg xmlns="http://www.w3.org/2000/svg" xmlns:xlink="http://www.w3.org/1999/xlink" width="152px" height="114px" viewBox="0 0 152 152" version="1.1">
<g id="surface1">
<path style=" stroke:none;fill-rule:nonzero;fill:rgb(0%,0%,0%);fill-opacity:1;" d="M 61.453125 91.289062 C 58.445312 90.796875 56.910156 89.234375 56.503906 86.292969 C 56.445312 85.800781 56.40625 82.007812 56.40625 75.773438 C 56.40625 67.171875 56.425781 65.914062 56.566406 65.136719 C 56.96875 62.914062 58.335938 61.46875 60.613281 60.859375 C 61.613281 60.582031 64.402344 60.476562 65.757812 60.652344 C 68.035156 60.957031 69.578125 61.882812 70.359375 63.414062 C 71.042969 64.761719 71.070312 65.046875 71.132812 69.964844 C 71.152344 72.726562 71.132812 74.476562 71.070312 74.574219 C 70.992188 74.730469 70.734375 74.742188 68.269531 74.742188 C 66.777344 74.742188 65.351562 74.730469 65.09375 74.730469 L 64.621094 74.722656 L 64.621094 70.847656 C 64.621094 68.351562 64.582031 66.875 64.511719 66.679688 C 64.390625 66.34375 64.046875 66.070312 63.738281 66.070312 C 63.628906 66.070312 63.414062 66.179688 63.265625 66.304688 L 62.988281 66.542969 L 62.957031 75.683594 C 62.925781 85.554688 62.925781 85.371094 63.453125 85.761719 C 63.789062 86.007812 64.144531 85.921875 64.441406 85.527344 C 64.628906 85.28125 64.640625 85.074219 64.648438 81.21875 C 64.660156 77.21875 64.660156 77.171875 64.855469 77.121094 C 64.976562 77.101562 66.421875 77.089844 68.082031 77.101562 L 71.101562 77.128906 L 71.101562 81.851562 C 71.101562 86.046875 71.082031 86.636719 70.921875 87.207031 C 70.347656 89.300781 69.023438 90.5625 66.746094 91.152344 C 65.699219 91.417969 62.71875 91.503906 61.453125 91.289062 Z M 61.453125 91.289062 "/>
<path style=" stroke:none;fill-rule:nonzero;fill:rgb(0%,0%,0%);fill-opacity:1;" d="M 115.582031 91.25 C 114.691406 91.050781 113.949219 90.414062 113.652344 89.566406 C 113.566406 89.320312 113.503906 88.800781 113.503906 88.300781 C 113.503906 87.285156 113.753906 86.65625 114.347656 86.136719 C 114.949219 85.617188 115.316406 85.496094 116.375 85.488281 C 117.15625 85.488281 117.394531 85.527344 117.769531 85.703125 C 118.363281 86 118.828125 86.472656 119.085938 87.011719 C 119.332031 87.542969 119.375 88.988281 119.15625 89.605469 C 118.976562 90.128906 118.304688 90.835938 117.78125 91.0625 C 117.304688 91.277344 116.136719 91.378906 115.582031 91.25 Z M 116.96875 90.109375 C 117.207031 89.972656 117.207031 89.972656 117.007812 89.960938 C 116.789062 89.960938 116.671875 89.792969 116.671875 89.480469 C 116.671875 89.390625 116.601562 89.222656 116.523438 89.117188 C 116.394531 88.957031 116.363281 88.949219 116.277344 89.078125 C 116.226562 89.15625 116.175781 89.390625 116.175781 89.597656 C 116.175781 89.941406 116.15625 89.960938 115.859375 89.972656 L 115.535156 89.980469 L 115.832031 90.109375 C 116.214844 90.285156 116.660156 90.285156 116.96875 90.109375 Z M 116.277344 87.011719 C 117.148438 87.011719 117.285156 87.03125 117.472656 87.21875 C 117.652344 87.394531 117.679688 87.523438 117.652344 88.132812 C 117.640625 88.515625 117.640625 89.007812 117.652344 89.222656 L 117.671875 89.617188 L 117.910156 89.339844 C 118.039062 89.195312 118.195312 88.890625 118.253906 88.664062 C 118.363281 88.300781 118.34375 88.210938 118.085938 87.71875 C 117.5625 86.714844 116.554688 86.273438 115.722656 86.695312 C 115.027344 87.050781 114.496094 87.808594 114.496094 88.4375 C 114.496094 88.742188 114.730469 89.234375 115.027344 89.546875 L 115.238281 89.785156 L 115.265625 88.398438 L 115.296875 87.011719 Z M 116.277344 87.011719 "/>
<path style=" stroke:none;fill-rule:nonzero;fill:rgb(0%,0%,0%);fill-opacity:1;" d="M 93.515625 91.09375 C 91.40625 90.648438 89.984375 89.597656 89.371094 88.003906 C 89.210938 87.589844 89.03125 86.960938 88.972656 86.609375 C 88.914062 86.226562 88.855469 81.09375 88.816406 73.433594 L 88.753906 60.886719 L 91.851562 60.839844 C 93.554688 60.808594 95.011719 60.808594 95.078125 60.839844 C 95.167969 60.867188 95.199219 62.816406 95.207031 70.089844 C 95.21875 75.15625 95.246094 80.601562 95.285156 82.195312 C 95.347656 85.015625 95.355469 85.105469 95.574219 85.417969 C 96 86 96.75 85.773438 96.96875 84.976562 C 97.039062 84.742188 97.046875 80.679688 97.007812 72.773438 C 96.96875 64.417969 96.980469 60.917969 97.046875 60.878906 C 97.109375 60.839844 98.550781 60.808594 100.265625 60.808594 L 103.363281 60.808594 L 103.441406 72.164062 C 103.519531 84.277344 103.5 85.890625 103.273438 86.953125 C 102.816406 88.996094 101.53125 90.316406 99.355469 90.953125 C 98.699219 91.140625 98.34375 91.171875 96.386719 91.199219 C 94.773438 91.21875 93.980469 91.191406 93.515625 91.09375 Z M 93.515625 91.09375 "/>
<path style=" stroke:none;fill-rule:nonzero;fill:rgb(0%,0%,0%);fill-opacity:1;" d="M 32.726562 76.089844 C 32.6875 67.859375 32.6875 61.09375 32.714844 61.046875 C 32.746094 60.996094 34.914062 60.957031 37.742188 60.957031 C 43.253906 60.957031 43.957031 61.015625 45.066406 61.546875 C 45.847656 61.910156 46.351562 62.414062 46.71875 63.167969 C 47.292969 64.359375 47.3125 64.652344 47.371094 72.304688 C 47.421875 79.597656 47.382812 80.777344 47.015625 81.976562 C 46.648438 83.15625 46.175781 83.746094 45.175781 84.238281 C 44.285156 84.679688 43.691406 84.769531 41.414062 84.839844 L 39.335938 84.898438 L 39.304688 87.976562 L 39.285156 91.042969 L 32.785156 91.042969 Z M 40.425781 79.34375 C 40.980469 79.136719 40.980469 79.078125 40.949219 72.824219 C 40.929688 68.398438 40.890625 67.054688 40.789062 66.886719 C 40.621094 66.582031 40.167969 66.363281 39.703125 66.363281 L 39.316406 66.363281 L 39.257812 67.847656 C 39.226562 68.675781 39.226562 71.613281 39.257812 74.386719 L 39.316406 79.441406 L 39.742188 79.441406 C 39.96875 79.441406 40.277344 79.402344 40.425781 79.34375 Z M 40.425781 79.34375 "/>
<path style=" stroke:none;fill-rule:nonzero;fill:rgb(0%,0%,0%);fill-opacity:1;" d="M 48.757812 84.828125 C 48.71875 81.417969 48.6875 74.644531 48.6875 69.785156 L 48.6875 60.957031 L 55.21875 60.957031 L 55.199219 75.980469 L 55.167969 90.992188 L 51.992188 91.023438 L 48.816406 91.042969 Z M 48.757812 84.828125 "/>
<path style=" stroke:none;fill-rule:nonzero;fill:rgb(0%,0%,0%);fill-opacity:1;" d="M 72.398438 88.457031 C 72.359375 87.042969 72.339844 80.265625 72.359375 73.394531 L 72.386719 60.90625 L 78.722656 60.90625 L 78.769531 66.265625 L 78.820312 71.625 L 79.445312 69.117188 C 79.789062 67.742188 80.363281 65.421875 80.710938 63.957031 C 81.066406 62.5 81.394531 61.203125 81.441406 61.085938 L 81.542969 60.859375 L 87.777344 60.859375 L 87.777344 61.183594 C 87.785156 61.351562 87.015625 64.546875 86.074219 68.273438 L 84.371094 75.046875 L 86.273438 82.578125 C 87.320312 86.714844 88.171875 90.296875 88.171875 90.53125 L 88.171875 90.945312 L 85.066406 90.945312 C 83.351562 90.945312 81.925781 90.90625 81.898438 90.867188 C 81.867188 90.816406 81.671875 89.972656 81.453125 88.96875 C 80.957031 86.738281 80.105469 82.792969 79.808594 81.417969 C 79.691406 80.847656 79.574219 80.433594 79.542969 80.484375 C 79.511719 80.53125 79.324219 81.230469 79.117188 82.046875 L 78.75 83.519531 L 78.789062 87.167969 C 78.800781 89.183594 78.800781 90.847656 78.769531 90.875 C 78.742188 90.894531 77.316406 90.945312 75.59375 90.984375 L 72.457031 91.042969 Z M 72.398438 88.457031 "/>
<path style=" stroke:none;fill-rule:nonzero;fill:rgb(0%,0%,0%);fill-opacity:1;" d="M 104.835938 90.816406 C 104.816406 90.746094 104.777344 83.964844 104.765625 75.746094 L 104.746094 60.808594 L 109.496094 60.78125 C 114.445312 60.75 115.355469 60.800781 116.523438 61.164062 C 117.800781 61.558594 118.699219 62.636719 119.046875 64.210938 C 119.234375 65.046875 119.324219 79.570312 119.144531 80.71875 C 118.679688 83.847656 117.214844 84.742188 112.546875 84.75 L 111.230469 84.75 L 111.230469 87.789062 C 111.230469 90.460938 111.210938 90.835938 111.070312 90.886719 C 110.980469 90.914062 109.558594 90.945312 107.902344 90.945312 C 105.519531 90.945312 104.875 90.914062 104.835938 90.816406 Z M 112.59375 78.96875 C 112.761719 78.8125 112.921875 78.535156 112.960938 78.351562 C 112.992188 78.164062 113.011719 75.539062 112.992188 72.507812 C 112.960938 67.367188 112.949219 66.972656 112.78125 66.71875 C 112.554688 66.382812 112.058594 66.167969 111.527344 66.167969 L 111.128906 66.167969 L 111.128906 79.246094 L 111.714844 79.246094 C 112.21875 79.246094 112.335938 79.207031 112.59375 78.96875 Z M 112.59375 78.96875 "/>
<path style=" stroke:none;fill-rule:nonzero;fill:rgb(100%,100%,100%);fill-opacity:1;" d="M 0 76 L 0 0 L 152 0 L 152 152 L 0 152 Z M 66.449219 90.855469 C 68.726562 90.265625 70.050781 89.015625 70.625 86.914062 C 70.785156 86.34375 70.804688 85.773438 70.804688 81.851562 L 70.804688 77.425781 L 68.035156 77.40625 C 66.511719 77.40625 65.195312 77.414062 65.113281 77.433594 C 64.984375 77.464844 64.964844 77.945312 64.964844 81.0625 C 64.976562 83.03125 64.945312 84.898438 64.917969 85.203125 C 64.835938 85.949219 64.53125 86.226562 63.816406 86.226562 C 63.175781 86.226562 62.789062 85.882812 62.691406 85.230469 C 62.660156 84.996094 62.640625 80.621094 62.660156 75.527344 L 62.691406 66.246094 L 62.96875 66.019531 C 63.351562 65.6875 63.828125 65.617188 64.273438 65.832031 C 64.90625 66.128906 64.917969 66.179688 64.917969 70.542969 L 64.917969 74.425781 L 65.390625 74.425781 C 69.308594 74.457031 70.695312 74.425781 70.773438 74.300781 C 70.816406 74.21875 70.835938 72.285156 70.816406 69.992188 C 70.773438 65.371094 70.726562 65.019531 70.0625 63.710938 C 69.023438 61.675781 66.757812 60.75 63.136719 60.886719 C 61.472656 60.949219 60.484375 61.171875 59.445312 61.714844 C 58.613281 62.148438 57.753906 63.042969 57.335938 63.90625 C 56.703125 65.214844 56.703125 65.285156 56.714844 75.851562 C 56.714844 81.367188 56.761719 85.683594 56.8125 86.078125 C 57.207031 88.9375 58.78125 90.5 61.75 90.992188 C 62.957031 91.199219 65.402344 91.121094 66.449219 90.855469 Z M 117.511719 90.757812 C 118.019531 90.53125 118.679688 89.8125 118.847656 89.3125 C 119.175781 88.359375 118.917969 87.1875 118.253906 86.539062 C 117.511719 85.832031 116.257812 85.578125 115.375 85.949219 C 114.445312 86.351562 113.800781 87.304688 113.800781 88.300781 C 113.800781 90.304688 115.691406 91.554688 117.511719 90.757812 Z M 99.058594 90.660156 C 101.222656 90.019531 102.519531 88.691406 102.964844 86.65625 C 103.214844 85.566406 103.222656 84.21875 103.144531 72.363281 L 103.066406 61.105469 L 100.246094 61.125 C 98.691406 61.144531 97.386719 61.152344 97.335938 61.152344 C 97.285156 61.152344 97.265625 66.050781 97.285156 73.179688 C 97.316406 83.078125 97.304688 85.25 97.195312 85.507812 C 96.898438 86.207031 95.722656 86.324219 95.277344 85.703125 C 95.058594 85.398438 95.050781 85.28125 95 82.980469 C 94.96875 81.652344 94.929688 76.214844 94.921875 70.886719 C 94.902344 63.5625 94.871094 61.191406 94.78125 61.144531 C 94.714844 61.105469 94.503906 61.085938 94.308594 61.105469 C 94.121094 61.125 92.851562 61.144531 91.507812 61.144531 L 89.050781 61.152344 L 89.113281 73.425781 C 89.152344 80.886719 89.210938 85.929688 89.269531 86.3125 C 89.597656 88.378906 90.785156 89.8125 92.742188 90.511719 C 93.714844 90.855469 94.417969 90.933594 96.386719 90.90625 C 98.027344 90.875 98.425781 90.835938 99.058594 90.660156 Z M 39.007812 87.679688 L 39.039062 84.601562 L 41.117188 84.542969 C 43.394531 84.476562 43.988281 84.386719 44.878906 83.945312 C 45.878906 83.453125 46.351562 82.863281 46.71875 81.683594 C 47.074219 80.484375 47.125 79.363281 47.066406 72.402344 C 47.003906 65.078125 46.976562 64.613281 46.421875 63.464844 C 46.054688 62.707031 45.550781 62.207031 44.769531 61.84375 C 43.671875 61.3125 42.929688 61.253906 37.742188 61.253906 C 35.167969 61.253906 33.042969 61.292969 33.011719 61.339844 C 32.984375 61.390625 32.984375 68.027344 33.023438 76.089844 L 33.082031 90.746094 L 38.988281 90.746094 Z M 54.902344 75.980469 L 54.921875 61.253906 L 48.984375 61.253906 L 48.984375 69.785156 C 48.984375 74.484375 49.015625 81.121094 49.054688 84.535156 L 49.113281 90.746094 L 51.992188 90.726562 L 54.871094 90.699219 Z M 78.472656 90.582031 C 78.503906 90.550781 78.503906 88.890625 78.484375 86.882812 L 78.453125 83.226562 L 78.871094 81.605469 C 79.097656 80.710938 79.335938 79.785156 79.382812 79.539062 C 79.445312 79.292969 79.511719 79.058594 79.550781 79.019531 C 79.59375 78.980469 79.699219 79.285156 79.800781 79.707031 C 79.890625 80.128906 80.167969 81.359375 80.402344 82.441406 C 80.640625 83.519531 80.976562 85.066406 81.144531 85.882812 C 81.609375 88.132812 82.136719 90.480469 82.195312 90.570312 C 82.222656 90.609375 83.511719 90.648438 85.066406 90.648438 C 87.488281 90.648438 87.875 90.628906 87.875 90.5 C 87.875 90.421875 87.003906 86.914062 85.933594 82.695312 L 83.996094 75.046875 L 85.738281 68.152344 C 86.699219 64.367188 87.480469 61.242188 87.480469 61.214844 C 87.480469 61.183594 86.210938 61.152344 84.660156 61.152344 L 81.839844 61.152344 L 81.738281 61.378906 C 81.691406 61.5 81.441406 62.460938 81.195312 63.511719 C 80.9375 64.566406 80.335938 67.023438 79.847656 68.980469 C 79.363281 70.925781 78.96875 72.570312 78.96875 72.636719 C 78.96875 72.695312 78.917969 72.863281 78.871094 73 C 78.78125 73.226562 78.742188 73.246094 78.621094 73.148438 C 78.492188 73.039062 78.472656 72.183594 78.453125 67.113281 L 78.425781 61.203125 L 72.683594 61.203125 L 72.65625 73.394531 C 72.636719 80.101562 72.65625 86.746094 72.695312 88.160156 L 72.753906 90.726562 L 75.59375 90.679688 C 77.148438 90.648438 78.445312 90.601562 78.472656 90.582031 Z M 110.804688 90.582031 C 110.902344 90.542969 110.933594 89.851562 110.933594 87.492188 L 110.933594 84.457031 L 112.25 84.457031 C 116.917969 84.445312 118.382812 83.550781 118.847656 80.425781 C 119.027344 79.273438 118.9375 65.34375 118.75 64.507812 C 118.402344 62.933594 117.503906 61.851562 116.226562 61.457031 C 115.070312 61.09375 114.136719 61.046875 109.496094 61.074219 L 105.042969 61.105469 L 105.0625 75.753906 C 105.074219 83.804688 105.113281 90.453125 105.144531 90.523438 C 105.171875 90.628906 105.757812 90.648438 107.933594 90.640625 C 109.449219 90.628906 110.734375 90.601562 110.804688 90.582031 Z M 110.804688 90.582031 "/>
<path style=" stroke:none;fill-rule:nonzero;fill:rgb(100%,100%,100%);fill-opacity:1;" d="M 115.535156 90.414062 C 114.703125 90.050781 114.199219 89.3125 114.199219 88.4375 C 114.199219 86.046875 117.324219 85.300781 118.402344 87.433594 C 118.808594 88.25 118.699219 89.105469 118.085938 89.773438 C 117.582031 90.335938 117.097656 90.550781 116.40625 90.550781 C 116.089844 90.542969 115.703125 90.480469 115.535156 90.414062 Z M 115.878906 89.332031 C 115.878906 88.78125 115.960938 88.683594 116.386719 88.683594 C 116.800781 88.683594 116.878906 88.78125 117.007812 89.402344 C 117.046875 89.558594 117.136719 89.667969 117.226562 89.667969 C 117.363281 89.667969 117.375 89.597656 117.304688 89.203125 C 117.226562 88.683594 117.226562 88.488281 117.316406 88.023438 C 117.375 87.789062 117.335938 87.671875 117.175781 87.511719 C 117.007812 87.347656 116.851562 87.304688 116.277344 87.304688 L 115.582031 87.304688 L 115.582031 88.417969 C 115.582031 89.035156 115.613281 89.566406 115.652344 89.597656 C 115.800781 89.746094 115.878906 89.648438 115.878906 89.332031 Z M 115.878906 89.332031 "/>
<path style=" stroke:none;fill-rule:nonzero;fill:rgb(100%,100%,100%);fill-opacity:1;" d="M 116 88.300781 C 115.917969 88.261719 115.878906 88.113281 115.898438 87.984375 C 115.929688 87.769531 115.980469 87.75 116.425781 87.75 C 116.820312 87.75 116.917969 87.777344 116.949219 87.9375 C 116.96875 88.035156 116.949219 88.152344 116.898438 88.191406 C 116.769531 88.308594 116.136719 88.386719 116 88.300781 Z M 116 88.300781 "/>
<path style=" stroke:none;fill-rule:nonzero;fill:rgb(100%,100%,100%);fill-opacity:1;" d="M 38.96875 76.078125 C 38.929688 70.820312 38.929688 66.550781 38.980469 66.296875 C 39.007812 66.089844 39.070312 66.070312 39.703125 66.070312 C 40.453125 66.070312 40.890625 66.226562 41.085938 66.589844 C 41.1875 66.757812 41.226562 68.152344 41.246094 72.824219 C 41.277344 79.402344 41.277344 79.429688 40.722656 79.636719 C 40.574219 79.695312 40.128906 79.734375 39.722656 79.734375 L 38.988281 79.734375 Z M 38.96875 76.078125 "/>
<path style=" stroke:none;fill-rule:nonzero;fill:rgb(100%,100%,100%);fill-opacity:1;" d="M 110.832031 72.707031 L 110.832031 65.875 L 111.527344 65.875 C 112.347656 65.875 112.824219 66.039062 113.078125 66.421875 C 113.246094 66.679688 113.257812 67.074219 113.289062 72.507812 C 113.308594 75.695312 113.289062 78.457031 113.257812 78.644531 C 113.21875 78.832031 113.058594 79.105469 112.890625 79.265625 C 112.613281 79.519531 112.546875 79.539062 111.714844 79.539062 L 110.832031 79.539062 Z M 110.832031 72.707031 "/>
</g>
</svg>
