<?xml version="1.0" encoding="UTF-8"?>
<svg xmlns="http://www.w3.org/2000/svg" xmlns:xlink="http://www.w3.org/1999/xlink" width="152px" height="114px" viewBox="0 0 152 152" version="1.1">
<g id="surface1">
<path style=" stroke:none;fill-rule:nonzero;fill:rgb(42.745098%,10.980392%,15.686275%);fill-opacity:1;" d="M 0 76 L 0 0 L 152 0 L 152 152 L 146.109375 152 C 140.753906 152 140.21875 151.960938 140.21875 151.675781 C 140.21875 151.164062 139.347656 150.195312 138.546875 149.835938 C 137.789062 149.492188 137.769531 149.492188 136.972656 149.929688 C 136.210938 150.347656 135.832031 150.820312 135.585938 151.675781 C 135.488281 151.980469 132.089844 152 67.734375 152 L 0 152 Z M 116.753906 82.230469 C 116.8125 58.160156 116.886719 34.351562 116.945312 29.316406 L 117.039062 20.160156 L 116.621094 20.027344 C 116.375 19.949219 116.128906 19.816406 116.050781 19.703125 C 115.898438 19.457031 107.84375 19.511719 107.769531 19.761719 C 107.671875 20.027344 104.9375 20.007812 104.84375 19.742188 C 104.746094 19.4375 90.78125 19.398438 90.6875 19.722656 C 90.609375 19.894531 84.644531 19.949219 61.636719 19.949219 L 32.679688 19.949219 L 32.679688 125.96875 L 116.660156 125.96875 Z M 116.753906 82.230469 "/>
<path style=" stroke:none;fill-rule:nonzero;fill:rgb(42.745098%,10.980392%,15.686275%);fill-opacity:1;" d="M 57.246094 120.726562 C 55.101562 119.929688 54.207031 116.90625 55.441406 114.550781 C 56.125 113.222656 56.828125 112.820312 58.632812 112.707031 C 60.269531 112.613281 61.523438 112.972656 62.109375 113.734375 L 62.492188 114.210938 L 62.699219 113.808594 C 63.0625 113.144531 64.335938 112.671875 65.835938 112.671875 C 67.46875 112.671875 68.515625 113.105469 69.253906 114.09375 C 69.730469 114.703125 69.804688 115.007812 69.882812 116.375 C 69.976562 118.3125 69.75 119.09375 68.78125 119.964844 C 67.222656 121.371094 64.335938 121.371094 62.871094 119.964844 C 62.453125 119.566406 62.320312 119.527344 62.207031 119.738281 C 62.109375 119.890625 61.75 120.195312 61.40625 120.441406 C 60.589844 121.011719 58.40625 121.164062 57.246094 120.726562 Z M 59.945312 118.371094 C 60.269531 118.160156 60.800781 117.988281 61.140625 117.988281 L 61.75 117.988281 L 61.75 115.710938 L 61.160156 115.710938 C 60.839844 115.710938 60.34375 115.558594 60.078125 115.367188 C 59.242188 114.777344 58.957031 114.761719 58.292969 115.195312 C 57.550781 115.710938 57.113281 116.507812 57.285156 117.058594 C 57.492188 117.703125 58.539062 118.75 58.976562 118.75 C 59.183594 118.75 59.640625 118.578125 59.945312 118.371094 Z M 66.992188 118.066406 C 67.375 117.667969 67.640625 117.191406 67.640625 116.90625 C 67.640625 116.222656 67.089844 115.386719 66.425781 115.0625 C 65.929688 114.835938 65.777344 114.816406 65.339844 115.0625 C 64.695312 115.386719 64.03125 116.222656 64.03125 116.699219 C 64.03125 117.570312 65.09375 118.75 65.910156 118.75 C 66.175781 118.75 66.613281 118.484375 66.992188 118.066406 Z M 66.992188 118.066406 "/>
<path style=" stroke:none;fill-rule:nonzero;fill:rgb(42.745098%,10.980392%,15.686275%);fill-opacity:1;" d="M 70.242188 120.707031 C 70.054688 120.535156 70.070312 113.089844 70.261719 112.992188 C 70.527344 112.820312 80.3125 112.707031 85.878906 112.820312 C 87.398438 112.859375 90.097656 112.898438 91.863281 112.917969 L 95.09375 112.953125 L 95.152344 113.675781 C 95.246094 114.835938 95.039062 114.949219 92.871094 114.949219 C 91.179688 114.949219 90.992188 114.988281 91.046875 115.292969 C 91.105469 115.558594 91.371094 115.613281 92.71875 115.671875 C 93.59375 115.710938 94.429688 115.824219 94.5625 115.9375 C 94.828125 116.148438 94.886719 117.191406 94.65625 117.554688 C 94.5625 117.703125 93.878906 117.800781 92.816406 117.839844 C 91.257812 117.894531 91.105469 117.933594 91.105469 118.273438 C 91.105469 118.617188 91.257812 118.65625 93.101562 118.75 L 95.09375 118.84375 L 95.09375 120.746094 L 92.113281 120.800781 C 89.832031 120.839844 89.109375 120.800781 89.109375 120.613281 C 89.109375 120.441406 89.054688 120.441406 88.882812 120.613281 C 88.730469 120.765625 87.761719 120.839844 85.746094 120.839844 L 82.839844 120.839844 L 82.648438 120.347656 C 82.535156 120.078125 82.460938 118.710938 82.460938 117.285156 C 82.460938 115.027344 82.421875 114.742188 82.15625 114.835938 C 81.984375 114.894531 81.09375 114.949219 80.140625 114.949219 C 78.488281 114.949219 78.449219 114.96875 78.507812 115.386719 C 78.566406 115.785156 78.679688 115.804688 80.371094 115.898438 L 82.175781 115.996094 L 82.230469 116.71875 C 82.328125 117.839844 82.097656 117.988281 80.160156 117.988281 L 78.46875 117.988281 L 78.46875 120.859375 L 77.480469 120.800781 L 76.476562 120.746094 L 76.417969 117.722656 C 76.359375 114.722656 76.359375 114.722656 75.941406 114.835938 C 75.714844 114.894531 74.820312 114.949219 73.96875 114.949219 C 72.429688 114.949219 72.390625 114.949219 72.390625 115.425781 C 72.390625 115.882812 72.429688 115.882812 74.15625 115.9375 L 75.90625 115.996094 L 75.960938 116.753906 C 76.058594 117.78125 75.714844 117.988281 73.871094 117.988281 L 72.390625 117.988281 L 72.390625 119.109375 C 72.390625 120.726562 72.3125 120.839844 71.269531 120.839844 C 70.773438 120.839844 70.300781 120.78125 70.242188 120.707031 Z M 88.921875 116.753906 C 88.921875 114.644531 88.902344 114.570312 88.558594 114.761719 C 88.351562 114.855469 87.398438 114.949219 86.449219 114.949219 C 84.890625 114.949219 84.722656 114.988281 84.777344 115.292969 C 84.835938 115.558594 85.082031 115.613281 86.164062 115.671875 C 88.332031 115.746094 88.386719 115.765625 88.3125 116.8125 L 88.253906 117.703125 L 86.546875 117.800781 C 84.988281 117.894531 84.835938 117.933594 84.835938 118.273438 C 84.835938 118.617188 85.007812 118.65625 86.828125 118.769531 C 87.933594 118.824219 88.84375 118.882812 88.882812 118.902344 C 88.902344 118.921875 88.921875 117.953125 88.921875 116.753906 Z M 88.921875 116.753906 "/>
<path style=" stroke:none;fill-rule:nonzero;fill:rgb(42.745098%,10.980392%,15.686275%);fill-opacity:1;" d="M 48.90625 119.566406 C 48.296875 119.453125 47.859375 118.863281 47.746094 118.007812 C 47.480469 115.976562 48.277344 115.046875 50.160156 115.214844 C 51.585938 115.347656 52.058594 115.882812 52.058594 117.34375 C 52.058594 117.933594 51.964844 118.558594 51.851562 118.789062 C 51.472656 119.472656 50.199219 119.8125 48.90625 119.566406 Z M 48.90625 119.566406 "/>
<path style=" stroke:none;fill-rule:nonzero;fill:rgb(42.745098%,10.980392%,15.686275%);fill-opacity:1;" d="M 99.597656 119.566406 C 98.839844 119.414062 98.382812 118.445312 98.476562 117.152344 C 98.570312 115.632812 98.953125 115.328125 100.699219 115.328125 C 101.878906 115.328125 102.050781 115.367188 102.390625 115.824219 C 102.695312 116.203125 102.789062 116.601562 102.789062 117.4375 C 102.789062 118.941406 102.296875 119.527344 100.964844 119.605469 C 100.453125 119.644531 99.84375 119.625 99.597656 119.566406 Z M 99.597656 119.566406 "/>
<path style=" stroke:none;fill-rule:nonzero;fill:rgb(42.745098%,10.980392%,15.686275%);fill-opacity:1;" d="M 78.851562 108.640625 C 78.585938 108.488281 77.179688 106.835938 75.714844 104.9375 L 73.054688 101.480469 L 71.117188 101.460938 L 69.160156 101.460938 L 69.160156 104.652344 C 69.160156 108.605469 69.121094 108.679688 67.375 108.679688 C 66.441406 108.679688 66.101562 108.605469 65.855469 108.320312 C 65.453125 107.882812 65.1875 105.449219 65.53125 105.449219 C 65.722656 105.449219 65.757812 103.625 65.722656 97.316406 C 65.683594 91.65625 65.738281 89.070312 65.890625 88.824219 C 66.082031 88.464844 66.308594 88.445312 71.191406 88.445312 C 76.796875 88.464844 77.539062 88.578125 79.285156 89.679688 C 81.128906 90.839844 81.796875 92.398438 81.660156 95.324219 C 81.605469 96.917969 81.527344 97.316406 81.09375 98.039062 C 80.464844 99.105469 79.953125 99.597656 78.734375 100.261719 L 77.765625 100.796875 L 79.742188 103.320312 C 81.660156 105.8125 81.699219 105.886719 81.699219 106.875 C 81.699219 108.203125 81.300781 108.679688 80.179688 108.792969 C 79.6875 108.851562 79.136719 108.773438 78.851562 108.640625 Z M 75.925781 97.375 C 76.894531 96.9375 77.898438 95.910156 77.898438 95.324219 C 77.898438 95.152344 77.996094 94.960938 78.089844 94.90625 C 78.203125 94.828125 78.164062 94.675781 77.996094 94.507812 C 77.84375 94.335938 77.710938 94.105469 77.710938 93.972656 C 77.710938 93.820312 77.578125 93.59375 77.40625 93.460938 C 77.234375 93.328125 77.027344 93.023438 76.929688 92.777344 C 76.816406 92.453125 76.628906 92.339844 76.210938 92.339844 C 75.183594 92.339844 74.519531 92.113281 74.421875 91.75 C 74.328125 91.410156 74.15625 91.390625 71.78125 91.429688 L 69.253906 91.484375 L 69.199219 94.65625 L 69.160156 97.832031 L 70.433594 97.90625 C 72.863281 98.039062 74.898438 97.832031 75.925781 97.375 Z M 75.925781 97.375 "/>
<path style=" stroke:none;fill-rule:nonzero;fill:rgb(42.745098%,10.980392%,15.686275%);fill-opacity:1;" d="M 84.152344 108.757812 C 83.601562 108.585938 83.164062 107.558594 83.277344 106.703125 C 83.335938 106.285156 84.492188 103.53125 85.84375 100.605469 C 87.191406 97.679688 88.484375 94.828125 88.730469 94.296875 C 88.957031 93.746094 89.222656 93.289062 89.28125 93.289062 C 89.488281 93.289062 90.15625 91.960938 90.421875 91.011719 C 90.914062 89.242188 91.3125 88.597656 92.074219 88.351562 C 92.929688 88.066406 94.335938 88.199219 94.789062 88.617188 C 94.980469 88.785156 95.796875 90.402344 96.613281 92.207031 C 98.078125 95.4375 99.351562 98.210938 101.648438 103.171875 C 103 106.058594 103.265625 107.351562 102.695312 108.222656 C 102.390625 108.699219 102.316406 108.71875 101.117188 108.621094 C 100.128906 108.546875 99.808594 108.433594 99.558594 108.109375 C 99.140625 107.558594 97.699219 104.140625 97.621094 103.550781 L 97.566406 103.074219 L 93.347656 103.019531 C 89.261719 102.980469 89.109375 102.980469 89.109375 103.339844 C 89.109375 103.550781 89.015625 103.738281 88.921875 103.777344 C 88.804688 103.816406 88.253906 104.859375 87.664062 106.113281 C 87.097656 107.367188 86.5625 108.453125 86.46875 108.546875 C 86.296875 108.71875 84.570312 108.890625 84.152344 108.757812 Z M 95.949219 99.960938 C 95.949219 99.84375 95.875 99.710938 95.761719 99.65625 C 95.664062 99.597656 95.570312 99.351562 95.570312 99.105469 C 95.570312 98.855469 95.398438 98.476562 95.191406 98.230469 C 94.980469 97.984375 94.808594 97.585938 94.808594 97.335938 C 94.808594 97.109375 94.734375 96.898438 94.621094 96.898438 C 94.523438 96.898438 94.429688 96.730469 94.429688 96.519531 C 94.429688 96.121094 93.746094 94.601562 93.480469 94.429688 C 93.402344 94.371094 93.308594 94.222656 93.269531 94.070312 C 93.195312 93.859375 90.441406 99.617188 90.441406 99.996094 C 90.441406 100.074219 91.675781 100.128906 93.195312 100.128906 C 94.789062 100.128906 95.949219 100.054688 95.949219 99.960938 Z M 95.949219 99.960938 "/>
<path style=" stroke:none;fill-rule:nonzero;fill:rgb(42.745098%,10.980392%,15.686275%);fill-opacity:1;" d="M 48.527344 108.488281 C 48.296875 108.414062 48.050781 108.167969 47.957031 107.976562 C 47.859375 107.785156 47.765625 103.605469 47.726562 98.667969 C 47.671875 88.691406 47.671875 88.710938 48.847656 88.464844 C 49.648438 88.3125 60.457031 88.351562 61.558594 88.503906 C 62.359375 88.636719 62.414062 88.671875 62.472656 89.28125 C 62.511719 89.640625 62.472656 89.984375 62.378906 90.039062 C 62.300781 90.097656 62.128906 90.421875 62.035156 90.726562 C 61.84375 91.277344 61.789062 91.296875 60.324219 91.445312 C 59.488281 91.523438 58.785156 91.675781 58.746094 91.769531 C 58.710938 91.882812 57.210938 91.960938 55.082031 91.960938 L 51.488281 91.960938 L 51.488281 96.710938 L 56.050781 96.710938 C 59.867188 96.710938 60.609375 96.746094 60.609375 96.976562 C 60.609375 97.128906 60.800781 97.28125 61.046875 97.316406 C 61.425781 97.375 61.464844 97.46875 61.464844 98.609375 C 61.464844 100.339844 61.539062 100.320312 56.011719 100.320312 L 51.488281 100.320312 L 51.488281 105.070312 L 56.773438 105.070312 C 63.078125 105.070312 62.890625 105.011719 62.890625 106.875 C 62.890625 108.773438 63.230469 108.679688 55.480469 108.660156 C 51.871094 108.660156 48.753906 108.585938 48.527344 108.488281 Z M 48.527344 108.488281 "/>
<path style=" stroke:none;fill-rule:nonzero;fill:rgb(42.745098%,10.980392%,15.686275%);fill-opacity:1;" d="M 73.398438 84.910156 C 73.167969 84.796875 72.960938 84.53125 72.902344 84.339844 C 72.847656 84.132812 72.675781 83.980469 72.523438 83.980469 C 72.296875 83.980469 68.949219 78.488281 67.867188 76.34375 C 67.734375 76.058594 67.546875 75.773438 67.429688 75.714844 C 67.335938 75.640625 67.261719 75.390625 67.261719 75.125 C 67.261719 74.878906 67.144531 74.671875 67.011719 74.671875 C 66.878906 74.671875 66.480469 74.117188 66.140625 73.433594 C 65.777344 72.75 65.417969 72.144531 65.339844 72.085938 C 65.246094 72.027344 65.171875 71.820312 65.171875 71.609375 C 65.171875 71.421875 65.09375 71.25 65 71.25 C 64.921875 71.25 63.613281 69.140625 62.128906 66.558594 C 60.628906 63.953125 58.480469 60.25 57.34375 58.292969 C 55.652344 55.367188 55.289062 54.605469 55.289062 53.960938 L 55.289062 53.179688 L 57.609375 53.238281 L 59.925781 53.296875 L 60.800781 54.816406 C 61.292969 55.652344 62.359375 57.492188 63.175781 58.898438 C 63.992188 60.304688 65.988281 63.746094 67.601562 66.558594 L 70.527344 71.628906 L 74.804688 71.59375 L 79.097656 71.535156 L 83.542969 63.746094 L 85.957031 63.6875 L 88.351562 63.632812 L 88.351562 64.335938 C 88.351562 65.074219 88.445312 64.902344 81.1875 77.40625 C 78.792969 81.527344 77.027344 84.378906 76.703125 84.605469 C 76.09375 85.0625 74.082031 85.253906 73.398438 84.910156 Z M 75.695312 77.40625 C 76.074219 76.722656 76.34375 76.074219 76.285156 75.980469 C 76.210938 75.886719 75.449219 75.808594 74.574219 75.808594 L 72.980469 75.808594 L 73.851562 77.3125 C 74.347656 78.148438 74.804688 78.792969 74.878906 78.734375 C 74.953125 78.699219 75.316406 78.089844 75.695312 77.40625 Z M 75.695312 77.40625 "/>
<path style=" stroke:none;fill-rule:nonzero;fill:rgb(42.745098%,10.980392%,15.686275%);fill-opacity:1;" d="M 74.726562 62.1875 C 74.535156 62.128906 74.480469 61.066406 74.480469 57.816406 L 74.480469 53.523438 L 73.378906 55.308594 C 72.769531 56.296875 71.59375 58.179688 70.792969 59.527344 C 69.351562 61.902344 69.292969 61.941406 68.628906 61.941406 C 68.246094 61.941406 67.582031 61.730469 67.089844 61.445312 C 64.867188 60.152344 64.847656 60.269531 68.589844 54.148438 C 71.839844 48.828125 72.902344 47.007812 72.828125 46.890625 C 72.789062 46.796875 67.792969 46.738281 61.730469 46.738281 C 51.414062 46.738281 50.710938 46.722656 50.597656 46.417969 C 50.519531 46.226562 50.21875 45.714844 49.933594 45.296875 C 49.589844 44.78125 49.398438 44.25 49.398438 43.8125 L 49.398438 43.128906 L 72.960938 43.128906 C 98.363281 43.128906 97.394531 43.09375 98.117188 44.097656 C 98.515625 44.667969 98.535156 45.789062 98.136719 45.789062 C 97.945312 45.789062 97.851562 45.980469 97.851562 46.359375 C 97.851562 46.683594 97.679688 47.273438 97.46875 47.691406 C 97.261719 48.109375 97.089844 48.640625 97.089844 48.90625 C 97.089844 49.152344 96.957031 49.496094 96.804688 49.648438 C 96.652344 49.800781 96.425781 50.273438 96.292969 50.710938 C 96.160156 51.148438 95.929688 51.488281 95.816406 51.488281 C 95.683594 51.488281 95.570312 51.621094 95.570312 51.773438 C 95.570312 51.925781 95.492188 52.058594 95.417969 52.058594 C 95.246094 52.058594 94.808594 53.179688 94.808594 53.65625 C 94.808594 53.828125 94.675781 54.015625 94.523438 54.074219 C 94.371094 54.148438 94.238281 54.359375 94.238281 54.550781 C 94.238281 54.738281 94.125 54.910156 93.972656 54.910156 C 93.839844 54.910156 93.613281 55.175781 93.480469 55.480469 C 93.347656 55.804688 93.195312 56.050781 93.117188 56.050781 C 93.042969 56.050781 92.871094 56.355469 92.738281 56.714844 C 92.605469 57.074219 92.433594 57.378906 92.320312 57.378906 C 92.226562 57.378906 92.09375 57.722656 92.035156 58.140625 C 91.960938 58.558594 91.808594 58.898438 91.675781 58.898438 C 91.410156 58.898438 91.199219 59.316406 91.199219 59.832031 C 91.199219 60.019531 90.992188 60.402344 90.726562 60.6875 C 90.460938 60.972656 90.25 61.273438 90.25 61.390625 C 90.25 61.484375 90.117188 61.558594 89.964844 61.558594 C 89.8125 61.558594 89.679688 61.691406 89.679688 61.84375 C 89.679688 62.035156 89.472656 62.128906 89.015625 62.128906 C 88.558594 62.128906 88.351562 62.035156 88.351562 61.84375 C 88.351562 61.597656 87.550781 61.558594 82.269531 61.558594 C 76.324219 61.558594 76.191406 61.558594 76.191406 61.941406 C 76.191406 62.242188 76.074219 62.320312 75.582031 62.300781 C 75.238281 62.300781 74.839844 62.242188 74.726562 62.1875 Z M 87.058594 57.816406 C 87.210938 57.628906 87.96875 56.371094 88.730469 55.003906 C 89.507812 53.65625 90.191406 52.515625 90.289062 52.476562 C 90.363281 52.441406 90.441406 52.289062 90.441406 52.136719 C 90.441406 51.984375 90.609375 51.71875 90.820312 51.546875 C 91.027344 51.355469 91.199219 51.089844 91.199219 50.921875 C 91.21875 50.769531 91.714844 49.78125 92.320312 48.734375 L 93.441406 46.835938 L 92.09375 46.738281 C 91.351562 46.683594 88.085938 46.683594 84.835938 46.738281 L 78.945312 46.835938 L 78.851562 47.59375 C 78.792969 48.011719 78.773438 50.558594 78.8125 53.257812 L 78.867188 58.140625 L 82.820312 58.140625 C 86.355469 58.140625 86.8125 58.101562 87.058594 57.816406 Z M 87.058594 57.816406 "/>
<path style=" stroke:none;fill-rule:nonzero;fill:rgb(42.745098%,10.980392%,15.686275%);fill-opacity:1;" d="M 47.273438 40.8125 C 46.796875 40.050781 45.144531 37.238281 43.585938 34.578125 L 40.753906 29.734375 L 40.753906 28.386719 C 40.753906 27.113281 40.792969 27.019531 41.457031 26.296875 L 42.160156 25.554688 L 74.421875 25.496094 C 105.050781 25.441406 106.722656 25.460938 107.351562 25.78125 C 108.300781 26.257812 108.679688 26.753906 108.679688 27.472656 C 108.679688 27.871094 108.566406 28.175781 108.355469 28.289062 C 108.167969 28.40625 108.128906 28.5 108.261719 28.5 C 108.527344 28.5 108.585938 29.828125 108.300781 29.828125 C 108.203125 29.828125 108.109375 30.097656 108.109375 30.398438 C 108.109375 30.722656 108.035156 30.96875 107.921875 30.96875 C 107.824219 30.96875 107.730469 31.101562 107.730469 31.253906 C 107.730469 31.40625 107.652344 31.539062 107.558594 31.539062 C 107.464844 31.539062 107.351562 31.730469 107.273438 31.976562 C 107.140625 32.507812 104.328125 37.316406 104.101562 37.390625 C 104.007812 37.429688 103.929688 37.621094 103.929688 37.828125 C 103.929688 38.019531 103.855469 38.191406 103.738281 38.191406 C 103.644531 38.191406 103.550781 38.324219 103.550781 38.476562 C 103.550781 38.628906 103.378906 38.835938 103.171875 38.949219 C 102.960938 39.0625 102.789062 39.273438 102.789062 39.425781 C 102.789062 40.050781 102.125 41.039062 101.707031 41.039062 C 101.347656 41.039062 101.269531 41.152344 101.269531 41.609375 L 101.269531 42.179688 L 96.898438 42.179688 L 96.898438 41.457031 C 96.898438 40.90625 97.164062 40.28125 97.90625 39.027344 C 99.558594 36.269531 103.171875 30.039062 103.171875 29.925781 C 103.171875 29.867188 97.242188 29.847656 90.023438 29.867188 L 76.855469 29.925781 L 76.796875 36.0625 L 76.761719 42.179688 L 72.542969 42.179688 L 72.675781 41.382812 C 72.902344 39.996094 72.996094 31.730469 72.769531 31.730469 C 72.675781 31.730469 72.578125 31.3125 72.578125 30.78125 L 72.578125 29.828125 L 59.46875 29.828125 C 52.269531 29.828125 46.359375 29.867188 46.359375 29.925781 C 46.359375 29.980469 47.765625 32.433594 49.496094 35.398438 C 52.023438 39.730469 52.628906 40.90625 52.628906 41.476562 L 52.628906 42.179688 L 48.109375 42.179688 Z M 47.273438 40.8125 "/>
<path style=" stroke:none;fill-rule:nonzero;fill:rgb(100%,100%,100%);fill-opacity:1;" d="M 32.109375 72.960938 L 32.109375 19.378906 L 61.066406 19.378906 C 84.074219 19.378906 90.039062 19.324219 90.117188 19.152344 C 90.210938 18.828125 105.316406 18.867188 105.410156 19.171875 C 105.507812 19.476562 106.78125 19.4375 106.78125 19.152344 C 106.78125 18.960938 106.835938 18.980469 106.949219 19.171875 C 107.046875 19.324219 107.140625 19.34375 107.179688 19.226562 C 107.234375 19.09375 108.851562 19 111.871094 18.960938 C 115.804688 18.90625 116.507812 18.941406 116.660156 19.191406 C 116.832031 19.4375 116.867188 19.4375 117.039062 19.191406 C 117.191406 18.941406 117.230469 18.960938 117.230469 19.246094 C 117.230469 19.417969 117.324219 19.570312 117.421875 19.570312 C 117.554688 19.570312 117.589844 22.761719 117.515625 29.316406 C 117.457031 34.65625 117.382812 58.730469 117.324219 82.800781 L 117.230469 126.539062 L 32.109375 126.539062 Z M 60.914062 119.832031 C 61.636719 119.359375 61.863281 118.976562 61.558594 118.675781 C 61.40625 118.523438 61.140625 118.578125 60.609375 118.902344 C 59.507812 119.527344 58.179688 119.492188 57.53125 118.808594 C 56.847656 118.046875 56.621094 117.554688 56.621094 116.71875 C 56.621094 115.765625 56.960938 115.160156 57.761719 114.609375 C 58.578125 114.058594 59.699219 114.113281 60.609375 114.761719 C 61.21875 115.195312 61.238281 115.195312 61.503906 114.835938 C 61.75 114.511719 61.710938 114.4375 61.273438 114.058594 C 60.230469 113.144531 58.328125 113.03125 57.074219 113.789062 C 56.410156 114.191406 55.480469 115.882812 55.480469 116.640625 C 55.480469 119.527344 58.578125 121.351562 60.914062 119.832031 Z M 66.746094 120.25 C 67.695312 119.984375 68.894531 118.902344 69.179688 118.046875 C 69.519531 117.003906 69.292969 115.425781 68.664062 114.628906 C 67.277344 112.785156 64.335938 112.820312 63.042969 114.683594 C 61.65625 116.660156 62.472656 119.339844 64.695312 120.15625 C 65.625 120.496094 65.835938 120.515625 66.746094 120.25 Z M 71.726562 119.890625 C 71.800781 119.679688 71.820312 119.054688 71.800781 118.503906 L 71.742188 117.515625 L 73.378906 117.421875 C 74.992188 117.324219 75.714844 117.058594 75.316406 116.660156 C 75.222656 116.566406 74.386719 116.46875 73.453125 116.433594 L 71.761719 116.375 L 71.761719 114.476562 L 73.683594 114.378906 C 75.65625 114.285156 75.925781 114.210938 75.753906 113.753906 C 75.621094 113.371094 74.6875 113.277344 72.578125 113.410156 L 70.773438 113.523438 L 70.71875 116.660156 C 70.699219 118.371094 70.71875 119.890625 70.757812 120.023438 C 70.90625 120.402344 71.59375 120.308594 71.726562 119.890625 Z M 77.898438 118.84375 L 77.898438 117.421875 L 79.589844 117.421875 C 80.882812 117.421875 81.339844 117.34375 81.511719 117.136719 C 81.910156 116.640625 81.511719 116.488281 79.703125 116.433594 L 77.996094 116.375 L 77.9375 115.386719 L 77.882812 114.378906 L 79.667969 114.378906 C 80.902344 114.378906 81.546875 114.304688 81.8125 114.113281 C 82.515625 113.582031 81.890625 113.410156 79.402344 113.46875 L 77.046875 113.523438 L 77.027344 114.988281 C 76.988281 116.164062 77.046875 116.433594 77.253906 116.335938 C 77.40625 116.28125 77.519531 116.316406 77.519531 116.433594 C 77.519531 116.527344 77.386719 116.660156 77.234375 116.734375 C 77.007812 116.8125 76.949219 117.191406 76.949219 118.425781 C 76.949219 120.117188 77.007812 120.269531 77.558594 120.269531 C 77.863281 120.269531 77.898438 120.097656 77.898438 118.84375 Z M 88.253906 119.796875 C 88.253906 119.453125 88.101562 119.414062 86.261719 119.320312 L 84.265625 119.226562 L 84.265625 117.324219 L 85.9375 117.269531 C 87.210938 117.230469 87.628906 117.152344 87.722656 116.925781 C 87.894531 116.46875 87.648438 116.375 85.917969 116.28125 L 84.265625 116.183594 L 84.207031 115.292969 L 84.152344 114.378906 L 85.9375 114.378906 C 87.171875 114.378906 87.816406 114.304688 88.085938 114.113281 C 88.75 113.621094 88.140625 113.429688 85.726562 113.371094 C 83.828125 113.335938 83.371094 113.390625 83.21875 113.621094 C 82.972656 114 82.972656 119.148438 83.21875 119.796875 L 83.410156 120.289062 L 85.824219 120.230469 C 88.101562 120.175781 88.253906 120.15625 88.253906 119.796875 Z M 94.523438 119.796875 C 94.523438 119.453125 94.371094 119.414062 92.53125 119.320312 L 90.535156 119.226562 L 90.535156 117.324219 L 92.28125 117.269531 C 93.554688 117.230469 94.050781 117.152344 94.105469 116.945312 C 94.296875 116.488281 93.785156 116.300781 92.148438 116.242188 L 90.535156 116.183594 L 90.476562 115.292969 L 90.421875 114.378906 L 92.300781 114.378906 C 93.785156 114.378906 94.238281 114.324219 94.429688 114.09375 C 94.886719 113.542969 94.371094 113.410156 91.941406 113.46875 L 89.585938 113.523438 L 89.527344 116.46875 C 89.507812 118.085938 89.527344 119.605469 89.585938 119.851562 C 89.679688 120.269531 89.738281 120.289062 92.113281 120.230469 C 94.371094 120.175781 94.523438 120.15625 94.523438 119.796875 Z M 51.203125 118.3125 C 52.136719 116.984375 50.617188 115.273438 49.152344 116.015625 C 47.898438 116.679688 48.128906 118.691406 49.496094 118.976562 C 50.046875 119.09375 50.882812 118.769531 51.203125 118.3125 Z M 101.800781 118.445312 C 102.695312 117.4375 102.03125 115.898438 100.699219 115.898438 C 99.3125 115.898438 98.628906 117.136719 99.351562 118.3125 C 99.941406 119.242188 101.003906 119.300781 101.800781 118.445312 Z M 80.84375 107.671875 C 80.996094 107.445312 81.128906 107.085938 81.128906 106.855469 C 81.128906 106.609375 80.160156 105.183594 78.832031 103.472656 C 77.578125 101.839844 76.589844 100.433594 76.644531 100.339844 C 76.703125 100.242188 76.988281 100.128906 77.273438 100.074219 C 78.050781 99.902344 79.496094 98.933594 80.085938 98.152344 C 80.808594 97.203125 81.109375 96.234375 81.128906 94.886719 C 81.148438 92.148438 79.648438 90.25 76.777344 89.355469 C 75.90625 89.089844 74.9375 89.035156 71.210938 89.015625 C 66.917969 89.015625 66.691406 89.035156 66.425781 89.394531 C 66.253906 89.605469 66.175781 89.90625 66.253906 90.058594 C 66.40625 90.402344 66.386719 89.792969 66.347656 98.761719 C 66.328125 103.988281 66.253906 106.191406 66.101562 106.113281 C 65.796875 105.925781 66.101562 107.367188 66.460938 107.785156 C 66.878906 108.261719 67.925781 108.203125 68.285156 107.691406 C 68.53125 107.351562 68.589844 106.648438 68.589844 104.082031 L 68.589844 100.890625 L 71.117188 100.890625 L 73.625 100.910156 L 76.285156 104.367188 C 77.746094 106.265625 79.152344 107.921875 79.382812 108.035156 C 79.953125 108.320312 80.484375 108.167969 80.84375 107.671875 Z M 87.058594 105.640625 C 87.648438 104.347656 88.253906 103.226562 88.386719 103.152344 C 88.578125 103.019531 88.578125 102.980469 88.40625 102.980469 C 88.273438 102.980469 88.160156 102.902344 88.160156 102.789062 C 88.160156 102.675781 89.964844 102.601562 93.195312 102.601562 L 98.230469 102.601562 L 98.230469 103.035156 C 98.230469 103.53125 99.675781 106.933594 100.148438 107.558594 C 100.433594 107.9375 100.511719 107.957031 100.777344 107.75 C 101.042969 107.539062 101.078125 107.539062 101.078125 107.804688 C 101.078125 108.320312 101.878906 108.089844 102.199219 107.503906 C 102.542969 106.914062 102.46875 106.683594 99.941406 101.269531 C 99.085938 99.445312 97.792969 96.613281 97.070312 95 C 94.296875 88.804688 94.03125 88.464844 92.605469 88.921875 C 91.882812 89.167969 91.484375 89.832031 90.992188 91.578125 C 90.726562 92.53125 90.058594 93.859375 89.851562 93.859375 C 89.792969 93.859375 89.546875 94.296875 89.320312 94.808594 C 89.089844 95.34375 87.875 98.003906 86.601562 100.757812 C 83.695312 107.027344 83.734375 106.914062 84.132812 107.578125 C 84.472656 108.148438 84.796875 108.28125 85.5 108.109375 C 85.878906 108.015625 86.164062 107.558594 87.058594 105.640625 Z M 61.902344 107.804688 C 62.1875 107.617188 62.320312 107.332031 62.320312 106.875 C 62.320312 105.679688 62.128906 105.640625 56.203125 105.640625 L 50.921875 105.640625 L 50.921875 102.695312 C 50.921875 100.472656 50.976562 99.75 51.167969 99.730469 C 51.28125 99.730469 53.3125 99.730469 55.671875 99.75 C 60.554688 99.75 60.894531 99.675781 60.894531 98.609375 C 60.894531 98.058594 60.820312 97.925781 60.476562 97.886719 C 60.230469 97.851562 60.039062 97.699219 60.039062 97.546875 C 60.039062 97.316406 59.300781 97.28125 55.480469 97.28125 L 50.921875 97.28125 L 50.921875 91.390625 L 52.25 91.390625 C 53.011719 91.390625 53.578125 91.3125 53.578125 91.199219 C 53.578125 91.105469 53.789062 91.011719 54.054688 91.011719 C 54.320312 91.011719 54.53125 91.125 54.53125 91.257812 C 54.53125 91.410156 54.605469 91.390625 54.71875 91.199219 C 54.835938 91.011719 54.910156 90.992188 54.910156 91.160156 C 54.910156 91.3125 55.253906 91.390625 55.953125 91.390625 C 56.523438 91.390625 57 91.3125 57 91.199219 C 57 91.105469 57.210938 91.011719 57.476562 91.011719 C 57.742188 91.011719 57.949219 91.125 57.949219 91.257812 C 57.949219 91.429688 57.988281 91.429688 58.101562 91.257812 C 58.179688 91.125 58.917969 90.953125 59.734375 90.878906 C 61.425781 90.707031 61.863281 90.382812 61.390625 89.660156 C 61.160156 89.28125 61.179688 89.261719 61.539062 89.355469 C 61.789062 89.414062 61.902344 89.375 61.824219 89.261719 C 61.75 89.167969 61.40625 89.109375 61.066406 89.148438 C 60.703125 89.1875 60.421875 89.148438 60.421875 89.070312 C 60.421875 88.824219 59.753906 88.902344 59.488281 89.167969 C 59.28125 89.355469 59.261719 89.339844 59.375 89.109375 C 59.527344 88.863281 59.507812 88.863281 59.222656 89.089844 C 59.050781 89.222656 58.898438 89.261719 58.898438 89.167969 C 58.898438 88.9375 50.578125 88.824219 49.496094 89.035156 C 48.222656 89.261719 48.222656 89.203125 48.296875 98.667969 C 48.335938 103.285156 48.429688 107.21875 48.527344 107.40625 C 48.621094 107.597656 48.867188 107.84375 49.097656 107.921875 C 49.324219 108.015625 52.191406 108.089844 55.480469 108.089844 C 60.609375 108.109375 61.539062 108.070312 61.902344 107.804688 Z M 76.191406 84.019531 C 76.457031 83.808594 78.449219 80.578125 80.617188 76.835938 C 86.355469 66.9375 87.78125 64.449219 87.78125 64.316406 C 87.78125 64.257812 86.964844 64.238281 85.957031 64.257812 L 84.113281 64.316406 L 79.667969 72.105469 L 74.804688 72.160156 L 69.957031 72.199219 L 67.03125 67.128906 C 65.417969 64.316406 63.421875 60.875 62.605469 59.46875 C 61.789062 58.0625 60.722656 56.222656 60.230469 55.386719 L 59.355469 53.882812 L 57.609375 53.863281 C 56.640625 53.863281 55.859375 53.941406 55.859375 54.015625 C 55.859375 54.09375 56.789062 55.765625 57.910156 57.722656 C 59.050781 59.679688 61.199219 63.382812 62.679688 65.96875 C 64.183594 68.550781 65.472656 70.621094 65.570312 70.566406 C 65.664062 70.507812 65.738281 70.679688 65.738281 70.945312 C 65.738281 71.210938 65.890625 71.535156 66.082031 71.667969 C 66.289062 71.800781 66.441406 72.046875 66.441406 72.199219 C 66.441406 72.597656 67.449219 74.269531 67.449219 73.910156 C 67.46875 73.757812 67.601562 73.851562 67.753906 74.15625 C 67.90625 74.441406 67.980469 74.765625 67.925781 74.859375 C 67.867188 74.953125 67.90625 75.070312 68 75.144531 C 68.097656 75.203125 68.304688 75.488281 68.4375 75.773438 C 69.40625 77.671875 72.847656 83.390625 73.015625 83.351562 C 73.132812 83.335938 73.320312 83.503906 73.414062 83.734375 C 73.816406 84.589844 75.203125 84.738281 76.191406 84.019531 Z M 75.507812 61.425781 C 75.410156 61.105469 75.773438 61.085938 81.472656 61.140625 C 86.261719 61.179688 87.703125 61.140625 88.3125 60.933594 C 88.785156 60.761719 89.1875 60.722656 89.375 60.839844 C 89.585938 60.953125 89.679688 60.933594 89.679688 60.722656 C 89.679688 60.570312 89.566406 60.402344 89.453125 60.34375 C 89.320312 60.269531 89.394531 60.269531 89.621094 60.304688 C 89.90625 60.363281 90.136719 60.230469 90.34375 59.925781 C 90.6875 59.394531 90.726562 58.898438 90.402344 58.882812 C 90.269531 58.882812 90.324219 58.804688 90.535156 58.710938 C 90.742188 58.613281 90.800781 58.539062 90.6875 58.539062 C 90.34375 58.519531 90.382812 58.160156 90.742188 58.007812 C 90.914062 57.949219 91.125 58.007812 91.21875 58.160156 C 91.351562 58.367188 91.390625 58.328125 91.390625 58.007812 C 91.390625 57.777344 91.277344 57.550781 91.160156 57.511719 C 91.027344 57.457031 91.085938 57.398438 91.296875 57.398438 C 91.617188 57.378906 91.636719 57.34375 91.390625 57.191406 C 91.160156 57.039062 91.179688 56.980469 91.542969 56.886719 C 91.882812 56.789062 91.921875 56.714844 91.730469 56.601562 C 91.542969 56.488281 91.578125 56.429688 91.863281 56.429688 C 92.1875 56.429688 92.1875 56.390625 91.960938 56.238281 C 91.730469 56.089844 91.730469 56.050781 92.054688 56.050781 C 92.378906 56.050781 92.378906 56.011719 92.148438 55.859375 C 91.921875 55.707031 91.941406 55.652344 92.300781 55.554688 C 92.644531 55.460938 92.683594 55.386719 92.492188 55.269531 C 92.300781 55.15625 92.339844 55.101562 92.625 55.101562 C 92.949219 55.101562 92.949219 55.0625 92.71875 54.910156 C 92.492188 54.757812 92.492188 54.71875 92.816406 54.71875 C 93.101562 54.71875 93.136719 54.683594 92.929688 54.550781 C 92.605469 54.339844 92.984375 54.074219 93.386719 54.226562 C 93.746094 54.359375 93.785156 53.65625 93.441406 53.503906 C 93.308594 53.445312 93.402344 53.429688 93.671875 53.445312 C 94.203125 53.484375 94.449219 52.878906 94.011719 52.609375 C 93.820312 52.476562 93.859375 52.441406 94.144531 52.441406 C 94.46875 52.441406 94.46875 52.402344 94.238281 52.25 C 94.011719 52.097656 94.011719 52.058594 94.335938 52.058594 C 94.65625 52.058594 94.65625 52.023438 94.429688 51.871094 C 94.203125 51.71875 94.222656 51.660156 94.582031 51.566406 C 94.886719 51.472656 94.960938 51.394531 94.808594 51.300781 C 94.46875 51.089844 94.789062 50.671875 95.210938 50.785156 C 95.609375 50.902344 95.722656 50.445312 95.34375 50.292969 C 95.210938 50.234375 95.265625 50.179688 95.476562 50.179688 C 95.796875 50.160156 95.796875 50.121094 95.570312 49.96875 C 95.34375 49.816406 95.34375 49.78125 95.664062 49.78125 C 95.988281 49.78125 95.988281 49.742188 95.761719 49.589844 C 95.53125 49.4375 95.550781 49.382812 95.910156 49.285156 C 96.253906 49.191406 96.292969 49.113281 96.101562 49 C 95.910156 48.886719 95.949219 48.828125 96.234375 48.828125 C 96.519531 48.828125 96.558594 48.792969 96.367188 48.660156 C 96.160156 48.546875 96.234375 48.277344 96.691406 47.460938 C 97.070312 46.816406 97.28125 46.152344 97.28125 45.714844 C 97.28125 45.125 97.335938 45.011719 97.585938 45.105469 C 98.191406 45.335938 97.394531 44.382812 96.691406 44.042969 C 96.082031 43.71875 94.5625 43.699219 73.015625 43.699219 C 60.34375 43.699219 49.96875 43.757812 49.96875 43.8125 C 49.96875 43.871094 50.21875 44.289062 50.503906 44.726562 C 50.785156 45.144531 51.089844 45.65625 51.167969 45.847656 C 51.28125 46.152344 51.984375 46.171875 62.320312 46.171875 L 73.339844 46.171875 L 73.566406 46.644531 C 73.777344 47.121094 73.265625 48.070312 69.332031 54.433594 C 66.691406 58.710938 66.140625 59.734375 66.347656 59.984375 C 66.710938 60.421875 68.609375 61.425781 68.78125 61.257812 C 68.949219 61.066406 72.125 55.878906 73.585938 53.390625 C 75.144531 50.730469 75.050781 50.558594 75.089844 56.105469 C 75.105469 61.808594 75.089844 61.425781 75.335938 61.597656 C 75.601562 61.789062 75.601562 61.789062 75.507812 61.425781 Z M 52.058594 41.476562 C 52.058594 41.382812 50.484375 38.628906 48.5625 35.339844 L 45.066406 29.355469 L 59.03125 29.296875 C 66.726562 29.277344 73.054688 29.296875 73.09375 29.335938 C 73.132812 29.375 73.167969 29.792969 73.1875 30.285156 C 73.1875 30.761719 73.265625 31.160156 73.359375 31.160156 C 73.605469 31.160156 73.566406 40.792969 73.339844 41.25 C 73.148438 41.589844 73.207031 41.609375 74.671875 41.609375 L 76.191406 41.609375 L 76.191406 35.53125 C 76.191406 30.835938 76.246094 29.410156 76.4375 29.355469 C 76.550781 29.296875 82.914062 29.277344 90.554688 29.296875 L 104.460938 29.355469 L 101.859375 33.820312 C 100.433594 36.269531 98.855469 38.96875 98.363281 39.804688 C 97.867188 40.640625 97.46875 41.382812 97.46875 41.457031 C 97.46875 41.554688 98.191406 41.609375 99.085938 41.609375 C 99.976562 41.609375 100.699219 41.535156 100.699219 41.4375 C 100.699219 41.34375 100.605469 41.230469 100.492188 41.191406 C 100.09375 41.058594 100.757812 40.242188 101.195312 40.335938 C 101.707031 40.433594 102.449219 39.027344 102.011719 38.742188 C 101.800781 38.609375 101.820312 38.570312 102.125 38.570312 C 102.449219 38.570312 102.46875 38.53125 102.21875 38.359375 C 101.992188 38.210938 102.03125 38.191406 102.410156 38.226562 C 102.941406 38.285156 103.207031 37.695312 102.753906 37.410156 C 102.5625 37.277344 102.582031 37.238281 102.828125 37.238281 C 103 37.238281 103.1875 37.355469 103.226562 37.488281 C 103.285156 37.601562 103.339844 37.523438 103.339844 37.296875 C 103.359375 37.070312 103.265625 36.859375 103.132812 36.820312 C 102.769531 36.6875 103.171875 36.253906 103.550781 36.347656 C 103.835938 36.421875 104.15625 35.984375 105.128906 34.3125 C 106.800781 31.464844 106.933594 31.179688 106.570312 30.933594 C 106.363281 30.800781 106.398438 30.761719 106.742188 30.835938 C 107.199219 30.949219 107.351562 30.515625 106.933594 30.324219 C 106.800781 30.246094 106.875 30.246094 107.121094 30.285156 C 107.425781 30.34375 107.539062 30.265625 107.539062 30 C 107.539062 29.8125 107.464844 29.640625 107.351562 29.640625 C 106.949219 29.640625 107.179688 29.261719 107.597656 29.242188 C 107.84375 29.222656 107.902344 29.183594 107.710938 29.128906 C 107.351562 29.03125 107.445312 27.910156 107.84375 27.683594 C 108.167969 27.492188 107.976562 26.980469 107.617188 27.113281 C 107.445312 27.171875 107.386719 27.113281 107.445312 26.960938 C 107.503906 26.789062 107.273438 26.5625 106.816406 26.351562 C 106.152344 26.03125 104.425781 26.03125 74.421875 26.066406 L 42.730469 26.125 L 42.121094 26.789062 C 41.535156 27.398438 41.039062 28.441406 41.4375 28.195312 C 41.535156 28.140625 41.609375 28.175781 41.609375 28.289062 C 41.609375 28.386719 41.535156 28.519531 41.421875 28.59375 C 41.324219 28.652344 41.304688 28.84375 41.363281 29.03125 C 41.496094 29.394531 46.492188 38.019531 47.84375 40.242188 L 48.679688 41.609375 L 50.367188 41.609375 C 51.300781 41.609375 52.058594 41.554688 52.058594 41.476562 Z M 52.058594 41.476562 "/>
<path style=" stroke:none;fill-rule:nonzero;fill:rgb(100%,100%,100%);fill-opacity:1;" d="M 64.371094 118.882812 C 63.667969 118.292969 63.460938 117.78125 63.460938 116.699219 C 63.460938 114.039062 66.859375 113.238281 68.019531 115.632812 C 68.570312 116.734375 68.398438 117.761719 67.546875 118.65625 C 66.992188 119.261719 66.824219 119.320312 65.910156 119.320312 C 65.132812 119.320312 64.769531 119.226562 64.371094 118.882812 Z M 64.371094 118.882812 "/>
<path style=" stroke:none;fill-rule:nonzero;fill:rgb(100%,100%,100%);fill-opacity:1;" d="M 69.882812 98.476562 L 68.609375 98.402344 L 68.550781 94.714844 C 68.515625 91.769531 68.550781 90.992188 68.742188 90.914062 C 68.894531 90.859375 70.320312 90.820312 71.953125 90.820312 C 74.6875 90.820312 74.898438 90.839844 74.992188 91.179688 C 75.089844 91.578125 76.152344 91.863281 76.761719 91.675781 C 77.160156 91.542969 77.804688 92.015625 77.632812 92.320312 C 77.578125 92.398438 77.691406 92.625 77.882812 92.796875 C 78.089844 92.984375 78.300781 93.328125 78.355469 93.59375 C 78.433594 93.839844 78.566406 94.050781 78.660156 94.050781 C 78.90625 94.050781 78.90625 95.324219 78.640625 95.476562 C 78.546875 95.550781 78.488281 95.703125 78.527344 95.816406 C 78.679688 96.253906 77.464844 97.527344 76.476562 97.964844 C 75.714844 98.304688 75.089844 98.421875 73.339844 98.476562 C 72.144531 98.515625 70.585938 98.515625 69.882812 98.476562 Z M 69.882812 98.476562 "/>
<path style=" stroke:none;fill-rule:nonzero;fill:rgb(100%,100%,100%);fill-opacity:1;" d="M 89.300781 100.625 C 89.300781 100.585938 90.003906 99.027344 90.839844 97.148438 C 91.695312 95.285156 92.550781 93.402344 92.738281 92.949219 C 93.082031 92.167969 93.101562 92.148438 93.480469 92.472656 C 93.6875 92.664062 93.859375 93.042969 93.859375 93.328125 C 93.859375 93.632812 93.9375 93.859375 94.011719 93.859375 C 94.222656 93.859375 95 95.492188 95 95.929688 C 95 96.140625 95.09375 96.328125 95.210938 96.367188 C 95.324219 96.40625 95.457031 96.671875 95.476562 96.957031 C 95.511719 97.242188 95.664062 97.601562 95.835938 97.773438 C 96.007812 97.925781 96.160156 98.171875 96.179688 98.285156 C 96.273438 99.121094 96.691406 100.09375 97.015625 100.207031 C 97.164062 100.261719 97.28125 100.394531 97.28125 100.511719 C 97.28125 100.625 95.910156 100.699219 93.289062 100.699219 C 91.105469 100.699219 89.300781 100.660156 89.300781 100.625 Z M 89.300781 100.625 "/>
<path style=" stroke:none;fill-rule:nonzero;fill:rgb(100%,100%,100%);fill-opacity:1;" d="M 73.300781 77.917969 C 72.503906 76.550781 71.914062 75.410156 71.972656 75.355469 C 72.105469 75.203125 76.53125 75.257812 77.179688 75.410156 L 77.691406 75.523438 L 76.398438 77.765625 C 75.695312 79.003906 75.03125 80.085938 74.917969 80.199219 C 74.804688 80.3125 74.253906 79.554688 73.300781 77.917969 Z M 73.300781 77.917969 "/>
<path style=" stroke:none;fill-rule:nonzero;fill:rgb(100%,100%,100%);fill-opacity:1;" d="M 78.242188 53.675781 C 78.203125 49.4375 78.148438 48.601562 77.898438 48.449219 C 77.652344 48.296875 77.652344 48.242188 77.882812 48.089844 C 78.015625 47.992188 78.164062 47.632812 78.203125 47.289062 C 78.242188 46.929688 78.316406 46.53125 78.375 46.417969 C 78.488281 46.074219 94.429688 46.054688 94.429688 46.398438 C 94.429688 46.53125 93.839844 47.652344 93.136719 48.925781 C 92.414062 50.179688 91.769531 51.453125 91.695312 51.738281 C 91.636719 52.023438 91.484375 52.210938 91.390625 52.15625 C 91.296875 52.097656 91.160156 52.25 91.085938 52.476562 C 91.011719 52.726562 90.894531 52.953125 90.839844 53.011719 C 90.496094 53.257812 89.128906 55.917969 89.242188 56.089844 C 89.300781 56.203125 89.28125 56.238281 89.1875 56.183594 C 89.070312 56.125 88.75 56.523438 88.464844 57.058594 C 87.476562 58.84375 87.914062 58.710938 82.820312 58.710938 L 78.300781 58.710938 Z M 78.242188 53.675781 "/>
<path style=" stroke:none;fill-rule:nonzero;fill:rgb(34.509804%,7.45098%,11.372549%);fill-opacity:1;" d="M 77.007812 116.488281 C 77.027344 116.28125 77.140625 116.164062 77.273438 116.222656 C 77.597656 116.355469 77.597656 116.601562 77.253906 116.71875 C 77.0625 116.792969 76.988281 116.71875 77.007812 116.488281 Z M 77.007812 116.488281 "/>
<path style=" stroke:none;fill-rule:nonzero;fill:rgb(34.509804%,7.45098%,11.372549%);fill-opacity:1;" d="M 100.832031 108.128906 C 100.511719 108.015625 100.511719 107.957031 100.757812 107.769531 C 100.984375 107.578125 101.0625 107.597656 101.136719 107.921875 C 101.195312 108.128906 101.214844 108.300781 101.214844 108.28125 C 101.195312 108.28125 101.023438 108.203125 100.832031 108.128906 Z M 100.832031 108.128906 "/>
<path style=" stroke:none;fill-rule:nonzero;fill:rgb(34.509804%,7.45098%,11.372549%);fill-opacity:1;" d="M 66.121094 106.113281 C 66.0625 106.019531 66.0625 102.335938 66.121094 97.945312 C 66.175781 93.554688 66.253906 90.097656 66.308594 90.25 C 66.425781 90.609375 66.253906 106.363281 66.121094 106.113281 Z M 66.121094 106.113281 "/>
<path style=" stroke:none;fill-rule:nonzero;fill:rgb(34.509804%,7.45098%,11.372549%);fill-opacity:1;" d="M 93.253906 103.171875 C 90.574219 103.113281 88.3125 103 88.234375 102.921875 C 87.835938 102.523438 88.976562 102.410156 93.347656 102.410156 C 97.300781 102.410156 98.078125 102.449219 98.152344 102.695312 C 98.210938 102.847656 98.230469 103.035156 98.191406 103.113281 C 98.171875 103.1875 95.929688 103.226562 93.253906 103.171875 Z M 93.253906 103.171875 "/>
<path style=" stroke:none;fill-rule:nonzero;fill:rgb(34.509804%,7.45098%,11.372549%);fill-opacity:1;" d="M 95.855469 98.25 C 95.703125 97.925781 95.628906 97.660156 95.722656 97.660156 C 95.910156 97.660156 96.386719 98.609375 96.253906 98.742188 C 96.214844 98.800781 96.027344 98.570312 95.855469 98.25 Z M 95.855469 98.25 "/>
<path style=" stroke:none;fill-rule:nonzero;fill:rgb(34.509804%,7.45098%,11.372549%);fill-opacity:1;" d="M 60.476562 97.90625 C 60.230469 97.867188 60.039062 97.699219 60.039062 97.546875 C 60.039062 97.203125 60.324219 97.203125 60.6875 97.585938 C 60.953125 97.832031 61.105469 98.097656 60.953125 98.019531 C 60.914062 98.003906 60.703125 97.945312 60.476562 97.90625 Z M 60.476562 97.90625 "/>
<path style=" stroke:none;fill-rule:nonzero;fill:rgb(34.509804%,7.45098%,11.372549%);fill-opacity:1;" d="M 95.191406 96.730469 C 95.074219 96.5 95.058594 96.328125 95.171875 96.328125 C 95.359375 96.328125 95.628906 96.898438 95.492188 97.03125 C 95.457031 97.089844 95.324219 96.9375 95.191406 96.730469 Z M 95.191406 96.730469 "/>
<path style=" stroke:none;fill-rule:nonzero;fill:rgb(34.509804%,7.45098%,11.372549%);fill-opacity:1;" d="M 94.371094 94.90625 C 94.089844 94.335938 93.9375 93.859375 94.011719 93.859375 C 94.203125 93.859375 95.09375 95.722656 94.980469 95.855469 C 94.925781 95.894531 94.65625 95.476562 94.371094 94.90625 Z M 94.371094 94.90625 "/>
<path style=" stroke:none;fill-rule:nonzero;fill:rgb(34.509804%,7.45098%,11.372549%);fill-opacity:1;" d="M 78.527344 94.789062 C 78.527344 94.390625 78.585938 94.050781 78.679688 94.050781 C 78.886719 94.050781 78.90625 95.324219 78.71875 95.4375 C 78.621094 95.492188 78.546875 95.191406 78.527344 94.789062 Z M 78.527344 94.789062 "/>
<path style=" stroke:none;fill-rule:nonzero;fill:rgb(34.509804%,7.45098%,11.372549%);fill-opacity:1;" d="M 89.871094 93.726562 C 89.871094 93.613281 90.175781 92.890625 90.535156 92.132812 C 91.277344 90.59375 91.390625 90.574219 90.839844 92.09375 C 90.476562 93.101562 89.871094 94.105469 89.871094 93.726562 Z M 89.871094 93.726562 "/>
<path style=" stroke:none;fill-rule:nonzero;fill:rgb(34.509804%,7.45098%,11.372549%);fill-opacity:1;" d="M 93.519531 93.023438 C 93.386719 92.71875 93.367188 92.53125 93.5 92.53125 C 93.726562 92.53125 93.917969 93.003906 93.820312 93.308594 C 93.785156 93.421875 93.652344 93.308594 93.519531 93.023438 Z M 93.519531 93.023438 "/>
<path style=" stroke:none;fill-rule:nonzero;fill:rgb(34.509804%,7.45098%,11.372549%);fill-opacity:1;" d="M 76.875 92.054688 C 76.34375 91.828125 76.324219 91.808594 76.722656 91.695312 C 76.988281 91.597656 77.234375 91.65625 77.425781 91.847656 C 77.976562 92.378906 77.765625 92.453125 76.875 92.054688 Z M 76.875 92.054688 "/>
<path style=" stroke:none;fill-rule:nonzero;fill:rgb(34.509804%,7.45098%,11.372549%);fill-opacity:1;" d="M 68.496094 91.257812 C 68.363281 90.878906 69.046875 90.800781 72.105469 90.859375 C 74.460938 90.894531 74.953125 90.972656 75.011719 91.199219 C 75.050781 91.445312 74.59375 91.484375 71.820312 91.484375 C 69.425781 91.484375 68.570312 91.429688 68.496094 91.257812 Z M 68.496094 91.257812 "/>
<path style=" stroke:none;fill-rule:nonzero;fill:rgb(34.509804%,7.45098%,11.372549%);fill-opacity:1;" d="M 53.578125 91.199219 C 53.578125 91.105469 53.789062 91.011719 54.054688 91.011719 C 54.320312 91.011719 54.53125 91.105469 54.53125 91.199219 C 54.53125 91.3125 54.320312 91.390625 54.054688 91.390625 C 53.789062 91.390625 53.578125 91.3125 53.578125 91.199219 Z M 53.578125 91.199219 "/>
<path style=" stroke:none;fill-rule:nonzero;fill:rgb(34.509804%,7.45098%,11.372549%);fill-opacity:1;" d="M 57 91.199219 C 57 91.105469 57.210938 91.011719 57.476562 91.011719 C 57.742188 91.011719 57.949219 91.105469 57.949219 91.199219 C 57.949219 91.3125 57.742188 91.390625 57.476562 91.390625 C 57.210938 91.390625 57 91.3125 57 91.199219 Z M 57 91.199219 "/>
<path style=" stroke:none;fill-rule:nonzero;fill:rgb(34.509804%,7.45098%,11.372549%);fill-opacity:1;" d="M 58.140625 91.21875 C 58.140625 91.046875 59.507812 90.820312 60.554688 90.820312 C 61.3125 90.820312 61.808594 90.097656 61.371094 89.585938 C 61.179688 89.355469 61.179688 89.300781 61.425781 89.300781 C 61.84375 89.300781 62.320312 89.832031 62.320312 90.269531 C 62.320312 90.460938 62.148438 90.800781 61.941406 91.011719 C 61.617188 91.332031 61.3125 91.390625 59.851562 91.390625 C 58.917969 91.390625 58.140625 91.3125 58.140625 91.21875 Z M 58.140625 91.21875 "/>
<path style=" stroke:none;fill-rule:nonzero;fill:rgb(34.509804%,7.45098%,11.372549%);fill-opacity:1;" d="M 73.09375 83.847656 C 73.015625 83.789062 72.960938 83.601562 72.960938 83.449219 C 72.960938 83.21875 73.015625 83.21875 73.246094 83.410156 C 73.398438 83.542969 73.53125 83.714844 73.53125 83.808594 C 73.53125 84.019531 73.265625 84.035156 73.09375 83.847656 Z M 73.09375 83.847656 "/>
<path style=" stroke:none;fill-rule:nonzero;fill:rgb(34.509804%,7.45098%,11.372549%);fill-opacity:1;" d="M 67.660156 74.519531 C 67.546875 74.289062 67.449219 74.003906 67.449219 73.871094 C 67.46875 73.738281 67.601562 73.871094 67.753906 74.15625 C 67.925781 74.460938 68 74.746094 67.964844 74.804688 C 67.90625 74.839844 67.773438 74.726562 67.660156 74.519531 Z M 67.660156 74.519531 "/>
<path style=" stroke:none;fill-rule:nonzero;fill:rgb(34.509804%,7.45098%,11.372549%);fill-opacity:1;" d="M 75.371094 61.371094 C 75.46875 61.007812 75.695312 60.988281 81.871094 60.972656 C 85.386719 60.972656 88.425781 60.894531 88.636719 60.820312 C 89.054688 60.648438 89.488281 60.742188 89.488281 61.027344 C 89.488281 61.121094 89.1875 61.332031 88.824219 61.484375 C 88.273438 61.710938 86.980469 61.75 81.71875 61.75 C 75.429688 61.730469 75.277344 61.730469 75.371094 61.371094 Z M 75.371094 61.371094 "/>
<path style=" stroke:none;fill-rule:nonzero;fill:rgb(34.509804%,7.45098%,11.372549%);fill-opacity:1;" d="M 90.476562 58.976562 C 90.269531 58.746094 90.289062 58.710938 90.574219 58.710938 C 90.839844 58.710938 90.859375 58.671875 90.648438 58.539062 C 90.34375 58.347656 90.535156 57.949219 90.933594 57.949219 C 91.257812 57.949219 91.277344 58.273438 90.953125 58.824219 C 90.761719 59.183594 90.6875 59.203125 90.476562 58.976562 Z M 90.476562 58.976562 "/>
<path style=" stroke:none;fill-rule:nonzero;fill:rgb(34.509804%,7.45098%,11.372549%);fill-opacity:1;" d="M 91.238281 57.644531 C 91.027344 57.417969 91.046875 57.378906 91.332031 57.378906 C 91.617188 57.378906 91.636719 57.34375 91.390625 57.191406 C 91.160156 57.039062 91.179688 56.980469 91.542969 56.886719 C 91.882812 56.789062 91.921875 56.714844 91.730469 56.601562 C 91.542969 56.488281 91.578125 56.429688 91.863281 56.429688 C 92.1875 56.429688 92.1875 56.390625 91.960938 56.238281 C 91.730469 56.089844 91.730469 56.050781 92.054688 56.050781 C 92.378906 56.050781 92.378906 56.011719 92.148438 55.859375 C 91.921875 55.707031 91.941406 55.652344 92.300781 55.554688 C 92.644531 55.460938 92.683594 55.386719 92.492188 55.269531 C 92.300781 55.15625 92.339844 55.101562 92.625 55.101562 C 92.949219 55.101562 92.949219 55.0625 92.71875 54.910156 C 92.492188 54.757812 92.492188 54.71875 92.816406 54.699219 C 93.023438 54.699219 93.082031 54.644531 92.949219 54.585938 C 92.664062 54.472656 92.835938 54.148438 93.214844 54.148438 C 93.632812 54.148438 93.554688 54.398438 92.492188 56.203125 C 91.65625 57.628906 91.445312 57.855469 91.238281 57.644531 Z M 91.238281 57.644531 "/>
<path style=" stroke:none;fill-rule:nonzero;fill:rgb(34.509804%,7.45098%,11.372549%);fill-opacity:1;" d="M 94.089844 52.707031 C 93.878906 52.476562 93.898438 52.441406 94.183594 52.441406 C 94.46875 52.441406 94.488281 52.402344 94.238281 52.25 C 94.011719 52.097656 94.011719 52.058594 94.335938 52.058594 C 94.65625 52.058594 94.65625 52.023438 94.429688 51.871094 C 94.203125 51.71875 94.222656 51.660156 94.582031 51.566406 C 94.886719 51.472656 94.960938 51.394531 94.808594 51.300781 C 94.523438 51.128906 94.734375 50.730469 95.113281 50.730469 C 95.511719 50.730469 95.4375 51.089844 94.847656 52.078125 C 94.410156 52.820312 94.296875 52.914062 94.089844 52.707031 Z M 94.089844 52.707031 "/>
<path style=" stroke:none;fill-rule:nonzero;fill:rgb(34.509804%,7.45098%,11.372549%);fill-opacity:1;" d="M 95.417969 50.425781 C 95.210938 50.199219 95.226562 50.160156 95.511719 50.160156 C 95.796875 50.160156 95.816406 50.121094 95.570312 49.96875 C 95.34375 49.816406 95.34375 49.78125 95.664062 49.78125 C 95.988281 49.78125 95.988281 49.742188 95.761719 49.589844 C 95.53125 49.4375 95.550781 49.382812 95.910156 49.285156 C 96.253906 49.191406 96.292969 49.113281 96.101562 49 C 95.910156 48.886719 95.949219 48.828125 96.234375 48.828125 C 96.519531 48.828125 96.558594 48.792969 96.367188 48.660156 C 96.160156 48.546875 96.234375 48.277344 96.691406 47.460938 C 97.050781 46.835938 97.28125 46.152344 97.28125 45.734375 C 97.28125 44.992188 97.433594 44.878906 97.8125 45.257812 C 98.324219 45.769531 98.039062 46.605469 96.40625 49.417969 C 95.777344 50.484375 95.628906 50.636719 95.417969 50.425781 Z M 95.417969 50.425781 "/>
<path style=" stroke:none;fill-rule:nonzero;fill:rgb(34.509804%,7.45098%,11.372549%);fill-opacity:1;" d="M 78.089844 48.828125 C 78.089844 48.621094 77.957031 48.449219 77.804688 48.449219 C 77.652344 48.449219 77.519531 48.375 77.519531 48.261719 C 77.519531 48.164062 77.632812 48.070312 77.785156 48.070312 C 77.9375 48.070312 78.109375 47.957031 78.148438 47.84375 C 78.203125 47.710938 78.261719 47.957031 78.261719 48.410156 C 78.28125 48.847656 78.242188 49.210938 78.183594 49.210938 C 78.128906 49.210938 78.089844 49.039062 78.089844 48.828125 Z M 78.089844 48.828125 "/>
<path style=" stroke:none;fill-rule:nonzero;fill:rgb(34.509804%,7.45098%,11.372549%);fill-opacity:1;" d="M 51.414062 46.453125 C 51.320312 46.207031 52.574219 46.171875 62.359375 46.207031 C 70.984375 46.246094 73.414062 46.320312 73.492188 46.511719 C 73.550781 46.683594 71.269531 46.738281 62.546875 46.738281 C 52.894531 46.738281 51.507812 46.703125 51.414062 46.453125 Z M 51.414062 46.453125 "/>
<path style=" stroke:none;fill-rule:nonzero;fill:rgb(34.509804%,7.45098%,11.372549%);fill-opacity:1;" d="M 78.28125 46.570312 C 78.28125 46.453125 78.335938 46.339844 78.433594 46.304688 C 78.566406 46.207031 89.773438 46.09375 92.96875 46.152344 C 94.125 46.171875 94.429688 46.226562 94.429688 46.453125 C 94.429688 46.703125 93.402344 46.738281 86.355469 46.738281 C 81.433594 46.738281 78.28125 46.664062 78.28125 46.570312 Z M 78.28125 46.570312 "/>
<path style=" stroke:none;fill-rule:nonzero;fill:rgb(34.509804%,7.45098%,11.372549%);fill-opacity:1;" d="M 100.546875 41.324219 C 100.242188 40.964844 100.625 40.28125 101.117188 40.28125 C 101.535156 40.28125 101.535156 40.335938 101.175781 41.039062 C 100.832031 41.6875 100.871094 41.6875 100.546875 41.324219 Z M 100.546875 41.324219 "/>
<path style=" stroke:none;fill-rule:nonzero;fill:rgb(34.509804%,7.45098%,11.372549%);fill-opacity:1;" d="M 73.148438 36.347656 C 73.148438 33.003906 73.226562 31.160156 73.339844 31.160156 C 73.585938 31.160156 73.585938 40.832031 73.339844 41.230469 C 73.226562 41.421875 73.148438 39.746094 73.148438 36.347656 Z M 73.148438 36.347656 "/>
<path style=" stroke:none;fill-rule:nonzero;fill:rgb(34.509804%,7.45098%,11.372549%);fill-opacity:1;" d="M 117.25 29.601562 C 117.230469 23.027344 117.285156 19.570312 117.421875 19.570312 C 117.648438 19.570312 117.648438 38.417969 117.421875 39.140625 C 117.34375 39.40625 117.269531 35.113281 117.25 29.601562 Z M 117.25 29.601562 "/>
<path style=" stroke:none;fill-rule:nonzero;fill:rgb(34.509804%,7.45098%,11.372549%);fill-opacity:1;" d="M 102.066406 38.835938 C 101.859375 38.609375 101.878906 38.570312 102.164062 38.570312 C 102.449219 38.570312 102.46875 38.53125 102.21875 38.378906 C 101.972656 38.226562 101.992188 38.191406 102.277344 38.191406 C 102.617188 38.191406 102.695312 38.511719 102.449219 38.875 C 102.351562 39.046875 102.238281 39.027344 102.066406 38.835938 Z M 102.066406 38.835938 "/>
<path style=" stroke:none;fill-rule:nonzero;fill:rgb(34.509804%,7.45098%,11.372549%);fill-opacity:1;" d="M 103.207031 36.9375 C 102.921875 36.632812 103.054688 36.289062 103.472656 36.289062 C 103.757812 36.289062 103.777344 36.402344 103.589844 36.878906 C 103.472656 37.164062 103.417969 37.164062 103.207031 36.9375 Z M 103.207031 36.9375 "/>
<path style=" stroke:none;fill-rule:nonzero;fill:rgb(34.509804%,7.45098%,11.372549%);fill-opacity:1;" d="M 107.40625 29.734375 C 107.066406 29.355469 107.101562 29.261719 107.597656 29.242188 C 107.84375 29.222656 107.902344 29.183594 107.730469 29.144531 C 107.351562 29.03125 107.445312 27.816406 107.824219 27.664062 C 108.1875 27.53125 108.339844 28.347656 108.089844 29.089844 C 107.804688 29.925781 107.691406 30.039062 107.40625 29.734375 Z M 107.40625 29.734375 "/>
<path style=" stroke:none;fill-rule:nonzero;fill:rgb(34.509804%,7.45098%,11.372549%);fill-opacity:1;" d="M 90.058594 19.210938 C 90.058594 19.113281 90.324219 19 90.648438 18.925781 C 92.054688 18.640625 105.449219 18.90625 105.449219 19.226562 C 105.449219 19.304688 101.992188 19.378906 97.753906 19.378906 C 93.480469 19.378906 90.058594 19.304688 90.058594 19.210938 Z M 90.058594 19.210938 "/>
<path style=" stroke:none;fill-rule:nonzero;fill:rgb(34.509804%,7.45098%,11.372549%);fill-opacity:1;" d="M 107.160156 19.210938 C 107.160156 19.039062 114.511719 18.828125 115.863281 18.960938 C 116.300781 19 116.660156 19.113281 116.660156 19.210938 C 116.660156 19.304688 114.570312 19.378906 111.910156 19.378906 C 109.308594 19.378906 107.160156 19.304688 107.160156 19.210938 Z M 107.160156 19.210938 "/>
<path style=" stroke:none;fill-rule:nonzero;fill:rgb(34.509804%,7.45098%,11.372549%);fill-opacity:1;" d="M 102.125 0.191406 C 100.035156 0.132812 110.429688 0.0742188 125.210938 0.0742188 C 141.246094 0.0742188 149.339844 0.113281 145.253906 0.210938 C 137.3125 0.359375 107.691406 0.34375 102.125 0.191406 Z M 102.125 0.191406 "/>
<path style=" stroke:none;fill-rule:nonzero;fill:rgb(34.509804%,7.45098%,11.372549%);fill-opacity:1;" d="M 81.1875 0.0585938 C 81.679688 0.0195312 82.460938 0.0195312 82.898438 0.0585938 C 83.335938 0.09375 82.933594 0.113281 81.984375 0.113281 C 81.054688 0.113281 80.691406 0.09375 81.1875 0.0585938 Z M 81.1875 0.0585938 "/>
<path style=" stroke:none;fill-rule:nonzero;fill:rgb(34.509804%,7.45098%,11.372549%);fill-opacity:1;" d="M 85.746094 0.0585938 C 86.242188 0.0195312 87.019531 0.0195312 87.457031 0.0585938 C 87.894531 0.09375 87.496094 0.113281 86.546875 0.113281 C 85.613281 0.113281 85.253906 0.09375 85.746094 0.0585938 Z M 85.746094 0.0585938 "/>
<path style=" stroke:none;fill-rule:nonzero;fill:rgb(83.921569%,59.215686%,17.254902%);fill-opacity:1;" d="M 134.996094 151.296875 C 135.164062 150.289062 135.546875 149.796875 136.421875 149.339844 C 137.371094 148.863281 138.320312 148.863281 139.269531 149.339844 C 140.125 149.777344 140.714844 150.535156 140.828125 151.390625 L 140.921875 152 L 134.863281 152 Z M 134.996094 151.296875 "/>
</g>
</svg>
