<?xml version="1.0" encoding="UTF-8"?>
<svg xmlns="http://www.w3.org/2000/svg" xmlns:xlink="http://www.w3.org/1999/xlink" width="152px" height="114px" viewBox="0 0 151 92" version="1.1">
<g id="surface1">
<path style=" stroke:none;fill-rule:nonzero;fill:rgb(9.803922%,27.843137%,72.941176%);fill-opacity:1;" d="M 136.039062 83.082031 C 136.039062 82.742188 136.527344 81.859375 136.90625 81.523438 C 137.71875 80.761719 142.542969 77.953125 143.003906 77.953125 C 143.101562 77.953125 143.003906 78.277344 142.777344 78.742188 C 142.429688 79.457031 142.316406 79.570312 141.214844 80.171875 C 138.890625 81.421875 137.355469 82.351562 136.78125 82.8125 C 136.125 83.347656 136.039062 83.375 136.039062 83.082031 Z M 136.039062 83.082031 "/>
<path style=" stroke:none;fill-rule:nonzero;fill:rgb(9.803922%,27.843137%,72.941176%);fill-opacity:1;" d="M 39.007812 76.140625 C 37.933594 75.792969 36.671875 75.132812 35.777344 74.441406 C 34.828125 73.699219 32.578125 71.480469 32.578125 71.28125 C 32.589844 70.804688 32.816406 70.804688 33.917969 71.269531 C 35.765625 72.039062 36.769531 72.25 38.730469 72.25 C 40.28125 72.25 40.601562 72.210938 41.59375 71.859375 C 43.257812 71.28125 44.546875 70.371094 45.410156 69.132812 L 45.734375 68.683594 L 43.75 68.683594 C 42.628906 68.683594 41.523438 68.613281 41.21875 68.515625 C 40.433594 68.277344 39.386719 67.292969 38.996094 66.410156 C 38.699219 65.75 38.660156 65.46875 38.671875 63.910156 C 38.671875 62.363281 38.730469 62.011719 39.0625 61.027344 C 39.804688 58.851562 41.398438 56.085938 42.753906 54.625 C 44.476562 52.742188 45.789062 52.53125 47.117188 53.921875 C 48.136719 54.988281 48.824219 56.617188 49.410156 59.398438 C 49.59375 60.269531 49.773438 61 49.800781 61.042969 C 49.84375 61.070312 54.78125 61.085938 60.761719 61.070312 L 71.667969 61.027344 L 70.996094 54.847656 C 70.632812 51.449219 70.339844 48.414062 70.328125 48.105469 C 70.328125 46.996094 70.648438 46.195312 71.726562 44.707031 C 72.71875 43.34375 72.984375 43.121094 72.984375 43.667969 C 72.984375 44.003906 73.949219 45.480469 74.519531 46 C 75.066406 46.503906 75.78125 47.574219 75.78125 47.894531 C 75.78125 48.023438 75.402344 48.765625 74.941406 49.554688 C 73.765625 51.535156 73.765625 51.5625 74.453125 58.710938 C 74.71875 61.351562 74.746094 65.242188 74.507812 66.296875 C 74.296875 67.28125 73.933594 68.011719 73.457031 68.390625 C 73.082031 68.683594 73.054688 68.683594 61.253906 68.683594 L 49.410156 68.683594 L 48.878906 69.78125 C 47.269531 73.066406 45.105469 75.355469 42.867188 76.128906 C 41.820312 76.492188 40.097656 76.492188 39.007812 76.140625 Z M 46.125 61.253906 C 46.40625 61.070312 46.207031 60.046875 45.71875 59.1875 C 45.007812 57.9375 43.984375 57.714844 42.8125 58.570312 C 42.222656 58.992188 41.414062 60.398438 41.59375 60.679688 C 41.652344 60.777344 41.886719 60.957031 42.140625 61.113281 C 42.503906 61.339844 42.839844 61.378906 44.25 61.378906 C 45.175781 61.378906 46.011719 61.324219 46.125 61.253906 Z M 46.125 61.253906 "/>
<path style=" stroke:none;fill-rule:nonzero;fill:rgb(9.803922%,27.843137%,72.941176%);fill-opacity:1;" d="M 105.671875 75.328125 C 104.929688 74.722656 104.289062 74.148438 104.230469 74.035156 C 104.078125 73.65625 106.386719 70.789062 106.832031 70.789062 C 107.085938 70.789062 107.785156 71.308594 109.628906 72.855469 C 109.824219 73.023438 109.964844 72.910156 110.746094 71.929688 C 111.347656 71.171875 111.738281 70.804688 111.9375 70.789062 C 112.328125 70.789062 115.066406 73.011719 115.066406 73.332031 C 115.066406 73.726562 112.832031 76.410156 112.496094 76.410156 C 112.328125 76.410156 111.570312 75.902344 110.816406 75.300781 L 109.433594 74.191406 L 108.523438 75.300781 C 107.910156 76.058594 107.53125 76.410156 107.320312 76.410156 C 107.152344 76.410156 106.425781 75.917969 105.671875 75.328125 Z M 105.671875 75.328125 "/>
<path style=" stroke:none;fill-rule:nonzero;fill:rgb(9.803922%,27.843137%,72.941176%);fill-opacity:1;" d="M 137.71875 75.285156 C 136.992188 74.679688 136.375 74.0625 136.347656 73.910156 C 136.292969 73.542969 138.527344 70.789062 138.878906 70.789062 C 139.199219 70.789062 141.871094 72.871094 141.980469 73.222656 C 142.050781 73.390625 141.730469 73.894531 140.90625 74.933594 C 139.96875 76.113281 139.675781 76.410156 139.394531 76.394531 C 139.171875 76.394531 138.554688 75.988281 137.71875 75.285156 Z M 137.71875 75.285156 "/>
<path style=" stroke:none;fill-rule:nonzero;fill:rgb(9.803922%,27.843137%,72.941176%);fill-opacity:1;" d="M 94.515625 74.570312 C 92.894531 74.289062 90.710938 72.996094 88.824219 71.171875 C 87.886719 70.257812 87.664062 69.976562 87.664062 69.640625 C 87.664062 69.289062 87.707031 69.230469 87.914062 69.316406 C 89.398438 69.949219 91.59375 70.300781 93.101562 70.160156 C 96.570312 69.835938 98.976562 68.25 101.476562 64.625 C 101.882812 64.050781 102.203125 63.527344 102.203125 63.457031 C 102.203125 63.390625 101.378906 62.363281 100.386719 61.167969 L 98.570312 59.007812 L 99.5625 56.71875 C 100.105469 55.453125 100.640625 54.214844 100.75 53.949219 L 100.945312 53.472656 L 101.6875 54.707031 C 102.636719 56.324219 103.996094 57.742188 105.085938 58.246094 C 105.796875 58.585938 106.078125 58.640625 107.195312 58.640625 C 107.894531 58.640625 108.523438 58.597656 108.582031 58.542969 C 108.636719 58.488281 108.511719 57.828125 108.316406 57.082031 L 107.949219 55.734375 L 108.679688 55.058594 C 109.082031 54.695312 109.910156 53.949219 110.523438 53.402344 L 111.640625 52.390625 L 111.753906 52.785156 C 111.808594 52.996094 112.074219 54.203125 112.328125 55.480469 C 112.59375 56.757812 112.941406 58.164062 113.109375 58.628906 C 113.5 59.667969 114.496094 60.734375 115.277344 60.945312 C 116.128906 61.183594 139.871094 61.15625 139.773438 60.929688 C 139.730469 60.832031 139.253906 59.625 138.710938 58.246094 L 137.703125 55.734375 L 138.65625 54.679688 C 139.171875 54.105469 139.898438 53.304688 140.25 52.910156 C 141.015625 52.054688 141.226562 52.082031 141.703125 53.136719 C 142.472656 54.792969 142.988281 57.726562 143.113281 61.097656 C 143.269531 64.625 142.808594 67.054688 141.785156 68.121094 L 141.253906 68.683594 L 127.386719 68.683594 C 111.835938 68.683594 113 68.769531 112.046875 67.644531 C 111.320312 66.800781 110.507812 65.03125 110.078125 63.347656 C 109.878906 62.53125 109.683594 61.84375 109.644531 61.800781 C 109.613281 61.757812 109.460938 61.929688 109.292969 62.152344 C 108.300781 63.515625 106.945312 64.414062 105.378906 64.75 L 104.636719 64.90625 L 104.398438 65.902344 C 103.644531 69.0625 101.714844 72.027344 99.476562 73.488281 C 98.082031 74.402344 96.09375 74.835938 94.515625 74.570312 Z M 94.515625 74.570312 "/>
<path style=" stroke:none;fill-rule:nonzero;fill:rgb(9.803922%,27.843137%,72.941176%);fill-opacity:1;" d="M 11.855469 68.460938 C 11.085938 68.21875 9.984375 67.417969 9.355469 66.648438 C 7.96875 64.90625 7.382812 61.941406 7.914062 59.300781 C 8.277344 57.433594 9.535156 55.15625 10.5 54.582031 C 10.960938 54.300781 10.988281 54.386719 10.683594 55.144531 C 10.515625 55.550781 10.472656 55.917969 10.542969 56.578125 C 10.695312 57.996094 11.117188 58.949219 12.023438 59.863281 C 13.324219 61.15625 12.777344 61.113281 23.9375 61.070312 L 33.527344 61.027344 L 32.480469 58.386719 L 31.429688 55.761719 L 32.058594 55.015625 C 33.878906 52.9375 34.632812 52.207031 34.855469 52.292969 C 35.414062 52.503906 36.128906 54.777344 36.574219 57.757812 C 36.910156 59.90625 36.910156 64.273438 36.605469 65.679688 C 36.324219 66.886719 35.792969 67.996094 35.289062 68.390625 C 34.910156 68.683594 34.882812 68.683594 23.710938 68.671875 C 14.414062 68.671875 12.402344 68.628906 11.855469 68.460938 Z M 11.855469 68.460938 "/>
<path style=" stroke:none;fill-rule:nonzero;fill:rgb(9.803922%,27.843137%,72.941176%);fill-opacity:1;" d="M 81.230469 64.890625 L 81.230469 61.097656 L 90.601562 61.097656 L 90.601562 60.636719 C 90.601562 59.976562 90.222656 58.78125 89.71875 57.796875 C 88.769531 56.015625 86.992188 54.738281 85.160156 54.527344 L 84.308594 54.425781 L 85.1875 52.601562 C 86.335938 50.242188 86.699219 49.90625 88.082031 49.988281 C 88.277344 50.003906 88.949219 50.269531 89.566406 50.566406 C 91.941406 51.730469 93.550781 54.328125 94.332031 58.246094 C 94.683594 60.074219 94.65625 63.472656 94.261719 64.917969 C 93.761719 66.800781 92.921875 68.066406 91.898438 68.488281 C 91.550781 68.640625 90.320312 68.683594 86.335938 68.683594 L 81.230469 68.683594 Z M 81.230469 64.890625 "/>
<path style=" stroke:none;fill-rule:nonzero;fill:rgb(9.803922%,27.843137%,72.941176%);fill-opacity:1;" d="M 19.265625 50.675781 C 18.398438 49.960938 17.894531 49.441406 17.894531 49.273438 C 17.894531 48.976562 19.992188 46.296875 20.328125 46.167969 C 20.554688 46.085938 21.238281 46.546875 22.609375 47.699219 C 23 48.035156 23.390625 48.316406 23.460938 48.316406 C 23.53125 48.316406 23.949219 47.882812 24.382812 47.335938 C 25.570312 45.875 25.472656 45.875 27.152344 47.222656 C 28.074219 47.980469 28.605469 48.5 28.632812 48.695312 C 28.691406 49.117188 26.523438 51.828125 26.117188 51.828125 C 25.976562 51.828125 25.222656 51.324219 24.46875 50.707031 L 23.082031 49.582031 L 22.160156 50.707031 C 21.503906 51.492188 21.140625 51.828125 20.929688 51.816406 C 20.761719 51.816406 20.007812 51.296875 19.265625 50.675781 Z M 19.265625 50.675781 "/>
<path style=" stroke:none;fill-rule:nonzero;fill:rgb(9.803922%,27.843137%,72.941176%);fill-opacity:1;" d="M 64.46875 48.78125 C 63.449219 48.246094 63.15625 47.292969 63.53125 45.773438 C 63.953125 44.144531 64.929688 43.121094 66.105469 43.121094 C 66.664062 43.121094 66.804688 43.191406 67.308594 43.722656 C 68.636719 45.113281 68.523438 47.601562 67.097656 48.554688 C 66.382812 49.035156 65.140625 49.144531 64.46875 48.78125 Z M 66.691406 47.125 C 67.78125 46.546875 67.53125 45.171875 66.273438 44.792969 C 65.25 44.484375 64.316406 45.214844 64.316406 46.324219 C 64.316406 46.757812 64.382812 46.957031 64.621094 47.109375 C 65.027344 47.390625 66.160156 47.40625 66.691406 47.125 Z M 66.691406 47.125 "/>
<path style=" stroke:none;fill-rule:nonzero;fill:rgb(9.803922%,27.843137%,72.941176%);fill-opacity:1;" d="M 19.363281 35.042969 C 17.644531 34.664062 16.539062 34.117188 15.28125 33.0625 C 14.890625 32.726562 14.527344 32.445312 14.484375 32.445312 C 14.441406 32.445312 14.402344 32.921875 14.402344 33.5 L 14.402344 34.550781 L 7.691406 34.550781 L 7.691406 9.269531 L 14.539062 9.269531 L 14.539062 13.554688 C 14.539062 15.914062 14.582031 17.839844 14.625 17.839844 C 14.667969 17.839844 15.058594 17.558594 15.492188 17.21875 C 17.492188 15.660156 20.132812 15 23.097656 15.308594 C 24.972656 15.492188 25.976562 15.773438 27.402344 16.476562 C 29.625 17.570312 31.277344 19.679688 31.976562 22.332031 C 32.351562 23.765625 32.3125 26.980469 31.90625 28.414062 C 30.898438 31.953125 28.410156 34.214844 24.691406 34.988281 C 23.179688 35.296875 20.621094 35.324219 19.363281 35.042969 Z M 22.300781 29.902344 C 23.445312 29.480469 24.1875 28.851562 24.675781 27.882812 C 25.082031 27.09375 25.097656 26.980469 25.097656 25.296875 C 25.097656 23.738281 25.054688 23.441406 24.761719 22.78125 C 24.355469 21.871094 23.445312 21.039062 22.382812 20.621094 C 21.320312 20.199219 18.652344 20.15625 17.460938 20.550781 C 16.246094 20.957031 15.394531 21.6875 14.820312 22.808594 C 14.359375 23.738281 14.332031 23.851562 14.332031 25.269531 C 14.332031 26.574219 14.371094 26.855469 14.695312 27.542969 C 15.351562 28.949219 16.636719 29.890625 18.316406 30.183594 C 19.449219 30.394531 21.363281 30.253906 22.300781 29.902344 Z M 22.300781 29.902344 "/>
<path style=" stroke:none;fill-rule:nonzero;fill:rgb(9.803922%,27.843137%,72.941176%);fill-opacity:1;" d="M 72.214844 35.113281 C 69.964844 34.707031 67.769531 33.582031 66.496094 32.152344 C 64.945312 30.421875 64.316406 28.667969 64.203125 25.832031 C 64.117188 23.441406 64.371094 22.066406 65.183594 20.367188 C 66.257812 18.117188 68.523438 16.320312 71.097656 15.660156 C 73.457031 15.058594 76.199219 15.113281 78.296875 15.816406 C 79.484375 16.222656 80.042969 16.53125 80.980469 17.304688 C 81.34375 17.597656 81.695312 17.839844 81.777344 17.839844 C 81.890625 17.839844 81.929688 16.503906 81.929688 13.554688 L 81.929688 9.269531 L 88.78125 9.269531 L 88.78125 34.550781 L 82.070312 34.550781 L 82.070312 33.5 C 82.070312 32.839844 82.015625 32.445312 81.917969 32.445312 C 81.832031 32.445312 81.429688 32.753906 81.007812 33.132812 C 80.199219 33.851562 78.996094 34.511719 77.738281 34.902344 C 76.84375 35.183594 73.359375 35.3125 72.214844 35.113281 Z M 77.917969 30.199219 C 80.269531 29.820312 81.722656 28.429688 82.070312 26.210938 C 82.363281 24.382812 81.847656 22.683594 80.6875 21.589844 C 79.652344 20.621094 78.714844 20.308594 76.6875 20.296875 C 74.226562 20.296875 72.898438 20.828125 71.976562 22.21875 C 71.417969 23.050781 71.25 23.765625 71.234375 25.28125 C 71.234375 26.871094 71.5 27.78125 72.226562 28.640625 C 73.402344 30 75.542969 30.589844 77.917969 30.199219 Z M 77.917969 30.199219 "/>
<path style=" stroke:none;fill-rule:nonzero;fill:rgb(9.803922%,27.843137%,72.941176%);fill-opacity:1;" d="M 111.265625 35.03125 C 109.78125 34.804688 107.726562 34.132812 106.679688 33.542969 C 105.433594 32.824219 103.839844 31.125 103.253906 29.902344 C 102.46875 28.230469 102.289062 27.289062 102.289062 25.140625 C 102.289062 22.9375 102.484375 21.996094 103.324219 20.28125 C 104.527344 17.824219 106.886719 16.179688 110.398438 15.378906 C 111.699219 15.070312 116.03125 14.945312 117.613281 15.15625 C 121.945312 15.730469 124.757812 17.457031 126.226562 20.4375 C 126.953125 21.898438 127.148438 22.878906 127.148438 25.070312 C 127.160156 27.375 127.023438 28.089844 126.183594 29.847656 C 124.839844 32.671875 122.085938 34.441406 118.046875 35.042969 C 116.355469 35.296875 112.929688 35.296875 111.265625 35.03125 Z M 116.339844 30.140625 C 117.515625 29.890625 118.214844 29.523438 118.871094 28.835938 C 119.738281 27.949219 120.015625 27.136719 120.074219 25.351562 C 120.144531 23.359375 119.847656 22.472656 118.785156 21.40625 C 117.710938 20.324219 116.84375 20.03125 114.71875 20.03125 C 113.292969 20.03125 112.914062 20.085938 112.214844 20.367188 C 111.167969 20.773438 110.160156 21.699219 109.742188 22.65625 C 109.445312 23.300781 109.40625 23.597656 109.40625 25.140625 C 109.40625 26.671875 109.445312 26.980469 109.726562 27.601562 C 110.71875 29.761719 113.347656 30.773438 116.339844 30.140625 Z M 116.339844 30.140625 "/>
<path style=" stroke:none;fill-rule:nonzero;fill:rgb(9.803922%,27.843137%,72.941176%);fill-opacity:1;" d="M 136.011719 34.691406 C 134.082031 34.34375 132.992188 33.753906 132.238281 32.65625 C 131.496094 31.574219 131.425781 30.929688 131.425781 25.183594 L 131.425781 19.945312 L 128.210938 19.945312 L 128.210938 15.730469 L 131.425781 15.730469 L 131.425781 10.535156 L 138.136719 10.535156 L 138.136719 15.730469 L 143.171875 15.730469 L 143.171875 19.945312 L 138.136719 19.945312 L 138.152344 23.988281 C 138.164062 26.210938 138.207031 28.175781 138.261719 28.371094 C 138.320312 28.570312 138.570312 28.863281 138.820312 29.03125 C 139.253906 29.328125 139.453125 29.355469 141.226562 29.355469 L 143.171875 29.355469 L 143.171875 31.941406 C 143.171875 34.496094 143.171875 34.523438 142.863281 34.609375 C 142.359375 34.761719 136.738281 34.832031 136.011719 34.691406 Z M 136.011719 34.691406 "/>
<path style=" stroke:none;fill-rule:nonzero;fill:rgb(9.803922%,27.843137%,72.941176%);fill-opacity:1;" d="M 35.234375 25.140625 L 35.234375 15.730469 L 42.085938 15.730469 L 42.085938 34.550781 L 35.234375 34.550781 Z M 35.234375 25.140625 "/>
<path style=" stroke:none;fill-rule:nonzero;fill:rgb(9.803922%,27.843137%,72.941176%);fill-opacity:1;" d="M 45.71875 25.140625 L 45.71875 15.730469 L 52.429688 15.730469 L 52.429688 16.996094 C 52.429688 17.699219 52.488281 18.257812 52.542969 18.257812 C 52.613281 18.257812 52.808594 18.089844 53.003906 17.894531 C 53.464844 17.390625 54.808594 16.488281 55.578125 16.152344 C 57.085938 15.507812 59.898438 15.070312 61.546875 15.238281 L 62.496094 15.339844 L 62.496094 21.941406 L 62.121094 21.855469 C 61.894531 21.800781 60.929688 21.730469 59.964844 21.671875 C 56.988281 21.53125 55.253906 21.996094 53.953125 23.300781 C 52.683594 24.582031 52.667969 24.707031 52.597656 30.03125 L 52.554688 34.550781 L 45.71875 34.550781 Z M 45.71875 25.140625 "/>
<path style=" stroke:none;fill-rule:nonzero;fill:rgb(9.803922%,27.843137%,72.941176%);fill-opacity:1;" d="M 92.417969 21.910156 L 92.417969 9.269531 L 99.269531 9.269531 L 99.269531 34.550781 L 92.417969 34.550781 Z M 92.417969 21.910156 "/>
<path style=" stroke:none;fill-rule:nonzero;fill:rgb(9.803922%,27.843137%,72.941176%);fill-opacity:1;" d="M 35.234375 11.167969 L 35.234375 9.128906 L 42.085938 9.128906 L 42.085938 13.203125 L 35.234375 13.203125 Z M 35.234375 11.167969 "/>
</g>
</svg>
