<?xml version="1.0" encoding="UTF-8"?>
<svg xmlns="http://www.w3.org/2000/svg" xmlns:xlink="http://www.w3.org/1999/xlink" width="152px" height="114px" viewBox="0 0 152 108" version="1.1">
<g id="surface1">
<path style=" stroke:none;fill-rule:nonzero;fill:rgb(0%,0%,0%);fill-opacity:1;" d="M 75.652344 84.601562 L 75.652344 84.015625 L 76.691406 84.015625 L 76.691406 85.191406 L 75.652344 85.191406 Z M 75.652344 84.601562 "/>
<path style=" stroke:none;fill-rule:nonzero;fill:rgb(0%,0%,0%);fill-opacity:1;" d="M 64.472656 82.265625 C 64.472656 81.585938 64.460938 79.777344 64.445312 78.25 L 64.417969 75.46875 L 64.945312 75.492188 C 65.335938 75.507812 65.488281 75.53125 65.519531 75.574219 C 65.539062 75.609375 65.558594 77.148438 65.558594 79.023438 L 65.558594 82.402344 L 67.953125 82.402344 C 69.265625 82.402344 70.390625 82.390625 70.441406 82.378906 L 70.539062 82.351562 L 70.511719 80.070312 L 70.484375 77.785156 L 71.042969 77.796875 L 71.601562 77.8125 L 71.625 80.097656 L 71.644531 82.382812 L 74.410156 82.394531 L 77.167969 82.402344 L 77.167969 79.464844 L 77.039062 79.238281 C 76.78125 78.785156 76.378906 78.664062 75.527344 78.796875 C 75.230469 78.84375 74.722656 78.890625 74.410156 78.910156 L 73.832031 78.933594 L 73.832031 78.71875 C 73.832031 78.59375 73.847656 78.378906 73.859375 78.230469 C 73.890625 77.972656 73.894531 77.964844 74.011719 77.964844 C 74.082031 77.964844 74.460938 77.910156 74.859375 77.847656 C 75.441406 77.753906 75.75 77.730469 76.367188 77.730469 C 77.078125 77.722656 77.164062 77.734375 77.347656 77.816406 C 77.589844 77.929688 77.878906 78.1875 78.023438 78.417969 C 78.265625 78.800781 78.269531 78.8125 78.292969 80.664062 L 78.316406 82.382812 L 78.925781 82.421875 C 79.507812 82.460938 81.167969 82.402344 81.40625 82.335938 C 81.542969 82.296875 81.527344 82.269531 81.316406 82.132812 C 80.804688 81.804688 80.425781 81.269531 80.09375 80.410156 C 79.835938 79.734375 79.730469 78.625 79.902344 78.417969 C 80.035156 78.253906 80.878906 77.929688 81.460938 77.8125 C 81.933594 77.714844 83.046875 77.679688 83.519531 77.742188 C 83.972656 77.800781 84.699219 78.035156 85.097656 78.238281 L 85.378906 78.386719 L 85.371094 78.949219 C 85.359375 80.136719 84.917969 81.144531 84.039062 82.011719 L 83.796875 82.25 L 84.046875 82.3125 C 84.222656 82.351562 84.734375 82.378906 85.785156 82.390625 C 86.601562 82.402344 87.296875 82.398438 87.328125 82.390625 C 87.371094 82.375 87.371094 82.304688 87.320312 82.046875 C 87.222656 81.515625 87.203125 80.269531 87.28125 79.300781 C 87.359375 78.351562 87.410156 78.09375 87.527344 77.984375 C 87.570312 77.945312 87.835938 77.867188 88.121094 77.808594 C 88.550781 77.71875 88.757812 77.703125 89.453125 77.703125 C 90.390625 77.703125 90.632812 77.746094 91.058594 77.984375 C 91.5625 78.269531 91.859375 78.65625 92 79.222656 C 92.070312 79.496094 92.089844 79.769531 92.113281 80.800781 C 92.140625 82.042969 92.140625 82.050781 92.246094 82.160156 C 92.40625 82.335938 92.589844 82.367188 93.46875 82.390625 L 94.285156 82.414062 L 94.292969 78.960938 L 94.308594 75.503906 L 94.851562 75.492188 L 95.398438 75.476562 L 95.429688 78.910156 C 95.445312 80.792969 95.46875 82.347656 95.480469 82.359375 C 95.492188 82.375 96.019531 82.386719 96.640625 82.394531 L 97.78125 82.410156 L 97.761719 78.941406 L 97.738281 75.484375 L 98.820312 75.484375 L 98.847656 78.300781 C 98.863281 79.84375 98.878906 81.636719 98.878906 82.28125 L 98.878906 83.449219 L 92.546875 83.449219 L 92.335938 83.339844 C 92.21875 83.277344 92.109375 83.230469 92.097656 83.230469 C 92.082031 83.230469 92.074219 83.277344 92.074219 83.339844 L 92.074219 83.453125 L 87.972656 83.4375 C 83.878906 83.421875 83.863281 83.421875 83.496094 83.328125 C 83.292969 83.273438 82.996094 83.179688 82.839844 83.117188 L 82.554688 83.007812 L 82.339844 83.117188 C 82.21875 83.179688 81.957031 83.269531 81.757812 83.316406 C 81.308594 83.421875 80.339844 83.441406 70.988281 83.46875 L 64.472656 83.496094 Z M 90.839844 82.226562 C 90.917969 82.148438 90.921875 82.089844 90.914062 81.136719 C 90.902344 80.292969 90.886719 80.09375 90.820312 79.863281 C 90.601562 79.160156 90.09375 78.839844 89.175781 78.820312 C 88.679688 78.8125 88.625 78.839844 88.5625 79.128906 C 88.480469 79.5 88.445312 80.484375 88.480469 81.367188 C 88.5 81.863281 88.527344 82.289062 88.542969 82.316406 C 88.566406 82.347656 88.898438 82.355469 89.660156 82.335938 C 90.644531 82.308594 90.761719 82.300781 90.839844 82.226562 Z M 83.273438 81.011719 C 83.800781 80.402344 84.121094 79.800781 84.175781 79.3125 L 84.203125 79.09375 L 83.902344 78.957031 C 83.625 78.824219 83.566406 78.816406 83.054688 78.800781 C 82.265625 78.773438 81.242188 78.964844 81.054688 79.175781 C 80.992188 79.246094 80.992188 79.277344 81.042969 79.492188 C 81.210938 80.136719 81.542969 80.652344 82.171875 81.261719 L 82.585938 81.667969 L 82.828125 81.460938 C 82.957031 81.347656 83.164062 81.140625 83.273438 81.011719 Z M 83.273438 81.011719 "/>
<path style=" stroke:none;fill-rule:nonzero;fill:rgb(0%,0%,0%);fill-opacity:1;" d="M 58.601562 83.40625 C 57.441406 83.382812 57.324219 83.375 57.074219 83.28125 C 56.574219 83.105469 56.292969 82.867188 56.085938 82.449219 C 55.992188 82.257812 55.960938 82.132812 55.945312 81.824219 C 55.921875 81.3125 56.058594 79.890625 56.203125 79.195312 L 56.246094 78.964844 L 56.449219 78.964844 C 56.5625 78.964844 56.785156 78.976562 56.949219 78.996094 L 57.238281 79.023438 L 57.238281 79.199219 C 57.238281 79.300781 57.207031 79.527344 57.171875 79.703125 C 57.101562 80.082031 57.039062 81.351562 57.082031 81.589844 C 57.121094 81.789062 57.324219 82.03125 57.550781 82.148438 C 57.980469 82.367188 59.230469 82.46875 60.769531 82.402344 C 61.339844 82.382812 61.8125 82.359375 61.824219 82.359375 C 61.828125 82.359375 61.832031 81.339844 61.832031 80.097656 L 61.832031 77.832031 L 63 77.832031 L 63 83.449219 L 61.433594 83.441406 C 60.566406 83.4375 59.296875 83.417969 58.601562 83.40625 Z M 58.601562 83.40625 "/>
<path style=" stroke:none;fill-rule:nonzero;fill:rgb(0%,0%,0%);fill-opacity:1;" d="M 58.4375 78.105469 C 58.398438 78.074219 58.398438 77.742188 58.4375 77.28125 L 58.464844 76.917969 L 59.492188 76.917969 L 59.492188 78.136719 L 58.980469 78.136719 C 58.699219 78.136719 58.453125 78.125 58.4375 78.105469 Z M 58.4375 78.105469 "/>
<path style=" stroke:none;fill-rule:nonzero;fill:rgb(0%,0%,0%);fill-opacity:1;" d="M 59.75 77.527344 L 59.75 76.917969 L 60.777344 76.917969 L 60.804688 77.492188 C 60.816406 77.8125 60.816406 78.085938 60.808594 78.101562 C 60.796875 78.121094 60.554688 78.136719 60.265625 78.136719 L 59.75 78.136719 Z M 59.75 77.527344 "/>
<path style=" stroke:none;fill-rule:nonzero;fill:rgb(0%,0%,0%);fill-opacity:1;" d="M 70.496094 76.617188 C 70.496094 76.332031 70.511719 76.070312 70.523438 76.03125 C 70.542969 75.972656 70.636719 75.960938 71.066406 75.960938 L 71.582031 75.960938 L 71.582031 77.136719 L 70.496094 77.136719 Z M 70.496094 76.617188 "/>
<path style=" stroke:none;fill-rule:nonzero;fill:rgb(0%,0%,0%);fill-opacity:1;" d="M 112.65625 71.214844 L 112.65625 70.433594 L 114.867188 70.433594 L 114.867188 72 L 112.65625 72 Z M 112.65625 71.214844 "/>
<path style=" stroke:none;fill-rule:nonzero;fill:rgb(0%,0%,0%);fill-opacity:1;" d="M 115.125 71.214844 L 115.125 70.433594 L 117.335938 70.433594 L 117.335938 72 L 115.125 72 Z M 115.125 71.214844 "/>
<path style=" stroke:none;fill-rule:nonzero;fill:rgb(0%,0%,0%);fill-opacity:1;" d="M 121.453125 71.214844 L 121.453125 70.433594 L 123.664062 70.433594 L 123.664062 72 L 121.453125 72 Z M 121.453125 71.214844 "/>
<path style=" stroke:none;fill-rule:nonzero;fill:rgb(0%,0%,0%);fill-opacity:1;" d="M 45.019531 69.417969 L 45.019531 68.660156 L 45.546875 68.636719 C 45.832031 68.617188 46.324219 68.605469 46.632812 68.605469 L 47.1875 68.605469 L 47.1875 70.171875 L 45.019531 70.171875 Z M 45.019531 69.417969 "/>
<path style=" stroke:none;fill-rule:nonzero;fill:rgb(0%,0%,0%);fill-opacity:1;" d="M 47.417969 69.421875 C 47.4375 69.007812 47.457031 68.664062 47.464844 68.65625 C 47.472656 68.652344 47.949219 68.636719 48.523438 68.617188 L 49.570312 68.589844 L 49.570312 70.171875 L 47.390625 70.171875 Z M 47.417969 69.421875 "/>
<path style=" stroke:none;fill-rule:nonzero;fill:rgb(0%,0%,0%);fill-opacity:1;" d="M 27.722656 67.835938 C 27.714844 67.8125 27.714844 66.078125 27.722656 63.980469 L 27.738281 60.160156 L 29.855469 60.160156 L 29.863281 63.480469 L 29.875 66.796875 L 52.625 66.796875 L 52.636719 65.484375 L 52.644531 64.164062 L 46.492188 64.164062 L 46.492188 57.460938 L 54.8125 57.460938 L 54.8125 58.460938 L 48.703125 58.460938 L 48.703125 63.121094 L 54.855469 63.121094 L 54.855469 67.808594 L 54.046875 67.835938 C 52.90625 67.878906 27.738281 67.875 27.722656 67.835938 Z M 27.722656 67.835938 "/>
<path style=" stroke:none;fill-rule:nonzero;fill:rgb(0%,0%,0%);fill-opacity:1;" d="M 57.109375 61.855469 L 57.109375 55.894531 L 59.316406 55.894531 L 59.316406 67.820312 L 57.109375 67.820312 Z M 57.109375 61.855469 "/>
<path style=" stroke:none;fill-rule:nonzero;fill:rgb(0%,0%,0%);fill-opacity:1;" d="M 71.535156 61.855469 L 71.535156 55.894531 L 73.746094 55.894531 L 73.746094 67.820312 L 71.535156 67.820312 Z M 71.535156 61.855469 "/>
<path style=" stroke:none;fill-rule:nonzero;fill:rgb(0%,0%,0%);fill-opacity:1;" d="M 80.074219 67.296875 L 80.074219 66.777344 L 96.886719 66.777344 L 96.886719 64.164062 L 91.894531 64.164062 C 87.769531 64.164062 80.292969 64.097656 80.261719 64.0625 C 80.257812 64.058594 80.25 63.828125 80.242188 63.550781 L 80.226562 63.046875 L 83.453125 60.253906 L 86.679688 57.464844 L 87.453125 57.464844 L 88.222656 57.460938 L 88.210938 57.625 C 88.195312 57.789062 88.101562 57.878906 85.234375 60.425781 L 82.269531 63.054688 L 83.910156 63.082031 C 84.8125 63.09375 88.621094 63.109375 92.371094 63.117188 L 99.179688 63.121094 L 99.179688 66.777344 L 116.339844 66.777344 L 116.339844 63.164062 L 118.550781 63.164062 L 118.550781 66.777344 L 121.625 66.777344 L 121.625 60.726562 L 123.835938 60.726562 L 123.835938 64.199219 C 123.832031 67.015625 123.824219 67.683594 123.773438 67.746094 C 123.71875 67.816406 122.625 67.820312 101.894531 67.820312 L 80.074219 67.820312 Z M 80.074219 67.296875 "/>
<path style=" stroke:none;fill-rule:nonzero;fill:rgb(0%,0%,0%);fill-opacity:1;" d="M 61.992188 67.617188 C 61.972656 67.601562 61.960938 67.367188 61.960938 67.09375 L 61.960938 66.601562 L 68.058594 66.601562 L 68.082031 65.199219 C 68.097656 64.425781 68.097656 63.78125 68.089844 63.765625 C 68.074219 63.742188 67.269531 63.730469 66.296875 63.730469 C 64.371094 63.730469 64.171875 63.710938 63.472656 63.472656 C 62.476562 63.136719 61.539062 62.441406 61.238281 61.8125 C 61.050781 61.425781 60.996094 61.105469 60.992188 60.441406 C 60.992188 59.730469 61.082031 59.398438 61.410156 58.910156 C 61.894531 58.195312 62.734375 57.714844 63.953125 57.449219 C 64.339844 57.363281 64.539062 57.359375 67.367188 57.34375 L 70.367188 57.324219 L 70.367188 59.542969 C 70.367188 60.761719 70.355469 63.082031 70.335938 64.699219 L 70.3125 67.648438 L 66.164062 67.648438 C 63.886719 67.648438 62.003906 67.632812 61.992188 67.617188 Z M 68.070312 60.550781 L 68.070312 58.375 L 67.339844 58.375 C 66.410156 58.375 65.613281 58.441406 65.179688 58.550781 C 64.472656 58.730469 63.835938 59.140625 63.582031 59.582031 C 63.191406 60.242188 63.222656 61.070312 63.652344 61.71875 C 63.855469 62.023438 64.09375 62.230469 64.453125 62.414062 C 64.972656 62.675781 65.273438 62.710938 66.933594 62.722656 L 68.070312 62.726562 Z M 68.070312 60.550781 "/>
<path style=" stroke:none;fill-rule:nonzero;fill:rgb(0%,0%,0%);fill-opacity:1;" d="M 72.265625 55.382812 L 70.105469 55.371094 L 70.105469 54.585938 L 70.765625 54.585938 L 70.5625 54.390625 C 70.445312 54.273438 70.304688 54.074219 70.226562 53.902344 C 70.105469 53.648438 70.089844 53.566406 70.074219 53.089844 C 70.042969 52.285156 70.195312 51.875 70.6875 51.421875 C 71.332031 50.832031 72.125 50.625 73.804688 50.625 L 74.785156 50.625 L 74.785156 51.441406 L 74.191406 51.472656 C 73.488281 51.503906 73.09375 51.578125 72.730469 51.75 C 72.253906 51.976562 71.96875 52.3125 71.863281 52.78125 C 71.742188 53.308594 72.027344 53.933594 72.535156 54.257812 C 72.902344 54.492188 73.027344 54.519531 73.941406 54.539062 L 74.808594 54.566406 L 74.808594 55.394531 L 74.613281 55.394531 C 74.503906 55.394531 73.449219 55.386719 72.265625 55.382812 Z M 72.265625 55.382812 "/>
<path style=" stroke:none;fill-rule:nonzero;fill:rgb(0%,0%,0%);fill-opacity:1;" d="M 78.1875 45.339844 C 77.769531 45.207031 77.375 44.929688 77.152344 44.605469 C 76.824219 44.128906 76.289062 42.671875 76.109375 41.769531 C 75.578125 39.113281 75.46875 36.820312 75.738281 34.148438 C 76.066406 30.953125 76.539062 28.351562 77.429688 24.835938 C 77.859375 23.136719 77.914062 22.957031 78.085938 22.753906 C 78.199219 22.609375 78.238281 22.589844 78.378906 22.601562 L 78.535156 22.613281 L 78.5625 23.160156 C 78.578125 23.457031 78.601562 28.585938 78.613281 34.554688 L 78.632812 45.402344 L 78.5 45.398438 C 78.421875 45.398438 78.285156 45.371094 78.1875 45.339844 Z M 78.1875 45.339844 "/>
<path style=" stroke:none;fill-rule:nonzero;fill:rgb(0%,0%,0%);fill-opacity:1;" d="M 80.234375 37.734375 C 80.191406 26.167969 80.195312 22.617188 80.253906 22.558594 C 80.285156 22.527344 80.367188 22.503906 80.4375 22.503906 C 80.5625 22.503906 80.691406 22.617188 80.828125 22.839844 C 80.878906 22.933594 81.054688 23.550781 81.484375 25.160156 C 82.878906 30.367188 83.234375 32.539062 83.234375 35.890625 C 83.234375 39.535156 82.808594 42.40625 82.03125 43.945312 C 81.644531 44.714844 80.949219 45.316406 80.4375 45.316406 L 80.257812 45.316406 Z M 80.234375 37.734375 "/>
<path style=" stroke:none;fill-rule:nonzero;fill:rgb(0%,0%,0%);fill-opacity:1;" d="M 74.121094 44.667969 C 73.375 44.28125 72.710938 43.679688 72.238281 42.96875 C 71.949219 42.535156 71.359375 41.359375 71.125 40.742188 C 70.960938 40.308594 70.78125 39.617188 70.707031 39.113281 C 70.636719 38.660156 70.640625 36.582031 70.710938 35.890625 C 70.960938 33.347656 71.582031 31.175781 72.882812 28.277344 C 73.195312 27.585938 75.28125 23.296875 75.515625 22.863281 C 75.558594 22.792969 75.609375 22.765625 75.71875 22.765625 C 75.855469 22.765625 75.871094 22.773438 75.871094 22.902344 C 75.871094 22.976562 75.683594 23.773438 75.460938 24.675781 C 74.148438 29.9375 73.664062 33.097656 73.660156 36.335938 C 73.660156 38.820312 73.988281 41.375 74.640625 43.917969 C 74.71875 44.242188 74.785156 44.578125 74.785156 44.671875 C 74.785156 44.835938 74.785156 44.835938 74.617188 44.835938 C 74.5 44.835938 74.335938 44.78125 74.121094 44.667969 Z M 74.121094 44.667969 "/>
<path style=" stroke:none;fill-rule:nonzero;fill:rgb(0%,0%,0%);fill-opacity:1;" d="M 83.757812 44.382812 C 83.757812 44.300781 83.84375 43.867188 83.949219 43.414062 C 84.316406 41.851562 84.574219 40.296875 84.738281 38.65625 C 84.847656 37.574219 84.847656 34.660156 84.738281 33.539062 C 84.457031 30.683594 83.9375 28.046875 82.820312 23.824219 C 82.667969 23.242188 82.542969 22.71875 82.542969 22.65625 C 82.542969 22.5625 82.558594 22.550781 82.710938 22.550781 L 82.878906 22.550781 L 83.421875 23.605469 C 83.722656 24.1875 84.21875 25.160156 84.535156 25.769531 C 86.394531 29.371094 87.203125 31.542969 87.628906 34.042969 C 87.816406 35.136719 87.851562 35.640625 87.851562 37.109375 C 87.851562 38.269531 87.835938 38.566406 87.773438 38.894531 C 87.632812 39.609375 87.429688 40.230469 87.113281 40.898438 C 87.011719 41.113281 86.839844 41.480469 86.734375 41.710938 C 86.542969 42.121094 86.160156 42.75 85.933594 43.03125 C 85.347656 43.757812 84.300781 44.53125 83.90625 44.53125 C 83.765625 44.53125 83.757812 44.523438 83.757812 44.382812 Z M 83.757812 44.382812 "/>
<path style=" stroke:none;fill-rule:nonzero;fill:rgb(0%,0%,0%);fill-opacity:1;" d="M 75.945312 20.242188 C 75.925781 19.800781 75.914062 18.882812 75.914062 18.195312 L 75.914062 16.941406 L 77.269531 16.917969 C 78.011719 16.898438 79.34375 16.890625 80.226562 16.898438 L 81.828125 16.910156 L 81.878906 18.328125 C 81.90625 19.105469 81.933594 20.007812 81.933594 20.332031 L 81.9375 20.925781 L 81.558594 20.953125 C 81.347656 20.96875 80.007812 20.996094 78.574219 21.007812 L 75.96875 21.039062 Z M 75.945312 20.242188 "/>
<path style=" stroke:none;fill-rule:nonzero;fill:rgb(100%,100%,100%);fill-opacity:1;" d="M 0 54.023438 L 0 0.0429688 L 152 0.0429688 L 152 108 L 0 108 Z M 76.5625 84.601562 L 76.5625 84.144531 L 75.785156 84.144531 L 75.785156 85.058594 L 76.5625 85.058594 Z M 79.269531 83.296875 C 81.042969 83.273438 81.304688 83.265625 81.617188 83.1875 C 82.011719 83.097656 82.144531 83.039062 82.382812 82.886719 C 82.539062 82.785156 82.554688 82.78125 82.667969 82.851562 C 82.835938 82.953125 83.203125 83.082031 83.625 83.195312 C 83.996094 83.292969 84.007812 83.292969 87.972656 83.304688 L 91.945312 83.324219 L 91.945312 82.9375 L 92.304688 83.125 L 92.660156 83.3125 L 95.707031 83.316406 L 98.746094 83.316406 L 98.746094 82.28125 C 98.746094 81.710938 98.734375 79.976562 98.71875 78.429688 L 98.691406 75.613281 L 97.867188 75.613281 L 97.890625 79.074219 L 97.917969 82.539062 L 96.648438 82.527344 C 95.949219 82.515625 95.363281 82.503906 95.351562 82.492188 C 95.339844 82.476562 95.316406 80.921875 95.300781 79.039062 L 95.269531 75.609375 L 94.851562 75.621094 L 94.4375 75.636719 L 94.421875 79.085938 L 94.414062 82.535156 L 93.644531 82.535156 C 92.832031 82.535156 92.378906 82.480469 92.21875 82.378906 C 91.992188 82.234375 91.988281 82.195312 91.972656 80.898438 C 91.957031 79.570312 91.90625 79.226562 91.675781 78.828125 C 91.429688 78.40625 90.917969 78.035156 90.40625 77.902344 C 89.984375 77.789062 88.886719 77.808594 88.25 77.9375 C 87.96875 78 87.699219 78.078125 87.65625 78.117188 C 87.539062 78.226562 87.492188 78.480469 87.414062 79.429688 C 87.332031 80.433594 87.347656 81.308594 87.460938 81.957031 C 87.503906 82.199219 87.527344 82.429688 87.511719 82.46875 C 87.488281 82.527344 87.300781 82.535156 85.996094 82.535156 C 84.515625 82.535156 84.035156 82.5 83.589844 82.355469 L 83.453125 82.308594 L 83.800781 81.980469 C 84.722656 81.109375 85.21875 80.066406 85.242188 78.949219 L 85.25 78.515625 L 84.96875 78.367188 C 84.59375 78.171875 83.855469 77.9375 83.441406 77.882812 C 82.539062 77.753906 81.507812 77.886719 80.636719 78.230469 C 79.953125 78.503906 79.898438 78.582031 79.984375 79.292969 C 80.039062 79.761719 80.167969 80.1875 80.398438 80.6875 C 80.675781 81.292969 81 81.695312 81.503906 82.046875 C 81.972656 82.367188 81.820312 82.464844 80.714844 82.539062 C 80 82.585938 78.300781 82.570312 78.210938 82.511719 C 78.183594 82.496094 78.167969 81.890625 78.167969 80.953125 C 78.167969 80.109375 78.148438 79.304688 78.125 79.164062 C 78.039062 78.648438 77.675781 78.160156 77.222656 77.949219 C 76.917969 77.8125 75.984375 77.820312 74.992188 77.976562 C 74.589844 78.042969 74.207031 78.09375 74.136719 78.09375 C 74.039062 78.09375 74.007812 78.117188 74.007812 78.175781 C 74.007812 78.21875 73.992188 78.378906 73.976562 78.53125 L 73.949219 78.804688 L 74.378906 78.777344 C 74.613281 78.765625 75.089844 78.707031 75.4375 78.65625 C 75.976562 78.578125 76.109375 78.574219 76.367188 78.617188 C 76.777344 78.683594 77.007812 78.824219 77.167969 79.109375 L 77.300781 79.335938 L 77.300781 82.535156 L 74.410156 82.527344 L 71.515625 82.511719 L 71.492188 80.226562 L 71.472656 77.941406 L 71.042969 77.929688 L 70.613281 77.914062 L 70.644531 80.195312 L 70.675781 82.480469 L 70.574219 82.507812 C 70.519531 82.519531 69.339844 82.535156 67.953125 82.535156 L 65.425781 82.535156 L 65.425781 79.152344 C 65.425781 77.289062 65.410156 75.738281 65.386719 75.707031 C 65.367188 75.675781 65.210938 75.644531 64.949219 75.625 L 64.546875 75.601562 L 64.574219 78.1875 C 64.589844 79.609375 64.605469 81.355469 64.605469 82.070312 L 64.605469 83.363281 L 70.945312 83.339844 C 74.425781 83.328125 78.175781 83.308594 79.269531 83.296875 Z M 62.871094 80.640625 L 62.871094 77.964844 L 61.960938 77.964844 L 61.960938 82.480469 L 61.5625 82.507812 C 60.546875 82.570312 59.625 82.578125 58.949219 82.535156 C 57.765625 82.457031 57.394531 82.355469 57.117188 82.039062 C 57.042969 81.949219 56.96875 81.8125 56.953125 81.71875 C 56.90625 81.46875 56.96875 79.9375 57.042969 79.574219 C 57.078125 79.394531 57.109375 79.226562 57.109375 79.199219 C 57.109375 79.152344 56.429688 79.066406 56.382812 79.109375 C 56.292969 79.203125 56.046875 81.359375 56.078125 81.796875 C 56.125 82.429688 56.519531 82.910156 57.203125 83.152344 C 57.453125 83.242188 57.570312 83.253906 58.734375 83.273438 C 59.425781 83.289062 60.640625 83.304688 61.433594 83.308594 L 62.871094 83.316406 Z M 59.363281 77.527344 L 59.363281 77.050781 L 58.59375 77.050781 L 58.5625 77.484375 C 58.546875 77.722656 58.542969 77.9375 58.558594 77.964844 C 58.574219 77.988281 58.753906 78.007812 58.976562 78.007812 L 59.363281 78.007812 Z M 60.671875 77.976562 C 60.679688 77.953125 60.679688 77.742188 60.671875 77.496094 L 60.65625 77.050781 L 59.882812 77.050781 L 59.882812 78.007812 L 60.265625 78.007812 C 60.484375 78.007812 60.660156 77.996094 60.671875 77.976562 Z M 71.449219 76.550781 L 71.449219 76.09375 L 71.066406 76.09375 C 70.753906 76.09375 70.675781 76.105469 70.652344 76.160156 C 70.640625 76.199219 70.628906 76.40625 70.628906 76.617188 L 70.628906 77.007812 L 71.449219 77.007812 Z M 114.738281 71.214844 L 114.738281 70.5625 L 112.785156 70.5625 L 112.785156 71.871094 L 114.738281 71.871094 Z M 117.207031 71.214844 L 117.207031 70.5625 L 115.257812 70.5625 L 115.257812 71.871094 L 117.207031 71.871094 Z M 123.53125 71.214844 L 123.53125 70.5625 L 121.582031 70.5625 L 121.582031 71.871094 L 123.53125 71.871094 Z M 47.054688 69.386719 L 47.054688 68.734375 L 46.632812 68.734375 C 46.394531 68.734375 45.964844 68.75 45.679688 68.765625 L 45.148438 68.792969 L 45.148438 70.042969 L 47.054688 70.042969 Z M 49.4375 69.378906 L 49.4375 68.722656 L 48.519531 68.753906 C 48.019531 68.765625 47.597656 68.78125 47.59375 68.792969 C 47.589844 68.796875 47.570312 69.078125 47.554688 69.421875 L 47.523438 70.042969 L 49.4375 70.042969 Z M 53.914062 67.703125 L 54.726562 67.675781 L 54.726562 63.25 L 48.574219 63.25 L 48.574219 58.332031 L 54.683594 58.332031 L 54.683594 57.589844 L 46.621094 57.589844 L 46.621094 64.035156 L 52.773438 64.035156 L 52.765625 65.484375 L 52.753906 66.929688 L 29.746094 66.929688 L 29.734375 63.613281 L 29.722656 60.289062 L 27.871094 60.289062 L 27.851562 63.980469 C 27.84375 66.011719 27.84375 67.683594 27.851562 67.703125 C 27.871094 67.742188 52.773438 67.746094 53.914062 67.703125 Z M 59.1875 61.855469 L 59.1875 56.023438 L 57.238281 56.023438 L 57.238281 67.691406 L 59.1875 67.691406 Z M 73.617188 61.855469 L 73.617188 56.023438 L 71.667969 56.023438 L 71.667969 67.691406 L 73.617188 67.691406 Z M 123.644531 67.617188 C 123.691406 67.550781 123.703125 66.90625 123.707031 64.199219 L 123.707031 60.855469 L 121.757812 60.855469 L 121.757812 66.90625 L 118.417969 66.90625 L 118.417969 63.292969 L 116.46875 63.292969 L 116.46875 66.90625 L 99.050781 66.90625 L 99.050781 63.25 L 92.261719 63.246094 C 88.523438 63.242188 84.652344 63.222656 83.65625 63.210938 L 81.84375 63.183594 L 84.957031 60.425781 C 86.667969 58.90625 88.074219 57.648438 88.082031 57.625 C 88.089844 57.605469 87.808594 57.59375 87.453125 57.601562 L 86.800781 57.613281 L 80.355469 63.175781 L 80.378906 63.933594 L 81.429688 63.964844 C 82.003906 63.976562 85.75 64.003906 89.75 64.015625 L 97.015625 64.046875 L 97.015625 66.90625 L 80.203125 66.90625 L 80.203125 67.691406 L 101.894531 67.691406 C 122.503906 67.691406 123.589844 67.6875 123.644531 67.617188 Z M 70.207031 64.570312 C 70.222656 62.949219 70.238281 60.6875 70.238281 59.542969 L 70.238281 57.457031 L 67.367188 57.472656 C 64.671875 57.492188 64.46875 57.496094 64.085938 57.582031 C 62.863281 57.84375 62.027344 58.328125 61.539062 59.035156 C 61.234375 59.496094 61.128906 59.835938 61.128906 60.421875 C 61.125 60.976562 61.191406 61.3125 61.367188 61.683594 C 61.671875 62.308594 62.605469 63.007812 63.601562 63.339844 C 64.300781 63.582031 64.5 63.597656 66.429688 63.597656 C 67.398438 63.597656 68.203125 63.617188 68.21875 63.636719 C 68.230469 63.660156 68.230469 64.363281 68.214844 65.203125 L 68.1875 66.734375 L 62.089844 66.734375 L 62.089844 67.09375 C 62.089844 67.292969 62.105469 67.472656 62.121094 67.484375 C 62.132812 67.503906 63.953125 67.515625 66.164062 67.515625 L 70.179688 67.515625 Z M 74.679688 54.980469 L 74.679688 54.695312 L 73.8125 54.671875 C 72.898438 54.648438 72.777344 54.621094 72.402344 54.390625 C 71.566406 53.863281 71.4375 52.558594 72.15625 51.902344 C 72.542969 51.554688 73.105469 51.382812 74.0625 51.339844 L 74.65625 51.308594 L 74.65625 50.757812 L 73.804688 50.757812 C 72.269531 50.757812 71.445312 50.980469 70.816406 51.554688 C 70.34375 51.984375 70.167969 52.4375 70.207031 53.089844 C 70.242188 53.726562 70.445312 54.097656 70.945312 54.46875 L 71.246094 54.695312 L 70.742188 54.710938 L 70.238281 54.722656 L 70.238281 55.242188 L 72.394531 55.253906 C 73.578125 55.257812 74.578125 55.261719 74.613281 55.261719 C 74.664062 55.261719 74.679688 55.203125 74.679688 54.980469 Z M 78.476562 34.03125 C 78.457031 25.847656 78.433594 22.800781 78.402344 22.765625 C 78.324219 22.6875 78.089844 23.007812 77.988281 23.332031 C 77.875 23.695312 77.261719 26.117188 77.066406 26.96875 C 76.378906 29.964844 75.847656 33.601562 75.746094 36.011719 C 75.671875 37.703125 75.84375 39.652344 76.238281 41.636719 C 76.421875 42.542969 76.953125 43.996094 77.28125 44.476562 C 77.503906 44.796875 77.90625 45.085938 78.316406 45.207031 C 78.414062 45.238281 78.496094 45.257812 78.5 45.253906 C 78.503906 45.253906 78.492188 40.199219 78.476562 34.03125 Z M 80.703125 45.082031 C 82.0625 44.441406 82.78125 42.230469 83.0625 37.851562 C 83.117188 36.957031 83.117188 34.808594 83.0625 34.019531 C 82.886719 31.570312 82.472656 29.457031 81.355469 25.292969 C 80.925781 23.679688 80.75 23.0625 80.695312 22.972656 C 80.679688 22.945312 80.613281 22.859375 80.554688 22.78125 C 80.328125 22.492188 80.332031 22.425781 80.332031 26.378906 C 80.332031 34.832031 80.390625 45.183594 80.4375 45.183594 C 80.464844 45.183594 80.585938 45.136719 80.703125 45.082031 Z M 74.65625 44.671875 C 74.65625 44.648438 74.585938 44.371094 74.507812 44.050781 C 74.039062 42.203125 73.703125 40.125 73.574219 38.230469 C 73.515625 37.382812 73.515625 35.3125 73.574219 34.453125 C 73.753906 31.683594 74.253906 28.875 75.300781 24.660156 C 75.800781 22.667969 75.761719 22.855469 75.675781 22.96875 C 75.566406 23.109375 73.449219 27.449219 73.015625 28.410156 C 71.710938 31.308594 71.085938 33.492188 70.839844 36.023438 C 70.769531 36.710938 70.769531 38.535156 70.835938 38.980469 C 70.910156 39.484375 71.089844 40.179688 71.253906 40.609375 C 71.488281 41.226562 72.078125 42.402344 72.367188 42.839844 C 72.839844 43.546875 73.503906 44.148438 74.25 44.535156 C 74.578125 44.710938 74.65625 44.730469 74.65625 44.671875 Z M 84.117188 44.308594 C 84.640625 44.039062 85.378906 43.421875 85.804688 42.898438 C 86.03125 42.621094 86.410156 41.988281 86.601562 41.582031 C 86.710938 41.351562 86.878906 40.984375 86.984375 40.765625 C 87.300781 40.101562 87.503906 39.476562 87.644531 38.765625 C 87.707031 38.441406 87.71875 38.144531 87.71875 37.109375 C 87.71875 35.773438 87.683594 35.246094 87.5 34.171875 C 87.074219 31.671875 86.265625 29.5 84.40625 25.902344 C 84.089844 25.292969 83.589844 24.316406 83.292969 23.738281 C 82.992188 23.152344 82.734375 22.679688 82.714844 22.679688 C 82.699219 22.679688 82.738281 22.886719 82.808594 23.148438 C 83.96875 27.4375 84.582031 30.503906 84.871094 33.410156 C 84.976562 34.539062 84.976562 37.699219 84.871094 38.785156 C 84.703125 40.425781 84.445312 41.980469 84.082031 43.542969 C 83.972656 43.996094 83.886719 44.375 83.886719 44.382812 C 83.886719 44.417969 83.933594 44.402344 84.117188 44.308594 Z M 81.40625 20.824219 L 81.804688 20.800781 L 81.800781 20.332031 C 81.800781 20.082031 81.777344 19.234375 81.75 18.457031 L 81.699219 17.042969 L 80.226562 17.027344 C 79.414062 17.019531 78.140625 17.027344 77.398438 17.042969 L 76.042969 17.074219 L 76.042969 18.195312 C 76.042969 18.808594 76.054688 19.671875 76.074219 20.109375 L 76.101562 20.90625 L 78.550781 20.878906 C 79.898438 20.863281 81.1875 20.839844 81.40625 20.824219 Z M 81.40625 20.824219 "/>
<path style=" stroke:none;fill-rule:nonzero;fill:rgb(100%,100%,100%);fill-opacity:1;" d="M 88.414062 82.453125 C 88.351562 82.347656 88.304688 80.425781 88.347656 79.792969 C 88.402344 79.078125 88.445312 78.851562 88.542969 78.75 C 88.640625 78.65625 89.613281 78.660156 89.957031 78.761719 C 90.472656 78.914062 90.792969 79.230469 90.949219 79.742188 C 91.027344 79.992188 91.039062 80.160156 91.046875 81.148438 C 91.058594 82.222656 91.050781 82.273438 90.96875 82.355469 C 90.890625 82.429688 90.785156 82.4375 89.667969 82.46875 C 88.785156 82.492188 88.4375 82.488281 88.414062 82.453125 Z M 88.414062 82.453125 "/>
<path style=" stroke:none;fill-rule:nonzero;fill:rgb(100%,100%,100%);fill-opacity:1;" d="M 82.046875 81.398438 C 81.796875 81.160156 81.507812 80.832031 81.398438 80.671875 C 81.152344 80.308594 80.910156 79.71875 80.871094 79.386719 C 80.832031 79.070312 80.890625 78.996094 81.273438 78.878906 C 81.808594 78.710938 82.316406 78.652344 83.050781 78.667969 C 83.710938 78.683594 83.742188 78.691406 84.023438 78.820312 C 84.375 78.988281 84.402344 79.050781 84.300781 79.488281 C 84.167969 80.082031 83.933594 80.523438 83.414062 81.132812 C 83.144531 81.445312 82.6875 81.839844 82.582031 81.839844 C 82.539062 81.839844 82.300781 81.640625 82.046875 81.398438 Z M 82.046875 81.398438 "/>
<path style=" stroke:none;fill-rule:nonzero;fill:rgb(100%,100%,100%);fill-opacity:1;" d="M 65.320312 62.816406 C 64.886719 62.777344 64.65625 62.710938 64.324219 62.546875 C 63.5625 62.15625 63.164062 61.492188 63.164062 60.59375 C 63.164062 59.679688 63.546875 59.066406 64.367188 58.675781 C 65.042969 58.347656 65.757812 58.246094 67.339844 58.246094 L 68.199219 58.246094 L 68.199219 62.859375 L 66.933594 62.855469 C 66.238281 62.851562 65.511719 62.832031 65.320312 62.816406 Z M 65.320312 62.816406 "/>
</g>
</svg>
