<?xml version="1.0" encoding="UTF-8"?>
<svg xmlns="http://www.w3.org/2000/svg" xmlns:xlink="http://www.w3.org/1999/xlink" width="152px" height="114px" viewBox="0 0 152 114" version="1.1">
<g id="surface1">
<path style=" stroke:none;fill-rule:nonzero;fill:rgb(93.333333%,95.686275%,88.235294%);fill-opacity:1;" d="M 19 57 L 19 0 L 133 0 L 133 114 L 19 114 Z M 82.496094 82.222656 C 82.882812 82.152344 84.121094 81.894531 85.261719 81.652344 C 87.828125 81.097656 90.378906 80.554688 93.914062 79.8125 C 95.421875 79.5 96.761719 79.1875 96.90625 79.101562 C 97.046875 79.03125 97.644531 78.902344 98.230469 78.816406 C 98.8125 78.746094 99.710938 78.574219 100.226562 78.445312 C 100.738281 78.316406 101.449219 78.175781 101.835938 78.132812 L 102.503906 78.046875 L 102.503906 79.058594 C 102.503906 80.140625 102.660156 80.414062 103.160156 80.226562 C 103.503906 80.097656 103.644531 79.386719 103.644531 77.777344 L 103.644531 76.777344 L 103.261719 76.878906 C 102.5625 77.0625 99.613281 77.691406 98.8125 77.820312 C 98.386719 77.90625 97.988281 77.992188 97.929688 78.03125 C 97.859375 78.0625 96.761719 78.316406 95.492188 78.589844 C 94.210938 78.84375 92.402344 79.230469 91.460938 79.445312 C 90.519531 79.644531 89.011719 79.972656 88.113281 80.15625 C 80.960938 81.667969 80.929688 81.679688 81.445312 82.195312 C 81.644531 82.394531 81.628906 82.394531 82.496094 82.222656 Z M 62.691406 80.683594 C 62.917969 80.398438 63.914062 79.171875 64.871094 77.976562 L 66.636719 75.78125 L 65.371094 74.5 C 64.671875 73.800781 63.800781 72.972656 63.445312 72.675781 L 62.789062 72.121094 L 61.949219 73.144531 C 60.722656 74.65625 58.472656 77.519531 58.429688 77.632812 C 58.402344 77.746094 61.992188 81.226562 62.148438 81.226562 C 62.207031 81.226562 62.449219 80.984375 62.691406 80.683594 Z M 52.203125 79.445312 C 53.1875 79.171875 54.210938 78.886719 54.496094 78.800781 C 55.109375 78.632812 55.410156 78.332031 55.28125 78.003906 C 55.179688 77.761719 54.9375 77.777344 53.914062 78.0625 C 51.890625 78.644531 51.347656 78.789062 50.878906 78.875 C 50.578125 78.917969 50.191406 79.101562 50.035156 79.257812 C 49.75 79.542969 49.75 79.570312 49.992188 79.757812 C 50.335938 80 50.152344 80.027344 52.203125 79.445312 Z M 80.84375 75.882812 C 87.171875 74.511719 88.167969 74.285156 91.945312 73.359375 C 98.042969 71.878906 100.425781 70.949219 101.679688 69.570312 C 102.617188 68.5 105.097656 63.042969 104.871094 62.484375 C 104.800781 62.300781 104.726562 62.300781 104.328125 62.472656 C 104.074219 62.585938 103.589844 62.785156 103.261719 62.914062 C 102.804688 63.113281 102.648438 63.253906 102.617188 63.539062 C 102.578125 63.882812 102.519531 63.910156 101.792969 63.941406 C 101.320312 63.941406 100.667969 64.097656 100.152344 64.308594 C 99.214844 64.710938 97.445312 65.035156 96.664062 64.953125 C 96.25 64.921875 96.035156 64.738281 95.28125 63.839844 C 94.15625 62.515625 93.5 61.230469 93.414062 60.191406 L 93.355469 59.421875 L 93.925781 59.421875 C 94.554688 59.421875 96.933594 59.878906 97.988281 60.191406 C 98.65625 60.390625 98.671875 60.390625 98.785156 60.09375 C 99.140625 59.152344 100.9375 53.4375 100.9375 53.253906 C 100.9375 53.125 100.796875 52.980469 100.625 52.9375 C 100.210938 52.851562 98.488281 52.496094 97.089844 52.210938 C 95.464844 51.882812 94.367188 52.140625 93.144531 53.136719 C 91.648438 54.363281 89.964844 57.667969 89.394531 60.492188 C 88.96875 62.585938 88.910156 63.769531 89.195312 64.980469 C 89.566406 66.605469 89.609375 67.34375 89.351562 67.445312 C 89.136719 67.515625 86.859375 67.902344 83.308594 68.457031 C 82.511719 68.585938 81.65625 68.683594 81.414062 68.683594 C 81.015625 68.683594 80.988281 68.640625 80.988281 68.171875 C 80.988281 67.859375 81.128906 67.445312 81.386719 67.074219 C 82.398438 65.59375 84.136719 61.714844 84.734375 59.578125 C 85.105469 58.28125 84.636719 57.984375 84.050781 59.136719 C 83.367188 60.492188 82.285156 61.273438 80.417969 61.789062 C 79.777344 61.972656 79.5625 62.101562 79.5625 62.300781 C 79.5625 62.5 79.449219 62.558594 79.078125 62.558594 C 78.808594 62.558594 78.566406 62.484375 78.535156 62.402344 C 78.507812 62.300781 77.921875 62.34375 76.726562 62.542969 C 75.773438 62.714844 74.53125 62.886719 73.992188 62.929688 L 73.007812 63.027344 L 73.007812 62.5 C 73.007812 62.171875 73.25 61.488281 73.632812 60.664062 C 74.574219 58.710938 75.886719 55.191406 75.828125 54.75 C 75.757812 54.164062 75.429688 54.292969 74.960938 55.078125 C 74.078125 56.601562 73.191406 57.183594 70.839844 57.785156 C 69.332031 58.152344 64.957031 58.851562 64.058594 58.851562 L 63.503906 58.851562 L 63.402344 57.828125 C 63.359375 57.257812 63.246094 56.117188 63.160156 55.289062 C 63.074219 54.464844 62.863281 52.199219 62.675781 50.230469 C 62.492188 48.277344 62.261719 46.441406 62.191406 46.171875 C 61.75 44.6875 60.453125 43.546875 59.199219 43.546875 C 57.875 43.5625 55.636719 45.117188 54.242188 46.996094 C 51.773438 50.332031 49.980469 53.59375 48.996094 56.5 C 48.269531 58.667969 48.210938 59.351562 48.695312 60.304688 C 49.125 61.191406 50.464844 62.273438 51.546875 62.644531 C 52.902344 63.113281 54.796875 62.671875 56.578125 61.472656 C 57.644531 60.761719 58.289062 60.648438 58.386719 61.175781 C 58.429688 61.347656 58.585938 62.570312 58.742188 63.898438 C 58.929688 65.4375 59.097656 66.347656 59.214844 66.433594 C 59.527344 66.632812 63.402344 66.0625 66.339844 65.394531 C 67.320312 65.164062 68.304688 64.980469 68.503906 64.980469 C 68.859375 64.980469 68.875 65.023438 68.875 65.734375 C 68.875 66.132812 68.734375 67.359375 68.5625 68.429688 C 68.332031 69.8125 68.289062 70.4375 68.390625 70.539062 C 68.675781 70.824219 72.878906 70.179688 76.3125 69.3125 C 78.820312 68.683594 78.992188 68.683594 78.992188 69.285156 C 78.992188 69.539062 78.734375 71.191406 78.410156 72.945312 C 78.09375 74.699219 77.867188 76.222656 77.910156 76.335938 C 77.964844 76.453125 78.09375 76.507812 78.238281 76.464844 C 78.378906 76.421875 79.546875 76.167969 80.84375 75.882812 Z M 73.007812 74.570312 C 73.433594 74.457031 73.933594 74.3125 74.105469 74.285156 C 74.277344 74.242188 74.519531 74.101562 74.644531 73.957031 C 74.847656 73.730469 74.847656 73.699219 74.644531 73.53125 C 74.390625 73.316406 74.21875 73.34375 71.726562 74.027344 C 71.054688 74.214844 70.285156 74.398438 70.015625 74.441406 C 69.375 74.554688 69.003906 75.054688 69.359375 75.324219 C 69.617188 75.496094 69.859375 75.453125 73.007812 74.570312 Z M 41.828125 57.285156 C 44.648438 56.515625 45.078125 56.359375 45.078125 56.101562 C 45.078125 55.546875 44.777344 55.574219 41.671875 56.429688 C 41.085938 56.585938 40.488281 56.714844 40.347656 56.714844 C 40.203125 56.714844 40.089844 56.785156 40.089844 56.859375 C 40.089844 56.941406 40.003906 57 39.890625 57 C 39.578125 57 39.464844 57.269531 39.664062 57.5 C 39.90625 57.785156 39.992188 57.769531 41.828125 57.285156 Z M 83.152344 50.445312 C 83.582031 49.933594 84.5625 48.734375 85.332031 47.765625 L 86.730469 46.011719 L 85.605469 44.875 C 84.992188 44.246094 84.121094 43.417969 83.679688 43.035156 L 82.882812 42.335938 L 82.042969 43.363281 C 79.691406 46.210938 78.4375 47.953125 78.609375 48.109375 C 78.691406 48.195312 79.535156 48.992188 80.460938 49.859375 C 81.386719 50.746094 82.199219 51.441406 82.253906 51.414062 C 82.328125 51.386719 82.726562 50.957031 83.152344 50.445312 Z M 70.527344 50.316406 C 73.589844 49.503906 75.160156 49.0625 75.601562 48.847656 C 75.984375 48.679688 76.128906 48.265625 75.886719 48.109375 C 75.816406 48.066406 75.160156 48.207031 74.417969 48.40625 C 73.675781 48.605469 72.621094 48.878906 72.066406 49.003906 C 71.511719 49.148438 71 49.304688 70.914062 49.347656 C 70.828125 49.40625 70.328125 49.503906 69.785156 49.574219 C 69.21875 49.660156 68.773438 49.804688 68.703125 49.917969 C 68.648438 50.03125 68.433594 50.175781 68.234375 50.21875 C 67.722656 50.34375 67.792969 50.785156 68.320312 50.859375 C 68.375 50.871094 69.375 50.617188 70.527344 50.316406 Z M 91.390625 44.703125 C 92.132812 44.503906 93.570312 44.105469 94.582031 43.832031 C 95.59375 43.546875 96.734375 43.320312 97.117188 43.320312 C 97.730469 43.320312 97.800781 43.347656 97.800781 43.648438 C 97.800781 43.820312 97.902344 44.117188 98.03125 44.289062 C 98.246094 44.601562 98.273438 44.601562 98.527344 44.375 C 98.757812 44.175781 98.800781 43.933594 98.800781 43.007812 C 98.800781 42.394531 98.773438 41.894531 98.730469 41.894531 C 98.6875 41.894531 98.03125 42.066406 97.273438 42.265625 C 96.503906 42.464844 94.925781 42.878906 93.742188 43.175781 C 90.179688 44.117188 89.367188 44.375 89.195312 44.644531 C 89.082031 44.84375 89.082031 44.929688 89.253906 45.042969 C 89.507812 45.199219 89.609375 45.1875 91.390625 44.703125 Z M 49.023438 42.90625 C 50.335938 42.4375 53.027344 41.511719 54.980469 40.828125 C 61.777344 38.488281 61.179688 38.773438 61.492188 37.707031 C 61.636719 37.265625 61.636719 37.136719 61.492188 37.078125 C 61.394531 37.050781 61.324219 36.808594 61.324219 36.535156 C 61.324219 36.125 61.367188 36.050781 61.664062 36.050781 C 61.976562 36.050781 62.0625 35.882812 62.734375 33.886719 C 63.132812 32.703125 63.429688 31.691406 63.390625 31.664062 C 63.347656 31.621094 62.503906 31.878906 61.507812 32.246094 C 60.496094 32.605469 58.816406 33.203125 57.761719 33.574219 C 56.707031 33.929688 54.269531 34.769531 52.34375 35.425781 C 50.421875 36.09375 48.738281 36.738281 48.613281 36.878906 C 48.425781 37.0625 46.359375 43.277344 46.359375 43.660156 C 46.359375 43.820312 46.601562 43.746094 49.023438 42.90625 Z M 109.914062 35.925781 C 109.914062 35.640625 109.730469 35.339844 109.617188 35.425781 C 109.402344 35.554688 109.472656 36.050781 109.703125 36.050781 C 109.816406 36.050781 109.914062 35.996094 109.914062 35.925781 Z M 112.621094 35.683594 C 112.621094 35.253906 112.351562 35.28125 112.179688 35.738281 C 112.082031 35.996094 112.109375 36.050781 112.335938 36.050781 C 112.550781 36.050781 112.621094 35.953125 112.621094 35.683594 Z M 112.621094 35.683594 "/>
<path style=" stroke:none;fill-rule:nonzero;fill:rgb(93.333333%,95.686275%,88.235294%);fill-opacity:1;" d="M 61.066406 78.332031 C 60.523438 77.746094 60.636719 77.191406 61.578125 76.082031 C 62.335938 75.167969 62.433594 75.097656 62.960938 75.097656 C 63.789062 75.097656 64.171875 75.410156 64.171875 76.09375 C 64.171875 76.578125 64.042969 76.808594 63.316406 77.664062 C 62.519531 78.574219 62.40625 78.660156 61.90625 78.660156 C 61.535156 78.660156 61.28125 78.558594 61.066406 78.332031 Z M 61.066406 78.332031 "/>
<path style=" stroke:none;fill-rule:nonzero;fill:rgb(93.333333%,95.686275%,88.235294%);fill-opacity:1;" d="M 81.316406 73.730469 C 81.230469 73.5 81.328125 71.5625 81.445312 71.464844 C 81.472656 71.421875 82 71.320312 82.597656 71.222656 C 83.523438 71.078125 83.679688 71.007812 83.722656 70.765625 C 83.78125 70.378906 84.792969 70.238281 84.921875 70.609375 C 85.019531 70.867188 84.835938 70.878906 88.609375 70.152344 C 93.199219 69.269531 97.859375 68 100.066406 67.03125 C 100.480469 66.847656 101.050781 66.691406 101.308594 66.691406 C 101.777344 66.691406 101.792969 66.703125 101.792969 67.246094 C 101.792969 67.6875 101.691406 67.902344 101.351562 68.242188 C 100.28125 69.328125 96.363281 70.75 91.304688 71.890625 C 88.824219 72.460938 84.550781 73.316406 83.453125 73.457031 C 83.039062 73.515625 82.640625 73.644531 82.539062 73.757812 C 82.3125 74.027344 81.429688 74.015625 81.316406 73.730469 Z M 81.316406 73.730469 "/>
<path style=" stroke:none;fill-rule:nonzero;fill:rgb(93.333333%,95.686275%,88.235294%);fill-opacity:1;" d="M 69.585938 67.417969 C 69.585938 66.277344 69.746094 66.035156 70.542969 65.921875 C 74.417969 65.363281 78.992188 64.410156 80.160156 63.925781 C 80.460938 63.796875 80.988281 63.699219 81.34375 63.699219 C 81.984375 63.699219 81.984375 63.699219 81.984375 64.195312 C 81.984375 64.507812 81.871094 64.792969 81.671875 64.996094 C 81.171875 65.464844 79.519531 66.175781 77.78125 66.675781 C 75.828125 67.230469 71.253906 68.113281 70.300781 68.113281 L 69.585938 68.113281 Z M 69.585938 67.417969 "/>
<path style=" stroke:none;fill-rule:nonzero;fill:rgb(93.333333%,95.686275%,88.235294%);fill-opacity:1;" d="M 91.390625 65.835938 C 91.132812 65.335938 91.035156 65.265625 90.605469 65.265625 C 90.109375 65.265625 90.109375 65.265625 90.109375 64.625 C 90.109375 64.054688 90.136719 63.984375 90.433594 63.984375 C 90.75 63.984375 90.75 63.953125 90.75 62.03125 L 90.75 60.0625 L 91.246094 60.019531 L 91.746094 59.976562 L 92.074219 61.160156 C 92.414062 62.429688 93.726562 65.265625 93.953125 65.265625 C 94.039062 65.265625 94.097656 65.523438 94.097656 65.835938 L 94.097656 66.40625 L 91.675781 66.40625 Z M 91.390625 65.835938 "/>
<path style=" stroke:none;fill-rule:nonzero;fill:rgb(93.333333%,95.686275%,88.235294%);fill-opacity:1;" d="M 61.324219 63.183594 C 61.324219 62.871094 61.464844 62.371094 61.648438 62.058594 C 61.964844 61.503906 62.007812 61.488281 63.105469 61.304688 C 65.65625 60.875 69.175781 60.105469 70.441406 59.707031 C 71.183594 59.480469 72.011719 59.28125 72.253906 59.28125 C 72.707031 59.28125 72.722656 59.308594 72.722656 59.835938 C 72.722656 60.777344 71.867188 61.304688 68.933594 62.203125 C 67.277344 62.699219 63.714844 63.46875 62.21875 63.640625 L 61.324219 63.742188 Z M 61.324219 63.183594 "/>
<path style=" stroke:none;fill-rule:nonzero;fill:rgb(93.333333%,95.686275%,88.235294%);fill-opacity:1;" d="M 51.691406 60.589844 C 50.976562 60.136719 50.421875 58.582031 50.519531 57.257812 C 50.5625 56.65625 50.578125 56.644531 51.105469 56.601562 C 51.546875 56.558594 51.632812 56.601562 51.632812 56.828125 C 51.632812 57.242188 52.558594 58.226562 53.3125 58.597656 C 53.914062 58.882812 54.15625 58.921875 55.523438 58.894531 L 57.046875 58.851562 L 57.046875 59.367188 C 57.046875 59.835938 57.003906 59.878906 56.09375 60.304688 C 55.238281 60.691406 54.9375 60.761719 53.628906 60.804688 C 52.332031 60.863281 52.074219 60.820312 51.691406 60.589844 Z M 51.691406 60.589844 "/>
<path style=" stroke:none;fill-rule:nonzero;fill:rgb(93.333333%,95.686275%,88.235294%);fill-opacity:1;" d="M 92.816406 56.472656 C 92.816406 55.988281 92.902344 55.816406 93.371094 55.390625 C 94.167969 54.675781 96.019531 54.363281 97.84375 54.664062 C 98.371094 54.761719 98.371094 54.761719 98.371094 55.433594 C 98.371094 55.804688 98.300781 56.316406 98.214844 56.574219 L 98.042969 57.042969 L 96.820312 56.929688 C 95.335938 56.785156 94.695312 56.785156 93.640625 56.929688 L 92.816406 57.042969 Z M 92.816406 56.472656 "/>
<path style=" stroke:none;fill-rule:nonzero;fill:rgb(93.333333%,95.686275%,88.235294%);fill-opacity:1;" d="M 54.113281 55.234375 C 52.929688 54.863281 52.203125 54.007812 52.203125 52.996094 C 52.203125 52.597656 52.34375 52.367188 53.128906 51.640625 C 54.140625 50.660156 54.796875 50.375 55.695312 50.488281 C 56.546875 50.617188 57.003906 50.859375 57.175781 51.285156 C 57.375 51.757812 57.617188 53.4375 57.617188 54.320312 C 57.617188 55.433594 57.617188 55.433594 56.0625 55.417969 C 55.308594 55.417969 54.441406 55.332031 54.113281 55.234375 Z M 54.113281 55.234375 "/>
<path style=" stroke:none;fill-rule:nonzero;fill:rgb(93.333333%,95.686275%,88.235294%);fill-opacity:1;" d="M 60.039062 49.804688 C 60.039062 49.363281 59.3125 48.164062 58.800781 47.78125 C 58.246094 47.351562 57.761719 47.308594 56.234375 47.523438 L 55.480469 47.636719 L 55.480469 47.054688 C 55.480469 46.582031 55.566406 46.414062 55.949219 46.085938 C 57.132812 45.085938 58.785156 44.746094 59.710938 45.316406 C 60.523438 45.800781 61.039062 47.28125 61.039062 49.089844 L 61.039062 50.015625 L 60.539062 50.015625 C 60.183594 50.015625 60.039062 49.960938 60.039062 49.804688 Z M 60.039062 49.804688 "/>
<path style=" stroke:none;fill-rule:nonzero;fill:rgb(93.333333%,95.686275%,88.235294%);fill-opacity:1;" d="M 81.171875 48.75 C 80.929688 48.535156 80.84375 48.320312 80.84375 47.867188 C 80.84375 47.339844 80.945312 47.140625 81.585938 46.398438 C 82.511719 45.316406 82.511719 45.316406 83.140625 45.316406 C 83.792969 45.316406 84.265625 45.785156 84.265625 46.46875 C 84.265625 46.867188 84.09375 47.140625 83.324219 47.992188 C 82.527344 48.863281 82.3125 49.019531 81.941406 49.019531 C 81.6875 49.003906 81.34375 48.890625 81.171875 48.75 Z M 81.171875 48.75 "/>
<path style=" stroke:none;fill-rule:nonzero;fill:rgb(93.333333%,95.686275%,88.235294%);fill-opacity:1;" d="M 49.539062 39.402344 C 49.59375 38.886719 49.664062 38.402344 49.707031 38.332031 C 49.835938 38.117188 58.886719 35.199219 59.414062 35.199219 L 59.898438 35.199219 L 59.898438 35.894531 C 59.898438 37.25 60.152344 37.105469 55.023438 38.804688 C 52.472656 39.644531 50.179688 40.328125 49.921875 40.328125 L 49.453125 40.328125 Z M 49.539062 39.402344 "/>
<path style=" stroke:none;fill-rule:nonzero;fill:rgb(0%,50.588235%,42.352941%);fill-opacity:1;" d="M 61.523438 81.496094 C 60.410156 80.613281 57.761719 77.933594 57.761719 77.691406 C 57.761719 77.464844 59.140625 75.625 61.421875 72.859375 C 62.21875 71.890625 62.589844 71.535156 62.832031 71.535156 C 63.304688 71.535156 67.164062 75.28125 67.164062 75.738281 C 67.164062 75.953125 66.425781 76.992188 65.15625 78.574219 C 62.945312 81.324219 62.417969 81.9375 62.207031 81.9375 C 62.132812 81.9375 61.820312 81.738281 61.523438 81.496094 Z M 62.890625 77.234375 C 63.359375 76.679688 63.746094 76.167969 63.746094 76.09375 C 63.746094 75.9375 63.175781 75.523438 62.960938 75.523438 C 62.890625 75.523438 62.449219 75.980469 61.976562 76.535156 L 61.136719 77.535156 L 61.464844 77.875 C 61.648438 78.074219 61.851562 78.234375 61.90625 78.234375 C 61.976562 78.234375 62.40625 77.777344 62.890625 77.234375 Z M 62.890625 77.234375 "/>
<path style=" stroke:none;fill-rule:nonzero;fill:rgb(0%,50.588235%,42.352941%);fill-opacity:1;" d="M 77.410156 76.652344 C 77.324219 76.480469 77.296875 76.152344 77.355469 75.894531 C 77.4375 75.496094 78.566406 69.367188 78.566406 69.3125 C 78.566406 69.296875 77.839844 69.46875 76.96875 69.695312 C 74.160156 70.410156 70.027344 71.109375 68.574219 71.109375 C 67.664062 71.109375 67.648438 70.964844 68.078125 68.328125 C 68.289062 67.046875 68.449219 65.863281 68.417969 65.722656 C 68.375 65.464844 68.320312 65.464844 66.953125 65.792969 C 63.703125 66.546875 59.183594 67.144531 58.785156 66.859375 C 58.671875 66.789062 58.5 65.847656 58.316406 64.324219 C 57.917969 60.917969 58.03125 61.175781 57.203125 61.773438 C 55.738281 62.828125 53.527344 63.527344 52.214844 63.328125 C 50.550781 63.085938 48.882812 61.988281 48.269531 60.734375 C 47.925781 60.0625 47.898438 59.878906 47.957031 58.808594 C 48.128906 55.945312 50.421875 51.15625 53.8125 46.570312 C 54.695312 45.371094 56.105469 44.160156 57.332031 43.519531 C 57.988281 43.175781 58.289062 43.105469 59.183594 43.105469 C 60.109375 43.105469 60.351562 43.164062 60.9375 43.503906 C 61.664062 43.933594 62.347656 44.84375 62.621094 45.742188 C 62.691406 46.011719 62.917969 47.851562 63.105469 49.804688 C 63.289062 51.769531 63.503906 54.035156 63.589844 54.863281 C 63.671875 55.6875 63.789062 56.828125 63.832031 57.398438 C 63.886719 57.953125 63.988281 58.425781 64.058594 58.425781 C 64.601562 58.425781 69.289062 57.640625 70.371094 57.355469 C 72.679688 56.773438 73.648438 56.171875 74.390625 54.875 C 74.929688 53.921875 75.144531 53.722656 75.585938 53.722656 C 76.171875 53.722656 76.484375 54.265625 76.371094 55.035156 C 76.242188 55.804688 74.875 59.394531 74.0625 61.089844 C 73.71875 61.816406 73.433594 62.445312 73.433594 62.484375 C 73.433594 62.527344 73.648438 62.542969 73.90625 62.5 C 74.148438 62.457031 75.359375 62.257812 76.570312 62.058594 C 81.144531 61.332031 82.65625 60.605469 83.609375 58.738281 C 83.980469 58.011719 84.179688 57.855469 84.777344 57.855469 C 85.234375 57.855469 85.460938 58.425781 85.347656 59.25 C 85.25 59.964844 83.910156 63.539062 83.125 65.195312 C 82.824219 65.820312 82.3125 66.746094 81.984375 67.246094 C 81.671875 67.746094 81.429688 68.171875 81.457031 68.199219 C 81.5 68.242188 81.84375 68.199219 86.375 67.472656 C 89.136719 67.03125 89.167969 67.03125 89.039062 66.632812 C 88.625 65.222656 88.511719 64.253906 88.597656 62.84375 C 88.769531 60.164062 89.308594 58.140625 90.507812 55.789062 C 92.300781 52.253906 94.210938 51.144531 97.445312 51.769531 C 101.4375 52.566406 101.507812 52.582031 101.507812 53.222656 C 101.507812 53.378906 100.964844 55.148438 100.324219 57.140625 C 98.972656 61.316406 99.183594 61.0625 97.402344 60.578125 C 96.007812 60.207031 93.941406 59.808594 93.855469 59.90625 C 93.8125 59.933594 93.898438 60.304688 94.027344 60.691406 C 94.3125 61.546875 95.082031 62.757812 96.050781 63.824219 L 96.746094 64.59375 L 98.003906 64.367188 C 98.898438 64.210938 99.824219 63.882812 101.335938 63.199219 C 104.273438 61.859375 104.316406 61.84375 104.800781 61.84375 C 105.113281 61.84375 105.253906 61.929688 105.382812 62.203125 C 105.613281 62.699219 105.199219 63.925781 103.816406 66.945312 C 102.5625 69.625 101.976562 70.394531 100.582031 71.179688 C 98.730469 72.21875 93.671875 73.617188 84.550781 75.597656 C 84.035156 75.710938 82.441406 76.050781 80.988281 76.378906 C 77.9375 77.050781 77.640625 77.0625 77.410156 76.652344 Z M 83.367188 72.972656 C 85.519531 72.648438 91.476562 71.390625 93.386719 70.867188 C 96.632812 69.980469 99.171875 69.027344 100.367188 68.257812 C 100.964844 67.871094 101.464844 67.304688 101.320312 67.175781 C 101.292969 67.144531 100.921875 67.261719 100.496094 67.460938 C 97.800781 68.640625 92.574219 69.980469 85.960938 71.179688 C 84.464844 71.449219 84.59375 71.449219 84.507812 71.09375 C 84.40625 70.738281 84.121094 70.867188 84.121094 71.265625 C 84.121094 71.421875 84.023438 71.535156 83.878906 71.535156 C 83.753906 71.535156 83.238281 71.605469 82.753906 71.691406 L 81.855469 71.847656 L 81.757812 72.476562 C 81.714844 72.816406 81.714844 73.203125 81.757812 73.332031 C 81.84375 73.542969 81.871094 73.542969 82.097656 73.34375 C 82.226562 73.230469 82.8125 73.058594 83.367188 72.972656 Z M 73.179688 67.1875 C 76.257812 66.605469 78.535156 65.976562 79.917969 65.335938 C 81.042969 64.808594 81.769531 64.226562 81.386719 64.152344 C 81.257812 64.125 80.917969 64.210938 80.601562 64.339844 C 79.421875 64.835938 74.875 65.792969 70.96875 66.347656 C 70.257812 66.449219 70.015625 66.71875 70.015625 67.417969 C 70.015625 67.789062 70.128906 67.773438 73.179688 67.1875 Z M 92.730469 65.820312 C 93.015625 65.691406 93.144531 65.691406 93.3125 65.835938 C 93.429688 65.933594 93.570312 65.976562 93.628906 65.921875 C 93.683594 65.878906 93.613281 65.75 93.5 65.648438 C 93.144531 65.378906 92.015625 62.898438 91.632812 61.589844 C 91.445312 60.945312 91.261719 60.460938 91.203125 60.519531 C 91.035156 60.675781 91.089844 62.871094 91.304688 63.839844 C 91.503906 64.824219 92.015625 65.976562 92.246094 65.976562 C 92.316406 65.976562 92.53125 65.90625 92.730469 65.820312 Z M 90.878906 64.625 C 90.820312 64.507812 90.734375 64.410156 90.664062 64.410156 C 90.59375 64.410156 90.535156 64.507812 90.535156 64.625 C 90.535156 64.738281 90.632812 64.835938 90.75 64.835938 C 90.878906 64.835938 90.917969 64.753906 90.878906 64.625 Z M 102.148438 63.398438 C 102.292969 63.183594 102.132812 63.070312 101.863281 63.183594 C 101.734375 63.226562 101.679688 63.328125 101.722656 63.414062 C 101.835938 63.597656 102.035156 63.597656 102.148438 63.398438 Z M 64.726562 62.6875 C 67.164062 62.203125 69.730469 61.472656 70.914062 60.917969 C 71.652344 60.5625 72.421875 59.921875 72.28125 59.777344 C 72.238281 59.75 71.597656 59.90625 70.855469 60.136719 C 69.601562 60.535156 66.082031 61.304688 63.53125 61.730469 C 62.433594 61.917969 62.390625 61.929688 62.078125 62.484375 C 61.578125 63.371094 61.292969 63.339844 64.726562 62.6875 Z M 55.664062 59.878906 C 56.191406 59.636719 56.621094 59.421875 56.621094 59.394531 C 56.621094 59.367188 55.9375 59.351562 55.09375 59.351562 C 53.769531 59.351562 53.457031 59.308594 52.886719 59.023438 C 52.117188 58.640625 51.203125 57.667969 51.203125 57.226562 C 51.203125 57.015625 51.164062 56.984375 51.046875 57.101562 C 50.921875 57.226562 50.921875 57.46875 51.035156 58.070312 C 51.261719 59.164062 51.605469 59.835938 52.117188 60.164062 C 52.785156 60.578125 54.398438 60.449219 55.664062 59.878906 Z M 94.480469 56.332031 C 94.882812 56.289062 95.734375 56.332031 96.378906 56.414062 C 97.347656 56.558594 97.574219 56.558594 97.675781 56.402344 C 97.832031 56.160156 98.003906 55.304688 97.917969 55.203125 C 97.875 55.175781 97.433594 55.105469 96.933594 55.0625 C 95.59375 54.933594 94.480469 55.203125 93.796875 55.816406 C 93.214844 56.34375 93.070312 56.671875 93.5 56.5 C 93.628906 56.445312 94.070312 56.371094 94.480469 56.332031 Z M 57.132812 54.675781 C 57.234375 54.265625 56.933594 52.054688 56.734375 51.65625 C 56.535156 51.300781 56.378906 51.1875 55.777344 51.015625 C 55.109375 50.828125 54.523438 51.101562 53.5 52.113281 C 52.515625 53.066406 52.488281 53.296875 53.3125 54.09375 C 53.925781 54.691406 54.824219 54.976562 56.078125 54.992188 C 56.976562 55.003906 57.046875 54.976562 57.132812 54.675781 Z M 60.46875 47.964844 C 60.238281 46.824219 59.839844 46.085938 59.285156 45.742188 C 58.671875 45.359375 58.386719 45.386719 57.390625 45.886719 C 56.148438 46.496094 55.367188 47.425781 56.40625 47.023438 C 56.875 46.839844 58.003906 46.8125 58.488281 46.953125 C 59.328125 47.210938 60.410156 48.535156 60.480469 49.40625 C 60.496094 49.546875 60.539062 49.476562 60.566406 49.234375 C 60.609375 49.003906 60.554688 48.4375 60.46875 47.964844 Z M 60.46875 47.964844 "/>
<path style=" stroke:none;fill-rule:nonzero;fill:rgb(0%,50.588235%,42.352941%);fill-opacity:1;" d="M 81.742188 51.828125 C 80.84375 51.171875 77.851562 48.179688 77.851562 47.953125 C 77.851562 47.808594 78.507812 46.867188 79.304688 45.828125 C 81.628906 42.851562 82.582031 41.753906 82.855469 41.753906 C 83.394531 41.753906 87.257812 45.472656 87.257812 45.984375 C 87.257812 46.441406 82.667969 52.15625 82.3125 52.15625 C 82.242188 52.15625 81.984375 52.011719 81.742188 51.828125 Z M 83.167969 47.265625 L 83.878906 46.441406 L 83.523438 46.085938 C 83.324219 45.886719 83.097656 45.769531 82.96875 45.8125 C 82.699219 45.941406 81.273438 47.652344 81.273438 47.878906 C 81.273438 47.964844 81.414062 48.164062 81.601562 48.308594 C 81.972656 48.621094 82.011719 48.59375 83.167969 47.265625 Z M 83.167969 47.265625 "/>
<path style=" stroke:none;fill-rule:nonzero;fill:rgb(0%,50.588235%,42.352941%);fill-opacity:1;" d="M 45.960938 44.148438 C 45.859375 44.046875 45.789062 43.890625 45.789062 43.789062 C 45.789062 43.347656 47.96875 36.664062 48.183594 36.453125 C 48.3125 36.308594 50.035156 35.652344 51.988281 34.984375 C 53.957031 34.300781 56.476562 33.429688 57.601562 33.046875 C 58.730469 32.660156 60.453125 32.046875 61.4375 31.691406 C 63.488281 30.949219 63.886719 30.949219 63.886719 31.679688 C 63.886719 32.148438 61.734375 38.832031 61.523438 39.046875 C 61.378906 39.1875 60.738281 39.414062 55.410156 41.253906 C 53.457031 41.9375 50.679688 42.890625 49.238281 43.40625 C 46.503906 44.359375 46.230469 44.417969 45.960938 44.148438 Z M 54.839844 38.289062 L 59.257812 36.835938 L 59.382812 36.292969 C 59.457031 36.007812 59.484375 35.738281 59.441406 35.695312 C 59.355469 35.609375 50.234375 38.589844 50.164062 38.730469 C 50.121094 38.789062 50.066406 39.074219 50.007812 39.371094 C 49.921875 39.855469 49.9375 39.914062 50.164062 39.84375 C 50.308594 39.800781 52.417969 39.101562 54.839844 38.289062 Z M 54.839844 38.289062 "/>
<path style=" stroke:none;fill-rule:nonzero;fill:rgb(65.490196%,77.254902%,49.411765%);fill-opacity:1;" d="M 81.074219 82.636719 C 80.832031 82.4375 80.703125 82.207031 80.703125 81.9375 C 80.703125 81.183594 80.558594 81.226562 88.113281 79.644531 C 89.253906 79.402344 90.25 79.144531 90.351562 79.058594 C 90.449219 78.988281 90.578125 78.960938 90.664062 79.003906 C 90.847656 79.128906 92.816406 78.660156 92.816406 78.488281 C 92.816406 78.402344 92.957031 78.375 93.128906 78.417969 C 93.484375 78.515625 97.347656 77.71875 97.601562 77.503906 C 97.703125 77.421875 97.859375 77.390625 97.945312 77.449219 C 98.015625 77.492188 98.085938 77.476562 98.085938 77.40625 C 98.085938 77.335938 98.371094 77.292969 98.730469 77.292969 C 99.140625 77.304688 99.425781 77.234375 99.5 77.105469 C 99.570312 76.992188 99.726562 76.949219 99.925781 77.019531 C 100.109375 77.078125 100.226562 77.050781 100.226562 76.949219 C 100.226562 76.851562 100.339844 76.808594 100.511719 76.851562 C 100.667969 76.894531 100.796875 76.863281 100.796875 76.777344 C 100.796875 76.695312 100.953125 76.679688 101.152344 76.722656 C 101.351562 76.777344 101.507812 76.75 101.507812 76.679688 C 101.507812 76.621094 101.765625 76.566406 102.078125 76.578125 C 102.40625 76.578125 102.703125 76.523438 102.761719 76.453125 C 102.820312 76.367188 103.160156 76.292969 103.515625 76.28125 L 104.15625 76.265625 L 104.117188 77.492188 C 104.015625 80.15625 103.945312 80.511719 103.53125 80.667969 C 103.316406 80.753906 103.101562 80.882812 103.0625 80.96875 C 102.988281 81.066406 102.804688 81.011719 102.519531 80.8125 C 102.121094 80.527344 102.078125 80.414062 102.050781 79.6875 C 102.050781 79.246094 102.035156 78.789062 102.035156 78.6875 C 102.050781 78.574219 101.964844 78.53125 101.820312 78.589844 C 101.679688 78.632812 101.136719 78.773438 100.582031 78.902344 C 100.039062 79.015625 99.171875 79.203125 98.671875 79.316406 C 98.171875 79.414062 97.703125 79.472656 97.632812 79.429688 C 97.558594 79.386719 97.417969 79.414062 97.316406 79.5 C 97.21875 79.585938 95.894531 79.914062 94.367188 80.242188 C 90.933594 80.953125 88.367188 81.511719 85.691406 82.078125 C 84.035156 82.4375 81.558594 82.933594 81.472656 82.933594 C 81.457031 82.933594 81.285156 82.808594 81.074219 82.636719 Z M 81.074219 82.636719 "/>
<path style=" stroke:none;fill-rule:nonzero;fill:rgb(65.490196%,77.254902%,49.411765%);fill-opacity:1;" d="M 49.679688 80.269531 C 49.453125 80.113281 49.351562 79.898438 49.351562 79.570312 C 49.351562 78.960938 49.738281 78.558594 50.449219 78.445312 C 51.40625 78.273438 52.6875 77.917969 53.015625 77.71875 C 53.1875 77.605469 53.414062 77.5625 53.527344 77.605469 C 53.640625 77.648438 53.839844 77.578125 53.96875 77.449219 C 54.097656 77.320312 54.296875 77.25 54.410156 77.292969 C 54.523438 77.335938 54.625 77.304688 54.625 77.222656 C 54.625 76.964844 55.378906 77.222656 55.738281 77.589844 C 55.90625 77.777344 56.050781 78.003906 56.050781 78.105469 C 56.050781 78.460938 55.4375 79.085938 54.9375 79.230469 C 54.652344 79.316406 53.5 79.628906 52.386719 79.941406 C 51.277344 80.257812 50.277344 80.511719 50.179688 80.5 C 50.078125 80.5 49.851562 80.398438 49.679688 80.269531 Z M 49.679688 80.269531 "/>
<path style=" stroke:none;fill-rule:nonzero;fill:rgb(65.490196%,77.254902%,49.411765%);fill-opacity:1;" d="M 68.988281 75.808594 C 68.847656 75.722656 68.734375 75.566406 68.734375 75.453125 C 68.734375 75.355469 68.660156 75.238281 68.574219 75.210938 C 68.460938 75.167969 68.53125 74.96875 68.746094 74.628906 C 69.003906 74.242188 69.21875 74.085938 69.585938 74.015625 C 69.859375 73.972656 70.628906 73.785156 71.296875 73.601562 C 74.816406 72.648438 74.832031 72.648438 75.289062 73.429688 C 75.472656 73.773438 75.472656 73.828125 75.214844 74.183594 C 74.917969 74.570312 74.6875 74.65625 71.796875 75.453125 C 70.128906 75.925781 69.332031 76.023438 68.988281 75.808594 Z M 68.988281 75.808594 "/>
<path style=" stroke:none;fill-rule:nonzero;fill:rgb(65.490196%,77.254902%,49.411765%);fill-opacity:1;" d="M 52.5 73.542969 C 52.089844 73.230469 52.300781 73.046875 52.914062 73.171875 C 53.144531 73.230469 53.398438 73.230469 53.484375 73.171875 C 53.714844 73.03125 53.398438 72.574219 52.914062 72.320312 C 52.542969 72.132812 52.488281 72.019531 52.488281 71.535156 L 52.488281 70.964844 L 53.171875 70.964844 C 54.054688 70.964844 54.226562 71.136719 53.542969 71.335938 C 53.242188 71.421875 52.984375 71.550781 52.957031 71.632812 C 52.929688 71.707031 53.1875 71.949219 53.527344 72.160156 C 54.027344 72.476562 54.15625 72.648438 54.167969 72.972656 C 54.167969 73.300781 54.097656 73.402344 53.828125 73.472656 C 53.640625 73.515625 53.484375 73.617188 53.484375 73.6875 C 53.484375 73.914062 52.859375 73.816406 52.5 73.542969 Z M 52.5 73.542969 "/>
<path style=" stroke:none;fill-rule:nonzero;fill:rgb(65.490196%,77.254902%,49.411765%);fill-opacity:1;" d="M 39.621094 73.574219 C 39.5625 73.53125 39.519531 72.847656 39.519531 72.078125 C 39.519531 71.007812 39.5625 70.664062 39.707031 70.707031 C 39.820312 70.75 39.90625 71.191406 39.949219 71.976562 L 40.019531 73.171875 L 40.476562 73.214844 C 40.800781 73.246094 40.902344 73.316406 40.84375 73.472656 C 40.773438 73.671875 39.804688 73.757812 39.621094 73.574219 Z M 39.621094 73.574219 "/>
<path style=" stroke:none;fill-rule:nonzero;fill:rgb(65.490196%,77.254902%,49.411765%);fill-opacity:1;" d="M 41.855469 73.488281 C 41.8125 73.375 41.800781 72.746094 41.828125 72.089844 L 41.871094 70.894531 L 42.640625 70.851562 C 43.210938 70.824219 43.382812 70.851562 43.339844 70.992188 C 43.296875 71.09375 43.082031 71.191406 42.839844 71.222656 C 42.5 71.25 42.382812 71.351562 42.328125 71.621094 C 42.257812 72.019531 42.484375 72.191406 42.925781 72.0625 C 43.125 72.019531 43.183594 72.046875 43.125 72.191406 C 43.082031 72.304688 42.910156 72.390625 42.726562 72.390625 C 42.5 72.390625 42.382812 72.488281 42.339844 72.746094 C 42.257812 73.1875 42.3125 73.246094 42.882812 73.246094 C 43.253906 73.246094 43.339844 73.300781 43.28125 73.457031 C 43.167969 73.742188 41.972656 73.757812 41.855469 73.488281 Z M 41.855469 73.488281 "/>
<path style=" stroke:none;fill-rule:nonzero;fill:rgb(65.490196%,77.254902%,49.411765%);fill-opacity:1;" d="M 47.671875 73.542969 C 47.585938 73.5 47.484375 73.214844 47.429688 72.917969 C 47.371094 72.632812 47.285156 72.390625 47.230469 72.390625 C 47.171875 72.390625 47.128906 72.277344 47.117188 72.148438 C 47.101562 72.003906 47.058594 71.648438 47 71.363281 C 46.945312 71.066406 46.945312 70.824219 47.015625 70.824219 C 47.199219 70.824219 47.527344 71.378906 47.429688 71.535156 C 47.371094 71.621094 47.414062 71.675781 47.484375 71.675781 C 47.570312 71.675781 47.683594 71.933594 47.726562 72.234375 C 47.800781 72.648438 47.871094 72.773438 48.027344 72.71875 C 48.128906 72.675781 48.199219 72.574219 48.167969 72.476562 C 48.140625 72.390625 48.210938 72.234375 48.3125 72.121094 C 48.425781 72.019531 48.496094 71.792969 48.46875 71.621094 C 48.425781 71.335938 48.824219 70.824219 49.097656 70.824219 C 49.253906 70.824219 49.238281 71.207031 49.066406 71.320312 C 48.996094 71.363281 48.925781 71.535156 48.925781 71.691406 C 48.925781 71.835938 48.855469 71.960938 48.769531 71.960938 C 48.695312 71.960938 48.667969 72.035156 48.710938 72.105469 C 48.824219 72.304688 48.511719 73.246094 48.339844 73.246094 C 48.253906 73.246094 48.226562 73.300781 48.269531 73.375 C 48.371094 73.53125 47.871094 73.671875 47.671875 73.542969 Z M 47.671875 73.542969 "/>
<path style=" stroke:none;fill-rule:nonzero;fill:rgb(65.490196%,77.254902%,49.411765%);fill-opacity:1;" d="M 49.964844 73.429688 C 49.921875 73.332031 49.921875 72.988281 49.949219 72.675781 C 49.980469 72.363281 49.964844 72.105469 49.921875 72.105469 C 49.878906 72.105469 49.835938 71.949219 49.835938 71.75 C 49.824219 71.550781 49.867188 71.390625 49.921875 71.390625 C 49.980469 71.390625 50.066406 71.277344 50.09375 71.136719 C 50.152344 70.9375 50.277344 70.894531 50.761719 70.9375 C 51.433594 71.007812 51.5625 71.25 50.921875 71.25 C 50.59375 71.25 50.492188 71.308594 50.492188 71.535156 C 50.492188 71.976562 50.535156 72.035156 50.921875 72.035156 C 51.132812 72.046875 51.277344 72.132812 51.277344 72.246094 C 51.277344 72.375 51.132812 72.460938 50.921875 72.460938 C 50.636719 72.460938 50.550781 72.546875 50.519531 72.859375 C 50.476562 73.246094 50.664062 73.34375 51.347656 73.246094 C 51.488281 73.230469 51.519531 73.273438 51.417969 73.359375 C 51.191406 73.585938 50.050781 73.644531 49.964844 73.429688 Z M 49.964844 73.429688 "/>
<path style=" stroke:none;fill-rule:nonzero;fill:rgb(65.490196%,77.254902%,49.411765%);fill-opacity:1;" d="M 44.195312 73.1875 C 44.152344 73.015625 44.222656 72.789062 44.335938 72.6875 C 44.4375 72.589844 44.492188 72.375 44.464844 72.234375 C 44.421875 72.078125 44.4375 71.960938 44.492188 71.960938 C 44.550781 71.960938 44.679688 71.707031 44.777344 71.390625 C 44.863281 71.09375 45.007812 70.792969 45.078125 70.75 C 45.304688 70.609375 45.804688 71.023438 45.734375 71.292969 C 45.703125 71.421875 45.734375 71.535156 45.804688 71.535156 C 45.890625 71.535156 45.933594 71.621094 45.917969 71.71875 C 45.902344 71.804688 45.960938 72.089844 46.0625 72.320312 C 46.304688 72.902344 46.332031 73.414062 46.101562 73.488281 C 45.988281 73.53125 45.875 73.429688 45.832031 73.257812 C 45.777344 73.046875 45.648438 72.960938 45.363281 72.960938 C 44.863281 72.960938 44.492188 73.101562 44.578125 73.246094 C 44.621094 73.300781 44.566406 73.386719 44.449219 73.429688 C 44.320312 73.488281 44.222656 73.386719 44.195312 73.1875 Z M 45.648438 72.246094 C 45.648438 72.175781 45.589844 72.105469 45.519531 72.105469 C 45.449219 72.105469 45.40625 72.003906 45.417969 71.878906 C 45.449219 71.433594 45.105469 71.519531 45.050781 71.960938 C 44.992188 72.332031 45.019531 72.390625 45.320312 72.390625 C 45.503906 72.390625 45.648438 72.332031 45.648438 72.246094 Z M 45.648438 72.246094 "/>
<path style=" stroke:none;fill-rule:nonzero;fill:rgb(65.490196%,77.254902%,49.411765%);fill-opacity:1;" d="M 50.847656 68.800781 C 50.71875 68.371094 50.691406 66.589844 50.820312 66.234375 C 50.960938 65.804688 51.40625 65.707031 51.933594 65.976562 C 52.332031 66.207031 52.257812 66.40625 51.773438 66.40625 C 51.289062 66.40625 51.078125 66.71875 51.347656 67.046875 C 51.445312 67.160156 51.675781 67.261719 51.859375 67.261719 C 52.046875 67.261719 52.203125 67.332031 52.203125 67.402344 C 52.203125 67.546875 52.101562 67.574219 51.5625 67.601562 C 51.363281 67.617188 51.277344 67.714844 51.277344 67.972656 C 51.277344 68.257812 51.375 68.34375 51.890625 68.472656 C 52.375 68.585938 52.472656 68.640625 52.332031 68.800781 C 52.230469 68.882812 51.875 68.96875 51.53125 68.96875 C 51.164062 68.96875 50.890625 68.898438 50.847656 68.800781 Z M 50.847656 68.800781 "/>
<path style=" stroke:none;fill-rule:nonzero;fill:rgb(65.490196%,77.254902%,49.411765%);fill-opacity:1;" d="M 39.734375 68.472656 C 39.535156 68.285156 39.378906 68.042969 39.363281 67.945312 C 39.304688 67.046875 39.335938 66.734375 39.476562 66.589844 C 39.5625 66.492188 39.664062 66.332031 39.691406 66.261719 C 39.746094 66.0625 40.832031 65.90625 41.171875 66.035156 C 41.5 66.164062 41.34375 66.289062 40.789062 66.347656 C 40.117188 66.433594 39.949219 66.648438 39.949219 67.386719 C 39.949219 68.15625 40.105469 68.386719 40.589844 68.285156 C 40.832031 68.242188 40.945312 68.113281 40.972656 67.859375 C 41.003906 67.628906 41.117188 67.460938 41.273438 67.429688 C 41.65625 67.359375 41.613281 68.398438 41.230469 68.5 C 41.074219 68.542969 40.945312 68.628906 40.945312 68.699219 C 40.945312 68.984375 40.0625 68.8125 39.734375 68.472656 Z M 39.734375 68.472656 "/>
<path style=" stroke:none;fill-rule:nonzero;fill:rgb(65.490196%,77.254902%,49.411765%);fill-opacity:1;" d="M 43.523438 68.328125 C 43.167969 67.730469 42.96875 67.6875 42.910156 68.230469 C 42.867188 68.671875 42.46875 68.757812 42.398438 68.34375 C 42.371094 68.1875 42.382812 67.585938 42.441406 67.003906 L 42.539062 65.949219 L 43.253906 66.007812 C 43.652344 66.046875 44.023438 66.175781 44.09375 66.277344 C 44.308594 66.632812 44.238281 67.1875 43.9375 67.375 C 43.667969 67.546875 43.667969 67.546875 43.921875 67.988281 C 44.179688 68.414062 44.195312 68.828125 43.9375 68.828125 C 43.878906 68.828125 43.695312 68.597656 43.523438 68.328125 Z M 43.410156 67.03125 C 43.710938 66.917969 43.539062 66.40625 43.210938 66.40625 C 43.011719 66.40625 42.941406 66.503906 42.941406 66.761719 C 42.941406 67.117188 43.039062 67.175781 43.410156 67.03125 Z M 43.410156 67.03125 "/>
<path style=" stroke:none;fill-rule:nonzero;fill:rgb(65.490196%,77.254902%,49.411765%);fill-opacity:1;" d="M 48.140625 68.683594 C 48.011719 68.472656 47.925781 66.988281 48.011719 66.449219 C 48.085938 66.078125 48.167969 65.992188 48.554688 65.949219 C 48.8125 65.921875 49.210938 66.007812 49.4375 66.121094 C 49.980469 66.417969 50.035156 67.246094 49.523438 67.472656 C 49.351562 67.546875 49.210938 67.660156 49.210938 67.714844 C 49.210938 67.789062 49.082031 67.828125 48.9375 67.828125 C 48.726562 67.828125 48.640625 67.945312 48.613281 68.285156 C 48.570312 68.742188 48.3125 68.96875 48.140625 68.683594 Z M 49.125 67.117188 C 49.253906 67.117188 49.296875 66.988281 49.238281 66.761719 C 49.140625 66.234375 48.640625 66.277344 48.640625 66.804688 C 48.640625 67.230469 48.8125 67.53125 48.898438 67.273438 C 48.925781 67.1875 49.023438 67.117188 49.125 67.117188 Z M 49.125 67.117188 "/>
<path style=" stroke:none;fill-rule:nonzero;fill:rgb(65.490196%,77.254902%,49.411765%);fill-opacity:1;" d="M 45.363281 67.375 C 45.71875 66.164062 45.789062 66.046875 46.132812 66.007812 C 46.515625 65.964844 46.628906 66.089844 46.703125 66.703125 C 46.730469 66.890625 46.816406 67.230469 46.914062 67.445312 C 47.230469 68.257812 47.257812 68.527344 47 68.628906 C 46.757812 68.726562 46.460938 68.441406 46.589844 68.230469 C 46.628906 68.171875 46.429688 68.113281 46.144531 68.113281 C 45.746094 68.113281 45.605469 68.1875 45.546875 68.398438 C 45.503906 68.558594 45.363281 68.683594 45.21875 68.683594 C 44.992188 68.683594 45.007812 68.570312 45.363281 67.375 Z M 46.1875 67.375 C 46.429688 67.132812 46.402344 66.832031 46.144531 66.832031 C 46.03125 66.832031 45.933594 66.890625 45.933594 66.960938 C 45.933594 67.03125 45.890625 67.1875 45.847656 67.316406 C 45.746094 67.585938 45.945312 67.617188 46.1875 67.375 Z M 46.1875 67.375 "/>
<path style=" stroke:none;fill-rule:nonzero;fill:rgb(65.490196%,77.254902%,49.411765%);fill-opacity:1;" d="M 39.25 57.941406 C 38.992188 57.65625 38.9375 57.5 39.019531 57.140625 C 39.078125 56.859375 39.234375 56.65625 39.390625 56.617188 C 39.535156 56.574219 39.664062 56.488281 39.664062 56.414062 C 39.664062 56.34375 39.820312 56.289062 40.019531 56.289062 C 40.21875 56.289062 40.375 56.214844 40.375 56.128906 C 40.375 56.046875 40.503906 56.003906 40.660156 56.046875 C 41.015625 56.128906 42.371094 55.746094 42.371094 55.546875 C 42.371094 55.460938 42.5 55.433594 42.65625 55.476562 C 43.027344 55.574219 44.378906 55.21875 44.523438 54.992188 C 44.59375 54.863281 44.765625 54.917969 45.132812 55.203125 C 45.960938 55.832031 45.789062 56.742188 44.792969 57 C 44.523438 57.070312 43.367188 57.382812 42.226562 57.699219 C 41.085938 58.011719 40.03125 58.28125 39.863281 58.28125 C 39.707031 58.28125 39.421875 58.125 39.25 57.941406 Z M 39.25 57.941406 "/>
<path style=" stroke:none;fill-rule:nonzero;fill:rgb(65.490196%,77.254902%,49.411765%);fill-opacity:1;" d="M 67.621094 51.15625 C 67.4375 50.972656 67.308594 50.6875 67.308594 50.429688 C 67.308594 50.074219 67.394531 49.960938 67.804688 49.789062 C 68.078125 49.675781 68.304688 49.53125 68.304688 49.460938 C 68.304688 49.320312 69.402344 48.976562 69.574219 49.078125 C 69.746094 49.191406 70.726562 48.878906 70.726562 48.707031 C 70.726562 48.621094 70.855469 48.59375 71.011719 48.636719 C 71.167969 48.679688 71.296875 48.648438 71.296875 48.5625 C 71.296875 48.476562 71.425781 48.449219 71.582031 48.492188 C 71.953125 48.59375 72.863281 48.335938 72.863281 48.136719 C 72.863281 48.050781 72.992188 48.023438 73.136719 48.066406 C 73.292969 48.09375 73.847656 48.007812 74.390625 47.867188 C 75.65625 47.496094 76.242188 47.550781 76.542969 48.050781 C 76.828125 48.519531 76.628906 48.992188 76.027344 49.277344 C 75.445312 49.546875 68.546875 51.441406 68.121094 51.441406 C 68.019531 51.441406 67.792969 51.3125 67.621094 51.15625 Z M 67.621094 51.15625 "/>
<path style=" stroke:none;fill-rule:nonzero;fill:rgb(65.490196%,77.254902%,49.411765%);fill-opacity:1;" d="M 88.851562 45.457031 C 88.46875 45.101562 88.453125 44.601562 88.796875 44.203125 C 89.039062 43.917969 89.894531 43.648438 93.882812 42.609375 C 94.824219 42.367188 96.191406 42.007812 96.917969 41.808594 C 97.644531 41.625 98.257812 41.46875 98.285156 41.46875 C 98.328125 41.46875 98.457031 41.367188 98.585938 41.238281 C 98.699219 41.109375 98.898438 41.054688 99.015625 41.097656 C 99.183594 41.152344 99.226562 41.511719 99.226562 42.863281 C 99.226562 44.757812 99.113281 45.03125 98.257812 45.03125 C 97.757812 45.03125 97.375 44.601562 97.375 44.046875 C 97.375 43.734375 97.332031 43.71875 96.832031 43.789062 C 96.535156 43.847656 95.367188 44.148438 94.238281 44.460938 C 88.796875 45.96875 89.308594 45.871094 88.851562 45.457031 Z M 88.851562 45.457031 "/>
<path style=" stroke:none;fill-rule:nonzero;fill:rgb(65.490196%,77.254902%,49.411765%);fill-opacity:1;" d="M 106.394531 38.875 C 106.339844 38.773438 106.265625 38.019531 106.253906 37.191406 C 106.238281 36.367188 106.222656 35.652344 106.222656 35.597656 C 106.210938 35.539062 105.996094 35.453125 105.726562 35.398438 C 105.382812 35.339844 105.253906 35.253906 105.3125 35.113281 C 105.371094 34.957031 105.695312 34.914062 106.625 34.914062 C 107.308594 34.914062 107.90625 34.957031 107.960938 34.996094 C 108.105469 35.140625 107.679688 35.484375 107.363281 35.484375 C 107.078125 35.484375 107.066406 35.554688 107.066406 37.050781 C 107.066406 38.003906 107.007812 38.617188 106.921875 38.617188 C 106.851562 38.617188 106.792969 38.6875 106.824219 38.773438 C 106.867188 39.015625 106.539062 39.085938 106.394531 38.875 Z M 106.394531 38.875 "/>
<path style=" stroke:none;fill-rule:nonzero;fill:rgb(65.490196%,77.254902%,49.411765%);fill-opacity:1;" d="M 109.117188 38.71875 C 109.089844 38.617188 109.074219 37.734375 109.089844 36.75 L 109.132812 34.984375 L 109.660156 34.941406 C 110.15625 34.898438 110.171875 34.914062 110.414062 35.652344 C 110.8125 36.851562 110.882812 36.949219 111.140625 36.695312 C 111.253906 36.578125 111.324219 36.421875 111.28125 36.351562 C 111.226562 36.28125 111.269531 36.195312 111.367188 36.167969 C 111.453125 36.136719 111.597656 35.851562 111.695312 35.539062 C 111.839844 35.011719 111.882812 34.984375 112.453125 34.941406 L 113.050781 34.898438 L 113.050781 36.152344 C 113.050781 36.851562 112.992188 37.476562 112.921875 37.5625 C 112.851562 37.632812 112.765625 37.949219 112.738281 38.261719 C 112.707031 38.644531 112.621094 38.832031 112.480469 38.832031 C 112.308594 38.832031 112.28125 38.675781 112.308594 38.089844 C 112.335938 37.621094 112.292969 37.335938 112.210938 37.335938 C 111.996094 37.335938 112.007812 36.808594 112.222656 36.738281 C 112.351562 36.695312 112.351562 36.652344 112.222656 36.566406 C 112.125 36.507812 112.007812 36.566406 111.953125 36.722656 C 111.582031 37.761719 111.183594 38.476562 110.984375 38.476562 C 110.785156 38.476562 110.199219 37.40625 110.199219 37.023438 C 110.199219 36.949219 110.113281 36.792969 110 36.695312 C 109.84375 36.523438 109.800781 36.59375 109.714844 37.148438 C 109.671875 37.507812 109.628906 38.003906 109.628906 38.261719 C 109.628906 38.746094 109.257812 39.074219 109.117188 38.71875 Z M 109.117188 38.71875 "/>
</g>
</svg>
