<?xml version="1.0" encoding="UTF-8"?>
<svg xmlns="http://www.w3.org/2000/svg" xmlns:xlink="http://www.w3.org/1999/xlink" width="152px" height="114px" viewBox="0 0 152 152" version="1.1">
<g id="surface1">
<path style=" stroke:none;fill-rule:nonzero;fill:rgb(99.215686%,90.980392%,89.019608%);fill-opacity:1;" d="M 0 76 L 0 0 L 152 0 L 152 152 L 0 152 Z M 48.449219 88.246094 L 48.835938 87.890625 L 48.835938 82.710938 C 48.835938 77.886719 48.820312 77.515625 48.570312 77.292969 C 48.316406 77.054688 48.242188 77.113281 47.1875 78.242188 C 45.167969 80.4375 45.140625 80.453125 44.292969 80.453125 L 43.535156 80.453125 L 41.875 78.746094 C 40.953125 77.8125 40.136719 77.070312 40.0625 77.128906 C 39.988281 77.171875 39.929688 79.519531 39.929688 82.664062 L 39.929688 88.140625 L 40.269531 88.363281 C 40.539062 88.558594 41.191406 88.601562 44.324219 88.601562 L 48.050781 88.617188 Z M 60.933594 88.410156 L 61.527344 88.230469 L 61.617188 85.945312 C 61.691406 83.808594 61.570312 82.382812 61.304688 82.382812 C 61.246094 82.382812 61.125 82.21875 61.039062 82.027344 C 60.800781 81.507812 59.984375 80.617188 59.375 80.230469 C 58.21875 79.503906 56.570312 79.472656 55.21875 80.15625 C 54.476562 80.542969 53.570312 81.671875 53.183594 82.710938 C 52.84375 83.628906 52.738281 84.816406 52.976562 84.980469 C 53.050781 85.023438 53.171875 85.277344 53.214844 85.542969 C 53.332031 86.050781 53.363281 86.109375 54.417969 87.175781 C 55.113281 87.875 55.382812 87.992188 57.148438 88.394531 C 58.203125 88.632812 60.175781 88.648438 60.933594 88.410156 Z M 76.609375 88.304688 L 77.039062 88.007812 L 77.039062 84.816406 C 77.039062 81.746094 76.949219 81.046875 76.578125 81.046875 C 76.414062 81.046875 74.78125 82.648438 73.804688 83.761719 C 73.359375 84.269531 73.269531 84.3125 72.496094 84.3125 L 71.679688 84.3125 L 70.0625 82.648438 C 68.742188 81.269531 68.414062 81.003906 68.25 81.164062 C 68.101562 81.3125 68.042969 82.085938 68.015625 84.207031 C 67.953125 87.609375 68.015625 88.214844 68.472656 88.4375 C 68.683594 88.542969 70.195312 88.601562 72.480469 88.601562 C 75.984375 88.617188 76.191406 88.601562 76.609375 88.304688 Z M 111.34375 88.289062 L 111.953125 87.980469 L 111.890625 85.664062 C 111.832031 83.527344 111.804688 83.289062 111.445312 82.53125 C 110.792969 81.164062 109.605469 80.113281 108.328125 79.769531 C 105.835938 79.117188 103.253906 81.121094 103.046875 83.867188 C 102.984375 84.714844 103.03125 84.949219 103.371094 85.617188 C 104.160156 87.175781 105.242188 88.023438 106.785156 88.304688 C 107.277344 88.394531 107.707031 88.5 107.734375 88.542969 C 107.78125 88.585938 108.464844 88.617188 109.265625 88.617188 C 110.46875 88.617188 110.839844 88.558594 111.34375 88.289062 Z M 89.597656 87.890625 C 89.820312 87.710938 90.070312 87.578125 90.175781 87.578125 C 90.339844 87.578125 90.5625 87.339844 91.4375 86.257812 C 91.601562 86.0625 91.734375 85.707031 91.734375 85.46875 C 91.734375 85.246094 91.792969 85.054688 91.867188 85.054688 C 92.074219 85.054688 92.238281 83.75 92.0625 83.527344 C 91.972656 83.4375 91.867188 83.09375 91.808594 82.785156 C 91.691406 82.128906 90.859375 81.03125 90.042969 80.394531 C 89.242188 79.785156 88.039062 79.53125 86.910156 79.742188 C 86.421875 79.828125 85.886719 80.023438 85.707031 80.171875 C 85.542969 80.335938 85.335938 80.453125 85.246094 80.453125 C 84.980469 80.453125 84 81.625 83.675781 82.351562 C 83.4375 82.871094 83.363281 83.332031 83.363281 84.164062 C 83.378906 85.160156 83.421875 85.367188 83.867188 86.0625 C 84.402344 86.941406 85.605469 87.980469 86.210938 88.113281 C 86.433594 88.15625 86.6875 88.230469 86.761719 88.261719 C 86.851562 88.289062 87.429688 88.289062 88.054688 88.261719 C 88.929688 88.214844 89.300781 88.128906 89.597656 87.890625 Z M 97.375 88.039062 C 97.613281 87.578125 97.566406 77.632812 97.316406 77.304688 C 96.839844 76.667969 96.78125 77.277344 96.78125 82.753906 C 96.78125 85.707031 96.824219 88.171875 96.886719 88.214844 C 97.046875 88.394531 97.210938 88.335938 97.375 88.039062 Z M 59.863281 72.035156 L 60.902344 70.953125 L 74.695312 70.953125 C 89.328125 70.953125 88.601562 70.984375 89.773438 70.300781 C 90.101562 70.105469 91.023438 69.261719 91.40625 68.800781 C 91.660156 68.503906 92.179688 67.003906 92.179688 66.589844 C 92.179688 66.054688 91.691406 64.835938 91.171875 64.09375 C 90.25 62.757812 88.914062 62.089844 87.460938 62.238281 C 85.5 62.417969 84.058594 63.621094 83.496094 65.503906 C 83.347656 65.996094 83.273438 66.886719 83.273438 68.074219 C 83.273438 69.585938 83.230469 69.898438 83.035156 69.972656 C 82.902344 70.019531 78.0625 70.0625 72.273438 70.0625 L 61.75 70.0625 L 61.675781 69.734375 C 61.644531 69.542969 61.585938 68.429688 61.570312 67.242188 C 61.542969 65.816406 61.46875 65 61.347656 64.867188 C 61.246094 64.75 60.875 64.289062 60.53125 63.84375 C 59.714844 62.804688 58.78125 62.328125 57.414062 62.226562 C 56.539062 62.164062 56.300781 62.210938 55.558594 62.566406 C 54.789062 62.921875 54.460938 63.191406 53.734375 64.066406 C 53.304688 64.585938 52.84375 65.980469 52.84375 66.765625 C 52.84375 67.183594 52.902344 67.539062 52.976562 67.539062 C 53.050781 67.539062 53.171875 67.761719 53.214844 68.027344 C 53.378906 68.757812 54.34375 69.808594 55.382812 70.359375 C 56.183594 70.789062 56.480469 70.863281 57.699219 70.921875 L 59.078125 70.996094 L 59.078125 71.578125 C 59.078125 72.066406 58.972656 72.273438 58.320312 72.957031 C 57.890625 73.417969 57.609375 73.832031 57.667969 73.921875 C 57.785156 74.113281 58.082031 73.847656 59.863281 72.035156 Z M 48.257812 70.640625 C 48.820312 70.242188 48.820312 69.75 48.242188 69.023438 C 48.003906 68.710938 47.796875 68.414062 47.796875 68.355469 C 47.796875 68.265625 46.402344 66.203125 45.390625 64.808594 C 44.722656 63.886719 44.828125 63.101562 45.777344 61.855469 C 46.058594 61.484375 46.34375 60.992188 46.402344 60.785156 C 46.445312 60.578125 46.578125 60.414062 46.699219 60.414062 C 46.816406 60.414062 46.90625 60.324219 46.90625 60.207031 C 46.90625 60.085938 46.949219 59.96875 47.023438 59.9375 C 47.160156 59.878906 47.691406 59.121094 48.226562 58.21875 C 48.523438 57.699219 48.613281 57.429688 48.507812 57.28125 C 48.40625 57.117188 48.347656 57.117188 48.285156 57.265625 C 48.257812 57.371094 48.125 57.550781 48.003906 57.652344 C 47.886719 57.773438 47.796875 57.933594 47.796875 58.007812 C 47.796875 58.097656 47.738281 58.1875 47.679688 58.21875 C 47.515625 58.277344 46.609375 59.65625 46.609375 59.835938 C 46.609375 59.910156 46.503906 60.011719 46.386719 60.058594 C 46.269531 60.117188 46.164062 60.207031 46.164062 60.265625 C 46.164062 60.324219 45.898438 60.785156 45.554688 61.289062 C 44.976562 62.164062 44.933594 62.195312 44.308594 62.195312 C 43.65625 62.195312 43.640625 62.179688 42.941406 61.140625 C 42.558594 60.546875 42.171875 59.96875 42.082031 59.835938 C 41.621094 59.109375 40.34375 57.296875 40.210938 57.222656 C 40.136719 57.164062 40.035156 57.222656 39.988281 57.355469 C 39.914062 57.550781 40.582031 58.601562 42.453125 61.273438 C 42.691406 61.617188 42.898438 61.972656 42.898438 62.046875 C 42.898438 62.136719 42.957031 62.195312 43.046875 62.195312 C 43.285156 62.195312 43.640625 63.042969 43.640625 63.621094 C 43.640625 64.140625 43.210938 64.972656 42.644531 65.578125 C 42.558594 65.667969 42.421875 65.890625 42.378906 66.054688 C 42.335938 66.21875 42.214844 66.351562 42.140625 66.351562 C 42.066406 66.351562 42.007812 66.425781 42.007812 66.5 C 42.007812 66.589844 41.933594 66.738281 41.859375 66.839844 C 41.132812 67.703125 40.0625 69.378906 39.988281 69.765625 C 39.914062 70.121094 39.960938 70.300781 40.226562 70.582031 L 40.566406 70.953125 L 44.203125 70.953125 C 47.632812 70.953125 47.855469 70.9375 48.257812 70.640625 Z M 108.921875 70.582031 C 110.035156 70.0625 111.253906 68.785156 111.386719 68.015625 C 111.433594 67.6875 111.550781 67.390625 111.640625 67.359375 C 111.890625 67.273438 111.847656 65.996094 111.582031 65.417969 C 111.445312 65.132812 111.285156 64.777344 111.222656 64.601562 C 111.015625 64.066406 109.84375 62.9375 109.101562 62.566406 C 108.582031 62.300781 108.121094 62.195312 107.558594 62.195312 C 106.683594 62.195312 105.480469 62.535156 105.136719 62.878906 C 105.019531 62.996094 104.796875 63.144531 104.648438 63.234375 C 104.171875 63.488281 103.328125 64.957031 103.089844 65.9375 C 102.972656 66.457031 102.867188 67.582031 102.867188 68.472656 L 102.867188 70.0625 L 97.523438 70.0625 L 97.523438 64.585938 C 97.523438 60.222656 97.480469 59.078125 97.332031 58.945312 C 96.824219 58.527344 96.78125 59.003906 96.78125 65.046875 L 96.78125 70.953125 L 108.136719 70.953125 Z M 108.921875 70.582031 "/>
<path style=" stroke:none;fill-rule:nonzero;fill:rgb(76.862745%,60.784314%,50.980392%);fill-opacity:1;" d="M 39.824219 88.808594 L 39.484375 88.585938 L 39.484375 82.664062 C 39.484375 76.964844 39.5 76.742188 39.765625 76.59375 C 39.929688 76.519531 40.152344 76.445312 40.269531 76.445312 C 40.40625 76.445312 41.28125 77.246094 42.246094 78.226562 C 43.375 79.371094 44.101562 80.007812 44.292969 80.007812 C 44.636719 80.007812 45.050781 79.621094 46.816406 77.722656 C 48.09375 76.339844 48.40625 76.207031 48.953125 76.785156 C 49.28125 77.128906 49.28125 77.1875 49.28125 82.738281 L 49.28125 88.335938 L 48.894531 88.691406 L 48.496094 89.0625 L 44.324219 89.046875 C 40.789062 89.046875 40.109375 89.019531 39.824219 88.808594 Z M 39.824219 88.808594 "/>
<path style=" stroke:none;fill-rule:nonzero;fill:rgb(76.862745%,60.784314%,50.980392%);fill-opacity:1;" d="M 56.628906 88.824219 C 56.140625 88.722656 55.574219 88.585938 55.382812 88.558594 C 54.9375 88.46875 54.046875 87.832031 53.660156 87.324219 C 53.496094 87.117188 53.246094 86.835938 53.109375 86.71875 C 52.960938 86.582031 52.84375 86.375 52.84375 86.242188 C 52.84375 86.125 52.738281 85.828125 52.605469 85.574219 C 52.367188 85.128906 52.21875 82.976562 52.429688 82.976562 C 52.488281 82.976562 52.503906 82.871094 52.457031 82.753906 C 52.398438 82.636719 52.441406 82.53125 52.53125 82.53125 C 52.605469 82.53125 52.753906 82.277344 52.859375 81.96875 C 53.050781 81.300781 54.195312 79.992188 54.863281 79.652344 C 55.113281 79.53125 55.769531 79.355469 56.300781 79.25 C 57.519531 79.027344 58.960938 79.234375 59.804688 79.769531 C 60.414062 80.15625 61.246094 81.046875 61.484375 81.582031 C 61.570312 81.773438 61.691406 81.9375 61.75 81.9375 C 62.015625 81.9375 62.152344 83.40625 62.121094 85.871094 L 62.078125 88.542969 L 61.660156 88.78125 C 61.113281 89.09375 57.921875 89.121094 56.628906 88.824219 Z M 56.628906 88.824219 "/>
<path style=" stroke:none;fill-rule:nonzero;fill:rgb(76.862745%,60.784314%,50.980392%);fill-opacity:1;" d="M 68.042969 88.882812 C 67.582031 88.675781 67.539062 88.261719 67.539062 84.550781 C 67.539062 80.882812 67.613281 80.558594 68.371094 80.484375 C 68.769531 80.4375 68.992188 80.617188 70.464844 82.160156 C 72.363281 84.121094 72.570312 84.207031 73.359375 83.316406 C 73.625 83.007812 74.367188 82.234375 74.992188 81.609375 C 75.910156 80.691406 76.238281 80.453125 76.578125 80.453125 C 77.441406 80.453125 77.484375 80.707031 77.484375 84.789062 L 77.484375 88.453125 L 77.054688 88.75 C 76.636719 89.046875 76.445312 89.0625 72.480469 89.046875 C 69.957031 89.046875 68.238281 88.988281 68.042969 88.882812 Z M 68.042969 88.882812 "/>
<path style=" stroke:none;fill-rule:nonzero;fill:rgb(76.862745%,60.784314%,50.980392%);fill-opacity:1;" d="M 107.304688 88.988281 C 107.261719 88.957031 106.992188 88.882812 106.710938 88.855469 C 104.945312 88.601562 103.773438 87.742188 102.925781 86.050781 C 102.601562 85.410156 102.539062 85.097656 102.539062 84.164062 C 102.570312 82.8125 102.613281 82.339844 102.734375 82.234375 C 102.792969 82.191406 102.957031 81.921875 103.105469 81.640625 C 103.863281 80.230469 104.871094 79.503906 106.445312 79.25 C 108.878906 78.851562 110.792969 79.859375 111.890625 82.085938 C 112.261719 82.871094 112.292969 83.019531 112.335938 85.664062 L 112.398438 88.425781 L 111.789062 88.75 C 111.253906 89.019531 110.925781 89.0625 109.265625 89.0625 C 108.226562 89.0625 107.335938 89.03125 107.304688 88.988281 Z M 107.304688 88.988281 "/>
<path style=" stroke:none;fill-rule:nonzero;fill:rgb(76.862745%,60.784314%,50.980392%);fill-opacity:1;" d="M 86.464844 88.75 C 86.300781 88.691406 85.988281 88.601562 85.765625 88.558594 C 85.160156 88.425781 83.957031 87.386719 83.40625 86.507812 C 82.933594 85.753906 82.917969 85.664062 82.917969 84.164062 C 82.902344 82.871094 82.960938 82.488281 83.230469 81.90625 C 83.570312 81.152344 84.550781 80.007812 84.832031 80.007812 C 84.9375 80.007812 85.113281 79.890625 85.261719 79.726562 C 85.425781 79.546875 85.914062 79.382812 86.628906 79.265625 C 88.261719 78.984375 89.597656 79.25 90.605469 80.066406 C 91.332031 80.660156 92.402344 82.054688 92.253906 82.203125 C 92.210938 82.25 92.253906 82.367188 92.328125 82.472656 C 92.417969 82.5625 92.476562 82.710938 92.460938 82.769531 C 92.445312 82.84375 92.476562 83.019531 92.550781 83.167969 C 92.699219 83.539062 92.550781 85.394531 92.359375 85.46875 C 92.269531 85.5 92.222656 85.605469 92.269531 85.722656 C 92.34375 85.914062 92.148438 86.390625 91.867188 86.746094 C 91.199219 87.578125 90.753906 88.023438 90.621094 88.023438 C 90.53125 88.023438 90.234375 88.1875 89.953125 88.394531 C 89.6875 88.585938 89.402344 88.722656 89.328125 88.675781 C 89.253906 88.632812 89.121094 88.660156 89.019531 88.734375 C 88.796875 88.898438 86.878906 88.929688 86.464844 88.75 Z M 86.464844 88.75 "/>
<path style=" stroke:none;fill-rule:nonzero;fill:rgb(76.862745%,60.784314%,50.980392%);fill-opacity:1;" d="M 96.574219 88.722656 C 96.335938 88.558594 96.320312 88.082031 96.335938 82.753906 C 96.335938 77.632812 96.367188 76.949219 96.589844 76.710938 C 96.929688 76.339844 97.449219 76.386719 97.730469 76.816406 C 97.9375 77.128906 97.96875 77.871094 97.96875 82.710938 C 97.96875 87.488281 97.9375 88.304688 97.730469 88.585938 C 97.480469 88.945312 96.972656 89.019531 96.574219 88.722656 Z M 96.574219 88.722656 "/>
<path style=" stroke:none;fill-rule:nonzero;fill:rgb(76.862745%,60.784314%,50.980392%);fill-opacity:1;" d="M 57.179688 74.335938 C 56.820312 73.980469 57 73.460938 57.757812 72.644531 C 58.1875 72.199219 58.46875 71.84375 58.394531 71.84375 C 58.320312 71.84375 58.367188 71.785156 58.484375 71.695312 C 58.839844 71.472656 58.617188 71.414062 57.296875 71.382812 C 56.167969 71.367188 55.929688 71.308594 55.027344 70.847656 C 53.914062 70.253906 52.949219 69.246094 52.769531 68.472656 C 52.726562 68.207031 52.605469 67.984375 52.53125 67.984375 C 52.441406 67.984375 52.398438 67.375 52.414062 66.5 C 52.429688 65.683594 52.488281 65.015625 52.546875 65.015625 C 52.621094 65.015625 52.753906 64.761719 52.859375 64.464844 C 52.949219 64.15625 53.125 63.796875 53.230469 63.679688 C 54.0625 62.730469 54.359375 62.476562 55.160156 62.089844 C 55.929688 61.707031 56.214844 61.644531 57.164062 61.660156 C 57.773438 61.675781 58.351562 61.734375 58.453125 61.808594 C 58.558594 61.867188 58.691406 61.898438 58.722656 61.855469 C 58.929688 61.660156 60.398438 62.671875 60.976562 63.398438 C 61.320312 63.84375 61.675781 64.273438 61.75 64.378906 C 62.046875 64.734375 62.164062 65.800781 62.089844 67.300781 C 62.046875 68.148438 62.046875 69.007812 62.105469 69.230469 L 62.195312 69.617188 L 72.273438 69.617188 C 77.824219 69.617188 82.457031 69.574219 82.589844 69.527344 C 82.785156 69.453125 82.828125 69.140625 82.828125 67.628906 C 82.828125 66.441406 82.902344 65.550781 83.050781 65.058594 C 83.332031 64.125 84.105469 62.96875 84.699219 62.609375 C 85.320312 62.238281 86.09375 61.898438 86.332031 61.898438 C 86.449219 61.898438 86.539062 61.839844 86.539062 61.765625 C 86.539062 61.644531 88.574219 61.660156 89.0625 61.792969 C 89.523438 61.914062 90.339844 62.328125 90.738281 62.640625 C 91.75 63.441406 92.625 65.253906 92.625 66.589844 C 92.625 67.359375 92.195312 68.832031 91.851562 69.246094 C 91.46875 69.707031 90.546875 70.550781 90.21875 70.746094 C 89.046875 71.429688 89.773438 71.398438 75.152344 71.398438 L 61.378906 71.398438 L 59.820312 72.957031 C 58.527344 74.277344 58.203125 74.515625 57.816406 74.515625 C 57.5625 74.515625 57.28125 74.441406 57.179688 74.335938 Z M 57.179688 74.335938 "/>
<path style=" stroke:none;fill-rule:nonzero;fill:rgb(76.862745%,60.784314%,50.980392%);fill-opacity:1;" d="M 39.8125 71.058594 C 39.378906 70.597656 39.246094 69.882812 39.5 69.289062 C 39.648438 68.875 40.878906 67.035156 41.414062 66.394531 C 41.488281 66.292969 41.5625 66.144531 41.5625 66.054688 C 41.5625 65.980469 41.621094 65.90625 41.695312 65.90625 C 41.84375 65.90625 42.097656 65.328125 42.039062 65.132812 C 42.023438 65.058594 42.097656 65.015625 42.1875 65.015625 C 42.289062 65 42.570312 64.703125 42.808594 64.332031 C 43.226562 63.664062 43.226562 63.636719 43.003906 63.144531 C 42.867188 62.863281 42.691406 62.640625 42.601562 62.640625 C 42.527344 62.640625 42.453125 62.582031 42.453125 62.492188 C 42.453125 62.417969 42.246094 62.0625 42.007812 61.71875 C 39.871094 58.675781 39.453125 57.996094 39.453125 57.519531 C 39.453125 56.835938 39.574219 56.703125 40.167969 56.703125 C 40.628906 56.703125 40.746094 56.808594 41.382812 57.683594 C 41.769531 58.21875 42.214844 58.871094 42.378906 59.136719 C 43.226562 60.546875 44.117188 61.75 44.308594 61.75 C 44.488281 61.75 45.71875 60.074219 45.71875 59.820312 C 45.71875 59.761719 45.824219 59.671875 45.941406 59.613281 C 46.058594 59.566406 46.164062 59.464844 46.164062 59.390625 C 46.164062 59.210938 47.070312 57.832031 47.234375 57.773438 C 47.292969 57.742188 47.351562 57.625 47.351562 57.503906 C 47.351562 57.386719 47.410156 57.296875 47.484375 57.296875 C 47.558594 57.296875 47.679688 57.164062 47.722656 57 C 47.796875 56.777344 47.945312 56.703125 48.375 56.703125 C 48.820312 56.703125 48.96875 56.777344 49.132812 57.089844 C 49.324219 57.429688 49.3125 57.535156 48.910156 58.230469 C 48.40625 59.152344 47.617188 60.324219 47.46875 60.382812 C 47.394531 60.414062 47.351562 60.53125 47.351562 60.652344 C 47.351562 60.769531 47.246094 60.859375 47.128906 60.859375 C 47.011719 60.859375 46.921875 60.902344 46.9375 60.976562 C 46.964844 61.171875 46.714844 61.660156 46.195312 62.34375 C 45.378906 63.398438 45.332031 63.636719 45.835938 64.347656 C 47.234375 66.320312 48.242188 67.820312 48.242188 67.910156 C 48.242188 67.96875 48.449219 68.28125 48.703125 68.609375 C 49.042969 69.023438 49.175781 69.378906 49.222656 69.871094 C 49.25 70.476562 49.207031 70.613281 48.804688 70.984375 L 48.359375 71.398438 L 44.25 71.398438 C 40.136719 71.398438 40.121094 71.398438 39.8125 71.058594 Z M 39.8125 71.058594 "/>
<path style=" stroke:none;fill-rule:nonzero;fill:rgb(76.862745%,60.784314%,50.980392%);fill-opacity:1;" d="M 96.304688 65.058594 C 96.335938 58.8125 96.351562 58.707031 96.648438 58.453125 C 97.046875 58.113281 97.417969 58.113281 97.714844 58.453125 C 97.9375 58.707031 97.96875 59.316406 97.96875 64.167969 L 97.96875 69.617188 L 102.421875 69.617188 L 102.421875 68.027344 C 102.421875 67.136719 102.527344 66.011719 102.644531 65.492188 C 102.882812 64.511719 103.726562 63.042969 104.203125 62.789062 C 104.351562 62.699219 104.574219 62.550781 104.679688 62.460938 C 105.035156 62.136719 105.851562 61.75 106 61.839844 C 106.074219 61.882812 106.132812 61.855469 106.132812 61.78125 C 106.132812 61.707031 106.695312 61.660156 107.4375 61.675781 C 108.492188 61.707031 108.878906 61.78125 109.503906 62.089844 C 110.570312 62.640625 111.625 63.8125 111.996094 64.867188 C 112.011719 64.910156 112.085938 65.074219 112.160156 65.238281 C 112.351562 65.667969 112.324219 67.730469 112.113281 67.792969 C 112.011719 67.835938 111.980469 67.953125 112.027344 68.074219 C 112.070312 68.191406 112.039062 68.28125 111.964844 68.28125 C 111.890625 68.28125 111.832031 68.414062 111.816406 68.578125 C 111.757812 69.261719 110.421875 70.550781 109.21875 71.101562 C 108.625 71.367188 108.195312 71.398438 102.421875 71.398438 L 96.261719 71.398438 Z M 96.304688 65.058594 "/>
</g>
</svg>
