<?xml version="1.0" encoding="UTF-8"?>
<svg xmlns="http://www.w3.org/2000/svg" xmlns:xlink="http://www.w3.org/1999/xlink" width="152px" height="114px" viewBox="0 0 152 152" version="1.1">
<g id="surface1">
<path style=" stroke:none;fill-rule:nonzero;fill:rgb(92.941176%,45.490196%,13.333333%);fill-opacity:1;" d="M 0 76 L 0 0 L 152 0 L 152 152 L 0 152 Z M 73.195312 134.675781 C 74.457031 134.097656 75.152344 133.460938 75.660156 132.4375 L 76.074219 131.589844 L 76.117188 126.097656 L 76.164062 120.589844 L 75.449219 120.414062 C 74.128906 120.101562 72.257812 119.894531 71.398438 119.980469 C 68.917969 120.25 66.945312 121.480469 66.085938 123.320312 C 65.195312 125.207031 65.789062 127.613281 67.433594 128.828125 C 68.265625 129.4375 68.742188 129.644531 69.75 129.867188 C 70.523438 130.03125 70.789062 129.941406 72.171875 129.125 C 72.898438 128.679688 73.285156 128.53125 73.65625 128.578125 L 74.144531 128.621094 L 74.1875 130.371094 C 74.261719 133.414062 73.9375 133.667969 70.019531 133.5625 C 68.28125 133.519531 67.421875 133.429688 66.945312 133.253906 C 66.574219 133.117188 66.21875 133.074219 66.160156 133.132812 C 66.085938 133.207031 65.996094 133.519531 65.949219 133.847656 C 65.875 134.378906 65.90625 134.453125 66.292969 134.601562 C 66.53125 134.691406 67.09375 134.839844 67.539062 134.914062 C 67.984375 135.003906 68.488281 135.109375 68.652344 135.136719 C 68.816406 135.183594 69.691406 135.183594 70.597656 135.152344 C 72.023438 135.109375 72.363281 135.046875 73.195312 134.675781 Z M 104.425781 134.988281 C 104.632812 134.898438 105.09375 134.039062 105.09375 133.726562 C 105.09375 133.652344 104.277344 133.59375 103.28125 133.59375 C 100.046875 133.59375 97.9375 132.96875 96.722656 131.664062 C 95.90625 130.789062 95.683594 130.0625 95.773438 128.472656 C 95.847656 127.046875 96.171875 126.351562 97.152344 125.445312 C 98.355469 124.347656 100.804688 123.410156 102.199219 123.53125 L 102.792969 123.574219 L 102.882812 124.332031 C 103.015625 125.355469 103.386719 126.082031 104.097656 126.691406 C 105.003906 127.464844 105.835938 127.6875 107.871094 127.671875 C 110.628906 127.640625 111.804688 127.210938 112.1875 126.082031 C 112.515625 125.117188 112.128906 123.011719 111.253906 121.019531 C 110.882812 120.191406 110.601562 120.054688 110.082031 120.425781 C 109.84375 120.605469 109.859375 120.695312 110.394531 121.792969 C 110.851562 122.773438 110.957031 123.171875 111 124.125 C 111.0625 125.175781 111.046875 125.265625 110.71875 125.445312 C 110.171875 125.742188 105.464844 125.695312 104.765625 125.398438 C 104.085938 125.089844 103.726562 124.554688 103.789062 123.914062 C 103.832031 123.46875 103.875 123.425781 104.382812 123.382812 C 104.960938 123.335938 104.914062 123.410156 105.167969 122.046875 L 105.257812 121.613281 L 104.097656 121.527344 C 103.460938 121.464844 102.304688 121.257812 101.53125 121.035156 C 97.40625 119.90625 96.320312 119.757812 94.984375 120.144531 C 94.242188 120.367188 94.140625 120.441406 94.050781 120.859375 C 94.003906 121.109375 93.960938 121.390625 93.960938 121.480469 C 93.960938 121.601562 94.539062 121.628906 95.921875 121.601562 C 97.375 121.570312 98.234375 121.628906 99.15625 121.835938 L 100.417969 122.089844 L 100.460938 122.714844 C 100.507812 123.292969 100.492188 123.320312 99.988281 123.410156 C 99.171875 123.558594 97.464844 124.316406 96.558594 124.910156 C 94.96875 125.980469 93.8125 127.746094 93.8125 129.125 C 93.8125 130.328125 94.734375 132.199219 95.757812 133.058594 C 97.003906 134.113281 98.859375 134.839844 101.011719 135.136719 C 101.574219 135.210938 104.113281 135.109375 104.425781 134.988281 Z M 121.289062 132.183594 C 123.011719 131.574219 124.433594 130.074219 124.984375 128.292969 C 125.429688 126.871094 125.339844 125.84375 124.613281 123.722656 C 124.226562 122.578125 123.382812 120.828125 123.234375 120.828125 C 122.996094 120.828125 122.148438 121.304688 122.195312 121.390625 C 123.441406 123.753906 124.09375 125.636719 124.09375 126.871094 C 124.09375 127.996094 123.871094 128.605469 123.113281 129.4375 C 122.148438 130.492188 121.613281 130.699219 119.683594 130.683594 C 118.140625 130.667969 118.007812 130.683594 117.917969 130.964844 C 117.800781 131.335938 118.230469 131.695312 119.269531 132.09375 C 120.175781 132.449219 120.472656 132.464844 121.289062 132.183594 Z M 131.398438 132.09375 C 133.652344 131.335938 135.210938 129.496094 135.910156 126.765625 C 136.621094 123.960938 135.242188 120.695312 133.074219 120.085938 C 132.511719 119.921875 132.332031 119.9375 131.707031 120.175781 C 130.179688 120.753906 129.109375 122.476562 129.421875 123.839844 C 129.839844 125.59375 131.589844 126.765625 133.859375 126.765625 L 134.78125 126.765625 L 134.78125 127.359375 C 134.78125 128.398438 133.859375 129.527344 132.40625 130.285156 C 131.621094 130.683594 131.515625 130.699219 129.320312 130.699219 L 127.046875 130.699219 L 127.09375 131.054688 C 127.136719 131.457031 127.878906 131.902344 128.992188 132.199219 C 129.941406 132.464844 130.371094 132.449219 131.398438 132.09375 Z M 45.066406 129.957031 C 45.347656 129.839844 45.808594 129.585938 46.058594 129.40625 L 46.535156 129.066406 L 45.050781 128.992188 C 42.808594 128.859375 42.304688 128.457031 42.304688 126.78125 C 42.304688 125.386719 42.347656 125.371094 44.992188 125.3125 C 46.222656 125.28125 47.394531 125.296875 47.589844 125.339844 C 47.914062 125.429688 47.914062 125.488281 47.914062 126.945312 C 47.914062 127.789062 47.855469 128.546875 47.78125 128.636719 C 47.691406 128.753906 47.722656 128.84375 47.839844 128.886719 C 47.960938 128.933594 48.09375 129.171875 48.136719 129.421875 C 48.226562 129.867188 48.257812 129.882812 49.058594 129.882812 L 49.875 129.882812 L 49.875 126.453125 C 49.875 123.085938 49.875 123.023438 49.488281 122.222656 C 49.28125 121.777344 48.894531 121.242188 48.613281 121.050781 C 48.019531 120.589844 46.789062 120.144531 45.777344 120.011719 C 44.679688 119.863281 41.695312 120.367188 40.984375 120.8125 C 40.671875 121.007812 41.355469 122.074219 41.695312 121.941406 C 42.347656 121.6875 43.714844 121.539062 44.976562 121.601562 C 47.1875 121.703125 47.796875 122.179688 47.796875 123.796875 L 47.796875 124.6875 L 45.761719 124.65625 C 43.359375 124.628906 42.496094 124.820312 41.28125 125.695312 C 40.6875 126.128906 40.210938 127.121094 40.332031 127.6875 C 40.433594 128.234375 41.324219 129.246094 42.023438 129.585938 C 43.152344 130.164062 44.25 130.296875 45.066406 129.957031 Z M 87.859375 129.824219 C 88.289062 129.703125 88.675781 129.570312 88.722656 129.527344 C 88.839844 129.40625 88.648438 128.8125 88.394531 128.488281 C 88.203125 128.21875 88.113281 128.21875 87.414062 128.367188 C 86.347656 128.621094 83.898438 128.589844 83.140625 128.324219 C 81.746094 127.835938 81.046875 126.929688 81.046875 125.59375 L 81.046875 124.835938 L 85.246094 124.804688 L 89.433594 124.761719 L 89.390625 124.242188 C 89.210938 122.179688 87.757812 120.621094 85.53125 120.085938 C 83.40625 119.582031 80.585938 121.082031 79.667969 123.203125 C 79.011719 124.703125 79.042969 126.054688 79.742188 127.476562 C 80.320312 128.636719 81.863281 129.691406 83.453125 130.03125 C 84.296875 130.210938 86.851562 130.089844 87.859375 129.824219 Z M 22.296875 129.867188 C 24.0625 129.496094 25.828125 128.355469 26.660156 127.046875 C 27.550781 125.621094 27.890625 123.023438 27.386719 121.378906 C 26.539062 118.570312 24.089844 116.835938 20.929688 116.804688 C 17.648438 116.777344 15.15625 118.304688 14.25 120.902344 C 13.359375 123.441406 13.878906 126.203125 15.585938 128.011719 C 17.085938 129.601562 19.875 130.371094 22.296875 129.867188 Z M 32.625 129.941406 L 32.953125 129.851562 L 32.953125 125.933594 C 32.953125 122.980469 32.996094 122 33.144531 121.910156 C 33.234375 121.851562 34.214844 121.777344 35.296875 121.75 L 37.257812 121.6875 L 37.257812 120.976562 C 37.257812 120.398438 37.199219 120.234375 36.976562 120.160156 C 36.515625 120.011719 35.507812 120.324219 34.570312 120.902344 C 33.382812 121.628906 32.804688 121.601562 32.613281 120.785156 C 32.523438 120.414062 32.402344 120.234375 32.269531 120.292969 C 32.167969 120.339844 31.808594 120.441406 31.484375 120.53125 L 30.875 120.695312 L 30.875 122.132812 C 30.875 122.921875 30.917969 125.027344 30.980469 126.808594 L 31.066406 130.03125 L 31.675781 130.03125 C 32.019531 130.03125 32.433594 129.988281 32.625 129.941406 Z M 54.714844 129.882812 L 55.101562 129.734375 L 55.054688 125.875 C 55.011719 122.9375 55.039062 121.984375 55.1875 121.851562 C 55.308594 121.71875 55.917969 121.660156 57.117188 121.644531 C 59.136719 121.644531 59.65625 121.835938 60.175781 122.832031 C 60.457031 123.382812 60.488281 123.707031 60.53125 126.734375 L 60.578125 130.03125 L 61.320312 130.03125 C 62.683594 130.03125 62.640625 130.164062 62.640625 126.617188 C 62.640625 123.839844 62.609375 123.425781 62.328125 122.683594 C 61.792969 121.242188 60.890625 120.5 59.136719 120.101562 C 58.410156 119.921875 58.320312 119.9375 57.578125 120.308594 C 57.148438 120.53125 56.613281 120.84375 56.40625 121.007812 C 56.125 121.214844 55.828125 121.273438 55.367188 121.242188 C 54.773438 121.199219 54.699219 121.15625 54.59375 120.710938 C 54.507812 120.367188 54.386719 120.234375 54.253906 120.292969 C 54.136719 120.324219 53.765625 120.441406 53.421875 120.53125 L 52.800781 120.710938 L 52.886719 123.605469 C 52.949219 125.207031 52.992188 127.300781 52.992188 128.28125 L 52.992188 130.03125 L 53.644531 130.03125 C 54.015625 130.03125 54.492188 129.957031 54.714844 129.882812 Z M 101.53125 128.828125 C 101.53125 128.457031 101.027344 127.953125 100.640625 127.953125 C 100.328125 127.953125 99.75 128.488281 99.75 128.785156 C 99.75 128.886719 99.957031 129.140625 100.210938 129.347656 L 100.671875 129.734375 L 101.101562 129.421875 C 101.339844 129.257812 101.53125 128.992188 101.53125 128.828125 Z M 116.9375 121.273438 C 116.910156 117.769531 116.851562 114.859375 116.804688 114.832031 C 116.777344 114.800781 116.449219 114.800781 116.078125 114.847656 L 115.394531 114.921875 L 115.453125 121.109375 C 115.484375 124.507812 115.527344 127.375 115.558594 127.476562 C 115.601562 127.582031 115.898438 127.65625 116.316406 127.65625 L 117.011719 127.65625 Z M 140.6875 121.289062 C 140.660156 117.785156 140.613281 114.890625 140.570312 114.847656 C 140.527344 114.816406 140.214844 114.816406 139.871094 114.859375 L 139.234375 114.921875 L 139.234375 119.847656 C 139.234375 122.550781 139.277344 125.414062 139.339844 126.214844 L 139.425781 127.65625 L 140.75 127.65625 Z M 109.546875 117.191406 C 109.84375 116.878906 109.875 116.777344 109.726562 116.449219 C 109.621094 116.242188 109.382812 116.003906 109.175781 115.898438 C 108.847656 115.75 108.746094 115.78125 108.433594 116.078125 C 107.972656 116.507812 107.972656 116.777344 108.390625 117.222656 C 108.804688 117.667969 109.117188 117.652344 109.546875 117.191406 Z M 80.125 105.761719 C 82.324219 105.464844 84.683594 105.003906 85.796875 104.648438 C 86.003906 104.589844 86.464844 104.457031 86.835938 104.351562 C 91.988281 102.910156 97.375 100.121094 102.09375 96.453125 C 104.070312 94.910156 107.46875 91.554688 109.117188 89.507812 C 113.613281 83.910156 116.835938 77.070312 118.214844 70.210938 C 118.824219 67.199219 119.046875 64.851562 119.046875 61.601562 C 119.046875 57.117188 118.632812 54.238281 117.265625 49.207031 C 116.835938 47.605469 115.664062 44.605469 114.636719 42.484375 C 111.222656 35.371094 105.878906 29.273438 99.050781 24.65625 L 98.117188 24.03125 L 98.117188 23.1875 C 98.132812 22.726562 98.191406 21.65625 98.265625 20.824219 C 98.339844 20.007812 98.445312 18.835938 98.503906 18.226562 L 98.59375 17.113281 L 95.179688 16.195312 C 91.230469 15.125 89.285156 14.753906 86.09375 14.472656 C 77.648438 13.699219 67.347656 15.363281 60.117188 18.660156 C 54.015625 21.433594 49.414062 24.625 44.828125 29.226562 C 39.796875 34.289062 36.632812 38.800781 34.320312 44.234375 C 32.167969 49.265625 31.066406 53.972656 30.710938 59.65625 C 30.546875 62.253906 30.683594 65.625 31.023438 67.761719 C 31.113281 68.25 31.246094 69.082031 31.335938 69.617188 C 31.425781 70.152344 31.558594 70.820312 31.632812 71.101562 C 32.34375 74.011719 32.375 74.128906 32.804688 75.480469 C 34.808594 81.789062 38.609375 88.039062 43.269531 92.699219 C 50.542969 99.957031 60.445312 104.765625 70.285156 105.835938 C 71.101562 105.925781 71.976562 106.015625 72.214844 106.042969 C 73.164062 106.175781 78.539062 105.984375 80.125 105.761719 Z M 80.125 105.761719 "/>
<path style=" stroke:none;fill-rule:nonzero;fill:rgb(92.941176%,45.490196%,13.333333%);fill-opacity:1;" d="M 69.320312 127.921875 C 68.132812 127.316406 67.628906 126.140625 67.71875 124.242188 C 67.792969 122.652344 68.132812 122.015625 69.097656 121.6875 C 70.003906 121.378906 72.332031 121.347656 73.402344 121.613281 L 74.144531 121.808594 L 74.1875 124.851562 C 74.21875 127.566406 74.203125 127.894531 73.964844 128.058594 C 73.804688 128.191406 73.105469 128.25 71.84375 128.25 C 70.195312 128.25 69.898438 128.207031 69.320312 127.921875 Z M 69.320312 127.921875 "/>
<path style=" stroke:none;fill-rule:nonzero;fill:rgb(92.941176%,45.490196%,13.333333%);fill-opacity:1;" d="M 131.1875 124.671875 C 130.460938 124.300781 130.328125 124.003906 130.328125 122.847656 C 130.328125 122.046875 130.386719 121.824219 130.65625 121.585938 C 131.308594 120.960938 132.777344 120.992188 133.726562 121.613281 C 134.46875 122.105469 135.078125 123.308594 135.078125 124.273438 L 135.078125 124.984375 L 133.414062 124.984375 C 132.050781 124.96875 131.632812 124.925781 131.1875 124.671875 Z M 131.1875 124.671875 "/>
<path style=" stroke:none;fill-rule:nonzero;fill:rgb(92.941176%,45.490196%,13.333333%);fill-opacity:1;" d="M 80.941406 124.167969 C 80.808594 123.8125 81.015625 122.34375 81.285156 121.835938 C 81.65625 121.125 82.324219 120.933594 84.253906 121.007812 C 85.664062 121.050781 85.988281 121.09375 86.332031 121.363281 C 87.101562 121.941406 87.324219 122.371094 87.339844 123.382812 L 87.355469 124.316406 L 84.195312 124.359375 C 81.433594 124.390625 81.03125 124.359375 80.941406 124.167969 Z M 80.941406 124.167969 "/>
<path style=" stroke:none;fill-rule:nonzero;fill:rgb(92.941176%,45.490196%,13.333333%);fill-opacity:1;" d="M 18.332031 128.25 C 16.964844 128.027344 16.519531 127.34375 16.164062 124.867188 C 15.75 121.882812 16.492188 119.804688 18.300781 118.898438 C 19.148438 118.484375 19.296875 118.453125 20.960938 118.453125 C 23.023438 118.453125 23.988281 118.644531 24.449219 119.136719 C 25.425781 120.203125 25.679688 124.507812 24.863281 126.230469 C 24.550781 126.898438 23.824219 127.613281 23.097656 127.984375 C 22.621094 128.234375 22.148438 128.292969 20.855469 128.339844 C 19.964844 128.367188 18.820312 128.324219 18.332031 128.25 Z M 18.332031 128.25 "/>
<path style=" stroke:none;fill-rule:nonzero;fill:rgb(100%,100%,100%);fill-opacity:1;" d="M 68.207031 135.582031 C 68.042969 135.554688 67.539062 135.449219 67.09375 135.359375 C 66.648438 135.269531 66.054688 135.121094 65.789062 135.035156 L 65.28125 134.855469 L 65.386719 134.039062 C 65.535156 132.867188 65.832031 132.199219 66.160156 132.332031 C 67.6875 132.957031 68.132812 133.042969 70.019531 133.117188 C 73.238281 133.222656 73.773438 132.851562 73.773438 130.433594 C 73.773438 129.734375 73.714844 129.125 73.640625 129.082031 C 73.582031 129.035156 73.195312 129.214844 72.792969 129.46875 C 71.472656 130.3125 70.835938 130.519531 69.972656 130.417969 C 67.925781 130.179688 66.5 129.257812 65.726562 127.699219 C 65.269531 126.765625 65.238281 126.601562 65.238281 125.207031 C 65.238281 123.914062 65.28125 123.617188 65.640625 122.875 C 67.035156 119.90625 70.996094 118.78125 75.894531 119.96875 L 76.609375 120.144531 L 76.5625 126.097656 L 76.519531 132.035156 L 76.105469 132.882812 C 75.597656 133.90625 74.902344 134.542969 73.625 135.121094 C 72.71875 135.539062 72.527344 135.566406 70.582031 135.613281 C 69.4375 135.640625 68.371094 135.628906 68.207031 135.582031 Z M 73.519531 127.613281 C 73.757812 127.449219 73.773438 127.152344 73.742188 124.851562 L 73.699219 122.253906 L 72.957031 122.058594 C 71.933594 121.792969 70.433594 121.835938 69.542969 122.132812 C 68.933594 122.34375 68.757812 122.492188 68.519531 122.964844 C 67.703125 124.628906 68.28125 126.722656 69.765625 127.476562 C 70.316406 127.746094 70.671875 127.804688 71.84375 127.804688 C 72.75 127.804688 73.359375 127.730469 73.519531 127.613281 Z M 73.519531 127.613281 "/>
<path style=" stroke:none;fill-rule:nonzero;fill:rgb(100%,100%,100%);fill-opacity:1;" d="M 100.566406 135.582031 C 95.996094 134.945312 93.367188 132.597656 93.367188 129.125 C 93.367188 126.707031 94.984375 124.730469 97.984375 123.5 C 98.546875 123.261719 99.261719 123.023438 99.542969 122.964844 C 101.191406 122.652344 98.265625 121.972656 95.742188 122.074219 C 94.808594 122.121094 93.886719 122.195312 93.707031 122.253906 C 93.410156 122.328125 93.367188 122.296875 93.367188 121.984375 C 93.367188 121.777344 93.441406 121.242188 93.53125 120.785156 L 93.707031 119.953125 L 94.539062 119.699219 C 95.164062 119.523438 95.726562 119.476562 96.855469 119.535156 C 98.28125 119.609375 98.859375 119.730469 101.976562 120.589844 C 102.75 120.8125 103.9375 121.019531 104.617188 121.082031 C 105.953125 121.183594 105.953125 121.183594 105.703125 122.164062 C 105.628906 122.445312 105.523438 122.9375 105.464844 123.246094 C 105.390625 123.753906 105.347656 123.796875 104.871094 123.796875 C 104.589844 123.796875 104.335938 123.855469 104.292969 123.929688 C 104.144531 124.167969 104.78125 124.804688 105.359375 125 C 106.074219 125.238281 109.828125 125.222656 110.289062 124.984375 C 110.839844 124.6875 110.628906 123.617188 109.695312 121.761719 C 109.265625 120.917969 108.9375 120.203125 108.96875 120.175781 C 108.996094 120.160156 109.324219 120.054688 109.695312 119.953125 C 110.066406 119.847656 110.480469 119.699219 110.617188 119.625 C 111.046875 119.402344 111.164062 119.460938 111.476562 120.085938 C 112.101562 121.304688 112.679688 123.394531 112.769531 124.6875 C 112.929688 127.492188 112.113281 128.070312 107.914062 128.132812 C 105.257812 128.160156 104.484375 127.953125 103.460938 126.929688 C 102.957031 126.410156 102.71875 126.039062 102.539062 125.386719 C 102.40625 124.910156 102.332031 124.421875 102.378906 124.300781 C 102.734375 123.367188 99.007812 124.597656 97.597656 125.890625 C 96.75 126.675781 96.335938 127.449219 96.230469 128.457031 C 96.113281 129.570312 96.394531 130.402344 97.167969 131.21875 C 98.457031 132.597656 100.683594 133.222656 104.023438 133.117188 C 105.09375 133.089844 105.984375 133.105469 105.984375 133.148438 C 105.984375 133.445312 105.078125 135.300781 104.886719 135.40625 C 104.617188 135.554688 101.308594 135.6875 100.566406 135.582031 Z M 100.566406 135.582031 "/>
<path style=" stroke:none;fill-rule:nonzero;fill:rgb(100%,100%,100%);fill-opacity:1;" d="M 118.988281 132.613281 C 118.675781 132.511719 118.1875 132.273438 117.902344 132.09375 C 117.382812 131.769531 117.382812 131.769531 117.457031 130.890625 C 117.503906 130.402344 117.578125 129.972656 117.605469 129.925781 C 117.652344 129.882812 117.933594 129.925781 118.230469 130.03125 C 118.542969 130.136719 119.253906 130.210938 119.847656 130.222656 C 121.109375 130.222656 121.835938 129.914062 122.667969 128.992188 C 123.707031 127.835938 123.855469 127.019531 123.335938 125.429688 C 122.980469 124.332031 121.777344 121.761719 121.464844 121.390625 C 121.242188 121.140625 121.316406 120.828125 121.585938 120.828125 C 121.675781 120.828125 122.105469 120.664062 122.550781 120.457031 C 122.996094 120.25 123.425781 120.085938 123.515625 120.085938 C 123.679688 120.085938 124.65625 122.105469 125.058594 123.277344 C 126.097656 126.304688 125.917969 128.636719 124.480469 130.582031 C 123.128906 132.421875 120.8125 133.28125 118.988281 132.613281 Z M 118.988281 132.613281 "/>
<path style=" stroke:none;fill-rule:nonzero;fill:rgb(100%,100%,100%);fill-opacity:1;" d="M 128.546875 132.644531 C 127.746094 132.421875 126.839844 132.003906 126.617188 131.753906 C 126.46875 131.558594 126.558594 130.359375 126.765625 130.046875 C 126.839844 129.914062 126.972656 129.914062 127.300781 130.046875 C 127.539062 130.148438 128.457031 130.238281 129.4375 130.238281 C 131.027344 130.253906 131.203125 130.222656 131.960938 129.839844 C 132.40625 129.601562 132.96875 129.246094 133.207031 129.023438 C 133.667969 128.589844 134.335938 127.613281 134.335938 127.359375 C 134.335938 127.269531 133.949219 127.210938 133.429688 127.210938 C 130.921875 127.210938 129.15625 125.875 128.902344 123.78125 C 128.710938 122.074219 129.511719 120.574219 130.996094 119.878906 C 132.984375 118.929688 134.898438 119.746094 135.9375 122 C 136.398438 122.996094 136.457031 123.292969 136.53125 124.6875 C 136.605469 126.453125 136.398438 127.550781 135.6875 129.097656 C 134.378906 131.871094 131.308594 133.402344 128.546875 132.644531 Z M 134.574219 124.0625 C 134.304688 122.714844 132.851562 121.421875 131.84375 121.644531 C 131.175781 121.777344 130.773438 122.238281 130.773438 122.847656 C 130.773438 124.019531 131.558594 124.523438 133.429688 124.539062 L 134.675781 124.539062 Z M 134.574219 124.0625 "/>
<path style=" stroke:none;fill-rule:nonzero;fill:rgb(100%,100%,100%);fill-opacity:1;" d="M 42.707031 130.460938 C 41.234375 130.121094 40.019531 129.007812 39.839844 127.847656 C 39.648438 126.574219 40.257812 125.460938 41.445312 124.878906 C 42.675781 124.273438 43.210938 124.167969 45.316406 124.183594 L 47.351562 124.199219 L 47.351562 123.765625 C 47.351562 123.21875 46.980469 122.652344 46.402344 122.34375 C 45.75 121.984375 43.285156 122.015625 42.097656 122.371094 L 41.207031 122.652344 L 40.863281 122.222656 C 40.523438 121.792969 39.972656 120.5625 40.09375 120.472656 C 40.316406 120.308594 42.4375 119.773438 43.476562 119.625 C 45.6875 119.3125 47.886719 119.699219 49.058594 120.605469 C 49.339844 120.796875 49.726562 121.332031 49.933594 121.777344 C 50.320312 122.578125 50.320312 122.609375 50.320312 126.453125 L 50.320312 130.328125 L 49.28125 130.359375 C 48.71875 130.359375 48.152344 130.371094 48.0625 130.386719 C 47.960938 130.402344 47.796875 130.195312 47.722656 129.925781 C 47.484375 129.214844 47.410156 129.199219 46.683594 129.71875 C 46.328125 129.972656 45.792969 130.285156 45.511719 130.402344 C 44.933594 130.640625 43.597656 130.667969 42.707031 130.460938 Z M 47.246094 128.265625 C 47.320312 128.191406 47.394531 127.613281 47.410156 126.988281 C 47.425781 125.621094 47.53125 125.683594 44.976562 125.757812 C 42.988281 125.800781 42.75 125.917969 42.75 126.808594 C 42.75 127.582031 43.179688 128.117188 44.011719 128.398438 C 44.546875 128.578125 47.039062 128.472656 47.246094 128.265625 Z M 47.246094 128.265625 "/>
<path style=" stroke:none;fill-rule:nonzero;fill:rgb(100%,100%,100%);fill-opacity:1;" d="M 83.007812 130.460938 C 82.101562 130.285156 80.929688 129.71875 80.230469 129.109375 C 78.703125 127.773438 78.242188 124.953125 79.207031 122.789062 C 80.914062 118.898438 87.132812 118.335938 89.226562 121.867188 C 89.597656 122.476562 89.820312 123.382812 89.847656 124.316406 L 89.878906 125.207031 L 85.691406 125.25 C 81.582031 125.28125 81.492188 125.296875 81.492188 125.59375 C 81.492188 126.066406 82.042969 127.003906 82.515625 127.34375 C 83.214844 127.847656 84.121094 128.101562 85.203125 128.101562 C 86.257812 128.101562 87.5625 127.878906 88.128906 127.613281 C 88.320312 127.523438 88.484375 127.492188 88.511719 127.523438 C 89.136719 128.382812 89.597656 129.734375 89.316406 129.914062 C 88.4375 130.476562 84.742188 130.804688 83.007812 130.460938 Z M 86.867188 123.351562 C 86.820312 122.773438 86.496094 122.253906 85.902344 121.808594 C 85.617188 121.601562 85.203125 121.511719 84.34375 121.453125 C 82.976562 121.378906 82.191406 121.585938 81.847656 122.105469 C 81.566406 122.519531 81.300781 123.605469 81.433594 123.8125 C 81.476562 123.902344 82.605469 123.929688 84.207031 123.914062 L 86.910156 123.871094 Z M 86.867188 123.351562 "/>
<path style=" stroke:none;fill-rule:nonzero;fill:rgb(100%,100%,100%);fill-opacity:1;" d="M 18.480469 130.253906 C 15.777344 129.601562 14.027344 127.847656 13.492188 125.28125 C 13.242188 124.09375 13.402344 121.554688 13.789062 120.457031 C 14.234375 119.226562 14.992188 118.246094 16.03125 117.578125 C 19.132812 115.558594 24.253906 115.988281 26.464844 118.4375 C 27.625 119.730469 28.085938 121.140625 28.085938 123.425781 C 28.070312 125.800781 27.535156 127.269531 26.183594 128.589844 C 25.5 129.257812 23.855469 130.089844 22.742188 130.3125 C 21.730469 130.519531 19.429688 130.492188 18.480469 130.253906 Z M 22.667969 127.523438 C 23.378906 127.167969 24.105469 126.4375 24.417969 125.785156 C 24.996094 124.570312 25.042969 122.460938 24.550781 120.710938 C 24.121094 119.253906 23.421875 118.898438 20.972656 118.898438 C 19.90625 118.898438 19.535156 118.972656 18.882812 119.269531 C 17.589844 119.878906 16.921875 120.796875 16.625 122.445312 C 16.34375 123.988281 16.847656 126.542969 17.574219 127.328125 C 18.214844 127.984375 21.507812 128.117188 22.667969 127.523438 Z M 22.667969 127.523438 "/>
<path style=" stroke:none;fill-rule:nonzero;fill:rgb(100%,100%,100%);fill-opacity:1;" d="M 30.578125 129.925781 C 30.578125 129.617188 30.535156 127.316406 30.472656 124.820312 L 30.386719 120.265625 L 31.203125 120.027344 C 31.660156 119.894531 32.242188 119.789062 32.492188 119.789062 C 32.894531 119.789062 32.953125 119.847656 33.042969 120.308594 C 33.085938 120.589844 33.175781 120.859375 33.234375 120.886719 C 33.28125 120.917969 33.738281 120.695312 34.246094 120.382812 C 35.148438 119.847656 35.816406 119.640625 36.769531 119.640625 C 37.660156 119.640625 37.703125 119.714844 37.703125 120.976562 L 37.703125 122.132812 L 35.742188 122.195312 C 34.660156 122.222656 33.679688 122.296875 33.578125 122.371094 C 33.429688 122.460938 33.382812 123.335938 33.414062 126.351562 C 33.414062 128.472656 33.382812 130.253906 33.324219 130.296875 C 33.265625 130.359375 32.625 130.433594 31.898438 130.445312 L 30.578125 130.507812 Z M 30.578125 129.925781 "/>
<path style=" stroke:none;fill-rule:nonzero;fill:rgb(100%,100%,100%);fill-opacity:1;" d="M 52.546875 128.949219 C 52.546875 128.101562 52.503906 125.800781 52.441406 123.839844 L 52.355469 120.265625 L 53.171875 120.027344 C 53.628906 119.894531 54.210938 119.789062 54.460938 119.789062 C 54.863281 119.789062 54.9375 119.847656 55.027344 120.25 C 55.144531 120.84375 55.441406 120.945312 55.945312 120.574219 C 56.71875 119.996094 57.890625 119.492188 58.441406 119.492188 C 59.167969 119.492188 60.324219 119.804688 61.097656 120.203125 C 61.898438 120.605469 62.386719 121.214844 62.773438 122.238281 C 63.054688 122.996094 63.085938 123.382812 63.085938 126.617188 C 63.085938 130.757812 63.21875 130.476562 61.320312 130.476562 L 60.132812 130.476562 L 60.085938 127.179688 C 60.042969 124.152344 60.011719 123.828125 59.730469 123.277344 C 59.242188 122.34375 58.664062 122.089844 57.105469 122.105469 C 56.375 122.121094 55.722656 122.195312 55.632812 122.28125 C 55.53125 122.386719 55.484375 123.753906 55.5 126.304688 L 55.53125 130.179688 L 55.144531 130.328125 C 54.921875 130.417969 54.253906 130.476562 53.644531 130.476562 L 52.546875 130.476562 Z M 52.546875 128.949219 "/>
<path style=" stroke:none;fill-rule:nonzero;fill:rgb(100%,100%,100%);fill-opacity:1;" d="M 99.765625 129.792969 C 98.933594 129.097656 99.230469 127.6875 100.269531 127.417969 C 100.847656 127.269531 101.648438 127.625 101.917969 128.132812 C 102.628906 129.527344 100.96875 130.804688 99.765625 129.792969 Z M 99.765625 129.792969 "/>
<path style=" stroke:none;fill-rule:nonzero;fill:rgb(100%,100%,100%);fill-opacity:1;" d="M 115.113281 127.921875 C 115.082031 127.820312 115.039062 124.746094 114.996094 121.09375 L 114.933594 114.460938 L 116.035156 114.371094 C 116.640625 114.3125 117.175781 114.296875 117.222656 114.355469 C 117.265625 114.402344 117.339844 117 117.371094 120.117188 C 117.398438 123.246094 117.445312 126.320312 117.472656 126.957031 L 117.519531 128.101562 L 116.34375 128.101562 C 115.542969 128.101562 115.15625 128.042969 115.113281 127.921875 Z M 115.113281 127.921875 "/>
<path style=" stroke:none;fill-rule:nonzero;fill:rgb(100%,100%,100%);fill-opacity:1;" d="M 138.878906 126.140625 C 138.832031 125.058594 138.773438 121.984375 138.746094 119.3125 C 138.714844 114.921875 138.730469 114.445312 138.953125 114.445312 C 139.085938 114.445312 139.589844 114.402344 140.09375 114.355469 L 140.984375 114.253906 L 141.074219 115.5 C 141.121094 116.183594 141.179688 119.300781 141.207031 122.429688 L 141.253906 128.101562 L 138.96875 128.101562 Z M 138.878906 126.140625 "/>
<path style=" stroke:none;fill-rule:nonzero;fill:rgb(100%,100%,100%);fill-opacity:1;" d="M 108.566406 118.050781 C 107.617188 117.875 107.214844 116.449219 107.898438 115.722656 C 108.402344 115.1875 109.398438 115.171875 109.917969 115.707031 C 110.421875 116.195312 110.4375 117.222656 109.960938 117.667969 C 109.589844 117.992188 109.058594 118.140625 108.566406 118.050781 Z M 108.566406 118.050781 "/>
<path style=" stroke:none;fill-rule:nonzero;fill:rgb(100%,100%,100%);fill-opacity:1;" d="M 71.769531 106.488281 C 71.53125 106.460938 70.65625 106.371094 69.839844 106.28125 C 63.695312 105.613281 57.339844 103.445312 51.984375 100.210938 C 44.441406 95.667969 38.921875 89.910156 35.238281 82.769531 C 33.441406 79.296875 32.046875 75.480469 31.304688 72.066406 C 31.214844 71.664062 31.082031 71.058594 31.007812 70.730469 C 30.296875 67.480469 29.984375 61.914062 30.296875 58.1875 C 31.023438 49.816406 33.8125 42.125 38.550781 35.519531 C 40.925781 32.195312 45.347656 27.550781 48.539062 24.996094 C 54.253906 20.441406 60.398438 17.367188 67.316406 15.601562 C 74.753906 13.6875 83.511719 13.285156 90.546875 14.53125 C 92.253906 14.84375 98.859375 16.566406 99.023438 16.742188 C 99.113281 16.832031 99.066406 17.484375 98.800781 20.335938 C 98.753906 20.78125 98.679688 21.703125 98.621094 22.355469 L 98.53125 23.570312 L 99.46875 24.210938 C 104.410156 27.535156 108.597656 31.632812 111.757812 36.292969 C 114.3125 40.035156 116.714844 45.066406 117.710938 48.761719 C 119.121094 53.925781 119.492188 56.644531 119.492188 61.601562 C 119.492188 69.128906 118.125 75.019531 114.816406 81.730469 C 111.386719 88.691406 105.96875 94.792969 99.335938 99.199219 C 95.726562 101.605469 91.183594 103.714844 87.28125 104.796875 C 86.910156 104.902344 86.449219 105.035156 86.242188 105.09375 C 85.128906 105.449219 82.785156 105.910156 80.570312 106.222656 C 79 106.429688 72.777344 106.621094 71.769531 106.488281 Z M 79.148438 99.808594 C 83.675781 99.230469 87.667969 98.011719 91.765625 95.933594 C 99.273438 92.148438 105.210938 86.183594 108.984375 78.640625 C 115.203125 66.160156 114.253906 51.96875 106.398438 40.300781 C 103.164062 35.492188 98.546875 31.214844 93.472656 28.292969 C 92.683594 27.847656 92.730469 27.789062 92.492188 29.242188 C 92.402344 29.777344 92.136719 31.410156 91.882812 32.878906 C 91.628906 34.347656 91.214844 36.855469 90.949219 38.445312 L 90.457031 41.339844 L 89.507812 41.382812 C 86.894531 41.488281 82.277344 42.1875 81.523438 42.601562 C 81.386719 42.660156 81.582031 42.792969 82.042969 42.972656 C 84.550781 43.90625 87.535156 45.925781 89.433594 47.988281 C 91.75 50.5 93.292969 53.289062 94.152344 56.554688 C 94.539062 58.070312 94.597656 58.574219 94.671875 60.917969 C 94.71875 62.609375 94.671875 64.082031 94.554688 64.925781 C 93.410156 73.269531 87.265625 79.964844 79.042969 81.820312 C 77.144531 82.25 72.988281 82.351562 71.058594 82.027344 C 67.894531 81.492188 64.925781 80.289062 62.535156 78.582031 C 58.070312 75.363281 55.367188 70.953125 54.386719 65.3125 C 54.089844 63.574219 54.179688 59.152344 54.550781 57.519531 C 55.324219 54.0625 56.851562 50.988281 59.046875 48.421875 C 59.820312 47.53125 62.671875 44.960938 64.050781 43.921875 C 67.136719 41.578125 70.953125 40.003906 75.109375 39.320312 C 77.484375 38.921875 83.675781 38.757812 85.679688 39.039062 C 86.40625 39.128906 87.027344 39.1875 87.058594 39.15625 C 87.101562 39.113281 87.769531 35.210938 89.507812 24.789062 C 89.835938 22.875 90.101562 21.257812 90.101562 21.210938 C 90.101562 20.871094 85.113281 20.335938 81.789062 20.335938 C 77.425781 20.335938 73.359375 20.839844 69.171875 21.894531 C 61.484375 23.839844 54.328125 28.011719 48.644531 33.902344 C 42.929688 39.824219 39.5 45.777344 37.792969 52.738281 C 36.976562 56.066406 36.769531 57.964844 36.769531 61.972656 C 36.769531 65.121094 36.8125 65.980469 37.09375 67.613281 C 38.949219 78.554688 44.339844 87.042969 53.320312 93.175781 C 59.003906 97.0625 64.761719 99.214844 71.398438 99.941406 C 72.867188 100.105469 77.453125 100.03125 79.148438 99.808594 Z M 79.148438 99.808594 "/>
<path style=" stroke:none;fill-rule:nonzero;fill:rgb(0%,68.235294%,67.45098%);fill-opacity:1;" d="M 70.953125 100.386719 C 64.316406 99.660156 58.558594 97.507812 52.875 93.621094 C 43.894531 87.488281 38.503906 79 36.648438 68.058594 C 36.367188 66.382812 36.324219 65.578125 36.308594 61.972656 C 36.308594 57.488281 36.5 55.753906 37.347656 52.292969 C 39.542969 43.300781 45.378906 34.851562 53.691406 28.632812 C 61.511719 22.769531 70.804688 19.890625 81.789062 19.890625 C 84.847656 19.890625 87.546875 20.097656 89.699219 20.5 C 90.25 20.601562 90.695312 20.722656 90.695312 20.765625 C 90.695312 20.8125 90.265625 23.421875 89.730469 26.570312 C 89.210938 29.71875 88.5 33.960938 88.15625 35.996094 C 87.816406 38.042969 87.519531 39.722656 87.503906 39.75 C 87.472656 39.78125 86.671875 39.691406 85.722656 39.542969 C 83.390625 39.21875 78.269531 39.320312 75.554688 39.765625 C 71.398438 40.433594 67.582031 42.023438 64.496094 44.367188 C 63.117188 45.40625 60.265625 47.976562 59.492188 48.867188 C 57.265625 51.464844 55.738281 54.582031 54.980469 58.039062 C 54.609375 59.746094 54.535156 63.160156 54.832031 64.867188 C 56.003906 71.664062 59.851562 76.875 65.832031 79.800781 C 68.859375 81.269531 71.695312 81.863281 75.09375 81.746094 C 78.300781 81.625 80.617188 81.046875 83.421875 79.636719 C 87.191406 77.738281 90.53125 74.292969 92.386719 70.34375 C 93.753906 67.464844 94.347656 64.453125 94.214844 60.917969 C 94.140625 58.351562 93.664062 56.242188 92.667969 53.957031 C 91.007812 50.097656 87.429688 46.296875 83.644531 44.351562 C 82.21875 43.625 80.320312 42.898438 79.84375 42.898438 C 79.207031 42.898438 79.636719 42.601562 80.792969 42.246094 C 83.066406 41.53125 86.003906 41.074219 89.285156 40.925781 L 90.011719 40.894531 L 90.503906 38 C 91.050781 34.734375 91.777344 30.429688 92.136719 28.382812 L 92.359375 27.015625 L 93.5 27.625 C 94.125 27.964844 95.328125 28.707031 96.1875 29.285156 C 107.066406 36.546875 113.570312 48.671875 113.523438 61.675781 C 113.511719 67.925781 112.175781 73.566406 109.429688 79.085938 C 104.171875 89.625 94.597656 97.09375 83.035156 99.660156 C 80.261719 100.285156 78.046875 100.492188 74.621094 100.460938 C 72.882812 100.460938 71.234375 100.417969 70.953125 100.386719 Z M 70.953125 100.386719 "/>
</g>
</svg>
