<?xml version="1.0" encoding="UTF-8"?>
<svg xmlns="http://www.w3.org/2000/svg" xmlns:xlink="http://www.w3.org/1999/xlink" width="152px" height="114px" viewBox="0 0 152 152" version="1.1">
<g id="surface1">
<path style=" stroke:none;fill-rule:nonzero;fill:rgb(93.72549%,35.294118%,32.941176%);fill-opacity:1;" d="M 0 144.019531 C 0 136.421875 0.0390625 136.039062 0.722656 136.039062 C 1.597656 136.039062 3.496094 138.128906 4.597656 140.335938 C 5.511719 142.082031 5.964844 146.070312 5.546875 148.351562 C 5.394531 149.074219 4.863281 150.214844 4.332031 150.859375 C 3.496094 151.808594 3.078125 152 1.671875 152 L 0 152 Z M 0 144.019531 "/>
<path style=" stroke:none;fill-rule:nonzero;fill:rgb(93.72549%,35.294118%,32.941176%);fill-opacity:1;" d="M 20.898438 151.238281 C 20.445312 150.785156 19.949219 150.023438 19.761719 149.492188 C 19.265625 148.238281 19.265625 143.410156 19.761719 141.738281 C 20.367188 139.574219 22.6875 136.609375 25.496094 134.367188 C 27.890625 132.46875 28.386719 132.238281 29.945312 132.238281 C 31.425781 132.238281 32.109375 132.542969 34.542969 134.214844 C 36.101562 135.316406 40.8125 138.28125 44.953125 140.789062 C 49.132812 143.335938 53.808594 146.339844 55.328125 147.476562 C 57.835938 149.300781 58.140625 149.683594 58.140625 150.785156 L 58.140625 152 L 41.230469 152 L 40.585938 150.214844 C 39.824219 148.125 37.734375 145.804688 35.605469 144.742188 C 33.554688 143.679688 33.058594 143.980469 33.058594 146.261719 C 33.058594 148.464844 32.566406 149.949219 31.464844 151.164062 C 30.703125 151.925781 30.324219 152 26.144531 152 C 22.152344 152 21.585938 151.925781 20.898438 151.238281 Z M 20.898438 151.238281 "/>
<path style=" stroke:none;fill-rule:nonzero;fill:rgb(93.72549%,35.294118%,32.941176%);fill-opacity:1;" d="M 66.386719 149.53125 C 65.398438 148.160156 63.726562 146.339844 62.660156 145.464844 C 61.027344 144.019531 60.800781 143.640625 60.800781 142.386719 C 60.800781 141.054688 61.066406 140.675781 63.800781 138.09375 C 67.296875 134.785156 68.894531 132.46875 70.109375 128.933594 C 70.90625 126.464844 71.023438 126.351562 72.277344 126.234375 C 73.566406 126.121094 73.605469 126.160156 74.101562 127.945312 C 75.050781 131.480469 76.796875 134.179688 80.445312 137.824219 C 84.929688 142.234375 84.929688 142.5 81.472656 145.921875 C 80.105469 147.289062 78.394531 149.1875 77.632812 150.214844 L 76.304688 152 L 68.210938 152 Z M 66.386719 149.53125 "/>
<path style=" stroke:none;fill-rule:nonzero;fill:rgb(93.72549%,35.294118%,32.941176%);fill-opacity:1;" d="M 86.335938 150.785156 C 86.410156 149.71875 86.867188 149.1875 89.109375 147.515625 C 90.59375 146.453125 93.898438 144.246094 96.519531 142.652344 C 106.589844 136.496094 109.324219 134.746094 111.226562 133.34375 C 114.039062 131.214844 115.785156 131.253906 118.789062 133.492188 C 123.574219 137.066406 125.78125 140.335938 126.085938 144.476562 C 126.3125 147.742188 125.96875 149.414062 124.792969 150.859375 L 123.804688 152 L 114.417969 152 L 113.542969 150.785156 C 112.898438 149.871094 112.632812 148.882812 112.554688 146.984375 C 112.367188 143.945312 111.949219 143.640625 109.59375 144.816406 C 107.539062 145.769531 105.449219 148.160156 104.765625 150.253906 L 104.234375 151.808594 L 95.226562 151.925781 L 86.222656 152 Z M 86.335938 150.785156 "/>
<path style=" stroke:none;fill-rule:nonzero;fill:rgb(93.72549%,35.294118%,32.941176%);fill-opacity:1;" d="M 141.019531 151.011719 C 139.800781 149.492188 139.347656 147.25 139.648438 144.398438 C 140.105469 140.257812 142.15625 137.105469 146.605469 133.796875 C 148.617188 132.277344 149.453125 131.859375 150.59375 131.859375 L 152 131.859375 L 152 141.472656 C 152 148.429688 151.886719 151.203125 151.542969 151.542969 C 151.238281 151.847656 149.53125 152 146.453125 152 C 141.890625 152 141.777344 152 141.019531 151.011719 Z M 141.019531 151.011719 "/>
<path style=" stroke:none;fill-rule:nonzero;fill:rgb(93.72549%,35.294118%,32.941176%);fill-opacity:1;" d="M 10.867188 141.285156 C 10.183594 137.675781 6.953125 132.886719 3.117188 129.769531 C 0.988281 128.058594 0.761719 127.71875 0.761719 126.425781 C 0.761719 125.285156 1.179688 124.449219 2.964844 122.054688 C 6.726562 117.117188 9.15625 112.023438 10.261719 106.703125 L 10.679688 104.5 L 12.160156 104.5 C 13.566406 104.5 13.605469 104.539062 13.832031 106.210938 C 14.628906 111.378906 18.050781 118.292969 22.304688 123.386719 C 24.777344 126.351562 24.660156 127.261719 21.164062 130.378906 C 17.746094 133.492188 15.695312 136.382812 14.59375 139.765625 C 13.757812 142.195312 13.679688 142.308594 12.425781 142.425781 C 11.210938 142.539062 11.097656 142.460938 10.867188 141.285156 Z M 10.867188 141.285156 "/>
<path style=" stroke:none;fill-rule:nonzero;fill:rgb(93.72549%,35.294118%,32.941176%);fill-opacity:1;" d="M 131.289062 141.472656 C 130.414062 137.484375 127.375 132.925781 123.539062 129.769531 C 121.371094 127.984375 121.21875 127.757812 121.21875 126.273438 C 121.21875 125.058594 121.484375 124.375 122.285156 123.425781 C 126.234375 118.863281 129.503906 112.136719 130.910156 105.5625 C 131.101562 104.652344 131.289062 104.5 132.429688 104.5 C 133.644531 104.5 133.761719 104.613281 134.101562 106.132812 C 135.585938 112.367188 138.242188 117.875 142.15625 122.703125 C 145.273438 126.617188 145.234375 127.109375 141.511719 130.492188 C 138.09375 133.570312 136.34375 136.117188 135.089844 139.6875 C 134.214844 142.195312 134.140625 142.308594 132.847656 142.425781 C 131.632812 142.539062 131.480469 142.425781 131.289062 141.472656 Z M 131.289062 141.472656 "/>
<path style=" stroke:none;fill-rule:nonzero;fill:rgb(93.72549%,35.294118%,32.941176%);fill-opacity:1;" d="M 45.980469 134.101562 C 31.425781 125.132812 26.867188 121.03125 23.21875 113.542969 C 21.050781 109.136719 20.480469 106.628906 20.253906 100.699219 C 19.875 90.554688 22.191406 83.902344 28.574219 76.949219 C 30.398438 74.972656 30.550781 74.859375 32.339844 74.859375 L 34.199219 74.859375 L 34.199219 117.039062 L 37.734375 117.039062 C 43.28125 117.039062 43.777344 117.191406 44.574219 119.09375 C 45.371094 121.03125 47.121094 122.929688 49.097656 123.917969 C 51.375 125.097656 51.566406 124.945312 51.757812 122.054688 C 52.023438 118.484375 52.667969 117.570312 55.214844 117.269531 C 57.722656 116.964844 61.523438 116.964844 62.964844 117.269531 C 64.828125 117.648438 65.550781 119.320312 65.511719 123.121094 C 65.472656 128.289062 63.765625 131.101562 58.027344 135.355469 C 53.695312 138.546875 53.125 138.511719 45.980469 134.101562 Z M 45.980469 134.101562 "/>
<path style=" stroke:none;fill-rule:nonzero;fill:rgb(93.72549%,35.294118%,32.941176%);fill-opacity:1;" d="M 86.261719 135.128906 C 80.75 131.023438 79.039062 128.097656 79.039062 122.890625 C 79.039062 119.851562 79.648438 118.105469 80.902344 117.421875 C 81.699219 117.003906 89.300781 116.886719 90.707031 117.269531 C 91.847656 117.570312 92.71875 119.625 92.71875 122.09375 C 92.71875 123.273438 92.910156 124.335938 93.136719 124.449219 C 93.367188 124.601562 94.277344 124.449219 95.226562 124.070312 C 97.128906 123.347656 99.675781 120.6875 100.320312 118.75 C 100.660156 117.648438 100.929688 117.496094 102.484375 117.269531 C 104.726562 116.964844 112.820312 116.964844 115.445312 117.269531 C 117.382812 117.535156 117.421875 117.535156 117.421875 118.789062 C 117.421875 119.851562 117.003906 120.421875 114.34375 122.855469 C 110.464844 126.464844 106.285156 129.429688 98.722656 133.988281 C 91.125 138.585938 90.859375 138.585938 86.261719 135.128906 Z M 86.261719 135.128906 "/>
<path style=" stroke:none;fill-rule:nonzero;fill:rgb(93.72549%,35.294118%,32.941176%);fill-opacity:1;" d="M 147.667969 119.890625 C 142.195312 113.164062 140.296875 106.933594 140.714844 97.164062 C 141.019531 89.222656 142.84375 84.320312 147.628906 78.585938 C 149.378906 76.457031 149.949219 76 150.859375 76 L 152 76 L 152 121.980469 L 150.707031 121.980469 C 149.566406 121.980469 149.148438 121.675781 147.667969 119.890625 Z M 147.667969 119.890625 "/>
<path style=" stroke:none;fill-rule:nonzero;fill:rgb(93.72549%,35.294118%,32.941176%);fill-opacity:1;" d="M 118.558594 99.179688 L 118.558594 83.980469 L 119.851562 83.980469 C 121.03125 83.980469 121.183594 84.132812 122.09375 86.261719 C 123.84375 90.25 124.375 93.972656 124.144531 100.660156 C 123.957031 106.628906 123.652344 108.261719 121.789062 112.785156 C 121.21875 114.226562 120.992188 114.378906 119.851562 114.378906 L 118.558594 114.378906 Z M 118.558594 99.179688 "/>
<path style=" stroke:none;fill-rule:nonzero;fill:rgb(93.72549%,35.294118%,32.941176%);fill-opacity:1;" d="M 0 98.988281 C 0 85.691406 0.0390625 85.121094 0.722656 85.121094 C 1.480469 85.121094 2.546875 87.628906 3.457031 91.578125 C 4.21875 94.734375 4.105469 104.121094 3.304688 107.160156 C 2.203125 111.300781 1.480469 112.859375 0.722656 112.859375 C 0.0390625 112.859375 0 112.253906 0 98.988281 Z M 0 98.988281 "/>
<path style=" stroke:none;fill-rule:nonzero;fill:rgb(93.72549%,35.294118%,32.941176%);fill-opacity:1;" d="M 9.957031 90.59375 C 8.398438 84.472656 5.851562 79.570312 1.558594 74.289062 L 0 72.390625 L 0 64.523438 C 0 56.886719 0.0390625 56.621094 0.761719 56.621094 C 1.328125 56.621094 1.519531 56.886719 1.519531 57.683594 C 1.519531 59.316406 3.609375 64.867188 5.054688 66.992188 C 6.574219 69.3125 8.855469 71.628906 10.980469 73.113281 L 12.503906 74.175781 L 14.175781 72.996094 C 18.355469 70.148438 21.46875 65.398438 22.914062 59.773438 C 23.75 56.507812 23.789062 56.429688 24.964844 56.316406 C 25.613281 56.238281 26.789062 56.46875 27.550781 56.773438 C 28.386719 57.113281 30.097656 57.378906 31.578125 57.378906 L 34.199219 57.378906 L 34.199219 60.988281 C 34.199219 63.839844 34.085938 64.601562 33.667969 64.601562 C 33.363281 64.601562 33.058594 64.714844 32.984375 64.902344 C 32.945312 65.054688 31.882812 65.890625 30.703125 66.804688 C 22.078125 73.1875 16.148438 81.851562 14.058594 91.011719 C 13.453125 93.632812 13.453125 93.671875 12.121094 93.785156 L 10.753906 93.898438 Z M 9.957031 90.59375 "/>
<path style=" stroke:none;fill-rule:nonzero;fill:rgb(93.72549%,35.294118%,32.941176%);fill-opacity:1;" d="M 130.910156 92.835938 C 129.199219 84.703125 125.324219 77.40625 119.929688 72.238281 L 118.558594 70.90625 L 118.558594 56.203125 L 120.15625 56.316406 L 121.789062 56.429688 L 122.054688 58.40625 C 122.855469 63.878906 126.804688 70.070312 131.554688 73.226562 L 132.960938 74.175781 L 135.015625 72.617188 C 139.003906 69.617188 142.425781 64.144531 143.296875 59.433594 C 143.5625 58.214844 143.792969 56.960938 143.867188 56.734375 C 144.058594 56.050781 146.222656 56.125 148.199219 56.808594 C 149.074219 57.113281 150.289062 57.378906 150.898438 57.378906 L 152 57.378906 L 152 66.007812 L 149.113281 68.398438 C 141.738281 74.519531 136.34375 82.800781 134.519531 90.820312 C 134.253906 91.960938 133.988281 93.136719 133.910156 93.402344 C 133.835938 93.632812 133.191406 93.859375 132.46875 93.859375 C 131.289062 93.859375 131.101562 93.707031 130.910156 92.835938 Z M 130.910156 92.835938 "/>
<path style=" stroke:none;fill-rule:nonzero;fill:rgb(93.72549%,35.294118%,32.941176%);fill-opacity:1;" d="M 9.765625 62.394531 C 7.636719 60.078125 7.066406 52.972656 8.320312 44.839844 C 9.007812 40.316406 9.691406 35.453125 10.5625 28.5 L 10.828125 26.410156 L 14.25 26.410156 L 14.707031 30.96875 C 14.933594 33.476562 15.578125 38.265625 16.148438 41.609375 C 17.023438 46.777344 17.136719 48.5625 17.023438 53.578125 C 16.910156 58.746094 16.796875 59.660156 16.074219 61.027344 C 15.085938 62.851562 14.667969 63.078125 12.199219 63.078125 C 10.945312 63.078125 10.183594 62.890625 9.765625 62.394531 Z M 9.765625 62.394531 "/>
<path style=" stroke:none;fill-rule:nonzero;fill:rgb(93.72549%,35.294118%,32.941176%);fill-opacity:1;" d="M 129.996094 62.054688 C 129.542969 61.523438 128.894531 60.117188 128.554688 58.9375 C 127.71875 56.050781 128.097656 48.03125 129.390625 40.46875 C 129.921875 37.355469 130.453125 33.402344 130.566406 31.730469 C 130.910156 26.105469 130.871094 26.21875 132.808594 26.21875 C 134.746094 26.21875 134.710938 26.144531 135.050781 30.96875 C 135.203125 32.640625 135.8125 37.164062 136.421875 41.039062 C 138.242188 52.210938 137.941406 59.699219 135.621094 62.167969 C 134.9375 62.890625 134.367188 63.078125 132.773438 63.078125 C 131.0625 63.078125 130.644531 62.929688 129.996094 62.054688 Z M 129.996094 62.054688 "/>
<path style=" stroke:none;fill-rule:nonzero;fill:rgb(93.72549%,35.294118%,32.941176%);fill-opacity:1;" d="M 25.839844 50.921875 C 22.117188 48.945312 18.734375 44.382812 16.871094 38.949219 C 16.074219 36.519531 15.847656 35.148438 15.808594 32.109375 C 15.808594 30.019531 15.882812 27.855469 16.074219 27.285156 C 16.339844 26.335938 16.53125 26.21875 18.050781 26.21875 C 19.949219 26.21875 19.910156 26.21875 20.292969 29.828125 C 20.558594 32.871094 21.964844 36.0625 23.902344 38.113281 C 25.765625 40.128906 27.589844 41.152344 31.652344 42.558594 L 34.199219 43.472656 L 34.199219 50.769531 L 32.945312 51.222656 C 31.007812 51.90625 27.398438 51.757812 25.839844 50.921875 Z M 25.839844 50.921875 "/>
<path style=" stroke:none;fill-rule:nonzero;fill:rgb(93.72549%,35.294118%,32.941176%);fill-opacity:1;" d="M 145.691406 50.539062 C 142.121094 48.527344 138.8125 43.8125 137.21875 38.609375 C 136.304688 35.566406 135.851562 30.589844 136.304688 28.121094 C 136.609375 26.484375 136.6875 26.410156 138.09375 26.296875 C 138.890625 26.21875 139.6875 26.296875 139.878906 26.484375 C 140.066406 26.675781 140.371094 28.082031 140.601562 29.640625 C 141.511719 36.136719 145.539062 40.964844 150.898438 42.066406 L 152 42.292969 L 152 51.679688 L 149.835938 51.679688 C 148.085938 51.679688 147.210938 51.453125 145.691406 50.539062 Z M 145.691406 50.539062 "/>
<path style=" stroke:none;fill-rule:nonzero;fill:rgb(93.72549%,35.294118%,32.941176%);fill-opacity:1;" d="M 118.558594 45.335938 L 118.558594 40.851562 L 120.421875 39.214844 C 122.890625 37.125 124.488281 33.894531 125.132812 29.640625 L 125.628906 26.410156 L 127.109375 26.296875 C 129.238281 26.105469 129.578125 26.753906 129.578125 30.96875 C 129.578125 37.277344 127.414062 43.207031 123.460938 47.652344 C 121.753906 49.550781 121.371094 49.78125 120.042969 49.78125 L 118.558594 49.78125 Z M 118.558594 45.335938 "/>
<path style=" stroke:none;fill-rule:nonzero;fill:rgb(93.72549%,35.294118%,32.941176%);fill-opacity:1;" d="M 0 44.421875 L 0 39.445312 L 1.140625 38.152344 C 3.230469 35.757812 4.445312 32.71875 4.863281 28.804688 L 5.128906 26.410156 L 6.648438 26.296875 C 8.816406 26.105469 9.121094 26.714844 9.121094 31.351562 C 9.121094 35.757812 8.511719 38.53125 6.6875 42.371094 C 5.320312 45.335938 1.824219 49.398438 0.722656 49.398438 C 0.0390625 49.398438 0 49.058594 0 44.421875 Z M 0 44.421875 "/>
<path style=" stroke:none;fill-rule:nonzero;fill:rgb(93.72549%,35.294118%,32.941176%);fill-opacity:1;" d="M 39.519531 31.730469 C 39.519531 30.664062 39.671875 30.398438 40.242188 30.398438 C 41.722656 30.398438 41.570312 26.484375 40.015625 23.371094 C 38.761719 20.863281 35.949219 18.621094 34.085938 18.621094 C 33.210938 18.621094 33.136719 18.773438 32.984375 21.089844 C 32.71875 25.230469 30.78125 27.09375 26.484375 27.285156 C 23.257812 27.4375 21.585938 26.753906 20.253906 24.738281 C 19.492188 23.636719 19.378906 22.953125 19.378906 19.988281 C 19.378906 17.441406 19.570312 16.113281 20.101562 15.011719 C 21.015625 12.996094 23.976562 9.765625 26.753906 7.714844 C 29.980469 5.394531 30.703125 5.472656 35.683594 8.703125 C 37.886719 10.144531 42.597656 13.035156 46.132812 15.160156 C 49.628906 17.289062 53.730469 19.949219 55.253906 21.050781 C 60.382812 24.851562 63.421875 28.878906 63.460938 31.84375 L 63.460938 33.058594 L 39.519531 33.058594 Z M 39.519531 31.730469 "/>
<path style=" stroke:none;fill-rule:nonzero;fill:rgb(93.72549%,35.294118%,32.941176%);fill-opacity:1;" d="M 68.78125 31.730469 C 68.78125 30.816406 68.96875 30.398438 69.351562 30.398438 C 70.109375 30.398438 70.070312 29.792969 69.160156 27.777344 C 68.097656 25.460938 65.4375 21.851562 63.117188 19.570312 C 61.523438 18.050781 61.179688 17.480469 61.179688 16.378906 C 61.179688 15.238281 61.597656 14.667969 64.335938 12.007812 C 67.488281 8.890625 69.539062 5.699219 70.488281 2.507812 C 70.90625 1.101562 71.097656 0.949219 72.277344 0.835938 C 73.566406 0.722656 73.605469 0.761719 74.289062 3.039062 C 75.238281 6.195312 77.40625 9.347656 80.75 12.464844 C 84.472656 15.960938 84.511719 16.492188 81.167969 19.835938 C 77.519531 23.484375 74.101562 29.296875 74.101562 31.882812 C 74.101562 32.71875 73.113281 33.058594 70.605469 33.058594 L 68.78125 33.058594 Z M 68.78125 31.730469 "/>
<path style=" stroke:none;fill-rule:nonzero;fill:rgb(93.72549%,35.294118%,32.941176%);fill-opacity:1;" d="M 79.800781 31.730469 C 79.800781 30.703125 79.953125 30.398438 80.484375 30.398438 C 80.976562 30.398438 81.472656 29.828125 81.929688 28.804688 C 83.523438 25.230469 88.652344 21.089844 99.941406 14.25 C 102.980469 12.425781 107.199219 9.726562 109.324219 8.320312 C 114.378906 4.941406 114.988281 4.902344 118.789062 7.828125 C 124.375 12.085938 125.855469 14.476562 126.085938 19.570312 C 126.199219 22.6875 126.160156 23.105469 125.324219 24.320312 C 123.804688 26.5625 122.246094 27.359375 119.359375 27.359375 C 114.761719 27.359375 112.480469 25.269531 112.480469 21.050781 C 112.480469 18.695312 112.441406 18.621094 111.492188 18.621094 C 108.90625 18.621094 105.945312 21.28125 104.726562 24.699219 C 104.15625 26.296875 104.082031 27.246094 104.273438 29.867188 L 104.539062 33.058594 L 79.800781 33.058594 Z M 79.800781 31.730469 "/>
<path style=" stroke:none;fill-rule:nonzero;fill:rgb(93.72549%,35.294118%,32.941176%);fill-opacity:1;" d="M 0 18.808594 C 0 10.679688 0.0390625 10.261719 0.722656 10.261719 C 1.671875 10.261719 3.6875 12.578125 4.789062 14.972656 C 5.511719 16.492188 5.699219 17.554688 5.699219 19.875 C 5.699219 23.597656 4.863281 25.496094 2.660156 26.601562 C -0.113281 28.007812 0 28.347656 0 18.808594 Z M 0 18.808594 "/>
<path style=" stroke:none;fill-rule:nonzero;fill:rgb(93.72549%,35.294118%,32.941176%);fill-opacity:1;" d="M 142.878906 26.714844 C 140.21875 25.347656 139.003906 21.734375 139.800781 17.59375 C 140.523438 13.792969 142.15625 11.515625 146.375 8.359375 C 148.695312 6.613281 149.683594 6.078125 150.707031 6.078125 L 152 6.078125 L 152 25.421875 L 150.820312 26.257812 C 149.148438 27.4375 144.78125 27.703125 142.878906 26.714844 Z M 142.878906 26.714844 "/>
<path style=" stroke:none;fill-rule:nonzero;fill:rgb(93.72549%,35.294118%,32.941176%);fill-opacity:1;" d="M 10.867188 15.503906 C 10.183594 11.855469 6.839844 6.953125 2.851562 3.722656 C 1.101562 2.316406 0.378906 1.519531 0.378906 0.875 L 0.378906 0 L 23.941406 0 L 23.941406 0.949219 C 23.941406 1.632812 22.988281 2.851562 20.40625 5.433594 C 16.796875 9.042969 14.667969 12.425781 14.175781 15.429688 C 13.984375 16.644531 13.871094 16.71875 12.539062 16.71875 C 11.210938 16.71875 11.097656 16.605469 10.867188 15.503906 Z M 10.867188 15.503906 "/>
<path style=" stroke:none;fill-rule:nonzero;fill:rgb(93.72549%,35.294118%,32.941176%);fill-opacity:1;" d="M 130.757812 14.175781 C 129.730469 10.714844 126.996094 6.878906 123.539062 3.988281 C 121.636719 2.394531 120.839844 1.480469 120.839844 0.875 L 120.839844 0 L 144.398438 0 L 144.398438 0.910156 C 144.398438 1.597656 143.410156 2.851562 140.828125 5.394531 C 137.179688 9.007812 136.003906 10.792969 134.898438 14.441406 C 134.253906 16.414062 134.140625 16.53125 132.886719 16.644531 L 131.554688 16.757812 Z M 130.757812 14.175781 "/>
<path style=" stroke:none;fill-rule:nonzero;fill:rgb(93.72549%,35.294118%,32.941176%);fill-opacity:1;" d="M 47.5 8.703125 C 39.40625 3.761719 36.101562 1.445312 36.101562 0.722656 C 36.101562 0.0390625 36.707031 0 50.539062 0 C 64.828125 0 64.980469 0 64.980469 0.761719 C 64.980469 2.925781 62.207031 6.496094 58.140625 9.5 C 55.859375 11.171875 55.367188 11.398438 53.730469 11.363281 C 52.136719 11.363281 51.300781 10.980469 47.5 8.703125 Z M 47.5 8.703125 "/>
<path style=" stroke:none;fill-rule:nonzero;fill:rgb(93.72549%,35.294118%,32.941176%);fill-opacity:1;" d="M 87.363281 10.222656 C 84.589844 8.246094 81.320312 4.863281 80.332031 2.964844 C 78.699219 -0.226562 77.597656 0 94.050781 0 C 107.730469 0 108.679688 0.0390625 108.679688 0.683594 C 108.679688 1.367188 104.5 4.21875 96.671875 8.890625 C 91.578125 11.933594 90.097656 12.160156 87.363281 10.222656 Z M 87.363281 10.222656 "/>
<path style=" stroke:none;fill-rule:nonzero;fill:rgb(83.137255%,58.431373%,23.921569%);fill-opacity:1;" d="M 40.660156 74.859375 L 40.660156 39.140625 L 112.101562 39.140625 L 112.101562 110.578125 L 40.660156 110.578125 Z M 79.800781 77.9375 C 80.710938 77.746094 79.039062 77.597656 74.671875 77.445312 C 70.222656 77.328125 67.714844 77.0625 66.613281 76.683594 C 64.484375 75.925781 64.523438 76.226562 66.652344 77.140625 C 69.804688 78.546875 75.507812 78.886719 79.800781 77.9375 Z M 79.800781 77.9375 "/>
<path style=" stroke:none;fill-rule:nonzero;fill:rgb(95.294118%,46.666667%,43.921569%);fill-opacity:1;" d="M 1.898438 151.507812 C 1.898438 151.203125 2.316406 150.59375 2.851562 150.101562 C 5.546875 147.554688 4.863281 142.308594 1.328125 138.359375 L 0 136.914062 L 0 124.527344 C 0 113.316406 0.0742188 112.023438 0.722656 110.503906 C 3.496094 104.007812 3.535156 94.050781 0.761719 87.589844 C 0.0742188 86.03125 0 84.96875 0 78.242188 C 0 74.101562 0.152344 70.679688 0.34375 70.679688 C 0.796875 70.679688 4.523438 75.355469 6.421875 78.242188 C 8.320312 81.207031 10.03125 85.273438 11.058594 89.414062 C 11.515625 91.238281 12.007812 92.605469 12.160156 92.53125 C 12.3125 92.414062 12.652344 91.3125 12.882812 90.058594 C 14.515625 81.777344 20.214844 73.074219 28.082031 66.84375 C 29.679688 65.589844 31.273438 64.296875 31.652344 63.992188 C 31.996094 63.6875 32.488281 63.460938 32.679688 63.460938 C 32.90625 63.460938 33.058594 63.195312 33.058594 62.890625 C 33.058594 62.585938 33.324219 62.320312 33.628906 62.320312 C 34.125 62.320312 34.199219 63.382812 34.199219 69.730469 C 34.199219 76.074219 34.125 77.140625 33.628906 77.140625 C 33.324219 77.140625 33.058594 76.875 33.058594 76.570312 C 33.058594 75.390625 31.539062 76.074219 29.714844 78.089844 C 23.558594 84.816406 20.9375 91.960938 21.394531 100.699219 C 21.660156 105.5625 22.34375 108.300781 24.359375 112.402344 C 27.054688 117.914062 31.730469 122.929688 38.191406 127.300781 C 42.597656 130.265625 52.859375 136.421875 53.390625 136.421875 C 54.1875 136.421875 59.699219 132.164062 61.332031 130.300781 C 63.347656 127.984375 64.296875 125.742188 64.335938 123.121094 C 64.335938 120.347656 63.460938 118.710938 61.675781 118.371094 C 60.953125 118.257812 60.421875 117.914062 60.421875 117.609375 C 60.421875 117.117188 62.207031 117.039062 72.769531 117.039062 C 83.484375 117.039062 85.121094 117.117188 85.121094 117.609375 C 85.121094 117.914062 84.816406 118.21875 84.472656 118.257812 C 84.09375 118.292969 83.523438 118.332031 83.21875 118.40625 C 82.914062 118.445312 82.421875 118.484375 82.15625 118.523438 C 81.890625 118.558594 81.359375 119.128906 80.941406 119.8125 C 79.421875 122.246094 80.292969 126.730469 82.878906 129.960938 C 84.285156 131.707031 90.324219 136.421875 91.125 136.421875 C 91.847656 136.421875 102.828125 129.769531 106.894531 126.882812 C 108.71875 125.589844 111.605469 123.195312 113.355469 121.5625 C 116.355469 118.675781 116.433594 118.597656 115.328125 118.558594 C 113.582031 118.523438 112.480469 118.140625 112.480469 117.570312 C 112.480469 117.152344 113.203125 117.039062 115.519531 117.039062 L 118.558594 117.039062 L 118.558594 114.683594 C 118.597656 113.316406 118.824219 111.871094 119.128906 111.339844 C 119.660156 110.390625 119.660156 110.390625 119.699219 111.910156 L 119.738281 113.429688 L 120.269531 112.441406 C 123.804688 105.945312 124.070312 94.125 120.839844 87.246094 L 119.777344 84.929688 L 119.738281 86.449219 C 119.660156 87.96875 119.660156 87.96875 119.128906 87.019531 C 118.292969 85.574219 118.292969 68.78125 119.128906 68.78125 C 119.433594 68.78125 119.699219 69.007812 119.699219 69.273438 C 119.699219 69.539062 120.308594 70.375 121.066406 71.097656 C 125.816406 75.65625 130.074219 83.066406 131.480469 89.300781 C 131.746094 90.441406 132.089844 91.730469 132.238281 92.148438 C 132.582031 93.023438 132.65625 92.910156 133.378906 89.679688 C 135.164062 81.738281 140.257812 73.835938 147.59375 67.601562 C 152.074219 63.800781 152 63.726562 152 71.058594 C 152 76.152344 151.925781 77.140625 151.429688 77.140625 C 150.671875 77.140625 146.945312 81.699219 145.234375 84.738281 C 141.285156 91.808594 140.675781 102.484375 143.792969 110.429688 C 145.425781 114.609375 149.910156 120.839844 151.277344 120.839844 C 151.960938 120.839844 152 121.183594 152 127.148438 L 152 133.457031 L 151.125 133.226562 C 150.101562 133 145.84375 136.003906 143.867188 138.433594 C 140.449219 142.691406 139.839844 147.097656 142.308594 150.023438 C 142.84375 150.671875 143.261719 151.355469 143.261719 151.582031 C 143.261719 151.886719 140.183594 152 132.808594 152 C 121.5625 152 121.335938 151.960938 123.308594 150.101562 C 126.121094 147.476562 125.324219 142.234375 121.484375 138.015625 C 119.625 136.003906 115.671875 133 114.875 133 C 114.609375 133 113.46875 133.644531 112.367188 134.480469 C 110.464844 135.886719 108.035156 137.445312 97.851562 143.640625 C 91.960938 147.25 87.742188 150.367188 87.515625 151.277344 C 87.324219 151.960938 86.90625 152 81.28125 152 C 75.960938 152 75.238281 151.925781 75.238281 151.390625 C 75.238281 150.519531 77.445312 147.628906 80.292969 144.816406 L 82.765625 142.386719 L 79.269531 138.929688 C 75.65625 135.316406 73.910156 132.621094 72.960938 129.085938 C 72.695312 128.097656 72.351562 127.414062 72.199219 127.566406 C 72.046875 127.71875 71.59375 128.859375 71.25 130.113281 C 70.261719 133.226562 68.246094 136.191406 64.867188 139.347656 C 63.269531 140.828125 61.941406 142.195312 61.941406 142.386719 C 61.941406 142.539062 62.777344 143.410156 63.800781 144.285156 C 66.042969 146.222656 69.160156 150.289062 69.160156 151.277344 C 69.160156 151.960938 68.816406 152 63.078125 152 C 57.53125 152 57 151.925781 57 151.355469 C 57 150.402344 52.742188 147.363281 43.8125 141.929688 C 39.671875 139.421875 34.960938 136.457031 33.402344 135.355469 C 31.804688 134.253906 30.246094 133.378906 29.945312 133.378906 C 28.917969 133.378906 24.054688 137.523438 22.648438 139.613281 C 21.886719 140.675781 21.089844 142.15625 20.898438 142.878906 C 20.027344 145.882812 20.824219 149.605469 22.457031 150.519531 C 22.875 150.707031 23.179688 151.125 23.179688 151.429688 C 23.179688 151.925781 21.621094 152 12.539062 152 C 3.953125 152 1.898438 151.886719 1.898438 151.507812 Z M 13.414062 138.625 C 14.324219 135.621094 16.644531 132.316406 20.027344 129.238281 L 22.914062 126.617188 L 21.203125 124.5625 C 16.910156 119.433594 13.488281 112.554688 12.691406 107.351562 C 12.578125 106.398438 12.3125 105.640625 12.160156 105.640625 C 11.96875 105.640625 11.628906 106.628906 11.398438 107.84375 C 10.261719 113.164062 7.867188 118.257812 4.105469 123.234375 C 2.851562 124.867188 1.898438 126.351562 1.976562 126.503906 C 2.050781 126.652344 3.304688 127.832031 4.789062 129.125 C 6.269531 130.378906 8.207031 132.46875 9.042969 133.761719 C 10.5625 136.039062 12.160156 139.648438 12.160156 140.867188 C 12.160156 141.929688 12.730469 140.902344 13.414062 138.625 Z M 133.949219 138.511719 C 135.203125 134.976562 136.839844 132.621094 140.296875 129.464844 L 143.261719 126.691406 L 141.019531 123.84375 C 137.105469 118.976562 134.519531 113.621094 132.925781 107.160156 C 132.46875 105.183594 132.429688 105.261719 131.136719 110.011719 C 129.769531 115.027344 126.730469 120.765625 123.425781 124.5625 C 122.855469 125.246094 122.359375 126.007812 122.359375 126.273438 C 122.359375 126.539062 123.425781 127.605469 124.679688 128.628906 C 128.515625 131.785156 131.519531 136.34375 132.429688 140.371094 C 132.734375 141.777344 132.886719 141.550781 133.949219 138.511719 Z M 133.949219 138.511719 "/>
<path style=" stroke:none;fill-rule:nonzero;fill:rgb(95.294118%,46.666667%,43.921569%);fill-opacity:1;" d="M 29.261719 151.507812 C 29.261719 151.203125 29.679688 150.59375 30.210938 150.101562 C 31.464844 148.921875 32.035156 147.023438 31.730469 145.121094 C 31.425781 143.261719 31.769531 142.878906 33.933594 142.878906 C 37.582031 142.878906 42.140625 147.363281 42.179688 150.972656 L 42.179688 152 L 35.71875 152 C 30.589844 152 29.261719 151.886719 29.261719 151.507812 Z M 29.261719 151.507812 "/>
<path style=" stroke:none;fill-rule:nonzero;fill:rgb(95.294118%,46.666667%,43.921569%);fill-opacity:1;" d="M 102.980469 151.507812 C 102.980469 151.238281 103.246094 150.214844 103.589844 149.265625 C 104.726562 145.84375 108.339844 142.878906 111.378906 142.878906 C 113.390625 142.878906 113.773438 143.335938 113.65625 145.503906 C 113.542969 147.59375 114.417969 149.871094 115.597656 150.59375 C 115.976562 150.859375 116.28125 151.238281 116.28125 151.507812 C 116.28125 151.886719 114.722656 152 109.628906 152 C 104.386719 152 102.980469 151.886719 102.980469 151.507812 Z M 102.980469 151.507812 "/>
<path style=" stroke:none;fill-rule:nonzero;fill:rgb(95.294118%,46.666667%,43.921569%);fill-opacity:1;" d="M 149.71875 151.507812 C 149.71875 150.898438 150.9375 149.71875 151.542969 149.71875 C 151.808594 149.71875 152 150.253906 152 150.859375 C 152 151.886719 151.886719 152 150.859375 152 C 150.175781 152 149.71875 151.808594 149.71875 151.507812 Z M 149.71875 151.507812 "/>
<path style=" stroke:none;fill-rule:nonzero;fill:rgb(95.294118%,46.666667%,43.921569%);fill-opacity:1;" d="M 47.84375 125.058594 C 45.941406 124.03125 44.230469 122.132812 43.433594 120.230469 C 42.863281 118.824219 42.597656 118.597656 41.34375 118.40625 C 40.433594 118.257812 39.898438 117.953125 39.898438 117.609375 C 39.898438 117.117188 41.191406 117.039062 49.019531 117.039062 C 56.542969 117.039062 58.140625 117.117188 58.140625 117.570312 C 58.140625 118.140625 57 118.558594 55.441406 118.558594 C 53.882812 118.558594 53.046875 120.15625 53.011719 123.121094 L 53.011719 125.589844 L 51.109375 125.664062 C 49.816406 125.742188 48.753906 125.515625 47.84375 125.058594 Z M 47.84375 125.058594 "/>
<path style=" stroke:none;fill-rule:nonzero;fill:rgb(95.294118%,46.666667%,43.921569%);fill-opacity:1;" d="M 91.730469 125.324219 C 91.578125 125.058594 91.503906 124.070312 91.542969 123.082031 C 91.65625 121.105469 90.707031 118.597656 89.832031 118.523438 C 89.527344 118.484375 89.148438 118.40625 88.921875 118.371094 C 88.730469 118.332031 88.273438 118.257812 87.96875 118.21875 C 87.664062 118.21875 87.398438 117.914062 87.398438 117.609375 C 87.398438 117.117188 88.652344 117.039062 96.328125 117.039062 C 103.664062 117.039062 105.261719 117.117188 105.261719 117.570312 C 105.261719 118.105469 104.15625 118.558594 102.714844 118.558594 C 102.144531 118.558594 101.765625 118.902344 101.460938 119.851562 C 100.890625 121.675781 98.535156 124.261719 96.746094 125.058594 C 95 125.855469 92.148438 126.007812 91.730469 125.324219 Z M 91.730469 125.324219 "/>
<path style=" stroke:none;fill-rule:nonzero;fill:rgb(95.294118%,46.666667%,43.921569%);fill-opacity:1;" d="M 10.144531 74.480469 C 6.078125 71.742188 3.039062 67.714844 1.328125 62.660156 C 0.417969 59.925781 0.226562 58.671875 0.0742188 54.074219 L -0.113281 48.640625 L 2.089844 46.285156 C 4.484375 43.699219 6.460938 40.015625 7.410156 36.289062 C 8.132812 33.476562 8.171875 28.917969 7.484375 27.929688 C 6.726562 26.941406 6.078125 27.550781 6.078125 29.183594 C 6.078125 31.046875 5.167969 34.578125 4.179688 36.519531 C 3.34375 38.152344 0.875 41.039062 0.34375 41.039062 C 0.152344 41.039062 0 37.695312 0 33.628906 L 0 26.21875 L 1.519531 25.460938 C 5.585938 23.371094 5.511719 17.214844 1.367188 12.617188 L 0 11.132812 L 0 5.546875 C 0 -0.796875 0.0390625 -0.835938 2.699219 1.40625 C 7.902344 5.851562 11.285156 10.527344 12.007812 14.289062 C 12.3125 15.960938 12.769531 15.960938 13.035156 14.289062 C 13.527344 11.285156 15.65625 7.902344 19.265625 4.292969 C 21.203125 2.355469 22.800781 0.609375 22.800781 0.378906 C 22.800781 0.152344 25.347656 0 29.828125 0 L 36.898438 0 L 40.203125 2.203125 C 45.335938 5.660156 53.125 10.261719 53.808594 10.261719 C 54.644531 10.261719 59.242188 6.839844 60.953125 4.902344 C 61.710938 4.066406 62.699219 2.621094 63.15625 1.710938 L 63.992188 0 L 80.558594 0 L 81.472656 1.824219 C 82.878906 4.523438 89.148438 10.261719 90.742188 10.261719 C 91.351562 10.261719 100.054688 5.128906 104.691406 2.050781 L 107.730469 0 L 114.835938 0 C 118.789062 0 121.980469 0.152344 121.980469 0.304688 C 121.980469 0.457031 123.195312 1.632812 124.679688 2.851562 C 128.136719 5.738281 130.871094 9.574219 131.9375 13.035156 C 132.355469 14.476562 132.847656 15.503906 133 15.3125 C 133.113281 15.160156 133.457031 14.25 133.722656 13.300781 C 134.671875 9.957031 136.117188 7.828125 139.6875 4.257812 C 141.664062 2.316406 143.261719 0.570312 143.261719 0.34375 C 143.261719 0.152344 145.160156 0 147.628906 0 L 152 0 L 152 3.609375 C 152 6.914062 151.925781 7.21875 151.277344 7.21875 C 150.289062 7.21875 144.78125 11.363281 143.488281 13.109375 C 140.066406 17.554688 140.03125 22.722656 143.375 25.230469 C 145.007812 26.449219 148.085938 26.296875 149.835938 24.964844 C 150.59375 24.394531 151.355469 23.941406 151.582031 23.941406 C 151.886719 23.941406 152 27.054688 152 33.820312 C 152 40.355469 151.886719 43.699219 151.621094 43.699219 C 150.59375 43.699219 146.375 42.027344 144.96875 41.039062 C 142.121094 39.0625 140.105469 35.300781 139.460938 30.742188 C 139.230469 29.222656 138.890625 27.777344 138.699219 27.589844 C 137.179688 26.066406 136.914062 32.71875 138.28125 37.238281 C 140.523438 44.648438 145.882812 50.539062 150.402344 50.539062 L 152 50.539062 L 152 58.519531 L 150.328125 58.519531 C 149.414062 58.519531 147.933594 58.253906 147.058594 57.949219 C 145.160156 57.265625 144.78125 57.457031 144.78125 58.863281 C 144.78125 61.636719 142.652344 66.539062 139.914062 70.035156 C 138.015625 72.429688 134.027344 75.621094 132.886719 75.621094 C 132.507812 75.621094 131.480469 75.125 130.605469 74.519531 C 125.550781 71.058594 121.714844 65.132812 120.914062 59.546875 C 120.648438 57.683594 119.699219 56.542969 119.699219 58.101562 C 119.699219 58.632812 119.511719 58.824219 119.128906 58.671875 C 118.292969 58.328125 118.292969 47.691406 119.128906 47.347656 C 119.511719 47.195312 119.699219 47.386719 119.699219 47.878906 C 119.699219 48.296875 119.851562 48.640625 120.042969 48.640625 C 120.765625 48.640625 124.261719 44.269531 125.589844 41.761719 C 128.023438 37.089844 129.277344 29.753906 127.90625 27.890625 C 127.109375 26.828125 126.730469 27.511719 126.234375 30.96875 C 125.628906 34.996094 124.03125 38.265625 121.5625 40.355469 C 120.535156 41.269531 119.699219 42.21875 119.699219 42.484375 C 119.699219 42.710938 119.433594 42.941406 119.128906 42.941406 C 118.636719 42.941406 118.558594 42.140625 118.558594 38 L 118.558594 33.058594 L 109.441406 33.058594 C 101.574219 33.058594 100.320312 32.984375 100.320312 32.488281 C 100.320312 31.921875 100.929688 31.730469 102.410156 31.84375 C 103.132812 31.921875 103.171875 31.730469 103.054688 28.652344 C 102.902344 24.472656 103.664062 22.117188 106.019531 19.722656 C 107.921875 17.820312 110.464844 16.835938 112.441406 17.289062 C 113.621094 17.554688 113.621094 17.554688 113.621094 19.910156 C 113.621094 22.722656 114.53125 24.394531 116.660156 25.496094 C 119.359375 26.941406 122.246094 26.03125 124.183594 23.179688 C 125.894531 20.632812 124.828125 15.960938 121.753906 12.539062 C 120.421875 11.058594 115.140625 6.839844 114.609375 6.839844 C 114.492188 6.839844 112.59375 8.019531 110.464844 9.460938 C 108.339844 10.867188 104.121094 13.566406 101.078125 15.390625 C 89.792969 22.230469 84.625 26.371094 83.066406 29.90625 C 82.648438 30.894531 82.042969 31.578125 81.546875 31.691406 C 81.128906 31.769531 81.511719 31.84375 82.460938 31.84375 C 85.121094 31.804688 85.5 31.882812 85.5 32.488281 C 85.5 32.945312 83.601562 33.023438 72.199219 33.058594 C 60.570312 33.058594 58.898438 32.984375 58.898438 32.488281 C 58.898438 31.921875 59.433594 31.769531 61.257812 31.882812 C 62.242188 31.921875 62.28125 31.84375 61.902344 30.894531 C 61.21875 29.070312 60.152344 27.625 57.875 25.421875 C 54.910156 22.535156 52.476562 20.824219 44.953125 16.300781 C 41.457031 14.175781 36.746094 11.246094 34.464844 9.804688 L 30.398438 7.144531 L 28.273438 8.589844 C 25.574219 10.449219 22.152344 14.136719 21.242188 16.148438 C 20.214844 18.390625 20.292969 21.964844 21.394531 23.597656 C 23.710938 27.054688 28.273438 26.980469 30.933594 23.40625 C 31.539062 22.648438 31.730469 21.773438 31.730469 20.101562 C 31.730469 17.707031 32.109375 17.101562 33.628906 17.101562 C 36.59375 17.101562 39.976562 19.570312 41.457031 22.914062 C 42.21875 24.546875 42.371094 25.496094 42.332031 28.425781 C 42.332031 31.046875 42.445312 31.921875 42.824219 31.921875 C 43.09375 31.921875 43.320312 32.1875 43.320312 32.488281 C 43.320312 32.984375 42.558594 33.058594 38.761719 33.058594 L 34.199219 33.058594 L 34.199219 39.328125 C 34.199219 44.648438 34.125 45.601562 33.628906 45.601562 C 33.324219 45.601562 33.058594 45.371094 33.058594 45.105469 C 33.058594 44.839844 31.921875 44.195312 30.515625 43.699219 C 26.449219 42.292969 24.625 41.269531 22.761719 39.253906 C 20.824219 37.203125 19.417969 34.011719 19.152344 30.96875 C 18.847656 28.007812 18.65625 27.359375 18.050781 27.359375 C 16.566406 27.359375 16.566406 33.441406 18.050781 37.847656 C 20.328125 44.613281 25.648438 50.539062 29.488281 50.539062 C 30.96875 50.539062 33.058594 49.703125 33.058594 49.132812 C 33.058594 48.867188 33.324219 48.640625 33.628906 48.640625 C 34.125 48.640625 34.199219 49.515625 34.199219 54.148438 C 34.199219 58.785156 34.125 59.660156 33.628906 59.660156 C 33.324219 59.660156 33.058594 59.394531 33.058594 59.089844 C 33.058594 58.632812 32.527344 58.519531 30.4375 58.519531 C 28.957031 58.519531 27.246094 58.253906 26.449219 57.949219 C 24.851562 57.265625 25.042969 57.039062 23.941406 61.292969 C 22.988281 65.09375 21.242188 68.363281 18.695312 71.097656 C 16.644531 73.339844 13.488281 75.621094 12.464844 75.621094 C 12.160156 75.621094 11.132812 75.089844 10.144531 74.480469 Z M 13.488281 61.710938 C 16.035156 60.722656 16.683594 52.78125 15.011719 42.75 C 14.441406 39.40625 13.792969 34.617188 13.566406 32.109375 C 13.1875 28.5 12.996094 27.550781 12.539062 27.550781 C 12.121094 27.550781 11.894531 28.15625 11.703125 29.640625 C 10.792969 36.820312 10.144531 41.457031 9.460938 45.789062 C 7.828125 56.125 9.613281 63.195312 13.488281 61.710938 Z M 134.480469 61.027344 C 136.722656 58.632812 136.988281 52.78125 135.28125 42.179688 C 134.671875 38.304688 134.0625 33.78125 133.910156 32.109375 C 133.644531 28.082031 133.457031 27.359375 132.808594 27.359375 C 132.203125 27.359375 132.011719 28.386719 131.707031 32.871094 C 131.59375 34.542969 131.0625 38.492188 130.53125 41.609375 C 129.199219 49.476562 128.894531 55.0625 129.695312 57.796875 C 130.835938 61.675781 132.695312 62.929688 134.480469 61.027344 Z M 72.125 31.691406 C 72.617188 31.539062 72.960938 31.160156 72.960938 30.742188 C 72.960938 28.15625 76.378906 22.34375 80.027344 18.695312 L 82.460938 16.265625 L 79.609375 13.605469 C 76.265625 10.488281 74.101562 7.335938 73.148438 4.179688 C 72.503906 2.050781 71.820312 1.445312 71.820312 3.003906 C 71.820312 3.382812 71.097656 5.128906 70.261719 6.839844 C 69.007812 9.347656 67.980469 10.679688 65.4375 13.1875 L 62.207031 16.339844 L 64.636719 18.925781 C 67.640625 22.003906 69.386719 24.546875 70.566406 27.359375 C 71.707031 30.132812 71.707031 31.425781 70.605469 31.652344 C 69.84375 31.804688 69.84375 31.804688 70.488281 31.882812 C 70.90625 31.882812 71.628906 31.804688 72.125 31.691406 Z M 72.125 31.691406 "/>
<path style=" stroke:none;fill-rule:nonzero;fill:rgb(100%,100%,100%);fill-opacity:1;" d="M 33.058594 75.050781 L 33.058594 31.921875 L 119.699219 31.921875 L 119.699219 118.179688 L 33.058594 118.179688 Z M 110.960938 74.859375 L 110.960938 40.28125 L 41.800781 40.28125 L 41.800781 109.441406 L 110.960938 109.441406 Z M 110.960938 74.859375 "/>
<path style=" stroke:none;fill-rule:nonzero;fill:rgb(100%,100%,100%);fill-opacity:1;" d="M 42.558594 74.859375 L 42.558594 41.039062 L 110.199219 41.039062 L 110.199219 108.679688 L 42.558594 108.679688 Z M 108.984375 74.9375 L 109.058594 42.558594 L 76.492188 42.636719 L 43.890625 42.75 L 43.8125 74.671875 C 43.738281 92.226562 43.777344 106.816406 43.890625 107.085938 C 44.003906 107.464844 50.730469 107.539062 76.457031 107.464844 L 108.871094 107.351562 Z M 108.984375 74.9375 "/>
<path style=" stroke:none;fill-rule:nonzero;fill:rgb(100%,100%,100%);fill-opacity:1;" d="M 57.761719 96.179688 C 57.761719 93.175781 57.761719 93.136719 56.734375 92.984375 C 56.125 92.910156 56.773438 92.835938 58.140625 92.796875 C 59.699219 92.796875 60.269531 92.910156 59.660156 93.0625 C 58.746094 93.289062 58.710938 93.480469 58.597656 96.253906 C 58.445312 100.128906 57.761719 100.054688 57.761719 96.179688 Z M 57.761719 96.179688 "/>
<path style=" stroke:none;fill-rule:nonzero;fill:rgb(100%,100%,100%);fill-opacity:1;" d="M 62.699219 98.34375 C 62.699219 97.164062 63.460938 92.605469 63.6875 92.378906 C 64.066406 91.996094 64.828125 93.253906 65.589844 95.492188 L 66.386719 97.851562 L 67.070312 95.570312 C 67.753906 93.253906 68.550781 91.996094 69.007812 92.453125 C 69.351562 92.796875 70.261719 98.535156 70.035156 98.914062 C 69.578125 99.675781 69.199219 98.953125 68.96875 96.898438 C 68.816406 95.644531 68.550781 94.695312 68.363281 94.808594 C 68.210938 94.925781 67.753906 95.949219 67.410156 97.089844 C 67.03125 98.230469 66.539062 99.179688 66.273438 99.179688 C 66.007812 99.179688 65.472656 98.152344 65.09375 96.898438 C 64.753906 95.644531 64.335938 94.621094 64.183594 94.621094 C 64.03125 94.621094 63.800781 95.644531 63.648438 96.898438 C 63.382812 99.066406 62.699219 100.128906 62.699219 98.34375 Z M 62.699219 98.34375 "/>
<path style=" stroke:none;fill-rule:nonzero;fill:rgb(100%,100%,100%);fill-opacity:1;" d="M 73.339844 95.722656 L 73.339844 92.226562 L 74.707031 92.453125 C 77.140625 92.871094 77.785156 93.972656 76.378906 95.378906 C 75.960938 95.796875 75.621094 96.253906 75.621094 96.367188 C 75.621094 96.480469 75.960938 97.015625 76.378906 97.546875 C 77.214844 98.609375 77.328125 99.179688 76.761719 99.179688 C 76.570312 99.179688 76 98.570312 75.542969 97.851562 C 74.441406 96.179688 74.101562 96.179688 74.101562 97.851562 C 74.101562 98.570312 73.949219 99.179688 73.71875 99.179688 C 73.492188 99.179688 73.339844 97.773438 73.339844 95.722656 Z M 76 94.621094 C 76.304688 94.050781 76.226562 93.820312 75.65625 93.480469 C 74.441406 92.871094 74.101562 93.023438 74.101562 94.238281 C 74.101562 95.113281 74.253906 95.378906 74.859375 95.378906 C 75.238281 95.378906 75.773438 95.039062 76 94.621094 Z M 76 94.621094 "/>
<path style=" stroke:none;fill-rule:nonzero;fill:rgb(100%,100%,100%);fill-opacity:1;" d="M 80.558594 95.761719 L 80.558594 92.339844 L 82.042969 92.339844 C 82.878906 92.339844 83.675781 92.53125 83.789062 92.71875 C 83.941406 92.949219 83.484375 93.101562 82.6875 93.101562 C 81.433594 93.101562 81.320312 93.175781 81.320312 94.238281 C 81.320312 95.265625 81.433594 95.378906 82.460938 95.378906 C 83.105469 95.378906 83.601562 95.570312 83.601562 95.761719 C 83.601562 95.988281 83.105469 96.140625 82.460938 96.140625 C 81.433594 96.140625 81.320312 96.253906 81.320312 97.28125 C 81.320312 98.34375 81.433594 98.421875 82.6875 98.421875 C 83.484375 98.421875 83.941406 98.570312 83.789062 98.800781 C 83.675781 99.027344 82.878906 99.179688 82.042969 99.179688 L 80.558594 99.179688 Z M 80.558594 95.761719 "/>
<path style=" stroke:none;fill-rule:nonzero;fill:rgb(100%,100%,100%);fill-opacity:1;" d="M 88.160156 97.886719 C 88.160156 97.128906 87.742188 95.644531 87.210938 94.621094 C 86.144531 92.53125 86.109375 92.339844 86.640625 92.339844 C 86.828125 92.339844 87.363281 93.023438 87.78125 93.859375 C 88.199219 94.695312 88.617188 95.378906 88.730469 95.378906 C 88.84375 95.378906 89.261719 94.65625 89.71875 93.785156 C 90.78125 91.695312 91.125 92.492188 90.097656 94.695312 C 89.679688 95.570312 89.300781 96.898438 89.222656 97.621094 C 89.070312 99.445312 88.160156 99.636719 88.160156 97.886719 Z M 88.160156 97.886719 "/>
<path style=" stroke:none;fill-rule:nonzero;fill:rgb(100%,100%,100%);fill-opacity:1;" d="M 92.339844 99.105469 C 92.339844 98.457031 94.960938 92.53125 95.265625 92.453125 C 95.609375 92.339844 98.039062 97.886719 98.039062 98.839844 C 98.039062 99.523438 97.203125 99.179688 97.015625 98.421875 C 96.863281 97.8125 96.480469 97.660156 95.304688 97.660156 C 94.125 97.660156 93.746094 97.8125 93.59375 98.421875 C 93.480469 98.839844 93.136719 99.179688 92.871094 99.179688 C 92.566406 99.179688 92.339844 99.140625 92.339844 99.105469 Z M 95.949219 95.683594 C 95.570312 93.859375 95.152344 93.632812 94.65625 95.039062 C 94.050781 96.746094 94.125 96.898438 95.226562 96.898438 C 96.140625 96.898438 96.179688 96.824219 95.949219 95.683594 Z M 95.949219 95.683594 "/>
<path style=" stroke:none;fill-rule:nonzero;fill:rgb(100%,100%,100%);fill-opacity:1;" d="M 49.097656 84.246094 C 48.070312 83.144531 48.070312 82.914062 49.171875 81.585938 L 50.007812 80.523438 L 51.070312 81.359375 L 52.097656 82.15625 L 53.238281 81.09375 L 54.339844 80.027344 L 55.253906 80.902344 C 56.277344 81.851562 56.203125 82.800781 55.0625 83.828125 C 54.378906 84.4375 54.300781 84.4375 53.390625 83.601562 L 52.441406 82.6875 L 51.1875 83.902344 L 49.933594 85.121094 Z M 49.097656 84.246094 "/>
<path style=" stroke:none;fill-rule:nonzero;fill:rgb(100%,100%,100%);fill-opacity:1;" d="M 58.367188 81.777344 C 60.078125 80.523438 61.332031 79.003906 62.699219 76.492188 C 63.195312 75.582031 63.878906 74.785156 64.21875 74.671875 C 64.523438 74.554688 65.855469 74.859375 67.070312 75.277344 C 71.402344 76.835938 81.359375 76.683594 86.828125 74.972656 C 89.679688 74.101562 93.101562 72.578125 94.886719 71.363281 C 95.761719 70.792969 96.597656 70.300781 96.785156 70.300781 C 96.976562 70.300781 97.734375 69.539062 98.535156 68.628906 C 99.332031 67.640625 100.964844 66.386719 102.410156 65.625 C 103.777344 64.902344 104.878906 64.371094 104.878906 64.484375 C 104.878906 65.246094 103.207031 66.765625 101.308594 67.714844 C 100.015625 68.363281 98.914062 68.933594 98.839844 69.007812 C 98.761719 69.085938 98.988281 69.578125 99.332031 70.070312 C 100.128906 71.324219 100.09375 71.933594 99.179688 72.769531 C 98.496094 73.378906 98.269531 73.414062 96.898438 72.960938 C 95.378906 72.464844 95.304688 72.464844 93.175781 73.984375 C 89.90625 76.304688 87.285156 77.480469 83.335938 78.507812 C 76.457031 80.257812 69.234375 80.105469 65.171875 78.089844 C 62.964844 77.027344 62.8125 77.101562 61.789062 79.914062 C 61.066406 81.890625 60.570312 82.269531 58.328125 82.648438 L 56.808594 82.914062 Z M 58.367188 81.777344 "/>
<path style=" stroke:none;fill-rule:nonzero;fill:rgb(100%,100%,100%);fill-opacity:1;" d="M 50.199219 75.429688 C 51.792969 72.769531 53.695312 71.78125 55.671875 72.542969 C 56.582031 72.921875 58.0625 72.429688 58.785156 71.515625 C 59.242188 70.90625 59.242188 70.945312 59.015625 71.628906 C 58.519531 73.148438 56.960938 75.277344 56.050781 75.695312 C 55.289062 76.039062 54.796875 75.960938 53.578125 75.429688 C 52.175781 74.785156 52.023438 74.785156 51.109375 75.390625 C 50.578125 75.734375 50.160156 76.191406 50.160156 76.378906 C 50.160156 76.609375 50.007812 76.761719 49.78125 76.761719 C 49.589844 76.761719 49.78125 76.152344 50.199219 75.429688 Z M 50.199219 75.429688 "/>
<path style=" stroke:none;fill-rule:nonzero;fill:rgb(100%,100%,100%);fill-opacity:1;" d="M 54.566406 62.511719 C 54.1875 62.207031 53.65625 61.902344 53.429688 61.824219 C 53.160156 61.710938 53.238281 61.179688 53.730469 60.269531 C 54.566406 58.710938 54.644531 58.671875 55.707031 59.46875 C 56.734375 60.269531 57.191406 60.152344 57.683594 59.089844 C 58.214844 57.949219 58.9375 57.875 59.773438 58.824219 C 60.609375 59.734375 60.570312 60.382812 59.621094 61.523438 C 58.9375 62.359375 58.824219 62.394531 58.214844 61.789062 C 57.304688 60.988281 57.113281 61.027344 56.125 62.128906 C 55.367188 62.964844 55.214844 63.003906 54.566406 62.511719 Z M 54.566406 62.511719 "/>
<path style=" stroke:none;fill-rule:nonzero;fill:rgb(100%,100%,100%);fill-opacity:1;" d="M 95.644531 61.75 L 94.582031 60.800781 L 95.378906 59.660156 C 96.328125 58.328125 96.445312 58.328125 97.585938 59.128906 C 98.382812 59.660156 98.457031 59.621094 99.292969 58.710938 L 100.128906 57.683594 L 101.195312 58.519531 C 102.183594 59.28125 102.183594 59.394531 101.648438 60.421875 C 100.890625 61.902344 100.394531 62.128906 99.597656 61.40625 C 98.722656 60.609375 98.535156 60.648438 97.546875 61.75 L 96.710938 62.699219 Z M 95.644531 61.75 "/>
</g>
</svg>
