<?xml version="1.0" encoding="UTF-8"?>
<svg xmlns="http://www.w3.org/2000/svg" xmlns:xlink="http://www.w3.org/1999/xlink" width="152px" height="114px" viewBox="0 0 152 91" version="1.1">
<g id="surface1">
<path style=" stroke:none;fill-rule:nonzero;fill:rgb(3.137255%,3.137255%,3.137255%);fill-opacity:1;" d="M 72.519531 30.421875 C 71.035156 29.785156 69.285156 27.035156 68.59375 24.285156 C 66.949219 17.773438 68.257812 9.878906 71.421875 7.007812 C 73.277344 5.339844 75.1875 5.5 76.972656 7.484375 C 78.898438 9.648438 80.066406 13.695312 80.066406 18.253906 C 80.066406 23.363281 78.703125 27.621094 76.441406 29.675781 C 75.417969 30.597656 73.683594 30.9375 72.519531 30.421875 Z M 74.375 30.050781 L 74.761719 29.941406 L 74.761719 6.5625 L 74.339844 6.457031 C 74.089844 6.402344 73.753906 6.386719 73.578125 6.421875 C 73.277344 6.476562 73.261719 7.007812 73.207031 18.21875 C 73.171875 30.757812 73.117188 29.980469 73.878906 30.136719 C 73.933594 30.136719 74.144531 30.101562 74.375 30.050781 Z M 72.640625 28.613281 L 72.640625 27.582031 L 71.191406 26.128906 C 70.378906 25.3125 69.636719 24.65625 69.511719 24.65625 C 69.214844 24.65625 69.992188 26.75 70.714844 27.886719 C 71.261719 28.738281 72.164062 29.625 72.484375 29.625 C 72.570312 29.625 72.640625 29.164062 72.640625 28.613281 Z M 76.460938 28.824219 C 77.132812 28.132812 78.226562 26.148438 78.5625 25.066406 C 78.773438 24.355469 78.261719 24.605469 76.761719 26.003906 L 75.292969 27.351562 L 75.292969 28.488281 C 75.292969 29.234375 75.363281 29.625 75.503906 29.625 C 75.609375 29.625 76.054688 29.269531 76.460938 28.824219 Z M 72.640625 22.722656 C 72.640625 20.773438 72.570312 19.140625 72.5 19.085938 C 72.429688 19.050781 71.667969 19.65625 70.820312 20.453125 C 69.335938 21.855469 69.285156 21.941406 69.285156 22.6875 C 69.285156 23.449219 69.335938 23.539062 70.75 24.871094 C 71.546875 25.613281 72.304688 26.253906 72.429688 26.253906 C 72.589844 26.253906 72.640625 25.4375 72.640625 22.722656 Z M 76.988281 25.066406 C 78.457031 23.734375 78.898438 23.078125 78.722656 22.476562 C 78.597656 21.996094 75.839844 19.15625 75.523438 19.15625 C 75.347656 19.15625 75.292969 19.957031 75.292969 22.707031 C 75.292969 25.101562 75.347656 26.253906 75.488281 26.253906 C 75.59375 26.253906 76.265625 25.722656 76.988281 25.066406 Z M 70.679688 19.851562 L 72.304688 18.34375 L 70.609375 16.710938 C 69.691406 15.804688 68.859375 15.078125 68.769531 15.078125 C 68.558594 15.078125 68.398438 18.109375 68.523438 19.992188 C 68.59375 21.199219 68.683594 21.589844 68.84375 21.5 C 68.964844 21.429688 69.777344 20.683594 70.679688 19.851562 Z M 79.429688 20.382812 C 79.660156 18.183594 79.464844 15.078125 79.109375 15.078125 C 79.003906 15.097656 78.175781 15.804688 77.253906 16.691406 L 75.574219 18.289062 L 77.253906 19.867188 C 78.175781 20.738281 79.003906 21.445312 79.109375 21.464844 C 79.214844 21.464844 79.359375 20.984375 79.429688 20.382812 Z M 72.640625 13.820312 C 72.640625 11.105469 72.589844 10.289062 72.429688 10.289062 C 72.304688 10.289062 71.546875 10.925781 70.75 11.671875 C 69.335938 13.003906 69.285156 13.089844 69.285156 13.855469 C 69.285156 14.597656 69.335938 14.6875 70.820312 16.089844 C 71.667969 16.886719 72.429688 17.492188 72.5 17.453125 C 72.570312 17.402344 72.640625 15.769531 72.640625 13.820312 Z M 77.324219 15.910156 C 78.597656 14.722656 78.722656 14.546875 78.722656 13.941406 C 78.722656 13.339844 78.582031 13.125 77.203125 11.777344 C 76.371094 10.960938 75.609375 10.289062 75.488281 10.289062 C 75.347656 10.289062 75.292969 11.316406 75.292969 13.925781 C 75.292969 18.164062 75.097656 17.96875 77.324219 15.910156 Z M 71.210938 10.5 L 72.640625 9.207031 L 72.640625 8.160156 C 72.640625 7.59375 72.570312 7.078125 72.484375 7.007812 C 71.953125 6.6875 69.992188 9.578125 69.496094 11.40625 C 69.265625 12.238281 69.355469 12.203125 71.210938 10.5 Z M 78.402344 11.210938 C 77.945312 9.898438 77.203125 8.640625 76.40625 7.789062 C 75.964844 7.308594 75.523438 6.917969 75.453125 6.917969 C 75.363281 6.917969 75.292969 7.433594 75.292969 8.054688 L 75.292969 9.1875 L 76.832031 10.609375 C 77.679688 11.40625 78.421875 12.007812 78.511719 11.957031 C 78.582031 11.921875 78.527344 11.566406 78.402344 11.210938 Z M 78.402344 11.210938 "/>
<path style=" stroke:none;fill-rule:nonzero;fill:rgb(12.941176%,12.941176%,12.941176%);fill-opacity:1;" d="M 42.417969 88.160156 L 42.417969 87.628906 L 44.117188 87.628906 C 46.058594 87.628906 46.871094 87.347656 47.296875 86.53125 C 47.757812 85.644531 47.5625 85.5 45.917969 85.5 C 44.0625 85.5 43.230469 85.09375 42.648438 83.90625 C 41.90625 82.449219 42.1875 80.90625 43.355469 79.878906 C 44.292969 79.0625 45.210938 78.847656 46.359375 79.1875 C 48.003906 79.664062 48.78125 80.890625 48.78125 83.015625 L 48.78125 84.257812 L 66.277344 84.257812 L 66.277344 83.53125 C 66.277344 82.980469 66.171875 82.699219 65.765625 82.289062 L 65.253906 81.777344 L 53.199219 81.777344 L 53.199219 81.171875 C 53.199219 80.605469 53.253906 80.550781 53.765625 80.5 C 54.277344 80.445312 54.472656 80.25 55.65625 78.457031 C 56.945312 76.472656 56.964844 76.453125 57.636719 76.453125 L 58.324219 76.453125 L 57.175781 78.261719 C 56.539062 79.257812 56.027344 80.179688 56.027344 80.304688 C 56.027344 80.480469 56.945312 80.535156 60.675781 80.535156 C 65.148438 80.535156 65.324219 80.550781 65.996094 80.941406 C 66.863281 81.4375 67.339844 82.308594 67.339844 83.40625 L 67.339844 84.257812 L 74.941406 84.257812 L 74.941406 81.777344 L 76.175781 81.777344 L 76.175781 85.5 L 62.53125 85.535156 L 48.90625 85.589844 L 48.726562 86.121094 C 48.445312 87.007812 47.757812 87.789062 46.835938 88.25 C 46.078125 88.640625 45.722656 88.695312 44.1875 88.695312 L 42.417969 88.695312 Z M 47.722656 84.046875 C 47.703125 83.816406 47.632812 83.089844 47.5625 82.414062 C 47.4375 81.457031 47.296875 81.101562 46.90625 80.695312 C 46.042969 79.769531 44.609375 79.84375 43.832031 80.851562 C 43.566406 81.171875 43.480469 81.5625 43.480469 82.34375 C 43.480469 83.265625 43.53125 83.460938 43.992188 83.921875 C 44.488281 84.417969 44.574219 84.4375 46.113281 84.4375 C 47.667969 84.4375 47.722656 84.417969 47.722656 84.046875 Z M 47.722656 84.046875 "/>
<path style=" stroke:none;fill-rule:nonzero;fill:rgb(12.941176%,12.941176%,12.941176%);fill-opacity:1;" d="M 104.933594 87.878906 C 104.773438 87.71875 105.003906 87.273438 105.25 87.273438 C 105.5 87.273438 105.726562 87.71875 105.570312 87.878906 C 105.5 87.929688 105.355469 87.984375 105.25 87.984375 C 105.144531 87.984375 105.003906 87.929688 104.933594 87.878906 Z M 104.933594 87.878906 "/>
<path style=" stroke:none;fill-rule:nonzero;fill:rgb(12.941176%,12.941176%,12.941176%);fill-opacity:1;" d="M 79.886719 84.96875 L 79.886719 84.4375 L 84.660156 84.4375 L 84.660156 78.050781 L 85.898438 78.050781 L 85.898438 84.4375 L 91.375 84.4375 L 91.375 76.277344 L 92.789062 76.277344 L 92.789062 84.4375 L 98.675781 84.402344 L 104.542969 84.347656 L 104.597656 82.894531 L 104.648438 81.421875 L 105.691406 81.421875 L 105.691406 85.5 L 79.886719 85.5 Z M 79.886719 84.96875 "/>
<path style=" stroke:none;fill-rule:nonzero;fill:rgb(12.941176%,12.941176%,12.941176%);fill-opacity:1;" d="M 75.152344 79.699219 C 75.1875 79.523438 75.328125 79.382812 75.46875 79.382812 C 75.609375 79.382812 75.753906 79.523438 75.789062 79.699219 C 75.824219 79.914062 75.734375 80 75.46875 80 C 75.203125 80 75.117188 79.914062 75.152344 79.699219 Z M 75.152344 79.699219 "/>
<path style=" stroke:none;fill-rule:nonzero;fill:rgb(12.941176%,12.941176%,12.941176%);fill-opacity:1;" d="M 84.996094 60.949219 C 81.550781 57.597656 78.457031 54.527344 78.136719 54.121094 C 77.820312 53.730469 77.503906 53.394531 77.449219 53.394531 C 77.378906 53.394531 77.34375 56.339844 77.378906 59.957031 L 77.429688 66.519531 L 74.761719 66.519531 L 74.761719 47.46875 L 76.230469 48.886719 C 77.023438 49.667969 79.640625 52.152344 82.027344 54.421875 C 84.429688 56.675781 86.90625 59.089844 87.542969 59.78125 C 88.160156 60.453125 88.742188 61.019531 88.796875 61.019531 C 88.847656 61.019531 88.902344 58.078125 88.902344 54.457031 L 88.902344 47.894531 L 91.375 47.894531 L 91.375 57.472656 C 91.375 62.742188 91.359375 67.050781 91.339844 67.050781 C 91.304688 67.050781 88.460938 64.304688 84.996094 60.949219 Z M 84.996094 60.949219 "/>
<path style=" stroke:none;fill-rule:nonzero;fill:rgb(12.941176%,12.941176%,12.941176%);fill-opacity:1;" d="M 6.007812 57.402344 L 6.007812 48.25 L 9.949219 48.25 C 15.484375 48.25 17.515625 48.585938 18.894531 49.773438 C 20.539062 51.160156 20.539062 54.03125 18.894531 55.414062 C 18.609375 55.664062 18.382812 55.929688 18.382812 56.019531 C 18.382812 56.109375 18.699219 56.320312 19.089844 56.5 C 20.183594 56.996094 21.316406 58.324219 21.667969 59.53125 C 22.5 62.386719 20.925781 64.941406 17.675781 66.023438 C 16.613281 66.378906 16.082031 66.414062 11.277344 66.484375 L 6.007812 66.554688 Z M 17.410156 63.59375 C 18.769531 62.902344 19.140625 62.386719 19.140625 61.164062 C 19.140625 59.9375 18.734375 59.175781 17.746094 58.539062 C 16.648438 57.847656 15.289062 57.652344 11.613281 57.652344 L 8.484375 57.652344 L 8.484375 64.25 L 12.425781 64.179688 L 16.347656 64.125 Z M 15.871094 54.917969 C 17.515625 54.210938 17.992188 52.789062 16.914062 51.707031 C 16.082031 50.875 15.339844 50.714844 11.71875 50.609375 L 8.484375 50.503906 L 8.484375 55.378906 L 11.804688 55.308594 C 14.457031 55.238281 15.253906 55.167969 15.871094 54.917969 Z M 15.871094 54.917969 "/>
<path style=" stroke:none;fill-rule:nonzero;fill:rgb(12.941176%,12.941176%,12.941176%);fill-opacity:1;" d="M 31.285156 57.207031 L 31.285156 47.894531 L 33.933594 47.894531 L 33.933594 64.214844 L 43.65625 64.214844 L 43.65625 66.519531 L 31.285156 66.519531 Z M 31.285156 57.207031 "/>
<path style=" stroke:none;fill-rule:nonzero;fill:rgb(12.941176%,12.941176%,12.941176%);fill-opacity:1;" d="M 49.894531 66.308594 C 50.511719 64.675781 58.058594 47.539062 58.148438 47.539062 C 58.21875 47.539062 58.484375 48.054688 58.730469 48.691406 C 58.996094 49.332031 60.570312 52.984375 62.230469 56.816406 C 63.910156 60.648438 65.535156 64.390625 65.855469 65.15625 L 66.4375 66.519531 L 63.894531 66.519531 L 62.761719 63.859375 L 61.648438 61.199219 L 54.527344 61.199219 L 53.429688 63.824219 L 52.332031 66.433594 L 51.0625 66.484375 C 50.089844 66.519531 49.824219 66.484375 49.894531 66.308594 Z M 60.625 58.894531 C 60.625 58.785156 60.109375 57.472656 59.472656 55.964844 C 58.839844 54.457031 58.324219 53.144531 58.324219 53.039062 C 58.324219 52.949219 58.253906 52.863281 58.183594 52.863281 C 58.058594 52.863281 56.699219 55.949219 55.816406 58.238281 L 55.496094 59.070312 L 58.058594 59.070312 C 59.667969 59.070312 60.625 59 60.625 58.894531 Z M 60.625 58.894531 "/>
<path style=" stroke:none;fill-rule:nonzero;fill:rgb(12.941176%,12.941176%,12.941176%);fill-opacity:1;" d="M 107.300781 66.253906 C 103.414062 65.15625 100.886719 61.980469 100.621094 57.828125 C 100.390625 54.316406 101.929688 51.125 104.773438 49.261719 C 106.578125 48.070312 107.761719 47.683594 109.953125 47.574219 C 111.96875 47.488281 113.152344 47.664062 114.546875 48.265625 L 115.414062 48.65625 L 114.953125 49.472656 C 114.28125 50.625 114.300781 50.625 113.347656 50.308594 C 112.886719 50.148438 111.898438 49.96875 111.171875 49.898438 C 108.007812 49.652344 105.214844 51.230469 103.820312 54.066406 C 103.359375 54.992188 103.308594 55.257812 103.308594 56.941406 C 103.308594 58.589844 103.359375 58.910156 103.785156 59.816406 C 105.074219 62.582031 108.078125 64.285156 111.117188 63.964844 C 112.089844 63.859375 113.609375 63.46875 114.566406 63.0625 C 114.796875 62.972656 114.972656 63.167969 115.394531 64.019531 L 115.945312 65.101562 L 115.554688 65.351562 C 115.324219 65.492188 114.636719 65.792969 114 66.007812 C 112.496094 66.519531 108.769531 66.664062 107.300781 66.253906 Z M 107.300781 66.253906 "/>
<path style=" stroke:none;fill-rule:nonzero;fill:rgb(12.941176%,12.941176%,12.941176%);fill-opacity:1;" d="M 129.570312 66.238281 C 128.050781 65.828125 126.550781 64.925781 125.3125 63.683594 C 121.53125 59.886719 121.566406 54.296875 125.382812 50.449219 C 127.378906 48.445312 129.5 47.539062 132.222656 47.539062 C 139.824219 47.539062 144.59375 55.914062 140.492188 62.085938 C 139.152344 64.089844 136.996094 65.667969 134.765625 66.253906 C 133.460938 66.589844 130.84375 66.589844 129.570312 66.238281 Z M 135.261719 63.539062 C 138.621094 61.980469 140.195312 58.449219 139.097656 54.972656 C 138.039062 51.601562 134.429688 49.386719 131.039062 50.003906 C 128.707031 50.449219 126.921875 51.78125 125.894531 53.890625 C 125.242188 55.183594 125.222656 55.308594 125.222656 57.117188 C 125.222656 58.875 125.257812 59.070312 125.804688 60.171875 C 126.425781 61.445312 127.804688 62.867188 128.96875 63.417969 C 130.96875 64.390625 133.371094 64.445312 135.261719 63.539062 Z M 135.261719 63.539062 "/>
</g>
</svg>
