<?xml version="1.0" encoding="UTF-8"?>
<svg xmlns="http://www.w3.org/2000/svg" xmlns:xlink="http://www.w3.org/1999/xlink" width="152px" height="114px" viewBox="0 0 152 155" version="1.1">
<g id="surface1">
<path style=" stroke:none;fill-rule:nonzero;fill:rgb(43.921569%,10.196078%,24.705882%);fill-opacity:1;" d="M 14.105469 154.886719 C 7.074219 154.304688 1.332031 148.921875 0.269531 141.949219 C 0.136719 141.015625 0.113281 132.425781 0.148438 76.972656 L 0.167969 13.085938 L 0.472656 11.90625 C 1.941406 6.078125 6.003906 1.988281 11.816406 0.484375 L 13.035156 0.167969 L 138.964844 0.167969 L 140.164062 0.472656 C 143.097656 1.214844 145.410156 2.515625 147.429688 4.550781 C 149.742188 6.875 151.1875 9.691406 151.707031 12.859375 C 151.875 13.894531 151.886719 19.238281 151.863281 78.003906 C 151.832031 138.105469 151.820312 142.070312 151.628906 142.8125 C 150.847656 145.96875 149.539062 148.351562 147.429688 150.449219 C 145.195312 152.6875 142.53125 154.089844 139.292969 154.742188 C 138.335938 154.933594 135.457031 154.945312 76.675781 154.953125 C 42.789062 154.964844 14.636719 154.933594 14.105469 154.886719 Z M 35.578125 139.453125 C 35.78125 139.375 36.085938 139.140625 36.257812 138.949219 C 36.808594 138.285156 36.796875 137.757812 36.222656 137.097656 C 35.566406 136.367188 34.957031 136.308594 34.257812 136.929688 C 33.75 137.367188 33.570312 137.90625 33.730469 138.410156 C 33.875 138.835938 34.339844 139.320312 34.753906 139.488281 C 35.140625 139.636719 35.160156 139.636719 35.578125 139.453125 Z M 41.46875 139.285156 C 41.652344 139.183594 41.921875 138.859375 42.066406 138.566406 L 42.339844 138.050781 L 42.078125 137.511719 C 41.570312 136.511719 40.746094 136.230469 39.945312 136.804688 C 38.953125 137.5 39.089844 138.824219 40.207031 139.375 C 40.703125 139.625 40.90625 139.613281 41.46875 139.285156 Z M 61.441406 139.285156 C 61.636719 139.183594 61.894531 138.871094 62.050781 138.566406 L 62.3125 138.039062 L 62.050781 137.511719 C 61.542969 136.511719 60.722656 136.230469 59.917969 136.804688 C 58.925781 137.511719 59.074219 138.824219 60.203125 139.386719 C 60.664062 139.625 60.867188 139.601562 61.441406 139.285156 Z M 95.746094 133.558594 C 97.902344 133.402344 98.996094 132.941406 100.824219 131.457031 C 101.535156 130.886719 102.054688 130.804688 102.417969 131.199219 C 102.734375 131.546875 104.109375 132.355469 105.148438 132.816406 C 106.796875 133.535156 106.929688 133.546875 113.667969 133.546875 L 119.726562 133.546875 L 119.726562 108.726562 L 119.367188 108.726562 C 119.164062 108.726562 118.734375 108.847656 118.40625 108.996094 C 117.957031 109.207031 117.761719 109.375 117.558594 109.757812 L 117.300781 110.242188 L 117.265625 120.890625 L 117.246094 131.523438 L 112.582031 131.523438 C 107.4375 131.523438 106.863281 131.46875 105.789062 130.851562 C 105.464844 130.660156 104.933594 130.277344 104.617188 129.996094 C 104.144531 129.570312 104.042969 129.414062 104.042969 129.097656 L 104.042969 128.71875 L 105.339844 128.71875 C 108.792969 128.71875 110.949219 127.46875 112.234375 124.71875 C 113 123.078125 113.089844 122.550781 113.148438 119.484375 L 113.203125 116.699219 L 90.386719 116.699219 L 90.386719 118.933594 C 90.386719 121.550781 90.511719 122.585938 90.953125 123.808594 C 91.515625 125.335938 92.351562 126.503906 93.480469 127.347656 C 94.824219 128.335938 96.175781 128.71875 98.34375 128.71875 L 99.640625 128.71875 L 99.640625 129.097656 C 99.640625 129.863281 97.757812 131.175781 96.3125 131.414062 C 95.9375 131.46875 94.507812 131.523438 93.117188 131.523438 C 90.308594 131.523438 90.273438 131.515625 89.238281 130.660156 C 88.175781 129.785156 87.601562 128.785156 87.328125 127.347656 C 87.25 126.941406 87.171875 124.820312 87.125 122.425781 C 87.058594 118.226562 87.058594 118.214844 86.789062 117.734375 C 86.472656 117.195312 85.625 116.699219 85.015625 116.699219 L 84.65625 116.699219 L 84.597656 121.789062 C 84.554688 127.3125 84.507812 127.730469 83.875 129.007812 C 83.4375 129.90625 82.613281 130.773438 81.835938 131.15625 C 81.191406 131.46875 81.179688 131.46875 78.574219 131.503906 L 75.945312 131.546875 L 75.945312 108.835938 L 75.570312 108.835938 C 74.996094 108.835938 74.015625 109.386719 73.742188 109.847656 C 73.515625 110.230469 73.515625 110.441406 73.484375 121.898438 L 73.460938 133.546875 L 77.230469 133.546875 C 80.941406 133.546875 81.023438 133.546875 81.902344 133.265625 C 82.960938 132.929688 83.898438 132.34375 84.746094 131.480469 C 85.308594 130.894531 85.398438 130.851562 85.875 130.851562 C 86.347656 130.851562 86.4375 130.894531 87.003906 131.480469 C 88.007812 132.492188 89.644531 133.34375 90.929688 133.535156 C 91.808594 133.671875 94.113281 133.671875 95.746094 133.558594 Z M 43.726562 133.289062 C 46.570312 132.46875 48.242188 130.695312 49.054688 127.628906 C 49.3125 126.628906 49.347656 126.269531 49.402344 123.863281 L 49.449219 121.191406 L 38.785156 121.191406 L 38.851562 120.101562 C 39.042969 116.957031 40.386719 115.117188 42.8125 114.667969 C 43.21875 114.597656 44.789062 114.566406 46.921875 114.585938 C 50.679688 114.632812 50.871094 114.667969 51.828125 115.316406 C 52.414062 115.722656 53.238281 116.890625 53.554688 117.765625 C 54.03125 119.070312 54.109375 120.417969 54.097656 127.234375 L 54.085938 133.570312 L 57.371094 133.523438 C 60.460938 133.46875 60.722656 133.457031 61.757812 133.175781 C 63.394531 132.738281 64.410156 132.210938 65.394531 131.289062 C 67.390625 129.402344 68.011719 126.796875 67.910156 120.855469 C 67.863281 118.214844 67.785156 117.777344 67.277344 117.226562 C 66.984375 116.902344 66.328125 116.609375 65.832031 116.566406 L 65.394531 116.53125 L 65.324219 121.527344 C 65.269531 126.179688 65.246094 126.59375 65.007812 127.46875 C 64.691406 128.683594 64.296875 129.390625 63.574219 130.054688 C 62.4375 131.085938 61.398438 131.390625 58.597656 131.492188 L 56.648438 131.558594 L 56.648438 126.910156 C 56.648438 120.890625 56.46875 118.878906 55.800781 117.226562 C 54.898438 114.992188 53.375 113.597656 51.003906 112.859375 C 50.191406 112.609375 50.023438 112.601562 46.433594 112.601562 C 43.242188 112.601562 42.609375 112.621094 41.976562 112.800781 C 39.957031 113.339844 38.230469 114.710938 37.363281 116.476562 C 37.113281 117.003906 36.796875 117.8125 36.683594 118.273438 C 36.4375 119.238281 36.222656 121.179688 36.222656 122.394531 L 36.222656 123.214844 L 46.976562 123.214844 L 46.910156 124.988281 C 46.820312 127.570312 46.414062 128.910156 45.375 130.085938 C 44.808594 130.726562 43.785156 131.253906 42.824219 131.414062 C 41.875 131.570312 33.660156 131.558594 32.757812 131.402344 C 31.507812 131.1875 30.410156 130.300781 29.746094 128.988281 C 29.160156 127.820312 29.101562 127.324219 29.011719 122.550781 C 28.933594 118.339844 28.921875 118.082031 28.695312 117.652344 C 28.414062 117.125 27.78125 116.734375 27.039062 116.632812 L 26.519531 116.554688 L 26.519531 119.710938 C 26.519531 123.011719 26.664062 126.402344 26.867188 127.539062 C 27.128906 129 28.074219 130.75 29.078125 131.636719 C 30.140625 132.558594 31.460938 133.1875 32.859375 133.421875 C 33.1875 133.480469 35.613281 133.511719 38.253906 133.503906 C 42.417969 133.480469 43.140625 133.457031 43.726562 133.289062 Z M 124.308594 133.332031 C 124.851562 133.085938 125.210938 132.671875 125.367188 132.097656 C 125.449219 131.839844 125.492188 127.550781 125.515625 120.269531 C 125.539062 110.554688 125.515625 108.824219 125.378906 108.78125 C 125.144531 108.691406 124.09375 109.027344 123.734375 109.308594 C 123.023438 109.859375 123.054688 109.195312 123.023438 121.957031 L 122.988281 133.546875 L 123.417969 133.546875 C 123.652344 133.546875 124.046875 133.445312 124.308594 133.332031 Z M 85.953125 113.992188 C 86.4375 113.8125 86.992188 113.21875 87.125 112.734375 C 87.351562 111.902344 86.597656 110.902344 85.671875 110.78125 C 85.175781 110.710938 84.609375 111.050781 84.203125 111.644531 C 83.695312 112.398438 84.089844 113.476562 85.015625 113.902344 C 85.570312 114.148438 85.546875 114.148438 85.953125 113.992188 Z M 71.261719 97.15625 C 79.214844 96.414062 86.503906 93.203125 92.136719 87.933594 C 93.175781 86.96875 94.539062 85.554688 95.25 84.722656 C 95.613281 84.285156 95.757812 84.214844 97 83.847656 C 101.523438 82.476562 105.699219 80.027344 109.140625 76.734375 C 111.882812 74.097656 113.734375 71.59375 115.4375 68.1875 C 118.644531 61.785156 119.421875 54.789062 117.695312 47.949219 C 116.65625 43.859375 114.390625 39.367188 111.769531 36.222656 C 105.890625 29.136719 97.257812 25.011719 88.355469 25.023438 C 84.371094 25.023438 80.027344 25.933594 76.519531 27.519531 C 75.3125 28.058594 75.234375 28.058594 72.671875 27.675781 C 70.820312 27.394531 66.171875 27.394531 64.207031 27.664062 C 56.367188 28.765625 49.359375 32.214844 43.828125 37.683594 C 37.160156 44.277344 33.390625 53.195312 33.390625 62.335938 C 33.390625 70.164062 36.199219 77.9375 41.300781 84.238281 C 41.820312 84.890625 42.9375 86.105469 43.785156 86.933594 C 49.539062 92.664062 56.964844 96.222656 64.996094 97.089844 C 66.734375 97.28125 69.601562 97.300781 71.261719 97.15625 Z M 45.90625 30.113281 C 49.019531 27.765625 53.757812 25.621094 56.984375 25.113281 L 57.390625 25.046875 L 57.378906 21.867188 L 57.378906 18.699219 L 57.753906 17.351562 C 57.96875 16.613281 58.273438 15.667969 58.453125 15.253906 C 58.835938 14.367188 58.792969 14.34375 57.820312 14.824219 C 55.859375 15.816406 54.222656 17.949219 53.613281 20.339844 C 53.410156 21.160156 53.398438 21.171875 53.015625 21.207031 C 52.675781 21.238281 52.585938 21.171875 52.019531 20.5 C 51.445312 19.8125 50.339844 18.296875 50.035156 17.792969 C 49.921875 17.613281 49.886719 17.734375 49.832031 18.476562 C 49.71875 19.769531 49.570312 20.789062 49.300781 22.105469 L 49.054688 23.25 L 48.636719 23.25 C 48.285156 23.25 47.945312 23.082031 46.863281 22.363281 C 46.128906 21.878906 45.183594 21.226562 44.753906 20.914062 C 44.3125 20.597656 43.953125 20.351562 43.929688 20.363281 C 43.917969 20.386719 44.078125 21.207031 44.292969 22.195312 C 44.503906 23.171875 44.71875 24.304688 44.753906 24.699219 L 44.832031 25.417969 L 43.996094 25.316406 C 42.496094 25.136719 40.78125 25.203125 39.777344 25.472656 C 38.726562 25.765625 37.101562 26.539062 36.246094 27.171875 L 35.648438 27.597656 L 36.753906 27.730469 C 39.347656 28.058594 40.601562 28.460938 43.277344 29.867188 C 44.210938 30.359375 44.980469 30.765625 45 30.765625 C 45.011719 30.773438 45.417969 30.484375 45.90625 30.113281 Z M 111.242188 27.820312 C 113.40625 25.957031 114.128906 25.542969 116.5 24.765625 L 117.945312 24.292969 L 117.347656 23.945312 C 115.664062 23.003906 113.679688 22.96875 111.636719 23.867188 C 111.285156 24.023438 110.867188 24.148438 110.6875 24.148438 C 110.371094 24.148438 110.359375 24.125 110.359375 23.621094 C 110.359375 23.113281 110.753906 21.328125 111.027344 20.632812 C 111.09375 20.453125 111.152344 20.296875 111.152344 20.261719 C 111.152344 20.238281 110.867188 20.398438 110.519531 20.621094 C 109.445312 21.308594 107.628906 22.160156 107.132812 22.214844 L 106.660156 22.261719 L 106.582031 21.757812 C 106.535156 21.476562 106.46875 20.363281 106.421875 19.273438 L 106.355469 17.296875 L 105.769531 18.050781 C 105.453125 18.476562 104.84375 19.183594 104.4375 19.632812 C 103.804688 20.308594 103.625 20.441406 103.332031 20.441406 C 103.015625 20.441406 102.9375 20.375 102.664062 19.847656 C 102.023438 18.632812 100.703125 17.285156 99.449219 16.542969 C 98.894531 16.230469 97.371094 15.589844 97.316406 15.644531 C 97.292969 15.667969 97.574219 16.265625 97.9375 16.972656 C 98.78125 18.589844 99.132812 19.824219 99.527344 22.644531 L 99.664062 23.554688 L 100.296875 23.699219 C 101.492188 23.96875 103.535156 24.722656 105.113281 25.496094 C 106.773438 26.304688 109.175781 27.808594 109.730469 28.40625 C 109.921875 28.597656 110.078125 28.753906 110.113281 28.753906 C 110.136719 28.753906 110.644531 28.328125 111.242188 27.820312 Z M 111.242188 27.820312 "/>
<path style=" stroke:none;fill-rule:nonzero;fill:rgb(43.921569%,10.196078%,24.705882%);fill-opacity:1;" d="M 96.140625 126.515625 C 95.308594 126.292969 94.675781 125.898438 94.121094 125.28125 C 93.140625 124.167969 92.757812 122.777344 92.757812 120.316406 L 92.757812 118.753906 L 95.386719 118.6875 C 96.820312 118.640625 100.882812 118.609375 104.402344 118.609375 L 110.789062 118.609375 L 110.867188 119.261719 C 110.980469 120.328125 110.753906 122.597656 110.441406 123.460938 C 109.886719 124.988281 108.917969 126 107.609375 126.4375 C 106.785156 126.71875 97.101562 126.785156 96.140625 126.515625 Z M 96.140625 126.515625 "/>
<path style=" stroke:none;fill-rule:nonzero;fill:rgb(43.921569%,10.196078%,24.705882%);fill-opacity:1;" d="M 66.058594 93.898438 C 58.394531 93.371094 51.367188 90.191406 45.925781 84.800781 C 40.894531 79.800781 37.78125 73.421875 36.878906 66.269531 C 36.683594 64.71875 36.683594 59.957031 36.878906 58.40625 C 38.0625 49.050781 43.015625 41.0625 50.890625 35.851562 C 52.449219 34.820312 55.53125 33.257812 57.257812 32.628906 C 63.472656 30.347656 70.957031 30.078125 77.410156 31.898438 C 87.667969 34.785156 96.050781 43.050781 98.941406 53.136719 C 99.980469 56.730469 100.261719 59.113281 100.171875 63.234375 C 100.09375 67 99.695312 69.34375 98.625 72.570312 C 95.148438 83.027344 86.199219 91 75.414062 93.269531 C 72.660156 93.855469 68.949219 94.101562 66.058594 93.898438 Z M 73.449219 82.6875 C 74.703125 81.691406 74.757812 80.128906 73.585938 79.039062 C 72.886719 78.386719 72.289062 78.195312 71.566406 78.386719 C 69.691406 78.882812 69.003906 81.140625 70.324219 82.441406 C 71.28125 83.398438 72.457031 83.488281 73.449219 82.6875 Z M 57.742188 81.207031 C 58.363281 80.847656 58.792969 80.320312 59.015625 79.613281 C 59.402344 78.398438 58 76.613281 56.671875 76.601562 C 55.609375 76.601562 54.46875 77.636719 54.242188 78.8125 C 54.132812 79.386719 54.457031 80.261719 54.964844 80.769531 C 55.835938 81.632812 56.75 81.78125 57.742188 81.207031 Z M 83.355469 79.722656 C 83.855469 79.5 84.429688 78.871094 84.632812 78.355469 C 84.960938 77.476562 84.519531 76.175781 83.695312 75.578125 C 82.679688 74.847656 81.710938 74.917969 80.773438 75.792969 C 80.0625 76.457031 79.78125 77.253906 79.996094 78.039062 C 80.21875 78.894531 80.886719 79.601562 81.765625 79.914062 C 82.261719 80.09375 82.667969 80.050781 83.355469 79.722656 Z M 51.714844 72.871094 C 52.324219 72.691406 53.070312 71.960938 53.320312 71.300781 C 53.972656 69.546875 52 67.503906 50.316406 68.210938 C 48.523438 68.953125 48.082031 71.097656 49.480469 72.320312 C 50.25 72.996094 50.835938 73.128906 51.714844 72.871094 Z M 66.183594 72.625 C 66.757812 72.289062 67.324219 71.511719 67.433594 70.90625 C 67.605469 70.019531 66.925781 68.804688 66.003906 68.347656 C 65.097656 67.886719 64.21875 68.03125 63.429688 68.773438 C 62.402344 69.738281 62.367188 71.1875 63.339844 72.210938 C 64.152344 73.050781 65.179688 73.210938 66.183594 72.625 Z M 89.507812 70.792969 C 90.152344 70.445312 90.667969 69.773438 90.828125 69.074219 C 91.121094 67.785156 89.800781 66.15625 88.46875 66.15625 C 87.5 66.15625 86.324219 67.15625 86.109375 68.175781 C 85.941406 68.941406 86.191406 69.726562 86.789062 70.324219 C 87.632812 71.164062 88.535156 71.324219 89.507812 70.792969 Z M 77.613281 68.324219 C 78.199219 67.964844 78.742188 67.199219 78.84375 66.570312 C 79.046875 65.28125 77.773438 63.773438 76.453125 63.773438 C 75.277344 63.773438 74.023438 65.019531 74.023438 66.179688 C 74.023438 67.167969 74.601562 68.03125 75.539062 68.480469 C 76.257812 68.816406 76.878906 68.773438 77.613281 68.324219 Z M 48.601562 63.574219 C 50.171875 62.683594 50.375 60.921875 49.0625 59.675781 C 48.625 59.257812 47.992188 58.96875 47.507812 58.96875 C 46.515625 58.96875 45.453125 59.886719 45.125 61.023438 C 45 61.484375 45.195312 62.292969 45.566406 62.820312 C 45.722656 63.066406 46.117188 63.402344 46.433594 63.582031 C 47.203125 64.023438 47.824219 64.023438 48.601562 63.574219 Z M 60.6875 62.269531 C 61.453125 61.953125 62.109375 61.167969 62.300781 60.335938 C 62.492188 59.472656 61.714844 58.148438 60.777344 57.71875 C 60.101562 57.417969 59.511719 57.449219 58.824219 57.84375 C 58.160156 58.226562 57.742188 58.777344 57.539062 59.527344 C 57.277344 60.515625 57.867188 61.628906 58.914062 62.15625 C 59.59375 62.496094 60.089844 62.527344 60.6875 62.269531 Z M 73.347656 58.574219 C 74.082031 58.191406 74.703125 57.214844 74.703125 56.441406 C 74.703125 55.125 73.292969 53.789062 72.085938 53.945312 C 71.089844 54.082031 70.054688 55.09375 69.882812 56.082031 C 69.714844 57.125 70.539062 58.371094 71.644531 58.742188 C 72.277344 58.957031 72.695312 58.910156 73.347656 58.574219 Z M 86.222656 58.5625 C 86.605469 58.371094 87.214844 57.675781 87.410156 57.214844 C 87.859375 56.136719 87.226562 54.722656 86.054688 54.183594 C 85.332031 53.84375 84.949219 53.84375 84.238281 54.183594 C 83.558594 54.496094 83.253906 54.8125 82.949219 55.484375 C 82.535156 56.394531 82.703125 57.269531 83.4375 58.035156 C 84.25 58.898438 85.21875 59.078125 86.222656 58.5625 Z M 51.613281 54.226562 C 51.898438 54.136719 52.28125 53.878906 52.585938 53.574219 C 53.363281 52.8125 53.566406 51.914062 53.160156 51.050781 C 52.335938 49.230469 50.40625 48.882812 49.15625 50.328125 C 48.421875 51.183594 48.351562 52.363281 48.972656 53.214844 C 49.671875 54.183594 50.585938 54.53125 51.613281 54.226562 Z M 80.921875 49.398438 C 81.878906 49.117188 82.714844 48.027344 82.714844 47.085938 C 82.714844 45.824219 81.53125 44.601562 80.300781 44.589844 C 78.980469 44.589844 77.714844 46.039062 77.90625 47.332031 C 78.019531 48.082031 78.585938 48.847656 79.316406 49.21875 C 79.984375 49.566406 80.265625 49.601562 80.921875 49.398438 Z M 60.234375 47.667969 C 61.136719 47.296875 61.828125 46.320312 61.839844 45.398438 C 61.839844 44.050781 60.484375 42.769531 59.230469 42.941406 C 58.554688 43.03125 57.785156 43.546875 57.378906 44.1875 C 56.230469 46.050781 58.226562 48.511719 60.234375 47.667969 Z M 70.695312 46.175781 C 71.316406 45.90625 72.050781 45.050781 72.207031 44.433594 C 72.546875 43.097656 71.214844 41.457031 69.792969 41.445312 C 69.140625 41.445312 68.226562 41.996094 67.820312 42.636719 C 67.222656 43.578125 67.265625 44.488281 67.964844 45.386719 C 68.664062 46.296875 69.738281 46.613281 70.695312 46.175781 Z M 70.695312 46.175781 "/>
<path style=" stroke:none;fill-rule:nonzero;fill:rgb(43.921569%,10.196078%,24.705882%);fill-opacity:1;" d="M 99.414062 78.984375 C 99.414062 78.804688 99.742188 77.984375 100.136719 77.152344 C 102.4375 72.320312 103.511719 67.636719 103.511719 62.335938 C 103.523438 58.910156 103.128906 56.160156 102.15625 52.847656 C 100.519531 47.21875 97.621094 42.289062 93.503906 38.085938 C 90.105469 34.640625 86.394531 32.089844 82.128906 30.257812 C 81.382812 29.945312 81.359375 29.933594 81.359375 29.527344 L 81.359375 29.125 L 82.523438 28.886719 C 84.769531 28.429688 85.433594 28.371094 88.355469 28.359375 C 90.589844 28.359375 91.527344 28.40625 92.53125 28.5625 C 98.558594 29.507812 103.667969 32.132812 107.820312 36.402344 C 111.792969 40.492188 114.242188 45.5 115.054688 51.171875 C 115.335938 53.105469 115.335938 57.101562 115.066406 58.980469 C 114.074219 65.730469 110.542969 71.917969 105.304688 76.050781 C 103.273438 77.667969 100.519531 79.296875 99.84375 79.296875 C 99.449219 79.296875 99.414062 79.273438 99.414062 78.984375 Z M 99.414062 78.984375 "/>
<path style=" stroke:none;fill-rule:nonzero;fill:rgb(100%,100%,100%);fill-opacity:1;" d="M 90.589844 133.871094 C 89.304688 133.683594 87.667969 132.828125 86.664062 131.816406 C 86.324219 131.46875 85.976562 131.1875 85.875 131.1875 C 85.773438 131.1875 85.421875 131.46875 85.082031 131.816406 C 84.238281 132.683594 83.300781 133.265625 82.242188 133.601562 C 81.359375 133.882812 81.304688 133.882812 77.230469 133.882812 L 73.121094 133.882812 L 73.144531 121.898438 C 73.179688 110.105469 73.179688 109.894531 73.40625 109.511719 C 73.742188 108.925781 74.65625 108.5 75.570312 108.5 L 76.28125 108.5 L 76.28125 131.210938 L 78.574219 131.164062 C 80.796875 131.132812 80.863281 131.121094 81.496094 130.816406 C 82.273438 130.4375 83.097656 129.570312 83.539062 128.671875 C 84.167969 127.390625 84.214844 126.976562 84.261719 121.449219 L 84.316406 116.363281 L 85.015625 116.363281 C 85.976562 116.363281 86.742188 116.746094 87.125 117.394531 C 87.398438 117.878906 87.398438 117.890625 87.464844 122.089844 C 87.511719 124.484375 87.589844 126.605469 87.667969 127.011719 C 87.9375 128.449219 88.515625 129.449219 89.574219 130.324219 C 90.589844 131.164062 90.679688 131.1875 93.117188 131.1875 C 94.316406 131.1875 95.601562 131.132812 95.972656 131.074219 C 96.898438 130.929688 97.878906 130.425781 98.679688 129.683594 L 99.359375 129.066406 L 98.027344 129.054688 C 95.828125 129.054688 94.496094 128.671875 93.140625 127.683594 C 92.011719 126.839844 91.175781 125.671875 90.613281 124.144531 C 90.160156 122.886719 90.050781 121.878906 90.050781 118.933594 L 90.050781 116.363281 L 113.542969 116.363281 L 113.488281 119.484375 C 113.441406 122.921875 113.363281 123.371094 112.574219 125.054688 C 111.285156 127.820312 109.152344 129.042969 105.65625 129.054688 L 104.324219 129.066406 L 104.910156 129.605469 C 105.238281 129.90625 105.78125 130.3125 106.117188 130.515625 C 107.191406 131.121094 107.800781 131.1875 112.582031 131.1875 L 116.90625 131.1875 L 116.929688 120.550781 L 116.960938 109.902344 L 117.222656 109.421875 C 117.570312 108.769531 118.351562 108.386719 119.367188 108.386719 L 120.066406 108.386719 L 120.066406 133.882812 L 113.667969 133.882812 C 108.566406 133.882812 107.101562 133.851562 106.5 133.714844 C 105.214844 133.445312 103.082031 132.414062 102.167969 131.613281 L 101.796875 131.289062 L 101.175781 131.796875 C 99.335938 133.277344 98.242188 133.738281 96.085938 133.894531 C 94.4375 134.007812 91.460938 134.007812 90.589844 133.871094 Z M 107.269531 126.101562 C 109.152344 125.472656 110.269531 123.742188 110.472656 121.125 C 110.53125 120.441406 110.542969 119.664062 110.507812 119.40625 L 110.441406 118.945312 L 104.390625 118.945312 C 101.0625 118.945312 97.15625 118.980469 95.726562 119.023438 L 93.097656 119.089844 L 93.097656 120.316406 C 93.097656 123.585938 94.246094 125.574219 96.480469 126.179688 C 97.441406 126.4375 106.445312 126.382812 107.269531 126.101562 Z M 107.269531 126.101562 "/>
<path style=" stroke:none;fill-rule:nonzero;fill:rgb(100%,100%,100%);fill-opacity:1;" d="M 122.921875 133.917969 L 122.660156 133.871094 L 122.660156 122.328125 C 122.660156 115.027344 122.707031 110.554688 122.773438 110.171875 C 122.839844 109.835938 122.976562 109.445312 123.089844 109.285156 C 123.484375 108.734375 124.917969 108.253906 125.617188 108.421875 L 125.875 108.488281 L 125.84375 120.316406 C 125.808594 133.097656 125.832031 132.726562 125.222656 133.300781 C 124.75 133.75 123.585938 134.0625 122.921875 133.917969 Z M 122.921875 133.917969 "/>
<path style=" stroke:none;fill-rule:nonzero;fill:rgb(100%,100%,100%);fill-opacity:1;" d="M 32.519531 133.761719 C 31.121094 133.523438 29.800781 132.894531 28.742188 131.976562 C 27.738281 131.085938 26.789062 129.335938 26.53125 127.875 C 26.328125 126.707031 26.179688 123.304688 26.179688 119.710938 L 26.179688 116.214844 L 27.003906 116.273438 C 28.054688 116.339844 28.695312 116.675781 29.035156 117.316406 C 29.261719 117.742188 29.273438 118.003906 29.351562 122.214844 C 29.441406 126.988281 29.496094 127.480469 30.085938 128.648438 C 30.75 129.964844 31.84375 130.851562 33.097656 131.066406 C 34 131.222656 41.550781 131.234375 42.484375 131.074219 C 45.058594 130.660156 46.402344 128.648438 46.570312 124.988281 L 46.636719 123.550781 L 35.882812 123.550781 L 35.882812 122.394531 C 35.882812 119.71875 36.246094 117.722656 37.023438 116.136719 C 37.894531 114.375 39.621094 113.003906 41.640625 112.464844 C 42.269531 112.285156 42.914062 112.261719 46.433594 112.261719 C 50.382812 112.261719 50.519531 112.273438 51.34375 112.519531 C 53.714844 113.261719 55.238281 114.65625 56.140625 116.890625 C 56.804688 118.542969 56.984375 120.550781 56.984375 126.570312 L 56.984375 131.222656 L 58.597656 131.15625 C 61.070312 131.042969 62.152344 130.707031 63.238281 129.71875 C 63.960938 129.054688 64.355469 128.347656 64.671875 127.132812 C 64.90625 126.257812 64.929688 125.84375 64.988281 121.191406 L 65.054688 116.195312 L 65.800781 116.203125 C 66.9375 116.238281 67.605469 116.632812 68.011719 117.542969 C 68.167969 117.921875 68.214844 118.441406 68.246094 120.855469 C 68.347656 127.199219 67.761719 129.707031 65.730469 131.625 C 64.75 132.546875 63.734375 133.074219 62.097656 133.511719 C 61.035156 133.792969 60.84375 133.804688 57.371094 133.863281 L 53.734375 133.90625 L 53.757812 127.515625 C 53.769531 120.652344 53.703125 119.429688 53.21875 118.101562 C 52.902344 117.226562 52.078125 116.058594 51.492188 115.65625 C 50.554688 115.015625 50.304688 114.96875 46.929688 114.925781 C 45.023438 114.902344 43.558594 114.9375 43.164062 115.003906 C 40.839844 115.429688 39.472656 117.183594 39.191406 120.101562 L 39.121094 120.855469 L 49.785156 120.855469 L 49.742188 123.863281 C 49.683594 126.652344 49.664062 126.941406 49.390625 127.964844 C 48.714844 130.492188 47.460938 132.144531 45.53125 133.054688 C 43.917969 133.816406 43.929688 133.816406 38.253906 133.839844 C 35.433594 133.851562 32.847656 133.816406 32.519531 133.761719 Z M 32.519531 133.761719 "/>
<path style=" stroke:none;fill-rule:nonzero;fill:rgb(100%,100%,100%);fill-opacity:1;" d="M 64.660156 97.425781 C 56.625 96.558594 49.199219 93 43.445312 87.273438 C 37.699219 81.566406 34.191406 74.355469 33.222656 66.222656 C 32.984375 64.28125 32.984375 60.394531 33.222656 58.449219 C 34.484375 47.949219 40.171875 38.695312 48.859375 32.964844 C 53.386719 29.988281 58.441406 28.089844 63.757812 27.351562 C 66.601562 26.957031 70.785156 27 73.921875 27.472656 L 75.132812 27.652344 L 76.179688 27.179688 C 81.632812 24.734375 88.414062 24.023438 94.574219 25.273438 C 99.132812 26.191406 103.90625 28.449219 107.597656 31.414062 C 108.882812 32.449219 111.003906 34.558594 112.109375 35.886719 C 114.039062 38.199219 116.25 42.128906 117.234375 44.960938 C 117.808594 46.625 118.292969 48.523438 118.609375 50.328125 C 118.914062 52.105469 119.027344 56.082031 118.835938 58.023438 C 118.304688 63.222656 116.410156 68.257812 113.363281 72.601562 C 109.515625 78.074219 103.726562 82.25 97.339844 84.183594 C 96.097656 84.554688 95.949219 84.621094 95.589844 85.058594 C 89.519531 92.226562 81.042969 96.617188 71.597656 97.492188 C 69.917969 97.648438 66.386719 97.617188 64.660156 97.425781 Z M 72.308594 93.382812 C 81.03125 92.359375 88.875 87.699219 94.101562 80.441406 C 96.976562 76.433594 98.792969 71.929688 99.585938 66.828125 C 99.832031 65.257812 99.933594 61.179688 99.765625 59.507812 C 99.007812 51.824219 95.703125 44.996094 90.207031 39.761719 C 82.949219 32.863281 73 29.820312 63.136719 31.503906 C 60.019531 32.035156 57.574219 32.84375 54.558594 34.3125 C 49.449219 36.816406 45.273438 40.503906 42.101562 45.320312 C 39.472656 49.320312 37.835938 53.8125 37.214844 58.742188 C 37.035156 60.257812 37.035156 64.414062 37.214844 65.929688 C 38.105469 73.074219 41.234375 79.464844 46.265625 84.464844 C 53.171875 91.316406 62.570312 94.527344 72.308594 93.382812 Z M 101.039062 78.332031 C 106.074219 75.511719 109.796875 71.625 112.222656 66.660156 C 113.519531 64.03125 114.308594 61.496094 114.726562 58.640625 C 114.988281 56.820312 114.988281 53.304688 114.714844 51.441406 C 113.894531 45.804688 111.433594 40.804688 107.484375 36.738281 C 103.332031 32.472656 98.207031 29.84375 92.191406 28.898438 C 90.625 28.664062 86.335938 28.628906 84.914062 28.84375 C 83.503906 29.066406 81.699219 29.449219 81.699219 29.527344 C 81.699219 29.574219 82.039062 29.753906 82.464844 29.921875 C 86.730469 31.753906 90.445312 34.300781 93.839844 37.75 C 99.289062 43.300781 102.550781 50.050781 103.667969 58.070312 C 103.929688 60 103.929688 64.628906 103.667969 66.628906 C 103.140625 70.59375 102.132812 74.019531 100.476562 77.476562 C 100.09375 78.285156 99.808594 78.960938 99.84375 78.960938 C 99.890625 78.960938 100.429688 78.679688 101.039062 78.332031 Z M 101.039062 78.332031 "/>
<path style=" stroke:none;fill-rule:nonzero;fill:rgb(87.843137%,15.294118%,43.137255%);fill-opacity:1;" d="M 34.359375 139.792969 C 33.886719 139.589844 33.425781 139.015625 33.332031 138.535156 C 33.085938 137.207031 33.898438 136.128906 35.152344 136.128906 C 36.246094 136.128906 37.011719 136.929688 37.011719 138.039062 C 37.011719 138.734375 36.765625 139.230469 36.199219 139.644531 C 35.816406 139.9375 34.835938 140.015625 34.359375 139.792969 Z M 34.359375 139.792969 "/>
<path style=" stroke:none;fill-rule:nonzero;fill:rgb(87.843137%,15.294118%,43.137255%);fill-opacity:1;" d="M 39.867188 139.714844 C 39.214844 139.386719 38.898438 138.847656 38.898438 138.050781 C 38.898438 136.871094 39.496094 136.21875 40.679688 136.152344 C 41.515625 136.097656 42.023438 136.390625 42.40625 137.140625 C 42.722656 137.769531 42.722656 138.320312 42.394531 138.949219 C 41.921875 139.847656 40.816406 140.183594 39.867188 139.714844 Z M 39.867188 139.714844 "/>
<path style=" stroke:none;fill-rule:nonzero;fill:rgb(87.843137%,15.294118%,43.137255%);fill-opacity:1;" d="M 59.863281 139.726562 C 59.199219 139.398438 58.871094 138.847656 58.871094 138.0625 C 58.871094 136.871094 59.46875 136.21875 60.652344 136.152344 C 61.21875 136.121094 61.398438 136.152344 61.726562 136.378906 C 62.199219 136.691406 62.628906 137.476562 62.628906 138.039062 C 62.628906 138.703125 62.199219 139.410156 61.613281 139.703125 C 60.992188 140.003906 60.449219 140.015625 59.863281 139.726562 Z M 59.863281 139.726562 "/>
<path style=" stroke:none;fill-rule:nonzero;fill:rgb(87.843137%,15.294118%,43.137255%);fill-opacity:1;" d="M 84.675781 114.238281 C 83.324219 113.632812 83.1875 111.632812 84.417969 110.710938 C 85.039062 110.261719 86.109375 110.273438 86.789062 110.746094 C 87.714844 111.410156 87.816406 113.058594 86.980469 113.859375 C 86.324219 114.488281 85.523438 114.621094 84.675781 114.238281 Z M 84.675781 114.238281 "/>
<path style=" stroke:none;fill-rule:nonzero;fill:rgb(87.843137%,15.294118%,43.137255%);fill-opacity:1;" d="M 71.375 83.578125 C 70.042969 83.25 69.242188 82.183594 69.253906 80.746094 C 69.261719 79.0625 70.390625 77.949219 72.09375 77.949219 C 72.851562 77.949219 73.40625 78.183594 73.992188 78.757812 C 75.152344 79.882812 75.0625 81.980469 73.832031 82.992188 C 73.15625 83.554688 72.207031 83.777344 71.375 83.578125 Z M 71.375 83.578125 "/>
<path style=" stroke:none;fill-rule:nonzero;fill:rgb(87.843137%,15.294118%,43.137255%);fill-opacity:1;" d="M 55.847656 81.847656 C 55.148438 81.644531 54.46875 81.09375 54.140625 80.441406 C 53.792969 79.722656 53.78125 78.445312 54.132812 77.78125 C 54.660156 76.769531 55.519531 76.265625 56.671875 76.265625 C 57.574219 76.265625 58.171875 76.535156 58.710938 77.175781 C 59.929688 78.589844 59.613281 80.710938 58.046875 81.566406 C 57.371094 81.9375 56.535156 82.039062 55.847656 81.847656 Z M 55.847656 81.847656 "/>
<path style=" stroke:none;fill-rule:nonzero;fill:rgb(87.843137%,15.294118%,43.137255%);fill-opacity:1;" d="M 81.585938 80.320312 C 80.71875 80.050781 79.914062 79.308594 79.691406 78.523438 C 79.058594 76.445312 80.535156 74.535156 82.613281 74.726562 C 83.875 74.839844 84.8125 75.691406 85.082031 76.984375 C 85.308594 78.074219 84.871094 79.285156 84.046875 79.882812 C 83.402344 80.332031 82.296875 80.53125 81.585938 80.320312 Z M 81.585938 80.320312 "/>
<path style=" stroke:none;fill-rule:nonzero;fill:rgb(87.843137%,15.294118%,43.137255%);fill-opacity:1;" d="M 49.921875 73.1875 C 48.871094 72.726562 48.261719 71.738281 48.273438 70.523438 C 48.273438 69.59375 48.554688 68.929688 49.144531 68.414062 C 49.753906 67.886719 50.273438 67.695312 51.09375 67.695312 C 51.988281 67.707031 52.71875 68.054688 53.226562 68.714844 C 54.414062 70.265625 53.757812 72.703125 52.03125 73.21875 C 51.457031 73.390625 50.351562 73.367188 49.921875 73.1875 Z M 49.921875 73.1875 "/>
<path style=" stroke:none;fill-rule:nonzero;fill:rgb(87.843137%,15.294118%,43.137255%);fill-opacity:1;" d="M 63.8125 73.140625 C 63.25 72.871094 62.582031 72.152344 62.390625 71.59375 C 62.3125 71.34375 62.246094 70.875 62.246094 70.535156 C 62.246094 69.714844 62.457031 69.144531 62.957031 68.59375 C 63.789062 67.671875 65.179688 67.414062 66.308594 67.988281 C 68.226562 68.953125 68.347656 71.828125 66.53125 72.949219 C 66.058594 73.230469 65.84375 73.289062 65.121094 73.320312 C 64.46875 73.34375 64.152344 73.300781 63.8125 73.140625 Z M 63.8125 73.140625 "/>
<path style=" stroke:none;fill-rule:nonzero;fill:rgb(87.843137%,15.294118%,43.137255%);fill-opacity:1;" d="M 87.667969 71.402344 C 86.222656 70.996094 85.421875 69.535156 85.761719 67.917969 C 85.863281 67.4375 85.996094 67.167969 86.394531 66.730469 C 86.980469 66.078125 87.601562 65.796875 88.480469 65.808594 C 89.339844 65.808594 89.96875 66.078125 90.5 66.695312 C 91.730469 68.078125 91.414062 70.277344 89.855469 71.121094 C 89.191406 71.492188 88.355469 71.59375 87.667969 71.402344 Z M 87.667969 71.402344 "/>
<path style=" stroke:none;fill-rule:nonzero;fill:rgb(87.843137%,15.294118%,43.137255%);fill-opacity:1;" d="M 75.199219 68.816406 C 74.160156 68.324219 73.652344 67.4375 73.664062 66.144531 C 73.675781 65.042969 74.226562 64.167969 75.210938 63.652344 C 75.84375 63.324219 77.0625 63.324219 77.703125 63.664062 C 79.632812 64.652344 79.757812 67.546875 77.929688 68.683594 C 77.152344 69.15625 76.035156 69.210938 75.199219 68.816406 Z M 75.199219 68.816406 "/>
<path style=" stroke:none;fill-rule:nonzero;fill:rgb(87.843137%,15.294118%,43.137255%);fill-opacity:1;" d="M 46.863281 64.257812 C 45.8125 64 45.011719 63.179688 44.789062 62.125 C 44.484375 60.695312 45.160156 59.316406 46.421875 58.800781 C 46.988281 58.5625 48.039062 58.5625 48.601562 58.800781 C 50.273438 59.496094 50.859375 61.808594 49.71875 63.28125 C 49.175781 64 47.777344 64.480469 46.863281 64.257812 Z M 46.863281 64.257812 "/>
<path style=" stroke:none;fill-rule:nonzero;fill:rgb(87.843137%,15.294118%,43.137255%);fill-opacity:1;" d="M 58.589844 62.496094 C 57.628906 62.023438 57.109375 61.15625 57.097656 60.023438 C 57.097656 58.867188 57.605469 57.980469 58.578125 57.449219 C 59.707031 56.84375 61.105469 57.089844 61.949219 58.046875 C 63.011719 59.238281 62.957031 61 61.816406 62.078125 C 61.003906 62.855469 59.660156 63.035156 58.589844 62.496094 Z M 58.589844 62.496094 "/>
<path style=" stroke:none;fill-rule:nonzero;fill:rgb(87.843137%,15.294118%,43.137255%);fill-opacity:1;" d="M 71.316406 59.078125 C 69.160156 58.351562 68.847656 55.183594 70.796875 53.980469 C 71.238281 53.710938 71.507812 53.632812 72.117188 53.597656 C 73.832031 53.496094 75.0625 54.6875 75.0625 56.453125 C 75.074219 57.71875 74.296875 58.777344 73.109375 59.125 C 72.355469 59.347656 72.085938 59.347656 71.316406 59.078125 Z M 71.316406 59.078125 "/>
<path style=" stroke:none;fill-rule:nonzero;fill:rgb(87.843137%,15.294118%,43.137255%);fill-opacity:1;" d="M 84.179688 59.078125 C 83.402344 58.820312 82.679688 58.089844 82.488281 57.382812 C 82.195312 56.316406 82.441406 55.070312 83.085938 54.375 C 83.515625 53.914062 84.382812 53.574219 85.140625 53.574219 C 86.800781 53.574219 87.90625 54.722656 87.90625 56.460938 C 87.90625 57.765625 87.171875 58.777344 85.976562 59.125 C 85.21875 59.347656 84.949219 59.347656 84.179688 59.078125 Z M 84.179688 59.078125 "/>
<path style=" stroke:none;fill-rule:nonzero;fill:rgb(87.843137%,15.294118%,43.137255%);fill-opacity:1;" d="M 49.875 54.554688 C 49.335938 54.386719 48.453125 53.484375 48.308594 52.945312 C 48.148438 52.375 48.148438 51.410156 48.320312 50.871094 C 48.75 49.441406 50.53125 48.65625 52.042969 49.230469 C 53.351562 49.734375 54.039062 51.398438 53.578125 52.945312 C 53.398438 53.554688 52.5625 54.386719 51.953125 54.566406 C 51.390625 54.734375 50.417969 54.722656 49.875 54.554688 Z M 49.875 54.554688 "/>
<path style=" stroke:none;fill-rule:nonzero;fill:rgb(87.843137%,15.294118%,43.137255%);fill-opacity:1;" d="M 79.011719 49.578125 C 76.710938 48.433594 77.171875 44.792969 79.679688 44.265625 C 81.710938 43.828125 83.449219 45.554688 83.050781 47.625 C 82.703125 49.476562 80.726562 50.429688 79.011719 49.578125 Z M 79.011719 49.578125 "/>
<path style=" stroke:none;fill-rule:nonzero;fill:rgb(87.843137%,15.294118%,43.137255%);fill-opacity:1;" d="M 58.800781 48.171875 C 57.582031 47.9375 56.78125 46.984375 56.679688 45.65625 C 56.570312 44.34375 57.085938 43.378906 58.171875 42.851562 C 59.671875 42.121094 61.386719 42.738281 62.042969 44.242188 C 62.253906 44.746094 62.265625 45.859375 62.074219 46.433594 C 61.644531 47.679688 60.191406 48.453125 58.800781 48.171875 Z M 58.800781 48.171875 "/>
<path style=" stroke:none;fill-rule:nonzero;fill:rgb(87.843137%,15.294118%,43.137255%);fill-opacity:1;" d="M 69.039062 46.679688 C 67.910156 46.375 67.152344 45.433594 67.0625 44.21875 C 66.960938 42.917969 67.433594 41.972656 68.484375 41.402344 C 69.625 40.78125 71.046875 41.03125 71.882812 41.984375 C 72.90625 43.128906 72.917969 44.714844 71.925781 45.816406 C 71.171875 46.644531 70.085938 46.972656 69.039062 46.679688 Z M 69.039062 46.679688 "/>
<path style=" stroke:none;fill-rule:nonzero;fill:rgb(79.607843%,64.705882%,24.313725%);fill-opacity:1;" d="M 44.402344 30.988281 C 43.230469 30.28125 40.679688 29.066406 39.742188 28.753906 C 38.625 28.394531 37.082031 28.113281 35.613281 28 L 34.597656 27.933594 L 35.140625 27.441406 C 36.371094 26.339844 38.355469 25.363281 40.082031 25.003906 C 41.0625 24.800781 42.890625 24.765625 43.785156 24.933594 C 44.109375 25.003906 44.402344 25.035156 44.414062 25.011719 C 44.484375 24.945312 43.691406 21.25 43.386719 20.207031 C 43.230469 19.644531 43.105469 19.160156 43.128906 19.148438 C 43.152344 19.128906 43.691406 19.519531 44.347656 20.015625 C 45.609375 20.980469 48.464844 22.914062 48.625 22.914062 C 48.714844 22.914062 49.097656 21.226562 49.3125 19.878906 C 49.367188 19.476562 49.460938 18.453125 49.492188 17.613281 L 49.570312 16.0625 L 50.261719 17.21875 C 51.140625 18.691406 52.753906 20.800781 52.992188 20.789062 C 53.035156 20.789062 53.171875 20.417969 53.285156 19.980469 C 53.847656 17.746094 55.339844 15.714844 57.1875 14.636719 C 57.664062 14.355469 59.457031 13.757812 59.546875 13.847656 C 59.570312 13.871094 59.355469 14.386719 59.074219 14.984375 C 58.78125 15.589844 58.375 16.722656 58.148438 17.511719 C 57.742188 18.914062 57.742188 18.9375 57.730469 21.171875 C 57.71875 22.40625 57.753906 23.855469 57.808594 24.394531 L 57.886719 25.371094 L 57.359375 25.441406 C 54.164062 25.890625 48.648438 28.4375 45.804688 30.785156 C 45.441406 31.089844 45.101562 31.335938 45.058594 31.324219 C 45.011719 31.324219 44.71875 31.167969 44.402344 30.988281 Z M 44.402344 30.988281 "/>
<path style=" stroke:none;fill-rule:nonzero;fill:rgb(79.607843%,64.705882%,24.313725%);fill-opacity:1;" d="M 109.570312 28.910156 C 107.957031 27.261719 102.890625 24.6875 99.957031 24.035156 L 99.324219 23.890625 L 99.1875 22.980469 C 98.714844 19.578125 98.171875 18.003906 96.742188 15.792969 C 96.46875 15.375 96.265625 15.003906 96.289062 14.984375 C 96.355469 14.914062 97.597656 15.253906 98.421875 15.566406 C 100.351562 16.296875 102.023438 17.746094 103.015625 19.53125 L 103.332031 20.117188 L 103.984375 19.410156 C 104.628906 18.722656 106.175781 16.824219 106.535156 16.285156 C 106.703125 16.027344 106.714844 16.183594 106.785156 18.644531 C 106.816406 20.09375 106.898438 21.417969 106.941406 21.585938 L 107.03125 21.890625 L 107.777344 21.566406 C 108.90625 21.070312 110.246094 20.285156 111.273438 19.53125 C 112.246094 18.8125 112.289062 18.835938 111.828125 19.769531 C 111.476562 20.453125 110.699219 23.136719 110.699219 23.644531 C 110.699219 23.765625 110.847656 23.734375 111.308594 23.53125 C 113.847656 22.40625 116.726562 22.675781 118.53125 24.195312 L 118.972656 24.5625 L 118.269531 24.699219 C 117.253906 24.902344 115.417969 25.550781 114.402344 26.082031 C 113.566406 26.507812 111.804688 27.867188 110.699219 28.933594 C 110.417969 29.203125 110.15625 29.425781 110.125 29.425781 C 110.089844 29.425781 109.839844 29.191406 109.570312 28.910156 Z M 109.570312 28.910156 "/>
</g>
</svg>
