<?xml version="1.0" encoding="UTF-8"?>
<svg xmlns="http://www.w3.org/2000/svg" xmlns:xlink="http://www.w3.org/1999/xlink" width="152px" height="114px" viewBox="0 0 152 114" version="1.1">
<g id="surface1">
<path style=" stroke:none;fill-rule:nonzero;fill:rgb(75.686275%,63.529412%,43.137255%);fill-opacity:1;" d="M 74.824219 74.4375 C 73.878906 73.488281 73.6875 73.414062 72.589844 73.828125 C 70.464844 74.589844 68.761719 74.359375 67.359375 73.109375 C 65.765625 71.707031 65.046875 70.152344 65.273438 68.410156 C 65.386719 67.425781 65.273438 67.042969 64.816406 66.894531 C 64.515625 66.816406 64.628906 66.742188 65.121094 66.703125 C 65.613281 66.703125 65.878906 66.515625 65.765625 66.285156 C 65.652344 66.097656 65.992188 65.492188 66.597656 64.960938 L 67.660156 64.050781 L 66.597656 64.011719 C 65.992188 64.011719 65.160156 63.824219 64.742188 63.59375 C 64.136719 63.253906 63.871094 63.292969 63.644531 63.671875 C 63.414062 64.050781 63.300781 63.785156 63.300781 62.949219 C 63.300781 61.738281 63.300781 61.738281 64.210938 62.308594 C 65.234375 62.988281 66.789062 63.140625 68.496094 62.722656 L 69.746094 62.421875 L 69.519531 64.695312 C 69.214844 67.347656 69.707031 68.5625 71.109375 68.5625 C 72.476562 68.5625 73.347656 67.992188 74.292969 66.476562 C 74.75 65.757812 75.28125 65.148438 75.429688 65.148438 C 75.621094 65.148438 76.492188 65.90625 77.363281 66.855469 C 79.375 69.015625 80.925781 69.207031 81.535156 67.425781 C 81.761719 66.816406 82.179688 66.285156 82.480469 66.285156 C 83.125 66.285156 83.164062 66.816406 82.632812 67.839844 C 82.292969 68.410156 82.367188 68.5625 82.859375 68.5625 C 83.355469 68.5625 83.390625 68.675781 83.011719 69.128906 C 82.785156 69.433594 82.214844 69.773438 81.761719 69.925781 C 80.664062 70.265625 78.691406 72.199219 78.996094 72.65625 C 79.335938 73.222656 81.078125 73.449219 82.292969 73.109375 C 83.125 72.882812 83.390625 72.921875 83.390625 73.300781 C 83.390625 74.285156 80.433594 74.625 78.617188 73.792969 C 77.707031 73.375 77.554688 73.414062 76.757812 74.398438 L 75.886719 75.496094 Z M 76.417969 72.921875 C 76.570312 72.617188 76.417969 72.085938 76.152344 71.746094 C 75.734375 71.253906 75.621094 71.253906 75.128906 71.746094 C 74.484375 72.390625 74.785156 73.488281 75.621094 73.488281 C 75.960938 73.488281 76.304688 73.222656 76.417969 72.921875 Z M 72.246094 72.65625 C 72.398438 72.425781 71.945312 71.707031 71.148438 70.949219 C 70.085938 70 69.40625 69.699219 68.304688 69.699219 C 66.523438 69.699219 66.21875 69.925781 66.789062 70.988281 C 67.660156 72.691406 68.304688 73.109375 70.164062 73.109375 C 71.148438 73.109375 72.097656 72.921875 72.246094 72.65625 Z M 74.484375 70.835938 C 75.015625 69.8125 75.28125 67.804688 74.863281 67.804688 C 74.710938 67.804688 72.019531 69.585938 71.714844 69.886719 C 71.566406 70 73.535156 71.933594 73.800781 71.972656 C 73.839844 71.972656 74.144531 71.480469 74.484375 70.835938 Z M 78.652344 70.988281 C 79.183594 70.644531 79.601562 70.230469 79.601562 70.078125 C 79.601562 69.773438 77.402344 68.371094 76.757812 68.257812 C 76.191406 68.144531 76.265625 69.355469 76.832031 70.570312 C 77.441406 71.78125 77.441406 71.78125 78.652344 70.988281 Z M 68.796875 67.917969 C 68.644531 67.539062 68.417969 66.742188 68.265625 66.136719 L 68.003906 64.996094 L 67.167969 66.058594 C 65.878906 67.726562 66.070312 68.5625 67.699219 68.5625 C 68.875 68.5625 69.027344 68.449219 68.796875 67.917969 Z M 68.796875 67.917969 "/>
<path style=" stroke:none;fill-rule:nonzero;fill:rgb(75.686275%,63.529412%,43.137255%);fill-opacity:1;" d="M 62.242188 69.8125 C 61.785156 68.902344 62.089844 68.183594 62.886719 68.183594 C 63.910156 68.183594 64.476562 68.941406 64.023438 69.773438 C 63.566406 70.644531 62.65625 70.644531 62.242188 69.8125 Z M 62.242188 69.8125 "/>
<path style=" stroke:none;fill-rule:nonzero;fill:rgb(75.686275%,63.529412%,43.137255%);fill-opacity:1;" d="M 87.5625 69.886719 C 86.917969 69.128906 87.371094 68.183594 88.320312 68.183594 C 88.734375 68.183594 89.191406 68.449219 89.304688 68.75 C 89.53125 69.320312 88.886719 70.457031 88.320312 70.457031 C 88.167969 70.457031 87.828125 70.191406 87.5625 69.886719 Z M 87.5625 69.886719 "/>
<path style=" stroke:none;fill-rule:nonzero;fill:rgb(75.686275%,63.529412%,43.137255%);fill-opacity:1;" d="M 71.261719 66.476562 C 70.617188 65.71875 71.074219 64.769531 72.019531 64.769531 C 72.4375 64.769531 72.890625 65.035156 73.003906 65.339844 C 73.234375 65.90625 72.589844 67.042969 72.019531 67.042969 C 71.867188 67.042969 71.527344 66.78125 71.261719 66.476562 Z M 71.261719 66.476562 "/>
<path style=" stroke:none;fill-rule:nonzero;fill:rgb(75.686275%,63.529412%,43.137255%);fill-opacity:1;" d="M 78.617188 66.515625 C 78.273438 65.605469 78.765625 64.695312 79.488281 64.847656 C 79.941406 64.921875 80.167969 65.300781 80.167969 65.90625 C 80.167969 67.007812 78.957031 67.460938 78.617188 66.515625 Z M 78.617188 66.515625 "/>
<path style=" stroke:none;fill-rule:nonzero;fill:rgb(75.686275%,63.529412%,43.137255%);fill-opacity:1;" d="M 87.105469 66.402344 C 87.332031 66.324219 87.5625 65.566406 87.5625 64.734375 C 87.5625 63.332031 87.523438 63.292969 86.574219 63.632812 C 85.363281 64.125 85.285156 64.125 85.285156 63.558594 C 85.324219 63.292969 85.894531 62.800781 86.574219 62.496094 C 88.167969 61.738281 88.660156 62.191406 88.851562 64.769531 L 89.039062 66.664062 L 87.828125 66.628906 C 87.144531 66.628906 86.839844 66.515625 87.105469 66.402344 Z M 87.105469 66.402344 "/>
<path style=" stroke:none;fill-rule:nonzero;fill:rgb(75.686275%,63.529412%,43.137255%);fill-opacity:1;" d="M 131.53125 61.738281 C 131.039062 61.398438 131.078125 61.246094 131.871094 60.601562 C 132.363281 60.183594 133.125 59.84375 133.578125 59.84375 C 134.222656 59.84375 134.261719 59.917969 133.804688 60.222656 C 133.3125 60.523438 133.3125 60.640625 133.769531 60.941406 C 134.183594 61.207031 134.148438 61.359375 133.503906 61.699219 C 132.554688 62.191406 132.25 62.230469 131.53125 61.738281 Z M 131.53125 61.738281 "/>
<path style=" stroke:none;fill-rule:nonzero;fill:rgb(75.686275%,63.529412%,43.137255%);fill-opacity:1;" d="M 65.804688 61.132812 C 65.386719 59.996094 67.054688 58.855469 67.660156 59.84375 C 68.078125 60.488281 67.472656 61.738281 66.714844 61.738281 C 66.335938 61.738281 65.917969 61.472656 65.804688 61.132812 Z M 65.804688 61.132812 "/>
<path style=" stroke:none;fill-rule:nonzero;fill:rgb(75.686275%,63.529412%,43.137255%);fill-opacity:1;" d="M 83.769531 61.167969 C 83.355469 60.675781 83.355469 60.449219 83.882812 59.957031 C 84.679688 59.160156 85.742188 59.617188 85.589844 60.675781 C 85.4375 61.738281 84.453125 62.003906 83.769531 61.167969 Z M 83.769531 61.167969 "/>
<path style=" stroke:none;fill-rule:nonzero;fill:rgb(75.686275%,63.529412%,43.137255%);fill-opacity:1;" d="M 123.53125 61.320312 C 122.773438 60.867188 123.570312 60.222656 124.820312 60.296875 C 125.503906 60.335938 126.300781 60.296875 126.601562 60.183594 C 126.984375 60.109375 127.171875 60.296875 127.171875 60.753906 C 127.171875 61.398438 126.90625 61.511719 125.542969 61.546875 C 124.671875 61.585938 123.761719 61.472656 123.53125 61.320312 Z M 123.53125 61.320312 "/>
<path style=" stroke:none;fill-rule:nonzero;fill:rgb(75.686275%,63.529412%,43.137255%);fill-opacity:1;" d="M 136.382812 59.957031 C 135.777344 59.804688 135.699219 59.3125 135.699219 56.394531 C 135.699219 53.058594 135.699219 52.980469 136.761719 52.566406 L 137.785156 52.109375 L 136.722656 51.957031 C 135.816406 51.84375 135.664062 51.65625 135.777344 50.820312 C 135.851562 50.027344 136.117188 49.761719 136.953125 49.683594 C 138.125 49.53125 138.050781 49.152344 138.011719 55.484375 C 138.011719 60.183594 137.9375 60.375 136.382812 59.957031 Z M 136.382812 59.957031 "/>
<path style=" stroke:none;fill-rule:nonzero;fill:rgb(75.686275%,63.529412%,43.137255%);fill-opacity:1;" d="M 86.160156 58.667969 C 84.679688 57.378906 84.640625 57.191406 85.78125 57.191406 C 86.347656 57.191406 86.878906 57.53125 87.144531 58.097656 C 87.941406 59.578125 87.449219 59.878906 86.160156 58.667969 Z M 86.160156 58.667969 "/>
<path style=" stroke:none;fill-rule:nonzero;fill:rgb(75.686275%,63.529412%,43.137255%);fill-opacity:1;" d="M 29.453125 59.199219 C 29.300781 59.085938 29.1875 58.363281 29.1875 57.605469 C 29.1875 56.847656 28.769531 55.484375 28.238281 54.574219 C 27.140625 52.714844 27.0625 52.261719 27.824219 52.261719 C 28.125 52.261719 28.730469 52.867188 29.1875 53.625 C 29.792969 54.6875 30.097656 54.914062 30.4375 54.574219 C 30.664062 54.347656 31.15625 54.15625 31.539062 54.15625 C 32.179688 54.15625 32.144531 54.234375 31.460938 55.40625 C 31.042969 56.050781 30.703125 57.265625 30.703125 58.0625 C 30.703125 59.386719 30.132812 59.917969 29.453125 59.199219 Z M 29.453125 59.199219 "/>
<path style=" stroke:none;fill-rule:nonzero;fill:rgb(75.686275%,63.529412%,43.137255%);fill-opacity:1;" d="M 42.71875 59.199219 C 42.566406 59.085938 42.453125 57.796875 42.453125 56.355469 C 42.453125 53.855469 42.414062 53.777344 41.507812 53.777344 C 40.824219 53.777344 40.558594 53.589844 40.558594 53.019531 C 40.558594 52.1875 40.976562 52.109375 43.324219 52.488281 C 44.160156 52.640625 44.726562 52.945312 44.726562 53.246094 C 44.726562 53.550781 44.578125 53.777344 44.347656 53.777344 C 44.121094 53.777344 43.96875 54.992188 43.96875 56.621094 C 43.96875 58.742188 43.855469 59.464844 43.476562 59.464844 C 43.175781 59.464844 42.832031 59.351562 42.71875 59.199219 Z M 42.71875 59.199219 "/>
<path style=" stroke:none;fill-rule:nonzero;fill:rgb(75.686275%,63.529412%,43.137255%);fill-opacity:1;" d="M 123.683594 59.199219 L 125.84375 59.046875 L 125.84375 55.824219 C 125.84375 52.714844 125.882812 52.601562 126.832031 52.261719 C 127.363281 52.035156 127.855469 51.882812 127.929688 51.882812 C 128.007812 51.882812 128.15625 53.476562 128.195312 55.40625 L 128.308594 58.894531 L 129.75 59.007812 C 130.960938 59.121094 131.226562 59.007812 131.417969 58.363281 C 131.570312 57.757812 131.910156 57.570312 132.933594 57.570312 C 134.070312 57.570312 134.183594 57.644531 133.84375 58.289062 C 133.238281 59.386719 132.628906 59.464844 126.867188 59.386719 C 123.914062 59.351562 122.472656 59.273438 123.683594 59.199219 Z M 123.683594 59.199219 "/>
<path style=" stroke:none;fill-rule:nonzero;fill:rgb(75.686275%,63.529412%,43.137255%);fill-opacity:1;" d="M 20.316406 55.824219 C 20.203125 54.003906 20.128906 52.488281 20.164062 52.453125 C 20.242188 52.414062 21 52.453125 21.910156 52.566406 C 23.804688 52.753906 24.183594 53.777344 22.328125 53.777344 C 21.417969 53.777344 21.1875 53.929688 21.304688 54.460938 C 21.453125 55.257812 22.96875 55.523438 23.730469 54.914062 C 24.144531 54.535156 24.257812 54.613281 24.257812 55.332031 C 24.257812 55.824219 24.375 56.886719 24.488281 57.683594 L 24.753906 59.085938 L 20.582031 59.085938 Z M 23.878906 57.191406 C 23.878906 56.582031 23.613281 56.429688 22.554688 56.429688 C 21.492188 56.429688 21.226562 56.582031 21.226562 57.191406 C 21.226562 57.796875 21.492188 57.949219 22.554688 57.949219 C 23.613281 57.949219 23.878906 57.796875 23.878906 57.191406 Z M 23.878906 57.191406 "/>
<path style=" stroke:none;fill-rule:nonzero;fill:rgb(75.686275%,63.529412%,43.137255%);fill-opacity:1;" d="M 12.320312 57.683594 C 12.433594 57.074219 12.925781 55.636719 13.378906 54.460938 C 14.023438 52.753906 14.402344 52.261719 15.011719 52.261719 C 15.425781 52.261719 15.804688 52.488281 15.804688 52.753906 C 15.84375 52.980469 16.148438 54.042969 16.527344 55.027344 C 17.324219 57.113281 17.058594 57.570312 14.933594 57.570312 C 14.214844 57.570312 13.644531 57.796875 13.496094 58.136719 C 13.378906 58.441406 13 58.707031 12.660156 58.707031 C 12.167969 58.707031 12.089844 58.476562 12.320312 57.683594 Z M 15.542969 55.976562 C 15.542969 55.257812 14.898438 54.382812 14.707031 54.761719 C 14.0625 55.9375 14.101562 56.429688 14.78125 56.429688 C 15.199219 56.429688 15.542969 56.203125 15.542969 55.976562 Z M 15.542969 55.976562 "/>
<path style=" stroke:none;fill-rule:nonzero;fill:rgb(75.686275%,63.529412%,43.137255%);fill-opacity:1;" d="M 33.925781 58.363281 C 33.8125 58.175781 34.226562 56.734375 34.835938 55.21875 C 36.238281 51.617188 37.070312 51.390625 38.058594 54.269531 C 38.585938 55.902344 38.664062 56.582031 38.359375 57.417969 C 38.132812 58.023438 37.941406 58.289062 37.941406 58.0625 C 37.90625 57.339844 35.667969 57.453125 35.402344 58.136719 C 35.136719 58.78125 34.265625 58.894531 33.925781 58.363281 Z M 37.148438 55.671875 C 36.917969 55.257812 36.65625 54.914062 36.578125 54.914062 C 36.503906 54.914062 36.238281 55.257812 36.011719 55.671875 C 35.667969 56.355469 35.707031 56.429688 36.578125 56.429688 C 37.449219 56.429688 37.488281 56.355469 37.148438 55.671875 Z M 37.148438 55.671875 "/>
<path style=" stroke:none;fill-rule:nonzero;fill:rgb(75.686275%,63.529412%,43.137255%);fill-opacity:1;" d="M 70.503906 57 L 70.503906 56.015625 L 74.785156 56.128906 C 78.878906 56.242188 79.03125 56.28125 79.144531 57.113281 C 79.261719 57.949219 79.222656 57.949219 74.902344 57.949219 L 70.503906 57.949219 Z M 70.503906 57 "/>
<path style=" stroke:none;fill-rule:nonzero;fill:rgb(75.686275%,63.529412%,43.137255%);fill-opacity:1;" d="M 84.527344 56.546875 C 84.527344 56.355469 85.210938 55.671875 86.042969 54.992188 C 87.410156 53.890625 87.5625 53.816406 87.5625 54.5 C 87.5625 54.914062 87.371094 55.371094 87.144531 55.484375 C 86.917969 55.636719 86.839844 55.976562 86.953125 56.28125 C 87.105469 56.660156 86.804688 56.808594 85.855469 56.808594 C 85.136719 56.808594 84.527344 56.695312 84.527344 56.546875 Z M 84.527344 56.546875 "/>
<path style=" stroke:none;fill-rule:nonzero;fill:rgb(75.686275%,63.529412%,43.137255%);fill-opacity:1;" d="M 66.144531 54.042969 C 65.273438 53.398438 65.613281 52.261719 66.714844 52.261719 C 67.699219 52.261719 68.117188 53.285156 67.394531 54.003906 C 66.941406 54.460938 66.75 54.460938 66.144531 54.042969 Z M 66.144531 54.042969 "/>
<path style=" stroke:none;fill-rule:nonzero;fill:rgb(75.686275%,63.529412%,43.137255%);fill-opacity:1;" d="M 83.65625 53.664062 C 83.355469 52.867188 83.960938 52.1875 84.757812 52.335938 C 85.78125 52.527344 85.703125 53.929688 84.679688 54.082031 C 84.226562 54.15625 83.769531 53.96875 83.65625 53.664062 Z M 83.65625 53.664062 "/>
<path style=" stroke:none;fill-rule:nonzero;fill:rgb(75.686275%,63.529412%,43.137255%);fill-opacity:1;" d="M 112.578125 53.589844 C 112.578125 52.980469 113.714844 52.261719 114.625 52.261719 C 115.003906 52.261719 115.230469 52.601562 115.230469 53.210938 C 115.230469 54.042969 115.082031 54.15625 113.90625 54.15625 C 112.996094 54.15625 112.578125 53.96875 112.578125 53.589844 Z M 112.578125 53.589844 "/>
<path style=" stroke:none;fill-rule:nonzero;fill:rgb(75.686275%,63.529412%,43.137255%);fill-opacity:1;" d="M 131.53125 53.589844 C 131.53125 52.90625 133.238281 51.730469 133.804688 52.074219 C 133.996094 52.1875 134.183594 52.714844 134.183594 53.246094 C 134.183594 54.042969 133.996094 54.15625 132.859375 54.15625 C 131.949219 54.15625 131.53125 53.96875 131.53125 53.589844 Z M 131.53125 53.589844 "/>
<path style=" stroke:none;fill-rule:nonzero;fill:rgb(75.686275%,63.529412%,43.137255%);fill-opacity:1;" d="M 70.921875 53.019531 C 69.289062 52.035156 72.550781 49.609375 75.546875 49.609375 C 77.214844 49.609375 79.601562 50.441406 79.601562 51.011719 C 79.601562 51.691406 78.238281 52.148438 77.214844 51.808594 C 75.808594 51.3125 73.648438 51.65625 72.359375 52.601562 C 71.792969 53.019531 71.1875 53.210938 70.921875 53.019531 Z M 70.921875 53.019531 "/>
<path style=" stroke:none;fill-rule:nonzero;fill:rgb(75.686275%,63.529412%,43.137255%);fill-opacity:1;" d="M 107.953125 51.429688 C 107.195312 50.933594 108.710938 49.910156 109.507812 50.367188 C 109.886719 50.554688 110.378906 50.554688 110.683594 50.367188 C 111.367188 49.949219 111.820312 50.214844 111.820312 51.085938 C 111.820312 51.617188 111.480469 51.769531 110.113281 51.769531 C 109.203125 51.769531 108.21875 51.617188 107.953125 51.429688 Z M 107.953125 51.429688 "/>
<path style=" stroke:none;fill-rule:nonzero;fill:rgb(75.686275%,63.529412%,43.137255%);fill-opacity:1;" d="M 67.699219 50.746094 C 67.09375 50.554688 66.449219 50.480469 66.257812 50.59375 C 66.105469 50.707031 65.957031 50.519531 65.957031 50.214844 C 65.957031 49.835938 66.296875 49.609375 66.828125 49.609375 C 67.585938 49.609375 67.507812 49.457031 66.144531 48.207031 C 65.273438 47.410156 64.816406 46.765625 65.082031 46.691406 C 65.386719 46.574219 65.460938 46.121094 65.3125 45.4375 C 65.007812 43.734375 65.460938 42.480469 67.09375 40.851562 C 68.304688 39.640625 68.796875 39.375 70.050781 39.375 C 70.84375 39.375 72.058594 39.5625 72.738281 39.792969 C 73.800781 40.171875 74.066406 40.132812 74.824219 39.410156 C 75.886719 38.425781 76.113281 38.425781 76.949219 39.449219 C 77.554688 40.207031 77.742188 40.246094 78.617188 39.828125 C 79.828125 39.296875 81.496094 39.222656 81.496094 39.714844 C 81.496094 39.90625 81.003906 40.171875 80.359375 40.320312 C 79.03125 40.625 78.617188 41.117188 79.183594 41.800781 C 79.789062 42.519531 79.183594 42.863281 78.464844 42.21875 C 77.894531 41.6875 77.78125 41.722656 77.214844 42.332031 C 76.53125 43.050781 76.039062 45.816406 76.570312 45.816406 C 76.757812 45.816406 76.984375 45.667969 77.097656 45.476562 C 77.214844 45.289062 77.933594 44.792969 78.652344 44.339844 C 79.941406 43.582031 79.980469 43.582031 79.980469 44.300781 C 79.980469 44.71875 79.753906 45.058594 79.449219 45.058594 C 79.183594 45.058594 78.3125 45.742188 77.554688 46.574219 C 75.925781 48.394531 75.050781 48.472656 74.144531 46.917969 C 73.574219 45.96875 71.601562 44.679688 70.730469 44.679688 C 70.085938 44.679688 69.328125 47.21875 69.441406 48.925781 C 69.554688 51.011719 69.367188 51.238281 67.699219 50.746094 Z M 68.457031 47.636719 C 68.457031 47.144531 68.609375 46.3125 68.761719 45.742188 C 69.0625 44.71875 69.027344 44.679688 67.699219 44.679688 C 66.523438 44.679688 66.335938 44.792969 66.335938 45.589844 C 66.335938 46.425781 67.621094 48.472656 68.152344 48.472656 C 68.304688 48.472656 68.417969 48.09375 68.457031 47.636719 Z M 75.050781 44.492188 C 75.050781 43.65625 74.21875 42.027344 73.800781 42.027344 C 73.574219 42.027344 73.003906 42.40625 72.511719 42.863281 L 71.601562 43.695312 L 73.003906 44.566406 C 74.484375 45.4375 75.050781 45.402344 75.050781 44.492188 Z M 71.261719 42.558594 C 72.097656 41.800781 72.703125 41.042969 72.589844 40.890625 C 72.246094 40.320312 69.933594 40.207031 68.722656 40.699219 C 67.507812 41.195312 66.714844 42.253906 66.714844 43.316406 C 66.714844 43.769531 67.09375 43.921875 68.230469 43.921875 C 69.441406 43.921875 70.050781 43.65625 71.261719 42.558594 Z M 76.417969 41.722656 C 76.757812 41.195312 76.71875 40.890625 76.339844 40.320312 C 75.847656 39.675781 75.734375 39.640625 75.203125 40.207031 C 74.710938 40.699219 74.671875 40.929688 75.128906 41.609375 C 75.734375 42.597656 75.886719 42.597656 76.417969 41.722656 Z M 76.417969 41.722656 "/>
<path style=" stroke:none;fill-rule:nonzero;fill:rgb(75.686275%,63.529412%,43.137255%);fill-opacity:1;" d="M 71.261719 48.660156 C 70.617188 47.902344 71.074219 46.957031 72.019531 46.957031 C 72.4375 46.957031 72.890625 47.21875 73.003906 47.523438 C 73.234375 48.09375 72.589844 49.230469 72.019531 49.230469 C 71.867188 49.230469 71.527344 48.964844 71.261719 48.660156 Z M 71.261719 48.660156 "/>
<path style=" stroke:none;fill-rule:nonzero;fill:rgb(75.686275%,63.529412%,43.137255%);fill-opacity:1;" d="M 78.652344 48.621094 C 78.085938 48.054688 78.085938 47.902344 78.617188 47.410156 C 79.375 46.652344 80.433594 47.105469 80.285156 48.167969 C 80.132812 49.230469 79.488281 49.417969 78.652344 48.621094 Z M 78.652344 48.621094 "/>
<path style=" stroke:none;fill-rule:nonzero;fill:rgb(75.686275%,63.529412%,43.137255%);fill-opacity:1;" d="M 84.527344 47.371094 C 84.527344 46.613281 85.285156 45.058594 85.664062 45.058594 C 85.855469 45.058594 86.042969 45.402344 86.042969 45.816406 C 86.042969 46.273438 86.308594 46.574219 86.652344 46.574219 C 86.992188 46.574219 87.183594 46.804688 87.105469 47.070312 C 86.917969 47.597656 84.527344 47.941406 84.527344 47.371094 Z M 84.527344 47.371094 "/>
<path style=" stroke:none;fill-rule:nonzero;fill:rgb(75.686275%,63.529412%,43.137255%);fill-opacity:1;" d="M 62.390625 44.832031 C 62.125 44.113281 62.808594 42.671875 63.378906 42.863281 C 64.097656 43.125 64.589844 44.148438 64.324219 44.832031 C 64.023438 45.628906 62.695312 45.628906 62.390625 44.832031 Z M 62.390625 44.832031 "/>
<path style=" stroke:none;fill-rule:nonzero;fill:rgb(75.686275%,63.529412%,43.137255%);fill-opacity:1;" d="M 86.953125 44.871094 C 86.613281 44 87.066406 43.164062 87.902344 43.164062 C 88.773438 43.164062 89.230469 44.226562 88.660156 44.910156 C 88.089844 45.589844 87.21875 45.589844 86.953125 44.871094 Z M 86.953125 44.871094 "/>
<path style="fill-rule:nonzero;fill:rgb(75.686275%,63.529412%,43.137255%);fill-opacity:1;stroke-width:10;stroke-linecap:butt;stroke-linejoin:miter;stroke:rgb(75.686275%,63.529412%,43.137255%);stroke-opacity:1;stroke-miterlimit:4;" d="M 1830.015933 1319.983039 C 1830.015933 1305.967825 1879.996659 1295.97168 1891.023335 1306.998355 C 1898.030942 1314.005962 1892.981343 1315.96397 1875.97759 1312.975432 C 1861.034899 1309.986894 1850.008224 1312.047954 1850.008224 1318.952508 C 1850.008224 1325.032638 1845.989155 1329.979184 1840.012079 1329.979184 C 1834.962479 1329.979184 1830.015933 1325.960115 1830.015933 1319.983039 Z M 1830.015933 1319.983039 " transform="matrix(0.0379052,0,0,0.0379052,0,23.832918)"/>
<path style="fill-rule:nonzero;fill:rgb(75.686275%,63.529412%,43.137255%);fill-opacity:1;stroke-width:10;stroke-linecap:butt;stroke-linejoin:miter;stroke:rgb(75.686275%,63.529412%,43.137255%);stroke-opacity:1;stroke-miterlimit:4;" d="M 1733.970498 1244.960424 C 1723.974352 1228.987202 1719.027806 1206.006373 1722.016345 1180.037007 L 1726.035413 1139.949373 L 1686.97831 1139.949373 C 1575.990183 1139.949373 1506.017167 1048.026059 1544.971217 954.041684 C 1561.047492 916.015111 1560.016961 914.984581 1540.952148 900.969367 C 1514.982782 883.965615 1513.952251 857.996248 1538.994141 836.04595 C 1555.997893 819.969675 1557.028423 815.950606 1543.013209 768.958419 C 1528.997995 722.996762 1530.028526 717.019685 1547.959755 681.981651 C 1571.971114 634.989463 1628.959447 603.04302 1696.046978 597.993421 C 1743.039165 595.004883 1749.016242 597.993421 1773.955078 626.951326 C 1794.050421 650.962685 1798.996968 664.977899 1794.050421 684.042712 C 1790.95883 697.954873 1783.951223 707.02354 1779.004677 704.035002 C 1763.958933 694.966334 1692.027909 718.977693 1686.050833 735.981445 C 1673.993627 768.030942 1681.001234 785.034694 1726.035413 826.977282 L 1773.027601 869.950401 L 1726.035413 913.026573 C 1669.047081 967.026367 1662.966951 1004.949887 1709.959139 1022.984169 C 1726.962891 1028.961246 1737.989566 1038.957391 1736.031558 1045.037521 C 1732.01249 1055.961143 1726.035413 1055.961143 1699.035516 1045.037521 C 1686.050833 1039.987921 1681.001234 1045.964998 1678.012695 1075.025956 C 1672.963096 1122.018144 1686.050833 1126.96469 1739.020097 1099.964792 C 1762.000925 1089.04117 1780.035208 1082.033563 1780.035208 1085.022101 C 1780.035208 1096.048777 1746.955181 1154.995117 1736.959036 1160.972194 C 1715.008738 1176.017938 1742.008635 1187.044613 1784.981754 1180.037007 C 1827.954873 1173.956877 1828.985403 1173.956877 1813.012181 1190.033152 C 1800.027498 1201.987305 1793.019891 1204.048366 1787.042815 1196.010228 C 1781.993215 1189.002621 1776.016139 1190.960629 1769.008532 1201.987305 C 1763.958933 1211.98345 1760.042917 1223.010125 1760.042917 1225.998664 C 1760.970395 1230.017732 1756.023849 1237.025339 1747.985711 1241.044408 C 1737.989566 1247.948962 1739.020097 1250.010023 1753.03531 1250.010023 C 1762.000925 1250.010023 1770.039063 1254.956569 1770.039063 1260.006168 C 1770.039063 1278.04045 1750.97425 1270.002313 1733.970498 1244.960424 Z M 1649.982268 1062.041273 C 1649.982268 1019.995631 1645.035722 1008.968956 1615.047286 980.011051 C 1595.982473 961.976768 1578.051244 948.992085 1574.032175 951.980623 C 1571.043637 955.999692 1565.994038 977.022512 1563.0055 998.97281 C 1557.9559 1035.041375 1561.047492 1042.97646 1592.993935 1075.025956 C 1611.955695 1093.987716 1632.978516 1109.960938 1638.955592 1109.960938 C 1645.035722 1109.960938 1649.982268 1089.968647 1649.982268 1062.041273 Z M 1673.993627 928.999794 C 1689.039371 907.049496 1699.035516 886.026676 1696.046978 882.007607 C 1688.00884 875 1611.955695 897.980829 1604.020611 910.965512 C 1598.971012 919.003649 1635.039576 970.014905 1645.035722 970.014905 C 1645.963199 970.014905 1659.978413 951.980623 1673.993627 928.999794 Z M 1608.039679 876.958008 C 1615.974764 866.961863 1614.016756 860.984786 1598.043534 850.988641 C 1581.039782 839.961965 1574.959653 840.992496 1563.0055 853.049702 C 1554.039885 860.984786 1551.051347 873.041992 1554.039885 879.019069 C 1564.03603 893.96176 1594.951943 893.034282 1608.039679 876.958008 Z M 1709.959139 849.958111 C 1709.959139 845.011565 1706.043123 839.961965 1702.024054 839.961965 C 1696.974455 839.961965 1685.020302 823.988744 1673.993627 805.026984 C 1663.997481 785.962171 1652.970806 769.988949 1648.951737 769.988949 C 1645.963199 769.988949 1634.009046 779.985095 1621.95184 792.969778 C 1601.032072 815.023129 1601.032072 816.981137 1617.005294 832.026881 C 1648.02426 859.026778 1709.959139 870.980931 1709.959139 849.958111 Z M 1621.95184 758.034796 C 1644.005191 732.992907 1649.982268 717.019685 1649.982268 677.962582 C 1649.982268 651.993215 1645.963199 630.042917 1641.016653 630.042917 C 1635.967054 630.042917 1618.035824 641.99707 1601.032072 656.012284 C 1568.982576 683.012181 1553.009354 732.992907 1564.963507 768.958419 C 1574.032175 798.019377 1588.974866 795.030839 1621.95184 758.034796 Z M 1747.985711 681.981651 C 1766.019994 680.023643 1783.023746 673.016036 1787.042815 667.03896 C 1790.031353 660.95883 1787.970292 660.031353 1781.993215 664.050421 C 1774.985609 667.966437 1770.039063 667.03896 1770.039063 661.989361 C 1770.039063 653.023746 1706.9706 620.046772 1689.966848 620.046772 C 1683.989772 620.046772 1679.970703 637.978002 1679.970703 660.95883 C 1679.970703 695.996865 1682.031764 701.046464 1698.004986 694.966334 C 1706.9706 690.019788 1729.951429 684.970189 1747.985711 681.981651 Z M 1747.985711 681.981651 " transform="matrix(0.0379052,0,0,0.0379052,0,23.832918)"/>
<path style="fill-rule:nonzero;fill:rgb(75.686275%,63.529412%,43.137255%);fill-opacity:1;stroke-width:10;stroke-linecap:butt;stroke-linejoin:miter;stroke:rgb(75.686275%,63.529412%,43.137255%);stroke-opacity:1;stroke-miterlimit:4;" d="M 1824.966334 957.957699 C 1797.03896 897.980829 1794.050421 853.977179 1813.012181 806.984992 C 1831.046464 765.042403 1878.966129 707.951018 1891.023335 715.989155 C 1895.969881 718.977693 1898.030942 724.95477 1895.042403 730.004369 C 1891.950812 734.023437 1895.042403 740.000514 1901.01948 741.958522 C 1908.027087 744.019583 1902.05001 761.023335 1885.973736 784.004163 C 1857.015831 828.007812 1852.996762 849.958111 1875.050113 849.958111 C 1882.985197 849.958111 1889.992804 859.026778 1889.992804 869.022924 C 1889.992804 880.049599 1898.030942 890.973222 1908.027087 893.034282 C 1916.992701 896.022821 1909.985095 897.980829 1892.981343 899.011359 C 1854.95477 900.041889 1852.996762 907.049496 1877.008121 947.961554 C 1891.023335 973.003444 1891.950812 980.011051 1881.02719 994.026264 C 1860.004369 1018.965101 1851.038754 1012.988024 1824.966334 957.957699 Z M 1824.966334 957.957699 " transform="matrix(0.0379052,0,0,0.0379052,0,23.832918)"/>
<path style="fill-rule:nonzero;fill:rgb(75.686275%,63.529412%,43.137255%);fill-opacity:1;stroke-width:10;stroke-linecap:butt;stroke-linejoin:miter;stroke:rgb(75.686275%,63.529412%,43.137255%);stroke-opacity:1;stroke-miterlimit:4;" d="M 3259.979955 990.007196 C 3248.025802 982.999589 3248.025802 977.94999 3258.021947 967.953845 C 3266.987562 958.98823 3269.9761 958.98823 3269.9761 971.972913 C 3269.9761 981.041581 3275.953176 991.037726 3282.960783 992.995734 C 3289.040913 995.984272 3290.998921 998.97281 3285.021844 998.97281 C 3279.972245 998.97281 3268.018092 994.953742 3259.979955 990.007196 Z M 3259.979955 990.007196 " transform="matrix(0.0379052,0,0,0.0379052,0,23.832918)"/>
<path style="fill-rule:nonzero;fill:rgb(75.686275%,63.529412%,43.137255%);fill-opacity:1;stroke-width:10;stroke-linecap:butt;stroke-linejoin:miter;stroke:rgb(75.686275%,63.529412%,43.137255%);stroke-opacity:1;stroke-miterlimit:4;" d="M 3605.001542 950.022615 C 3586.967259 941.984478 3587.99779 940.953947 3613.039679 940.953947 C 3627.98237 940.02647 3640.039576 944.973016 3640.039576 950.022615 C 3640.039576 961.976768 3632.001439 961.976768 3605.001542 950.022615 Z M 3605.001542 950.022615 " transform="matrix(0.0379052,0,0,0.0379052,0,23.832918)"/>
<path style="fill-rule:nonzero;fill:rgb(75.686275%,63.529412%,43.137255%);fill-opacity:1;stroke-width:10;stroke-linecap:butt;stroke-linejoin:miter;stroke:rgb(75.686275%,63.529412%,43.137255%);stroke-opacity:1;stroke-miterlimit:4;" d="M 315.033152 930.030325 C 312.044613 924.980726 316.99116 906.018966 325.956774 887.984683 C 342.960526 856.03824 342.960526 856.03824 350.998664 877.988538 C 365.013877 913.95405 332.964381 958.98823 315.033152 930.030325 Z M 315.033152 930.030325 " transform="matrix(0.0379052,0,0,0.0379052,0,23.832918)"/>
<path style="fill-rule:nonzero;fill:rgb(75.686275%,63.529412%,43.137255%);fill-opacity:1;stroke-width:10;stroke-linecap:butt;stroke-linejoin:miter;stroke:rgb(75.686275%,63.529412%,43.137255%);stroke-opacity:1;stroke-miterlimit:4;" d="M 883.989001 923.950195 C 886.977539 914.984581 892.954616 896.950298 896.046207 883.965615 C 902.950761 856.03824 909.03089 853.977179 925.004112 876.958008 C 933.969727 889.015214 935.000257 900.041889 926.96212 917.045641 C 915.007967 943.015008 873.992856 950.022615 883.989001 923.950195 Z M 883.989001 923.950195 " transform="matrix(0.0379052,0,0,0.0379052,0,23.832918)"/>
<path style="fill-rule:nonzero;fill:rgb(75.686275%,63.529412%,43.137255%);fill-opacity:1;stroke-width:10;stroke-linecap:butt;stroke-linejoin:miter;stroke:rgb(75.686275%,63.529412%,43.137255%);stroke-opacity:1;stroke-miterlimit:4;" d="M 2802.012233 923.950195 C 2783.97795 911.996042 2779.958882 899.011359 2779.958882 853.977179 C 2779.958882 805.026984 2782.019942 799.049907 2806.031301 789.98124 C 2820.046515 784.004163 2833.031199 779.985095 2836.019737 779.985095 C 2837.977745 779.985095 2840.038806 808.015522 2840.038806 842.950504 C 2840.038806 879.019069 2844.985352 910.965512 2851.992958 917.973119 C 2870.027241 936.007401 2958.962017 934.049394 2965.969624 914.984581 C 2975.038292 893.034282 2989.980983 896.950298 2989.980983 920.03418 C 2989.980983 937.965409 2982.973376 940.02647 2907.023283 940.02647 C 2847.97389 940.02647 2817.985454 934.976871 2802.012233 923.950195 Z M 2802.012233 923.950195 " transform="matrix(0.0379052,0,0,0.0379052,0,23.832918)"/>
<path style="fill-rule:nonzero;fill:rgb(75.686275%,63.529412%,43.137255%);fill-opacity:1;stroke-width:10;stroke-linecap:butt;stroke-linejoin:miter;stroke:rgb(75.686275%,63.529412%,43.137255%);stroke-opacity:1;stroke-miterlimit:4;" d="M 3100.96911 923.022718 C 3080.976819 906.018966 3079.018812 896.950298 3082.00735 795.030839 L 3084.995888 684.970189 L 3113.026316 681.981651 L 3140.026213 678.993113 L 3140.026213 792.969778 C 3140.026213 920.961657 3141.984221 926.011256 3204.94963 933.018863 C 3235.041118 936.007401 3229.991519 937.037932 3184.029862 937.965409 C 3137.965152 940.02647 3117.045384 934.976871 3100.96911 923.022718 Z M 3100.96911 923.022718 " transform="matrix(0.0379052,0,0,0.0379052,0,23.832918)"/>
<path style="fill-rule:nonzero;fill:rgb(75.686275%,63.529412%,43.137255%);fill-opacity:1;stroke-width:10;stroke-linecap:butt;stroke-linejoin:miter;stroke:rgb(75.686275%,63.529412%,43.137255%);stroke-opacity:1;stroke-miterlimit:4;" d="M 3319.956826 924.980726 C 3319.956826 917.045641 3325.006425 910.038035 3329.952971 910.038035 C 3336.0331 910.038035 3339.949116 917.045641 3339.949116 924.980726 C 3339.949116 933.018863 3336.0331 940.02647 3329.952971 940.02647 C 3325.006425 940.02647 3319.956826 933.018863 3319.956826 924.980726 Z M 3319.956826 924.980726 " transform="matrix(0.0379052,0,0,0.0379052,0,23.832918)"/>
<path style="fill-rule:nonzero;fill:rgb(75.686275%,63.529412%,43.137255%);fill-opacity:1;stroke-width:10;stroke-linecap:butt;stroke-linejoin:miter;stroke:rgb(75.686275%,63.529412%,43.137255%);stroke-opacity:1;stroke-miterlimit:4;" d="M 530.001799 839.034488 C 530.001799 771.01948 532.990337 748.966129 542.986482 752.985197 C 548.963559 755.046258 555.043688 761.023335 555.043688 765.969881 C 557.001696 806.984992 572.974918 849.030633 588.020662 853.049702 C 599.974815 856.03824 598.016807 857.996248 581.013055 859.026778 C 559.990234 859.954256 558.032227 863.045847 564.009303 894.99229 C 569.98638 926.011256 568.028372 930.030325 549.994089 930.030325 C 531.032329 930.030325 530.001799 923.950195 530.001799 839.034488 Z M 530.001799 839.034488 " transform="matrix(0.0379052,0,0,0.0379052,0,23.832918)"/>
<path style="fill-rule:nonzero;fill:rgb(75.686275%,63.529412%,43.137255%);fill-opacity:1;stroke-width:10;stroke-linecap:butt;stroke-linejoin:miter;stroke:rgb(75.686275%,63.529412%,43.137255%);stroke-opacity:1;stroke-miterlimit:4;" d="M 971.996299 819.969675 C 956.023078 794.000308 956.950555 789.98124 974.984838 789.98124 C 983.950452 789.98124 990.030582 799.049907 990.030582 815.023129 C 990.030582 845.011565 987.969521 846.042095 971.996299 819.969675 Z M 971.996299 819.969675 " transform="matrix(0.0379052,0,0,0.0379052,0,23.832918)"/>
<path style="fill-rule:nonzero;fill:rgb(75.686275%,63.529412%,43.137255%);fill-opacity:1;stroke-width:10;stroke-linecap:butt;stroke-linejoin:miter;stroke:rgb(75.686275%,63.529412%,43.137255%);stroke-opacity:1;stroke-miterlimit:4;" d="M 3350.048314 785.034694 C 3350.048314 776.996556 3356.952868 769.988949 3364.991005 769.988949 C 3373.029143 769.988949 3380.03675 776.996556 3380.03675 785.034694 C 3380.03675 792.969778 3373.029143 799.977385 3364.991005 799.977385 C 3356.952868 799.977385 3350.048314 792.969778 3350.048314 785.034694 Z M 3350.048314 785.034694 " transform="matrix(0.0379052,0,0,0.0379052,0,23.832918)"/>
<path style="fill-rule:nonzero;fill:rgb(75.686275%,63.529412%,43.137255%);fill-opacity:1;stroke-width:10;stroke-linecap:butt;stroke-linejoin:miter;stroke:rgb(75.686275%,63.529412%,43.137255%);stroke-opacity:1;stroke-miterlimit:4;" d="M 3470.002056 785.962171 C 3470.002056 764.011873 3518.024774 734.023437 3531.009457 747.008121 C 3536.986534 752.985197 3539.975072 765.969881 3538.017064 775.966026 C 3533.997995 801.007915 3470.002056 809.046053 3470.002056 785.962171 Z M 3470.002056 785.962171 " transform="matrix(0.0379052,0,0,0.0379052,0,23.832918)"/>
<path style="fill-rule:nonzero;fill:rgb(75.686275%,63.529412%,43.137255%);fill-opacity:1;stroke-width:10;stroke-linecap:butt;stroke-linejoin:miter;stroke:rgb(75.686275%,63.529412%,43.137255%);stroke-opacity:1;stroke-miterlimit:4;" d="M 824.01213 775.038549 C 827.000668 765.969881 829.989206 755.973736 829.989206 754.015728 C 829.989206 751.954667 838.954821 749.996659 851.012027 749.996659 C 879.969932 749.996659 872.034848 784.004163 841.015882 788.023232 C 821.951069 791.01177 818.962531 788.023232 824.01213 775.038549 Z M 824.01213 775.038549 " transform="matrix(0.0379052,0,0,0.0379052,0,23.832918)"/>
<path style="fill-rule:nonzero;fill:rgb(75.686275%,63.529412%,43.137255%);fill-opacity:1;stroke-width:10;stroke-linecap:butt;stroke-linejoin:miter;stroke:rgb(75.686275%,63.529412%,43.137255%);stroke-opacity:1;stroke-miterlimit:4;" d="M 1069.999743 769.988949 C 1069.999743 754.015728 1077.00735 749.996659 1101.018709 749.996659 L 1132.965152 749.996659 L 1106.995785 769.988949 C 1092.980572 781.015625 1078.965358 789.98124 1075.976819 789.98124 C 1072.988281 789.98124 1069.999743 781.015625 1069.999743 769.988949 Z M 1069.999743 769.988949 " transform="matrix(0.0379052,0,0,0.0379052,0,23.832918)"/>
<path style="fill-rule:nonzero;fill:rgb(75.686275%,63.529412%,43.137255%);fill-opacity:1;stroke-width:10;stroke-linecap:butt;stroke-linejoin:miter;stroke:rgb(75.686275%,63.529412%,43.137255%);stroke-opacity:1;stroke-miterlimit:4;" d="M 720.03161 764.011873 C 720.03161 748.966129 746.000977 745.050113 754.039114 758.962274 C 757.027652 764.011873 751.050576 769.988949 740.0239 772.977488 C 727.039217 775.966026 720.03161 772.977488 720.03161 764.011873 Z M 720.03161 764.011873 " transform="matrix(0.0379052,0,0,0.0379052,0,23.832918)"/>
<path style="fill-rule:nonzero;fill:rgb(75.686275%,63.529412%,43.137255%);fill-opacity:1;stroke-width:10;stroke-linecap:butt;stroke-linejoin:miter;stroke:rgb(75.686275%,63.529412%,43.137255%);stroke-opacity:1;stroke-miterlimit:4;" d="M 3610.051141 769.988949 C 3610.051141 765.042403 3616.955695 759.992804 3624.993832 759.992804 C 3633.03197 759.992804 3640.039576 765.042403 3640.039576 769.988949 C 3640.039576 775.966026 3633.03197 779.985095 3624.993832 779.985095 C 3616.955695 779.985095 3610.051141 775.966026 3610.051141 769.988949 Z M 3610.051141 769.988949 " transform="matrix(0.0379052,0,0,0.0379052,0,23.832918)"/>
<path style="fill-rule:nonzero;fill:rgb(75.686275%,63.529412%,43.137255%);fill-opacity:1;stroke-width:10;stroke-linecap:butt;stroke-linejoin:miter;stroke:rgb(75.686275%,63.529412%,43.137255%);stroke-opacity:1;stroke-miterlimit:4;" d="M 3329.952971 761.950812 C 3329.952971 751.954667 3370.968082 738.042506 3379.006219 745.050113 C 3384.983296 751.954667 3379.006219 755.973736 3353.036852 764.011873 C 3339.949116 768.030942 3329.952971 767.000411 3329.952971 761.950812 Z M 3329.952971 761.950812 " transform="matrix(0.0379052,0,0,0.0379052,0,23.832918)"/>
<path style="fill-rule:nonzero;fill:rgb(75.686275%,63.529412%,43.137255%);fill-opacity:1;stroke-width:10;stroke-linecap:butt;stroke-linejoin:miter;stroke:rgb(75.686275%,63.529412%,43.137255%);stroke-opacity:1;stroke-miterlimit:4;" d="M 3606.95955 732.992907 C 3573.982576 715.989155 3575.013106 687.03125 3609.020611 681.981651 C 3622.005294 680.023643 3630.043431 681.981651 3626.024363 687.958727 C 3623.035824 693.008326 3627.98237 701.046464 3637.051038 704.035002 C 3651.993729 710.012079 3651.993729 711.970086 3640.039576 721.038754 C 3626.95184 728.973838 3626.95184 731.034899 3640.039576 740.000514 C 3663.020405 755.046258 3639.009046 749.996659 3606.95955 732.992907 Z M 3606.95955 732.992907 " transform="matrix(0.0379052,0,0,0.0379052,0,23.832918)"/>
<path style="fill-rule:nonzero;fill:rgb(75.686275%,63.529412%,43.137255%);fill-opacity:1;stroke-width:10;stroke-linecap:butt;stroke-linejoin:miter;stroke:rgb(75.686275%,63.529412%,43.137255%);stroke-opacity:1;stroke-miterlimit:4;" d="M 1735.001028 529.978413 C 1719.955284 484.016756 1793.019891 398.997995 1821.977796 427.9559 C 1831.046464 437.024568 1830.015933 440.013106 1817.958727 440.013106 C 1808.993113 440.013106 1787.042815 458.974866 1767.978002 481.955695 C 1750.046772 505.039576 1740.978104 521.012798 1747.985711 516.993729 C 1753.962788 512.047183 1760.042917 512.974661 1760.042917 518.951737 C 1760.042917 525.031867 1770.96654 529.978413 1784.981754 529.978413 C 1798.996968 529.978413 1810.023643 535.028012 1810.023643 539.974558 C 1810.023643 545.951634 1794.977899 549.970703 1776.016139 549.970703 C 1750.046772 549.970703 1740.050627 545.024157 1735.001028 529.978413 Z M 1735.001028 529.978413 " transform="matrix(0.0379052,0,0,0.0379052,0,23.832918)"/>
<path style="fill-rule:nonzero;fill:rgb(75.686275%,63.529412%,43.137255%);fill-opacity:1;stroke-width:10;stroke-linecap:butt;stroke-linejoin:miter;stroke:rgb(75.686275%,63.529412%,43.137255%);stroke-opacity:1;stroke-miterlimit:4;" d="M 2233.983861 1234.964278 C 2238.00293 1220.949065 2236.044922 1210.025442 2229.964792 1210.025442 C 2213.991571 1210.025442 2218.010639 1181.995014 2235.014391 1177.975946 C 2246.968544 1176.017938 2246.041067 1167.979801 2229.964792 1133.044819 C 2209.045025 1085.022101 2189.980212 1076.983964 2189.980212 1115.010537 C 2189.980212 1129.953228 2184.003135 1139.949373 2175.964998 1139.949373 C 2166.999383 1139.949373 2161.022307 1125.006682 2158.033769 1095.018246 C 2155.972708 1069.976357 2158.033769 1049.984067 2161.949784 1049.984067 C 2166.999383 1049.984067 2169.987921 1044.00699 2169.987921 1038.029914 C 2169.987921 1028.961246 2185.961143 1025.972708 2225.018246 1028.033769 C 2284.995117 1031.949784 2310.037007 1019.995631 2310.037007 988.049188 C 2310.037007 957.030222 2279.018041 911.996042 2247.999075 899.011359 C 2212.033563 883.965615 2211.003032 853.049702 2245.010537 843.981034 C 2272.010434 836.973427 2310.037007 784.004163 2310.037007 751.954667 C 2310.037007 725.9853 2282.006579 710.012079 2236.044922 710.012079 C 2213.991571 710.012079 2199.976357 704.962479 2199.976357 697.954873 C 2199.976357 690.019788 2195.029811 691.977796 2188.949681 701.973941 C 2184.003135 711.042609 2174.00699 717.019685 2166.999383 714.031147 C 2149.995631 707.951018 2149.995631 569.962993 2165.968853 569.962993 C 2179.984067 569.962993 2189.980212 593.046875 2189.980212 626.023849 C 2189.980212 661.989361 2205.025956 654.981754 2229.037315 607.989566 C 2249.957083 565.016447 2249.029605 549.970703 2223.987716 549.970703 C 2215.949579 549.970703 2209.972502 545.951634 2209.972502 539.974558 C 2209.972502 535.028012 2216.980109 529.978413 2225.018246 529.978413 C 2243.980006 529.978413 2243.980006 509.986123 2223.987716 481.955695 C 2209.972502 461.963405 2209.972502 460.005397 2229.037315 460.005397 C 2253.048674 460.005397 2273.968442 515.963199 2267.991365 566.046978 L 2263.972296 599.951429 L 2307.975946 599.951429 C 2418.036595 599.951429 2492.02868 703.004472 2445.96397 792.042301 C 2432.979287 815.950606 2434.009817 819.969675 2451.013569 836.04595 C 2475.024928 857.996248 2475.024928 882.007607 2449.983039 904.988435 C 2431.948756 920.961657 2431.948756 924.980726 2445.036493 950.950093 C 2489.967619 1036.999383 2415.975535 1139.949373 2309.006476 1139.949373 C 2265.002827 1139.949373 2263.044819 1140.979903 2267.991365 1164.991262 C 2274.998972 1204.975843 2260.983758 1260.006168 2242.949476 1260.006168 C 2232.025853 1260.006168 2229.037315 1254.029091 2233.983861 1234.964278 Z M 2313.025545 1106.972399 C 2323.02169 1082.033563 2313.953022 1045.037521 2300.040861 1048.953536 C 2292.002724 1051.014597 2267.991365 1055.033666 2246.968544 1056.991674 C 2215.022101 1062.041273 2212.033563 1065.029811 2222.029708 1078.014494 C 2233.983861 1092.029708 2284.995117 1119.029605 2300.968339 1119.957083 C 2304.987407 1119.957083 2310.037007 1113.980006 2313.025545 1106.972399 Z M 2418.964073 1052.972605 C 2431.948756 1024.0147 2432.979287 980.011051 2421.025134 961.049291 C 2414.017527 950.022615 2405.979389 951.980623 2381.040553 971.045436 C 2364.036801 982.999589 2347.960526 1001.033871 2346.002519 1008.968956 C 2340.025442 1031.022307 2340.025442 1092.029708 2346.002519 1102.025853 C 2354.040656 1115.010537 2407.00992 1079.045025 2418.964073 1052.972605 Z M 2390.006168 919.003649 C 2390.006168 907.049496 2334.048366 880.049599 2310.037007 880.049599 C 2286.025648 880.049599 2286.025648 880.049599 2319.002621 933.018863 L 2343.01398 971.045436 L 2365.994809 948.992085 C 2378.979492 937.037932 2390.006168 923.022718 2390.006168 919.003649 Z M 2431.021279 856.03824 C 2421.025134 843.981034 2414.017527 842.950504 2392.994706 853.049702 L 2367.952817 863.973324 L 2391.036698 883.038137 C 2411.028988 899.011359 2415.048057 899.011359 2428.032741 886.026676 C 2439.986894 873.96947 2441.017424 867.992393 2431.021279 856.03824 Z M 2371.044408 839.034488 C 2395.983244 826.049805 2394.025236 809.046053 2365.994809 788.023232 C 2341.98345 771.01948 2340.952919 771.01948 2319.002621 808.015522 C 2306.017938 828.007812 2293.960732 849.030633 2292.002724 853.049702 C 2286.953125 863.045847 2347.033049 853.049702 2371.044408 839.034488 Z M 2428.032741 751.02719 C 2432.979287 704.962479 2415.048057 667.03896 2380.010023 646.016139 C 2363.006271 637.050524 2350.021587 630.042917 2348.991057 632.000925 C 2348.991057 633.958933 2347.033049 654.981754 2346.002519 680.023643 C 2343.01398 718.977693 2347.033049 730.004369 2373.002416 758.034796 C 2409.998458 796.988847 2424.013672 795.030839 2428.032741 751.02719 Z M 2320.033152 660.031353 C 2320.033152 643.955078 2316.014083 629.012387 2310.037007 624.993318 C 2297.979801 616.955181 2238.00293 643.027601 2220.999178 663.019891 C 2209.045025 677.962582 2211.003032 680.023643 2236.044922 680.95112 C 2252.018144 680.95112 2273.968442 684.970189 2284.995117 688.989258 C 2311.995014 700.015933 2320.033152 694.038857 2320.033152 660.031353 Z M 2320.033152 660.031353 " transform="matrix(0.0379052,0,0,0.0379052,0,23.832918)"/>
<path style="fill-rule:nonzero;fill:rgb(75.686275%,63.529412%,43.137255%);fill-opacity:1;stroke-width:10;stroke-linecap:butt;stroke-linejoin:miter;stroke:rgb(75.686275%,63.529412%,43.137255%);stroke-opacity:1;stroke-miterlimit:4;" d="M 2107.94999 992.995734 C 2094.037829 977.022512 2093.007299 973.003444 2105.991982 954.969161 C 2114.030119 944.045539 2124.953742 919.003649 2131.033871 897.980829 C 2144.018555 848.000103 2115.988127 781.015625 2070.953947 754.015728 C 2033.957905 731.962377 2033.030428 724.95477 2060.957802 708.981548 C 2077.961554 700.015933 2087.030222 701.973941 2107.94999 717.019685 C 2193.99928 781.015625 2212.033563 910.038035 2147.007093 985.988127 C 2124.953742 1011.030016 2124.026264 1011.030016 2107.94999 992.995734 Z M 2107.94999 992.995734 " transform="matrix(0.0379052,0,0,0.0379052,0,23.832918)"/>
<path style="fill-rule:nonzero;fill:rgb(75.686275%,63.529412%,43.137255%);fill-opacity:1;stroke-width:10;stroke-linecap:butt;stroke-linejoin:miter;stroke:rgb(75.686275%,63.529412%,43.137255%);stroke-opacity:1;stroke-miterlimit:4;" d="M 437.975432 914.984581 C 431.998355 900.969367 420.97168 890.045744 413.036595 890.045744 C 406.028988 890.045744 399.948859 883.965615 399.948859 876.958008 C 399.948859 860.984786 420.044202 839.961965 434.986894 839.961965 C 449.002107 839.961965 481.979081 919.003649 474.043997 930.957802 C 464.047852 947.034077 450.032638 940.02647 437.975432 914.984581 Z M 437.975432 914.984581 " transform="matrix(0.0379052,0,0,0.0379052,0,23.832918)"/>
<path style="fill-rule:nonzero;fill:rgb(75.686275%,63.529412%,43.137255%);fill-opacity:1;stroke-width:10;stroke-linecap:butt;stroke-linejoin:miter;stroke:rgb(75.686275%,63.529412%,43.137255%);stroke-opacity:1;stroke-miterlimit:4;" d="M 1008.992342 917.973119 C 1001.984735 904.988435 993.01912 892.003752 987.042044 889.015214 C 973.954307 880.049599 987.969521 839.961965 1004.973273 839.961965 C 1017.030479 839.961965 1050.007453 906.018966 1050.007453 930.030325 C 1050.007453 948.992085 1021.049548 940.02647 1008.992342 917.973119 Z M 1008.992342 917.973119 " transform="matrix(0.0379052,0,0,0.0379052,0,23.832918)"/>
<path style="fill-rule:nonzero;fill:rgb(75.686275%,63.529412%,43.137255%);fill-opacity:1;stroke-width:10;stroke-linecap:butt;stroke-linejoin:miter;stroke:rgb(75.686275%,63.529412%,43.137255%);stroke-opacity:1;stroke-miterlimit:4;" d="M 2968.030685 863.045847 C 2972.049753 768.030942 2975.038292 758.962274 2995.958059 767.000411 C 3008.015265 771.01948 3011.003803 769.988949 3005.954204 761.950812 C 3001.007658 754.015728 3005.954204 749.996659 3019.041941 749.996659 C 3038.003701 749.996659 3039.961708 755.973736 3039.961708 825.019274 C 3039.961708 886.954153 3036.045693 903.957905 3019.969418 920.03418 C 3009.045796 930.957802 2992.042044 940.02647 2982.045898 940.02647 C 2967.000154 940.02647 2965.042146 930.957802 2968.030685 863.045847 Z M 2968.030685 863.045847 " transform="matrix(0.0379052,0,0,0.0379052,0,23.832918)"/>
<path style="fill-rule:nonzero;fill:rgb(75.686275%,63.529412%,43.137255%);fill-opacity:1;stroke-width:10;stroke-linecap:butt;stroke-linejoin:miter;stroke:rgb(75.686275%,63.529412%,43.137255%);stroke-opacity:1;stroke-miterlimit:4;" d="M 3451.967773 933.018863 C 3465.982987 928.999794 3470.002056 913.95405 3471.960064 846.969572 C 3474.021125 785.962171 3478.040193 765.969881 3488.036338 768.030942 C 3495.043945 768.958419 3509.986637 765.969881 3519.982782 759.992804 C 3539.047595 749.996659 3539.975072 752.985197 3539.975072 823.988744 C 3539.975072 887.984683 3536.986534 901.999897 3518.024774 920.03418 C 3505.04009 931.988333 3484.01727 940.02647 3465.982987 938.99594 C 3448.979235 937.965409 3443.002159 936.007401 3451.967773 933.018863 Z M 3451.967773 933.018863 " transform="matrix(0.0379052,0,0,0.0379052,0,23.832918)"/>
<path style="fill-rule:nonzero;fill:rgb(75.686275%,63.529412%,43.137255%);fill-opacity:1;stroke-width:10;stroke-linecap:butt;stroke-linejoin:miter;stroke:rgb(75.686275%,63.529412%,43.137255%);stroke-opacity:1;stroke-miterlimit:4;" d="M 609.97096 920.961657 C 609.97096 914.984581 615.020559 907.976974 619.967105 904.988435 C 633.982319 896.022821 632.024311 863.045847 618.009097 856.965718 C 608.012952 853.977179 608.012952 848.000103 618.009097 830.996351 C 633.982319 802.965923 632.951789 789.98124 615.020559 789.98124 C 606.982422 789.98124 599.974815 782.973633 599.974815 775.038549 C 599.974815 755.973736 633.982319 755.973736 649.955541 775.038549 C 656.963148 784.004163 659.951686 802.038446 656.963148 819.969675 C 653.047132 836.04595 655.00514 852.019171 659.951686 855.00771 C 673.9669 863.973324 672.008892 903.957905 657.993678 917.973119 C 643.978464 931.988333 609.97096 934.049394 609.97096 920.961657 Z M 609.97096 920.961657 " transform="matrix(0.0379052,0,0,0.0379052,0,23.832918)"/>
<path style="fill-rule:nonzero;fill:rgb(75.686275%,63.529412%,43.137255%);fill-opacity:1;stroke-width:10;stroke-linecap:butt;stroke-linejoin:miter;stroke:rgb(75.686275%,63.529412%,43.137255%);stroke-opacity:1;stroke-miterlimit:4;" d="M 2070.02647 875 C 2070.02647 855.00771 2074.045539 849.030633 2087.957699 852.019171 C 2097.026367 853.977179 2104.961451 863.973324 2104.961451 875 C 2104.961451 886.026676 2097.026367 896.022821 2087.957699 897.980829 C 2074.045539 900.969367 2070.02647 894.99229 2070.02647 875 Z M 2070.02647 875 " transform="matrix(0.0379052,0,0,0.0379052,0,23.832918)"/>
<path style="fill-rule:nonzero;fill:rgb(75.686275%,63.529412%,43.137255%);fill-opacity:1;stroke-width:10;stroke-linecap:butt;stroke-linejoin:miter;stroke:rgb(75.686275%,63.529412%,43.137255%);stroke-opacity:1;stroke-miterlimit:4;" d="M 815.046515 811.00406 C 811.954924 805.954461 815.046515 789.98124 821.023592 776.996556 C 828.958676 759.992804 838.027344 754.015728 851.012027 757.004266 C 873.992856 762.981343 873.992856 764.011873 854.000565 795.030839 C 836.996813 821.000206 825.04266 826.049805 815.046515 811.00406 Z M 815.046515 811.00406 " transform="matrix(0.0379052,0,0,0.0379052,0,23.832918)"/>
<path style="fill-rule:nonzero;fill:rgb(75.686275%,63.529412%,43.137255%);fill-opacity:1;stroke-width:10;stroke-linecap:butt;stroke-linejoin:miter;stroke:rgb(75.686275%,63.529412%,43.137255%);stroke-opacity:1;stroke-miterlimit:4;" d="M 1139.972759 785.962171 C 1139.972759 768.958419 1185.006939 745.97759 1200.98016 755.973736 C 1216.953382 765.969881 1210.048828 789.98124 1190.984015 789.98124 C 1179.95734 789.98124 1165.014648 792.969778 1156.049034 795.958316 C 1145.022358 799.977385 1139.972759 796.988847 1139.972759 785.962171 Z M 1139.972759 785.962171 " transform="matrix(0.0379052,0,0,0.0379052,0,23.832918)"/>
<path style="fill-rule:nonzero;fill:rgb(75.686275%,63.529412%,43.137255%);fill-opacity:1;stroke-width:10;stroke-linecap:butt;stroke-linejoin:miter;stroke:rgb(75.686275%,63.529412%,43.137255%);stroke-opacity:1;stroke-miterlimit:4;" d="M 2087.030222 1311.017424 C 2084.041684 1297.00221 2087.030222 1294.013672 2101.045436 1297.00221 C 2122.995734 1302.979287 2127.014803 1329.979184 2105.991982 1329.979184 C 2098.984375 1329.979184 2090.01876 1322.0441 2087.030222 1311.017424 Z M 2087.030222 1311.017424 " transform="matrix(0.0379052,0,0,0.0379052,0,23.832918)"/>
<path style="fill-rule:nonzero;fill:rgb(75.686275%,63.529412%,43.137255%);fill-opacity:1;stroke-width:10;stroke-linecap:butt;stroke-linejoin:miter;stroke:rgb(75.686275%,63.529412%,43.137255%);stroke-opacity:1;stroke-miterlimit:4;" d="M 2130.003341 1319.983039 C 2130.003341 1315.036493 2138.968956 1309.986894 2149.995631 1309.986894 C 2175.037521 1309.986894 2226.048777 1262.994706 2235.014391 1231.97574 C 2242.021998 1208.994912 2239.960938 1207.964381 2192.96875 1210.952919 C 2155.972708 1213.01398 2138.041478 1220.021587 2115.988127 1241.971885 C 2084.969161 1271.032843 2057.969264 1270.002313 2084.041684 1241.044408 C 2105.991982 1217.033049 2104.961451 1189.002621 2083.011153 1196.010228 C 2067.965409 1200.956774 2067.037932 1200.029297 2080.022615 1190.960629 C 2098.984375 1177.048468 2132.991879 1177.048468 2124.953742 1190.033152 C 2121.965204 1196.010228 2122.995734 1200.029297 2128.045333 1200.029297 C 2132.991879 1200.029297 2139.999486 1190.033152 2142.988024 1177.975946 C 2148.037623 1162.002724 2151.953639 1159.014186 2161.949784 1167.979801 C 2168.957391 1173.956877 2192.96875 1180.037007 2215.022101 1181.995014 C 2252.018144 1184.983553 2255.006682 1187.972091 2257.99522 1217.033049 C 2262.014289 1254.956569 2238.00293 1295.97168 2199.04888 1315.96397 C 2166.999383 1332.040245 2130.003341 1335.028783 2130.003341 1319.983039 Z M 2130.003341 1319.983039 " transform="matrix(0.0379052,0,0,0.0379052,0,23.832918)"/>
<path style="fill-rule:nonzero;fill:rgb(75.686275%,63.529412%,43.137255%);fill-opacity:1;stroke-width:10;stroke-linecap:butt;stroke-linejoin:miter;stroke:rgb(75.686275%,63.529412%,43.137255%);stroke-opacity:1;stroke-miterlimit:4;" d="M 1678.012695 1193.02169 C 1668.01655 1190.960629 1659.978413 1183.953022 1659.978413 1179.006476 C 1659.978413 1164.991262 1675.951634 1167.979801 1689.966848 1184.983553 C 1696.974455 1193.02169 1700.993524 1198.998766 1699.035516 1198.998766 C 1696.974455 1197.968236 1686.97831 1196.010228 1678.012695 1193.02169 Z M 1678.012695 1193.02169 " transform="matrix(0.0379052,0,0,0.0379052,0,23.832918)"/>
<path style="fill-rule:nonzero;fill:rgb(75.686275%,63.529412%,43.137255%);fill-opacity:1;stroke-width:10;stroke-linecap:butt;stroke-linejoin:miter;stroke:rgb(75.686275%,63.529412%,43.137255%);stroke-opacity:1;stroke-miterlimit:4;" d="M 2240.991468 1147.98751 C 2239.960938 1132.014289 2235.014391 1119.957083 2228.006785 1119.957083 C 2219.968647 1119.957083 2219.04117 1116.968544 2226.048777 1109.960938 C 2236.972399 1099.037315 2280.048571 1108.00293 2280.048571 1120.987613 C 2280.048571 1126.037212 2276.029502 1129.953228 2272.010434 1129.953228 C 2266.960835 1129.953228 2257.99522 1139.949373 2252.018144 1153.037109 C 2242.021998 1174.987407 2240.991468 1174.987407 2240.991468 1147.98751 Z M 2240.991468 1147.98751 " transform="matrix(0.0379052,0,0,0.0379052,0,23.832918)"/>
<path style="fill-rule:nonzero;fill:rgb(75.686275%,63.529412%,43.137255%);fill-opacity:1;stroke-width:10;stroke-linecap:butt;stroke-linejoin:miter;stroke:rgb(75.686275%,63.529412%,43.137255%);stroke-opacity:1;stroke-miterlimit:4;" d="M 2161.022307 1120.987613 C 2168.029914 1099.964792 2168.029914 1085.022101 2161.022307 1071.006887 C 2142.988024 1038.957391 2157.003238 1019.995631 2192.96875 1027.003238 C 2229.964792 1034.010845 2240.991468 1039.987921 2215.949579 1039.987921 C 2202.037418 1039.987921 2199.04888 1045.037521 2203.995426 1065.029811 C 2208.014494 1079.045025 2205.953433 1089.968647 2199.976357 1089.968647 C 2195.029811 1089.968647 2189.980212 1103.983861 2189.980212 1119.957083 C 2189.980212 1143.040964 2185.033666 1150.048571 2171.018452 1150.048571 C 2152.984169 1150.048571 2151.953639 1146.95698 2161.022307 1120.987613 Z M 2161.022307 1120.987613 " transform="matrix(0.0379052,0,0,0.0379052,0,23.832918)"/>
<path style="fill-rule:nonzero;fill:rgb(75.686275%,63.529412%,43.137255%);fill-opacity:1;stroke-width:10;stroke-linecap:butt;stroke-linejoin:miter;stroke:rgb(75.686275%,63.529412%,43.137255%);stroke-opacity:1;stroke-miterlimit:4;" d="M 2103.003444 1115.010537 C 2085.999692 1096.048777 2087.030222 1089.968647 2104.961451 1089.968647 C 2112.999589 1089.968647 2120.007196 1099.037315 2120.007196 1109.960938 C 2120.007196 1133.044819 2118.976665 1133.972296 2103.003444 1115.010537 Z M 2103.003444 1115.010537 " transform="matrix(0.0379052,0,0,0.0379052,0,23.832918)"/>
<path style="fill-rule:nonzero;fill:rgb(75.686275%,63.529412%,43.137255%);fill-opacity:1;stroke-width:10;stroke-linecap:butt;stroke-linejoin:miter;stroke:rgb(75.686275%,63.529412%,43.137255%);stroke-opacity:1;stroke-miterlimit:4;" d="M 3322.017887 991.965204 C 3312.021741 984.957597 3313.979749 980.011051 3326.964433 967.953845 C 3343.040707 954.041684 3347.987253 953.011153 3363.960475 965.995837 C 3374.98715 973.003444 3381.994757 981.969058 3379.006219 984.030119 C 3367.979544 994.026264 3333.972039 998.97281 3322.017887 991.965204 Z M 3322.017887 991.965204 " transform="matrix(0.0379052,0,0,0.0379052,0,23.832918)"/>
<path style="fill-rule:nonzero;fill:rgb(75.686275%,63.529412%,43.137255%);fill-opacity:1;stroke-width:10;stroke-linecap:butt;stroke-linejoin:miter;stroke:rgb(75.686275%,63.529412%,43.137255%);stroke-opacity:1;stroke-miterlimit:4;" d="M 2240.991468 973.003444 C 2232.025853 963.007299 2230.995323 954.969161 2239.03346 947.034077 C 2246.041067 940.02647 2250.987613 940.953947 2256.037212 953.011153 C 2265.002827 977.94999 2256.96469 990.007196 2240.991468 973.003444 Z M 2240.991468 973.003444 " transform="matrix(0.0379052,0,0,0.0379052,0,23.832918)"/>
<path style="fill-rule:nonzero;fill:rgb(75.686275%,63.529412%,43.137255%);fill-opacity:1;stroke-width:10;stroke-linecap:butt;stroke-linejoin:miter;stroke:rgb(75.686275%,63.529412%,43.137255%);stroke-opacity:1;stroke-miterlimit:4;" d="M 3319.956826 924.980726 C 3319.956826 917.045641 3326.964433 910.038035 3335.00257 910.038035 C 3343.968185 910.038035 3350.048314 900.969367 3350.048314 884.996145 C 3350.048314 869.022924 3356.025391 859.954256 3364.991005 859.954256 C 3374.98715 859.954256 3380.03675 869.950401 3380.03675 893.96176 C 3380.03675 921.992187 3383.952765 928.999794 3403.017578 933.018863 C 3414.971731 934.976871 3400.956517 937.965409 3373.029143 938.99594 C 3332.014032 940.02647 3319.956826 937.037932 3319.956826 924.980726 Z M 3319.956826 924.980726 " transform="matrix(0.0379052,0,0,0.0379052,0,23.832918)"/>
<path style="fill-rule:nonzero;fill:rgb(75.686275%,63.529412%,43.137255%);fill-opacity:1;stroke-width:10;stroke-linecap:butt;stroke-linejoin:miter;stroke:rgb(75.686275%,63.529412%,43.137255%);stroke-opacity:1;stroke-miterlimit:4;" d="M 612.032021 917.973119 C 619.039628 899.011359 649.955541 896.022821 649.955541 913.95405 C 649.955541 923.950195 640.989926 930.030325 629.035773 930.030325 C 616.978567 930.030325 609.97096 924.980726 612.032021 917.973119 Z M 612.032021 917.973119 " transform="matrix(0.0379052,0,0,0.0379052,0,23.832918)"/>
<path style="fill-rule:nonzero;fill:rgb(75.686275%,63.529412%,43.137255%);fill-opacity:1;stroke-width:10;stroke-linecap:butt;stroke-linejoin:miter;stroke:rgb(75.686275%,63.529412%,43.137255%);stroke-opacity:1;stroke-miterlimit:4;" d="M 3610.051141 839.961965 C 3610.051141 775.966026 3613.039679 759.992804 3624.993832 759.992804 C 3637.051038 759.992804 3640.039576 775.966026 3640.039576 839.961965 C 3640.039576 903.957905 3637.051038 920.03418 3624.993832 920.03418 C 3613.039679 920.03418 3610.051141 903.957905 3610.051141 839.961965 Z M 3610.051141 839.961965 " transform="matrix(0.0379052,0,0,0.0379052,0,23.832918)"/>
<path style="fill-rule:nonzero;fill:rgb(75.686275%,63.529412%,43.137255%);fill-opacity:1;stroke-width:10;stroke-linecap:butt;stroke-linejoin:miter;stroke:rgb(75.686275%,63.529412%,43.137255%);stroke-opacity:1;stroke-miterlimit:4;" d="M 2057.041787 893.034282 C 2053.022718 890.045744 2050.03418 877.988538 2050.03418 867.992393 C 2050.03418 855.00771 2057.041787 849.958111 2074.973016 849.958111 C 2094.965306 849.958111 2100.014905 855.00771 2100.014905 875 C 2100.014905 893.034282 2094.965306 900.041889 2081.980623 900.041889 C 2071.984478 900.041889 2060.030325 896.950298 2057.041787 893.034282 Z M 2057.041787 893.034282 " transform="matrix(0.0379052,0,0,0.0379052,0,23.832918)"/>
<path style="fill-rule:nonzero;fill:rgb(75.686275%,63.529412%,43.137255%);fill-opacity:1;stroke-width:10;stroke-linecap:butt;stroke-linejoin:miter;stroke:rgb(75.686275%,63.529412%,43.137255%);stroke-opacity:1;stroke-miterlimit:4;" d="M 396.960321 876.03053 C 393.971782 867.992393 397.990851 859.026778 406.028988 856.03824 C 417.983141 850.988641 419.013672 846.042095 409.017527 829.038343 C 399.948859 812.034591 400.979389 805.954461 410.975535 799.049907 C 420.97168 792.969778 426.021279 795.958316 429.009817 808.015522 C 430.967825 816.981137 439.005962 833.984889 446.013569 845.011565 C 464.047852 869.950401 464.047852 880.977076 444.983039 873.96947 C 437.047954 869.950401 430.040347 873.041992 430.040347 879.019069 C 430.040347 894.99229 403.04045 893.034282 396.960321 876.03053 Z M 396.960321 876.03053 " transform="matrix(0.0379052,0,0,0.0379052,0,23.832918)"/>
<path style="fill-rule:nonzero;fill:rgb(75.686275%,63.529412%,43.137255%);fill-opacity:1;stroke-width:10;stroke-linecap:butt;stroke-linejoin:miter;stroke:rgb(75.686275%,63.529412%,43.137255%);stroke-opacity:1;stroke-miterlimit:4;" d="M 983.950452 866.961863 C 987.042044 853.049702 983.022975 833.984889 973.954307 821.000206 C 964.988692 809.046053 960.969624 795.958316 963.958162 792.042301 C 976.015368 781.015625 1004.045796 805.026984 1017.030479 838.003958 C 1027.954102 866.034385 1027.954102 869.950401 1014.969418 869.950401 C 1007.034334 869.950401 1000.026727 875 1000.026727 880.049599 C 1000.026727 886.026676 994.977128 890.045744 989.000051 890.045744 C 981.992444 890.045744 980.034437 880.977076 983.950452 866.961863 Z M 983.950452 866.961863 " transform="matrix(0.0379052,0,0,0.0379052,0,23.832918)"/>
<path style="fill-rule:nonzero;fill:rgb(75.686275%,63.529412%,43.137255%);fill-opacity:1;stroke-width:10;stroke-linecap:butt;stroke-linejoin:miter;stroke:rgb(75.686275%,63.529412%,43.137255%);stroke-opacity:1;stroke-miterlimit:4;" d="M 609.97096 849.030633 C 609.97096 825.019274 638.001388 803.996454 652.016602 818.011667 C 659.951686 826.049805 657.993678 830.996351 643.978464 836.04595 C 633.982319 839.961965 622.028166 848.000103 618.009097 853.977179 C 612.959498 860.984786 609.97096 859.026778 609.97096 849.030633 Z M 609.97096 849.030633 " transform="matrix(0.0379052,0,0,0.0379052,0,23.832918)"/>
<path style="fill-rule:nonzero;fill:rgb(75.686275%,63.529412%,43.137255%);fill-opacity:1;stroke-width:10;stroke-linecap:butt;stroke-linejoin:miter;stroke:rgb(75.686275%,63.529412%,43.137255%);stroke-opacity:1;stroke-miterlimit:4;" d="M 811.954924 792.042301 C 828.031199 764.011873 838.954821 754.015728 852.042558 758.034796 C 862.038703 759.992804 869.973787 767.000411 869.973787 772.05001 C 869.973787 776.996556 859.977642 778.027087 848.023489 775.038549 C 829.989206 769.988949 828.031199 771.01948 839.985352 778.954564 C 859.977642 792.969778 842.046412 823.988744 811.954924 828.007812 L 791.035156 830.996351 Z M 811.954924 792.042301 " transform="matrix(0.0379052,0,0,0.0379052,0,23.832918)"/>
<path style="fill-rule:nonzero;fill:rgb(75.686275%,63.529412%,43.137255%);fill-opacity:1;stroke-width:10;stroke-linecap:butt;stroke-linejoin:miter;stroke:rgb(75.686275%,63.529412%,43.137255%);stroke-opacity:1;stroke-miterlimit:4;" d="M 3350.048314 799.977385 C 3350.048314 779.985095 3354.99486 769.988949 3364.991005 769.988949 C 3374.98715 769.988949 3380.03675 779.985095 3380.03675 799.977385 C 3380.03675 819.969675 3374.98715 829.96582 3364.991005 829.96582 C 3354.99486 829.96582 3350.048314 819.969675 3350.048314 799.977385 Z M 3350.048314 799.977385 " transform="matrix(0.0379052,0,0,0.0379052,0,23.832918)"/>
<path style="fill-rule:nonzero;fill:rgb(75.686275%,63.529412%,43.137255%);fill-opacity:1;stroke-width:10;stroke-linecap:butt;stroke-linejoin:miter;stroke:rgb(75.686275%,63.529412%,43.137255%);stroke-opacity:1;stroke-miterlimit:4;" d="M 1142.03382 782.973633 C 1143.991828 774.008018 1149.968904 765.042403 1156.976511 762.981343 C 1163.984118 759.992804 1166.045179 765.969881 1162.953588 778.954564 C 1156.976511 803.996454 1136.984221 806.984992 1142.03382 782.973633 Z M 1142.03382 782.973633 " transform="matrix(0.0379052,0,0,0.0379052,0,23.832918)"/>
<path style="fill-rule:nonzero;fill:rgb(75.686275%,63.529412%,43.137255%);fill-opacity:1;stroke-width:10;stroke-linecap:butt;stroke-linejoin:miter;stroke:rgb(75.686275%,63.529412%,43.137255%);stroke-opacity:1;stroke-miterlimit:4;" d="M 2245.010537 791.01177 C 2249.029605 784.004163 2246.968544 775.038549 2239.960938 769.988949 C 2230.995323 765.042403 2230.995323 761.023335 2239.03346 755.973736 C 2255.006682 745.97759 2265.002827 778.954564 2249.957083 792.969778 C 2239.960938 802.038446 2239.03346 802.038446 2245.010537 791.01177 Z M 2245.010537 791.01177 " transform="matrix(0.0379052,0,0,0.0379052,0,23.832918)"/>
<path style="fill-rule:nonzero;fill:rgb(75.686275%,63.529412%,43.137255%);fill-opacity:1;stroke-width:10;stroke-linecap:butt;stroke-linejoin:miter;stroke:rgb(75.686275%,63.529412%,43.137255%);stroke-opacity:1;stroke-miterlimit:4;" d="M 585.959601 775.038549 C 592.967208 758.962274 635.01285 754.015728 643.978464 768.958419 C 650.986071 778.954564 628.005243 789.98124 599.047338 789.98124 C 586.990132 789.98124 582.971063 785.034694 585.959601 775.038549 Z M 585.959601 775.038549 " transform="matrix(0.0379052,0,0,0.0379052,0,23.832918)"/>
<path style="fill-rule:nonzero;fill:rgb(75.686275%,63.529412%,43.137255%);fill-opacity:1;stroke-width:10;stroke-linecap:butt;stroke-linejoin:miter;stroke:rgb(75.686275%,63.529412%,43.137255%);stroke-opacity:1;stroke-miterlimit:4;" d="M 1773.027601 775.038549 C 1764.989463 765.969881 1763.958933 758.962274 1770.039063 755.046258 C 1776.016139 751.954667 1783.023746 755.973736 1786.012284 765.042403 C 1794.977899 785.962171 1787.970292 791.01177 1773.027601 775.038549 Z M 1773.027601 775.038549 " transform="matrix(0.0379052,0,0,0.0379052,0,23.832918)"/>
<path style="fill-rule:nonzero;fill:rgb(75.686275%,63.529412%,43.137255%);fill-opacity:1;stroke-width:10;stroke-linecap:butt;stroke-linejoin:miter;stroke:rgb(75.686275%,63.529412%,43.137255%);stroke-opacity:1;stroke-miterlimit:4;" d="M 2050.961657 741.031044 C 2043.026573 735.981445 2040.038035 724.95477 2043.026573 715.989155 C 2050.03418 697.954873 2077.034077 694.966334 2100.014905 710.012079 C 2112.999589 718.977693 2111.969058 721.966231 2095.995837 734.950915 C 2073.015008 751.954667 2070.02647 752.985197 2050.961657 741.031044 Z M 2050.961657 741.031044 " transform="matrix(0.0379052,0,0,0.0379052,0,23.832918)"/>
<path style="fill-rule:nonzero;fill:rgb(75.686275%,63.529412%,43.137255%);fill-opacity:1;stroke-width:10;stroke-linecap:butt;stroke-linejoin:miter;stroke:rgb(75.686275%,63.529412%,43.137255%);stroke-opacity:1;stroke-miterlimit:4;" d="M 2905.992753 731.034899 C 2888.989001 724.027292 2888.989001 722.996762 2913.00036 707.02354 C 2934.023181 693.008326 2940.000257 693.008326 2955.973479 704.962479 C 2972.977231 718.050216 2972.977231 721.038754 2959.992547 730.004369 C 2942.988795 741.031044 2931.96212 741.958522 2905.992753 731.034899 Z M 2905.992753 731.034899 " transform="matrix(0.0379052,0,0,0.0379052,0,23.832918)"/>
<path style="fill-rule:nonzero;fill:rgb(75.686275%,63.529412%,43.137255%);fill-opacity:1;stroke-width:10;stroke-linecap:butt;stroke-linejoin:miter;stroke:rgb(75.686275%,63.529412%,43.137255%);stroke-opacity:1;stroke-miterlimit:4;" d="M 2164.010845 713.000617 C 2145.049085 707.02354 2159.991776 660.031353 2181.014597 660.031353 C 2191.010742 660.031353 2203.995426 650.962685 2211.003032 639.008532 C 2219.04117 623.962788 2225.018246 620.97425 2232.953331 629.012387 C 2239.960938 636.019994 2238.00293 644.985609 2225.018246 660.031353 C 2206.983964 680.023643 2206.983964 680.023643 2230.995323 680.95112 C 2243.980006 681.981651 2259.953228 681.981651 2265.002827 680.023643 C 2272.010434 678.993113 2272.010434 681.981651 2265.002827 688.989258 C 2253.048674 701.046464 2179.984067 718.050216 2164.010845 713.000617 Z M 2164.010845 713.000617 " transform="matrix(0.0379052,0,0,0.0379052,0,23.832918)"/>
<path style="fill-rule:nonzero;fill:rgb(75.686275%,63.529412%,43.137255%);fill-opacity:1;stroke-width:10;stroke-linecap:butt;stroke-linejoin:miter;stroke:rgb(75.686275%,63.529412%,43.137255%);stroke-opacity:1;stroke-miterlimit:4;" d="M 2100.014905 640.039062 C 2087.957699 633.031456 2087.957699 627.981856 2097.026367 619.016242 C 2107.022512 609.020097 2111.041581 610.050627 2115.988127 623.962788 C 2124.026264 646.016139 2118.049188 650.962685 2100.014905 640.039062 Z M 2100.014905 640.039062 " transform="matrix(0.0379052,0,0,0.0379052,0,23.832918)"/>
<path style="fill-rule:nonzero;fill:rgb(75.686275%,63.529412%,43.137255%);fill-opacity:1;stroke-width:10;stroke-linecap:butt;stroke-linejoin:miter;stroke:rgb(75.686275%,63.529412%,43.137255%);stroke-opacity:1;stroke-miterlimit:4;" d="M 2246.041067 623.03531 C 2236.972399 600.981959 2238.00293 599.951429 2259.02575 599.951429 C 2284.995117 599.951429 2293.960732 626.951326 2269.949373 633.031456 C 2259.02575 636.019994 2249.029605 632.000925 2246.041067 623.03531 Z M 2246.041067 623.03531 " transform="matrix(0.0379052,0,0,0.0379052,0,23.832918)"/>
<path style="fill-rule:nonzero;fill:rgb(75.686275%,63.529412%,43.137255%);fill-opacity:1;stroke-width:10;stroke-linecap:butt;stroke-linejoin:miter;stroke:rgb(75.686275%,63.529412%,43.137255%);stroke-opacity:1;stroke-miterlimit:4;" d="M 2155.04523 579.031661 C 2138.041478 546.982165 2132.991879 546.982165 2073.015008 566.046978 C 2057.969264 570.993524 2057.969264 569.962993 2070.02647 560.997379 C 2077.961554 555.020302 2080.950093 549.970703 2076.003546 549.970703 C 2070.02647 549.970703 2074.973016 543.993627 2085.999692 535.955489 C 2104.961451 522.043329 2104.961451 521.012798 2083.011153 498.03197 C 2070.02647 484.016756 2060.030325 471.032072 2060.030325 467.013004 C 2060.030325 452.99779 2076.003546 461.035927 2114.030119 495.043431 C 2145.049085 524.001336 2159.991776 529.978413 2195.029811 529.978413 C 2220.999178 529.978413 2239.960938 525.031867 2242.949476 518.02426 C 2245.010537 511.016653 2250.987613 508.028115 2255.006682 512.047183 C 2269.021896 525.031867 2232.025853 549.970703 2199.976357 549.970703 C 2175.037521 549.970703 2168.957391 553.989772 2174.00699 565.016447 C 2176.995528 572.951532 2182.972605 586.966745 2185.961143 595.004883 C 2198.018349 623.962788 2169.987921 610.050627 2155.04523 579.031661 Z M 2155.04523 579.031661 " transform="matrix(0.0379052,0,0,0.0379052,0,23.832918)"/>
<path style="fill-rule:nonzero;fill:rgb(75.686275%,63.529412%,43.137255%);fill-opacity:1;stroke-width:10;stroke-linecap:butt;stroke-linejoin:miter;stroke:rgb(75.686275%,63.529412%,43.137255%);stroke-opacity:1;stroke-miterlimit:4;" d="M 1686.050833 556.050833 C 1689.039371 546.982165 1686.97831 539.974558 1681.001234 539.974558 C 1675.024157 539.974558 1669.974558 535.955489 1669.974558 529.978413 C 1669.974558 525.031867 1676.982165 519.982268 1685.020302 519.982268 C 1702.024054 519.982268 1706.043123 555.020302 1689.966848 565.016447 C 1683.989772 568.004986 1682.959241 563.985917 1686.050833 556.050833 Z M 1686.050833 556.050833 " transform="matrix(0.0379052,0,0,0.0379052,0,23.832918)"/>
<path style="fill-rule:nonzero;fill:rgb(75.686275%,63.529412%,43.137255%);fill-opacity:1;stroke-width:10;stroke-linecap:butt;stroke-linejoin:miter;stroke:rgb(75.686275%,63.529412%,43.137255%);stroke-opacity:1;stroke-miterlimit:4;" d="M 1979.958111 555.020302 C 1979.958111 546.982165 1986.965718 539.974558 1995.003855 539.974558 C 2003.041992 539.974558 2010.049599 546.982165 2010.049599 555.020302 C 2010.049599 562.955387 2003.041992 569.962993 1995.003855 569.962993 C 1986.965718 569.962993 1979.958111 562.955387 1979.958111 555.020302 Z M 1979.958111 555.020302 " transform="matrix(0.0379052,0,0,0.0379052,0,23.832918)"/>
<path style="fill-rule:nonzero;fill:rgb(75.686275%,63.529412%,43.137255%);fill-opacity:1;stroke-width:10;stroke-linecap:butt;stroke-linejoin:miter;stroke:rgb(75.686275%,63.529412%,43.137255%);stroke-opacity:1;stroke-miterlimit:4;" d="M 2212.033563 468.971012 C 2186.991674 437.952046 2118.976665 420.020816 2095.995837 438.982576 C 2085.999692 448.051244 2080.950093 447.020713 2077.034077 435.994038 C 2070.953947 420.020816 2097.026367 410.024671 2145.049085 410.024671 C 2179.984067 410.024671 2233.983861 440.013106 2249.029605 468.043534 C 2266.033357 499.989977 2238.00293 501.020508 2212.033563 468.971012 Z M 2212.033563 468.971012 " transform="matrix(0.0379052,0,0,0.0379052,0,23.832918)"/>
</g>
</svg>
