<?xml version="1.0" encoding="UTF-8"?>
<svg xmlns="http://www.w3.org/2000/svg" xmlns:xlink="http://www.w3.org/1999/xlink" width="152px" height="114px" viewBox="0 0 152 114" version="1.1">
<g id="surface1">
<path style=" stroke:none;fill-rule:nonzero;fill:rgb(0%,20%,96.470588%);fill-opacity:1;" d="M 41.753906 111.402344 C 39.15625 110.695312 37.285156 108.300781 37.238281 105.679688 L 37.238281 104.765625 L 35.53125 104.492188 C 33.433594 104.152344 31.972656 103.421875 30.582031 101.984375 C 28.964844 100.320312 28.234375 98.585938 28.234375 96.328125 C 28.234375 95.191406 28.394531 94.074219 28.644531 93.320312 L 29.03125 92.136719 L 28.007812 91.175781 C 27.414062 90.628906 26.660156 89.582031 26.226562 88.714844 C 25.566406 87.347656 25.496094 87.027344 25.496094 85.042969 C 25.496094 83.175781 25.589844 82.695312 26.113281 81.578125 C 26.910156 79.84375 28.28125 78.433594 29.988281 77.496094 C 31.335938 76.769531 31.585938 76.722656 34.277344 76.609375 L 37.125 76.492188 L 37.195312 75.652344 L 37.261719 74.828125 L 34.550781 74.738281 C 31.996094 74.671875 31.789062 74.625 30.71875 73.984375 C 29.464844 73.210938 28.28125 71.457031 28.027344 70.0625 C 27.800781 68.652344 27.871094 61.675781 28.144531 60.488281 C 28.4375 59.074219 29.375 57.753906 30.628906 56.886719 C 31.609375 56.226562 31.769531 56.203125 34.457031 56.132812 L 37.238281 56.042969 L 37.238281 49.976562 L 33.867188 49.886719 C 30.125 49.816406 29.648438 49.660156 28.804688 48.269531 C 27.300781 45.804688 29.691406 33.925781 32.816406 28.363281 C 37.101562 20.703125 44.878906 15.457031 53.609375 14.339844 C 54.703125 14.203125 55.820312 14 56.09375 13.90625 C 56.390625 13.792969 56.847656 13.15625 57.210938 12.425781 C 58.351562 9.988281 60.222656 8.664062 62.796875 8.480469 C 65.582031 8.277344 68.042969 9.644531 69.273438 12.085938 C 69.570312 12.675781 69.933594 13.246094 70.117188 13.382812 C 70.277344 13.519531 71.894531 13.679688 73.71875 13.769531 C 77.890625 13.953125 84.6875 15.140625 87.285156 16.140625 C 90.867188 17.554688 95.492188 21.113281 98.117188 24.511719 C 99.4375 26.21875 101.148438 29.296875 102.082031 31.625 C 103.589844 35.410156 104.25 39.101562 104.636719 46.125 C 104.773438 48.425781 104.820312 48.585938 105.367188 49.042969 C 105.707031 49.316406 108.351562 50.933594 111.226562 52.644531 C 125.5 61.082031 125.292969 60.96875 126 61.902344 C 126.546875 62.675781 126.640625 62.972656 126.546875 63.816406 C 126.410156 64.957031 125.839844 65.824219 124.816406 66.417969 C 123.265625 67.351562 116.332031 66.734375 110.429688 65.183594 C 108.285156 64.613281 104.019531 63.222656 102.746094 62.675781 C 102.242188 62.449219 101.742188 62.335938 101.671875 62.402344 C 101.605469 62.472656 101.992188 63.359375 102.539062 64.386719 C 105.707031 70.246094 107.804688 77.496094 108.375 84.589844 C 108.535156 86.410156 108.605469 91.632812 108.558594 97.355469 C 108.488281 107 108.488281 107.046875 107.964844 108.117188 C 107.351562 109.347656 105.980469 110.671875 104.75 111.21875 C 104 111.582031 101.238281 111.605469 73.378906 111.652344 C 49.253906 111.675781 42.597656 111.628906 41.753906 111.402344 Z M 83.730469 104.71875 L 101.582031 104.582031 L 101.46875 93.957031 C 101.375 83.449219 101.375 83.3125 100.761719 80.507812 C 99.414062 74.257812 97.179688 68.925781 93.828125 63.929688 C 91.117188 59.894531 88.722656 57.386719 85.644531 55.3125 C 84.230469 54.378906 82.519531 53.148438 81.835938 52.597656 C 80.789062 51.734375 80.402344 51.574219 79.261719 51.460938 C 78.53125 51.367188 70.324219 51.253906 61.019531 51.164062 L 44.078125 51.003906 L 44.078125 55.175781 L 69.957031 55.175781 L 71.097656 55.722656 C 72.398438 56.316406 73.332031 57.320312 74.039062 58.824219 C 74.496094 59.78125 74.519531 60.238281 74.519531 65.457031 L 74.519531 71.042969 L 73.835938 72.390625 C 73.058594 73.894531 71.714844 75.082031 70.34375 75.46875 C 69.84375 75.605469 66.242188 75.695312 61.523438 75.71875 C 54.546875 75.742188 53.679688 75.765625 54.613281 76.039062 C 56.117188 76.449219 57.507812 77.316406 58.648438 78.546875 C 60.449219 80.484375 61.179688 83.128906 60.722656 86.046875 C 60.246094 89.078125 58.605469 91.359375 54.136719 95.03125 C 52.8125 96.148438 50.007812 98.449219 47.910156 100.183594 C 44.648438 102.851562 44.078125 103.421875 44.078125 103.945312 C 44.078125 104.289062 44.148438 104.652344 44.238281 104.71875 C 44.421875 104.925781 60.929688 104.925781 83.730469 104.71875 Z M 38.699219 98.289062 C 40.226562 97.425781 49.140625 90.5625 52.242188 87.847656 C 53.019531 87.164062 53.882812 86.207031 54.136719 85.707031 C 54.566406 84.816406 54.566406 84.792969 54.15625 83.835938 C 53.839844 83.128906 53.472656 82.71875 52.835938 82.398438 C 52.015625 81.988281 51.285156 81.964844 43.191406 81.898438 C 38.355469 81.851562 34.070312 81.875 33.660156 81.964844 C 33.25 82.035156 32.496094 82.492188 32.019531 82.945312 C 30.492188 84.382812 30.492188 85.660156 32.019531 87.164062 L 32.929688 88.078125 L 35.027344 87.917969 C 39.90625 87.574219 43.964844 87.507812 44.605469 87.757812 C 45.128906 87.960938 45.21875 88.121094 45.21875 88.898438 C 45.21875 89.558594 45.105469 89.855469 44.71875 90.105469 C 43.941406 90.605469 40.863281 91.746094 38.152344 92.546875 C 35.53125 93.320312 34.890625 93.683594 34.09375 94.871094 C 33.203125 96.171875 33.84375 97.996094 35.460938 98.792969 C 36.554688 99.339844 36.898438 99.269531 38.699219 98.289062 Z M 38.699219 69.039062 C 39.429688 65.550781 39.609375 64.910156 40.226562 63.976562 C 40.726562 63.246094 41.277344 62.769531 42.164062 62.335938 C 43.257812 61.8125 43.601562 61.742188 45.058594 61.832031 C 45.949219 61.902344 47.042969 62.105469 47.453125 62.335938 C 48.273438 62.746094 48.457031 62.472656 47.796875 61.742188 C 47.453125 61.355469 46.929688 61.332031 40.613281 61.332031 C 32.109375 61.332031 32.839844 60.921875 32.953125 65.59375 C 33.042969 69.675781 32.929688 69.539062 36.257812 69.539062 C 38.492188 69.539062 38.609375 69.515625 38.699219 69.039062 Z M 62.09375 67.488281 C 62.570312 65.164062 62.957031 64.203125 63.824219 63.179688 C 64.621094 62.222656 65.625 61.789062 67.109375 61.789062 C 67.835938 61.789062 68.226562 61.695312 68.132812 61.558594 C 68.042969 61.421875 65.558594 61.332031 61.40625 61.332031 C 53.40625 61.332031 54.113281 60.921875 54.113281 65.480469 C 54.113281 69.722656 53.929688 69.5625 58.375 69.496094 L 61.703125 69.425781 Z M 62.09375 67.488281 "/>
<path style=" stroke:none;fill-rule:nonzero;fill:rgb(0%,20%,96.470588%);fill-opacity:1;" d="M 78.050781 101.003906 C 77.710938 100.660156 77.597656 100.25 77.597656 99.363281 L 77.597656 98.175781 L 84.664062 91.085938 L 91.730469 84.019531 L 93.007812 84.019531 C 94.082031 84.019531 94.355469 84.109375 94.71875 84.566406 C 95.128906 85.066406 95.152344 85.546875 95.152344 92.773438 C 95.152344 100.207031 95.128906 100.480469 94.695312 100.957031 C 94.21875 101.460938 94.148438 101.460938 86.375 101.460938 C 78.804688 101.460938 78.484375 101.4375 78.050781 101.003906 Z M 78.050781 101.003906 "/>
<path style=" stroke:none;fill-rule:nonzero;fill:rgb(100%,100%,100%);fill-opacity:1;" d="M 43.554688 105.40625 C 43.464844 105.335938 43.394531 104.675781 43.394531 103.945312 L 43.394531 102.644531 L 47.226562 99.5 C 57.007812 91.429688 57.441406 91.019531 58.785156 88.804688 C 59.765625 87.164062 60.085938 86.070312 60.0625 84.359375 C 60.0625 80.917969 57.394531 77.65625 53.839844 76.699219 C 52.996094 76.472656 51.238281 76.378906 48.023438 76.378906 L 43.394531 76.378906 L 43.394531 75.011719 L 56.117188 75.011719 C 64.167969 75.011719 69.136719 74.921875 69.660156 74.785156 C 71.007812 74.394531 72.375 73.210938 73.128906 71.75 L 73.8125 70.429688 L 73.8125 65.480469 C 73.835938 60.921875 73.789062 60.441406 73.355469 59.507812 C 72.648438 58.003906 71.714844 57 70.414062 56.40625 L 69.273438 55.859375 L 43.394531 55.859375 L 43.394531 50.136719 L 44.375 50.25 C 44.902344 50.320312 52.972656 50.433594 62.296875 50.503906 C 71.621094 50.59375 79.738281 50.730469 80.355469 50.820312 C 81.128906 50.957031 81.746094 51.253906 82.542969 51.914062 C 83.136719 52.441406 84.824219 53.625 86.261719 54.605469 C 93.257812 59.28125 99.074219 68.945312 101.445312 79.824219 C 102.058594 82.628906 102.058594 82.695312 102.152344 93.957031 L 102.242188 105.269531 L 84.414062 105.40625 C 61.589844 105.609375 43.738281 105.609375 43.554688 105.40625 Z M 94.011719 100.273438 C 94.445312 99.796875 94.46875 99.5 94.46875 92.773438 C 94.46875 86.367188 94.421875 85.726562 94.058594 85.273438 C 93.101562 84.085938 92.871094 84.222656 85.324219 91.816406 C 80.332031 96.808594 78.28125 98.996094 78.28125 99.363281 C 78.28125 99.636719 78.484375 100.070312 78.734375 100.320312 C 79.167969 100.753906 79.488281 100.777344 86.375 100.777344 C 93.441406 100.777344 93.53125 100.777344 94.011719 100.273438 Z M 94.011719 100.273438 "/>
<path style=" stroke:none;fill-rule:nonzero;fill:rgb(100%,100%,100%);fill-opacity:1;" d="M 34.777344 99.476562 C 32.863281 98.542969 32.222656 95.714844 33.523438 93.957031 C 34.277344 92.976562 34.984375 92.613281 37.742188 91.792969 C 40.726562 90.878906 43.28125 89.902344 44.101562 89.332031 C 45.539062 88.351562 43.417969 88.144531 35.941406 88.554688 L 32.246094 88.761719 L 31.335938 87.871094 C 30.171875 86.6875 29.761719 85.410156 30.171875 84.085938 C 30.515625 82.878906 31.925781 81.464844 32.976562 81.28125 C 33.386719 81.191406 37.96875 81.167969 43.167969 81.214844 C 51.96875 81.28125 52.699219 81.304688 53.519531 81.714844 C 54.136719 82.035156 54.523438 82.445312 54.820312 83.082031 C 55.707031 85.042969 55.183594 86.546875 52.925781 88.53125 C 49.824219 91.246094 40.910156 98.109375 39.382812 98.976562 C 37.558594 99.976562 36.121094 100.136719 34.777344 99.476562 Z M 34.777344 99.476562 "/>
<path style=" stroke:none;fill-rule:nonzero;fill:rgb(100%,100%,100%);fill-opacity:1;" d="M 32.769531 69.90625 C 32.382812 69.609375 32.339844 69.222656 32.269531 65.574219 C 32.203125 61.8125 32.222656 61.558594 32.65625 61.125 C 33.113281 60.671875 33.363281 60.648438 40.613281 60.648438 C 49.507812 60.648438 48.867188 60.441406 48.867188 63.40625 L 48.867188 65.320312 L 48.433594 64.636719 C 47.636719 63.316406 46.199219 62.496094 44.628906 62.472656 C 43.464844 62.472656 41.6875 63.519531 40.910156 64.683594 C 40.296875 65.59375 40.113281 66.234375 39.382812 69.722656 C 39.292969 70.203125 39.222656 70.222656 36.257812 70.222656 C 34.003906 70.222656 33.113281 70.132812 32.769531 69.90625 Z M 32.769531 69.90625 "/>
<path style=" stroke:none;fill-rule:nonzero;fill:rgb(100%,100%,100%);fill-opacity:1;" d="M 53.882812 69.769531 C 53.472656 69.359375 53.429688 69.015625 53.429688 65.480469 C 53.429688 62.402344 53.496094 61.558594 53.792969 61.148438 C 54.136719 60.648438 54.15625 60.648438 61.386719 60.648438 C 69.523438 60.648438 69.386719 60.625 69.386719 62.3125 L 69.386719 63.132812 L 68.773438 62.792969 C 67.425781 62.105469 65.601562 62.5625 64.507812 63.863281 C 63.640625 64.890625 63.253906 65.847656 62.777344 68.171875 L 62.386719 70.109375 L 58.375 70.179688 C 54.589844 70.222656 54.316406 70.203125 53.882812 69.769531 Z M 53.882812 69.769531 "/>
<path style=" stroke:none;fill-rule:nonzero;fill:rgb(100%,100%,100%);fill-opacity:1;" d="M 43.167969 67.738281 C 42.597656 66.644531 44.195312 65.027344 44.945312 65.960938 C 45.425781 66.53125 45.492188 67.398438 45.105469 67.808594 C 44.582031 68.308594 43.464844 68.285156 43.167969 67.738281 Z M 43.167969 67.738281 "/>
<path style=" stroke:none;fill-rule:nonzero;fill:rgb(100%,100%,100%);fill-opacity:1;" d="M 65.785156 67.898438 C 65.625 67.738281 65.511719 67.464844 65.511719 67.238281 C 65.511719 66.667969 66.402344 65.664062 66.878906 65.664062 C 67.65625 65.664062 68.132812 67.28125 67.519531 67.898438 C 67.175781 68.242188 66.128906 68.242188 65.785156 67.898438 Z M 65.785156 67.898438 "/>
</g>
</svg>
