<?xml version="1.0" encoding="UTF-8"?>
<svg xmlns="http://www.w3.org/2000/svg" xmlns:xlink="http://www.w3.org/1999/xlink" width="152px" height="114px" viewBox="0 0 152 114" version="1.1">
<g id="surface1">
<path style=" stroke:none;fill-rule:nonzero;fill:rgb(92.54902%,35.294118%,15.686275%);fill-opacity:1;" d="M 88.777344 93.246094 C 87.597656 92.804688 85.992188 90.9375 85.992188 90.019531 C 85.992188 88.988281 86.992188 86.105469 87.582031 85.46875 C 88.023438 84.976562 88.988281 84.796875 89.675781 85.074219 C 91.429688 85.8125 93.199219 87.613281 93.199219 88.660156 C 93.199219 89.316406 91.640625 91.625 90.5625 92.609375 C 89.773438 93.328125 89.367188 93.460938 88.777344 93.246094 Z M 88.777344 93.246094 "/>
<path style=" stroke:none;fill-rule:nonzero;fill:rgb(92.54902%,35.294118%,15.686275%);fill-opacity:1;" d="M 35.230469 87.335938 C 34.460938 87.105469 34.167969 86.449219 34.101562 84.796875 C 34.035156 83.125 34.296875 81.78125 35.003906 80.292969 C 35.609375 79.015625 35.59375 79.015625 39.148438 78.457031 C 40.851562 78.195312 40.949219 78.160156 41.128906 77.671875 C 41.226562 77.425781 41.554688 75.949219 41.867188 74.378906 C 42.175781 72.804688 42.554688 71.300781 42.71875 71.019531 C 43.371094 69.90625 44.78125 69.464844 45.84375 70.023438 C 46.550781 70.382812 47.058594 72.199219 47.417969 75.625 C 47.484375 76.179688 47.613281 76.753906 47.730469 76.902344 C 47.84375 77.046875 48.300781 77.210938 48.859375 77.292969 C 49.660156 77.410156 49.824219 77.375 50.070312 77.113281 C 50.332031 76.820312 50.332031 76.574219 50.054688 73.003906 C 49.515625 66.105469 49.515625 65.828125 50.105469 64.058594 C 51.085938 61.128906 52.21875 59.425781 53.316406 59.226562 C 54.230469 59.046875 54.804688 59.457031 55 60.390625 C 55.214844 61.324219 55.707031 65.730469 56.179688 70.59375 C 56.523438 74.117188 56.933594 77.261719 57.113281 77.734375 C 57.261719 78.128906 57.820312 78.261719 60.144531 78.472656 C 63.109375 78.71875 69.105469 78.472656 74.035156 77.882812 C 82.484375 76.851562 88.742188 75.328125 92.542969 73.347656 C 93.394531 72.90625 94.410156 72.496094 94.785156 72.445312 C 95.574219 72.347656 96.066406 72.59375 98.847656 74.425781 C 101.109375 75.917969 101.714844 75.867188 101.714844 74.214844 C 101.714844 73.707031 101.484375 70.972656 101.222656 68.136719 C 100.960938 65.304688 100.734375 62.453125 100.734375 61.800781 L 100.734375 60.621094 L 101.863281 59.261719 C 103.058594 57.800781 104.367188 56.671875 104.859375 56.671875 C 105.335938 56.671875 106.449219 57.785156 106.628906 58.457031 C 106.710938 58.785156 106.890625 60.339844 107.039062 61.914062 C 107.167969 63.484375 107.351562 65.484375 107.449219 66.335938 C 107.53125 67.1875 107.726562 69.792969 107.890625 72.117188 L 108.167969 76.359375 L 107.695312 77.261719 C 106.742188 79.078125 103.761719 81.832031 101.421875 83.058594 C 99.40625 84.109375 98.257812 83.894531 95.375 81.945312 L 94.015625 81.027344 L 92.738281 81.535156 C 87.480469 83.617188 77.492188 85.433594 67.238281 86.171875 C 63.617188 86.433594 53.445312 86.449219 52.96875 86.1875 C 52.644531 86.023438 51.710938 84.761719 51.546875 84.304688 C 51.511719 84.207031 50.644531 84.550781 49.53125 85.074219 C 47.335938 86.140625 46.46875 86.484375 45.960938 86.484375 C 45.191406 86.484375 44.371094 86.105469 43.570312 85.386719 L 42.71875 84.617188 L 41.046875 85.484375 C 40.144531 85.976562 39.03125 86.597656 38.589844 86.875 C 37.917969 87.285156 37.574219 87.382812 36.707031 87.417969 C 36.117188 87.433594 35.445312 87.398438 35.230469 87.335938 Z M 35.230469 87.335938 "/>
<path style=" stroke:none;fill-rule:nonzero;fill:rgb(92.54902%,35.294118%,15.686275%);fill-opacity:1;" d="M 111.609375 85.8125 C 111.476562 85.582031 110.578125 73.492188 110.25 67.402344 C 110.070312 64.09375 110.070312 64.058594 111.855469 61.683594 C 113.179688 59.914062 114.015625 59.128906 114.558594 59.128906 C 115.015625 59.128906 115.523438 59.6875 115.785156 60.441406 C 116.195312 61.683594 117.441406 75.394531 117.441406 78.75 C 117.441406 80.847656 117.472656 80.765625 115.164062 83.320312 C 113.050781 85.664062 111.984375 86.417969 111.609375 85.8125 Z M 111.609375 85.8125 "/>
<path style=" stroke:none;fill-rule:nonzero;fill:rgb(92.54902%,35.294118%,15.686275%);fill-opacity:1;" d="M 52.742188 53.789062 C 49.449219 53.363281 49.023438 52.773438 50.792969 51.054688 C 51.824219 50.039062 53.28125 49.253906 55.117188 48.726562 C 58.785156 47.648438 59.636719 47.269531 62.308594 45.484375 C 64.238281 44.191406 65.191406 43.308594 65.191406 42.800781 C 65.191406 42.585938 64.796875 41.441406 64.339844 40.242188 C 63.550781 38.292969 63.46875 37.949219 63.46875 36.851562 C 63.484375 35.3125 63.992188 34.019531 64.765625 33.625 C 65.222656 33.382812 65.320312 33.398438 66.171875 33.675781 C 67.417969 34.085938 69.433594 36.101562 70.332031 37.820312 C 71.5625 40.179688 71.136719 41.652344 67.695312 46.859375 C 64.4375 51.808594 61.191406 53.640625 55.476562 53.804688 C 54.28125 53.839844 53.050781 53.824219 52.742188 53.789062 Z M 52.742188 53.789062 "/>
<path style=" stroke:none;fill-rule:nonzero;fill:rgb(92.54902%,35.294118%,15.686275%);fill-opacity:1;" d="M 67.121094 53.789062 C 66.335938 53.542969 66.582031 52.167969 67.613281 51.121094 C 68.316406 50.398438 68.628906 50.25 71.167969 49.316406 C 75.148438 47.84375 77.164062 46.714844 76.917969 46.074219 C 76.867188 45.945312 76.820312 45.8125 76.820312 45.78125 C 76.820312 45.746094 76.261719 45.371094 75.589844 44.960938 C 73.953125 43.929688 73.625 43.390625 73.640625 41.75 C 73.675781 40.195312 74.296875 37.949219 75.28125 35.917969 C 76.148438 34.085938 76.71875 33.578125 77.867188 33.578125 C 78.867188 33.578125 79.457031 33.839844 81.273438 35.085938 C 83.207031 36.410156 84.371094 37.558594 84.925781 38.753906 C 85.304688 39.554688 85.367188 39.851562 85.304688 40.851562 C 85.253906 41.847656 85.140625 42.273438 84.484375 43.601562 C 83.699219 45.257812 81.550781 48.710938 80.355469 50.269531 C 79.457031 51.464844 78.015625 52.496094 76.6875 52.90625 C 75.050781 53.414062 68.039062 54.050781 67.121094 53.789062 Z M 67.121094 53.789062 "/>
<path style=" stroke:none;fill-rule:nonzero;fill:rgb(92.54902%,35.294118%,15.686275%);fill-opacity:1;" d="M 32.921875 51.757812 C 32.316406 51.609375 31.777344 51.085938 31.777344 50.613281 C 31.777344 50.449219 31.628906 48.5 31.449219 46.253906 C 31.285156 44.011719 31.054688 40.589844 30.957031 38.65625 C 30.859375 36.722656 30.710938 33.808594 30.628906 32.183594 C 30.417969 28.46875 30.417969 26.828125 30.628906 26.304688 C 30.84375 25.75 33.347656 23.257812 34.117188 22.847656 C 34.675781 22.554688 34.773438 22.554688 35.167969 22.765625 C 36.265625 23.390625 36.410156 24.09375 36.671875 30.21875 C 37.066406 38.902344 37.410156 43.863281 37.625 44.078125 C 37.804688 44.257812 41.601562 43.796875 44.011719 43.324219 C 45.109375 43.09375 46.058594 42.914062 46.089844 42.914062 C 46.140625 42.914062 46.125 42.046875 46.074219 40.980469 C 45.960938 38.800781 46.15625 37.933594 46.941406 36.902344 C 47.515625 36.148438 48.828125 35.542969 49.859375 35.542969 C 51.367188 35.542969 54.050781 36.507812 55 37.394531 C 55.953125 38.277344 56.246094 39.523438 56.015625 41.71875 C 55.722656 44.566406 54.59375 46.238281 51.824219 47.84375 C 49.972656 48.941406 49.546875 49.054688 39.800781 51.085938 C 35.886719 51.90625 34.265625 52.070312 32.921875 51.757812 Z M 32.921875 51.757812 "/>
<path style=" stroke:none;fill-rule:nonzero;fill:rgb(92.54902%,35.294118%,15.686275%);fill-opacity:1;" d="M 91.804688 51.808594 C 91.625 51.773438 90.988281 51.59375 90.398438 51.429688 C 88.90625 50.988281 88.839844 50.808594 88.613281 47.089844 C 88.515625 45.46875 88.300781 42.257812 88.121094 39.964844 C 87.515625 31.808594 87.433594 30.367188 87.480469 28.5 C 87.546875 26.664062 87.5625 26.582031 88.089844 25.878906 C 88.90625 24.75 90.9375 22.765625 91.378906 22.652344 C 91.59375 22.601562 91.96875 22.621094 92.199219 22.703125 C 93.066406 23.011719 93.28125 23.996094 93.691406 29.972656 C 94.394531 40.113281 94.769531 43.734375 95.164062 44.125 C 95.410156 44.371094 101.683594 42.945312 108.511719 41.113281 C 116.113281 39.066406 119.601562 38.164062 119.863281 38.164062 C 120.453125 38.164062 121.042969 38.785156 121.042969 39.410156 C 121.042969 40.097656 120.191406 43.550781 119.160156 47.007812 C 117.882812 51.316406 117.570312 51.890625 116.621094 51.675781 C 115.785156 51.496094 115.636719 51.070312 115.671875 49.074219 C 115.71875 47.207031 115.605469 46.894531 114.902344 47.089844 C 114.71875 47.140625 113.65625 47.402344 112.527344 47.664062 C 111.394531 47.925781 109.5625 48.367188 108.429688 48.648438 C 104.105469 49.695312 96.359375 51.414062 94.441406 51.742188 C 93.460938 51.921875 92.429688 51.957031 91.804688 51.808594 Z M 91.804688 51.808594 "/>
<path style=" stroke:none;fill-rule:nonzero;fill:rgb(92.54902%,35.294118%,15.686275%);fill-opacity:1;" d="M 101.796875 35.445312 C 101.125 34.773438 101.011719 34.414062 101.125 33.363281 C 101.4375 30.21875 103.058594 27.109375 105.777344 24.4375 C 107.757812 22.472656 108.234375 22.292969 109.398438 23.0625 C 110.722656 23.964844 113.507812 26.402344 113.605469 26.765625 C 113.867188 27.84375 111.085938 32.921875 110.234375 32.921875 C 110.050781 32.921875 109.398438 32.5625 108.773438 32.101562 C 107.316406 31.039062 106.90625 30.890625 106.335938 31.1875 C 105.566406 31.59375 104.714844 32.5625 103.910156 33.921875 C 103.5 34.640625 103.042969 35.347656 102.910156 35.476562 C 102.601562 35.789062 102.125 35.773438 101.796875 35.445312 Z M 101.796875 35.445312 "/>
</g>
</svg>
