<?xml version="1.0" encoding="UTF-8"?>
<svg xmlns="http://www.w3.org/2000/svg" xmlns:xlink="http://www.w3.org/1999/xlink" width="152px" height="114px" viewBox="0 0 151 83" version="1.1">
<g id="surface1">
<path style=" stroke:none;fill-rule:nonzero;fill:rgb(40.784314%,21.960784%,18.039216%);fill-opacity:1;" d="M 47.453125 67.601562 C 47.390625 67.519531 47.554688 67.25 47.78125 67.023438 C 48.03125 66.773438 48.175781 66.441406 48.113281 66.253906 C 48.050781 66.089844 47.988281 65.070312 47.988281 63.972656 C 47.988281 62.167969 47.949219 62 47.574219 61.898438 C 47.328125 61.835938 47.183594 61.667969 47.222656 61.542969 C 47.265625 61.398438 48.03125 61.316406 49.457031 61.316406 C 52.167969 61.335938 52.953125 61.667969 52.953125 62.769531 C 52.953125 63.371094 52.828125 63.578125 52.3125 63.890625 L 51.691406 64.261719 L 52.414062 64.699219 C 53.65625 65.445312 53.617188 66.898438 52.332031 67.4375 C 51.691406 67.707031 47.597656 67.832031 47.453125 67.601562 Z M 51.132812 66.878906 C 51.296875 66.667969 51.503906 66.277344 51.566406 66.003906 C 51.710938 65.382812 50.863281 64.46875 50.203125 64.574219 C 49.808594 64.636719 49.746094 64.78125 49.683594 65.632812 C 49.582031 67.085938 50.367188 67.75 51.132812 66.878906 Z M 50.886719 63.703125 C 51.382812 63.203125 51.421875 62.601562 50.96875 62.167969 C 50.511719 61.691406 49.914062 61.753906 49.769531 62.3125 C 49.5625 63.078125 49.625 63.867188 49.914062 63.972656 C 50.347656 64.160156 50.449219 64.136719 50.886719 63.703125 Z M 50.886719 63.703125 "/>
<path style=" stroke:none;fill-rule:nonzero;fill:rgb(40.784314%,21.960784%,18.039216%);fill-opacity:1;" d="M 57.917969 67.480469 C 56.902344 66.980469 56.675781 66.398438 56.675781 64.074219 C 56.675781 62.269531 56.636719 62.042969 56.261719 61.835938 C 55.558594 61.460938 55.953125 61.296875 57.484375 61.296875 C 59.054688 61.316406 59.429688 61.460938 58.765625 61.835938 C 58.371094 62.042969 58.332031 62.25 58.332031 64.015625 C 58.332031 66.359375 58.558594 66.960938 59.488281 67.148438 C 61.019531 67.4375 61.640625 66.566406 61.640625 64.117188 C 61.640625 62.832031 61.578125 62.582031 61.125 62.125 C 60.835938 61.835938 60.605469 61.523438 60.605469 61.421875 C 60.605469 61.148438 62.820312 61.148438 62.984375 61.398438 C 63.046875 61.503906 62.863281 61.835938 62.570312 62.125 C 62.097656 62.601562 62.054688 62.789062 62.054688 64.574219 C 62.054688 66.628906 61.847656 67.125 60.875 67.625 C 60.214844 67.957031 58.746094 67.894531 57.917969 67.480469 Z M 57.917969 67.480469 "/>
<path style=" stroke:none;fill-rule:nonzero;fill:rgb(40.784314%,21.960784%,18.039216%);fill-opacity:1;" d="M 76.121094 67.480469 C 75.128906 66.917969 74.691406 66.253906 74.546875 65.007812 C 74.445312 64.160156 74.507812 63.765625 74.878906 62.976562 C 75.625 61.441406 76.988281 60.964844 79.492188 61.335938 L 80.464844 61.480469 L 80.464844 62.476562 C 80.464844 63.039062 80.382812 63.496094 80.277344 63.496094 C 80.195312 63.496094 79.863281 63.121094 79.554688 62.664062 C 78.953125 61.753906 78.355469 61.503906 77.507812 61.8125 C 75.933594 62.414062 75.933594 66.648438 77.484375 67.230469 C 78.066406 67.457031 78.808594 67.332031 79.058594 66.941406 C 79.367188 66.484375 79.222656 65.589844 78.808594 65.363281 C 78.042969 64.949219 78.394531 64.738281 79.84375 64.738281 C 80.652344 64.738281 81.292969 64.78125 81.292969 64.84375 C 81.292969 64.90625 81.148438 65.195312 80.960938 65.464844 C 80.796875 65.734375 80.671875 66.171875 80.710938 66.421875 C 80.878906 67.601562 77.691406 68.351562 76.121094 67.480469 Z M 76.121094 67.480469 "/>
<path style=" stroke:none;fill-rule:nonzero;fill:rgb(40.784314%,21.960784%,18.039216%);fill-opacity:1;" d="M 87.25 67.726562 C 87.496094 67.664062 87.703125 67.519531 87.703125 67.417969 C 87.703125 67.3125 87.828125 67.230469 87.992188 67.230469 C 88.160156 67.230469 88.53125 66.960938 88.800781 66.609375 C 89.089844 66.277344 89.421875 65.984375 89.546875 65.984375 C 89.792969 65.984375 89.855469 67.355469 89.628906 67.5 C 89.523438 67.5625 88.863281 67.644531 88.117188 67.707031 C 87.375 67.769531 86.980469 67.769531 87.25 67.726562 Z M 87.25 67.726562 "/>
<path style=" stroke:none;fill-rule:nonzero;fill:rgb(40.784314%,21.960784%,18.039216%);fill-opacity:1;" d="M 92.441406 67.664062 C 92.316406 67.625 92.398438 67.394531 92.667969 67.125 C 93.0625 66.710938 93.082031 66.460938 93.039062 64.40625 C 92.980469 62.292969 92.957031 62.125 92.503906 61.9375 C 91.550781 61.523438 92.214844 61.316406 94.488281 61.316406 C 96.496094 61.316406 96.867188 61.378906 97.363281 61.753906 C 97.757812 62.042969 97.964844 62.414062 98.003906 62.894531 C 98.066406 63.472656 97.964844 63.703125 97.40625 64.160156 C 96.742188 64.71875 96.742188 64.71875 97.117188 65.28125 C 97.300781 65.589844 97.882812 66.234375 98.378906 66.730469 C 98.851562 67.230469 99.183594 67.6875 99.101562 67.75 C 98.875 67.875 97.136719 67.644531 96.867188 67.457031 C 96.765625 67.394531 96.328125 66.835938 95.894531 66.253906 C 95.066406 65.09375 94.859375 64.96875 94.652344 65.488281 C 94.425781 66.109375 94.53125 66.753906 94.945312 67.125 C 95.171875 67.332031 95.316406 67.5625 95.253906 67.601562 C 95.128906 67.726562 92.792969 67.789062 92.441406 67.664062 Z M 95.957031 64.035156 C 96.289062 63.621094 96.308594 62.539062 95.976562 62.144531 C 95.585938 61.667969 94.800781 61.753906 94.652344 62.3125 C 94.488281 62.933594 94.488281 64.015625 94.675781 64.179688 C 94.902344 64.429688 95.710938 64.324219 95.957031 64.035156 Z M 95.957031 64.035156 "/>
<path style=" stroke:none;fill-rule:nonzero;fill:rgb(40.784314%,21.960784%,18.039216%);fill-opacity:1;" d="M 65.570312 67.480469 C 65.570312 67.394531 65.757812 67.210938 65.984375 67.0625 C 66.355469 66.835938 66.398438 66.585938 66.398438 64.617188 C 66.398438 62.539062 66.378906 62.414062 65.882812 61.9375 C 65.570312 61.667969 65.425781 61.421875 65.507812 61.359375 C 65.921875 61.128906 69.851562 61.359375 70.433594 61.628906 C 71.609375 62.230469 71.589844 63.742188 70.410156 64.304688 C 69.976562 64.492188 69.9375 64.59375 70.121094 64.96875 C 70.265625 65.195312 70.824219 65.882812 71.382812 66.460938 C 71.941406 67.042969 72.398438 67.542969 72.398438 67.582031 C 72.398438 67.625 71.902344 67.644531 71.28125 67.644531 L 70.144531 67.644531 L 69.253906 66.359375 C 68.757812 65.632812 68.261719 65.050781 68.15625 65.050781 C 67.804688 65.050781 67.785156 66.730469 68.136719 67.085938 C 68.324219 67.273438 68.46875 67.457031 68.46875 67.519531 C 68.46875 67.582031 67.824219 67.644531 67.019531 67.644531 C 66.234375 67.644531 65.570312 67.582031 65.570312 67.480469 Z M 69.171875 63.992188 C 69.355469 63.828125 69.5 63.351562 69.5 62.976562 C 69.5 62.230469 69.085938 61.835938 68.28125 61.835938 C 67.886719 61.835938 67.847656 61.960938 67.847656 63.078125 C 67.847656 64.261719 67.867188 64.324219 68.34375 64.324219 C 68.632812 64.324219 69.003906 64.179688 69.171875 63.992188 Z M 69.171875 63.992188 "/>
<path style=" stroke:none;fill-rule:nonzero;fill:rgb(40.784314%,21.960784%,18.039216%);fill-opacity:1;" d="M 84.144531 67.230469 C 84.558594 66.835938 84.601562 66.609375 84.601562 64.429688 C 84.601562 62.230469 84.582031 62.0625 84.167969 61.9375 C 83.9375 61.855469 83.792969 61.691406 83.835938 61.566406 C 83.9375 61.210938 88.675781 61.109375 89.070312 61.441406 C 89.359375 61.667969 89.484375 62.871094 89.234375 62.871094 C 89.171875 62.871094 88.839844 62.644531 88.488281 62.355469 C 88.078125 62 87.621094 61.835938 87.0625 61.835938 L 86.257812 61.835938 L 86.257812 62.769531 C 86.257812 63.289062 86.234375 63.765625 86.214844 63.867188 C 86.089844 64.179688 87.433594 64.136719 87.703125 63.828125 C 88.160156 63.265625 88.324219 63.453125 88.324219 64.53125 C 88.324219 65.613281 88.078125 65.859375 87.703125 65.15625 C 87.558594 64.886719 87.269531 64.738281 86.835938 64.738281 L 86.195312 64.738281 L 86.296875 66.191406 L 86.402344 67.644531 L 83.691406 67.644531 Z M 84.144531 67.230469 "/>
<path style=" stroke:none;fill-rule:nonzero;fill:rgb(40.784314%,21.960784%,18.039216%);fill-opacity:1;" d="M 15.535156 50.109375 C 12.140625 49.15625 9.785156 46.480469 9.265625 42.972656 C 8.585938 38.410156 11.582031 34.238281 16.15625 33.40625 C 16.796875 33.28125 18.925781 33.222656 20.914062 33.242188 L 24.511719 33.304688 L 24.511719 38.285156 L 21.222656 38.285156 L 19.816406 36.167969 C 19.050781 34.984375 18.328125 34.03125 18.242188 34.03125 C 17.6875 34.03125 15.742188 35.753906 15.203125 36.769531 C 14.644531 37.746094 14.582031 38.078125 14.582031 39.632812 C 14.582031 41.167969 14.644531 41.519531 15.140625 42.351562 C 15.867188 43.574219 17.3125 44.902344 18.328125 45.253906 C 19.609375 45.710938 21.863281 45.609375 22.941406 45.046875 C 23.828125 44.589844 25.648438 42.890625 25.648438 42.515625 C 25.648438 42.414062 25.753906 42.328125 25.875 42.328125 C 26.289062 42.328125 25.9375 44.136719 25.257812 45.546875 C 23.5 49.117188 19.195312 51.148438 15.535156 50.109375 Z M 15.535156 50.109375 "/>
<path style=" stroke:none;fill-rule:nonzero;fill:rgb(40.784314%,21.960784%,18.039216%);fill-opacity:1;" d="M 67.824219 50.109375 C 65.882812 49.488281 64.390625 46.832031 64.949219 44.984375 C 65.28125 43.867188 66.605469 42.601562 68.46875 41.625 C 72.460938 39.550781 74.671875 37.953125 74.671875 37.121094 C 74.671875 36.375 73.988281 35.066406 73.410156 34.632812 C 73.019531 34.363281 72.5625 34.238281 72.148438 34.277344 L 71.464844 34.339844 L 71.363281 36.417969 L 71.257812 38.492188 L 68.363281 38.554688 C 66.792969 38.574219 65.363281 38.554688 65.21875 38.511719 C 64.972656 38.410156 66.109375 36.023438 67.371094 33.988281 L 67.847656 33.199219 L 72.253906 33.199219 C 76.222656 33.199219 76.71875 33.242188 77.570312 33.636719 C 78.726562 34.15625 79.347656 34.734375 79.863281 35.730469 C 80.214844 36.4375 80.257812 37.019531 80.257812 42.496094 L 80.257812 48.492188 L 80.878906 49.28125 C 81.230469 49.71875 81.5 50.152344 81.5 50.277344 C 81.5 50.382812 80.671875 50.441406 79.367188 50.382812 C 77.609375 50.320312 77.132812 50.234375 76.492188 49.839844 C 75.519531 49.238281 74.878906 48.203125 74.714844 46.957031 L 74.570312 45.980469 L 73.515625 47.515625 C 71.859375 50.007812 70.039062 50.816406 67.824219 50.109375 Z M 74.136719 44.839844 C 74.425781 44.53125 74.464844 44.09375 74.425781 42.226562 L 74.363281 40.007812 L 73.535156 40.691406 C 71.734375 42.183594 71.136719 43.617188 71.859375 44.714844 C 72.292969 45.378906 73.597656 45.441406 74.136719 44.839844 Z M 74.136719 44.839844 "/>
<path style=" stroke:none;fill-rule:nonzero;fill:rgb(40.784314%,21.960784%,18.039216%);fill-opacity:1;" d="M 124.007812 49.863281 C 124.214844 49.53125 124.542969 49.09375 124.75 48.84375 C 125.101562 48.453125 125.144531 48.015625 125.144531 43.347656 L 125.144531 38.261719 L 124.214844 37.351562 C 123.695312 36.851562 123.34375 36.375 123.449219 36.292969 C 123.613281 36.125 130.523438 33.40625 130.769531 33.40625 C 130.851562 33.40625 130.957031 34.632812 130.976562 36.148438 L 131.039062 38.886719 L 131.804688 37.640625 C 133.230469 35.296875 135.652344 33.554688 137.660156 33.367188 L 138.484375 33.304688 L 138.484375 40.359375 L 131.992188 40.484375 L 131.453125 41.167969 C 130.957031 41.832031 130.9375 41.957031 130.9375 44.984375 C 130.9375 48.121094 130.9375 48.140625 131.554688 49.136719 C 131.90625 49.695312 132.175781 50.214844 132.175781 50.296875 C 132.175781 50.359375 130.253906 50.421875 127.914062 50.421875 L 123.65625 50.421875 Z M 124.007812 49.863281 "/>
<path style=" stroke:none;fill-rule:nonzero;fill:rgb(40.784314%,21.960784%,18.039216%);fill-opacity:1;" d="M 50.988281 49.738281 C 46.976562 48.222656 44.886719 44.964844 45.132812 40.628906 C 45.363281 36.769531 48.402344 33.53125 52.558594 32.785156 C 55.726562 32.203125 59.429688 33.675781 61.332031 36.269531 C 62.65625 38.078125 62.839844 37.992188 56.53125 37.972656 C 53.46875 37.953125 50.800781 37.953125 50.59375 37.953125 C 50.242188 37.972656 50.222656 38.097656 50.328125 39.03125 C 50.59375 41.292969 52.1875 43.554688 54.175781 44.46875 C 54.917969 44.820312 55.519531 44.921875 56.988281 44.921875 C 59.28125 44.921875 60.359375 44.488281 61.867188 42.933594 C 62.425781 42.351562 62.945312 41.914062 63.007812 41.976562 C 63.171875 42.144531 62.488281 44.613281 62.011719 45.527344 C 61.269531 46.976562 59.511719 48.636719 57.855469 49.40625 C 56.511719 50.050781 56.160156 50.109375 54.296875 50.152344 C 52.558594 50.195312 52.023438 50.132812 50.988281 49.738281 Z M 55.519531 36.75 C 55.683594 36.5 54.585938 34.402344 54.175781 34.175781 C 53.699219 33.882812 52.851562 34.15625 52.023438 34.902344 C 51.238281 35.585938 50.617188 36.582031 50.824219 36.808594 C 51.03125 36.996094 55.394531 36.957031 55.519531 36.75 Z M 55.519531 36.75 "/>
<path style=" stroke:none;fill-rule:nonzero;fill:rgb(40.784314%,21.960784%,18.039216%);fill-opacity:1;" d="M 89.359375 46.335938 C 88.078125 44.175781 85.820312 40.441406 84.351562 37.992188 C 82.882812 35.566406 81.726562 33.53125 81.765625 33.492188 C 81.808594 33.429688 83.878906 33.429688 86.339844 33.449219 L 90.847656 33.511719 L 90.207031 34.320312 C 89.855469 34.757812 89.566406 35.234375 89.566406 35.359375 C 89.566406 35.710938 94.40625 43.761719 94.632812 43.78125 C 94.757812 43.78125 95.710938 42.515625 96.765625 40.980469 L 98.6875 38.179688 L 97.34375 35.917969 C 96.597656 34.671875 95.976562 33.59375 95.976562 33.53125 C 95.976562 33.46875 97.613281 33.40625 99.597656 33.40625 C 101.582031 33.40625 103.21875 33.449219 103.21875 33.511719 C 103.21875 33.554688 101.644531 35.875 99.742188 38.636719 C 97.839844 41.417969 95.253906 45.152344 94.035156 46.957031 C 92.8125 48.742188 91.777344 50.214844 91.757812 50.214844 C 91.71875 50.214844 90.640625 48.472656 89.359375 46.335938 Z M 89.359375 46.335938 "/>
<path style=" stroke:none;fill-rule:nonzero;fill:rgb(40.784314%,21.960784%,18.039216%);fill-opacity:1;" d="M 108.90625 49.839844 C 107.375 49.261719 106.589844 48.824219 105.679688 47.996094 C 103.796875 46.292969 102.785156 44.050781 102.761719 41.582031 C 102.761719 39.675781 102.90625 38.96875 103.695312 37.472656 C 105.039062 34.941406 107.3125 33.324219 110.292969 32.785156 C 113.375 32.226562 116.953125 33.613281 118.898438 36.148438 C 120.367188 38.078125 120.613281 37.992188 114.140625 37.972656 C 111.035156 37.972656 108.367188 37.972656 108.246094 37.972656 C 107.582031 37.972656 108.222656 40.792969 109.214844 42.226562 C 110.851562 44.613281 113.871094 45.585938 116.871094 44.695312 C 117.738281 44.425781 118.253906 44.09375 119.3125 43.035156 C 120.054688 42.289062 120.675781 41.726562 120.738281 41.769531 C 120.78125 41.832031 120.675781 42.515625 120.488281 43.324219 C 119.890625 45.980469 118.050781 48.222656 115.441406 49.46875 C 114.242188 50.027344 113.828125 50.109375 112.007812 50.171875 C 110.417969 50.214844 109.710938 50.132812 108.90625 49.839844 Z M 113.207031 36.808594 C 113.351562 36.664062 112.816406 35.441406 112.238281 34.570312 C 111.90625 34.070312 111.761719 34.007812 111.121094 34.113281 C 110.066406 34.277344 108.078125 36.355469 108.535156 36.808594 C 108.699219 36.976562 113.042969 36.976562 113.207031 36.808594 Z M 113.207031 36.808594 "/>
<path style=" stroke:none;fill-rule:nonzero;fill:rgb(40.784314%,21.960784%,18.039216%);fill-opacity:1;" d="M 29.269531 48.96875 C 29.207031 48.84375 29.332031 48.511719 29.558594 48.222656 C 29.972656 47.683594 29.992188 47.414062 29.992188 41.230469 C 29.992188 35.089844 29.972656 34.777344 29.558594 34.113281 L 29.125 33.40625 L 36.40625 33.40625 L 35.992188 34.175781 C 35.597656 34.902344 35.578125 35.359375 35.578125 41.4375 L 35.578125 47.933594 L 36.40625 47.933594 C 36.859375 47.933594 37.296875 47.933594 37.398438 47.933594 C 37.480469 47.933594 37.585938 47.019531 37.648438 45.917969 L 37.75 43.886719 L 40.730469 43.824219 C 42.382812 43.804688 43.789062 43.84375 43.894531 43.949219 C 43.996094 44.050781 43.519531 45.171875 42.777344 46.605469 L 41.472656 49.074219 L 35.433594 49.136719 C 31.484375 49.15625 29.351562 49.117188 29.269531 48.96875 Z M 29.269531 48.96875 "/>
<path style=" stroke:none;fill-rule:nonzero;fill:rgb(40.784314%,21.960784%,18.039216%);fill-opacity:1;" d="M 45.609375 20.976562 C 44.472656 20.273438 44.183594 19.796875 44.101562 18.363281 C 43.996094 16.722656 44.492188 15.769531 45.777344 15.105469 C 46.5 14.753906 46.851562 14.691406 48.070312 14.816406 C 48.859375 14.898438 49.625 15.042969 49.789062 15.167969 C 50.097656 15.4375 50.160156 16.933594 49.851562 17.117188 C 49.746094 17.179688 49.417969 16.847656 49.125 16.390625 C 47.761719 14.214844 45.816406 15.273438 45.835938 18.15625 C 45.859375 20.191406 46.707031 21.226562 48.09375 20.875 C 48.546875 20.75 48.609375 20.625 48.609375 19.835938 C 48.609375 19.089844 48.527344 18.902344 48.175781 18.820312 C 47.328125 18.59375 48.03125 18.261719 49.332031 18.261719 C 50.71875 18.261719 51.089844 18.445312 50.574219 18.882812 C 50.386719 19.027344 50.265625 19.484375 50.265625 19.960938 C 50.265625 20.6875 50.203125 20.792969 49.539062 21.082031 C 48.507812 21.519531 46.375 21.457031 45.609375 20.976562 Z M 45.609375 20.976562 "/>
<path style=" stroke:none;fill-rule:nonzero;fill:rgb(40.784314%,21.960784%,18.039216%);fill-opacity:1;" d="M 53.367188 21.164062 C 53.367188 21.039062 53.511719 20.894531 53.675781 20.832031 C 53.925781 20.730469 53.988281 20.230469 53.988281 18.113281 C 53.988281 15.707031 53.96875 15.519531 53.574219 15.417969 C 53.347656 15.355469 53.160156 15.230469 53.160156 15.125 C 53.160156 14.898438 55.230469 14.878906 55.582031 15.105469 C 55.746094 15.210938 55.808594 15.707031 55.789062 16.496094 L 55.746094 17.742188 L 56.347656 17.699219 C 56.675781 17.679688 57.070312 17.472656 57.234375 17.222656 C 57.710938 16.539062 57.917969 16.746094 57.917969 17.90625 C 57.917969 19.257812 57.773438 19.441406 57.257812 18.757812 C 56.964844 18.382812 56.675781 18.261719 56.285156 18.300781 C 55.828125 18.34375 55.726562 18.488281 55.683594 19.070312 C 55.640625 19.464844 55.664062 19.980469 55.726562 20.253906 C 55.847656 20.6875 55.972656 20.75 56.882812 20.75 C 57.792969 20.75 57.9375 20.6875 58.457031 20.023438 C 59.117188 19.152344 59.386719 19.296875 59.179688 20.4375 L 59.054688 21.269531 L 56.199219 21.332031 C 54.320312 21.371094 53.367188 21.308594 53.367188 21.164062 Z M 53.367188 21.164062 "/>
<path style=" stroke:none;fill-rule:nonzero;fill:rgb(40.784314%,21.960784%,18.039216%);fill-opacity:1;" d="M 61.640625 21.207031 C 61.640625 21.101562 61.828125 20.855469 62.054688 20.644531 C 62.425781 20.3125 62.46875 20.003906 62.46875 18.136719 C 62.46875 16.476562 62.40625 15.9375 62.136719 15.6875 C 61.972656 15.5 61.722656 15.355469 61.621094 15.355469 C 61.496094 15.355469 61.476562 15.273438 61.539062 15.148438 C 61.703125 14.878906 63.398438 14.878906 63.894531 15.125 C 64.082031 15.230469 64.847656 16.082031 65.550781 16.996094 C 66.273438 17.929688 66.957031 18.675781 67.039062 18.675781 C 67.144531 18.675781 67.226562 18.074219 67.226562 17.347656 C 67.226562 16.058594 66.9375 15.355469 66.378906 15.355469 C 66.273438 15.355469 66.191406 15.273438 66.191406 15.148438 C 66.191406 15.023438 66.792969 14.941406 67.597656 14.941406 L 68.984375 14.941406 L 68.425781 15.417969 C 67.867188 15.875 67.847656 15.914062 67.804688 18.570312 C 67.742188 20.875 67.703125 21.269531 67.414062 21.332031 C 67.183594 21.371094 66.441406 20.605469 65.242188 19.109375 C 64.226562 17.84375 63.335938 16.808594 63.253906 16.808594 C 63.171875 16.808594 63.089844 17.597656 63.089844 18.570312 C 63.089844 20.210938 63.128906 20.355469 63.605469 20.667969 C 64.414062 21.1875 64.226562 21.371094 62.882812 21.371094 C 62.199219 21.371094 61.640625 21.289062 61.640625 21.207031 Z M 61.640625 21.207031 "/>
<path style=" stroke:none;fill-rule:nonzero;fill:rgb(40.784314%,21.960784%,18.039216%);fill-opacity:1;" d="M 73.121094 21.125 C 72.148438 20.605469 71.984375 20.128906 71.984375 17.90625 C 71.984375 16 71.941406 15.75 71.570312 15.519531 C 70.847656 15.066406 71.113281 14.941406 72.707031 14.941406 C 74.320312 14.941406 74.570312 15.066406 73.824219 15.519531 C 73.429688 15.769531 73.390625 15.957031 73.472656 17.84375 C 73.554688 20.253906 73.824219 20.75 75.105469 20.75 C 76.367188 20.75 76.742188 20.085938 76.742188 17.824219 C 76.742188 16.453125 76.660156 15.9375 76.410156 15.6875 C 76.246094 15.5 75.996094 15.355469 75.894531 15.355469 C 75.789062 15.355469 75.707031 15.273438 75.707031 15.148438 C 75.707031 15.023438 76.265625 14.941406 76.949219 14.941406 C 78.25 14.941406 78.457031 15.085938 77.773438 15.519531 C 77.402344 15.75 77.363281 16 77.363281 17.867188 L 77.363281 19.960938 L 76.660156 20.667969 C 76.015625 21.308594 75.851562 21.371094 74.753906 21.371094 C 74.074219 21.371094 73.347656 21.246094 73.121094 21.125 Z M 73.121094 21.125 "/>
<path style=" stroke:none;fill-rule:nonzero;fill:rgb(40.784314%,21.960784%,18.039216%);fill-opacity:1;" d="M 80.671875 21.164062 C 80.671875 21.0625 80.855469 20.875 81.085938 20.75 C 81.457031 20.542969 81.5 20.3125 81.5 18.15625 C 81.5 16 81.457031 15.769531 81.085938 15.5625 C 80.300781 15.125 80.671875 14.941406 82.324219 14.941406 C 83.898438 14.941406 84.457031 15.167969 83.566406 15.457031 C 83.175781 15.582031 83.152344 15.769531 83.152344 18.15625 C 83.152344 20.523438 83.175781 20.707031 83.566406 20.8125 C 83.792969 20.875 83.980469 21.019531 83.980469 21.144531 C 83.980469 21.289062 83.382812 21.371094 82.324219 21.371094 C 81.394531 21.371094 80.671875 21.289062 80.671875 21.164062 Z M 80.671875 21.164062 "/>
<path style=" stroke:none;fill-rule:nonzero;fill:rgb(40.784314%,21.960784%,18.039216%);fill-opacity:1;" d="M 86.464844 21.1875 C 86.464844 21.082031 86.648438 20.875 86.855469 20.730469 C 87.3125 20.398438 87.351562 20.148438 87.3125 17.699219 C 87.289062 16.269531 87.226562 15.914062 86.875 15.5625 C 86.648438 15.335938 86.464844 15.105469 86.464844 15.042969 C 86.464844 14.960938 87 14.941406 87.640625 14.980469 L 88.839844 15.042969 L 90.371094 16.953125 C 91.21875 18.011719 91.964844 18.820312 92.027344 18.800781 C 92.089844 18.757812 92.109375 18.050781 92.089844 17.222656 C 92.027344 15.894531 91.964844 15.726562 91.511719 15.519531 C 90.660156 15.125 90.953125 14.941406 92.359375 14.941406 C 93.125 14.941406 93.703125 15.023438 93.703125 15.148438 C 93.703125 15.273438 93.621094 15.355469 93.515625 15.355469 C 93.414062 15.355469 93.164062 15.5 93 15.6875 C 92.730469 15.9375 92.667969 16.515625 92.667969 18.570312 C 92.667969 19.980469 92.585938 21.1875 92.480469 21.246094 C 92.109375 21.496094 91.695312 21.125 90 18.984375 C 89.046875 17.804688 88.179688 16.871094 88.078125 16.933594 C 87.992188 16.996094 87.910156 17.742188 87.910156 18.59375 C 87.910156 19.980469 87.972656 20.191406 88.429688 20.625 C 88.71875 20.894531 88.945312 21.164062 88.945312 21.246094 C 88.945312 21.308594 88.386719 21.371094 87.703125 21.371094 C 87.023438 21.371094 86.464844 21.289062 86.464844 21.1875 Z M 86.464844 21.1875 "/>
<path style=" stroke:none;fill-rule:nonzero;fill:rgb(40.784314%,21.960784%,18.039216%);fill-opacity:1;" d="M 96.082031 21.164062 C 96 21.019531 96.121094 20.875 96.371094 20.8125 C 96.785156 20.707031 96.804688 20.5625 96.804688 18.113281 C 96.804688 15.707031 96.785156 15.519531 96.390625 15.417969 C 95.605469 15.210938 96.207031 14.941406 97.445312 14.941406 L 98.6875 14.941406 L 98.398438 17.636719 L 99.019531 17.636719 C 99.371094 17.636719 99.804688 17.449219 100.011719 17.222656 C 100.589844 16.578125 100.734375 16.722656 100.734375 17.929688 C 100.734375 19.234375 100.507812 19.503906 100.03125 18.777344 C 99.804688 18.425781 99.496094 18.261719 99.082031 18.261719 C 98.480469 18.261719 98.460938 18.300781 98.460938 19.171875 C 98.460938 20.605469 98.585938 20.75 99.703125 20.75 C 100.589844 20.75 100.734375 20.667969 101.230469 20.023438 C 101.542969 19.609375 101.875 19.339844 101.957031 19.378906 C 102.039062 19.441406 102.058594 19.878906 101.996094 20.375 L 101.875 21.269531 L 99.039062 21.332031 C 97.15625 21.371094 96.164062 21.308594 96.082031 21.164062 Z M 96.082031 21.164062 "/>
<path style=" stroke:none;fill-rule:nonzero;fill:rgb(40.784314%,21.960784%,18.039216%);fill-opacity:1;" d="M 58.167969 16.101562 C 57.917969 15.789062 57.421875 15.5 57.089844 15.417969 C 56.738281 15.355469 56.46875 15.167969 56.46875 15.003906 C 56.46875 14.792969 56.59375 14.734375 56.800781 14.816406 C 56.988281 14.878906 57.484375 14.941406 57.917969 14.941406 C 58.785156 14.941406 58.929688 15.148438 58.765625 16.039062 L 58.640625 16.640625 Z M 58.167969 16.101562 "/>
<path style=" stroke:none;fill-rule:nonzero;fill:rgb(40.784314%,21.960784%,18.039216%);fill-opacity:1;" d="M 100.859375 16.082031 C 100.671875 15.789062 100.238281 15.5 99.910156 15.417969 C 98.8125 15.210938 99.183594 14.835938 100.40625 14.898438 C 101.4375 14.980469 101.523438 15.023438 101.605469 15.542969 C 101.769531 16.683594 101.417969 16.933594 100.859375 16.082031 Z M 100.859375 16.082031 "/>
</g>
</svg>
