<?xml version="1.0" encoding="UTF-8"?>
<svg xmlns="http://www.w3.org/2000/svg" xmlns:xlink="http://www.w3.org/1999/xlink" width="152px" height="114px" viewBox="0 0 152 143" version="1.1">
<g id="surface1">
<path style=" stroke:none;fill-rule:nonzero;fill:rgb(13.333333%,11.764706%,11.764706%);fill-opacity:1;" d="M 0 71.5 L 0 0 L 152 0 L 152 143 L 0 143 Z M 83.722656 112.503906 L 85.652344 110.503906 L 86.371094 106.40625 C 87.996094 96.886719 90.171875 83.863281 90.171875 83.65625 C 90.171875 83.535156 89.125 83.449219 87.214844 83.449219 C 83.847656 83.449219 84.15625 83.246094 83.886719 85.675781 L 83.742188 86.953125 L 83.066406 86.953125 C 82.675781 86.953125 80.457031 86.253906 78.136719 85.386719 L 73.925781 83.84375 L 71.460938 85.449219 C 69.222656 86.914062 69.015625 87.097656 69.015625 87.675781 C 69.015625 88.375 69.753906 99.441406 69.960938 101.707031 L 70.085938 103.191406 L 76.65625 106.363281 L 77.355469 105.683594 C 77.746094 105.3125 78.054688 104.941406 78.054688 104.839844 C 78.054688 104.757812 77.664062 104.054688 77.171875 103.292969 C 76.289062 101.894531 76.289062 101.851562 75.425781 96.742188 C 74.953125 93.917969 74.5625 91.15625 74.5625 90.621094 C 74.5625 89.734375 74.601562 89.632812 75.035156 89.632812 C 75.28125 89.632812 77.191406 90.023438 79.265625 90.496094 L 83.046875 91.363281 L 82.921875 92.910156 C 82.859375 93.773438 82.328125 98.082031 81.773438 102.488281 L 80.746094 110.503906 L 79.285156 112.691406 C 78.507812 113.90625 77.847656 114.976562 77.847656 115.058594 C 77.847656 115.164062 78.238281 115.574219 78.730469 116.027344 L 79.59375 116.8125 L 80.683594 115.636719 C 81.277344 114.996094 82.65625 113.597656 83.722656 112.503906 Z M 114.453125 109.621094 C 114.554688 108.878906 116.835938 95.238281 118.582031 85.058594 L 118.847656 83.449219 L 115.808594 83.449219 C 114.144531 83.449219 112.765625 83.511719 112.765625 83.617188 C 112.765625 83.699219 111.988281 89.796875 111.042969 97.152344 L 109.335938 110.546875 L 107.859375 112.792969 L 106.378906 115.039062 L 108.144531 116.851562 L 111.246094 113.699219 C 114.144531 110.753906 114.347656 110.484375 114.453125 109.621094 Z M 47.941406 106.074219 C 48.003906 105.703125 48.476562 101.6875 48.988281 97.152344 C 49.503906 92.621094 49.976562 88.539062 50.058594 88.085938 C 50.160156 87.304688 50.160156 87.285156 49.789062 87.59375 C 48.539062 88.621094 45.269531 91.589844 45.167969 91.777344 C 45.085938 91.898438 44.695312 93.628906 44.265625 95.609375 C 43.855469 97.585938 43.15625 100.863281 42.703125 102.859375 C 42.273438 104.878906 41.902344 106.570312 41.902344 106.632812 C 41.902344 106.695312 43.238281 106.734375 44.882812 106.734375 L 47.839844 106.734375 Z M 61.703125 106.074219 C 61.664062 105.703125 61.394531 101.726562 61.109375 97.257812 C 60.511719 87.902344 60.429688 86.953125 60.183594 86.953125 C 60.082031 86.953125 58.683594 86.316406 57.082031 85.511719 C 55.5 84.730469 54.082031 84.070312 53.960938 84.070312 C 53.652344 84.070312 52.378906 85.078125 52.378906 85.324219 C 52.378906 85.449219 52.769531 86.171875 53.261719 86.914062 C 53.753906 87.675781 54.207031 88.621094 54.289062 89.015625 C 54.351562 89.40625 54.964844 93.074219 55.664062 97.152344 C 56.34375 101.234375 57 105.066406 57.125 105.664062 L 57.328125 106.734375 L 61.804688 106.734375 Z M 26.90625 105.621094 L 27.6875 104.921875 L 26.742188 103.398438 C 26.210938 102.53125 25.738281 101.5 25.65625 100.964844 C 25.492188 99.996094 23.128906 86.066406 22.839844 84.480469 L 22.675781 83.554688 L 20.480469 83.492188 C 18.488281 83.449219 18.28125 83.472656 18.28125 83.800781 C 18.28125 84.316406 19.554688 103.128906 19.59375 103.171875 C 19.636719 103.210938 25.964844 106.28125 26.066406 106.300781 C 26.105469 106.324219 26.496094 106.015625 26.90625 105.621094 Z M 106.03125 105.601562 L 106.8125 104.878906 L 105.84375 103.375 L 104.902344 101.894531 L 103.339844 92.683594 L 101.777344 83.449219 L 99.582031 83.449219 C 97.9375 83.449219 97.363281 83.511719 97.363281 83.71875 C 97.363281 84.542969 98.613281 102.757812 98.699219 102.964844 C 98.757812 103.171875 104.757812 106.261719 105.167969 106.300781 C 105.230469 106.300781 105.621094 105.992188 106.03125 105.601562 Z M 148.488281 105.417969 L 148.980469 104.878906 L 148.054688 103.375 C 147.214844 102.015625 147.070312 101.605469 146.679688 99.296875 C 146.453125 97.894531 145.777344 94 145.222656 90.664062 C 144.648438 87.324219 144.132812 84.335938 144.070312 84.027344 L 143.949219 83.449219 L 139.449219 83.449219 L 139.550781 84.132812 C 139.613281 84.480469 139.902344 88.539062 140.1875 93.136719 C 140.476562 97.730469 140.765625 101.851562 140.824219 102.324219 L 140.929688 103.171875 L 144.132812 104.734375 C 147.542969 106.40625 147.5625 106.40625 148.488281 105.417969 Z M 14.441406 104.425781 C 15.179688 104.160156 15.796875 103.871094 15.796875 103.746094 C 15.796875 103.644531 14.890625 102.53125 13.804688 101.296875 L 11.832031 99.050781 L 11.378906 93.878906 C 11.113281 91.035156 10.804688 87.53125 10.660156 86.089844 L 10.433594 83.449219 L 7.269531 83.449219 C 5.527344 83.449219 4.109375 83.511719 4.109375 83.617188 C 4.109375 83.699219 4.519531 85.800781 5.03125 88.292969 C 5.546875 90.785156 6.285156 94.453125 6.675781 96.433594 C 7.085938 98.410156 7.476562 100.203125 7.558594 100.386719 C 7.683594 100.71875 12.695312 104.859375 12.960938 104.878906 C 13.023438 104.878906 13.679688 104.675781 14.441406 104.425781 Z M 136.121094 104.304688 C 136.71875 104.097656 137.210938 103.871094 137.210938 103.769531 C 137.210938 103.683594 136.449219 102.757812 135.527344 101.707031 C 134.601562 100.675781 133.679688 99.648438 133.492188 99.421875 C 133.125 99.007812 133.101562 98.78125 132.015625 86.4375 L 131.765625 83.554688 L 128.5625 83.492188 L 125.359375 83.449219 L 125.933594 86.273438 C 126.242188 87.839844 127.023438 91.609375 127.660156 94.660156 C 128.277344 97.730469 128.789062 100.304688 128.789062 100.386719 C 128.789062 100.472656 130 101.523438 131.5 102.71875 C 133.574219 104.367188 134.316406 104.859375 134.621094 104.757812 C 134.871094 104.695312 135.546875 104.488281 136.121094 104.304688 Z M 36.519531 90.808594 C 37.34375 87.058594 38 83.84375 38 83.71875 C 38 83.511719 37.261719 83.449219 35.023438 83.449219 C 32.679688 83.449219 32.042969 83.511719 32.042969 83.71875 C 32.042969 84.007812 30.441406 98.101562 30.339844 98.824219 C 30.257812 99.253906 30.359375 99.234375 32.660156 98.472656 L 35.042969 97.667969 Z M 90.832031 69.871094 C 93.355469 67.605469 93.316406 68.246094 91.136719 64.804688 L 89.84375 62.742188 L 87.730469 62.804688 C 86.433594 62.847656 85.203125 62.988281 84.542969 63.214844 L 83.496094 63.566406 L 83.4375 64.742188 C 83.351562 66.164062 82.964844 66.554688 81.585938 66.554688 C 80.664062 66.554688 79.59375 66.988281 79.429688 67.421875 C 79.328125 67.730469 88.097656 72.140625 88.425781 71.953125 C 88.550781 71.890625 89.617188 70.964844 90.832031 69.871094 Z M 65.074219 63.132812 C 62.855469 60.640625 62.8125 60.601562 61.867188 60.539062 L 60.902344 60.476562 L 60.863281 59.550781 C 60.839844 59.035156 60.820312 58.519531 60.820312 58.394531 C 60.78125 57.984375 59.035156 58.726562 58.191406 59.488281 C 57.042969 60.558594 56.074219 61.136719 55.109375 61.402344 C 54.636719 61.527344 54.1875 61.710938 54.125 61.816406 C 54.0625 61.9375 53.445312 62.023438 52.769531 62.023438 C 51.742188 62.023438 51.558594 62.082031 51.558594 62.390625 C 51.558594 62.597656 51.453125 62.867188 51.308594 63.011719 C 51.105469 63.214844 51.144531 63.320312 51.453125 63.546875 C 51.679688 63.710938 53.242188 64.949219 54.925781 66.308594 L 58.007812 68.757812 L 62.667969 67.214844 L 67.332031 65.648438 Z M 75.179688 65.320312 C 75.179688 65.214844 74.933594 65.113281 74.625 65.113281 C 74.171875 65.113281 74.109375 65.152344 74.355469 65.320312 C 74.765625 65.585938 75.179688 65.585938 75.179688 65.320312 Z M 72.917969 64.125 C 72.917969 63.898438 73.125 63.339844 73.390625 62.847656 C 73.882812 61.917969 74.214844 61.753906 76.882812 61.199219 C 78.382812 60.886719 78.976562 60.558594 79.039062 59.941406 C 79.082031 59.570312 79.347656 59.261719 79.902344 58.953125 C 80.355469 58.703125 81.054688 58.085938 81.441406 57.589844 C 81.855469 57.097656 82.714844 56.292969 83.351562 55.820312 C 85.40625 54.273438 85.859375 53.757812 85.859375 53.015625 C 85.859375 52.605469 86.023438 52.171875 86.269531 51.925781 L 86.703125 51.492188 L 86.269531 49.144531 C 86.042969 47.84375 85.859375 46.734375 85.859375 46.671875 C 85.859375 46.609375 85.324219 46.566406 84.648438 46.566406 C 83.578125 46.566406 83.4375 46.527344 83.3125 46.113281 C 82.941406 44.691406 83.3125 43.867188 84.667969 43.148438 C 85.140625 42.898438 85.203125 42.753906 85.097656 42.199219 C 85.039062 41.828125 84.792969 40.367188 84.542969 38.945312 L 84.113281 36.367188 L 83.1875 36.410156 C 82.429688 36.449219 82.164062 36.574219 81.75 37.089844 C 81.464844 37.417969 81.113281 37.707031 80.972656 37.707031 C 80.804688 37.707031 80.148438 38.015625 79.492188 38.40625 C 77.992188 39.292969 76.207031 39.789062 73.945312 39.972656 C 72.816406 40.054688 71.972656 40.242188 71.542969 40.511719 L 70.90625 40.878906 L 71.007812 42.753906 C 71.070312 43.765625 71.171875 44.652344 71.214844 44.714844 C 71.253906 44.753906 72.015625 44.773438 72.878906 44.753906 C 73.90625 44.714844 74.933594 44.835938 75.792969 45.0625 L 77.128906 45.433594 L 77.191406 46.402344 C 77.234375 47.164062 77.148438 47.515625 76.800781 48.011719 C 76.535156 48.339844 76.226562 48.628906 76.082031 48.628906 C 75.9375 48.628906 75.527344 48.9375 75.136719 49.328125 C 74.417969 50.050781 73.308594 50.484375 72.179688 50.484375 C 71.542969 50.484375 71.542969 50.503906 71.605469 51.367188 C 71.644531 51.84375 71.726562 52.957031 71.808594 53.820312 L 71.933594 55.40625 L 72.570312 55.285156 C 72.941406 55.222656 73.472656 55.035156 73.761719 54.890625 C 74.046875 54.746094 75.261719 54.378906 76.429688 54.089844 C 77.601562 53.800781 79.203125 53.328125 79.964844 53.039062 C 80.804688 52.75 81.8125 52.542969 82.492188 52.542969 L 83.601562 52.542969 L 83.601562 53.449219 C 83.601562 53.945312 83.476562 54.4375 83.351562 54.542969 C 83.210938 54.644531 82.140625 55.035156 80.992188 55.40625 C 79.390625 55.902344 78.875 56.148438 78.875 56.417969 C 78.875 56.890625 77.726562 57.632812 76.71875 57.796875 C 76.265625 57.878906 75.507812 58.167969 75.035156 58.4375 C 74.4375 58.785156 73.863281 58.929688 73.125 58.929688 L 72.078125 58.929688 L 72.199219 60.433594 C 72.488281 64 72.550781 64.496094 72.734375 64.496094 C 72.835938 64.496094 72.917969 64.328125 72.917969 64.125 Z M 48.148438 60.042969 C 48.207031 59.859375 48.269531 59.363281 48.269531 58.910156 C 48.269531 58.023438 47.878906 57.839844 47.121094 58.414062 C 46.914062 58.582031 46.566406 58.726562 46.378906 58.726562 C 45.703125 58.726562 45.804688 59.117188 46.667969 59.734375 C 47.632812 60.457031 47.960938 60.515625 48.148438 60.042969 Z M 86.785156 59.324219 C 87.5625 59.035156 87.914062 58.785156 87.914062 58.539062 C 87.914062 57.902344 87.667969 57.902344 86.742188 58.558594 C 85.839844 59.21875 85.285156 59.753906 85.511719 59.753906 C 85.59375 59.753906 86.148438 59.570312 86.785156 59.324219 Z M 53.734375 56.953125 C 54.78125 56.808594 55.871094 56.582031 56.179688 56.457031 C 56.464844 56.355469 57.183594 56.253906 57.738281 56.253906 C 58.316406 56.253906 58.746094 56.167969 58.703125 56.066406 C 58.683594 55.984375 58.210938 55.429688 57.679688 54.832031 L 56.710938 53.757812 L 55.910156 54.171875 C 55.480469 54.398438 54.988281 54.726562 54.824219 54.933594 C 54.660156 55.117188 53.527344 55.777344 52.277344 56.375 C 49.769531 57.589844 49.730469 57.570312 53.734375 56.953125 Z M 97.382812 55.800781 C 97.835938 55.675781 98.183594 55.46875 98.183594 55.367188 C 98.183594 54.953125 98.863281 54.398438 99.355469 54.398438 C 99.765625 54.398438 99.828125 54.292969 99.828125 53.675781 C 99.828125 53.242188 99.929688 52.933594 100.09375 52.933594 C 100.21875 52.914062 99.703125 52.832031 98.902344 52.730469 C 98.121094 52.644531 97.339844 52.644531 97.15625 52.75 C 96.953125 52.871094 96.765625 53.46875 96.621094 54.480469 C 96.519531 55.34375 96.457031 56.046875 96.5 56.046875 C 96.5625 56.046875 96.953125 55.941406 97.382812 55.800781 Z M 102.703125 51.410156 C 103.03125 50.996094 102.847656 50.8125 102.25 50.957031 C 101.59375 51.121094 101.121094 51.535156 100.976562 52.070312 L 100.832031 52.523438 L 101.632812 52.132812 C 102.066406 51.925781 102.539062 51.59375 102.703125 51.410156 Z M 108.515625 49.988281 C 109.152344 49.742188 109.523438 49.453125 109.582031 49.164062 C 110.097656 47.082031 112.109375 37.398438 112.070312 37.335938 C 112.027344 37.316406 111.453125 37.480469 110.796875 37.726562 C 110.117188 37.976562 109.152344 38.222656 108.617188 38.265625 L 107.632812 38.367188 L 107.632812 37.417969 C 107.632812 36.511719 107.652344 36.492188 108.371094 36.347656 C 108.78125 36.265625 109.316406 35.996094 109.542969 35.730469 C 109.789062 35.421875 110.199219 35.234375 110.527344 35.234375 C 111.042969 35.234375 111.105469 35.152344 111.164062 34.472656 C 111.226562 33.710938 111.246094 33.691406 112.089844 33.628906 L 112.933594 33.566406 L 113.261719 32.082031 C 113.445312 31.277344 113.652344 30.269531 113.710938 29.835938 L 113.835938 29.09375 L 112.890625 28.949219 C 111.988281 28.804688 111.945312 28.765625 111.945312 28.125 C 111.945312 27.34375 112.191406 27.199219 113.488281 27.199219 C 114.347656 27.199219 114.371094 27.179688 114.492188 26.4375 C 114.574219 26.003906 114.679688 25.488281 114.738281 25.304688 C 114.84375 24.972656 114.699219 24.933594 113.652344 24.933594 C 112.273438 24.933594 111.945312 24.707031 111.945312 23.757812 C 111.945312 22.789062 112.625 22.398438 114.144531 22.5 L 115.335938 22.5625 L 115.5625 21.53125 C 115.703125 20.976562 115.828125 20.277344 115.828125 20.007812 L 115.847656 19.511719 L 113.957031 19.636719 C 112.910156 19.71875 111.125 19.90625 109.996094 20.070312 C 106.914062 20.523438 102.621094 20.851562 101.511719 20.6875 L 100.527344 20.5625 L 100.21875 23.40625 C 100.03125 24.992188 99.910156 26.292969 99.929688 26.3125 C 99.949219 26.355469 100.320312 26.1875 100.75 25.960938 C 101.203125 25.734375 101.921875 25.550781 102.351562 25.550781 L 103.132812 25.550781 L 103.074219 26.519531 C 103.011719 27.488281 102.992188 27.527344 101.882812 28.0625 C 101.265625 28.394531 100.546875 28.640625 100.300781 28.640625 C 99.785156 28.640625 99.417969 29.28125 99.417969 30.144531 C 99.417969 30.535156 99.457031 30.535156 100.09375 29.9375 C 100.441406 29.589844 101.265625 29.074219 101.882812 28.765625 C 102.886719 28.3125 103.296875 28.25 105.066406 28.25 C 106.195312 28.25 107.898438 28.125 108.863281 27.941406 C 111.554688 27.445312 111.535156 27.445312 111.535156 28.558594 C 111.535156 29.445312 111.492188 29.507812 110.773438 29.816406 C 110.34375 29.980469 109.5625 30.269531 109.027344 30.433594 C 108.144531 30.679688 108.042969 30.785156 108.042969 31.320312 C 108.042969 31.875 107.980469 31.917969 107.078125 32.042969 C 105.476562 32.246094 105.332031 32.289062 103.894531 33.152344 C 102.765625 33.855469 102.269531 34.019531 101.078125 34.121094 C 100.054688 34.226562 99.539062 34.183594 99.3125 34 C 99.066406 33.792969 99.003906 33.792969 99.003906 34.019531 C 98.984375 34.183594 98.863281 35.277344 98.71875 36.472656 C 98.554688 37.667969 98.472656 38.675781 98.511719 38.71875 C 98.65625 38.882812 100.667969 38.324219 102.25 37.707031 C 104.058594 36.964844 105.1875 36.78125 106.480469 36.964844 C 107.386719 37.109375 107.425781 37.128906 107.425781 37.832031 C 107.425781 38.386719 107.34375 38.53125 107.015625 38.53125 C 106.789062 38.53125 106.605469 38.613281 106.605469 38.71875 C 106.605469 39.273438 105.269531 40.199219 103.875 40.59375 C 103.050781 40.839844 102.003906 41.210938 101.53125 41.4375 C 101.039062 41.644531 100.238281 41.828125 99.746094 41.828125 C 98.183594 41.828125 98.058594 42.035156 97.589844 46.136719 C 97.339844 48.113281 97.175781 49.742188 97.199219 49.78125 C 97.238281 49.804688 97.691406 49.863281 98.226562 49.886719 C 99.128906 49.945312 99.273438 49.886719 99.886719 49.207031 C 100.566406 48.464844 101.65625 48.011719 102.722656 48.011719 C 103.03125 48.011719 103.378906 47.867188 103.523438 47.699219 C 103.8125 47.371094 104.386719 47.332031 105.867188 47.515625 L 106.8125 47.660156 L 106.8125 48.667969 C 106.8125 49.660156 107.097656 50.566406 107.386719 50.441406 C 107.46875 50.398438 107.980469 50.195312 108.515625 49.988281 Z M 45.066406 48.773438 C 45.765625 48.382812 46.6875 47.949219 47.140625 47.804688 C 48.042969 47.515625 50.015625 46.484375 50.613281 45.96875 C 50.816406 45.785156 51.042969 45.496094 51.125 45.3125 C 51.1875 45.125 51.660156 44.652344 52.171875 44.261719 C 52.75 43.828125 53.117188 43.375 53.160156 43.066406 C 53.28125 41.847656 53.425781 41.621094 54.453125 41.066406 C 55.460938 40.488281 55.480469 40.46875 55.378906 39.664062 C 55.316406 39.210938 55.214844 38.015625 55.128906 37.027344 L 55.007812 35.214844 L 54.042969 35.359375 C 53.527344 35.441406 52.75 35.625 52.316406 35.8125 C 51.023438 36.304688 47.859375 35.996094 45.457031 35.109375 C 44.65625 34.824219 44.574219 34.71875 44.574219 34.101562 C 44.574219 33.257812 45.230469 32.699219 47.347656 31.710938 C 48.148438 31.339844 49.214844 30.703125 49.75 30.289062 C 50.324219 29.835938 51.390625 29.320312 52.523438 28.929688 C 53.507812 28.601562 54.351562 28.332031 54.390625 28.3125 C 54.410156 28.3125 54.371094 27.859375 54.308594 27.34375 C 54.1875 26.414062 54.144531 26.375 53.488281 26.375 C 53.097656 26.375 52.789062 26.4375 52.789062 26.539062 C 52.789062 26.621094 52.5 26.992188 52.152344 27.363281 C 51.660156 27.898438 51.371094 28.023438 50.671875 28.042969 C 49.378906 28.0625 49.195312 28.207031 49.195312 29.257812 L 49.195312 30.1875 L 47.960938 30.289062 C 46.832031 30.394531 46.730469 30.433594 46.628906 30.929688 C 46.523438 31.484375 45.4375 32.554688 44.964844 32.554688 C 44.820312 32.554688 44.550781 32.679688 44.386719 32.824219 C 43.832031 33.277344 41.78125 33.855469 41.039062 33.75 L 40.320312 33.667969 L 41.636719 40.078125 C 43.300781 48.296875 43.566406 49.453125 43.710938 49.453125 C 43.773438 49.453125 44.386719 49.144531 45.066406 48.773438 Z M 72.507812 37.191406 C 73.1875 36.617188 74.171875 36.265625 75.710938 36.078125 C 76.699219 35.957031 77.746094 35.667969 78.339844 35.339844 C 78.894531 35.050781 79.65625 34.824219 80.027344 34.824219 C 80.417969 34.824219 81.03125 34.597656 81.484375 34.285156 C 81.914062 34 82.511719 33.710938 82.839844 33.648438 C 83.148438 33.585938 83.457031 33.460938 83.496094 33.378906 C 83.558594 33.296875 83.351562 31.835938 83.085938 30.164062 C 82.800781 28.476562 82.285156 25.46875 81.9375 23.488281 C 81.609375 21.511719 81.277344 19.636719 81.21875 19.328125 L 81.09375 18.75 L 78.671875 18.75 C 76.328125 18.75 76.226562 18.769531 76.164062 19.203125 C 76.125 19.492188 75.734375 19.84375 74.992188 20.234375 C 74.398438 20.5625 73.761719 20.976562 73.578125 21.140625 C 73.125 21.613281 72.386719 21.839844 71.359375 21.839844 L 70.453125 21.839844 L 70.453125 20.957031 C 70.453125 20.277344 70.578125 19.945312 70.96875 19.574219 C 71.253906 19.308594 71.480469 19.019531 71.480469 18.914062 C 71.480469 18.832031 71.007812 18.75 70.433594 18.75 L 69.386719 18.75 L 69.507812 19.945312 C 69.570312 20.585938 69.671875 22.007812 69.734375 23.078125 C 69.898438 25.859375 70.0625 26.992188 70.269531 26.992188 C 70.371094 26.992188 70.453125 26.539062 70.453125 25.984375 C 70.453125 25.097656 70.535156 24.890625 71.089844 24.4375 C 71.625 23.964844 71.914062 23.902344 73.144531 23.902344 C 74.089844 23.902344 74.746094 23.800781 75.054688 23.59375 C 75.425781 23.34375 75.980469 23.285156 77.253906 23.324219 L 78.976562 23.386719 L 78.976562 24.417969 C 78.976562 25.449219 78.976562 25.449219 78.257812 25.507812 C 77.871094 25.53125 77.148438 25.652344 76.679688 25.777344 C 75.898438 25.984375 75.792969 26.085938 75.792969 26.621094 C 75.792969 26.953125 75.917969 27.261719 76.101562 27.324219 C 76.265625 27.40625 76.410156 27.570312 76.410156 27.734375 C 76.410156 28.0625 77.007812 27.980469 78.238281 27.488281 C 78.609375 27.324219 79.449219 27.199219 80.109375 27.199219 C 81.15625 27.199219 81.339844 27.261719 81.628906 27.734375 C 81.832031 28.023438 81.957031 28.539062 81.914062 28.910156 C 81.855469 29.484375 81.75 29.589844 81.136719 29.691406 C 80.746094 29.773438 80.046875 30.023438 79.59375 30.269531 C 78.917969 30.640625 78.464844 30.703125 77.027344 30.679688 C 75.546875 30.640625 75.15625 30.722656 74.460938 31.113281 C 72.941406 31.980469 70.925781 32.96875 70.679688 32.96875 C 70.414062 32.96875 70.390625 33.832031 70.578125 36.140625 L 70.722656 37.707031 L 71.460938 37.582031 C 71.871094 37.5 72.34375 37.335938 72.507812 37.191406 Z M 54.761719 32.722656 C 54.699219 32.453125 54.636719 32.042969 54.636719 31.792969 C 54.636719 31.402344 54.578125 31.359375 54.023438 31.527344 C 53.261719 31.753906 51.761719 32.578125 51.761719 32.78125 C 51.761719 32.886719 52.253906 32.988281 52.851562 33.03125 C 53.425781 33.070312 54.144531 33.113281 54.410156 33.132812 C 54.824219 33.175781 54.863281 33.09375 54.761719 32.722656 Z M 40.671875 31.300781 L 40.9375 30.804688 L 40.421875 31.277344 C 40.035156 31.628906 39.929688 31.898438 40.011719 32.308594 L 40.117188 32.867188 L 40.257812 32.328125 C 40.339844 32.042969 40.527344 31.585938 40.671875 31.300781 Z M 43.421875 29.960938 C 44.101562 29.691406 44.820312 29.464844 45.023438 29.464844 C 45.230469 29.464844 45.394531 29.382812 45.394531 29.257812 C 45.394531 29.15625 45.3125 29.054688 45.210938 29.054688 C 44.941406 29.054688 41.71875 30.25 41.308594 30.496094 C 40.773438 30.847656 42.046875 30.496094 43.421875 29.960938 Z M 40.320312 26.746094 L 40.894531 26.539062 L 40.484375 26.085938 C 40.21875 25.796875 40.054688 25.34375 40.054688 24.871094 C 40.054688 24.191406 40.136719 24.085938 40.835938 23.800781 C 41.246094 23.613281 41.699219 23.367188 41.800781 23.203125 C 42.085938 22.832031 44.53125 21.78125 46.730469 21.101562 C 47.757812 20.769531 48.886719 20.296875 49.277344 20.027344 C 49.667969 19.78125 50.199219 19.511719 50.46875 19.453125 C 50.734375 19.367188 50.941406 19.203125 50.941406 19.039062 C 50.941406 18.792969 49.8125 18.75 44.164062 18.75 C 38.453125 18.75 37.382812 18.792969 37.382812 19.039062 C 37.382812 19.285156 38.59375 25.34375 38.925781 26.746094 C 39.007812 27.117188 39.128906 27.199219 39.398438 27.097656 C 39.582031 27.011719 40.011719 26.847656 40.320312 26.746094 Z M 48.660156 25.222656 C 50.714844 24.625 50.941406 24.5 49.894531 24.625 C 49.378906 24.664062 48.496094 24.890625 47.941406 25.117188 C 46.710938 25.613281 47.097656 25.675781 48.660156 25.222656 Z M 53.609375 19.882812 C 53.609375 19.71875 53.46875 19.574219 53.300781 19.574219 C 52.972656 19.574219 52.890625 19.820312 53.136719 20.050781 C 53.363281 20.296875 53.609375 20.214844 53.609375 19.882812 Z M 53.609375 19.882812 "/>
<path style=" stroke:none;fill-rule:nonzero;fill:rgb(51.764706%,45.098039%,30.588235%);fill-opacity:1;" d="M 78.09375 116.667969 L 76.617188 115.265625 L 78.363281 112.566406 L 80.128906 109.867188 L 81.136719 101.953125 C 81.667969 97.628906 82.203125 93.589844 82.265625 93.011719 L 82.410156 91.980469 L 78.855469 91.15625 C 76.042969 90.496094 75.261719 90.394531 75.21875 90.601562 C 75.179688 90.765625 75.546875 93.21875 76.019531 96.082031 L 76.902344 101.273438 L 79.285156 104.984375 L 78.054688 106.15625 L 76.820312 107.332031 L 74.109375 106.035156 C 72.609375 105.3125 70.945312 104.53125 70.433594 104.261719 L 69.46875 103.789062 L 69.34375 102.324219 C 69.058594 99.109375 68.398438 88.828125 68.398438 87.675781 L 68.398438 86.4375 L 70.96875 84.730469 C 72.386719 83.800781 73.679688 83.039062 73.824219 83.039062 C 73.964844 83.039062 75.917969 83.71875 78.175781 84.5625 C 80.417969 85.386719 82.46875 86.128906 82.695312 86.210938 C 83.105469 86.335938 83.148438 86.253906 83.269531 85.058594 C 83.539062 82.585938 83.105469 82.832031 87.316406 82.832031 C 89.804688 82.832031 90.996094 82.894531 90.996094 83.058594 C 90.996094 83.265625 88.632812 97.339844 86.988281 107.023438 L 86.269531 111.125 L 84.339844 113.101562 C 83.292969 114.195312 81.792969 115.738281 81.011719 116.5625 L 79.59375 118.046875 Z M 78.09375 116.667969 "/>
<path style=" stroke:none;fill-rule:nonzero;fill:rgb(51.764706%,45.098039%,30.588235%);fill-opacity:1;" d="M 106.769531 116.6875 C 105.988281 115.902344 105.371094 115.222656 105.371094 115.140625 C 105.371094 115.058594 106.132812 113.863281 107.035156 112.464844 L 108.722656 109.949219 L 110.425781 96.535156 C 111.371094 89.179688 112.152344 83.082031 112.152344 82.996094 C 112.152344 82.894531 113.816406 82.832031 115.847656 82.832031 C 119.441406 82.832031 119.546875 82.851562 119.546875 83.265625 C 119.546875 83.492188 119.320312 84.996094 119.03125 86.605469 C 117.699219 94.414062 115.171875 109.414062 115.066406 110.238281 C 114.964844 111.101562 114.761719 111.371094 111.554688 114.625 L 108.144531 118.089844 Z M 106.769531 116.6875 "/>
<path style=" stroke:none;fill-rule:nonzero;fill:rgb(51.764706%,45.098039%,30.588235%);fill-opacity:1;" d="M 22.59375 105.558594 C 20.621094 104.613281 18.980469 103.808594 18.980469 103.789062 C 18.898438 103.707031 17.664062 84.707031 17.664062 83.800781 L 17.664062 82.8125 L 20.480469 82.875 L 23.292969 82.9375 L 23.457031 83.863281 C 24.402344 89.261719 26.148438 99.605469 26.230469 100.246094 C 26.292969 100.757812 26.824219 101.851562 27.566406 103.085938 L 28.796875 105.105469 L 27.605469 106.21875 C 26.929688 106.839844 26.351562 107.332031 26.292969 107.332031 C 26.230469 107.3125 24.566406 106.527344 22.59375 105.558594 Z M 22.59375 105.558594 "/>
<path style=" stroke:none;fill-rule:nonzero;fill:rgb(51.764706%,45.098039%,30.588235%);fill-opacity:1;" d="M 41.082031 107.125 C 41.082031 107.023438 41.53125 104.820312 42.085938 102.242188 C 42.640625 99.667969 43.402344 96.183594 43.773438 94.476562 C 44.121094 92.785156 44.46875 91.28125 44.550781 91.15625 C 44.613281 91.035156 46.050781 89.695312 47.757812 88.191406 C 51.226562 85.097656 51.125 85.097656 50.753906 87.984375 C 50.632812 88.953125 50.117188 93.402344 49.605469 97.875 C 49.09375 102.347656 48.621094 106.324219 48.558594 106.695312 L 48.457031 107.351562 L 44.777344 107.351562 C 42.3125 107.351562 41.082031 107.269531 41.082031 107.125 Z M 41.082031 107.125 "/>
<path style=" stroke:none;fill-rule:nonzero;fill:rgb(51.764706%,45.098039%,30.588235%);fill-opacity:1;" d="M 56.507812 106.28125 C 56.382812 105.683594 55.726562 101.851562 55.046875 97.773438 C 54.351562 93.691406 53.734375 90.023438 53.671875 89.632812 C 53.589844 89.242188 52.996094 88.085938 52.335938 87.058594 L 51.125 85.203125 L 52.316406 84.132812 C 52.972656 83.535156 53.609375 83.039062 53.714844 83.039062 C 53.835938 83.039062 55.4375 83.78125 57.289062 84.6875 C 59.136719 85.59375 60.71875 86.335938 60.800781 86.335938 C 61.046875 86.335938 61.128906 87.367188 61.722656 96.535156 C 62.011719 100.964844 62.300781 105.191406 62.359375 105.972656 L 62.503906 107.351562 L 56.710938 107.351562 Z M 56.507812 106.28125 "/>
<path style=" stroke:none;fill-rule:nonzero;fill:rgb(51.764706%,45.098039%,30.588235%);fill-opacity:1;" d="M 101.714844 105.582031 C 99.765625 104.613281 98.121094 103.726562 98.082031 103.582031 C 97.976562 103.292969 96.746094 84.957031 96.746094 83.71875 L 96.746094 82.832031 L 102.394531 82.832031 L 103.914062 91.859375 C 104.734375 96.804688 105.539062 101.089844 105.660156 101.378906 C 105.804688 101.664062 106.359375 102.613281 106.914062 103.5 L 107.898438 105.085938 L 106.6875 106.21875 C 106.03125 106.839844 105.433594 107.332031 105.371094 107.332031 C 105.3125 107.332031 103.667969 106.527344 101.714844 105.582031 Z M 101.714844 105.582031 "/>
<path style=" stroke:none;fill-rule:nonzero;fill:rgb(51.764706%,45.098039%,30.588235%);fill-opacity:1;" d="M 143.988281 105.582031 C 142.039062 104.632812 140.375 103.789062 140.332031 103.746094 C 140.269531 103.683594 139.964844 99.730469 139.65625 94.949219 C 139.347656 90.148438 139.019531 85.46875 138.9375 84.542969 L 138.8125 82.832031 L 144.5625 82.832031 L 144.6875 83.410156 C 144.75 83.71875 145.261719 86.707031 145.835938 90.042969 C 146.390625 93.382812 147.070312 97.277344 147.296875 98.699219 C 147.726562 101.171875 147.789062 101.355469 148.917969 103.148438 L 150.109375 105.046875 L 149.246094 105.847656 C 147.480469 107.519531 148.035156 107.539062 143.988281 105.582031 Z M 143.988281 105.582031 "/>
<path style=" stroke:none;fill-rule:nonzero;fill:rgb(51.764706%,45.098039%,30.588235%);fill-opacity:1;" d="M 9.757812 103.519531 C 8.277344 102.324219 7.023438 101.191406 6.941406 101.007812 C 6.859375 100.820312 6.511719 99.277344 6.164062 97.566406 C 5.832031 95.875 5.054688 91.980469 4.417969 88.910156 C 3.800781 85.863281 3.285156 83.222656 3.285156 83.101562 C 3.285156 82.894531 4.191406 82.832031 7.167969 82.832031 L 11.050781 82.832031 L 11.277344 85.46875 C 11.421875 86.914062 11.730469 90.414062 11.996094 93.257812 L 12.449219 98.453125 L 14.582031 100.863281 C 15.773438 102.179688 16.90625 103.480469 17.109375 103.746094 L 17.460938 104.222656 L 15.261719 104.960938 C 14.027344 105.375 12.898438 105.703125 12.734375 105.683594 C 12.570312 105.683594 11.234375 104.714844 9.757812 103.519531 Z M 9.757812 103.519531 "/>
<path style=" stroke:none;fill-rule:nonzero;fill:rgb(51.764706%,45.098039%,30.588235%);fill-opacity:1;" d="M 131.007812 103.4375 C 129.445312 102.179688 128.171875 101.089844 128.171875 101.007812 C 128.171875 100.925781 127.660156 98.347656 127.042969 95.277344 C 124.496094 82.914062 124.515625 83.019531 124.761719 82.914062 C 124.886719 82.875 126.652344 82.851562 128.6875 82.875 L 132.382812 82.9375 L 132.628906 85.820312 C 133.71875 98.164062 133.738281 98.390625 134.109375 98.800781 C 134.664062 99.441406 137.847656 103.066406 138.402344 103.664062 L 138.894531 104.222656 L 136.574219 104.960938 C 135.300781 105.375 134.148438 105.703125 134.046875 105.703125 C 133.925781 105.703125 132.546875 104.675781 131.007812 103.4375 Z M 131.007812 103.4375 "/>
<path style=" stroke:none;fill-rule:nonzero;fill:rgb(51.764706%,45.098039%,30.588235%);fill-opacity:1;" d="M 29.578125 99.730469 C 29.578125 99.503906 29.988281 95.730469 30.503906 91.34375 C 31.015625 86.953125 31.425781 83.246094 31.425781 83.101562 C 31.425781 82.894531 32.207031 82.832031 35.105469 82.832031 C 37.136719 82.832031 38.84375 82.894531 38.882812 82.996094 C 38.925781 83.082031 38.207031 86.542969 37.300781 90.726562 L 35.660156 98.285156 L 32.84375 99.214844 C 31.285156 99.730469 29.90625 100.140625 29.804688 100.140625 C 29.679688 100.140625 29.578125 99.957031 29.578125 99.730469 Z M 29.578125 99.730469 "/>
<path style=" stroke:none;fill-rule:nonzero;fill:rgb(51.764706%,45.098039%,30.588235%);fill-opacity:1;" d="M 83.25 70.550781 C 80.394531 69.152344 78.054688 67.976562 78.054688 67.933594 C 78.054688 67.707031 79.164062 66.429688 79.554688 66.203125 C 79.800781 66.058594 80.4375 65.957031 80.949219 65.9375 C 82.304688 65.9375 82.675781 65.585938 82.675781 64.246094 C 82.675781 63.195312 82.695312 63.132812 83.4375 62.785156 C 84.441406 62.289062 89.886719 61.691406 90.277344 62.023438 C 90.5625 62.25 94.074219 67.832031 94.074219 68.039062 C 94.074219 68.121094 89.515625 72.242188 88.734375 72.839844 C 88.488281 73.046875 87.421875 72.613281 83.25 70.550781 Z M 83.25 70.550781 "/>
<path style=" stroke:none;fill-rule:nonzero;fill:rgb(51.764706%,45.098039%,30.588235%);fill-opacity:1;" d="M 53.917969 66.636719 C 51.886719 64.988281 50.078125 63.566406 49.914062 63.464844 C 49.667969 63.300781 49.730469 63.175781 50.285156 62.742188 C 50.652344 62.433594 50.941406 62 50.941406 61.753906 C 50.941406 61.339844 51.023438 61.300781 52.050781 61.363281 C 52.789062 61.425781 53.324219 61.339844 53.652344 61.136719 C 53.898438 60.972656 54.433594 60.765625 54.800781 60.683594 C 55.460938 60.539062 56.609375 59.777344 57.800781 58.664062 C 58.128906 58.355469 58.726562 58.023438 59.136719 57.902344 C 59.546875 57.796875 60.101562 57.550781 60.367188 57.363281 C 60.839844 57.035156 60.863281 57.035156 61.621094 57.921875 L 62.402344 58.828125 L 61.910156 59.09375 C 61.003906 59.589844 61.601562 60.230469 62.566406 59.796875 C 63.019531 59.570312 63.203125 59.734375 65.832031 62.679688 C 67.351562 64.390625 68.605469 65.855469 68.605469 65.914062 C 68.605469 66.039062 57.945312 69.667969 57.71875 69.625 C 57.65625 69.625 55.953125 68.265625 53.917969 66.636719 Z M 53.917969 66.636719 "/>
<path style=" stroke:none;fill-rule:nonzero;fill:rgb(51.764706%,45.098039%,30.588235%);fill-opacity:1;" d="M 73.410156 65.792969 C 71.707031 64.925781 71.808594 65.234375 71.5625 60.433594 C 71.441406 58.023438 71.460938 57.695312 71.75 57.695312 C 71.933594 57.695312 72.199219 57.839844 72.386719 58.003906 C 72.816406 58.4375 73.433594 58.394531 74.417969 57.816406 C 74.890625 57.550781 75.652344 57.261719 76.101562 57.179688 C 77.109375 57.015625 78.257812 56.273438 78.257812 55.800781 C 78.257812 55.53125 78.773438 55.285156 80.375 54.789062 C 82.613281 54.089844 82.984375 53.882812 82.984375 53.449219 C 82.984375 53.015625 82.164062 53.097656 80.582031 53.65625 C 79.820312 53.945312 78.21875 54.417969 77.046875 54.707031 C 75.875 54.996094 74.644531 55.386719 74.335938 55.550781 C 74.007812 55.714844 73.207031 55.902344 72.527344 55.964844 L 71.316406 56.109375 L 71.195312 54.6875 C 71.132812 53.902344 71.027344 52.460938 70.945312 51.492188 L 70.824219 49.71875 L 71.417969 49.804688 C 72.40625 49.945312 73.761719 49.472656 74.519531 48.710938 C 74.910156 48.320312 75.320312 48.011719 75.464844 48.011719 C 75.835938 48.011719 76.65625 46.816406 76.574219 46.402344 C 76.429688 45.597656 73 45.144531 71.132812 45.660156 C 70.578125 45.824219 70.515625 45.621094 70.351562 42.652344 L 70.207031 40.261719 L 71.195312 39.789062 C 71.914062 39.417969 72.570312 39.273438 73.617188 39.253906 C 75.507812 39.191406 77.375 38.675781 78.875 37.789062 C 79.53125 37.398438 80.210938 37.089844 80.394531 37.089844 C 80.558594 37.089844 80.886719 36.820312 81.136719 36.492188 C 81.464844 36.019531 81.773438 35.851562 82.53125 35.75 C 83.066406 35.667969 83.742188 35.542969 84.050781 35.441406 C 84.710938 35.234375 84.585938 34.882812 85.429688 39.871094 C 85.859375 42.40625 85.960938 43.414062 85.777344 43.496094 C 83.992188 44.527344 83.765625 44.796875 83.949219 45.515625 C 84.050781 45.886719 84.214844 45.949219 85.265625 45.949219 C 85.941406 45.949219 86.476562 45.992188 86.476562 46.050781 C 86.476562 46.09375 86.703125 47.472656 86.988281 49.082031 C 87.585938 52.542969 87.585938 52.335938 87.195312 52.335938 C 86.785156 52.335938 86.414062 53.078125 86.578125 53.59375 C 86.761719 54.128906 86.25 54.6875 84.296875 56.167969 C 83.496094 56.789062 82.492188 57.695312 82.078125 58.1875 C 81.667969 58.703125 80.972656 59.324219 80.519531 59.570312 C 79.863281 59.941406 79.738281 60.125 79.820312 60.476562 C 79.902344 60.847656 79.800781 60.992188 79.203125 61.28125 C 78.8125 61.464844 78.054688 61.710938 77.5 61.816406 C 74.851562 62.371094 74.5 62.535156 74.027344 63.421875 C 73.597656 64.246094 73.597656 64.246094 73.988281 64.351562 C 74.214844 64.410156 75.238281 64.410156 76.265625 64.351562 L 78.15625 64.226562 L 77.644531 64.742188 C 77.355469 65.03125 76.863281 65.320312 76.554688 65.402344 C 76.226562 65.484375 75.875 65.75 75.753906 66.039062 C 75.445312 66.71875 75.15625 66.679688 73.410156 65.792969 Z M 73.410156 65.792969 "/>
<path style=" stroke:none;fill-rule:nonzero;fill:rgb(51.764706%,45.098039%,30.588235%);fill-opacity:1;" d="M 46.074219 60.351562 C 44.632812 59.21875 44.429688 58.640625 45.351562 58.292969 C 45.660156 58.167969 46.132812 57.941406 46.421875 57.796875 C 46.710938 57.652344 47.386719 57.445312 47.921875 57.304688 C 49.175781 56.992188 53.550781 54.914062 54.226562 54.292969 C 54.515625 54.046875 55.273438 53.554688 55.933594 53.203125 C 57.0625 52.605469 57.125 52.605469 57.328125 52.976562 C 57.429688 53.203125 58.128906 54.046875 58.871094 54.851562 L 60.183594 56.335938 L 59.671875 56.625 C 59.382812 56.765625 58.664062 56.933594 58.066406 56.972656 C 57.472656 57.015625 56.363281 57.179688 55.5625 57.363281 C 54.78125 57.550781 53.878906 57.695312 53.570312 57.695312 C 53.261719 57.695312 52.953125 57.777344 52.890625 57.902344 C 52.832031 58.003906 52.378906 58.085938 51.90625 58.085938 C 49.03125 58.085938 48.886719 58.148438 48.886719 59.550781 C 48.886719 60.621094 48.351562 61.402344 47.675781 61.402344 C 47.488281 61.382812 46.769531 60.929688 46.074219 60.351562 Z M 46.074219 60.351562 "/>
<path style=" stroke:none;fill-rule:nonzero;fill:rgb(51.764706%,45.098039%,30.588235%);fill-opacity:1;" d="M 84.484375 60.167969 C 84.214844 60.0625 84.011719 59.878906 84.011719 59.753906 C 84.011719 59.652344 84.957031 58.847656 86.125 57.984375 L 88.222656 56.394531 L 88.46875 57.714844 C 88.613281 58.4375 88.671875 59.136719 88.632812 59.28125 C 88.53125 59.609375 86.371094 60.375 85.59375 60.351562 C 85.222656 60.351562 84.730469 60.269531 84.484375 60.167969 Z M 84.484375 60.167969 "/>
<path style=" stroke:none;fill-rule:nonzero;fill:rgb(51.764706%,45.098039%,30.588235%);fill-opacity:1;" d="M 95.738281 56.3125 C 95.738281 55.882812 95.863281 54.789062 95.984375 53.882812 L 96.234375 52.253906 L 97.257812 51.882812 C 98.144531 51.574219 98.308594 51.554688 98.59375 51.820312 C 98.78125 51.988281 99.191406 52.132812 99.5 52.132812 C 99.929688 52.132812 100.113281 51.988281 100.339844 51.429688 C 100.691406 50.605469 101.492188 50.234375 102.722656 50.316406 C 103.605469 50.378906 103.628906 50.398438 103.585938 51.058594 C 103.542969 51.964844 103.277344 52.234375 101.738281 52.996094 C 101.039062 53.328125 100.441406 53.738281 100.441406 53.902344 C 100.441406 54.273438 100.464844 54.273438 101.59375 53.675781 C 102.558594 53.160156 104.140625 52.976562 104.140625 53.367188 C 104.140625 53.636719 102.601562 54.769531 101.757812 55.140625 C 101.265625 55.34375 100.957031 55.367188 100.382812 55.179688 C 99.722656 54.976562 99.558594 54.996094 99.210938 55.324219 C 98.984375 55.53125 98.800781 55.800781 98.800781 55.941406 C 98.800781 56.128906 96.355469 57.078125 95.863281 57.078125 C 95.78125 57.078125 95.71875 56.726562 95.738281 56.3125 Z M 95.738281 56.3125 "/>
<path style=" stroke:none;fill-rule:nonzero;fill:rgb(51.764706%,45.098039%,30.588235%);fill-opacity:1;" d="M 44.921875 54.890625 C 44.984375 54.707031 45.785156 54.210938 46.6875 53.757812 C 47.59375 53.328125 48.457031 52.851562 48.597656 52.730469 C 48.824219 52.542969 48.886719 52.585938 48.886719 52.933594 C 48.886719 53.304688 48.96875 53.347656 49.460938 53.242188 C 49.769531 53.160156 50.261719 52.976562 50.589844 52.8125 C 51.0625 52.5625 51.144531 52.5625 51.144531 52.851562 C 51.144531 53.242188 49.832031 53.902344 47.550781 54.625 C 45.394531 55.304688 44.738281 55.386719 44.921875 54.890625 Z M 44.921875 54.890625 "/>
<path style=" stroke:none;fill-rule:nonzero;fill:rgb(51.764706%,45.098039%,30.588235%);fill-opacity:1;" d="M 52.5625 51.863281 C 52.996094 51.328125 55.070312 50.421875 55.296875 50.648438 C 55.5625 50.914062 53.980469 51.863281 52.972656 52.070312 C 52.335938 52.191406 52.296875 52.171875 52.5625 51.863281 Z M 52.5625 51.863281 "/>
<path style=" stroke:none;fill-rule:nonzero;fill:rgb(51.764706%,45.098039%,30.588235%);fill-opacity:1;" d="M 106.398438 50.710938 C 106.296875 50.484375 106.195312 49.84375 106.195312 49.289062 L 106.195312 48.277344 L 105.332031 48.15625 C 104.714844 48.070312 104.347656 48.132812 104.121094 48.339844 C 103.957031 48.503906 103.585938 48.628906 103.296875 48.628906 C 102.210938 48.628906 101.164062 49.101562 100.421875 49.925781 C 99.722656 50.6875 99.601562 50.730469 98.820312 50.625 C 98.347656 50.566406 97.648438 50.625 97.257812 50.75 C 96.871094 50.875 96.5 50.914062 96.4375 50.875 C 96.398438 50.8125 96.582031 48.773438 96.871094 46.339844 C 97.464844 41.335938 97.507812 41.210938 99.128906 41.210938 C 99.621094 41.210938 100.421875 41.023438 100.914062 40.820312 C 101.386719 40.59375 102.4375 40.222656 103.257812 39.972656 C 104.652344 39.582031 105.988281 38.65625 105.988281 38.097656 C 105.988281 37.996094 106.195312 37.914062 106.460938 37.894531 C 106.769531 37.871094 106.667969 37.808594 106.152344 37.667969 C 105.332031 37.460938 105.085938 37.5 101.675781 38.71875 C 100.585938 39.109375 99.519531 39.355469 98.863281 39.355469 C 97.566406 39.355469 97.628906 39.601562 98.082031 35.851562 C 98.265625 34.410156 98.511719 33.214844 98.65625 33.132812 C 99.046875 32.886719 99.558594 32.949219 99.828125 33.277344 C 100.238281 33.792969 101.777344 33.441406 103.320312 32.515625 C 104.714844 31.671875 104.859375 31.628906 106.460938 31.421875 C 107.367188 31.300781 107.425781 31.257812 107.425781 30.703125 C 107.425781 30.164062 107.53125 30.0625 108.414062 29.816406 C 110.015625 29.320312 110.917969 28.886719 110.917969 28.578125 C 110.917969 28.351562 110.691406 28.351562 109.441406 28.578125 C 108.617188 28.746094 106.871094 28.886719 105.578125 28.929688 C 103.523438 28.992188 103.074219 29.074219 102.167969 29.527344 C 101.613281 29.816406 100.957031 30.269531 100.730469 30.515625 C 100.277344 31.011719 99.375 31.527344 98.921875 31.527344 C 98.65625 31.527344 98.613281 31.320312 98.738281 30.25 C 98.902344 28.496094 99.109375 28.023438 99.640625 28.023438 C 100.277344 28.023438 102.292969 27.035156 102.4375 26.664062 C 102.660156 26.066406 102.292969 26.128906 100.773438 26.910156 C 99.910156 27.34375 99.191406 27.652344 99.148438 27.609375 C 99.085938 27.550781 99.292969 25.425781 99.601562 22.871094 L 100.136719 18.234375 L 101.429688 18.171875 C 102.210938 18.132812 102.703125 18.195312 102.703125 18.339844 C 102.703125 18.441406 102.539062 18.542969 102.332031 18.542969 C 101.882812 18.542969 101.265625 19.164062 101.265625 19.617188 C 101.265625 19.820312 101.511719 19.964844 101.941406 20.050781 C 102.765625 20.171875 106.667969 19.863281 109.378906 19.453125 C 110.507812 19.285156 112.398438 19.101562 113.589844 19.039062 C 114.78125 18.976562 115.992188 18.832031 116.320312 18.75 C 116.710938 18.628906 116.875 18.628906 116.875 18.8125 C 116.855469 19.183594 115.910156 23.285156 115.828125 23.367188 C 115.785156 23.40625 115.253906 23.367188 114.65625 23.261719 C 113.753906 23.097656 113.464844 23.117188 113.035156 23.386719 C 112.625 23.675781 112.582031 23.777344 112.789062 24.046875 C 112.992188 24.273438 113.363281 24.335938 114.347656 24.273438 C 115.847656 24.167969 115.808594 24.066406 115.273438 26.375 L 114.902344 27.921875 L 114.0625 27.859375 C 113.589844 27.816406 113.035156 27.878906 112.851562 27.980469 C 112.582031 28.125 112.707031 28.207031 113.40625 28.3125 C 113.898438 28.394531 114.410156 28.519531 114.535156 28.601562 C 114.679688 28.703125 114 32.207031 112.460938 39.417969 C 111.1875 45.289062 110.117188 50.113281 110.078125 50.152344 C 110.035156 50.195312 109.542969 50.421875 108.988281 50.667969 C 107.714844 51.222656 106.6875 51.246094 106.398438 50.710938 Z M 110.261719 37.070312 C 110.960938 36.820312 111.535156 36.554688 111.535156 36.472656 C 111.535156 36.390625 111.308594 36.222656 111.042969 36.101562 C 110.632812 35.914062 110.488281 35.957031 110.136719 36.347656 C 109.914062 36.617188 109.398438 36.882812 108.988281 36.964844 C 108.515625 37.046875 108.25 37.214844 108.25 37.441406 C 108.25 37.789062 108.25 37.789062 110.261719 37.070312 Z M 112.664062 35.007812 C 113.507812 34.515625 113.382812 34.121094 112.4375 34.246094 C 111.964844 34.285156 111.824219 34.429688 111.78125 34.882812 C 111.699219 35.566406 111.71875 35.566406 112.664062 35.007812 Z M 112.664062 35.007812 "/>
<path style=" stroke:none;fill-rule:nonzero;fill:rgb(51.764706%,45.098039%,30.588235%);fill-opacity:1;" d="M 43.03125 50.441406 C 42.847656 49.886719 39.234375 31.957031 39.234375 31.566406 C 39.234375 30.804688 40.671875 29.796875 42.722656 29.074219 C 43.792969 28.722656 44.921875 28.289062 45.230469 28.125 C 45.558594 27.960938 46.09375 27.878906 46.503906 27.960938 C 46.957031 28.023438 47.777344 27.898438 48.703125 27.609375 C 49.523438 27.363281 50.367188 27.21875 50.570312 27.261719 C 50.816406 27.34375 51.167969 27.136719 51.558594 26.726562 C 51.90625 26.355469 52.171875 26.003906 52.171875 25.921875 C 52.171875 25.816406 52.480469 25.757812 52.851562 25.757812 C 53.199219 25.757812 53.773438 25.613281 54.105469 25.449219 C 54.433594 25.261719 54.71875 25.160156 54.761719 25.179688 C 54.78125 25.222656 54.863281 26.085938 54.945312 27.097656 L 55.089844 28.949219 L 53.199219 29.546875 C 51.988281 29.9375 51.003906 30.394531 50.367188 30.90625 C 49.832031 31.320312 48.761719 31.957031 47.960938 32.328125 C 47.179688 32.699219 46.214844 33.234375 45.824219 33.523438 L 45.128906 34.058594 L 45.621094 34.328125 C 46.339844 34.699219 48.371094 35.195312 49.8125 35.339844 C 50.695312 35.441406 51.25 35.378906 51.761719 35.171875 C 52.152344 35.007812 53.035156 34.800781 53.714844 34.71875 C 54.390625 34.636719 55.089844 34.535156 55.273438 34.492188 C 55.5625 34.410156 55.644531 34.824219 55.828125 37.253906 C 56.179688 41.335938 56.238281 41.023438 55.046875 41.683594 C 54.472656 42.015625 54.023438 42.324219 54 42.40625 C 53.855469 44.074219 53.671875 44.382812 52.441406 45.144531 C 52.070312 45.371094 51.761719 45.683594 51.761719 45.824219 C 51.761719 46.382812 49.441406 47.886719 47.757812 48.421875 C 47.304688 48.566406 46.132812 49.144531 45.128906 49.699219 C 43.136719 50.792969 43.15625 50.792969 43.03125 50.441406 Z M 42.476562 32.78125 C 43.074219 32.578125 43.667969 32.308594 43.8125 32.164062 C 43.9375 32.042969 44.183594 31.9375 44.367188 31.9375 C 44.921875 31.917969 46.074219 30.761719 45.929688 30.394531 C 45.785156 29.980469 45.621094 30 43.195312 30.847656 C 41.738281 31.339844 41.472656 31.503906 41.203125 32.101562 C 40.894531 32.742188 40.917969 33.175781 41.246094 33.175781 C 41.328125 33.152344 41.882812 32.988281 42.476562 32.78125 Z M 48.578125 29.28125 C 48.578125 28.683594 47.984375 28.601562 46.996094 29.054688 C 46.441406 29.28125 46.011719 29.546875 46.011719 29.628906 C 46.011719 29.710938 46.585938 29.734375 47.285156 29.671875 C 48.207031 29.589844 48.578125 29.484375 48.578125 29.28125 Z M 48.578125 29.28125 "/>
<path style=" stroke:none;fill-rule:nonzero;fill:rgb(51.764706%,45.098039%,30.588235%);fill-opacity:1;" d="M 70.761719 48.339844 C 70.515625 47.0625 70.640625 46.917969 72.40625 46.402344 C 74.191406 45.886719 75.21875 45.96875 75.34375 46.628906 C 75.40625 46.917969 75.261719 46.980469 74.625 46.980469 C 73.84375 46.980469 72.960938 47.433594 71.441406 48.628906 L 70.886719 49.0625 Z M 70.761719 48.339844 "/>
<path style=" stroke:none;fill-rule:nonzero;fill:rgb(51.764706%,45.098039%,30.588235%);fill-opacity:1;" d="M 70.167969 38.757812 C 70.105469 38.65625 70.003906 37.191406 69.921875 35.460938 C 69.796875 32.988281 69.835938 32.351562 70.042969 32.351562 C 70.289062 32.351562 72.136719 31.445312 73.742188 30.558594 C 74.765625 29.980469 76.207031 29.652344 76.636719 29.898438 C 77.253906 30.226562 78.15625 30.105469 79.164062 29.570312 C 79.699219 29.28125 80.335938 29.054688 80.601562 29.054688 C 81.257812 29.054688 81.359375 28.867188 80.992188 28.3125 C 80.804688 28.023438 80.476562 27.816406 80.191406 27.816406 C 79.738281 27.816406 77.5625 28.433594 76.472656 28.847656 C 76.101562 28.992188 76 28.949219 75.875 28.578125 C 75.792969 28.332031 75.589844 28.023438 75.425781 27.898438 C 75.261719 27.777344 75.117188 27.382812 75.117188 27.011719 C 75.117188 26.210938 74.726562 26.167969 74.046875 26.910156 C 73.597656 27.40625 73.515625 27.425781 73.125 27.136719 C 72.734375 26.871094 72.570312 26.871094 71.625 27.238281 C 71.027344 27.464844 70.308594 27.777344 70.003906 27.941406 C 69.570312 28.148438 69.425781 28.148438 69.425781 27.960938 C 69.425781 27.816406 69.285156 25.859375 69.117188 23.59375 C 68.953125 21.328125 68.8125 19.164062 68.8125 18.792969 L 68.8125 18.113281 L 70.925781 18.171875 C 73 18.234375 73.023438 18.234375 73.023438 18.75 C 73.023438 19.082031 72.898438 19.285156 72.652344 19.328125 C 72.199219 19.410156 71.089844 20.585938 71.070312 20.976562 C 71.070312 21.101562 71.214844 21.222656 71.398438 21.222656 C 71.832031 21.222656 73.125 20.605469 73.125 20.398438 C 73.125 20.316406 73.515625 20.050781 74.007812 19.820312 C 75.179688 19.265625 75.773438 18.75 75.445312 18.628906 C 74.625 18.277344 75.527344 18.132812 78.445312 18.132812 L 81.710938 18.132812 L 81.832031 18.6875 C 81.976562 19.453125 82.59375 22.976562 83.496094 28.433594 C 83.90625 30.867188 84.277344 33.113281 84.339844 33.421875 C 84.441406 33.917969 84.378906 34 83.640625 34.183594 C 83.1875 34.308594 82.492188 34.636719 82.078125 34.925781 C 81.648438 35.214844 81.03125 35.441406 80.640625 35.441406 C 80.273438 35.441406 79.511719 35.667969 78.957031 35.957031 C 78.363281 36.285156 77.316406 36.574219 76.328125 36.699219 C 74.808594 36.882812 73.308594 37.441406 73.023438 37.914062 C 72.960938 38.015625 72.691406 38.121094 72.445312 38.121094 C 72.199219 38.121094 71.605469 38.304688 71.132812 38.53125 C 70.640625 38.738281 70.207031 38.839844 70.167969 38.757812 Z M 72.117188 26.085938 C 72.507812 25.921875 73.328125 25.734375 73.945312 25.652344 C 74.5625 25.570312 75.300781 25.40625 75.589844 25.304688 C 75.875 25.179688 76.617188 25.035156 77.234375 24.953125 C 78.175781 24.851562 78.363281 24.765625 78.363281 24.417969 C 78.363281 24.066406 78.199219 24.003906 77.253906 23.941406 C 76.410156 23.902344 76 23.964844 75.609375 24.273438 C 75.199219 24.5625 74.765625 24.644531 73.679688 24.601562 C 72.445312 24.5625 72.199219 24.625 71.6875 25.078125 C 71.335938 25.363281 71.070312 25.757812 71.070312 25.984375 C 71.070312 26.457031 71.214844 26.457031 72.117188 26.085938 Z M 72.117188 26.085938 "/>
<path style=" stroke:none;fill-rule:nonzero;fill:rgb(51.764706%,45.098039%,30.588235%);fill-opacity:1;" d="M 52.234375 33.648438 C 51.308594 33.585938 51.144531 33.503906 51.144531 33.152344 C 51.144531 32.949219 51.003906 32.761719 50.835938 32.761719 C 50.222656 32.761719 50.550781 32.371094 51.699219 31.710938 C 52.890625 31.03125 54.964844 30.414062 55.152344 30.703125 C 55.191406 30.785156 55.316406 31.527344 55.378906 32.328125 L 55.519531 33.792969 L 54.410156 33.75 C 53.796875 33.730469 52.808594 33.691406 52.234375 33.648438 Z M 52.234375 33.648438 "/>
<path style=" stroke:none;fill-rule:nonzero;fill:rgb(51.764706%,45.098039%,30.588235%);fill-opacity:1;" d="M 38.410156 28.0625 C 38.410156 27.960938 37.957031 25.695312 37.40625 23.015625 L 36.398438 18.132812 L 44.59375 18.132812 C 49.113281 18.132812 52.789062 18.171875 52.789062 18.234375 C 52.789062 18.296875 52.5 18.523438 52.152344 18.730469 C 51.742188 18.976562 51.597656 19.164062 51.761719 19.265625 C 51.886719 19.347656 52.113281 19.308594 52.234375 19.183594 C 52.359375 19.058594 52.625 18.957031 52.832031 18.957031 C 53.035156 18.957031 53.445312 18.8125 53.714844 18.628906 L 54.226562 18.296875 L 54.226562 19.183594 C 54.226562 19.679688 54.289062 20.296875 54.351562 20.542969 C 54.472656 20.957031 54.410156 20.976562 53.570312 20.875 C 53.097656 20.8125 52.5 20.585938 52.253906 20.378906 C 52.027344 20.152344 51.679688 19.988281 51.472656 19.988281 C 51.105469 19.988281 50.015625 20.480469 49.503906 20.894531 C 49.339844 21.039062 48.371094 21.410156 47.347656 21.71875 C 45.167969 22.398438 42.703125 23.449219 42.417969 23.820312 C 42.3125 23.984375 41.863281 24.230469 41.449219 24.417969 C 41.019531 24.582031 40.671875 24.808594 40.671875 24.910156 C 40.671875 25.261719 41.449219 25.757812 42.027344 25.777344 C 42.355469 25.777344 42.785156 25.859375 43.011719 25.941406 C 43.359375 26.085938 43.359375 26.105469 43.054688 26.4375 C 42.847656 26.621094 42.5 26.785156 42.230469 26.785156 C 41.984375 26.785156 41.699219 26.871094 41.59375 26.972656 C 41.367188 27.179688 38.863281 28.230469 38.574219 28.230469 C 38.492188 28.230469 38.410156 28.148438 38.410156 28.0625 Z M 38.410156 28.0625 "/>
<path style=" stroke:none;fill-rule:nonzero;fill:rgb(51.764706%,45.098039%,30.588235%);fill-opacity:1;" d="M 45.085938 25.941406 C 44.882812 25.652344 45.476562 25.242188 47.039062 24.601562 C 48.085938 24.191406 49.03125 24.003906 51.351562 23.800781 C 54.164062 23.550781 55.007812 23.632812 54.515625 24.085938 C 54.351562 24.253906 52.027344 25.035156 49.277344 25.839844 C 47.984375 26.210938 45.292969 26.292969 45.085938 25.941406 Z M 45.085938 25.941406 "/>
</g>
</svg>
