<svg class="navbar-brand" id="outputsvg" xmlns="http://www.w3.org/2000/svg" width="154" viewBox="0 0 20540 2700">
                        <g id="l3ZkAfwhwDkCgQzGcxin7hP" fill="rgb(6, 123, 173)" stroke="rgb(6, 123, 173)" stroke-width="10" style="transform: none;">
                            <g style="transform: none;">
                                <path id="plpo7fumk" d="M10494 2631 c-22 -10 -57 -33 -78 -52 -22 -19 -207 -286 -437 -631 l-399 -598 2 -490 3 -490 485 739 c267 407 489 739 494 738 4 -2 279 -413 610 -915 l601 -912 322 0 323 0 -133 203 c-323 491 -1186 1796 -1347 2037 -180 268 -245 347 -315 376 -46 19 -81 17 -131 -5z"></path>
                                <path id="p11XonlL90" d="M270 2624 c0 -14 1634 -2464 1676 -2511 87 -101 174 -129 259 -85 90 46 56 -2 1301 1875 l483 727 -326 -2 -327 -3 -601 -910 c-330 -500 -605 -909 -610 -908 -6 1 -280 411 -610 912 l-600 910 -322 1 c-178 0 -323 -3 -323 -6z"></path>
                                <path id="p12pVzalwd" d="M4640 1325 l0 -1305 265 0 265 0 0 1305 0 1305 -265 0 -265 0 0 -1305z"></path>
                                <path id="pJ7UWl3Rk" d="M5520 2386 l0 -245 903 -3 902 -3 47 -23 c52 -26 92 -68 117 -122 14 -31 16 -109 16 -665 0 -556 -2 -634 -16 -665 -24 -52 -66 -98 -113 -123 l-41 -22 -907 -3 -908 -2 0 -246 0 -245 953 3 952 3 75 23 c266 82 447 271 527 552 17 60 18 114 18 725 0 741 2 719 -75 880 -97 204 -254 332 -485 397 -80 22 -83 22 -1022 26 l-943 3 0 -245z"></path>
                                <path id="prH9mT8g2" d="M8690 1325 l0 -1305 277 0 276 0 -6 827 c-4 454 -7 1042 -7 1305 l0 478 -270 0 -270 0 0 -1305z"></path>
                                <path id="pFhKGn4Nq" d="M11890 2040 l0 -590 266 -403 c146 -221 268 -404 270 -406 2 -2 4 444 4 992 l0 997 -270 0 -270 0 0 -590z"></path>
                                <path id="pG4838UD5" d="M1897 2389 c-115 -127 -207 -233 -204 -235 2 -2 200 -3 439 -2 l435 3 -203 230 c-165 187 -208 230 -231 233 -25 2 -50 -22 -236 -229z"></path>
                            </g>
                        </g>
                        <g id="l4fyBhFZjYrjXsrw3sTZ2fG" fill="rgb(6, 123, 173)" stroke="rgb(6, 123, 173)" stroke-width="10" style="transform: none;">
                            <g style="transform: none;">
                                <path id="pYGViFY2U" d="M13080 1325 l0 -1305 265 0 265 0 0 515 0 516 1073 -3 c1008 -3 1074 -4 1112 -21 112 -51 169 -178 141 -315 -16 -78 -53 -134 -113 -169 l-48 -28 -907 -3 -908 -2 0 -245 0 -246 953 3 c1071 4 990 -2 1162 82 196 96 331 273 386 504 18 73 20 109 16 222 -5 158 -20 221 -82 345 -75 153 -175 255 -320 325 -163 79 -67 73 -1330 80 -621 4 -1131 7 -1132 8 -2 1 -3 236 -3 522 l0 520 -265 0 -265 0 0 -1305z"></path>
                                <path id="pVaJmKWz9" d="M17130 1325 l0 -1305 270 0 270 0 0 515 0 516 1073 -3 1072 -3 40 -22 c90 -48 139 -135 139 -248 0 -111 -44 -193 -129 -238 -40 -22 -40 -22 -947 -25 l-908 -2 0 -245 0 -245 919 0 c999 0 997 0 1138 56 219 87 382 278 444 519 26 103 29 288 5 390 -57 243 -195 423 -401 521 -152 72 -67 68 -1315 74 -619 4 -1126 7 -1127 8 -2 1 -3 236 -3 522 l0 520 -270 0 -270 0 0 -1305z"></path>
                            </g>
                        </g>
                    </svg>