<svg xmlns:xlink="http://www.w3.org/1999/xlink" width="145" height="145" viewBox="0 0 24 24" xmlns="http://www.w3.org/2000/svg" fill="none"><g id="SVGRepo_bgCarrier" stroke-width="0px" fill="none"></g><g id="SVGRepo_tracerCarrier" stroke-linecap="round" stroke-linejoin="round" fill="none"></g><g id="SVGRepo_iconCarrier" fill="none"> <path stroke="#000000" stroke-linecap="round" stroke-linejoin="round" stroke-width="2px" d="m14.5 10-.035-.139A2.457 2.457 0 0 0 12.082 8h-.522a1.841 1.841 0 0 0-.684 3.55l2.248.9A1.841 1.841 0 0 1 12.44 16h-.521a2.457 2.457 0 0 1-2.384-1.861L9.5 14M12 6v2m0 8v2m9-6a9 9 0 1 1-18 0 9 9 0 0 1 18 0Z" fill="none"></path> </g></svg>